<?xml version="1.0" encoding="utf-8"?>
<!-- Generator: Adobe Illustrator 24.0.1, SVG Export Plug-In . SVG Version: 6.00 Build 0)  -->
<svg version="1.1" xmlns="http://www.w3.org/2000/svg" xmlns:xlink="http://www.w3.org/1999/xlink" x="0px" y="0px"
	 viewBox="0 0 147.8 147.8" style="enable-background:new 0 0 147.8 147.8;" xml:space="preserve">
<style type="text/css">
	.st0{fill:#FFFFFF;stroke:#FFFFFF;stroke-miterlimit:10;}
	.st1{fill:#FFFFFF;stroke:#000000;stroke-width:4;stroke-miterlimit:10;}
	.st2{fill:#000094;}
	.st3{fill:#FFFFFF;}
	.st4{fill:none;stroke:#000000;stroke-width:3.75;stroke-linejoin:round;}
	.st5{fill:#FFFFFF;stroke:#000000;stroke-miterlimit:10;}
	.st6{fill:#FFFFFF;stroke:#000000;stroke-width:0.25;}
</style>
<g id="Layer_2">
	<title>Alpha</title>
	<polygon class="st0" points="144,10.3 144,137.9 112.2,73.9 	"/>
	<path class="st1" d="M145.9,1.9v144V1.9z"/>
	<polygon class="st2" points="1.9,1.9 145.9,1.9 109.9,73.9 145.9,145.9 1.9,145.9 	"/>
	<rect x="1.9" y="1.9" class="st3" width="72" height="144"/>
	<polygon class="st4" points="1.9,1.9 145.9,1.9 109.9,73.9 145.9,145.9 1.9,145.9 	"/>
</g>
<g id="Layer_1">
	<g>
		<rect x="15.2" y="63" class="st5" width="2.2" height="14.6"/>
		<rect x="15.2" y="63" class="st6" width="2.2" height="14.6"/>
	</g>
	<g>
		<path class="st5" d="M26.7,61.6h2.1v7.6c0.6-0.6,1.6-1,2.4-1c1,0,1.8,0.4,2.4,1c0.6,0.9,1,1.8,0.9,2.8v5.6h-2.1v-5.5
			c0-0.6-0.1-1.1-0.4-1.6c-0.2-0.4-0.9-0.6-1.3-0.5c-0.6-0.1-1.2,0.2-1.6,0.7c-0.4,0.7-0.6,1.6-0.5,2.4v4.4h-2.1v-16H26.7z"/>
		<path class="st6" d="M26.7,61.6h2.1v7.6c0.6-0.6,1.6-1,2.4-1c1,0,1.8,0.4,2.4,1c0.6,0.9,1,1.8,0.9,2.8v5.6h-2.1v-5.5
			c0-0.6-0.1-1.1-0.4-1.6c-0.2-0.4-0.9-0.6-1.3-0.5c-0.6-0.1-1.2,0.2-1.6,0.7c-0.4,0.7-0.6,1.6-0.5,2.4v4.4h-2.1v-16H26.7z"/>
	</g>
	<g>
		<path class="st5" d="M44,68.5H46v9.3H44v-1c-1.6,1.7-4.1,1.7-5.8,0.1c-0.1-0.1-0.2-0.2-0.2-0.2c-0.9-1-1.3-2.2-1.3-3.5
			s0.4-2.4,1.3-3.5c0.7-1,1.9-1.3,3.2-1.3c1.1,0,2.1,0.5,2.9,1.3V68.5z M39,73.1c0,0.7,0.2,1.6,0.7,2.1c0.5,0.6,1.1,0.9,1.8,0.9
			c0.7,0,1.3-0.2,1.9-0.9c1-1.3,1-3,0-4.3C43,70.3,42.3,70,41.5,70c-0.7,0-1.3,0.2-1.8,0.9C39.2,71.5,38.8,72.2,39,73.1L39,73.1z"/>
		<path class="st6" d="M44,68.5H46v9.3H44v-1c-1.6,1.7-4.1,1.7-5.8,0.1c-0.1-0.1-0.2-0.2-0.2-0.2c-0.9-1-1.3-2.2-1.3-3.5
			s0.4-2.4,1.3-3.5c0.7-1,1.9-1.3,3.2-1.3c1.1,0,2.1,0.5,2.9,1.3V68.5z M39,73.1c0,0.7,0.2,1.6,0.7,2.1c0.5,0.6,1.1,0.9,1.8,0.9
			c0.7,0,1.3-0.2,1.9-0.9c1-1.3,1-3,0-4.3C43,70.3,42.3,70,41.5,70c-0.7,0-1.3,0.2-1.8,0.9C39.2,71.5,38.8,72.2,39,73.1L39,73.1z"/>
	</g>
	<g>
		<polygon class="st5" points="50.2,68.5 52.6,73.6 54.9,68.5 57.4,68.5 52.6,78.3 47.9,68.5 		"/>
		<polygon class="st6" points="50.2,68.5 52.6,73.6 54.9,68.5 57.4,68.5 52.6,78.3 47.9,68.5 		"/>
	</g>
	<g>
		<path class="st5" d="M66.7,73.6H60c0,0.6,0.2,1.3,0.7,1.8c0.5,0.5,1,0.6,1.7,0.6c0.5,0,1-0.1,1.3-0.4c0.5-0.4,0.9-0.9,1.2-1.3
			l1.8,1c-0.2,0.5-0.6,0.9-1,1.2c-0.2,0.2-0.6,0.6-1,0.9c-0.4,0.2-0.7,0.4-1.1,0.5c-0.5,0.1-1,0.2-1.3,0.2c-1.2,0.1-2.4-0.5-3.3-1.3
			c-0.9-1-1.3-2.2-1.3-3.5c-0.1-1.3,0.4-2.6,1.2-3.5c0.9-1,2.1-1.5,3.3-1.3c1.2-0.1,2.4,0.4,3.3,1.3c0.9,1,1.3,2.3,1.2,3.7
			L66.7,73.6z M64.7,71.9c-0.2-1-1.1-1.8-2.1-1.7c-0.2,0-0.5,0-0.7,0.1s-0.5,0.2-0.6,0.4c-0.2,0.2-0.4,0.4-0.5,0.6
			c-0.1,0.2-0.2,0.5-0.2,0.7h4.1V71.9z"/>
		<path class="st6" d="M66.7,73.6H60c0,0.6,0.2,1.3,0.7,1.8c0.5,0.5,1,0.6,1.7,0.6c0.5,0,1-0.1,1.3-0.4c0.5-0.4,0.9-0.9,1.2-1.3
			l1.8,1c-0.2,0.5-0.6,0.9-1,1.2c-0.2,0.2-0.6,0.6-1,0.9c-0.4,0.2-0.7,0.4-1.1,0.5c-0.5,0.1-1,0.2-1.3,0.2c-1.2,0.1-2.4-0.5-3.3-1.3
			c-0.9-1-1.3-2.2-1.3-3.5c-0.1-1.3,0.4-2.6,1.2-3.5c0.9-1,2.1-1.5,3.3-1.3c1.2-0.1,2.4,0.4,3.3,1.3c0.9,1,1.3,2.3,1.2,3.7
			L66.7,73.6z M64.7,71.9c-0.2-1-1.1-1.8-2.1-1.7c-0.2,0-0.5,0-0.7,0.1s-0.5,0.2-0.6,0.4c-0.2,0.2-0.4,0.4-0.5,0.6
			c-0.1,0.2-0.2,0.5-0.2,0.7h4.1V71.9z"/>
	</g>
	<g>
		<path class="st5" d="M82,68.5H84v9.3H82v-1c-1.6,1.7-4.1,1.7-5.8,0.1c-0.1-0.1-0.2-0.2-0.2-0.2c-0.9-1-1.3-2.2-1.2-3.5
			c0-1.3,0.4-2.4,1.2-3.5c0.7-1,1.9-1.5,3.2-1.3c1.1,0,2.1,0.5,2.9,1.3V68.5z M76.9,73.1c0,0.7,0.2,1.6,0.7,2.1
			c0.5,0.6,1.1,0.9,1.8,0.9s1.3-0.2,1.9-0.9c1-1.3,1-3,0-4.3c-0.5-0.6-1.2-0.9-1.8-0.9c-0.7,0-1.3,0.2-1.8,0.9
			C77.1,71.5,76.9,72.2,76.9,73.1L76.9,73.1z"/>
		<path class="st6" d="M82,68.5H84v9.3H82v-1c-1.6,1.7-4.1,1.7-5.8,0.1c-0.1-0.1-0.2-0.2-0.2-0.2c-0.9-1-1.3-2.2-1.2-3.5
			c0-1.3,0.4-2.4,1.2-3.5c0.7-1,1.9-1.5,3.2-1.3c1.1,0,2.1,0.5,2.9,1.3V68.5z M76.9,73.1c0,0.7,0.2,1.6,0.7,2.1
			c0.5,0.6,1.1,0.9,1.8,0.9s1.3-0.2,1.9-0.9c1-1.3,1-3,0-4.3c-0.5-0.6-1.2-0.9-1.8-0.9c-0.7,0-1.3,0.2-1.8,0.9
			C77.1,71.5,76.9,72.2,76.9,73.1L76.9,73.1z"/>
	</g>
	<g>
		<path class="st5" d="M99.5,61.6h2.1v16h-2.1v-1c-0.7,0.7-1.7,1.2-2.9,1.2c-1.2,0-2.3-0.5-3.2-1.3c-0.9-1-1.3-2.2-1.3-3.5
			c0-1.3,0.4-2.4,1.3-3.4c1.5-1.7,4-1.8,5.6-0.4c0.1,0.1,0.2,0.2,0.4,0.4v-7.9H99.5z M94.5,73c0,0.7,0.2,1.6,0.7,2.1
			c0.5,0.6,1.1,0.9,1.8,0.9c0.7,0,1.3-0.2,1.9-0.9c1-1.3,1-3,0-4.3c-0.5-0.6-1.2-0.9-1.8-0.9c-0.7,0-1.3,0.2-1.8,0.9
			C94.8,71.5,94.5,72.2,94.5,73L94.5,73z"/>
		<path class="st6" d="M99.5,61.6h2.1v16h-2.1v-1c-0.7,0.7-1.7,1.2-2.9,1.2c-1.2,0-2.3-0.5-3.2-1.3c-0.9-1-1.3-2.2-1.3-3.5
			c0-1.3,0.4-2.4,1.3-3.4c1.5-1.7,4-1.8,5.6-0.4c0.1,0.1,0.2,0.2,0.4,0.4v-7.9H99.5z M94.5,73c0,0.7,0.2,1.6,0.7,2.1
			c0.5,0.6,1.1,0.9,1.8,0.9c0.7,0,1.3-0.2,1.9-0.9c1-1.3,1-3,0-4.3c-0.5-0.6-1.2-0.9-1.8-0.9c-0.7,0-1.3,0.2-1.8,0.9
			C94.8,71.5,94.5,72.2,94.5,73L94.5,73z"/>
	</g>
	<g>
		<path class="st5" d="M104,64.6c0-0.7,0.6-1.3,1.3-1.3c0.4,0,0.7,0.2,1,0.4c0.2,0.2,0.4,0.6,0.4,1s-0.2,0.7-0.4,1
			c-0.2,0.2-0.6,0.4-1,0.4C104.6,65.9,104,65.4,104,64.6L104,64.6z M106.5,68.5v9.3h-2.1v-9.3H106.5z"/>
		<path class="st6" d="M104,64.6c0-0.7,0.6-1.3,1.3-1.3c0.4,0,0.7,0.2,1,0.4c0.2,0.2,0.4,0.6,0.4,1s-0.2,0.7-0.4,1
			c-0.2,0.2-0.6,0.4-1,0.4C104.6,65.9,104,65.4,104,64.6L104,64.6z M106.5,68.5v9.3h-2.1v-9.3H106.5z"/>
	</g>
	<g>
		<polygon class="st5" points="110.4,68.5 112.8,73.6 115.2,68.5 117.5,68.5 112.8,78.3 107.9,68.5 		"/>
		<polygon class="st6" points="110.4,68.5 112.8,73.6 115.2,68.5 117.5,68.5 112.8,78.3 107.9,68.5 		"/>
	</g>
	<g>
		<path class="st5" d="M127,73.6h-6.6c0,0.6,0.2,1.3,0.7,1.8c0.9,0.7,2.1,1,2.9,0.2c0.5-0.5,0.9-1,1.1-1.5l1.8,1
			c-0.2,0.5-0.6,0.9-1,1.2c-0.2,0.2-0.6,0.6-1,0.9s-0.7,0.4-1.1,0.5c-0.5,0.1-1,0.2-1.3,0.2c-1.2,0.1-2.4-0.5-3.3-1.3
			c-0.9-1-1.3-2.2-1.3-3.5c-0.1-1.3,0.4-2.6,1.2-3.5c0.9-1,2.1-1.3,3.3-1.3c1.2-0.1,2.4,0.4,3.3,1.3c0.9,1,1.3,2.3,1.2,3.7L127,73.6
			z M124.9,71.9c-0.2-1-1.1-1.7-2.1-1.7c-0.2,0-0.5,0-0.7,0.1c-0.2,0.1-0.5,0.2-0.6,0.4c-0.2,0.2-0.4,0.4-0.5,0.6
			c-0.2,0.2-0.2,0.5-0.2,0.7L124.9,71.9L124.9,71.9z"/>
		<path class="st6" d="M127,73.6h-6.6c0,0.6,0.2,1.3,0.7,1.8c0.9,0.7,2.1,1,2.9,0.2c0.5-0.5,0.9-1,1.1-1.5l1.8,1
			c-0.2,0.5-0.6,0.9-1,1.2c-0.2,0.2-0.6,0.6-1,0.9s-0.7,0.4-1.1,0.5c-0.5,0.1-1,0.2-1.3,0.2c-1.2,0.1-2.4-0.5-3.3-1.3
			c-0.9-1-1.3-2.2-1.3-3.5c-0.1-1.3,0.4-2.6,1.2-3.5c0.9-1,2.1-1.3,3.3-1.3c1.2-0.1,2.4,0.4,3.3,1.3c0.9,1,1.3,2.3,1.2,3.7L127,73.6
			z M124.9,71.9c-0.2-1-1.1-1.7-2.1-1.7c-0.2,0-0.5,0-0.7,0.1c-0.2,0.1-0.5,0.2-0.6,0.4c-0.2,0.2-0.4,0.4-0.5,0.6
			c-0.2,0.2-0.2,0.5-0.2,0.7L124.9,71.9L124.9,71.9z"/>
	</g>
	<g>
		<path class="st5" d="M129.4,68.5h2.1v0.9c0.2-0.4,0.6-0.6,1-0.9c0.4-0.2,0.7-0.2,1.1-0.2c0.6,0,1.2,0.2,1.7,0.6l-1,1.9
			c-0.4-0.2-0.7-0.5-1.2-0.5c-1.2,0-1.7,0.9-1.7,2.6v4.8h-2.1L129.4,68.5L129.4,68.5z"/>
		<path class="st6" d="M129.4,68.5h2.1v0.9c0.2-0.4,0.6-0.6,1-0.9c0.4-0.2,0.7-0.2,1.1-0.2c0.6,0,1.2,0.2,1.7,0.6l-1,1.9
			c-0.4-0.2-0.7-0.5-1.2-0.5c-1.2,0-1.7,0.9-1.7,2.6v4.8h-2.1L129.4,68.5L129.4,68.5z"/>
	</g>
	<g>
		<path class="st5" d="M30.1,81.5h2.1v16h-2.1v-0.9c-0.7,0.7-1.7,1.2-2.9,1.2c-1.2,0-2.3-0.5-3.2-1.3c-0.9-1-1.3-2.3-1.2-3.7
			c0-1.3,0.4-2.4,1.3-3.4c0.7-1,1.9-1.3,3.2-1.3c1.1,0,2.1,0.5,2.9,1.3L30.1,81.5z M25,92.9c0,0.7,0.2,1.6,0.7,2.1
			c0.5,0.6,1.1,0.9,1.8,0.9c0.7,0,1.3-0.2,1.9-0.9c1-1.3,1-3,0-4.3c-1-1-2.6-1.1-3.7-0.1l-0.1,0.1C25.3,91.4,25,92.1,25,92.9
			L25,92.9z"/>
		<path class="st6" d="M30.1,81.5h2.1v16h-2.1v-0.9c-0.7,0.7-1.7,1.2-2.9,1.2c-1.2,0-2.3-0.5-3.2-1.3c-0.9-1-1.3-2.3-1.2-3.7
			c0-1.3,0.4-2.4,1.3-3.4c0.7-1,1.9-1.3,3.2-1.3c1.1,0,2.1,0.5,2.9,1.3L30.1,81.5z M25,92.9c0,0.7,0.2,1.6,0.7,2.1
			c0.5,0.6,1.1,0.9,1.8,0.9c0.7,0,1.3-0.2,1.9-0.9c1-1.3,1-3,0-4.3c-1-1-2.6-1.1-3.7-0.1l-0.1,0.1C25.3,91.4,25,92.1,25,92.9
			L25,92.9z"/>
	</g>
	<g>
		<path class="st5" d="M34.4,92.9c0-1.3,0.5-2.4,1.3-3.4c1.9-1.8,5.1-1.8,7.1,0c1.9,1.9,1.9,5,0,6.9c-1,1-2.2,1.3-3.5,1.3
			c-2.7,0-4.8-2.1-4.9-4.8C34.4,93,34.4,93,34.4,92.9L34.4,92.9z M36.7,92.9c0,0.9,0.2,1.6,0.7,2.2c0.6,0.6,1.3,0.9,2.1,0.9
			c0.7,0,1.5-0.2,2.1-0.9c1-1.3,1-3,0-4.4c-1.1-1.1-2.9-1.1-4,0C36.8,91.3,36.6,92.1,36.7,92.9L36.7,92.9z"/>
		<path class="st6" d="M34.4,92.9c0-1.3,0.5-2.4,1.3-3.4c1.9-1.8,5.1-1.8,7.1,0c1.9,1.9,1.9,5,0,6.9c-1,1-2.2,1.3-3.5,1.3
			c-2.7,0-4.8-2.1-4.9-4.8C34.4,93,34.4,93,34.4,92.9L34.4,92.9z M36.7,92.9c0,0.9,0.2,1.6,0.7,2.2c0.6,0.6,1.3,0.9,2.1,0.9
			c0.7,0,1.5-0.2,2.1-0.9c1-1.3,1-3,0-4.4c-1.1-1.1-2.9-1.1-4,0C36.8,91.3,36.6,92.1,36.7,92.9L36.7,92.9z"/>
	</g>
	<g>
		<polygon class="st5" points="47.4,88.3 49.7,93.6 52.4,87.5 55.1,93.6 57.4,88.3 59.9,88.3 55.1,98.2 52.4,92.4 49.9,98.2 
			45.1,88.3 		"/>
		<polygon class="st6" points="47.4,88.3 49.7,93.6 52.4,87.5 55.1,93.6 57.4,88.3 59.9,88.3 55.1,98.2 52.4,92.4 49.9,98.2 
			45.1,88.3 		"/>
	</g>
	<g>
		<path class="st5" d="M61.2,88.3h2.1v0.9c0.6-0.7,1.6-1.1,2.4-1.1c1-0.1,1.8,0.2,2.4,1c0.6,0.9,0.9,1.7,0.7,2.8v5.7h-2.1v-5.1
			c0.1-0.6-0.1-1.3-0.4-1.8c-0.4-0.4-0.9-0.6-1.3-0.6c-0.6-0.1-1.2,0.2-1.5,0.7c-0.4,0.7-0.5,1.6-0.5,2.4v4.4h-2.1L61.2,88.3z"/>
		<path class="st6" d="M61.2,88.3h2.1v0.9c0.6-0.7,1.6-1.1,2.4-1.1c1-0.1,1.8,0.2,2.4,1c0.6,0.9,0.9,1.7,0.7,2.8v5.7h-2.1v-5.1
			c0.1-0.6-0.1-1.3-0.4-1.8c-0.4-0.4-0.9-0.6-1.3-0.6c-0.6-0.1-1.2,0.2-1.5,0.7c-0.4,0.7-0.5,1.6-0.5,2.4v4.4h-2.1L61.2,88.3z"/>
	</g>
	<g>
		<path class="st5" d="M73.1,94.8l1.8,0.7l-2.7,5.4l-1.3-0.6L73.1,94.8z M72.6,89.3c0-0.4,0.1-0.6,0.4-1c0.5-0.6,1.3-0.6,1.8,0l0,0
			c0.2,0.2,0.4,0.6,0.4,1c0,0.7-0.6,1.3-1.3,1.3c-0.4,0-0.6-0.2-1-0.4C72.8,90,72.6,89.7,72.6,89.3L72.6,89.3z"/>
		<path class="st6" d="M73.1,94.8l1.8,0.7l-2.7,5.4l-1.3-0.6L73.1,94.8z M72.6,89.3c0-0.4,0.1-0.6,0.4-1c0.5-0.6,1.3-0.6,1.8,0l0,0
			c0.2,0.2,0.4,0.6,0.4,1c0,0.7-0.6,1.3-1.3,1.3c-0.4,0-0.6-0.2-1-0.4C72.8,90,72.6,89.7,72.6,89.3L72.6,89.3z"/>
	</g>
	<g>
		<polygon class="st5" points="84.2,81.5 84.2,91.2 87.1,88.3 90.1,88.3 86,92.2 90.4,97.6 87.6,97.6 84.6,93.7 84.2,94 84.2,97.6 
			82,97.6 82,81.5 		"/>
		<polygon class="st6" points="84.2,81.5 84.2,91.2 87.1,88.3 90.1,88.3 86,92.2 90.4,97.6 87.6,97.6 84.6,93.7 84.2,94 84.2,97.6 
			82,97.6 82,81.5 		"/>
	</g>
	<g>
		<path class="st5" d="M99.8,93.4h-6.6c0,0.6,0.2,1.3,0.7,1.8c0.9,0.7,2.1,1,2.9,0.2c0.5-0.4,0.9-0.9,1.2-1.3l1.8,1
			c-0.2,0.5-0.6,0.9-1,1.2c-0.2,0.4-0.6,0.6-1,0.9s-0.7,0.4-1.1,0.5c-0.5,0.1-1,0.2-1.3,0.2c-1.2,0-2.4-0.5-3.3-1.3
			c-0.9-1-1.3-2.2-1.3-3.5c-0.1-1.3,0.4-2.6,1.3-3.5c0.9-1,2.1-1.3,3.3-1.3c1.2-0.1,2.4,0.4,3.3,1.3c0.9,1,1.3,2.3,1.2,3.7
			L99.8,93.4z M97.6,91.6c-0.2-1-1.1-1.7-2.1-1.7c-0.2,0-0.5,0-0.7,0.1c-0.2,0.1-0.5,0.2-0.6,0.4c-0.2,0.2-0.4,0.4-0.5,0.6
			s-0.2,0.5-0.2,0.7L97.6,91.6z"/>
		<path class="st6" d="M99.8,93.4h-6.6c0,0.6,0.2,1.3,0.7,1.8c0.9,0.7,2.1,1,2.9,0.2c0.5-0.4,0.9-0.9,1.2-1.3l1.8,1
			c-0.2,0.5-0.6,0.9-1,1.2c-0.2,0.4-0.6,0.6-1,0.9s-0.7,0.4-1.1,0.5c-0.5,0.1-1,0.2-1.3,0.2c-1.2,0-2.4-0.5-3.3-1.3
			c-0.9-1-1.3-2.2-1.3-3.5c-0.1-1.3,0.4-2.6,1.3-3.5c0.9-1,2.1-1.3,3.3-1.3c1.2-0.1,2.4,0.4,3.3,1.3c0.9,1,1.3,2.3,1.2,3.7
			L99.8,93.4z M97.6,91.6c-0.2-1-1.1-1.7-2.1-1.7c-0.2,0-0.5,0-0.7,0.1c-0.2,0.1-0.5,0.2-0.6,0.4c-0.2,0.2-0.4,0.4-0.5,0.6
			s-0.2,0.5-0.2,0.7L97.6,91.6z"/>
	</g>
	<g>
		<path class="st5" d="M110.7,93.4H104c0,0.6,0.2,1.3,0.7,1.8c0.9,0.7,2.1,1,2.9,0.2c0.5-0.4,0.9-1,1.2-1.5l1.7,1
			c-0.2,0.5-0.6,0.9-0.9,1.2s-0.6,0.6-1,0.9s-0.7,0.4-1.1,0.5c-0.5,0.1-1,0.2-1.3,0.2c-1.2,0.1-2.4-0.5-3.3-1.3
			c-0.9-1-1.3-2.2-1.3-3.5c-0.1-1.3,0.4-2.6,1.2-3.5c0.9-1,2.1-1.3,3.3-1.3c1.2-0.1,2.4,0.4,3.3,1.3c0.9,1,1.3,2.3,1.2,3.7V93.4z
			 M108.3,91.6c-0.2-1-1.1-1.7-2.1-1.7c-0.5,0-1,0.2-1.3,0.5c-0.2,0.2-0.4,0.4-0.5,0.6c-0.2,0.2-0.2,0.5-0.2,0.7L108.3,91.6
			L108.3,91.6z"/>
		<path class="st6" d="M110.7,93.4H104c0,0.6,0.2,1.3,0.7,1.8c0.9,0.7,2.1,1,2.9,0.2c0.5-0.4,0.9-1,1.2-1.5l1.7,1
			c-0.2,0.5-0.6,0.9-0.9,1.2s-0.6,0.6-1,0.9s-0.7,0.4-1.1,0.5c-0.5,0.1-1,0.2-1.3,0.2c-1.2,0.1-2.4-0.5-3.3-1.3
			c-0.9-1-1.3-2.2-1.3-3.5c-0.1-1.3,0.4-2.6,1.2-3.5c0.9-1,2.1-1.3,3.3-1.3c1.2-0.1,2.4,0.4,3.3,1.3c0.9,1,1.3,2.3,1.2,3.7V93.4z
			 M108.3,91.6c-0.2-1-1.1-1.7-2.1-1.7c-0.5,0-1,0.2-1.3,0.5c-0.2,0.2-0.4,0.4-0.5,0.6c-0.2,0.2-0.2,0.5-0.2,0.7L108.3,91.6
			L108.3,91.6z"/>
	</g>
	<g>
		<path class="st5" d="M115,102.6H113V88.3h2.1v1c0.7-0.9,1.7-1.3,2.9-1.3c1.2,0,2.3,0.5,3.2,1.3c0.9,1,1.3,2.2,1.3,3.5
			c0,1.3-0.4,2.4-1.3,3.4c-1.5,1.7-4,1.8-5.7,0.4c-0.1-0.1-0.2-0.2-0.2-0.2v6.2H115z M120.2,92.9c0-0.7-0.2-1.6-0.7-2.1
			c-0.5-0.6-1.1-0.9-1.8-0.9c-0.7,0-1.3,0.2-1.9,0.9c-0.5,0.6-0.7,1.3-0.7,2.1s0.2,1.6,0.7,2.1c0.5,0.6,1.2,0.9,1.8,0.9
			c0.7,0,1.3-0.2,1.8-0.9C119.8,94.4,120.2,93.7,120.2,92.9L120.2,92.9z"/>
		<path class="st6" d="M115,102.6H113V88.3h2.1v1c0.7-0.9,1.7-1.3,2.9-1.3c1.2,0,2.3,0.5,3.2,1.3c0.9,1,1.3,2.2,1.3,3.5
			c0,1.3-0.4,2.4-1.3,3.4c-1.5,1.7-4,1.8-5.7,0.4c-0.1-0.1-0.2-0.2-0.2-0.2v6.2H115z M120.2,92.9c0-0.7-0.2-1.6-0.7-2.1
			c-0.5-0.6-1.1-0.9-1.8-0.9c-0.7,0-1.3,0.2-1.9,0.9c-0.5,0.6-0.7,1.3-0.7,2.1s0.2,1.6,0.7,2.1c0.5,0.6,1.2,0.9,1.8,0.9
			c0.7,0,1.3-0.2,1.8-0.9C119.8,94.4,120.2,93.7,120.2,92.9L120.2,92.9z"/>
	</g>
	<g>
		<polygon class="st5" points="21.6,109.2 24,114.4 26.6,108.3 29.2,114.4 31.6,109.2 34,109.2 29.2,119 26.6,113.2 24,119 
			19.2,109.2 		"/>
		<polygon class="st6" points="21.6,109.2 24,114.4 26.6,108.3 29.2,114.4 31.6,109.2 34,109.2 29.2,119 26.6,113.2 24,119 
			19.2,109.2 		"/>
	</g>
	<g>
		<path class="st5" d="M43.5,114.3h-6.7c0,0.6,0.2,1.3,0.7,1.8c0.5,0.5,1,0.6,1.7,0.6c0.5,0,1-0.1,1.3-0.4c0.5-0.4,0.9-0.9,1.2-1.3
			l1.8,1c-0.2,0.5-0.6,0.9-1,1.2c-0.2,0.4-0.6,0.6-1,0.9s-0.7,0.4-1.1,0.5c-0.5,0.1-1,0.2-1.3,0.2c-1.2,0.1-2.4-0.5-3.3-1.3
			c-0.9-1-1.3-2.2-1.3-3.5c-0.1-1.3,0.4-2.6,1.2-3.5c0.9-1,2.1-1.3,3.3-1.3c1.2-0.1,2.4,0.4,3.3,1.3c0.9,1,1.3,2.3,1.2,3.7
			L43.5,114.3z M41.5,112.5c-0.2-1-1.1-1.7-2.1-1.7c-0.2,0-0.5,0-0.7,0.1c-0.2,0.1-0.5,0.2-0.6,0.4c-0.2,0.2-0.4,0.4-0.5,0.6
			c-0.1,0.2-0.2,0.5-0.2,0.7L41.5,112.5L41.5,112.5z"/>
		<path class="st6" d="M43.5,114.3h-6.7c0,0.6,0.2,1.3,0.7,1.8c0.5,0.5,1,0.6,1.7,0.6c0.5,0,1-0.1,1.3-0.4c0.5-0.4,0.9-0.9,1.2-1.3
			l1.8,1c-0.2,0.5-0.6,0.9-1,1.2c-0.2,0.4-0.6,0.6-1,0.9s-0.7,0.4-1.1,0.5c-0.5,0.1-1,0.2-1.3,0.2c-1.2,0.1-2.4-0.5-3.3-1.3
			c-0.9-1-1.3-2.2-1.3-3.5c-0.1-1.3,0.4-2.6,1.2-3.5c0.9-1,2.1-1.3,3.3-1.3c1.2-0.1,2.4,0.4,3.3,1.3c0.9,1,1.3,2.3,1.2,3.7
			L43.5,114.3z M41.5,112.5c-0.2-1-1.1-1.7-2.1-1.7c-0.2,0-0.5,0-0.7,0.1c-0.2,0.1-0.5,0.2-0.6,0.4c-0.2,0.2-0.4,0.4-0.5,0.6
			c-0.1,0.2-0.2,0.5-0.2,0.7L41.5,112.5L41.5,112.5z"/>
	</g>
	<g>
		<rect x="46" y="102.3" class="st5" width="2.1" height="16"/>
		<rect x="46" y="102.3" class="st6" width="2.1" height="16"/>
	</g>
	<g>
		<rect x="50.8" y="102.3" class="st5" width="2.1" height="16"/>
		<rect x="50.8" y="102.3" class="st6" width="2.1" height="16"/>
	</g>
	<g>
		<path class="st5" d="M68.7,109.5v2.9c-0.4-0.5-0.9-1-1.3-1.2c-0.4-0.2-0.9-0.4-1.3-0.4c-0.7,0-1.5,0.2-2.1,0.9s-0.9,1.3-0.9,2.1
			s0.2,1.6,0.7,2.1c0.5,0.6,1.2,0.9,1.9,0.9c0.5,0,1-0.1,1.3-0.4c0.6-0.4,1-0.7,1.3-1.3v2.8c-0.9,0.5-1.7,0.6-2.6,0.6
			c-1.3,0-2.6-0.5-3.7-1.3c-1.9-1.9-1.9-5,0-6.9l0,0c1-1,2.2-1.5,3.7-1.3C67,108.9,68,109,68.7,109.5z"/>
		<path class="st6" d="M68.7,109.5v2.9c-0.4-0.5-0.9-1-1.3-1.2c-0.4-0.2-0.9-0.4-1.3-0.4c-0.7,0-1.5,0.2-2.1,0.9s-0.9,1.3-0.9,2.1
			s0.2,1.6,0.7,2.1c0.5,0.6,1.2,0.9,1.9,0.9c0.5,0,1-0.1,1.3-0.4c0.6-0.4,1-0.7,1.3-1.3v2.8c-0.9,0.5-1.7,0.6-2.6,0.6
			c-1.3,0-2.6-0.5-3.7-1.3c-1.9-1.9-1.9-5,0-6.9l0,0c1-1,2.2-1.5,3.7-1.3C67,108.9,68,109,68.7,109.5z"/>
	</g>
	<g>
		<rect x="70.8" y="102.3" class="st5" width="2.1" height="16"/>
		<rect x="70.8" y="102.3" class="st6" width="2.1" height="16"/>
	</g>
	<g>
		<path class="st5" d="M84.1,114.3h-6.7c0,0.6,0.2,1.3,0.7,1.8c0.5,0.5,1,0.6,1.7,0.6c0.5,0,1-0.1,1.3-0.4c0.5-0.4,0.9-0.9,1.2-1.3
			l1.8,1c-0.2,0.5-0.6,0.9-1,1.2c-0.2,0.4-0.6,0.6-1,0.9s-0.7,0.4-1.1,0.5c-0.5,0.1-1,0.2-1.3,0.2c-1.2,0.1-2.4-0.5-3.3-1.3
			c-0.9-1-1.3-2.2-1.3-3.5c-0.1-1.3,0.4-2.6,1.2-3.7c1.7-1.7,4.8-1.7,6.5,0c0.9,1,1.3,2.3,1.2,3.7V114.3z M81.8,112.5
			c-0.2-1-1.1-1.7-2.1-1.7c-0.2,0-0.5,0-0.7,0.1s-0.5,0.2-0.6,0.4c-0.2,0.2-0.4,0.4-0.5,0.6s-0.2,0.5-0.2,0.7L81.8,112.5L81.8,112.5
			z"/>
		<path class="st6" d="M84.1,114.3h-6.7c0,0.6,0.2,1.3,0.7,1.8c0.5,0.5,1,0.6,1.7,0.6c0.5,0,1-0.1,1.3-0.4c0.5-0.4,0.9-0.9,1.2-1.3
			l1.8,1c-0.2,0.5-0.6,0.9-1,1.2c-0.2,0.4-0.6,0.6-1,0.9s-0.7,0.4-1.1,0.5c-0.5,0.1-1,0.2-1.3,0.2c-1.2,0.1-2.4-0.5-3.3-1.3
			c-0.9-1-1.3-2.2-1.3-3.5c-0.1-1.3,0.4-2.6,1.2-3.7c1.7-1.7,4.8-1.7,6.5,0c0.9,1,1.3,2.3,1.2,3.7V114.3z M81.8,112.5
			c-0.2-1-1.1-1.7-2.1-1.7c-0.2,0-0.5,0-0.7,0.1s-0.5,0.2-0.6,0.4c-0.2,0.2-0.4,0.4-0.5,0.6s-0.2,0.5-0.2,0.7L81.8,112.5L81.8,112.5
			z"/>
	</g>
	<g>
		<path class="st5" d="M93.2,109.2h2.1v9.3h-2.1v-1c-1.6,1.7-4.1,1.7-5.8,0.1c-0.1-0.1-0.2-0.2-0.2-0.2c-0.9-1-1.3-2.2-1.2-3.5
			c0-1.3,0.4-2.4,1.2-3.5c0.7-1,1.9-1.3,3.2-1.3c1.1,0,2.1,0.5,2.9,1.3V109.2z M88.1,113.8c0,0.7,0.2,1.6,0.7,2.1
			c0.5,0.6,1.1,0.9,1.8,0.9s1.3-0.2,1.9-0.9c1-1.3,1-3,0-4.3c-0.5-0.6-1.1-0.9-1.8-0.9s-1.3,0.2-1.8,0.9
			C88.4,112.2,88.1,112.9,88.1,113.8L88.1,113.8z"/>
		<path class="st6" d="M93.2,109.2h2.1v9.3h-2.1v-1c-1.6,1.7-4.1,1.7-5.8,0.1c-0.1-0.1-0.2-0.2-0.2-0.2c-0.9-1-1.3-2.2-1.2-3.5
			c0-1.3,0.4-2.4,1.2-3.5c0.7-1,1.9-1.3,3.2-1.3c1.1,0,2.1,0.5,2.9,1.3V109.2z M88.1,113.8c0,0.7,0.2,1.6,0.7,2.1
			c0.5,0.6,1.1,0.9,1.8,0.9s1.3-0.2,1.9-0.9c1-1.3,1-3,0-4.3c-0.5-0.6-1.1-0.9-1.8-0.9s-1.3,0.2-1.8,0.9
			C88.4,112.2,88.1,112.9,88.1,113.8L88.1,113.8z"/>
	</g>
	<g>
		<path class="st5" d="M98,109.2h2.1v0.9c0.2-0.4,0.6-0.6,1-0.9s0.7-0.2,1.1-0.2c0.6,0,1.2,0.2,1.7,0.6l-1,1.9
			c-0.4-0.2-0.7-0.5-1.2-0.5c-1.2,0-1.7,1-1.7,2.6v4.8h-2.1L98,109.2L98,109.2z"/>
		<path class="st6" d="M98,109.2h2.1v0.9c0.2-0.4,0.6-0.6,1-0.9s0.7-0.2,1.1-0.2c0.6,0,1.2,0.2,1.7,0.6l-1,1.9
			c-0.4-0.2-0.7-0.5-1.2-0.5c-1.2,0-1.7,1-1.7,2.6v4.8h-2.1L98,109.2L98,109.2z"/>
	</g>
	<g>
		<path class="st5" d="M118.1,109.2h2.1v9.3h-2.1v-1c-1.6,1.7-4.1,1.7-5.8,0.1c-0.1-0.1-0.2-0.2-0.2-0.2c-0.9-1-1.3-2.2-1.2-3.5
			c-0.1-1.3,0.4-2.6,1.2-3.5c0.7-1,1.9-1.3,3.2-1.3c1.1,0,2.1,0.5,2.9,1.3V109.2z M113,113.8c0,0.7,0.2,1.6,0.7,2.1
			c0.5,0.6,1.1,0.9,1.8,0.9c0.7,0,1.5-0.2,1.9-0.9c1-1.3,1-3,0-4.3c-0.5-0.6-1.2-0.9-1.8-0.9c-0.7,0-1.3,0.2-1.8,0.9
			C113.2,112.2,113,112.9,113,113.8L113,113.8z"/>
		<path class="st6" d="M118.1,109.2h2.1v9.3h-2.1v-1c-1.6,1.7-4.1,1.7-5.8,0.1c-0.1-0.1-0.2-0.2-0.2-0.2c-0.9-1-1.3-2.2-1.2-3.5
			c-0.1-1.3,0.4-2.6,1.2-3.5c0.7-1,1.9-1.3,3.2-1.3c1.1,0,2.1,0.5,2.9,1.3V109.2z M113,113.8c0,0.7,0.2,1.6,0.7,2.1
			c0.5,0.6,1.1,0.9,1.8,0.9c0.7,0,1.5-0.2,1.9-0.9c1-1.3,1-3,0-4.3c-0.5-0.6-1.2-0.9-1.8-0.9c-0.7,0-1.3,0.2-1.8,0.9
			C113.2,112.2,113,112.9,113,113.8L113,113.8z"/>
	</g>
	<g>
		<polygon class="st5" points="125,111.2 125,118.4 123,118.4 123,111.2 122,111.2 122,109.2 123,109.2 123,105.8 125,105.8 
			125,109.2 126.7,109.2 126.7,111.2 		"/>
		<polygon class="st6" points="125,111.2 125,118.4 123,118.4 123,111.2 122,111.2 122,109.2 123,109.2 123,105.8 125,105.8 
			125,109.2 126.7,109.2 126.7,111.2 		"/>
	</g>
	<g>
		<path class="st5" d="M25.4,128.1h2.1v9.3h-2.1v-1c-1.6,1.7-4.1,1.7-5.8,0.1c-0.1-0.1-0.2-0.2-0.2-0.2c-0.9-1-1.3-2.2-1.2-3.5
			c0-1.3,0.4-2.4,1.3-3.5c0.7-1,1.9-1.3,3.2-1.3c1.1,0,2.1,0.5,2.9,1.3L25.4,128.1z M20.3,132.7c0,0.7,0.2,1.6,0.7,2.1
			c0.5,0.6,1.1,0.9,1.8,0.9s1.3-0.2,1.9-0.9c1-1.3,1-3,0-4.3c-0.5-0.6-1.1-0.9-1.8-0.9c-0.7,0-1.3,0.2-1.8,0.9
			C20.6,131.1,20.3,131.8,20.3,132.7L20.3,132.7z"/>
		<path class="st6" d="M25.4,128.1h2.1v9.3h-2.1v-1c-1.6,1.7-4.1,1.7-5.8,0.1c-0.1-0.1-0.2-0.2-0.2-0.2c-0.9-1-1.3-2.2-1.2-3.5
			c0-1.3,0.4-2.4,1.3-3.5c0.7-1,1.9-1.3,3.2-1.3c1.1,0,2.1,0.5,2.9,1.3L25.4,128.1z M20.3,132.7c0,0.7,0.2,1.6,0.7,2.1
			c0.5,0.6,1.1,0.9,1.8,0.9s1.3-0.2,1.9-0.9c1-1.3,1-3,0-4.3c-0.5-0.6-1.1-0.9-1.8-0.9c-0.7,0-1.3,0.2-1.8,0.9
			C20.6,131.1,20.3,131.8,20.3,132.7L20.3,132.7z"/>
	</g>
	<g>
		<path class="st5" d="M41.5,129.6l-1.7,1c-0.2-0.6-0.6-0.9-1-0.9c-0.2,0-0.4,0.1-0.6,0.2c-0.1,0.1-0.2,0.2-0.2,0.5
			c0,0.4,0.4,0.7,1.2,1c0.9,0.2,1.6,0.7,2.3,1.3c0.4,0.5,0.6,1,0.6,1.7c0,0.9-0.4,1.7-1,2.2c-1.5,1.3-3.7,1.1-5-0.4
			c-0.2-0.2-0.5-0.6-0.6-1l1.8-0.9c0.2,0.2,0.4,0.6,0.6,0.9c0.2,0.2,0.6,0.4,1,0.4c0.7,0,1.1-0.4,1.1-1c0-0.4-0.2-0.7-0.9-1
			l-0.6-0.2l-0.6-0.2c-0.5-0.2-1-0.6-1.3-1c-0.4-0.5-0.6-1-0.5-1.5c0-0.7,0.2-1.5,0.9-2.1c0.6-0.6,1.3-0.9,2.1-0.7
			C40,127.8,41,128.6,41.5,129.6z"/>
		<path class="st6" d="M41.5,129.6l-1.7,1c-0.2-0.6-0.6-0.9-1-0.9c-0.2,0-0.4,0.1-0.6,0.2c-0.1,0.1-0.2,0.2-0.2,0.5
			c0,0.4,0.4,0.7,1.2,1c0.9,0.2,1.6,0.7,2.3,1.3c0.4,0.5,0.6,1,0.6,1.7c0,0.9-0.4,1.7-1,2.2c-1.5,1.3-3.7,1.1-5-0.4
			c-0.2-0.2-0.5-0.6-0.6-1l1.8-0.9c0.2,0.2,0.4,0.6,0.6,0.9c0.2,0.2,0.6,0.4,1,0.4c0.7,0,1.1-0.4,1.1-1c0-0.4-0.2-0.7-0.9-1
			l-0.6-0.2l-0.6-0.2c-0.5-0.2-1-0.6-1.3-1c-0.4-0.5-0.6-1-0.5-1.5c0-0.7,0.2-1.5,0.9-2.1c0.6-0.6,1.3-0.9,2.1-0.7
			C40,127.8,41,128.6,41.5,129.6z"/>
	</g>
	<g>
		<rect x="44.1" y="121.2" class="st5" width="2.1" height="16"/>
		<rect x="44.1" y="121.2" class="st6" width="2.1" height="16"/>
	</g>
	<g>
		<path class="st5" d="M48.3,132.6c0-1.3,0.5-2.4,1.5-3.4c1-1,2.2-1.3,3.5-1.3c1.3,0,2.6,0.5,3.5,1.3c1.9,1.9,1.9,5,0,6.9
			c-1,1-2.2,1.3-3.5,1.3c-2.7,0-4.8-2.1-4.9-4.8C48.3,132.7,48.3,132.7,48.3,132.6L48.3,132.6z M50.6,132.6c0,0.9,0.2,1.6,0.7,2.2
			c1.1,1.1,2.9,1.1,4,0c1-1.3,1-3,0-4.3c-0.6-0.6-1.2-0.9-2.1-0.9c-0.7,0-1.5,0.2-1.9,0.9C50.8,131,50.5,131.8,50.6,132.6
			L50.6,132.6z"/>
		<path class="st6" d="M48.3,132.6c0-1.3,0.5-2.4,1.5-3.4c1-1,2.2-1.3,3.5-1.3c1.3,0,2.6,0.5,3.5,1.3c1.9,1.9,1.9,5,0,6.9
			c-1,1-2.2,1.3-3.5,1.3c-2.7,0-4.8-2.1-4.9-4.8C48.3,132.7,48.3,132.7,48.3,132.6L48.3,132.6z M50.6,132.6c0,0.9,0.2,1.6,0.7,2.2
			c1.1,1.1,2.9,1.1,4,0c1-1.3,1-3,0-4.3c-0.6-0.6-1.2-0.9-2.1-0.9c-0.7,0-1.5,0.2-1.9,0.9C50.8,131,50.5,131.8,50.6,132.6
			L50.6,132.6z"/>
	</g>
	<g>
		<polygon class="st5" points="61.2,128.1 63.7,133.3 66.2,127.2 68.9,133.3 71.2,128.1 73.7,128.1 68.9,138.1 66.2,132.2 
			63.7,138.1 58.9,128.1 		"/>
		<polygon class="st6" points="61.2,128.1 63.7,133.3 66.2,127.2 68.9,133.3 71.2,128.1 73.7,128.1 68.9,138.1 66.2,132.2 
			63.7,138.1 58.9,128.1 		"/>
	</g>
	<g>
		<path class="st5" d="M86.5,129.6l-1.7,1c-0.2-0.6-0.6-0.9-1-0.9c-0.2,0-0.4,0.1-0.5,0.2c-0.2,0.1-0.2,0.2-0.2,0.5
			c0,0.4,0.5,0.7,1.2,1c0.9,0.2,1.6,0.7,2.3,1.3c0.4,0.5,0.6,1,0.6,1.7c0,0.9-0.4,1.7-1,2.2c-1.5,1.3-3.7,1.1-5-0.4
			c-0.2-0.2-0.5-0.6-0.6-1l1.8-0.9c0.2,0.2,0.4,0.6,0.6,0.9s0.6,0.4,1,0.4c0.7,0,1.1-0.4,1.1-1c0-0.4-0.2-0.7-0.9-1l-0.6-0.2
			l-0.6-0.2c-0.5-0.2-1-0.6-1.3-1c-0.4-0.5-0.5-1-0.5-1.5c0-0.7,0.2-1.5,0.9-2.1c0.6-0.6,1.3-0.9,2.1-0.7
			C85,127.8,86.1,128.6,86.5,129.6z"/>
		<path class="st6" d="M86.5,129.6l-1.7,1c-0.2-0.6-0.6-0.9-1-0.9c-0.2,0-0.4,0.1-0.5,0.2c-0.2,0.1-0.2,0.2-0.2,0.5
			c0,0.4,0.5,0.7,1.2,1c0.9,0.2,1.6,0.7,2.3,1.3c0.4,0.5,0.6,1,0.6,1.7c0,0.9-0.4,1.7-1,2.2c-1.5,1.3-3.7,1.1-5-0.4
			c-0.2-0.2-0.5-0.6-0.6-1l1.8-0.9c0.2,0.2,0.4,0.6,0.6,0.9s0.6,0.4,1,0.4c0.7,0,1.1-0.4,1.1-1c0-0.4-0.2-0.7-0.9-1l-0.6-0.2
			l-0.6-0.2c-0.5-0.2-1-0.6-1.3-1c-0.4-0.5-0.5-1-0.5-1.5c0-0.7,0.2-1.5,0.9-2.1c0.6-0.6,1.3-0.9,2.1-0.7
			C85,127.8,86.1,128.6,86.5,129.6z"/>
	</g>
	<g>
		<path class="st5" d="M91.1,142.3H89v-14.3h2.1v1c0.7-0.9,1.7-1.3,2.9-1.3c1.2,0,2.3,0.5,3.2,1.3c0.9,1,1.3,2.2,1.3,3.5
			s-0.4,2.4-1.3,3.4c-1.5,1.7-4,1.8-5.7,0.4c-0.1-0.1-0.2-0.2-0.2-0.2v6.2H91.1z M96.2,132.7c0-0.7-0.2-1.6-0.7-2.1
			c-0.5-0.6-1.1-0.9-1.8-0.9c-0.7,0-1.3,0.2-1.9,0.9c-0.5,0.6-0.7,1.3-0.7,2.1s0.2,1.6,0.7,2.1c0.5,0.6,1.1,0.9,1.8,0.9
			s1.3-0.2,1.8-0.9C96,134.3,96.2,133.5,96.2,132.7L96.2,132.7z"/>
		<path class="st6" d="M91.1,142.3H89v-14.3h2.1v1c0.7-0.9,1.7-1.3,2.9-1.3c1.2,0,2.3,0.5,3.2,1.3c0.9,1,1.3,2.2,1.3,3.5
			s-0.4,2.4-1.3,3.4c-1.5,1.7-4,1.8-5.7,0.4c-0.1-0.1-0.2-0.2-0.2-0.2v6.2H91.1z M96.2,132.7c0-0.7-0.2-1.6-0.7-2.1
			c-0.5-0.6-1.1-0.9-1.8-0.9c-0.7,0-1.3,0.2-1.9,0.9c-0.5,0.6-0.7,1.3-0.7,2.1s0.2,1.6,0.7,2.1c0.5,0.6,1.1,0.9,1.8,0.9
			s1.3-0.2,1.8-0.9C96,134.3,96.2,133.5,96.2,132.7L96.2,132.7z"/>
	</g>
	<g>
		<path class="st5" d="M109,133.2h-6.6c0,0.6,0.2,1.3,0.7,1.8s1,0.6,1.7,0.6c0.5,0,1-0.1,1.3-0.4c0.5-0.4,0.9-1,1.2-1.3l1.7,1
			c-0.2,0.5-0.6,0.9-1,1.2c-0.2,0.4-0.6,0.6-1,0.9s-0.7,0.4-1.1,0.5c-0.5,0.1-1,0.2-1.3,0.2c-1.2,0.1-2.4-0.5-3.3-1.3
			c-0.9-1-1.3-2.2-1.3-3.5c-0.1-1.3,0.4-2.6,1.2-3.5c0.9-1,2.1-1.3,3.3-1.3c1.2-0.1,2.4,0.4,3.3,1.3c0.9,1,1.3,2.3,1.2,3.7v0.2H109z
			 M106.8,131.4c-0.2-1-1.1-1.7-2.1-1.7c-0.2,0-0.5,0-0.7,0.1s-0.5,0.2-0.6,0.4c-0.2,0.2-0.4,0.4-0.5,0.6c-0.2,0.2-0.2,0.5-0.2,0.7
			L106.8,131.4L106.8,131.4z"/>
		<path class="st6" d="M109,133.2h-6.6c0,0.6,0.2,1.3,0.7,1.8s1,0.6,1.7,0.6c0.5,0,1-0.1,1.3-0.4c0.5-0.4,0.9-1,1.2-1.3l1.7,1
			c-0.2,0.5-0.6,0.9-1,1.2c-0.2,0.4-0.6,0.6-1,0.9s-0.7,0.4-1.1,0.5c-0.5,0.1-1,0.2-1.3,0.2c-1.2,0.1-2.4-0.5-3.3-1.3
			c-0.9-1-1.3-2.2-1.3-3.5c-0.1-1.3,0.4-2.6,1.2-3.5c0.9-1,2.1-1.3,3.3-1.3c1.2-0.1,2.4,0.4,3.3,1.3c0.9,1,1.3,2.3,1.2,3.7v0.2H109z
			 M106.8,131.4c-0.2-1-1.1-1.7-2.1-1.7c-0.2,0-0.5,0-0.7,0.1s-0.5,0.2-0.6,0.4c-0.2,0.2-0.4,0.4-0.5,0.6c-0.2,0.2-0.2,0.5-0.2,0.7
			L106.8,131.4L106.8,131.4z"/>
	</g>
	<g>
		<path class="st5" d="M119.7,133.2H113c0,0.6,0.2,1.3,0.7,1.8c0.5,0.5,1,0.6,1.7,0.6c0.5,0,1-0.1,1.3-0.4c0.5-0.4,0.9-0.9,1.2-1.3
			l1.8,1c-0.2,0.5-0.6,0.9-1,1.2c-0.2,0.2-0.6,0.6-1,0.9s-0.7,0.4-1.1,0.5c-0.5,0.1-1,0.2-1.3,0.2c-1.2,0.1-2.4-0.5-3.3-1.3
			c-0.9-1-1.3-2.2-1.3-3.5c-0.1-1.3,0.4-2.6,1.2-3.5c1.7-1.7,4.8-1.7,6.5,0c0.9,1,1.3,2.3,1.2,3.7V133.2z M117.5,131.4
			c-0.2-1-1.1-1.7-2.1-1.7c-0.2,0-0.5,0-0.7,0.1s-0.5,0.2-0.6,0.4c-0.2,0.2-0.4,0.4-0.5,0.6c-0.1,0.2-0.2,0.5-0.2,0.7L117.5,131.4
			L117.5,131.4z"/>
		<path class="st6" d="M119.7,133.2H113c0,0.6,0.2,1.3,0.7,1.8c0.5,0.5,1,0.6,1.7,0.6c0.5,0,1-0.1,1.3-0.4c0.5-0.4,0.9-0.9,1.2-1.3
			l1.8,1c-0.2,0.5-0.6,0.9-1,1.2c-0.2,0.2-0.6,0.6-1,0.9s-0.7,0.4-1.1,0.5c-0.5,0.1-1,0.2-1.3,0.2c-1.2,0.1-2.4-0.5-3.3-1.3
			c-0.9-1-1.3-2.2-1.3-3.5c-0.1-1.3,0.4-2.6,1.2-3.5c1.7-1.7,4.8-1.7,6.5,0c0.9,1,1.3,2.3,1.2,3.7V133.2z M117.5,131.4
			c-0.2-1-1.1-1.7-2.1-1.7c-0.2,0-0.5,0-0.7,0.1s-0.5,0.2-0.6,0.4c-0.2,0.2-0.4,0.4-0.5,0.6c-0.1,0.2-0.2,0.5-0.2,0.7L117.5,131.4
			L117.5,131.4z"/>
	</g>
	<g>
		<path class="st5" d="M128.9,121.2h2.1v16h-2.1v-0.9c-0.7,0.7-1.7,1.2-2.9,1.2c-1.2,0-2.3-0.5-3.2-1.3c-0.9-1-1.3-2.2-1.3-3.5
			s0.4-2.4,1.3-3.4c1.5-1.7,4-1.8,5.6-0.4c0.1,0.1,0.2,0.2,0.4,0.4v-8H128.9z M123.9,132.7c0,0.7,0.2,1.6,0.7,2.1
			c0.5,0.6,1.1,0.9,1.8,0.9c0.7,0,1.3-0.2,1.9-0.9c1-1.3,1-3,0-4.3c-0.5-0.6-1.2-0.9-1.8-0.9c-0.7,0-1.3,0.2-1.8,0.9
			C124.1,131.1,123.9,131.8,123.9,132.7z"/>
		<path class="st6" d="M128.9,121.2h2.1v16h-2.1v-0.9c-0.7,0.7-1.7,1.2-2.9,1.2c-1.2,0-2.3-0.5-3.2-1.3c-0.9-1-1.3-2.2-1.3-3.5
			s0.4-2.4,1.3-3.4c1.5-1.7,4-1.8,5.6-0.4c0.1,0.1,0.2,0.2,0.4,0.4v-8H128.9z M123.9,132.7c0,0.7,0.2,1.6,0.7,2.1
			c0.5,0.6,1.1,0.9,1.8,0.9c0.7,0,1.3-0.2,1.9-0.9c1-1.3,1-3,0-4.3c-0.5-0.6-1.2-0.9-1.8-0.9c-0.7,0-1.3,0.2-1.8,0.9
			C124.1,131.1,123.9,131.8,123.9,132.7z"/>
	</g>
</g>
</svg>
