<?xml version="1.0" encoding="utf-8"?>
<!-- Generator: Adobe Illustrator 24.0.1, SVG Export Plug-In . SVG Version: 6.00 Build 0)  -->
<svg version="1.1" xmlns="http://www.w3.org/2000/svg" xmlns:xlink="http://www.w3.org/1999/xlink" x="0px" y="0px"
	 viewBox="0 0 147.8 147.8" style="enable-background:new 0 0 147.8 147.8;" xml:space="preserve">
<style type="text/css">
	.st0{fill:#FFFFFF;stroke:#FFFFFF;stroke-miterlimit:10;}
	.st1{fill:#FFFFFF;stroke:#000000;stroke-width:4;stroke-miterlimit:10;}
	.st2{fill:#FF0000;stroke:#000000;stroke-width:3.75;stroke-linejoin:round;}
	.st3{fill:#FFFFFF;}
	.st4{fill:none;stroke:#000000;stroke-width:0.25;}
</style>
<g id="Layer_2">
	<title>Bravo</title>
	<polygon class="st0" points="143.7,9.7 143.7,137.2 112,73.9 	"/>
	<path class="st1" d="M145.9,1.9v144V1.9z"/>
	<path class="st2" d="M1.9,1.9h144l-36,72l36,72H1.9V1.9z"/>
</g>
<g id="Layer_1">
	<rect x="21.6" y="73.6" class="st3" width="1.9" height="12.2"/>
	<rect x="21.6" y="73.6" class="st4" width="1.9" height="12.2"/>
	<path class="st3" d="M36.8,78.1h1.8v7.8h-1.8v-0.8c-1.3,1.3-3.4,1.4-4.7,0.1c0,0,0,0-0.1-0.1c-0.1-0.1-0.2-0.2-0.2-0.2
		c-0.7-0.8-1.1-1.9-1-2.9c0-1.1,0.4-2.1,1-2.9c0.6-0.8,1.6-1.2,2.6-1.2c0.9,0,1.8,0.4,2.4,1L36.8,78.1z M32.5,81.9
		c0,0.7,0.2,1.3,0.6,1.8c0.4,0.5,0.9,0.7,1.5,0.7c0.6,0,1.2-0.2,1.6-0.7c0.8-1,0.8-2.5,0-3.6c-0.4-0.5-1-0.7-1.6-0.7
		c-0.6,0-1.2,0.2-1.5,0.7C32.7,80.6,32.5,81.3,32.5,81.9z"/>
	<path class="st4" d="M36.8,78.1h1.8v7.8h-1.8v-0.8c-1.3,1.3-3.4,1.4-4.7,0.1c0,0,0,0-0.1-0.1c-0.1-0.1-0.2-0.2-0.2-0.2
		c-0.7-0.8-1.1-1.9-1-2.9c0-1.1,0.4-2.1,1-2.9c0.6-0.8,1.6-1.2,2.6-1.2c0.9,0,1.8,0.4,2.4,1L36.8,78.1z M32.5,81.9
		c0,0.7,0.2,1.3,0.6,1.8c0.4,0.5,0.9,0.7,1.5,0.7c0.6,0,1.2-0.2,1.6-0.7c0.8-1,0.8-2.5,0-3.6c-0.4-0.5-1-0.7-1.6-0.7
		c-0.6,0-1.2,0.2-1.5,0.7C32.7,80.6,32.5,81.3,32.5,81.9z"/>
	<path class="st3" d="M40.8,78.1h1.8v0.7c0.2-0.3,0.5-0.6,0.9-0.8c0.3-0.2,0.7-0.2,1-0.2c0.9,0,1.7,0.4,2.1,1.2
		c0.5-0.8,1.4-1.2,2.3-1.2c1.8,0,2.6,1,2.6,3.1v4.8h-1.8v-4.2c0-0.5-0.1-1.1-0.3-1.6c-0.2-0.3-0.6-0.5-0.9-0.5c-0.4,0-0.8,0.2-1,0.5
		c-0.3,0.6-0.4,1.2-0.3,1.8v4h-1.8v-4.3c0-1.4-0.4-2.1-1.2-2.1c-0.4,0-0.8,0.2-1,0.5c-0.2,0.5-0.4,1.1-0.4,1.7v4.1h-1.9V78.1z"/>
	<path class="st4" d="M40.8,78.1h1.8v0.7c0.2-0.3,0.5-0.6,0.9-0.8c0.3-0.2,0.7-0.2,1-0.2c0.9,0,1.7,0.4,2.1,1.2
		c0.5-0.8,1.4-1.2,2.3-1.2c1.8,0,2.6,1,2.6,3.1v4.8h-1.8v-4.2c0-0.5-0.1-1.1-0.3-1.6c-0.2-0.3-0.6-0.5-0.9-0.5c-0.4,0-0.8,0.2-1,0.5
		c-0.3,0.6-0.4,1.2-0.3,1.8v4h-1.8v-4.3c0-1.4-0.4-2.1-1.2-2.1c-0.4,0-0.8,0.2-1,0.5c-0.2,0.5-0.4,1.1-0.4,1.7v4.1h-1.9V78.1z"/>
	<polygon class="st3" points="60.6,79.8 60.6,85.8 58.8,85.8 58.8,79.8 58,79.8 58,78.1 58.8,78.1 58.8,75.2 60.6,75.2 60.6,78.1 
		62,78.1 62,79.8 	"/>
	<polygon class="st4" points="60.6,79.8 60.6,85.8 58.8,85.8 58.8,79.8 58,79.8 58,78.1 58.8,78.1 58.8,75.2 60.6,75.2 60.6,78.1 
		62,78.1 62,79.8 	"/>
	<path class="st3" d="M69,78.1h1.8v7.8H69v-0.8c-1.3,1.4-3.5,1.4-4.9,0.1C64.1,85.1,64,85,64,84.9c-0.7-0.8-1.1-1.9-1-2.9
		c0-1.1,0.4-2.1,1-2.9c0.7-0.8,1.6-1.2,2.6-1.2c0.9,0,1.8,0.4,2.4,1L69,78.1z M64.8,81.9c0,0.7,0.2,1.3,0.6,1.8
		c0.4,0.5,1,0.7,1.6,0.7c0.6,0,1.2-0.3,1.6-0.7c0.9-1,0.9-2.5,0-3.6c-0.4-0.5-1-0.7-1.6-0.7c-0.6,0-1.2,0.2-1.6,0.7
		C65,80.7,64.8,81.3,64.8,81.9z"/>
	<path class="st4" d="M69,78.1h1.8v7.8H69v-0.8c-1.3,1.4-3.5,1.4-4.9,0.1C64.1,85.1,64,85,64,84.9c-0.7-0.8-1.1-1.9-1-2.9
		c0-1.1,0.4-2.1,1-2.9c0.7-0.8,1.6-1.2,2.6-1.2c0.9,0,1.8,0.4,2.4,1L69,78.1z M64.8,81.9c0,0.7,0.2,1.3,0.6,1.8
		c0.4,0.5,1,0.7,1.6,0.7c0.6,0,1.2-0.3,1.6-0.7c0.9-1,0.9-2.5,0-3.6c-0.4-0.5-1-0.7-1.6-0.7c-0.6,0-1.2,0.2-1.6,0.7
		C65,80.7,64.8,81.3,64.8,81.9z"/>
	<polygon class="st3" points="74.9,72.4 74.9,80.7 77.3,78.2 79.7,78.2 76.4,81.4 80,85.9 77.6,85.9 75.1,82.7 74.8,83 74.8,85.8 
		73,85.8 73,72.4 	"/>
	<polygon class="st4" points="74.9,72.4 74.9,80.7 77.3,78.2 79.7,78.2 76.4,81.4 80,85.9 77.6,85.9 75.1,82.7 74.8,83 74.8,85.8 
		73,85.8 73,72.4 	"/>
	<path class="st3" d="M80.9,74.9c0-0.6,0.5-1.1,1.2-1.2c0.3,0,0.6,0.1,0.8,0.3c0.2,0.2,0.3,0.5,0.3,0.8c0,0.3-0.1,0.6-0.3,0.9
		c-0.2,0.2-0.5,0.3-0.9,0.3c-0.3,0-0.6-0.1-0.8-0.3C81,75.5,80.9,75.2,80.9,74.9z M83,78v7.8h-1.8v-7.7L83,78z"/>
	<path class="st4" d="M80.9,74.9c0-0.6,0.5-1.1,1.2-1.2c0.3,0,0.6,0.1,0.8,0.3c0.2,0.2,0.3,0.5,0.3,0.8c0,0.3-0.1,0.6-0.3,0.9
		c-0.2,0.2-0.5,0.3-0.9,0.3c-0.3,0-0.6-0.1-0.8-0.3C81,75.5,80.9,75.2,80.9,74.9z M83,78v7.8h-1.8v-7.7L83,78z"/>
	<path class="st3" d="M85.2,78.1H87v0.7c0.5-0.6,1.3-0.9,2.1-0.9c0.8-0.1,1.6,0.2,2.1,0.9c0.5,0.7,0.7,1.5,0.6,2.3v4.8H90v-4.4
		c0.1-0.5-0.1-1.1-0.3-1.6c-0.3-0.3-0.7-0.5-1.1-0.5c-0.5-0.1-1,0.2-1.2,0.6c-0.3,0.6-0.4,1.3-0.4,2v3.7h-1.8L85.2,78.1L85.2,78.1z"
		/>
	<path class="st4" d="M85.2,78.1H87v0.7c0.5-0.6,1.3-0.9,2.1-0.9c0.8-0.1,1.6,0.2,2.1,0.9c0.5,0.7,0.7,1.5,0.6,2.3v4.8H90v-4.4
		c0.1-0.5-0.1-1.1-0.3-1.6c-0.3-0.3-0.7-0.5-1.1-0.5c-0.5-0.1-1,0.2-1.2,0.6c-0.3,0.6-0.4,1.3-0.4,2v3.7h-1.8L85.2,78.1L85.2,78.1z"
		/>
	<path class="st3" d="M101.7,85.7v0.9c0,0.2-0.1,0.5-0.1,0.8c-0.1,0.5-0.4,1.1-0.8,1.5c-0.7,0.8-1.8,1.3-2.9,1.2
		c-0.9,0-1.8-0.3-2.6-0.9c-0.7-0.6-1.1-1.5-1.2-2.4H96c0.1,0.3,0.2,0.6,0.3,0.8c0.4,0.5,1,0.8,1.6,0.7c1.3,0,1.9-0.8,1.9-2.4v-1
		c-0.6,0.7-1.5,1.1-2.5,1c-1,0-1.9-0.4-2.5-1.2c-0.7-0.8-1.1-1.8-1-2.9c0-1,0.3-2,0.9-2.9c1.2-1.5,3.3-1.7,4.8-0.5
		c0.1,0.1,0.2,0.2,0.3,0.3v-0.8h1.8V85.7z M100,81.9c0-0.7-0.2-1.3-0.6-1.8c-0.8-0.8-2.1-0.9-2.9-0.1c-0.1,0.1-0.1,0.1-0.2,0.2
		c-0.4,0.5-0.6,1.1-0.5,1.8c0,0.6,0.2,1.2,0.5,1.7c0.7,0.9,2,1.1,2.9,0.3c0.1-0.1,0.2-0.2,0.3-0.3C99.8,83.2,100,82.6,100,81.9z"/>
	<path class="st4" d="M101.7,85.7v0.9c0,0.2-0.1,0.5-0.1,0.8c-0.1,0.5-0.4,1.1-0.8,1.5c-0.7,0.8-1.8,1.3-2.9,1.2
		c-0.9,0-1.8-0.3-2.6-0.9c-0.7-0.6-1.1-1.5-1.2-2.4H96c0.1,0.3,0.2,0.6,0.3,0.8c0.4,0.5,1,0.8,1.6,0.7c1.3,0,1.9-0.8,1.9-2.4v-1
		c-0.6,0.7-1.5,1.1-2.5,1c-1,0-1.9-0.4-2.5-1.2c-0.7-0.8-1.1-1.8-1-2.9c0-1,0.3-2,0.9-2.9c1.2-1.5,3.3-1.7,4.8-0.5
		c0.1,0.1,0.2,0.2,0.3,0.3v-0.8h1.8V85.7z M100,81.9c0-0.7-0.2-1.3-0.6-1.8c-0.8-0.8-2.1-0.9-2.9-0.1c-0.1,0.1-0.1,0.1-0.2,0.2
		c-0.4,0.5-0.6,1.1-0.5,1.8c0,0.6,0.2,1.2,0.5,1.7c0.7,0.9,2,1.1,2.9,0.3c0.1-0.1,0.2-0.2,0.3-0.3C99.8,83.2,100,82.6,100,81.9z"/>
	<path class="st3" d="M108.7,74.9c0-0.3,0.1-0.6,0.3-0.8c0.4-0.4,1.1-0.5,1.6,0c0,0,0,0,0,0c0.3,0.2,0.4,0.5,0.3,0.9
		c0,0.6-0.5,1.1-1.2,1.2l0,0C109.1,76,108.7,75.5,108.7,74.9L108.7,74.9z M110.7,78v7.8H109v-7.7L110.7,78z"/>
	<path class="st4" d="M108.7,74.9c0-0.3,0.1-0.6,0.3-0.8c0.4-0.4,1.1-0.5,1.6,0c0,0,0,0,0,0c0.3,0.2,0.4,0.5,0.3,0.9
		c0,0.6-0.5,1.1-1.2,1.2l0,0C109.1,76,108.7,75.5,108.7,74.9L108.7,74.9z M110.7,78v7.8H109v-7.7L110.7,78z"/>
	<path class="st3" d="M113,78.1h1.8v0.7c0.5-0.6,1.3-0.9,2.1-0.9c0.8-0.1,1.6,0.3,2.1,0.9c0.5,0.7,0.7,1.5,0.6,2.3v4.8h-1.7v-4.4
		c0.1-0.5-0.1-1.1-0.3-1.6c-0.3-0.3-0.7-0.5-1.2-0.5c-0.5-0.1-1,0.2-1.2,0.6c-0.3,0.6-0.5,1.3-0.4,2v3.7h-1.8L113,78.1z"/>
	<path class="st4" d="M113,78.1h1.8v0.7c0.5-0.6,1.3-0.9,2.1-0.9c0.8-0.1,1.6,0.3,2.1,0.9c0.5,0.7,0.7,1.5,0.6,2.3v4.8h-1.7v-4.4
		c0.1-0.5-0.1-1.1-0.3-1.6c-0.3-0.3-0.7-0.5-1.2-0.5c-0.5-0.1-1,0.2-1.2,0.6c-0.3,0.6-0.5,1.3-0.4,2v3.7h-1.8L113,78.1z"/>
	<polygon class="st3" points="123,83.5 124.5,84.1 122.3,88.6 121,88.2 	"/>
	<polygon class="st4" points="123,83.5 124.5,84.1 122.3,88.6 121,88.2 	"/>
	<path class="st3" d="M35.4,90.8h1.8v13.4h-1.8v-0.8c-0.6,0.7-1.5,1-2.4,1c-1,0-2-0.4-2.6-1.2c-0.7-0.8-1.1-1.9-1-2.9
		c-0.1-1.1,0.3-2.1,1-2.9c0.7-0.8,1.6-1.2,2.6-1.2c0.9,0,1.8,0.4,2.4,1L35.4,90.8z M31.1,100.3c0,0.7,0.2,1.3,0.6,1.8
		c0.4,0.5,1,0.7,1.6,0.7c0.6,0,1.2-0.3,1.6-0.7c0.9-1,0.9-2.5,0-3.6c-0.8-0.9-2.1-0.9-2.9-0.2c0,0-0.1,0-0.1,0.1l-0.1,0.1
		C31.4,99,31.1,99.7,31.1,100.3z"/>
	<path class="st4" d="M35.4,90.8h1.8v13.4h-1.8v-0.8c-0.6,0.7-1.5,1-2.4,1c-1,0-2-0.4-2.6-1.2c-0.7-0.8-1.1-1.9-1-2.9
		c-0.1-1.1,0.3-2.1,1-2.9c0.7-0.8,1.6-1.2,2.6-1.2c0.9,0,1.8,0.4,2.4,1L35.4,90.8z M31.1,100.3c0,0.7,0.2,1.3,0.6,1.8
		c0.4,0.5,1,0.7,1.6,0.7c0.6,0,1.2-0.3,1.6-0.7c0.9-1,0.9-2.5,0-3.6c-0.8-0.9-2.1-0.9-2.9-0.2c0,0-0.1,0-0.1,0.1l-0.1,0.1
		C31.4,99,31.1,99.7,31.1,100.3z"/>
	<path class="st3" d="M39.2,93.3c0-0.6,0.4-1.2,1.1-1.2c0.3,0,0.6,0.1,0.9,0.3c0.2,0.2,0.4,0.5,0.3,0.9c0,0.3-0.1,0.6-0.3,0.9
		c-0.2,0.2-0.5,0.3-0.8,0.3c-0.3,0-0.6-0.1-0.8-0.3C39.3,93.8,39.2,93.6,39.2,93.3z M41.2,96.4v7.7h-1.8v-7.7L41.2,96.4z"/>
	<path class="st4" d="M39.2,93.3c0-0.6,0.4-1.2,1.1-1.2c0.3,0,0.6,0.1,0.9,0.3c0.2,0.2,0.4,0.5,0.3,0.9c0,0.3-0.1,0.6-0.3,0.9
		c-0.2,0.2-0.5,0.3-0.8,0.3c-0.3,0-0.6-0.1-0.8-0.3C39.3,93.8,39.2,93.6,39.2,93.3z M41.2,96.4v7.7h-1.8v-7.7L41.2,96.4z"/>
	<path class="st3" d="M48,97.8l-1.5,0.8c-0.2-0.5-0.5-0.7-0.9-0.7c-0.2,0-0.3,0.1-0.5,0.2c-0.1,0.1-0.1,0.2-0.1,0.4
		c0,0.3,0.3,0.6,1,0.9c0.7,0.3,1.3,0.6,1.9,1.2c0.3,0.4,0.5,0.9,0.5,1.4c0,0.7-0.3,1.4-0.9,1.9c-1.2,1.1-3.1,0.9-4.2-0.3
		c0,0,0,0,0,0c-0.2-0.3-0.4-0.5-0.5-0.9l1.6-0.7l0.5,0.7c0.2,0.2,0.5,0.3,0.8,0.3c0.6,0,0.9-0.3,0.9-0.9c0-0.3-0.2-0.6-0.7-0.9
		l-0.5-0.2l-0.5-0.2c-0.4-0.2-0.7-0.5-1-0.8c-0.3-0.3-0.4-0.8-0.4-1.2c0-0.6,0.2-1.2,0.7-1.6c0.4-0.5,1.1-0.7,1.7-0.6
		C46.8,96.2,47.7,96.8,48,97.8z"/>
	<path class="st4" d="M48,97.8l-1.5,0.8c-0.2-0.5-0.5-0.7-0.9-0.7c-0.2,0-0.3,0.1-0.5,0.2c-0.1,0.1-0.1,0.2-0.1,0.4
		c0,0.3,0.3,0.6,1,0.9c0.7,0.3,1.3,0.6,1.9,1.2c0.3,0.4,0.5,0.9,0.5,1.4c0,0.7-0.3,1.4-0.9,1.9c-1.2,1.1-3.1,0.9-4.2-0.3
		c0,0,0,0,0,0c-0.2-0.3-0.4-0.5-0.5-0.9l1.6-0.7l0.5,0.7c0.2,0.2,0.5,0.3,0.8,0.3c0.6,0,0.9-0.3,0.9-0.9c0-0.3-0.2-0.6-0.7-0.9
		l-0.5-0.2l-0.5-0.2c-0.4-0.2-0.7-0.5-1-0.8c-0.3-0.3-0.4-0.8-0.4-1.2c0-0.6,0.2-1.2,0.7-1.6c0.4-0.5,1.1-0.7,1.7-0.6
		C46.8,96.2,47.7,96.8,48,97.8z"/>
	<path class="st3" d="M56.1,96.8v2.4c-0.3-0.4-0.6-0.8-1-1c-0.3-0.2-0.7-0.3-1-0.3c-0.6,0-1.3,0.2-1.7,0.7c-0.5,0.5-0.7,1.1-0.7,1.8
		c0,0.6,0.2,1.3,0.6,1.8c0.4,0.5,1,0.7,1.6,0.7c0.4,0,0.8-0.1,1.2-0.3c0.4-0.3,0.8-0.6,1.1-1v2.3c-0.7,0.4-1.4,0.6-2.2,0.5
		c-1.1,0-2.2-0.4-3-1.2c-1.6-1.6-1.6-4.1-0.1-5.7c0,0,0,0,0.1-0.1l0,0c0.8-0.8,1.9-1.2,3-1.2C54.7,96.2,55.4,96.4,56.1,96.8z"/>
	<path class="st4" d="M56.1,96.8v2.4c-0.3-0.4-0.6-0.8-1-1c-0.3-0.2-0.7-0.3-1-0.3c-0.6,0-1.3,0.2-1.7,0.7c-0.5,0.5-0.7,1.1-0.7,1.8
		c0,0.6,0.2,1.3,0.6,1.8c0.4,0.5,1,0.7,1.6,0.7c0.4,0,0.8-0.1,1.2-0.3c0.4-0.3,0.8-0.6,1.1-1v2.3c-0.7,0.4-1.4,0.6-2.2,0.5
		c-1.1,0-2.2-0.4-3-1.2c-1.6-1.6-1.6-4.1-0.1-5.7c0,0,0,0,0.1-0.1l0,0c0.8-0.8,1.9-1.2,3-1.2C54.7,96.2,55.4,96.4,56.1,96.8z"/>
	<path class="st3" d="M58.2,90.8H60V97c1.2-1.1,3-1.1,4.2,0c0.5,0.7,0.7,1.5,0.7,2.3v4.8h-1.8v-4.5c0-0.5-0.1-0.9-0.3-1.3
		c-0.3-0.3-0.7-0.4-1-0.4c-0.5-0.1-1,0.2-1.3,0.6c-0.3,0.6-0.4,1.3-0.4,2v3.7h-1.8V90.8z"/>
	<path class="st4" d="M58.2,90.8H60V97c1.2-1.1,3-1.1,4.2,0c0.5,0.7,0.7,1.5,0.7,2.3v4.8h-1.8v-4.5c0-0.5-0.1-0.9-0.3-1.3
		c-0.3-0.3-0.7-0.4-1-0.4c-0.5-0.1-1,0.2-1.3,0.6c-0.3,0.6-0.4,1.3-0.4,2v3.7h-1.8V90.8z"/>
	<path class="st3" d="M72.9,96.4h1.8v7.7h-1.8v-0.8c-1.3,1.4-3.5,1.4-4.9,0.1c0,0,0,0,0,0c-0.1-0.1-0.2-0.2-0.2-0.2
		c-0.7-0.8-1-1.9-1-2.9c0-1.1,0.3-2.1,1-2.9c0.7-0.8,1.6-1.2,2.6-1.2c0.9,0,1.8,0.4,2.4,1L72.9,96.4z M68.6,100.3
		c0,0.7,0.2,1.3,0.6,1.8c0.4,0.5,1,0.7,1.6,0.7c0.6,0,1.2-0.3,1.6-0.7c0.9-1,0.9-2.5,0-3.6c-0.4-0.5-1-0.7-1.6-0.7
		c-0.6,0-1.2,0.2-1.6,0.7C68.9,99.1,68.7,99.7,68.6,100.3z"/>
	<path class="st4" d="M72.9,96.4h1.8v7.7h-1.8v-0.8c-1.3,1.4-3.5,1.4-4.9,0.1c0,0,0,0,0,0c-0.1-0.1-0.2-0.2-0.2-0.2
		c-0.7-0.8-1-1.9-1-2.9c0-1.1,0.3-2.1,1-2.9c0.7-0.8,1.6-1.2,2.6-1.2c0.9,0,1.8,0.4,2.4,1L72.9,96.4z M68.6,100.3
		c0,0.7,0.2,1.3,0.6,1.8c0.4,0.5,1,0.7,1.6,0.7c0.6,0,1.2-0.3,1.6-0.7c0.9-1,0.9-2.5,0-3.6c-0.4-0.5-1-0.7-1.6-0.7
		c-0.6,0-1.2,0.2-1.6,0.7C68.9,99.1,68.7,99.7,68.6,100.3z"/>
	<path class="st3" d="M76.9,96.4h1.8v0.7c0.2-0.3,0.5-0.5,0.9-0.7c0.3-0.2,0.6-0.2,0.9-0.2c0.5,0,1,0.2,1.5,0.5l-0.9,1.6
		c-0.3-0.2-0.7-0.4-1-0.4c-1,0-1.5,0.8-1.5,2.2v4h-1.8L76.9,96.4z"/>
	<path class="st4" d="M76.9,96.4h1.8v0.7c0.2-0.3,0.5-0.5,0.9-0.7c0.3-0.2,0.6-0.2,0.9-0.2c0.5,0,1,0.2,1.5,0.5l-0.9,1.6
		c-0.3-0.2-0.7-0.4-1-0.4c-1,0-1.5,0.8-1.5,2.2v4h-1.8L76.9,96.4z"/>
	<path class="st3" d="M90.6,104v0.9c0,0.3-0.1,0.5-0.1,0.8c-0.1,0.5-0.4,1.1-0.8,1.5c-0.7,0.8-1.8,1.3-2.9,1.2
		c-0.9,0-1.8-0.3-2.6-0.8c-0.7-0.6-1.1-1.5-1.2-2.4h1.8c0.1,0.3,0.2,0.6,0.3,0.9c0.4,0.5,1,0.7,1.6,0.7c1.3,0,1.9-0.8,1.9-2.4v-1
		c-1.2,1.4-3.3,1.5-4.7,0.2c0,0-0.1-0.1-0.1-0.1l-0.2-0.2c-0.7-0.8-1.1-1.8-1-2.9c0-1,0.3-2,0.9-2.9c0.6-0.9,1.7-1.3,2.7-1.2
		c0.9,0,1.8,0.4,2.4,1v-0.9h1.8L90.6,104z M88.9,100.3c0-0.7-0.2-1.3-0.6-1.8c-0.8-0.8-2.1-0.9-2.9-0.1c-0.1,0.1-0.1,0.1-0.2,0.2
		c-0.4,0.5-0.6,1.1-0.5,1.8c0,0.6,0.2,1.2,0.5,1.7c0.7,0.9,2,1,2.9,0.3c0.1-0.1,0.2-0.2,0.3-0.3C88.7,101.6,88.9,101,88.9,100.3
		L88.9,100.3z"/>
	<path class="st4" d="M90.6,104v0.9c0,0.3-0.1,0.5-0.1,0.8c-0.1,0.5-0.4,1.1-0.8,1.5c-0.7,0.8-1.8,1.3-2.9,1.2
		c-0.9,0-1.8-0.3-2.6-0.8c-0.7-0.6-1.1-1.5-1.2-2.4h1.8c0.1,0.3,0.2,0.6,0.3,0.9c0.4,0.5,1,0.7,1.6,0.7c1.3,0,1.9-0.8,1.9-2.4v-1
		c-1.2,1.4-3.3,1.5-4.7,0.2c0,0-0.1-0.1-0.1-0.1l-0.2-0.2c-0.7-0.8-1.1-1.8-1-2.9c0-1,0.3-2,0.9-2.9c0.6-0.9,1.7-1.3,2.7-1.2
		c0.9,0,1.8,0.4,2.4,1v-0.9h1.8L90.6,104z M88.9,100.3c0-0.7-0.2-1.3-0.6-1.8c-0.8-0.8-2.1-0.9-2.9-0.1c-0.1,0.1-0.1,0.1-0.2,0.2
		c-0.4,0.5-0.6,1.1-0.5,1.8c0,0.6,0.2,1.2,0.5,1.7c0.7,0.9,2,1,2.9,0.3c0.1-0.1,0.2-0.2,0.3-0.3C88.7,101.6,88.9,101,88.9,100.3
		L88.9,100.3z"/>
	<path class="st3" d="M92.5,93.3c0-0.6,0.4-1.2,1.1-1.2c0.3,0,0.6,0.1,0.9,0.3c0.2,0.2,0.3,0.5,0.3,0.9c0,0.3-0.1,0.6-0.3,0.9
		c-0.2,0.2-0.5,0.3-0.9,0.3c-0.3,0-0.6-0.1-0.9-0.3C92.6,93.8,92.5,93.6,92.5,93.3z M94.6,96.4v7.7h-1.8v-7.7L94.6,96.4z"/>
	<path class="st4" d="M92.5,93.3c0-0.6,0.4-1.2,1.1-1.2c0.3,0,0.6,0.1,0.9,0.3c0.2,0.2,0.3,0.5,0.3,0.9c0,0.3-0.1,0.6-0.3,0.9
		c-0.2,0.2-0.5,0.3-0.9,0.3c-0.3,0-0.6-0.1-0.9-0.3C92.6,93.8,92.5,93.6,92.5,93.3z M94.6,96.4v7.7h-1.8v-7.7L94.6,96.4z"/>
	<path class="st3" d="M96.8,96.4h1.8v0.7c0.5-0.6,1.3-0.9,2.1-0.9c0.8-0.1,1.6,0.2,2.1,0.8c0.5,0.7,0.7,1.5,0.6,2.3v4.8h-1.8v-4.3
		c0.1-0.5,0-1.1-0.3-1.6c-0.3-0.3-0.7-0.5-1.2-0.5c-0.5-0.1-1,0.2-1.2,0.6c-0.3,0.6-0.4,1.3-0.4,2v3.7h-1.8L96.8,96.4L96.8,96.4z"/>
	<path class="st4" d="M96.8,96.4h1.8v0.7c0.5-0.6,1.3-0.9,2.1-0.9c0.8-0.1,1.6,0.2,2.1,0.8c0.5,0.7,0.7,1.5,0.6,2.3v4.8h-1.8v-4.3
		c0.1-0.5,0-1.1-0.3-1.6c-0.3-0.3-0.7-0.5-1.2-0.5c-0.5-0.1-1,0.2-1.2,0.6c-0.3,0.6-0.4,1.3-0.4,2v3.7h-1.8L96.8,96.4L96.8,96.4z"/>
	<path class="st3" d="M113.3,104v0.9c0,0.2-0.1,0.5-0.1,0.8c-0.1,0.5-0.4,1.1-0.8,1.5c-0.7,0.8-1.8,1.3-2.9,1.2
		c-0.9,0-1.8-0.3-2.6-0.8c-0.7-0.6-1.1-1.5-1.2-2.4h1.8c0.1,0.3,0.2,0.6,0.3,0.9c0.4,0.5,1,0.8,1.6,0.7c1.3,0,1.9-0.8,1.9-2.4v-1
		c-1.2,1.4-3.3,1.5-4.7,0.2c0,0-0.1-0.1-0.1-0.1l-0.2-0.2c-0.7-0.8-1.1-1.8-1-2.9c0-1,0.3-2,0.9-2.9c0.6-0.9,1.7-1.3,2.7-1.2
		c0.9,0,1.8,0.4,2.4,1v-0.9h1.8L113.3,104z M111.5,100.3c0-0.7-0.2-1.3-0.6-1.8c-0.4-0.5-0.9-0.7-1.5-0.7c-0.6,0-1.2,0.3-1.6,0.8
		c-0.4,0.5-0.6,1.1-0.5,1.8c0,0.6,0.2,1.2,0.5,1.7c0.7,0.9,2,1.1,2.9,0.3c0.1-0.1,0.2-0.2,0.3-0.3
		C111.4,101.6,111.6,101,111.5,100.3z"/>
	<path class="st4" d="M113.3,104v0.9c0,0.2-0.1,0.5-0.1,0.8c-0.1,0.5-0.4,1.1-0.8,1.5c-0.7,0.8-1.8,1.3-2.9,1.2
		c-0.9,0-1.8-0.3-2.6-0.8c-0.7-0.6-1.1-1.5-1.2-2.4h1.8c0.1,0.3,0.2,0.6,0.3,0.9c0.4,0.5,1,0.8,1.6,0.7c1.3,0,1.9-0.8,1.9-2.4v-1
		c-1.2,1.4-3.3,1.5-4.7,0.2c0,0-0.1-0.1-0.1-0.1l-0.2-0.2c-0.7-0.8-1.1-1.8-1-2.9c0-1,0.3-2,0.9-2.9c0.6-0.9,1.7-1.3,2.7-1.2
		c0.9,0,1.8,0.4,2.4,1v-0.9h1.8L113.3,104z M111.5,100.3c0-0.7-0.2-1.3-0.6-1.8c-0.4-0.5-0.9-0.7-1.5-0.7c-0.6,0-1.2,0.3-1.6,0.8
		c-0.4,0.5-0.6,1.1-0.5,1.8c0,0.6,0.2,1.2,0.5,1.7c0.7,0.9,2,1.1,2.9,0.3c0.1-0.1,0.2-0.2,0.3-0.3
		C111.4,101.6,111.6,101,111.5,100.3z"/>
	<polygon class="st3" points="116.6,101.9 118.2,102.5 115.9,107 114.7,106.5 	"/>
	<polygon class="st4" points="116.6,101.9 118.2,102.5 115.9,107 114.7,106.5 	"/>
	<path class="st3" d="M32.5,117.5c0-1.1,0.4-2.1,1.2-2.9c1.7-1.6,4.2-1.6,5.9,0c1.6,1.6,1.7,4.1,0.1,5.8c0,0-0.1,0.1-0.1,0.1
		c-1.7,1.5-4.2,1.5-5.9,0C32.9,119.8,32.4,118.7,32.5,117.5z M34.3,117.5c0,0.7,0.2,1.3,0.6,1.9c1,0.9,2.5,0.9,3.4,0
		c0.8-1.1,0.8-2.6,0-3.6c-0.9-0.9-2.4-0.9-3.3,0c0,0,0,0,0,0C34.6,116.2,34.3,116.9,34.3,117.5z"/>
	<path class="st4" d="M32.5,117.5c0-1.1,0.4-2.1,1.2-2.9c1.7-1.6,4.2-1.6,5.9,0c1.6,1.6,1.7,4.1,0.1,5.8c0,0-0.1,0.1-0.1,0.1
		c-1.7,1.5-4.2,1.5-5.9,0C32.9,119.8,32.4,118.7,32.5,117.5z M34.3,117.5c0,0.7,0.2,1.3,0.6,1.9c1,0.9,2.5,0.9,3.4,0
		c0.8-1.1,0.8-2.6,0-3.6c-0.9-0.9-2.4-0.9-3.3,0c0,0,0,0,0,0C34.6,116.2,34.3,116.9,34.3,117.5z"/>
	<path class="st3" d="M42.6,113.7h1.8v0.7c0.2-0.3,0.5-0.5,0.8-0.7c0.3-0.2,0.6-0.2,0.9-0.2c0.5,0,1,0.2,1.5,0.5l-0.9,1.6
		c-0.3-0.3-0.7-0.4-1-0.4c-1,0-1.5,0.8-1.5,2.2v4h-1.7L42.6,113.7L42.6,113.7z"/>
	<path class="st4" d="M42.6,113.7h1.8v0.7c0.2-0.3,0.5-0.5,0.8-0.7c0.3-0.2,0.6-0.2,0.9-0.2c0.5,0,1,0.2,1.5,0.5l-0.9,1.6
		c-0.3-0.3-0.7-0.4-1-0.4c-1,0-1.5,0.8-1.5,2.2v4h-1.7L42.6,113.7L42.6,113.7z"/>
	<path class="st3" d="M59.8,114v2.4c-0.3-0.4-0.6-0.8-1-1c-0.3-0.2-0.7-0.3-1-0.3c-0.6,0-1.2,0.2-1.7,0.7c-0.5,0.5-0.7,1.1-0.7,1.8
		c0,0.6,0.2,1.3,0.6,1.8c0.4,0.5,1,0.7,1.6,0.7c0.4,0,0.8-0.1,1.2-0.3c0.4-0.3,0.8-0.6,1-1v2.3c-0.7,0.4-1.4,0.6-2.2,0.5
		c-1.1,0-2.2-0.4-3-1.2c-0.8-0.7-1.2-1.8-1.2-2.9c0-2.3,1.9-4.1,4.1-4.1c0,0,0.1,0,0.1,0C58.4,113.5,59.1,113.7,59.8,114z"/>
	<path class="st4" d="M59.8,114v2.4c-0.3-0.4-0.6-0.8-1-1c-0.3-0.2-0.7-0.3-1-0.3c-0.6,0-1.2,0.2-1.7,0.7c-0.5,0.5-0.7,1.1-0.7,1.8
		c0,0.6,0.2,1.3,0.6,1.8c0.4,0.5,1,0.7,1.6,0.7c0.4,0,0.8-0.1,1.2-0.3c0.4-0.3,0.8-0.6,1-1v2.3c-0.7,0.4-1.4,0.6-2.2,0.5
		c-1.1,0-2.2-0.4-3-1.2c-0.8-0.7-1.2-1.8-1.2-2.9c0-2.3,1.9-4.1,4.1-4.1c0,0,0.1,0,0.1,0C58.4,113.5,59.1,113.7,59.8,114z"/>
	<path class="st3" d="M67.2,113.7h1.8v7.7h-1.8v-0.8c-1.3,1.4-3.5,1.4-4.9,0.1c0,0,0,0,0,0c-0.1-0.1-0.1-0.1-0.1-0.2
		c-0.7-0.8-1.1-1.9-1-3c0-1.1,0.4-2.1,1-2.9c0.7-0.8,1.6-1.2,2.6-1.2c0.9,0,1.8,0.4,2.4,1V113.7z M63,117.6c0,0.7,0.2,1.3,0.6,1.8
		c0.4,0.5,1,0.7,1.6,0.7c0.6,0,1.2-0.2,1.6-0.7c0.8-1,0.8-2.5,0-3.6c-0.8-0.9-2.1-0.9-2.9-0.2c-0.1,0.1-0.1,0.1-0.2,0.2
		C63.2,116.3,63,116.9,63,117.6L63,117.6z"/>
	<path class="st4" d="M67.2,113.7h1.8v7.7h-1.8v-0.8c-1.3,1.4-3.5,1.4-4.9,0.1c0,0,0,0,0,0c-0.1-0.1-0.1-0.1-0.1-0.2
		c-0.7-0.8-1.1-1.9-1-3c0-1.1,0.4-2.1,1-2.9c0.7-0.8,1.6-1.2,2.6-1.2c0.9,0,1.8,0.4,2.4,1V113.7z M63,117.6c0,0.7,0.2,1.3,0.6,1.8
		c0.4,0.5,1,0.7,1.6,0.7c0.6,0,1.2-0.2,1.6-0.7c0.8-1,0.8-2.5,0-3.6c-0.8-0.9-2.1-0.9-2.9-0.2c-0.1,0.1-0.1,0.1-0.2,0.2
		C63.2,116.3,63,116.9,63,117.6L63,117.6z"/>
	<path class="st3" d="M71.3,113.7H73v0.7c0.2-0.3,0.5-0.5,0.9-0.7c0.3-0.2,0.6-0.2,0.9-0.2c0.5,0,1,0.2,1.5,0.5l-0.8,1.6
		c-0.3-0.2-0.7-0.4-1-0.4c-1,0-1.5,0.7-1.5,2.2v4h-1.8L71.3,113.7L71.3,113.7z"/>
	<path class="st4" d="M71.3,113.7H73v0.7c0.2-0.3,0.5-0.5,0.9-0.7c0.3-0.2,0.6-0.2,0.9-0.2c0.5,0,1,0.2,1.5,0.5l-0.8,1.6
		c-0.3-0.2-0.7-0.4-1-0.4c-1,0-1.5,0.7-1.5,2.2v4h-1.8L71.3,113.7L71.3,113.7z"/>
	<path class="st3" d="M77.6,113.7h1.8v0.7c0.2-0.3,0.5-0.5,0.9-0.7c0.3-0.2,0.6-0.2,0.9-0.2c0.5,0,1,0.2,1.5,0.5l-0.9,1.6
		c-0.3-0.3-0.7-0.4-1-0.4c-1,0-1.5,0.8-1.5,2.2v4h-1.7L77.6,113.7L77.6,113.7z"/>
	<path class="st4" d="M77.6,113.7h1.8v0.7c0.2-0.3,0.5-0.5,0.9-0.7c0.3-0.2,0.6-0.2,0.9-0.2c0.5,0,1,0.2,1.5,0.5l-0.9,1.6
		c-0.3-0.3-0.7-0.4-1-0.4c-1,0-1.5,0.8-1.5,2.2v4h-1.7L77.6,113.7L77.6,113.7z"/>
	<polygon class="st3" points="86.8,120 83.4,113.7 85.5,113.7 87.8,118.1 90,113.7 92,113.7 85.8,125.7 83.8,125.7 	"/>
	<polygon class="st4" points="86.8,120 83.4,113.7 85.5,113.7 87.8,118.1 90,113.7 92,113.7 85.8,125.7 83.8,125.7 	"/>
	<path class="st3" d="M93,110.5c0-0.6,0.5-1.2,1.2-1.2c0.3,0,0.6,0.1,0.8,0.3c0.2,0.2,0.3,0.5,0.3,0.9c0,0.3-0.1,0.6-0.3,0.9
		c-0.2,0.2-0.5,0.3-0.8,0.3c-0.6,0-1.2-0.4-1.2-1V110.5z M95,113.7v7.7h-1.8v-7.7H95z"/>
	<path class="st4" d="M93,110.5c0-0.6,0.5-1.2,1.2-1.2c0.3,0,0.6,0.1,0.8,0.3c0.2,0.2,0.3,0.5,0.3,0.9c0,0.3-0.1,0.6-0.3,0.9
		c-0.2,0.2-0.5,0.3-0.8,0.3c-0.6,0-1.2-0.4-1.2-1V110.5z M95,113.7v7.7h-1.8v-7.7H95z"/>
	<path class="st3" d="M97.3,113.7h1.7v0.7c0.5-0.6,1.3-0.9,2.1-0.9c0.8-0.1,1.6,0.3,2.1,0.9c0.5,0.7,0.7,1.5,0.6,2.3v4.7h-1.8v-4.3
		c0.1-0.5-0.1-1.1-0.3-1.5c-0.3-0.3-0.7-0.5-1.2-0.5c-0.5-0.1-1,0.2-1.2,0.6c-0.3,0.6-0.4,1.3-0.4,2v3.7h-1.7L97.3,113.7L97.3,113.7
		z"/>
	<path class="st4" d="M97.3,113.7h1.7v0.7c0.5-0.6,1.3-0.9,2.1-0.9c0.8-0.1,1.6,0.3,2.1,0.9c0.5,0.7,0.7,1.5,0.6,2.3v4.7h-1.8v-4.3
		c0.1-0.5-0.1-1.1-0.3-1.5c-0.3-0.3-0.7-0.5-1.2-0.5c-0.5-0.1-1,0.2-1.2,0.6c-0.3,0.6-0.4,1.3-0.4,2v3.7h-1.7L97.3,113.7L97.3,113.7
		z"/>
	<path class="st3" d="M113.6,121.3v0.9c0,0.2-0.1,0.5-0.1,0.8c-0.1,0.5-0.4,1.1-0.8,1.5c-0.7,0.8-1.8,1.3-2.9,1.2
		c-0.9,0-1.8-0.3-2.6-0.8c-0.7-0.6-1.1-1.5-1.2-2.4h1.8c0.1,0.3,0.2,0.6,0.3,0.9c0.4,0.5,1,0.7,1.6,0.7c1.3,0,1.9-0.8,1.9-2.4v-1
		c-1.2,1.4-3.4,1.5-4.7,0.2c0,0-0.1,0-0.1-0.1l-0.2-0.2c-0.7-0.8-1.1-1.8-1-2.9c0-1,0.3-2.1,0.9-2.9c1.2-1.4,3.3-1.7,4.8-0.5
		c0.1,0.1,0.2,0.2,0.4,0.3v-0.9h1.8V121.3z M111.9,117.6c0-0.7-0.2-1.3-0.6-1.8c-0.8-0.8-2.1-0.9-2.9-0.1c-0.1,0.1-0.1,0.1-0.2,0.2
		c-0.4,0.5-0.6,1.1-0.5,1.8c0,0.6,0.2,1.2,0.5,1.7c0.4,0.5,1,0.8,1.6,0.8c0.6,0,1.2-0.3,1.6-0.8C111.8,118.9,112,118.2,111.9,117.6
		L111.9,117.6z"/>
	<path class="st4" d="M113.6,121.3v0.9c0,0.2-0.1,0.5-0.1,0.8c-0.1,0.5-0.4,1.1-0.8,1.5c-0.7,0.8-1.8,1.3-2.9,1.2
		c-0.9,0-1.8-0.3-2.6-0.8c-0.7-0.6-1.1-1.5-1.2-2.4h1.8c0.1,0.3,0.2,0.6,0.3,0.9c0.4,0.5,1,0.7,1.6,0.7c1.3,0,1.9-0.8,1.9-2.4v-1
		c-1.2,1.4-3.4,1.5-4.7,0.2c0,0-0.1,0-0.1-0.1l-0.2-0.2c-0.7-0.8-1.1-1.8-1-2.9c0-1,0.3-2.1,0.9-2.9c1.2-1.4,3.3-1.7,4.8-0.5
		c0.1,0.1,0.2,0.2,0.4,0.3v-0.9h1.8V121.3z M111.9,117.6c0-0.7-0.2-1.3-0.6-1.8c-0.8-0.8-2.1-0.9-2.9-0.1c-0.1,0.1-0.1,0.1-0.2,0.2
		c-0.4,0.5-0.6,1.1-0.5,1.8c0,0.6,0.2,1.2,0.5,1.7c0.4,0.5,1,0.8,1.6,0.8c0.6,0,1.2-0.3,1.6-0.8C111.8,118.9,112,118.2,111.9,117.6
		L111.9,117.6z"/>
	<path class="st3" d="M16.7,125.7h1.8v13.4h-1.8v-0.9c-0.6,0.7-1.5,1-2.4,1c-1,0-2-0.4-2.6-1.2c-0.7-0.8-1-1.9-1-2.9
		c-0.1-1.1,0.3-2.1,1-2.9c0.7-0.8,1.6-1.2,2.6-1.2c0.9,0,1.8,0.4,2.4,1V125.7z M12.4,135.3c0,0.7,0.2,1.3,0.6,1.8
		c0.4,0.5,1,0.7,1.6,0.7c0.6,0,1.2-0.2,1.6-0.7c0.9-1,0.9-2.5,0-3.6c-0.8-0.9-2.1-0.9-2.9-0.2c-0.1,0.1-0.1,0.1-0.2,0.2
		C12.7,134,12.4,134.6,12.4,135.3L12.4,135.3z"/>
	<path class="st4" d="M16.7,125.7h1.8v13.4h-1.8v-0.9c-0.6,0.7-1.5,1-2.4,1c-1,0-2-0.4-2.6-1.2c-0.7-0.8-1-1.9-1-2.9
		c-0.1-1.1,0.3-2.1,1-2.9c0.7-0.8,1.6-1.2,2.6-1.2c0.9,0,1.8,0.4,2.4,1V125.7z M12.4,135.3c0,0.7,0.2,1.3,0.6,1.8
		c0.4,0.5,1,0.7,1.6,0.7c0.6,0,1.2-0.2,1.6-0.7c0.9-1,0.9-2.5,0-3.6c-0.8-0.9-2.1-0.9-2.9-0.2c-0.1,0.1-0.1,0.1-0.2,0.2
		C12.7,134,12.4,134.6,12.4,135.3L12.4,135.3z"/>
	<path class="st3" d="M26.4,131.4h1.7v7.8h-1.7v-0.9c-1.3,1.4-3.5,1.4-4.9,0.1c0,0,0,0,0,0c-0.1-0.1-0.2-0.1-0.2-0.2
		c-0.7-0.8-1.1-1.9-1-2.9c0-1.1,0.4-2.1,1-2.9c0.7-0.8,1.6-1.2,2.6-1.2c0.9,0,1.8,0.4,2.4,1.1L26.4,131.4z M22.2,135.3
		c0,0.7,0.2,1.3,0.6,1.8c0.4,0.5,1,0.7,1.6,0.7c0.6,0,1.2-0.3,1.6-0.7c0.9-1,0.9-2.5,0-3.6c-0.8-0.9-2.1-0.9-2.9-0.2
		c-0.1,0.1-0.1,0.1-0.2,0.2C22.4,134,22.1,134.6,22.2,135.3L22.2,135.3z"/>
	<path class="st4" d="M26.4,131.4h1.7v7.8h-1.7v-0.9c-1.3,1.4-3.5,1.4-4.9,0.1c0,0,0,0,0,0c-0.1-0.1-0.2-0.1-0.2-0.2
		c-0.7-0.8-1.1-1.9-1-2.9c0-1.1,0.4-2.1,1-2.9c0.7-0.8,1.6-1.2,2.6-1.2c0.9,0,1.8,0.4,2.4,1.1L26.4,131.4z M22.2,135.3
		c0,0.7,0.2,1.3,0.6,1.8c0.4,0.5,1,0.7,1.6,0.7c0.6,0,1.2-0.3,1.6-0.7c0.9-1,0.9-2.5,0-3.6c-0.8-0.9-2.1-0.9-2.9-0.2
		c-0.1,0.1-0.1,0.1-0.2,0.2C22.4,134,22.1,134.6,22.2,135.3L22.2,135.3z"/>
	<path class="st3" d="M30.5,131.4h1.9v0.7c0.5-0.6,1.3-0.9,2.1-0.9c0.8-0.1,1.6,0.2,2.1,0.9c0.5,0.7,0.7,1.6,0.6,2.4v4.7h-1.8v-4.3
		c0.1-0.5-0.1-1.1-0.3-1.5c-0.3-0.3-0.7-0.5-1.2-0.5c-0.5-0.1-1,0.2-1.2,0.6c-0.3,0.6-0.4,1.3-0.4,2v3.7h-1.8V131.4z"/>
	<path class="st4" d="M30.5,131.4h1.9v0.7c0.5-0.6,1.3-0.9,2.1-0.9c0.8-0.1,1.6,0.2,2.1,0.9c0.5,0.7,0.7,1.6,0.6,2.4v4.7h-1.8v-4.3
		c0.1-0.5-0.1-1.1-0.3-1.5c-0.3-0.3-0.7-0.5-1.2-0.5c-0.5-0.1-1,0.2-1.2,0.6c-0.3,0.6-0.4,1.3-0.4,2v3.7h-1.8V131.4z"/>
	<path class="st3" d="M46.9,139v0.9c0,0.2-0.1,0.5-0.1,0.7c-0.1,0.5-0.4,1.1-0.8,1.5c-0.7,0.8-1.8,1.3-2.9,1.2
		c-0.9,0-1.8-0.3-2.6-0.8c-0.7-0.6-1.1-1.5-1.2-2.4h1.8c0.1,0.3,0.2,0.6,0.3,0.9c0.4,0.5,1,0.7,1.6,0.7c1.3,0,1.9-0.8,1.9-2.4v-1
		c-0.6,0.7-1.5,1.1-2.5,1c-1,0-1.9-0.4-2.6-1.2c-0.7-0.8-1.1-1.8-1-2.9c0-1,0.3-2,0.9-2.9c1.2-1.4,3.3-1.7,4.8-0.5
		c0.1,0.1,0.2,0.2,0.4,0.3v-0.9h1.8V139z M45.2,135.3c0-0.7-0.2-1.3-0.6-1.8c-0.8-0.8-2.1-0.9-2.9-0.1c-0.1,0.1-0.1,0.1-0.2,0.2
		c-0.4,0.5-0.6,1.1-0.5,1.8c0,0.6,0.2,1.2,0.5,1.7c0.7,0.9,2,1,2.9,0.3c0.1-0.1,0.2-0.2,0.3-0.3C45.1,136.5,45.3,135.9,45.2,135.3
		L45.2,135.3z"/>
	<path class="st4" d="M46.9,139v0.9c0,0.2-0.1,0.5-0.1,0.7c-0.1,0.5-0.4,1.1-0.8,1.5c-0.7,0.8-1.8,1.3-2.9,1.2
		c-0.9,0-1.8-0.3-2.6-0.8c-0.7-0.6-1.1-1.5-1.2-2.4h1.8c0.1,0.3,0.2,0.6,0.3,0.9c0.4,0.5,1,0.7,1.6,0.7c1.3,0,1.9-0.8,1.9-2.4v-1
		c-0.6,0.7-1.5,1.1-2.5,1c-1,0-1.9-0.4-2.6-1.2c-0.7-0.8-1.1-1.8-1-2.9c0-1,0.3-2,0.9-2.9c1.2-1.4,3.3-1.7,4.8-0.5
		c0.1,0.1,0.2,0.2,0.4,0.3v-0.9h1.8V139z M45.2,135.3c0-0.7-0.2-1.3-0.6-1.8c-0.8-0.8-2.1-0.9-2.9-0.1c-0.1,0.1-0.1,0.1-0.2,0.2
		c-0.4,0.5-0.6,1.1-0.5,1.8c0,0.6,0.2,1.2,0.5,1.7c0.7,0.9,2,1,2.9,0.3c0.1-0.1,0.2-0.2,0.3-0.3C45.1,136.5,45.3,135.9,45.2,135.3
		L45.2,135.3z"/>
	<path class="st3" d="M56.2,135.7h-5.6c0,0.6,0.2,1.1,0.6,1.5c0.4,0.4,0.9,0.6,1.4,0.5c0.4,0,0.7-0.1,1-0.3c0.4-0.3,0.8-0.8,1-1.2
		l1.5,0.8c-0.2,0.4-0.4,0.7-0.7,1c-0.2,0.3-0.5,0.5-0.9,0.7c-0.3,0.2-0.6,0.3-0.9,0.4c-0.3,0.1-0.7,0.1-1,0.2c-1,0.1-2-0.3-2.8-1
		c-0.7-0.8-1.1-1.9-1-2.9c-0.1-1.1,0.3-2.1,1-2.9c1.5-1.4,3.9-1.4,5.4,0c0.7,0.8,1.1,1.9,1,3L56.2,135.7z M54.3,134.3
		c-0.2-0.8-0.9-1.4-1.8-1.4c-0.4,0-0.8,0.2-1.2,0.4c-0.2,0.1-0.3,0.3-0.4,0.5c-0.2,0.2-0.2,0.4-0.2,0.6L54.3,134.3L54.3,134.3z"/>
	<path class="st4" d="M56.2,135.7h-5.6c0,0.6,0.2,1.1,0.6,1.5c0.4,0.4,0.9,0.6,1.4,0.5c0.4,0,0.7-0.1,1-0.3c0.4-0.3,0.8-0.8,1-1.2
		l1.5,0.8c-0.2,0.4-0.4,0.7-0.7,1c-0.2,0.3-0.5,0.5-0.9,0.7c-0.3,0.2-0.6,0.3-0.9,0.4c-0.3,0.1-0.7,0.1-1,0.2c-1,0.1-2-0.3-2.8-1
		c-0.7-0.8-1.1-1.9-1-2.9c-0.1-1.1,0.3-2.1,1-2.9c1.5-1.4,3.9-1.4,5.4,0c0.7,0.8,1.1,1.9,1,3L56.2,135.7z M54.3,134.3
		c-0.2-0.8-0.9-1.4-1.8-1.4c-0.4,0-0.8,0.2-1.2,0.4c-0.2,0.1-0.3,0.3-0.4,0.5c-0.2,0.2-0.2,0.4-0.2,0.6L54.3,134.3L54.3,134.3z"/>
	<path class="st3" d="M58.1,131.4h1.8v0.7c0.2-0.3,0.5-0.5,0.9-0.7c0.3-0.2,0.6-0.2,0.9-0.2c0.5,0,1,0.2,1.5,0.5l-0.8,1.6
		c-0.3-0.2-0.7-0.3-1-0.4c-1,0-1.5,0.8-1.5,2.2v4h-1.8L58.1,131.4z"/>
	<path class="st4" d="M58.1,131.4h1.8v0.7c0.2-0.3,0.5-0.5,0.9-0.7c0.3-0.2,0.6-0.2,0.9-0.2c0.5,0,1,0.2,1.5,0.5l-0.8,1.6
		c-0.3-0.2-0.7-0.3-1-0.4c-1,0-1.5,0.8-1.5,2.2v4h-1.8L58.1,131.4z"/>
	<path class="st3" d="M63.7,135.2c0-1.1,0.4-2.1,1.2-2.9c1.7-1.5,4.2-1.5,5.9,0c1.6,1.6,1.6,4.2,0.1,5.8c0,0,0,0-0.1,0.1
		c-1.7,1.6-4.2,1.6-5.9,0C64.1,137.4,63.7,136.3,63.7,135.2z M65.6,135.2c0,0.7,0.2,1.3,0.6,1.9c0.4,0.5,1.1,0.7,1.7,0.7
		c0.6,0,1.3-0.2,1.7-0.7c0.8-1.1,0.8-2.6,0-3.6c-0.5-0.5-1.1-0.7-1.7-0.7c-0.6,0-1.2,0.2-1.6,0.7C65.8,133.9,65.5,134.5,65.6,135.2z
		"/>
	<path class="st4" d="M63.7,135.2c0-1.1,0.4-2.1,1.2-2.9c1.7-1.5,4.2-1.5,5.9,0c1.6,1.6,1.6,4.2,0.1,5.8c0,0,0,0-0.1,0.1
		c-1.7,1.6-4.2,1.6-5.9,0C64.1,137.4,63.7,136.3,63.7,135.2z M65.6,135.2c0,0.7,0.2,1.3,0.6,1.9c0.4,0.5,1.1,0.7,1.7,0.7
		c0.6,0,1.3-0.2,1.7-0.7c0.8-1.1,0.8-2.6,0-3.6c-0.5-0.5-1.1-0.7-1.7-0.7c-0.6,0-1.2,0.2-1.6,0.7C65.8,133.9,65.5,134.5,65.6,135.2z
		"/>
	<path class="st3" d="M75.7,131.4v4.4c0,1.3,0.5,1.9,1.5,1.9s1.6-0.6,1.6-1.9v-4.4h1.8v4.5c0,0.6-0.1,1.1-0.2,1.6
		c-0.2,0.4-0.5,0.7-0.8,1c-1.3,1.1-3.2,1.1-4.6,0c-0.3-0.3-0.6-0.6-0.8-1c-0.2-0.5-0.2-1.1-0.2-1.6v-4.5H75.7z"/>
	<path class="st4" d="M75.7,131.4v4.4c0,1.3,0.5,1.9,1.5,1.9s1.6-0.6,1.6-1.9v-4.4h1.8v4.5c0,0.6-0.1,1.1-0.2,1.6
		c-0.2,0.4-0.5,0.7-0.8,1c-1.3,1.1-3.2,1.1-4.6,0c-0.3-0.3-0.6-0.6-0.8-1c-0.2-0.5-0.2-1.1-0.2-1.6v-4.5H75.7z"/>
	<path class="st3" d="M87.2,132.7l-1.5,0.8c-0.2-0.5-0.5-0.7-0.8-0.7c-0.3,0-0.5,0.2-0.6,0.5c0,0,0,0,0,0c0,0.3,0.3,0.6,1,0.9
		c0.7,0.2,1.4,0.6,1.9,1.2c0.3,0.4,0.5,0.9,0.5,1.4c0,0.7-0.3,1.4-0.9,1.9c-0.5,0.5-1.2,0.7-1.9,0.7c-1.2,0.1-2.4-0.7-2.8-1.9
		l1.6-0.7l0.5,0.7c0.2,0.2,0.5,0.3,0.8,0.3c0.6,0,0.9-0.3,0.9-0.9c0-0.3-0.2-0.6-0.7-0.9l-0.5-0.2l-0.5-0.2c-0.4-0.2-0.7-0.5-1-0.8
		c-0.3-0.4-0.4-0.8-0.4-1.2c0-0.6,0.2-1.3,0.7-1.7c0.4-0.5,1.1-0.7,1.7-0.6C86.1,131.2,86.9,131.8,87.2,132.7z"/>
	<path class="st4" d="M87.2,132.7l-1.5,0.8c-0.2-0.5-0.5-0.7-0.8-0.7c-0.3,0-0.5,0.2-0.6,0.5c0,0,0,0,0,0c0,0.3,0.3,0.6,1,0.9
		c0.7,0.2,1.4,0.6,1.9,1.2c0.3,0.4,0.5,0.9,0.5,1.4c0,0.7-0.3,1.4-0.9,1.9c-0.5,0.5-1.2,0.7-1.9,0.7c-1.2,0.1-2.4-0.7-2.8-1.9
		l1.6-0.7l0.5,0.7c0.2,0.2,0.5,0.3,0.8,0.3c0.6,0,0.9-0.3,0.9-0.9c0-0.3-0.2-0.6-0.7-0.9l-0.5-0.2l-0.5-0.2c-0.4-0.2-0.7-0.5-1-0.8
		c-0.3-0.4-0.4-0.8-0.4-1.2c0-0.6,0.2-1.3,0.7-1.7c0.4-0.5,1.1-0.7,1.7-0.6C86.1,131.2,86.9,131.8,87.2,132.7z"/>
	<path class="st3" d="M100.4,131.7v2.4c-0.3-0.4-0.6-0.8-1-1c-0.3-0.2-0.8-0.3-1.2-0.3c-0.6,0-1.2,0.2-1.7,0.7
		c-0.5,0.5-0.7,1.1-0.7,1.8c0,0.6,0.2,1.3,0.6,1.8c0.4,0.5,1,0.7,1.6,0.7c0.4,0,0.8-0.1,1.2-0.3c0.4-0.3,0.8-0.6,1-1v2.4
		c-0.7,0.4-1.4,0.6-2.2,0.6c-1.1,0-2.2-0.4-3-1.2c-0.7-0.8-1.2-1.8-1.1-2.8c0-1.1,0.4-2.2,1.2-2.9c0.8-0.8,1.9-1.2,3-1.2
		C98.9,131.2,99.7,131.4,100.4,131.7z"/>
	<path class="st4" d="M100.4,131.7v2.4c-0.3-0.4-0.6-0.8-1-1c-0.3-0.2-0.8-0.3-1.2-0.3c-0.6,0-1.2,0.2-1.7,0.7
		c-0.5,0.5-0.7,1.1-0.7,1.8c0,0.6,0.2,1.3,0.6,1.8c0.4,0.5,1,0.7,1.6,0.7c0.4,0,0.8-0.1,1.2-0.3c0.4-0.3,0.8-0.6,1-1v2.4
		c-0.7,0.4-1.4,0.6-2.2,0.6c-1.1,0-2.2-0.4-3-1.2c-0.7-0.8-1.2-1.8-1.1-2.8c0-1.1,0.4-2.2,1.2-2.9c0.8-0.8,1.9-1.2,3-1.2
		C98.9,131.2,99.7,131.4,100.4,131.7z"/>
	<path class="st3" d="M107.8,131.4h1.8v7.8h-1.8v-0.9c-1.3,1.4-3.5,1.4-4.9,0.1c0,0,0,0,0,0c-0.1-0.1-0.2-0.1-0.2-0.2
		c-0.7-0.8-1.1-1.9-1-2.9c-0.1-1.1,0.3-2.1,1-2.9c0.7-0.8,1.6-1.2,2.6-1.2c0.9,0,1.8,0.4,2.4,1.1L107.8,131.4z M103.6,135.3
		c0,0.7,0.2,1.3,0.6,1.8c0.4,0.5,1,0.7,1.6,0.7c0.6,0,1.2-0.3,1.6-0.7c0.9-1,0.9-2.5,0-3.6c-0.4-0.4-1-0.7-1.6-0.7
		c-0.6,0-1.2,0.2-1.5,0.7C103.8,134,103.6,134.6,103.6,135.3L103.6,135.3z"/>
	<path class="st4" d="M107.8,131.4h1.8v7.8h-1.8v-0.9c-1.3,1.4-3.5,1.4-4.9,0.1c0,0,0,0,0,0c-0.1-0.1-0.2-0.1-0.2-0.2
		c-0.7-0.8-1.1-1.9-1-2.9c-0.1-1.1,0.3-2.1,1-2.9c0.7-0.8,1.6-1.2,2.6-1.2c0.9,0,1.8,0.4,2.4,1.1L107.8,131.4z M103.6,135.3
		c0,0.7,0.2,1.3,0.6,1.8c0.4,0.5,1,0.7,1.6,0.7c0.6,0,1.2-0.3,1.6-0.7c0.9-1,0.9-2.5,0-3.6c-0.4-0.4-1-0.7-1.6-0.7
		c-0.6,0-1.2,0.2-1.5,0.7C103.8,134,103.6,134.6,103.6,135.3L103.6,135.3z"/>
	<path class="st3" d="M111.8,131.4h1.8v0.7c0.2-0.3,0.5-0.5,0.9-0.7c0.3-0.2,0.6-0.2,0.9-0.2c0.5,0,1,0.2,1.5,0.5l-0.8,1.6
		c-0.3-0.2-0.7-0.3-1-0.4c-1,0-1.5,0.8-1.5,2.2v4h-1.7L111.8,131.4z"/>
	<path class="st4" d="M111.8,131.4h1.8v0.7c0.2-0.3,0.5-0.5,0.9-0.7c0.3-0.2,0.6-0.2,0.9-0.2c0.5,0,1,0.2,1.5,0.5l-0.8,1.6
		c-0.3-0.2-0.7-0.3-1-0.4c-1,0-1.5,0.8-1.5,2.2v4h-1.7L111.8,131.4z"/>
	<path class="st3" d="M125.5,139v0.9c0,0.2-0.1,0.5-0.1,0.7c-0.1,0.5-0.4,1.1-0.8,1.5c-0.7,0.8-1.8,1.3-2.9,1.2
		c-0.9,0-1.8-0.3-2.6-0.8c-0.7-0.6-1.1-1.5-1.2-2.4h1.8c0.1,0.3,0.2,0.6,0.3,0.9c0.4,0.5,1,0.7,1.6,0.7c1.3,0,1.9-0.8,1.9-2.4v-1
		c-0.6,0.7-1.5,1.1-2.5,1c-1,0-1.9-0.4-2.6-1.2c-0.7-0.8-1.1-1.8-1-2.9c0-1,0.3-2,0.9-2.9c1.2-1.4,3.3-1.7,4.8-0.5
		c0.1,0.1,0.2,0.2,0.4,0.3v-0.9h1.8L125.5,139z M123.8,135.3c0-0.7-0.2-1.3-0.6-1.8c-0.8-0.8-2.1-0.9-2.9-0.1
		c-0.1,0.1-0.1,0.1-0.2,0.2c-0.4,0.5-0.6,1.1-0.5,1.8c0,0.6,0.2,1.2,0.5,1.7c0.7,0.9,2,1,2.9,0.3c0.1-0.1,0.2-0.2,0.3-0.3
		C123.6,136.5,123.8,135.9,123.8,135.3L123.8,135.3z"/>
	<path class="st4" d="M125.5,139v0.9c0,0.2-0.1,0.5-0.1,0.7c-0.1,0.5-0.4,1.1-0.8,1.5c-0.7,0.8-1.8,1.3-2.9,1.2
		c-0.9,0-1.8-0.3-2.6-0.8c-0.7-0.6-1.1-1.5-1.2-2.4h1.8c0.1,0.3,0.2,0.6,0.3,0.9c0.4,0.5,1,0.7,1.6,0.7c1.3,0,1.9-0.8,1.9-2.4v-1
		c-0.6,0.7-1.5,1.1-2.5,1c-1,0-1.9-0.4-2.6-1.2c-0.7-0.8-1.1-1.8-1-2.9c0-1,0.3-2,0.9-2.9c1.2-1.4,3.3-1.7,4.8-0.5
		c0.1,0.1,0.2,0.2,0.4,0.3v-0.9h1.8L125.5,139z M123.8,135.3c0-0.7-0.2-1.3-0.6-1.8c-0.8-0.8-2.1-0.9-2.9-0.1
		c-0.1,0.1-0.1,0.1-0.2,0.2c-0.4,0.5-0.6,1.1-0.5,1.8c0,0.6,0.2,1.2,0.5,1.7c0.7,0.9,2,1,2.9,0.3c0.1-0.1,0.2-0.2,0.3-0.3
		C123.6,136.5,123.8,135.9,123.8,135.3L123.8,135.3z"/>
	<path class="st3" d="M127.4,135.2c0-1.1,0.4-2.1,1.2-2.9c1.7-1.5,4.2-1.5,5.9,0c1.6,1.6,1.6,4.2,0.1,5.8c0,0,0,0-0.1,0.1
		c-1.7,1.6-4.2,1.6-5.9,0C127.7,137.4,127.3,136.3,127.4,135.2z M129.2,135.2c0,0.7,0.2,1.3,0.6,1.9c0.9,0.9,2.5,0.9,3.4,0
		c0.8-1.1,0.8-2.6,0-3.6c-0.9-0.9-2.4-0.9-3.3,0c0,0,0,0,0,0C129.4,133.9,129.1,134.5,129.2,135.2z"/>
	<path class="st4" d="M127.4,135.2c0-1.1,0.4-2.1,1.2-2.9c1.7-1.5,4.2-1.5,5.9,0c1.6,1.6,1.6,4.2,0.1,5.8c0,0,0,0-0.1,0.1
		c-1.7,1.6-4.2,1.6-5.9,0C127.7,137.4,127.3,136.3,127.4,135.2z M129.2,135.2c0,0.7,0.2,1.3,0.6,1.9c0.9,0.9,2.5,0.9,3.4,0
		c0.8-1.1,0.8-2.6,0-3.6c-0.9-0.9-2.4-0.9-3.3,0c0,0,0,0,0,0C129.4,133.9,129.1,134.5,129.2,135.2z"/>
</g>
</svg>
