<?xml version="1.0" encoding="utf-8"?>
<!-- Generator: Adobe Illustrator 24.0.1, SVG Export Plug-In . SVG Version: 6.00 Build 0)  -->
<svg version="1.1" xmlns="http://www.w3.org/2000/svg" xmlns:xlink="http://www.w3.org/1999/xlink" x="0px" y="0px"
	 viewBox="0 0 147.8 147.8" style="enable-background:new 0 0 147.8 147.8;" xml:space="preserve">
<style type="text/css">
	.st0{fill:#000094;}
	.st1{fill:#FFFFFF;}
	.st2{fill:#FF0000;}
	.st3{fill:none;stroke:#000000;stroke-width:3.75;stroke-linejoin:round;}
	.st4{fill:none;stroke:#000000;stroke-width:0.5;}
</style>
<g id="Layer_2">
	<title>Charlie</title>
	<rect x="1.9" y="1.9" class="st0" width="144" height="144"/>
	<rect x="1.9" y="30.7" class="st1" width="144" height="86.4"/>
	<rect x="1.9" y="59.5" class="st2" width="144" height="28.8"/>
</g>
<g id="Layer_1">
	<path class="st3" d="M1.9,1.9h144v144H1.9V1.9z"/>
	<path class="st1" d="M50.2,91.3l-2.1-0.8l2.9-5.9l1.6,0.6L50.2,91.3z M54.3,91.3l-2.1-0.8l2.9-5.9l1.6,0.6L54.3,91.3z"/>
	<path class="st4" d="M50.2,91.3l-2.1-0.8l2.9-5.9l1.6,0.6L50.2,91.3z M54.3,91.3l-2.1-0.8l2.9-5.9l1.6,0.6L54.3,91.3z"/>
	<polygon class="st1" points="63.6,94.2 58.4,85.2 61.2,85.2 64.8,91.5 68.4,85.2 71.2,85.2 66,94.2 66,101 63.6,101 63.6,94.2 	"/>
	<polygon class="st4" points="63.6,94.2 58.4,85.2 61.2,85.2 64.8,91.5 68.4,85.2 71.2,85.2 66,94.2 66,101 63.6,101 63.6,94.2 	"/>
	<path class="st1" d="M80.3,96.7h-7.1c0,0.7,0.3,1.5,0.8,2c0.9,0.8,2.2,1,3.2,0.3c0.5-0.4,0.9-0.9,1.3-1.5l1.9,1.1
		c-0.3,0.5-0.6,0.9-1,1.3c-0.3,0.4-0.7,0.7-1.1,0.9c-0.4,0.2-0.8,0.4-1.2,0.5c-0.5,0.1-0.9,0.2-1.4,0.2c-1.3,0.1-2.6-0.5-3.6-1.4
		c-0.9-1.1-1.4-2.4-1.4-3.8c-0.1-1.4,0.4-2.8,1.3-3.8c2-1.9,5-1.9,7,0c0.9,1.1,1.4,2.5,1.3,3.9L80.3,96.7z M78,94.7
		c-0.2-1.1-1.2-1.9-2.3-1.8c-0.3,0-0.5,0-0.8,0.1c-0.3,0.1-0.5,0.2-0.7,0.4c-0.2,0.2-0.4,0.4-0.5,0.6c-0.2,0.2-0.3,0.5-0.3,0.8
		L78,94.7L78,94.7z"/>
	<path class="st4" d="M80.3,96.7h-7.1c0,0.7,0.3,1.5,0.8,2c0.9,0.8,2.2,1,3.2,0.3c0.5-0.4,0.9-0.9,1.3-1.5l1.9,1.1
		c-0.3,0.5-0.6,0.9-1,1.3c-0.3,0.4-0.7,0.7-1.1,0.9c-0.4,0.2-0.8,0.4-1.2,0.5c-0.5,0.1-0.9,0.2-1.4,0.2c-1.3,0.1-2.6-0.5-3.6-1.4
		c-0.9-1.1-1.4-2.4-1.4-3.8c-0.1-1.4,0.4-2.8,1.3-3.8c2-1.9,5-1.9,7,0c0.9,1.1,1.4,2.5,1.3,3.9L80.3,96.7z M78,94.7
		c-0.2-1.1-1.2-1.9-2.3-1.8c-0.3,0-0.5,0-0.8,0.1c-0.3,0.1-0.5,0.2-0.7,0.4c-0.2,0.2-0.4,0.4-0.5,0.6c-0.2,0.2-0.3,0.5-0.3,0.8
		L78,94.7L78,94.7z"/>
	<path class="st1" d="M88.6,92.8l-1.9,1c-0.3-0.6-0.7-0.9-1.1-0.9c-0.2,0-0.4,0.1-0.6,0.2c-0.1,0.1-0.2,0.3-0.2,0.5
		c0,0.4,0.4,0.8,1.3,1.1c0.9,0.3,1.8,0.8,2.5,1.5c0.4,0.5,0.7,1.1,0.6,1.8c0,0.9-0.4,1.8-1.1,2.4c-1.6,1.4-4,1.2-5.3-0.4
		c0,0,0,0,0,0c-0.3-0.3-0.5-0.7-0.7-1.1l2-0.9l0.6,0.9c0.3,0.3,0.6,0.4,1,0.4c0.8,0,1.2-0.4,1.2-1.1c0-0.4-0.3-0.8-0.9-1.2l-0.7-0.3
		l-0.7-0.3c-0.5-0.2-1-0.6-1.4-1c-0.4-0.4-0.6-1-0.5-1.6c0-0.8,0.3-1.6,0.9-2.2c0.6-0.6,1.4-0.9,2.2-0.8
		C87,90.8,88.2,91.6,88.6,92.8z"/>
	<path class="st4" d="M88.6,92.8l-1.9,1c-0.3-0.6-0.7-0.9-1.1-0.9c-0.2,0-0.4,0.1-0.6,0.2c-0.1,0.1-0.2,0.3-0.2,0.5
		c0,0.4,0.4,0.8,1.3,1.1c0.9,0.3,1.8,0.8,2.5,1.5c0.4,0.5,0.7,1.1,0.6,1.8c0,0.9-0.4,1.8-1.1,2.4c-1.6,1.4-4,1.2-5.3-0.4
		c0,0,0,0,0,0c-0.3-0.3-0.5-0.7-0.7-1.1l2-0.9l0.6,0.9c0.3,0.3,0.6,0.4,1,0.4c0.8,0,1.2-0.4,1.2-1.1c0-0.4-0.3-0.8-0.9-1.2l-0.7-0.3
		l-0.7-0.3c-0.5-0.2-1-0.6-1.4-1c-0.4-0.4-0.6-1-0.5-1.6c0-0.8,0.3-1.6,0.9-2.2c0.6-0.6,1.4-0.9,2.2-0.8
		C87,90.8,88.2,91.6,88.6,92.8z"/>
	<path class="st1" d="M93.5,84.6l2,0.8l-2.9,5.9L91,90.6L93.5,84.6z M97.6,84.6l2,0.8l-2.9,5.9l-1.6-0.7L97.6,84.6z"/>
	<path class="st4" d="M93.5,84.6l2,0.8l-2.9,5.9L91,90.6L93.5,84.6z M97.6,84.6l2,0.8l-2.9,5.9l-1.6-0.7L97.6,84.6z"/>
	<path class="st1" d="M64.1,113.3c0-1.4,0.5-2.7,1.5-3.7c2.1-2,5.5-2,7.6,0c2.1,2,2.1,5.4,0.1,7.4c0,0-0.1,0.1-0.1,0.1
		c-2.1,2-5.5,2-7.6,0C64.6,116,64.1,114.7,64.1,113.3z M66.5,113.3c0,0.9,0.2,1.7,0.8,2.4c0.6,0.6,1.4,0.9,2.2,0.9
		c0.8,0.1,1.6-0.2,2.2-0.8c1.1-1.4,1.1-3.3,0-4.7c-1.2-1.2-3.1-1.2-4.2-0.1c0,0,0,0-0.1,0.1C66.8,111.7,66.5,112.4,66.5,113.3z"/>
	<path class="st4" d="M64.1,113.3c0-1.4,0.5-2.7,1.5-3.7c2.1-2,5.5-2,7.6,0c2.1,2,2.1,5.4,0.1,7.4c0,0-0.1,0.1-0.1,0.1
		c-2.1,2-5.5,2-7.6,0C64.6,116,64.1,114.7,64.1,113.3z M66.5,113.3c0,0.9,0.2,1.7,0.8,2.4c0.6,0.6,1.4,0.9,2.2,0.9
		c0.8,0.1,1.6-0.2,2.2-0.8c1.1-1.4,1.1-3.3,0-4.7c-1.2-1.2-3.1-1.2-4.2-0.1c0,0,0,0-0.1,0.1C66.8,111.7,66.5,112.4,66.5,113.3z"/>
	<path class="st1" d="M77.2,108.4h2.3v0.9c0.3-0.4,0.7-0.7,1.1-0.9c0.4-0.2,0.8-0.3,1.2-0.2c0.7,0,1.3,0.2,1.9,0.6l-1.1,2.1
		c-0.4-0.3-0.8-0.5-1.3-0.5c-1.2,0-1.9,1-1.9,2.8v5.2h-2.3L77.2,108.4z"/>
	<path class="st4" d="M77.2,108.4h2.3v0.9c0.3-0.4,0.7-0.7,1.1-0.9c0.4-0.2,0.8-0.3,1.2-0.2c0.7,0,1.3,0.2,1.9,0.6l-1.1,2.1
		c-0.4-0.3-0.8-0.5-1.3-0.5c-1.2,0-1.9,1-1.9,2.8v5.2h-2.3L77.2,108.4z"/>
	<path class="st1" d="M14.7,127.2l-2.1-0.8l2.9-5.9l1.6,0.6L14.7,127.2z M18.8,127.2l-2.1-0.8l2.9-5.9l1.6,0.6L18.8,127.2z"/>
	<path class="st4" d="M14.7,127.2l-2.1-0.8l2.9-5.9l1.6,0.6L14.7,127.2z M18.8,127.2l-2.1-0.8l2.9-5.9l1.6,0.6L18.8,127.2z"/>
	<path class="st1" d="M32.1,133.2h-6.8l-1.8,3.8h-2.6l7.9-16.8l7.6,16.8h-2.6L32.1,133.2z M31.1,130.9l-2.4-5.4l-2.5,5.4H31.1z"/>
	<path class="st4" d="M32.1,133.2h-6.8l-1.8,3.8h-2.6l7.9-16.8l7.6,16.8h-2.6L32.1,133.2z M31.1,130.9l-2.4-5.4l-2.5,5.4H31.1z"/>
	<path class="st1" d="M40.3,129.2v7.8H38v-7.8h-0.8v-2.2H38v-3.8c-0.1-1,0.1-1.9,0.7-2.7c0.7-0.7,1.6-1.1,2.6-1.1
		c0.5,0,1.1,0.1,1.5,0.4v2.4l-0.2-0.1c-0.4-0.2-0.8-0.3-1.2-0.4c-0.3,0-0.7,0.1-0.8,0.4c-0.2,0.5-0.3,1.1-0.2,1.7v3.2h2.5v2.1
		L40.3,129.2L40.3,129.2z"/>
	<path class="st4" d="M40.3,129.2v7.8H38v-7.8h-0.8v-2.2H38v-3.8c-0.1-1,0.1-1.9,0.7-2.7c0.7-0.7,1.6-1.1,2.6-1.1
		c0.5,0,1.1,0.1,1.5,0.4v2.4l-0.2-0.1c-0.4-0.2-0.8-0.3-1.2-0.4c-0.3,0-0.7,0.1-0.8,0.4c-0.2,0.5-0.3,1.1-0.2,1.7v3.2h2.5v2.1
		L40.3,129.2L40.3,129.2z"/>
	<path class="st1" d="M47.2,129.2v7.8h-2.3v-7.8h-0.8v-2.2h0.8v-3.8c-0.1-0.9,0.1-1.9,0.6-2.7c0.7-0.7,1.6-1.1,2.6-1.1
		c0.6,0,1.1,0.1,1.6,0.4v2.4l-0.2-0.1c-0.4-0.2-0.8-0.3-1.2-0.4c-0.3,0-0.7,0.1-0.8,0.4c-0.2,0.5-0.3,1.1-0.2,1.7v3.2h2.5v2.1
		L47.2,129.2L47.2,129.2z"/>
	<path class="st4" d="M47.2,129.2v7.8h-2.3v-7.8h-0.8v-2.2h0.8v-3.8c-0.1-0.9,0.1-1.9,0.6-2.7c0.7-0.7,1.6-1.1,2.6-1.1
		c0.6,0,1.1,0.1,1.6,0.4v2.4l-0.2-0.1c-0.4-0.2-0.8-0.3-1.2-0.4c-0.3,0-0.7,0.1-0.8,0.4c-0.2,0.5-0.3,1.1-0.2,1.7v3.2h2.5v2.1
		L47.2,129.2L47.2,129.2z"/>
	<path class="st1" d="M51.1,122.8c0-0.8,0.6-1.4,1.4-1.4c0.1,0,0.1,0,0.2,0c0.4,0,0.7,0.2,1,0.4c0.3,0.3,0.4,0.7,0.4,1.1
		c0,0.4-0.2,0.8-0.4,1.1c-0.3,0.3-0.7,0.4-1.1,0.4c-0.4,0-0.8-0.2-1.1-0.4C51.3,123.7,51.1,123.3,51.1,122.8z M53.8,127v10h-2.3v-10
		L53.8,127z"/>
	<path class="st4" d="M51.1,122.8c0-0.8,0.6-1.4,1.4-1.4c0.1,0,0.1,0,0.2,0c0.4,0,0.7,0.2,1,0.4c0.3,0.3,0.4,0.7,0.4,1.1
		c0,0.4-0.2,0.8-0.4,1.1c-0.3,0.3-0.7,0.4-1.1,0.4c-0.4,0-0.8-0.2-1.1-0.4C51.3,123.7,51.1,123.3,51.1,122.8z M53.8,127v10h-2.3v-10
		L53.8,127z"/>
	<path class="st1" d="M56.7,127.1H59v0.9c0.3-0.4,0.7-0.7,1.1-0.9c0.4-0.2,0.8-0.3,1.2-0.2c0.7,0,1.3,0.2,1.9,0.6l-1,2.1
		c-0.4-0.3-0.8-0.5-1.3-0.5c-1.2,0-1.9,1-1.9,2.8v5.2h-2.3L56.7,127.1z"/>
	<path class="st4" d="M56.7,127.1H59v0.9c0.3-0.4,0.7-0.7,1.1-0.9c0.4-0.2,0.8-0.3,1.2-0.2c0.7,0,1.3,0.2,1.9,0.6l-1,2.1
		c-0.4-0.3-0.8-0.5-1.3-0.5c-1.2,0-1.9,1-1.9,2.8v5.2h-2.3L56.7,127.1z"/>
	<path class="st1" d="M64.9,127.1h2.3v0.9c0.3-0.4,0.7-0.7,1.1-0.9c0.4-0.2,0.9-0.3,1.3-0.2c1.1,0,2.1,0.5,2.7,1.5
		c0.7-0.9,1.7-1.5,2.9-1.5c2.3,0,3.4,1.4,3.4,4.1v6.2h-2.3v-5.6c0-0.7-0.1-1.4-0.3-2c-0.3-0.4-0.7-0.6-1.2-0.6
		c-0.6,0-1.1,0.2-1.4,0.7c-0.3,0.7-0.5,1.5-0.4,2.4v5.2h-2.3v-5.5c0-1.8-0.5-2.7-1.5-2.7c-0.6,0-1.1,0.2-1.4,0.7
		c-0.3,0.7-0.5,1.5-0.4,2.3v5.2h-2.3v-10.1L64.9,127.1z"/>
	<path class="st4" d="M64.9,127.1h2.3v0.9c0.3-0.4,0.7-0.7,1.1-0.9c0.4-0.2,0.9-0.3,1.3-0.2c1.1,0,2.1,0.5,2.7,1.5
		c0.7-0.9,1.7-1.5,2.9-1.5c2.3,0,3.4,1.4,3.4,4.1v6.2h-2.3v-5.6c0-0.7-0.1-1.4-0.3-2c-0.3-0.4-0.7-0.6-1.2-0.6
		c-0.6,0-1.1,0.2-1.4,0.7c-0.3,0.7-0.5,1.5-0.4,2.4v5.2h-2.3v-5.5c0-1.8-0.5-2.7-1.5-2.7c-0.6,0-1.1,0.2-1.4,0.7
		c-0.3,0.7-0.5,1.5-0.4,2.3v5.2h-2.3v-10.1L64.9,127.1z"/>
	<path class="st1" d="M88.9,127.1h2.3v10h-2.3v-1c-1.7,1.8-4.5,1.8-6.3,0.1c0,0,0,0,0,0c-0.1-0.1-0.2-0.2-0.2-0.3
		c-0.9-1.1-1.4-2.4-1.4-3.8c0-1.4,0.5-2.8,1.4-3.8c0.9-1,2.1-1.5,3.4-1.5c1.2,0,2.3,0.5,3.1,1.4V127.1z M83.4,132.1
		c0,0.8,0.2,1.7,0.8,2.3c0.5,0.6,1.2,0.9,2,0.9c0.8,0,1.6-0.3,2.1-0.9c1.1-1.3,1.1-3.3,0-4.6c-0.5-0.6-1.2-0.9-2-0.9
		c-0.8,0-1.5,0.3-2,0.9C83.7,130.3,83.4,131.2,83.4,132.1z"/>
	<path class="st4" d="M88.9,127.1h2.3v10h-2.3v-1c-1.7,1.8-4.5,1.8-6.3,0.1c0,0,0,0,0,0c-0.1-0.1-0.2-0.2-0.2-0.3
		c-0.9-1.1-1.4-2.4-1.4-3.8c0-1.4,0.5-2.8,1.4-3.8c0.9-1,2.1-1.5,3.4-1.5c1.2,0,2.3,0.5,3.1,1.4V127.1z M83.4,132.1
		c0,0.8,0.2,1.7,0.8,2.3c0.5,0.6,1.2,0.9,2,0.9c0.8,0,1.6-0.3,2.1-0.9c1.1-1.3,1.1-3.3,0-4.6c-0.5-0.6-1.2-0.9-2-0.9
		c-0.8,0-1.5,0.3-2,0.9C83.7,130.3,83.4,131.2,83.4,132.1z"/>
	<polygon class="st1" points="96.5,129.2 96.5,137.1 94.2,137.1 94.2,129.2 93.2,129.2 93.2,127.1 94.2,127.1 94.2,123.3 
		96.5,123.3 96.5,127.1 98.3,127.1 98.3,129.2 	"/>
	<polygon class="st4" points="96.5,129.2 96.5,137.1 94.2,137.1 94.2,129.2 93.2,129.2 93.2,127.1 94.2,127.1 94.2,123.3 
		96.5,123.3 96.5,127.1 98.3,127.1 98.3,129.2 	"/>
	<path class="st1" d="M99.5,122.8c0-0.8,0.7-1.4,1.4-1.4c0.1,0,0.1,0,0.2,0c0.4,0,0.7,0.2,1,0.4c0.3,0.3,0.5,0.7,0.4,1.1
		c0,0.4-0.2,0.8-0.4,1.1c-0.3,0.3-0.6,0.4-1,0.4c-0.4,0-0.8-0.2-1.1-0.4C99.7,123.8,99.5,123.3,99.5,122.8z M102.1,127v10h-2.3v-10
		L102.1,127z"/>
	<path class="st4" d="M99.5,122.8c0-0.8,0.7-1.4,1.4-1.4c0.1,0,0.1,0,0.2,0c0.4,0,0.7,0.2,1,0.4c0.3,0.3,0.5,0.7,0.4,1.1
		c0,0.4-0.2,0.8-0.4,1.1c-0.3,0.3-0.6,0.4-1,0.4c-0.4,0-0.8-0.2-1.1-0.4C99.7,123.8,99.5,123.3,99.5,122.8z M102.1,127v10h-2.3v-10
		L102.1,127z"/>
	<polygon class="st1" points="106.3,127.1 108.9,132.6 111.5,127.1 114.1,127.1 108.9,137.8 103.7,127.1 	"/>
	<polygon class="st4" points="106.3,127.1 108.9,132.6 111.5,127.1 114.1,127.1 108.9,137.8 103.7,127.1 	"/>
	<path class="st1" d="M124.3,132.6h-7.1c0,0.7,0.3,1.5,0.8,2c0.9,0.8,2.2,1,3.2,0.3c0.5-0.5,0.9-1,1.3-1.6l2,1.1
		c-0.3,0.5-0.6,0.9-1,1.3c-0.3,0.4-0.7,0.7-1.1,0.9c-0.4,0.2-0.8,0.4-1.2,0.5c-0.5,0.1-1,0.2-1.5,0.2c-1.3,0.1-2.6-0.5-3.6-1.4
		c-0.9-1.1-1.4-2.4-1.4-3.8c-0.1-1.4,0.4-2.8,1.3-3.8c2-1.9,5-1.9,7,0c0.9,1.1,1.4,2.5,1.3,3.9L124.3,132.6z M122,130.7
		c-0.2-1.1-1.2-1.9-2.3-1.8c-0.3,0-0.5,0-0.8,0.1c-0.3,0.1-0.5,0.2-0.7,0.4c-0.2,0.2-0.4,0.4-0.5,0.6c-0.2,0.2-0.3,0.5-0.3,0.8h4.6
		L122,130.7z"/>
	<path class="st4" d="M124.3,132.6h-7.1c0,0.7,0.3,1.5,0.8,2c0.9,0.8,2.2,1,3.2,0.3c0.5-0.5,0.9-1,1.3-1.6l2,1.1
		c-0.3,0.5-0.6,0.9-1,1.3c-0.3,0.4-0.7,0.7-1.1,0.9c-0.4,0.2-0.8,0.4-1.2,0.5c-0.5,0.1-1,0.2-1.5,0.2c-1.3,0.1-2.6-0.5-3.6-1.4
		c-0.9-1.1-1.4-2.4-1.4-3.8c-0.1-1.4,0.4-2.8,1.3-3.8c2-1.9,5-1.9,7,0c0.9,1.1,1.4,2.5,1.3,3.9L124.3,132.6z M122,130.7
		c-0.2-1.1-1.2-1.9-2.3-1.8c-0.3,0-0.5,0-0.8,0.1c-0.3,0.1-0.5,0.2-0.7,0.4c-0.2,0.2-0.4,0.4-0.5,0.6c-0.2,0.2-0.3,0.5-0.3,0.8h4.6
		L122,130.7z"/>
	<path class="st1" d="M129,120.6l2,0.8l-2.9,5.9l-1.6-0.7L129,120.6z M133.1,120.6l2,0.8l-2.9,5.9l-1.6-0.7L133.1,120.6z"/>
	<path class="st4" d="M129,120.6l2,0.8l-2.9,5.9l-1.6-0.7L129,120.6z M133.1,120.6l2,0.8l-2.9,5.9l-1.6-0.7L133.1,120.6z"/>
</g>
</svg>
