<?xml version="1.0" encoding="utf-8"?>
<!-- Generator: Adobe Illustrator 24.0.1, SVG Export Plug-In . SVG Version: 6.00 Build 0)  -->
<svg version="1.1" xmlns="http://www.w3.org/2000/svg" xmlns:xlink="http://www.w3.org/1999/xlink" x="0px" y="0px"
	 viewBox="0 0 147.8 147.8" style="enable-background:new 0 0 147.8 147.8;" xml:space="preserve">
<style type="text/css">
	.st0{fill:#FFCC00;}
	.st1{fill:#000094;}
	.st2{fill:none;stroke:#000000;stroke-width:3.75;stroke-linejoin:round;}
	.st3{fill:#FFFFFF;}
	.st4{fill:none;stroke:#000000;stroke-width:0.25;}
</style>
<g id="Layer_2">
	<title>Delta</title>
	<rect x="1.9" y="1.9" class="st0" width="144" height="144"/>
	<rect x="1.9" y="37.9" class="st1" width="144" height="72"/>
	<path class="st2" d="M1.9,1.9h144v144H1.9V1.9z"/>
</g>
<g id="Layer_1">
	<rect x="10.4" y="94.6" class="st3" width="1.6" height="11.2"/>
	<rect x="10.4" y="94.6" class="st4" width="1.6" height="11.2"/>
	<path class="st3" d="M24.3,98.8H26v7.2h-1.7v-0.8c-1.2,1.2-3.1,1.3-4.3,0.1c0,0-0.1-0.1-0.1-0.1c-0.1-0.1-0.1-0.1-0.1-0.2
		c-0.6-0.7-1-1.7-0.9-2.7c0-1,0.3-1.9,0.9-2.7c0.6-0.7,1.5-1.1,2.4-1.1c0.8,0,1.7,0.4,2.2,1L24.3,98.8z M20.5,102.4
		c0,0.6,0.2,1.2,0.5,1.6c0.3,0.4,0.9,0.7,1.4,0.7c0.6,0,1.2-0.2,1.6-0.7c0.8-1,0.8-2.3,0-3.3c-0.4-0.4-0.9-0.7-1.5-0.6
		c-0.5,0-1.1,0.2-1.4,0.6C20.6,101.2,20.4,101.8,20.5,102.4L20.5,102.4z"/>
	<path class="st4" d="M24.3,98.8H26v7.2h-1.7v-0.8c-1.2,1.2-3.1,1.3-4.3,0.1c0,0-0.1-0.1-0.1-0.1c-0.1-0.1-0.1-0.1-0.1-0.2
		c-0.6-0.7-1-1.7-0.9-2.7c0-1,0.3-1.9,0.9-2.7c0.6-0.7,1.5-1.1,2.4-1.1c0.8,0,1.7,0.4,2.2,1L24.3,98.8z M20.5,102.4
		c0,0.6,0.2,1.2,0.5,1.6c0.3,0.4,0.9,0.7,1.4,0.7c0.6,0,1.2-0.2,1.6-0.7c0.8-1,0.8-2.3,0-3.3c-0.4-0.4-0.9-0.7-1.5-0.6
		c-0.5,0-1.1,0.2-1.4,0.6C20.6,101.2,20.4,101.8,20.5,102.4L20.5,102.4z"/>
	<path class="st3" d="M28.1,98.8h1.6v0.7c0.2-0.3,0.5-0.5,0.8-0.7c0.3-0.2,0.6-0.2,0.9-0.1c0.8,0,1.5,0.4,1.9,1.1
		c0.5-0.7,1.3-1.1,2.1-1.1c1.6,0,2.4,1,2.4,2.9v4.5h-1.6v-4c0-0.5-0.1-1-0.3-1.4c-0.2-0.3-0.5-0.4-0.9-0.4c-0.4,0-0.8,0.2-1,0.5
		c-0.2,0.5-0.3,1.1-0.3,1.6v3.6h-1.6V102c0-1.3-0.4-1.9-1.1-1.9c-0.4,0-0.8,0.2-1,0.5c-0.2,0.5-0.3,1-0.4,1.6v3.7h-1.6L28.1,98.8z"
		/>
	<path class="st4" d="M28.1,98.8h1.6v0.7c0.2-0.3,0.5-0.5,0.8-0.7c0.3-0.2,0.6-0.2,0.9-0.1c0.8,0,1.5,0.4,1.9,1.1
		c0.5-0.7,1.3-1.1,2.1-1.1c1.6,0,2.4,1,2.4,2.9v4.5h-1.6v-4c0-0.5-0.1-1-0.3-1.4c-0.2-0.3-0.5-0.4-0.9-0.4c-0.4,0-0.8,0.2-1,0.5
		c-0.2,0.5-0.3,1.1-0.3,1.6v3.6h-1.6V102c0-1.3-0.4-1.9-1.1-1.9c-0.4,0-0.8,0.2-1,0.5c-0.2,0.5-0.3,1-0.4,1.6v3.7h-1.6L28.1,98.8z"
		/>
	<path class="st3" d="M44.5,98.8h1.6v0.7c0.2-0.3,0.5-0.5,0.8-0.7c0.3-0.2,0.6-0.2,0.9-0.1c0.8,0,1.5,0.4,1.9,1.1
		c0.5-0.7,1.2-1.1,2.1-1.1c1.6,0,2.4,1,2.4,2.9v4.5h-1.6v-4c0-0.5-0.1-1-0.3-1.4c-0.2-0.3-0.5-0.4-0.8-0.4c-0.4,0-0.8,0.2-1,0.5
		c-0.2,0.5-0.3,1.1-0.3,1.6v3.6h-1.6V102c0-1.3-0.4-1.9-1.1-1.9c-0.4,0-0.8,0.2-1,0.5c-0.2,0.5-0.3,1.1-0.3,1.6v3.7h-1.6L44.5,98.8z
		"/>
	<path class="st4" d="M44.5,98.8h1.6v0.7c0.2-0.3,0.5-0.5,0.8-0.7c0.3-0.2,0.6-0.2,0.9-0.1c0.8,0,1.5,0.4,1.9,1.1
		c0.5-0.7,1.2-1.1,2.1-1.1c1.6,0,2.4,1,2.4,2.9v4.5h-1.6v-4c0-0.5-0.1-1-0.3-1.4c-0.2-0.3-0.5-0.4-0.8-0.4c-0.4,0-0.8,0.2-1,0.5
		c-0.2,0.5-0.3,1.1-0.3,1.6v3.6h-1.6V102c0-1.3-0.4-1.9-1.1-1.9c-0.4,0-0.8,0.2-1,0.5c-0.2,0.5-0.3,1.1-0.3,1.6v3.7h-1.6L44.5,98.8z
		"/>
	<path class="st3" d="M61.6,98.8h1.6v7.2h-1.6v-0.8c-1.2,1.2-3.1,1.3-4.3,0.1c0,0-0.1-0.1-0.1-0.1c-0.1-0.1-0.1-0.1-0.1-0.2
		c-0.7-0.7-1-1.7-0.9-2.7c0-1,0.3-2,1-2.7c0.6-0.7,1.5-1.1,2.4-1.1c0.8,0,1.6,0.4,2.2,1L61.6,98.8z M57.7,102.4
		c0,0.6,0.2,1.2,0.6,1.6c0.4,0.4,0.9,0.7,1.4,0.7c0.6,0,1.1-0.2,1.5-0.7c0.8-0.9,0.8-2.3,0-3.3c-0.7-0.8-1.9-0.9-2.7-0.2
		c-0.1,0-0.1,0.1-0.2,0.2C57.9,101.2,57.7,101.8,57.7,102.4z"/>
	<path class="st4" d="M61.6,98.8h1.6v7.2h-1.6v-0.8c-1.2,1.2-3.1,1.3-4.3,0.1c0,0-0.1-0.1-0.1-0.1c-0.1-0.1-0.1-0.1-0.1-0.2
		c-0.7-0.7-1-1.7-0.9-2.7c0-1,0.3-2,1-2.7c0.6-0.7,1.5-1.1,2.4-1.1c0.8,0,1.6,0.4,2.2,1L61.6,98.8z M57.7,102.4
		c0,0.6,0.2,1.2,0.6,1.6c0.4,0.4,0.9,0.7,1.4,0.7c0.6,0,1.1-0.2,1.5-0.7c0.8-0.9,0.8-2.3,0-3.3c-0.7-0.8-1.9-0.9-2.7-0.2
		c-0.1,0-0.1,0.1-0.2,0.2C57.9,101.2,57.7,101.8,57.7,102.4z"/>
	<path class="st3" d="M65.3,98.8H67v0.7c0.5-0.6,1.2-0.9,1.9-0.9c0.7-0.1,1.4,0.2,1.9,0.8c0.4,0.6,0.6,1.4,0.6,2.1v4.5h-1.7v-4
		c0.1-0.5,0-1-0.3-1.4c-0.3-0.3-0.7-0.4-1.1-0.4c-0.5-0.1-0.9,0.2-1.1,0.6c-0.3,0.6-0.4,1.2-0.4,1.8v3.4h-1.6L65.3,98.8L65.3,98.8z"
		/>
	<path class="st4" d="M65.3,98.8H67v0.7c0.5-0.6,1.2-0.9,1.9-0.9c0.7-0.1,1.4,0.2,1.9,0.8c0.4,0.6,0.6,1.4,0.6,2.1v4.5h-1.7v-4
		c0.1-0.5,0-1-0.3-1.4c-0.3-0.3-0.7-0.4-1.1-0.4c-0.5-0.1-0.9,0.2-1.1,0.6c-0.3,0.6-0.4,1.2-0.4,1.8v3.4h-1.6L65.3,98.8L65.3,98.8z"
		/>
	<path class="st3" d="M73.2,102.3c0-1,0.4-1.9,1.1-2.6c1.5-1.5,3.9-1.6,5.5-0.1c1.5,1.5,1.6,3.9,0.1,5.5c-1.5,1.5-3.9,1.6-5.5,0.1
		C73.6,104.4,73.2,103.4,73.2,102.3z M74.9,102.3c0,0.6,0.2,1.2,0.6,1.7c0.4,0.4,1,0.7,1.6,0.7c0.6,0,1.2-0.3,1.6-0.7
		c0.8-1,0.8-2.4,0-3.3c-0.4-0.4-1-0.7-1.6-0.7c-0.6,0-1.1,0.2-1.5,0.7C75,101.1,74.8,101.7,74.9,102.3L74.9,102.3z"/>
	<path class="st4" d="M73.2,102.3c0-1,0.4-1.9,1.1-2.6c1.5-1.5,3.9-1.6,5.5-0.1c1.5,1.5,1.6,3.9,0.1,5.5c-1.5,1.5-3.9,1.6-5.5,0.1
		C73.6,104.4,73.2,103.4,73.2,102.3z M74.9,102.3c0,0.6,0.2,1.2,0.6,1.7c0.4,0.4,1,0.7,1.6,0.7c0.6,0,1.2-0.3,1.6-0.7
		c0.8-1,0.8-2.4,0-3.3c-0.4-0.4-1-0.7-1.6-0.7c-0.6,0-1.1,0.2-1.5,0.7C75,101.1,74.8,101.7,74.9,102.3L74.9,102.3z"/>
	<path class="st3" d="M89,102.8h-5.1c0,0.5,0.2,1,0.6,1.4c0.3,0.3,0.8,0.5,1.3,0.5c0.4,0,0.7-0.1,1-0.3c0.4-0.3,0.7-0.7,0.9-1.1
		l1.4,0.8c-0.2,0.3-0.4,0.6-0.7,0.9c-0.2,0.3-0.5,0.5-0.8,0.6c-0.3,0.1-0.6,0.3-0.8,0.4c-0.4,0.1-0.7,0.1-1.1,0.1
		c-1,0.1-1.9-0.3-2.6-1.1c-0.7-0.7-1-1.7-1-2.7c-0.1-1,0.3-2,1-2.7c1.4-1.4,3.6-1.4,5,0c0.7,0.8,1,1.8,0.9,2.8L89,102.8z
		 M87.3,101.4c-0.1-0.8-0.8-1.4-1.6-1.4c-0.2,0-0.4,0-0.6,0.1c-0.2,0.1-0.3,0.2-0.5,0.3c-0.1,0.1-0.3,0.3-0.4,0.4
		c-0.1,0.2-0.2,0.4-0.2,0.6L87.3,101.4z"/>
	<path class="st4" d="M89,102.8h-5.1c0,0.5,0.2,1,0.6,1.4c0.3,0.3,0.8,0.5,1.3,0.5c0.4,0,0.7-0.1,1-0.3c0.4-0.3,0.7-0.7,0.9-1.1
		l1.4,0.8c-0.2,0.3-0.4,0.6-0.7,0.9c-0.2,0.3-0.5,0.5-0.8,0.6c-0.3,0.1-0.6,0.3-0.8,0.4c-0.4,0.1-0.7,0.1-1.1,0.1
		c-1,0.1-1.9-0.3-2.6-1.1c-0.7-0.7-1-1.7-1-2.7c-0.1-1,0.3-2,1-2.7c1.4-1.4,3.6-1.4,5,0c0.7,0.8,1,1.8,0.9,2.8L89,102.8z
		 M87.3,101.4c-0.1-0.8-0.8-1.4-1.6-1.4c-0.2,0-0.4,0-0.6,0.1c-0.2,0.1-0.3,0.2-0.5,0.3c-0.1,0.1-0.3,0.3-0.4,0.4
		c-0.1,0.2-0.2,0.4-0.2,0.6L87.3,101.4z"/>
	<path class="st3" d="M92.4,98.8v4.1c0,1.2,0.4,1.8,1.4,1.8s1.4-0.6,1.4-1.8v-4.1h1.6v4.2c0,0.5-0.1,1-0.2,1.5
		c-0.2,0.4-0.4,0.7-0.7,1c-1.2,1-3,1-4.2,0c-0.3-0.3-0.5-0.6-0.7-1c-0.1-0.5-0.2-1-0.2-1.5v-4.2H92.4z"/>
	<path class="st4" d="M92.4,98.8v4.1c0,1.2,0.4,1.8,1.4,1.8s1.4-0.6,1.4-1.8v-4.1h1.6v4.2c0,0.5-0.1,1-0.2,1.5
		c-0.2,0.4-0.4,0.7-0.7,1c-1.2,1-3,1-4.2,0c-0.3-0.3-0.5-0.6-0.7-1c-0.1-0.5-0.2-1-0.2-1.5v-4.2H92.4z"/>
	<polygon class="st3" points="99.8,98.8 101.6,102.8 103.5,98.8 105.3,98.8 101.6,106.5 98,98.8 	"/>
	<polygon class="st4" points="99.8,98.8 101.6,102.8 103.5,98.8 105.3,98.8 101.6,106.5 98,98.8 	"/>
	<path class="st3" d="M112.7,102.8h-5.1c0,0.5,0.2,1,0.6,1.4c0.3,0.3,0.8,0.5,1.3,0.5c0.4,0,0.7-0.1,1-0.3c0.4-0.3,0.7-0.7,0.9-1.1
		l1.4,0.8c-0.2,0.3-0.4,0.6-0.7,0.9c-0.2,0.3-0.5,0.5-0.8,0.6c-0.3,0.1-0.6,0.3-0.8,0.4c-0.3,0.1-0.7,0.1-1,0.1c-1,0-1.9-0.3-2.6-1
		c-0.6-0.8-1-1.7-1-2.7c-0.1-1,0.3-2,0.9-2.7c1.4-1.3,3.6-1.3,5,0c0.7,0.8,1,1.8,0.9,2.8V102.8z M111,101.4
		c-0.2-0.8-0.8-1.4-1.6-1.4c-0.2,0-0.4,0-0.6,0.1c-0.2,0.1-0.3,0.2-0.5,0.3c-0.1,0.1-0.3,0.3-0.4,0.4c-0.1,0.2-0.2,0.4-0.2,0.6H111z
		"/>
	<path class="st4" d="M112.7,102.8h-5.1c0,0.5,0.2,1,0.6,1.4c0.3,0.3,0.8,0.5,1.3,0.5c0.4,0,0.7-0.1,1-0.3c0.4-0.3,0.7-0.7,0.9-1.1
		l1.4,0.8c-0.2,0.3-0.4,0.6-0.7,0.9c-0.2,0.3-0.5,0.5-0.8,0.6c-0.3,0.1-0.6,0.3-0.8,0.4c-0.3,0.1-0.7,0.1-1,0.1c-1,0-1.9-0.3-2.6-1
		c-0.6-0.8-1-1.7-1-2.7c-0.1-1,0.3-2,0.9-2.7c1.4-1.3,3.6-1.3,5,0c0.7,0.8,1,1.8,0.9,2.8V102.8z M111,101.4
		c-0.2-0.8-0.8-1.4-1.6-1.4c-0.2,0-0.4,0-0.6,0.1c-0.2,0.1-0.3,0.2-0.5,0.3c-0.1,0.1-0.3,0.3-0.4,0.4c-0.1,0.2-0.2,0.4-0.2,0.6H111z
		"/>
	<path class="st3" d="M114.5,98.8h1.6v0.7c0.2-0.3,0.5-0.5,0.8-0.7c0.3-0.1,0.6-0.2,0.8-0.1c0.5,0,1,0.1,1.4,0.4l-0.8,1.5
		c-0.3-0.2-0.6-0.3-0.9-0.3c-0.9,0-1.4,0.6-1.4,2v3.7h-1.6L114.5,98.8L114.5,98.8z"/>
	<path class="st4" d="M114.5,98.8h1.6v0.7c0.2-0.3,0.5-0.5,0.8-0.7c0.3-0.1,0.6-0.2,0.8-0.1c0.5,0,1,0.1,1.4,0.4l-0.8,1.5
		c-0.3-0.2-0.6-0.3-0.9-0.3c-0.9,0-1.4,0.6-1.4,2v3.7h-1.6L114.5,98.8L114.5,98.8z"/>
	<path class="st3" d="M120.1,95.8c0-0.6,0.5-1.1,1.1-1.1c0.3,0,0.6,0.1,0.8,0.3c0.2,0.2,0.3,0.5,0.3,0.8c0,0.3-0.1,0.6-0.3,0.8
		c-0.2,0.2-0.5,0.3-0.7,0.3c-0.3,0-0.6-0.1-0.8-0.3C120.2,96.4,120.1,96.1,120.1,95.8z M122,98.8v7.2h-1.6v-7.2L122,98.8z"/>
	<path class="st4" d="M120.1,95.8c0-0.6,0.5-1.1,1.1-1.1c0.3,0,0.6,0.1,0.8,0.3c0.2,0.2,0.3,0.5,0.3,0.8c0,0.3-0.1,0.6-0.3,0.8
		c-0.2,0.2-0.5,0.3-0.7,0.3c-0.3,0-0.6-0.1-0.8-0.3C120.2,96.4,120.1,96.1,120.1,95.8z M122,98.8v7.2h-1.6v-7.2L122,98.8z"/>
	<path class="st3" d="M124,98.8h1.6v0.7c0.5-0.5,1.2-0.9,1.9-0.9c0.7-0.1,1.5,0.2,1.9,0.8c0.4,0.6,0.6,1.4,0.6,2.1v4.5h-1.6v-4
		c0.1-0.5,0-1-0.3-1.4c-0.3-0.3-0.7-0.4-1.1-0.4c-0.5-0.1-0.9,0.2-1.1,0.6c-0.3,0.6-0.4,1.2-0.4,1.8v3.4H124V98.8z"/>
	<path class="st4" d="M124,98.8h1.6v0.7c0.5-0.5,1.2-0.9,1.9-0.9c0.7-0.1,1.5,0.2,1.9,0.8c0.4,0.6,0.6,1.4,0.6,2.1v4.5h-1.6v-4
		c0.1-0.5,0-1-0.3-1.4c-0.3-0.3-0.7-0.4-1.1-0.4c-0.5-0.1-0.9,0.2-1.1,0.6c-0.3,0.6-0.4,1.2-0.4,1.8v3.4H124V98.8z"/>
	<path class="st3" d="M139.1,105.8v0.9c0,0.2-0.1,0.5-0.1,0.7c-0.1,0.5-0.4,1-0.7,1.4c-0.7,0.8-1.6,1.2-2.6,1.1
		c-0.9,0-1.7-0.2-2.4-0.8c-0.7-0.6-1-1.4-1.1-2.2h1.6c0.1,0.3,0.2,0.5,0.3,0.8c0.4,0.4,0.9,0.7,1.5,0.6c1.2,0,1.8-0.7,1.8-2.2v-1
		c-1.1,1.3-3.1,1.4-4.3,0.2c0,0-0.1-0.1-0.1-0.1l-0.2-0.2c-0.6-0.7-1-1.7-0.9-2.6c0-0.9,0.3-1.9,0.9-2.6c0.6-0.8,1.5-1.2,2.5-1.1
		c0.8,0,1.7,0.4,2.2,1v-0.9h1.6V105.8z M137.5,102.4c0-0.6-0.2-1.2-0.6-1.6c-0.7-0.8-1.9-0.9-2.7-0.1c-0.1,0.1-0.1,0.1-0.2,0.2
		c-0.3,0.5-0.5,1.1-0.5,1.6c0,0.5,0.2,1.1,0.5,1.5c0.7,0.8,1.9,1,2.7,0.3c0.1-0.1,0.2-0.2,0.3-0.3
		C137.4,103.6,137.6,103,137.5,102.4L137.5,102.4z"/>
	<path class="st4" d="M139.1,105.8v0.9c0,0.2-0.1,0.5-0.1,0.7c-0.1,0.5-0.4,1-0.7,1.4c-0.7,0.8-1.6,1.2-2.6,1.1
		c-0.9,0-1.7-0.2-2.4-0.8c-0.7-0.6-1-1.4-1.1-2.2h1.6c0.1,0.3,0.2,0.5,0.3,0.8c0.4,0.4,0.9,0.7,1.5,0.6c1.2,0,1.8-0.7,1.8-2.2v-1
		c-1.1,1.3-3.1,1.4-4.3,0.2c0,0-0.1-0.1-0.1-0.1l-0.2-0.2c-0.6-0.7-1-1.7-0.9-2.6c0-0.9,0.3-1.9,0.9-2.6c0.6-0.8,1.5-1.2,2.5-1.1
		c0.8,0,1.7,0.4,2.2,1v-0.9h1.6V105.8z M137.5,102.4c0-0.6-0.2-1.2-0.6-1.6c-0.7-0.8-1.9-0.9-2.7-0.1c-0.1,0.1-0.1,0.1-0.2,0.2
		c-0.3,0.5-0.5,1.1-0.5,1.6c0,0.5,0.2,1.1,0.5,1.5c0.7,0.8,1.9,1,2.7,0.3c0.1-0.1,0.2-0.2,0.3-0.3
		C137.4,103.6,137.6,103,137.5,102.4L137.5,102.4z"/>
	<polygon class="st3" points="31.6,115.4 33.5,119.4 35.5,114.7 37.5,119.4 39.4,115.4 41.2,115.4 37.5,123 35.5,118.4 33.5,123 
		29.8,115.4 	"/>
	<polygon class="st4" points="31.6,115.4 33.5,119.4 35.5,114.7 37.5,119.4 39.4,115.4 41.2,115.4 37.5,123 35.5,118.4 33.5,123 
		29.8,115.4 	"/>
	<path class="st3" d="M42,112.4c0-0.6,0.4-1,1-1c0.1,0,0.1,0,0.1,0c0.3,0,0.5,0.1,0.7,0.3c0.2,0.2,0.3,0.5,0.3,0.8
		c0,0.3-0.1,0.6-0.3,0.8c-0.2,0.2-0.4,0.3-0.7,0.3c-0.3,0-0.6-0.1-0.8-0.3C42.1,113,42,112.7,42,112.4z M43.9,115.4v7.1h-1.6v-7.1
		H43.9z"/>
	<path class="st4" d="M42,112.4c0-0.6,0.4-1,1-1c0.1,0,0.1,0,0.1,0c0.3,0,0.5,0.1,0.7,0.3c0.2,0.2,0.3,0.5,0.3,0.8
		c0,0.3-0.1,0.6-0.3,0.8c-0.2,0.2-0.4,0.3-0.7,0.3c-0.3,0-0.6-0.1-0.8-0.3C42.1,113,42,112.7,42,112.4z M43.9,115.4v7.1h-1.6v-7.1
		H43.9z"/>
	<polygon class="st3" points="47.7,116.9 47.7,122.4 46.1,122.4 46.1,116.9 45.4,116.9 45.4,115.3 46.1,115.3 46.1,112.7 
		47.7,112.7 47.7,115.3 49,115.3 49,116.9 	"/>
	<polygon class="st4" points="47.7,116.9 47.7,122.4 46.1,122.4 46.1,116.9 45.4,116.9 45.4,115.3 46.1,115.3 46.1,112.7 
		47.7,112.7 47.7,115.3 49,115.3 49,116.9 	"/>
	<path class="st3" d="M50.4,110.2h1.6v5.8c0.5-0.5,1.2-0.8,1.9-0.8c0.7,0,1.4,0.2,1.9,0.8c0.4,0.6,0.6,1.4,0.6,2.1v4.4h-1.6v-4.2
		c0-0.4-0.1-0.8-0.3-1.2c-0.2-0.3-0.6-0.4-1-0.4c-0.5-0.1-1,0.2-1.2,0.6c-0.3,0.6-0.4,1.2-0.4,1.9v3.4h-1.6V110.2z"/>
	<path class="st4" d="M50.4,110.2h1.6v5.8c0.5-0.5,1.2-0.8,1.9-0.8c0.7,0,1.4,0.2,1.9,0.8c0.4,0.6,0.6,1.4,0.6,2.1v4.4h-1.6v-4.2
		c0-0.4-0.1-0.8-0.3-1.2c-0.2-0.3-0.6-0.4-1-0.4c-0.5-0.1-1,0.2-1.2,0.6c-0.3,0.6-0.4,1.2-0.4,1.9v3.4h-1.6V110.2z"/>
	<path class="st3" d="M68.4,110.2h1.6v12.3h-1.6v-0.8c-0.6,0.6-1.4,0.9-2.2,0.9c-0.9,0-1.8-0.4-2.4-1.1c-0.6-0.8-1-1.7-1-2.7
		c0-1,0.4-1.9,1-2.6c0.6-0.7,1.5-1.1,2.4-1.1c0.8,0,1.6,0.4,2.2,1V110.2z M64.6,118.9c0,0.6,0.2,1.2,0.6,1.6
		c0.3,0.4,0.9,0.7,1.4,0.6c0.6,0,1.1-0.2,1.5-0.6c0.8-1,0.8-2.3,0-3.3c-0.7-0.8-2-0.8-2.7-0.1c0,0,0,0,0,0l-0.1,0.1
		C64.8,117.6,64.5,118.2,64.6,118.9z"/>
	<path class="st4" d="M68.4,110.2h1.6v12.3h-1.6v-0.8c-0.6,0.6-1.4,0.9-2.2,0.9c-0.9,0-1.8-0.4-2.4-1.1c-0.6-0.8-1-1.7-1-2.7
		c0-1,0.4-1.9,1-2.6c0.6-0.7,1.5-1.1,2.4-1.1c0.8,0,1.6,0.4,2.2,1V110.2z M64.6,118.9c0,0.6,0.2,1.2,0.6,1.6
		c0.3,0.4,0.9,0.7,1.4,0.6c0.6,0,1.1-0.2,1.5-0.6c0.8-1,0.8-2.3,0-3.3c-0.7-0.8-2-0.8-2.7-0.1c0,0,0,0,0,0l-0.1,0.1
		C64.8,117.6,64.5,118.2,64.6,118.9z"/>
	<path class="st3" d="M71.9,112.4c0-0.6,0.4-1,1-1c0.1,0,0.1,0,0.1,0c0.3,0,0.5,0.1,0.7,0.3c0.2,0.2,0.3,0.5,0.3,0.8
		c0,0.3-0.1,0.6-0.3,0.8c-0.2,0.2-0.5,0.3-0.8,0.3c-0.3,0-0.6-0.1-0.8-0.3C72,113,71.9,112.7,71.9,112.4z M73.9,115.4v7.1h-1.6v-7.1
		H73.9z"/>
	<path class="st4" d="M71.9,112.4c0-0.6,0.4-1,1-1c0.1,0,0.1,0,0.1,0c0.3,0,0.5,0.1,0.7,0.3c0.2,0.2,0.3,0.5,0.3,0.8
		c0,0.3-0.1,0.6-0.3,0.8c-0.2,0.2-0.5,0.3-0.8,0.3c-0.3,0-0.6-0.1-0.8-0.3C72,113,71.9,112.7,71.9,112.4z M73.9,115.4v7.1h-1.6v-7.1
		H73.9z"/>
	<path class="st3" d="M77.6,116.9v5.6H76v-5.6h-0.6v-1.6H76v-2.7c-0.1-0.7,0.1-1.3,0.4-1.9c0.5-0.5,1.2-0.8,1.9-0.8
		c0.4,0,0.8,0.1,1.1,0.3v1.7l-0.1-0.1c-0.3-0.1-0.6-0.2-0.8-0.3c-0.2,0-0.5,0.1-0.6,0.3c-0.1,0.4-0.2,0.8-0.1,1.2v2.3h1.8v1.6
		L77.6,116.9z"/>
	<path class="st4" d="M77.6,116.9v5.6H76v-5.6h-0.6v-1.6H76v-2.7c-0.1-0.7,0.1-1.3,0.4-1.9c0.5-0.5,1.2-0.8,1.9-0.8
		c0.4,0,0.8,0.1,1.1,0.3v1.7l-0.1-0.1c-0.3-0.1-0.6-0.2-0.8-0.3c-0.2,0-0.5,0.1-0.6,0.3c-0.1,0.4-0.2,0.8-0.1,1.2v2.3h1.8v1.6
		L77.6,116.9z"/>
	<path class="st3" d="M82.6,116.9v5.6h-1.6v-5.6h-0.6v-1.6h0.6v-2.7c-0.1-0.7,0.1-1.4,0.5-1.9c0.5-0.5,1.1-0.8,1.8-0.8
		c0.4,0,0.8,0.1,1.1,0.3v1.7l-0.1-0.1c-0.3-0.1-0.6-0.2-0.9-0.3c-0.2,0-0.5,0.1-0.6,0.3c-0.1,0.4-0.2,0.8-0.1,1.2v2.3h1.8v1.6
		L82.6,116.9z"/>
	<path class="st4" d="M82.6,116.9v5.6h-1.6v-5.6h-0.6v-1.6h0.6v-2.7c-0.1-0.7,0.1-1.4,0.5-1.9c0.5-0.5,1.1-0.8,1.8-0.8
		c0.4,0,0.8,0.1,1.1,0.3v1.7l-0.1-0.1c-0.3-0.1-0.6-0.2-0.9-0.3c-0.2,0-0.5,0.1-0.6,0.3c-0.1,0.4-0.2,0.8-0.1,1.2v2.3h1.8v1.6
		L82.6,116.9z"/>
	<path class="st3" d="M85.3,112.4c0-0.6,0.5-1.1,1.1-1.1c0.3,0,0.6,0.1,0.8,0.3c0.2,0.2,0.3,0.5,0.3,0.8c0,0.3-0.1,0.6-0.3,0.8
		c-0.2,0.2-0.5,0.3-0.8,0.3c-0.6,0-1-0.4-1.1-0.9C85.3,112.5,85.3,112.4,85.3,112.4z M87.2,115.4v7.1h-1.6v-7.1H87.2z"/>
	<path class="st4" d="M85.3,112.4c0-0.6,0.5-1.1,1.1-1.1c0.3,0,0.6,0.1,0.8,0.3c0.2,0.2,0.3,0.5,0.3,0.8c0,0.3-0.1,0.6-0.3,0.8
		c-0.2,0.2-0.5,0.3-0.8,0.3c-0.6,0-1-0.4-1.1-0.9C85.3,112.5,85.3,112.4,85.3,112.4z M87.2,115.4v7.1h-1.6v-7.1H87.2z"/>
	<path class="st3" d="M94.9,115.7v2.2c-0.3-0.4-0.6-0.7-1-0.9c-0.3-0.2-0.6-0.3-1-0.3c-0.6,0-1.2,0.2-1.6,0.6
		c-0.4,0.4-0.7,1-0.6,1.6c0,0.6,0.2,1.2,0.6,1.6c0.4,0.4,0.9,0.7,1.5,0.6c0.4,0,0.7-0.1,1.1-0.3c0.4-0.3,0.8-0.6,1.1-1v2.1
		c-0.6,0.3-1.3,0.5-2,0.5c-1,0-2-0.4-2.8-1.1c-0.7-0.7-1.1-1.7-1.1-2.6c0-2.1,1.7-3.8,3.8-3.8c0,0,0.1,0,0.1,0
		C93.6,115.1,94.3,115.3,94.9,115.7z"/>
	<path class="st4" d="M94.9,115.7v2.2c-0.3-0.4-0.6-0.7-1-0.9c-0.3-0.2-0.6-0.3-1-0.3c-0.6,0-1.2,0.2-1.6,0.6
		c-0.4,0.4-0.7,1-0.6,1.6c0,0.6,0.2,1.2,0.6,1.6c0.4,0.4,0.9,0.7,1.5,0.6c0.4,0,0.7-0.1,1.1-0.3c0.4-0.3,0.8-0.6,1.1-1v2.1
		c-0.6,0.3-1.3,0.5-2,0.5c-1,0-2-0.4-2.8-1.1c-0.7-0.7-1.1-1.7-1.1-2.6c0-2.1,1.7-3.8,3.8-3.8c0,0,0.1,0,0.1,0
		C93.6,115.1,94.3,115.3,94.9,115.7z"/>
	<path class="st3" d="M98.1,115.4v4.1c0,1.2,0.4,1.8,1.4,1.8s1.4-0.6,1.4-1.8v-4.1h1.6v4.1c0,0.5-0.1,1-0.2,1.5
		c-0.2,0.4-0.4,0.7-0.7,1c-1.2,1-3,1-4.2,0c-0.3-0.3-0.5-0.6-0.7-1c-0.1-0.5-0.2-1-0.2-1.5v-4.1H98.1z"/>
	<path class="st4" d="M98.1,115.4v4.1c0,1.2,0.4,1.8,1.4,1.8s1.4-0.6,1.4-1.8v-4.1h1.6v4.1c0,0.5-0.1,1-0.2,1.5
		c-0.2,0.4-0.4,0.7-0.7,1c-1.2,1-3,1-4.2,0c-0.3-0.3-0.5-0.6-0.7-1c-0.1-0.5-0.2-1-0.2-1.5v-4.1H98.1z"/>
	<rect x="104.6" y="110.2" class="st3" width="1.6" height="12.3"/>
	<rect x="104.6" y="110.2" class="st4" width="1.6" height="12.3"/>
	<polygon class="st3" points="110.1,116.9 110.1,122.4 108.4,122.4 108.4,116.9 107.7,116.9 107.7,115.3 108.4,115.3 108.4,112.7 
		110.1,112.7 110.1,115.3 111.3,115.3 111.3,116.9 	"/>
	<polygon class="st4" points="110.1,116.9 110.1,122.4 108.4,122.4 108.4,116.9 107.7,116.9 107.7,115.3 108.4,115.3 108.4,112.7 
		110.1,112.7 110.1,115.3 111.3,115.3 111.3,116.9 	"/>
	<polygon class="st3" points="114.7,121.1 111.5,115.4 113.4,115.4 115.6,119.4 117.7,115.4 119.5,115.4 113.8,126.3 112,126.3 	"/>
	<polygon class="st4" points="114.7,121.1 111.5,115.4 113.4,115.4 115.6,119.4 117.7,115.4 119.5,115.4 113.8,126.3 112,126.3 	"/>
	<path class="st3" d="M121.4,120.4l1.4,0.6l-2.1,4.1l-1.1-0.4L121.4,120.4z M121,116.2c0-0.6,0.4-1,1-1c0.3,0,0.5,0.1,0.7,0.3
		c0.2,0.2,0.3,0.4,0.3,0.7c0,0.6-0.4,1-1,1l0,0C121.5,117.1,121,116.7,121,116.2L121,116.2z"/>
	<path class="st4" d="M121.4,120.4l1.4,0.6l-2.1,4.1l-1.1-0.4L121.4,120.4z M121,116.2c0-0.6,0.4-1,1-1c0.3,0,0.5,0.1,0.7,0.3
		c0.2,0.2,0.3,0.4,0.3,0.7c0,0.6-0.4,1-1,1l0,0C121.5,117.1,121,116.7,121,116.2L121,116.2z"/>
	<polygon class="st3" points="43,125.1 43,132.6 45.3,130.3 47.5,130.3 44.4,133.3 47.8,137.4 45.6,137.4 43.3,134.5 43,134.7 
		43,137.4 41.3,137.4 41.3,125.1 	"/>
	<polygon class="st4" points="43,125.1 43,132.6 45.3,130.3 47.5,130.3 44.4,133.3 47.8,137.4 45.6,137.4 43.3,134.5 43,134.7 
		43,137.4 41.3,137.4 41.3,125.1 	"/>
	<path class="st3" d="M55,134.2h-5c0,0.5,0.2,1,0.6,1.4c0.3,0.3,0.8,0.5,1.3,0.5c0.4,0,0.7-0.1,1-0.3c0.4-0.3,0.7-0.7,0.9-1.1
		l1.3,0.8c-0.2,0.4-0.4,0.6-0.6,0.9c-0.2,0.3-0.5,0.5-0.8,0.6c-0.3,0.1-0.6,0.3-0.8,0.4c-0.3,0.1-0.7,0.1-1,0.1c-1,0-1.9-0.3-2.6-1
		c-0.6-0.8-1-1.7-1-2.7c-0.1-1,0.3-2,0.9-2.7c1.4-1.3,3.6-1.3,5,0c0.7,0.8,1,1.8,0.9,2.8L55,134.2z M53.4,132.9
		c-0.1-0.8-0.8-1.3-1.6-1.3c-0.4,0-0.8,0.1-1.1,0.4c-0.1,0.1-0.3,0.3-0.3,0.4c-0.1,0.2-0.2,0.4-0.2,0.6L53.4,132.9z"/>
	<path class="st4" d="M55,134.2h-5c0,0.5,0.2,1,0.6,1.4c0.3,0.3,0.8,0.5,1.3,0.5c0.4,0,0.7-0.1,1-0.3c0.4-0.3,0.7-0.7,0.9-1.1
		l1.3,0.8c-0.2,0.4-0.4,0.6-0.6,0.9c-0.2,0.3-0.5,0.5-0.8,0.6c-0.3,0.1-0.6,0.3-0.8,0.4c-0.3,0.1-0.7,0.1-1,0.1c-1,0-1.9-0.3-2.6-1
		c-0.6-0.8-1-1.7-1-2.7c-0.1-1,0.3-2,0.9-2.7c1.4-1.3,3.6-1.3,5,0c0.7,0.8,1,1.8,0.9,2.8L55,134.2z M53.4,132.9
		c-0.1-0.8-0.8-1.3-1.6-1.3c-0.4,0-0.8,0.1-1.1,0.4c-0.1,0.1-0.3,0.3-0.3,0.4c-0.1,0.2-0.2,0.4-0.2,0.6L53.4,132.9z"/>
	<path class="st3" d="M63.3,134.2h-5.1c0,0.5,0.2,1,0.6,1.4c0.3,0.3,0.8,0.5,1.3,0.5c0.4,0,0.7-0.1,1-0.3c0.4-0.3,0.7-0.7,0.9-1.1
		l1.3,0.8c-0.2,0.3-0.4,0.6-0.6,0.9c-0.2,0.2-0.5,0.5-0.8,0.6c-0.3,0.1-0.6,0.3-0.9,0.4c-0.3,0.1-0.7,0.1-1,0.1c-1,0-1.9-0.3-2.6-1
		c-0.7-0.8-1-1.7-1-2.7c-0.1-1,0.3-2,0.9-2.8c1.4-1.4,3.6-1.4,5,0c0.7,0.8,1,1.8,0.9,2.8L63.3,134.2z M61.6,132.9
		c-0.1-0.8-0.8-1.3-1.6-1.3c-0.2,0-0.4,0-0.6,0.1c-0.2,0.1-0.3,0.2-0.5,0.3c-0.1,0.1-0.3,0.3-0.4,0.4c-0.1,0.2-0.2,0.4-0.2,0.6
		L61.6,132.9z"/>
	<path class="st4" d="M63.3,134.2h-5.1c0,0.5,0.2,1,0.6,1.4c0.3,0.3,0.8,0.5,1.3,0.5c0.4,0,0.7-0.1,1-0.3c0.4-0.3,0.7-0.7,0.9-1.1
		l1.3,0.8c-0.2,0.3-0.4,0.6-0.6,0.9c-0.2,0.2-0.5,0.5-0.8,0.6c-0.3,0.1-0.6,0.3-0.9,0.4c-0.3,0.1-0.7,0.1-1,0.1c-1,0-1.9-0.3-2.6-1
		c-0.7-0.8-1-1.7-1-2.7c-0.1-1,0.3-2,0.9-2.8c1.4-1.4,3.6-1.4,5,0c0.7,0.8,1,1.8,0.9,2.8L63.3,134.2z M61.6,132.9
		c-0.1-0.8-0.8-1.3-1.6-1.3c-0.2,0-0.4,0-0.6,0.1c-0.2,0.1-0.3,0.2-0.5,0.3c-0.1,0.1-0.3,0.3-0.4,0.4c-0.1,0.2-0.2,0.4-0.2,0.6
		L61.6,132.9z"/>
	<path class="st3" d="M66.8,141.3h-1.6v-11h1.6v0.8c0.6-0.6,1.4-1,2.2-1c0.9,0,1.8,0.4,2.4,1.1c0.6,0.8,1,1.7,1,2.7
		c0,1-0.3,1.9-0.9,2.6c-1.1,1.3-3.1,1.4-4.4,0.3l-0.2-0.2L66.8,141.3z M70.7,133.9c0-0.6-0.2-1.2-0.6-1.6c-0.4-0.4-0.9-0.7-1.4-0.6
		c-0.6,0-1.1,0.2-1.5,0.6c-0.4,0.5-0.6,1-0.6,1.6c0,0.6,0.2,1.2,0.6,1.6c0.4,0.4,0.9,0.7,1.5,0.6c0.5,0,1.1-0.2,1.4-0.6
		C70.5,135.1,70.7,134.5,70.7,133.9z"/>
	<path class="st4" d="M66.8,141.3h-1.6v-11h1.6v0.8c0.6-0.6,1.4-1,2.2-1c0.9,0,1.8,0.4,2.4,1.1c0.6,0.8,1,1.7,1,2.7
		c0,1-0.3,1.9-0.9,2.6c-1.1,1.3-3.1,1.4-4.4,0.3l-0.2-0.2L66.8,141.3z M70.7,133.9c0-0.6-0.2-1.2-0.6-1.6c-0.4-0.4-0.9-0.7-1.4-0.6
		c-0.6,0-1.1,0.2-1.5,0.6c-0.4,0.5-0.6,1-0.6,1.6c0,0.6,0.2,1.2,0.6,1.6c0.4,0.4,0.9,0.7,1.5,0.6c0.5,0,1.1-0.2,1.4-0.6
		C70.5,135.1,70.7,134.5,70.7,133.9z"/>
	<path class="st3" d="M84.2,130.6v2.1c-0.3-0.4-0.6-0.7-1-0.9c-0.3-0.2-0.6-0.3-1-0.3c-0.6,0-1.2,0.2-1.6,0.6
		c-0.4,0.4-0.7,1-0.6,1.6c0,0.6,0.2,1.2,0.6,1.6c0.4,0.4,0.9,0.6,1.5,0.6c0.4,0,0.7-0.1,1.1-0.3c0.4-0.3,0.7-0.6,1-1v2.2
		c-0.6,0.3-1.3,0.5-2,0.5c-1,0-2-0.4-2.8-1.1c-1.5-1.4-1.5-3.7-0.2-5.1c0-0.1,0.1-0.1,0.2-0.2c0.7-0.8,1.7-1.2,2.8-1.2
		C82.9,130,83.6,130.3,84.2,130.6z"/>
	<path class="st4" d="M84.2,130.6v2.1c-0.3-0.4-0.6-0.7-1-0.9c-0.3-0.2-0.6-0.3-1-0.3c-0.6,0-1.2,0.2-1.6,0.6
		c-0.4,0.4-0.7,1-0.6,1.6c0,0.6,0.2,1.2,0.6,1.6c0.4,0.4,0.9,0.6,1.5,0.6c0.4,0,0.7-0.1,1.1-0.3c0.4-0.3,0.7-0.6,1-1v2.2
		c-0.6,0.3-1.3,0.5-2,0.5c-1,0-2-0.4-2.8-1.1c-1.5-1.4-1.5-3.7-0.2-5.1c0-0.1,0.1-0.1,0.2-0.2c0.7-0.8,1.7-1.2,2.8-1.2
		C82.9,130,83.6,130.3,84.2,130.6z"/>
	<rect x="85.9" y="125.1" class="st3" width="1.6" height="12.3"/>
	<rect x="85.9" y="125.1" class="st4" width="1.6" height="12.3"/>
	<path class="st3" d="M96.1,134.2h-5.1c0,0.5,0.2,1,0.6,1.4c0.3,0.3,0.8,0.5,1.3,0.5c0.4,0,0.7-0.1,1-0.3c0.4-0.3,0.7-0.7,0.9-1.1
		l1.4,0.8c-0.2,0.3-0.4,0.7-0.7,0.9c-0.2,0.2-0.5,0.5-0.8,0.6c-0.3,0.1-0.6,0.3-0.8,0.4c-0.4,0.1-0.7,0.1-1.1,0.1
		c-1,0-1.9-0.3-2.6-1c-0.6-0.8-1-1.7-1-2.7c-0.1-1,0.3-2,0.9-2.8c1.4-1.3,3.6-1.3,5,0c0.7,0.8,1,1.8,0.9,2.8L96.1,134.2z
		 M94.3,132.9c-0.1-0.8-0.8-1.3-1.6-1.3c-0.2,0-0.4,0-0.6,0.1c-0.2,0.1-0.4,0.2-0.5,0.3c-0.1,0.1-0.3,0.3-0.4,0.4
		c-0.1,0.2-0.2,0.4-0.2,0.6L94.3,132.9z"/>
	<path class="st4" d="M96.1,134.2h-5.1c0,0.5,0.2,1,0.6,1.4c0.3,0.3,0.8,0.5,1.3,0.5c0.4,0,0.7-0.1,1-0.3c0.4-0.3,0.7-0.7,0.9-1.1
		l1.4,0.8c-0.2,0.3-0.4,0.7-0.7,0.9c-0.2,0.2-0.5,0.5-0.8,0.6c-0.3,0.1-0.6,0.3-0.8,0.4c-0.4,0.1-0.7,0.1-1.1,0.1
		c-1,0-1.9-0.3-2.6-1c-0.6-0.8-1-1.7-1-2.7c-0.1-1,0.3-2,0.9-2.8c1.4-1.3,3.6-1.3,5,0c0.7,0.8,1,1.8,0.9,2.8L96.1,134.2z
		 M94.3,132.9c-0.1-0.8-0.8-1.3-1.6-1.3c-0.2,0-0.4,0-0.6,0.1c-0.2,0.1-0.4,0.2-0.5,0.3c-0.1,0.1-0.3,0.3-0.4,0.4
		c-0.1,0.2-0.2,0.4-0.2,0.6L94.3,132.9z"/>
	<path class="st3" d="M103.1,130.3h1.6v7.1h-1.6v-0.7c-1.2,1.3-3.2,1.3-4.5,0.1c0,0,0,0,0,0c-0.1-0.1-0.1-0.1-0.1-0.2
		c-0.6-0.7-1-1.7-0.9-2.7c0-1,0.3-1.9,0.9-2.7c0.6-0.7,1.5-1.1,2.4-1.1c0.8,0,1.7,0.4,2.2,1V130.3z M99.2,133.9
		c0,0.6,0.2,1.2,0.6,1.6c0.4,0.4,0.9,0.7,1.4,0.6c0.6,0,1.1-0.2,1.5-0.6c0.8-1,0.8-2.3,0-3.3c-0.4-0.4-0.9-0.7-1.5-0.6
		c-0.5,0-1.1,0.2-1.4,0.6C99.3,132.7,99.1,133.3,99.2,133.9z"/>
	<path class="st4" d="M103.1,130.3h1.6v7.1h-1.6v-0.7c-1.2,1.3-3.2,1.3-4.5,0.1c0,0,0,0,0,0c-0.1-0.1-0.1-0.1-0.1-0.2
		c-0.6-0.7-1-1.7-0.9-2.7c0-1,0.3-1.9,0.9-2.7c0.6-0.7,1.5-1.1,2.4-1.1c0.8,0,1.7,0.4,2.2,1V130.3z M99.2,133.9
		c0,0.6,0.2,1.2,0.6,1.6c0.4,0.4,0.9,0.7,1.4,0.6c0.6,0,1.1-0.2,1.5-0.6c0.8-1,0.8-2.3,0-3.3c-0.4-0.4-0.9-0.7-1.5-0.6
		c-0.5,0-1.1,0.2-1.4,0.6C99.3,132.7,99.1,133.3,99.2,133.9z"/>
	<path class="st3" d="M106.8,130.3h1.6v0.7c0.2-0.3,0.5-0.5,0.8-0.6c0.3-0.2,0.6-0.2,0.8-0.1c0.5,0,1,0.1,1.3,0.4l-0.7,1.5
		c-0.3-0.2-0.6-0.3-0.9-0.4c-0.9,0-1.4,0.7-1.4,2v3.7h-1.6V130.3z"/>
	<path class="st4" d="M106.8,130.3h1.6v0.7c0.2-0.3,0.5-0.5,0.8-0.6c0.3-0.2,0.6-0.2,0.8-0.1c0.5,0,1,0.1,1.3,0.4l-0.7,1.5
		c-0.3-0.2-0.6-0.3-0.9-0.4c-0.9,0-1.4,0.7-1.4,2v3.7h-1.6V130.3z"/>
</g>
</svg>
