<?xml version="1.0" encoding="utf-8"?>
<!-- Generator: Adobe Illustrator 24.0.1, SVG Export Plug-In . SVG Version: 6.00 Build 0)  -->
<svg version="1.1" id="Layer_1" xmlns="http://www.w3.org/2000/svg" xmlns:xlink="http://www.w3.org/1999/xlink" x="0px" y="0px"
	 viewBox="0 0 147.8 147.8" style="enable-background:new 0 0 147.8 147.8;" xml:space="preserve">
<style type="text/css">
	.st0{fill:#000094;}
	.st1{fill:#FF0000;}
	.st2{fill:none;stroke:#000000;stroke-width:3.75;stroke-linejoin:round;}
	.st3{fill:#FFFFFF;}
	.st4{fill:none;stroke:#000000;stroke-width:0.5;}
</style>
<title>Echo</title>
<rect x="1.9" y="1.9" class="st0" width="144" height="144"/>
<rect x="1.9" y="73.9" class="st1" width="144" height="72"/>
<path class="st2" d="M1.9,1.9h144v144H1.9V1.9z"/>
<rect x="17" y="110.9" class="st3" width="1.7" height="11.2"/>
<rect x="17" y="110.9" class="st4" width="1.7" height="11.2"/>
<path class="st3" d="M30.8,115.1h1.6v7.1h-1.6v-0.8c-1.2,1.2-3.2,1.3-4.4,0.1c0,0,0,0,0,0c-0.1-0.1-0.1-0.1-0.1-0.2
	c-0.6-0.7-1-1.7-0.9-2.7c0-1,0.3-1.9,0.9-2.7c0.6-0.7,1.5-1.1,2.4-1.1c0.8,0,1.6,0.4,2.2,1V115.1z M26.9,118.6
	c0,0.6,0.2,1.2,0.6,1.6c0.4,0.4,0.9,0.6,1.4,0.6c0.6,0,1.1-0.2,1.5-0.6c0.8-0.9,0.8-2.3,0-3.2c-0.4-0.4-0.9-0.6-1.5-0.6
	c-0.5,0-1.1,0.2-1.4,0.6C27.1,117.5,26.9,118,26.9,118.6z"/>
<path class="st4" d="M30.8,115.1h1.6v7.1h-1.6v-0.8c-1.2,1.2-3.2,1.3-4.4,0.1c0,0,0,0,0,0c-0.1-0.1-0.1-0.1-0.1-0.2
	c-0.6-0.7-1-1.7-0.9-2.7c0-1,0.3-1.9,0.9-2.7c0.6-0.7,1.5-1.1,2.4-1.1c0.8,0,1.6,0.4,2.2,1V115.1z M26.9,118.6
	c0,0.6,0.2,1.2,0.6,1.6c0.4,0.4,0.9,0.6,1.4,0.6c0.6,0,1.1-0.2,1.5-0.6c0.8-0.9,0.8-2.3,0-3.2c-0.4-0.4-0.9-0.6-1.5-0.6
	c-0.5,0-1.1,0.2-1.4,0.6C27.1,117.5,26.9,118,26.9,118.6z"/>
<path class="st3" d="M34.5,115.1h1.6v0.6c0.2-0.3,0.5-0.5,0.8-0.7c0.3-0.2,0.6-0.2,0.9-0.1c0.8,0,1.5,0.4,1.9,1c0.5-0.7,1.3-1,2.1-1
	c1.6,0,2.4,1,2.4,2.9v4.4h-1.6v-4c0-0.5-0.1-1-0.3-1.4c-0.2-0.3-0.5-0.4-0.8-0.4c-0.4,0-0.8,0.2-1,0.5c-0.2,0.5-0.3,1.1-0.3,1.6v3.6
	h-1.6v-3.8c0-1.3-0.3-1.9-1.1-1.9c-0.4,0-0.8,0.2-1,0.5c-0.2,0.5-0.3,1.1-0.3,1.6v3.7h-1.7V115.1z"/>
<path class="st4" d="M34.5,115.1h1.6v0.6c0.2-0.3,0.5-0.5,0.8-0.7c0.3-0.2,0.6-0.2,0.9-0.1c0.8,0,1.5,0.4,1.9,1c0.5-0.7,1.3-1,2.1-1
	c1.6,0,2.4,1,2.4,2.9v4.4h-1.6v-4c0-0.5-0.1-1-0.3-1.4c-0.2-0.3-0.5-0.4-0.8-0.4c-0.4,0-0.8,0.2-1,0.5c-0.2,0.5-0.3,1.1-0.3,1.6v3.6
	h-1.6v-3.8c0-1.3-0.3-1.9-1.1-1.9c-0.4,0-0.8,0.2-1,0.5c-0.2,0.5-0.3,1.1-0.3,1.6v3.7h-1.7V115.1z"/>
<path class="st3" d="M56,109.9h1.6v12.2H56v-0.8c-0.6,0.6-1.4,0.9-2.2,0.9c-0.9,0-1.8-0.3-2.4-1c-0.6-0.8-1-1.7-1-2.7
	c0-1,0.3-1.9,1-2.6c1.1-1.3,3-1.4,4.2-0.3c0,0,0,0,0.1,0.1c0.1,0.1,0.2,0.1,0.3,0.3L56,109.9z M52.1,118.6c0,0.6,0.2,1.2,0.6,1.6
	c0.3,0.4,0.9,0.6,1.4,0.6c0.6,0,1.1-0.2,1.5-0.6c0.8-0.9,0.8-2.3,0-3.2c-0.4-0.4-0.9-0.6-1.5-0.6c-0.5,0-1.1,0.2-1.4,0.6
	C52.3,117.4,52.1,118,52.1,118.6L52.1,118.6z"/>
<path class="st4" d="M56,109.9h1.6v12.2H56v-0.8c-0.6,0.6-1.4,0.9-2.2,0.9c-0.9,0-1.8-0.3-2.4-1c-0.6-0.8-1-1.7-1-2.7
	c0-1,0.3-1.9,1-2.6c1.1-1.3,3-1.4,4.2-0.3c0,0,0,0,0.1,0.1c0.1,0.1,0.2,0.1,0.3,0.3L56,109.9z M52.1,118.6c0,0.6,0.2,1.2,0.6,1.6
	c0.3,0.4,0.9,0.6,1.4,0.6c0.6,0,1.1-0.2,1.5-0.6c0.8-0.9,0.8-2.3,0-3.2c-0.4-0.4-0.9-0.6-1.5-0.6c-0.5,0-1.1,0.2-1.4,0.6
	C52.3,117.4,52.1,118,52.1,118.6L52.1,118.6z"/>
<path class="st3" d="M59.4,112.1c0-0.6,0.5-1,1.1-1.1c0.3,0,0.6,0.1,0.8,0.3c0.2,0.2,0.3,0.5,0.3,0.8c0,0.3-0.1,0.6-0.3,0.8
	c-0.2,0.2-0.5,0.3-0.8,0.3c-0.6,0-1-0.4-1.1-0.9C59.4,112.2,59.4,112.2,59.4,112.1z M61.3,115.1v7.1h-1.6v-7.1L61.3,115.1z"/>
<path class="st4" d="M59.4,112.1c0-0.6,0.5-1,1.1-1.1c0.3,0,0.6,0.1,0.8,0.3c0.2,0.2,0.3,0.5,0.3,0.8c0,0.3-0.1,0.6-0.3,0.8
	c-0.2,0.2-0.5,0.3-0.8,0.3c-0.6,0-1-0.4-1.1-0.9C59.4,112.2,59.4,112.2,59.4,112.1z M61.3,115.1v7.1h-1.6v-7.1L61.3,115.1z"/>
<path class="st3" d="M63.3,115.1H65v0.6c0.2-0.3,0.5-0.5,0.8-0.6c0.3-0.1,0.6-0.2,0.8-0.1c0.5,0,0.9,0.1,1.3,0.4l-0.8,1.5
	c-0.3-0.2-0.6-0.3-0.9-0.3c-0.9,0-1.3,0.7-1.3,2v3.7h-1.7L63.3,115.1L63.3,115.1z"/>
<path class="st4" d="M63.3,115.1H65v0.6c0.2-0.3,0.5-0.5,0.8-0.6c0.3-0.1,0.6-0.2,0.8-0.1c0.5,0,0.9,0.1,1.3,0.4l-0.8,1.5
	c-0.3-0.2-0.6-0.3-0.9-0.3c-0.9,0-1.3,0.7-1.3,2v3.7h-1.7L63.3,115.1L63.3,115.1z"/>
<path class="st3" d="M75.2,119.1h-5.1c0,0.5,0.2,1,0.6,1.4c0.3,0.3,0.8,0.5,1.3,0.5c0.4,0,0.7-0.1,1-0.3c0.4-0.3,0.7-0.7,0.9-1.1
	l1.4,0.8c-0.2,0.3-0.4,0.6-0.7,0.9c-0.2,0.3-0.5,0.5-0.8,0.6c-0.3,0.1-0.6,0.3-0.8,0.4c-0.3,0.1-0.7,0.1-1,0.1c-0.9,0-1.9-0.3-2.5-1
	c-0.6-0.7-1-1.7-1-2.7c-0.1-1,0.3-1.9,0.9-2.7c1.4-1.3,3.6-1.3,4.9,0c0.6,0.8,1,1.7,0.9,2.8L75.2,119.1z M73.6,117.7
	c-0.1-0.8-0.8-1.3-1.6-1.3c-0.4,0-0.7,0.1-1.1,0.3c-0.1,0.1-0.3,0.3-0.3,0.4c-0.1,0.2-0.2,0.4-0.2,0.6L73.6,117.7L73.6,117.7z"/>
<path class="st4" d="M75.2,119.1h-5.1c0,0.5,0.2,1,0.6,1.4c0.3,0.3,0.8,0.5,1.3,0.5c0.4,0,0.7-0.1,1-0.3c0.4-0.3,0.7-0.7,0.9-1.1
	l1.4,0.8c-0.2,0.3-0.4,0.6-0.7,0.9c-0.2,0.3-0.5,0.5-0.8,0.6c-0.3,0.1-0.6,0.3-0.8,0.4c-0.3,0.1-0.7,0.1-1,0.1c-0.9,0-1.9-0.3-2.5-1
	c-0.6-0.7-1-1.7-1-2.7c-0.1-1,0.3-1.9,0.9-2.7c1.4-1.3,3.6-1.3,4.9,0c0.6,0.8,1,1.7,0.9,2.8L75.2,119.1z M73.6,117.7
	c-0.1-0.8-0.8-1.3-1.6-1.3c-0.4,0-0.7,0.1-1.1,0.3c-0.1,0.1-0.3,0.3-0.3,0.4c-0.1,0.2-0.2,0.4-0.2,0.6L73.6,117.7L73.6,117.7z"/>
<path class="st3" d="M82.4,115.4v2.2c-0.3-0.4-0.6-0.7-1-0.9c-0.3-0.2-0.6-0.3-1-0.3c-0.6,0-1.1,0.2-1.6,0.6c-0.4,0.4-0.7,1-0.6,1.6
	c0,0.6,0.2,1.2,0.6,1.6c0.4,0.4,0.9,0.6,1.5,0.6c0.4,0,0.7-0.1,1.1-0.3c0.4-0.3,0.8-0.6,1.1-1v2.1c-0.6,0.3-1.3,0.5-2,0.5
	c-1,0-2-0.3-2.8-1c-0.7-0.7-1.1-1.6-1.1-2.6c0-1,0.4-2,1.1-2.7c0.8-0.7,1.7-1.1,2.8-1.1C81.1,114.9,81.8,115,82.4,115.4z"/>
<path class="st4" d="M82.4,115.4v2.2c-0.3-0.4-0.6-0.7-1-0.9c-0.3-0.2-0.6-0.3-1-0.3c-0.6,0-1.1,0.2-1.6,0.6c-0.4,0.4-0.7,1-0.6,1.6
	c0,0.6,0.2,1.2,0.6,1.6c0.4,0.4,0.9,0.6,1.5,0.6c0.4,0,0.7-0.1,1.1-0.3c0.4-0.3,0.8-0.6,1.1-1v2.1c-0.6,0.3-1.3,0.5-2,0.5
	c-1,0-2-0.3-2.8-1c-0.7-0.7-1.1-1.6-1.1-2.6c0-1,0.4-2,1.1-2.7c0.8-0.7,1.7-1.1,2.8-1.1C81.1,114.9,81.8,115,82.4,115.4z"/>
<polygon class="st3" points="85.7,116.6 85.7,122.1 84,122.1 84,116.6 83.3,116.6 83.3,115 84,115 84,112.4 85.6,112.4 85.6,115 
	86.9,115 86.9,116.6 "/>
<polygon class="st4" points="85.7,116.6 85.7,122.1 84,122.1 84,116.6 83.3,116.6 83.3,115 84,115 84,112.4 85.6,112.4 85.6,115 
	86.9,115 86.9,116.6 "/>
<path class="st3" d="M87.9,112.1c0-0.6,0.5-1,1.1-1.1c0.3,0,0.6,0.1,0.8,0.3c0.2,0.2,0.3,0.5,0.3,0.8c0,0.3-0.1,0.6-0.3,0.8
	c-0.2,0.2-0.5,0.3-0.8,0.3c-0.6,0-1-0.4-1.1-0.9C87.9,112.2,87.9,112.2,87.9,112.1z M89.7,115.1v7.1h-1.6v-7.1L89.7,115.1z"/>
<path class="st4" d="M87.9,112.1c0-0.6,0.5-1,1.1-1.1c0.3,0,0.6,0.1,0.8,0.3c0.2,0.2,0.3,0.5,0.3,0.8c0,0.3-0.1,0.6-0.3,0.8
	c-0.2,0.2-0.5,0.3-0.8,0.3c-0.6,0-1-0.4-1.1-0.9C87.9,112.2,87.9,112.2,87.9,112.1z M89.7,115.1v7.1h-1.6v-7.1L89.7,115.1z"/>
<path class="st3" d="M91.8,115.1h1.6v0.6c0.5-0.5,1.2-0.8,1.9-0.8c0.7-0.1,1.4,0.2,1.9,0.8c0.4,0.6,0.6,1.4,0.6,2.1v4.4h-1.6v-4
	c0.1-0.5,0-1-0.3-1.4c-0.3-0.3-0.7-0.4-1.1-0.4c-0.5-0.1-0.9,0.2-1.1,0.6c-0.3,0.6-0.4,1.2-0.3,1.8v3.4h-1.6L91.8,115.1L91.8,115.1z
	"/>
<path class="st4" d="M91.8,115.1h1.6v0.6c0.5-0.5,1.2-0.8,1.9-0.8c0.7-0.1,1.4,0.2,1.9,0.8c0.4,0.6,0.6,1.4,0.6,2.1v4.4h-1.6v-4
	c0.1-0.5,0-1-0.3-1.4c-0.3-0.3-0.7-0.4-1.1-0.4c-0.5-0.1-0.9,0.2-1.1,0.6c-0.3,0.6-0.4,1.2-0.3,1.8v3.4h-1.6L91.8,115.1L91.8,115.1z
	"/>
<path class="st3" d="M106.7,121.9v0.8c0,0.2-0.1,0.5-0.1,0.7c-0.1,0.5-0.4,1-0.7,1.3c-0.7,0.7-1.6,1.2-2.6,1.1
	c-0.8,0-1.7-0.2-2.3-0.8c-0.6-0.6-1-1.4-1-2.2h1.6c0,0.3,0.2,0.6,0.4,0.8c0.4,0.4,0.9,0.7,1.5,0.6c1.2,0,1.8-0.7,1.8-2.2v-1
	c-1.1,1.2-3,1.4-4.2,0.3c0,0-0.1-0.1-0.1-0.1l-0.2-0.2c-0.6-0.8-0.9-1.7-0.9-2.7c0-0.9,0.3-1.9,0.8-2.6c1.1-1.3,3-1.5,4.3-0.4
	c0.1,0.1,0.2,0.2,0.3,0.3V115h1.6L106.7,121.9z M105.2,118.6c0-0.6-0.2-1.2-0.6-1.6c-0.7-0.8-1.9-0.8-2.7-0.1
	c-0.1,0.1-0.1,0.1-0.2,0.2c-0.3,0.5-0.5,1-0.5,1.6c0,0.6,0.2,1.1,0.5,1.6c0.4,0.5,0.9,0.7,1.5,0.7c0.6,0,1.1-0.3,1.5-0.7
	C105,119.8,105.2,119.2,105.2,118.6z"/>
<path class="st4" d="M106.7,121.9v0.8c0,0.2-0.1,0.5-0.1,0.7c-0.1,0.5-0.4,1-0.7,1.3c-0.7,0.7-1.6,1.2-2.6,1.1
	c-0.8,0-1.7-0.2-2.3-0.8c-0.6-0.6-1-1.4-1-2.2h1.6c0,0.3,0.2,0.6,0.4,0.8c0.4,0.4,0.9,0.7,1.5,0.6c1.2,0,1.8-0.7,1.8-2.2v-1
	c-1.1,1.2-3,1.4-4.2,0.3c0,0-0.1-0.1-0.1-0.1l-0.2-0.2c-0.6-0.8-0.9-1.7-0.9-2.7c0-0.9,0.3-1.9,0.8-2.6c1.1-1.3,3-1.5,4.3-0.4
	c0.1,0.1,0.2,0.2,0.3,0.3V115h1.6L106.7,121.9z M105.2,118.6c0-0.6-0.2-1.2-0.6-1.6c-0.7-0.8-1.9-0.8-2.7-0.1
	c-0.1,0.1-0.1,0.1-0.2,0.2c-0.3,0.5-0.5,1-0.5,1.6c0,0.6,0.2,1.1,0.5,1.6c0.4,0.5,0.9,0.7,1.5,0.7c0.6,0,1.1-0.3,1.5-0.7
	C105,119.8,105.2,119.2,105.2,118.6z"/>
<path class="st3" d="M113.4,115.1h1.6v0.6c0.2-0.3,0.5-0.5,0.8-0.7c0.3-0.2,0.6-0.2,0.9-0.1c0.8,0,1.5,0.4,1.9,1c0.5-0.6,1.2-1,2-1
	c1.6,0,2.4,1,2.4,2.9v4.4h-1.6v-4c0-0.5-0.1-1-0.3-1.4c-0.2-0.3-0.5-0.4-0.8-0.4c-0.4,0-0.8,0.2-1,0.5c-0.2,0.5-0.3,1.1-0.3,1.6v3.6
	h-1.6v-3.8c0-1.3-0.3-1.9-1.1-1.9c-0.4,0-0.8,0.2-1,0.5c-0.2,0.5-0.3,1.1-0.3,1.6v3.7h-1.6L113.4,115.1L113.4,115.1z"/>
<path class="st4" d="M113.4,115.1h1.6v0.6c0.2-0.3,0.5-0.5,0.8-0.7c0.3-0.2,0.6-0.2,0.9-0.1c0.8,0,1.5,0.4,1.9,1c0.5-0.6,1.2-1,2-1
	c1.6,0,2.4,1,2.4,2.9v4.4h-1.6v-4c0-0.5-0.1-1-0.3-1.4c-0.2-0.3-0.5-0.4-0.8-0.4c-0.4,0-0.8,0.2-1,0.5c-0.2,0.5-0.3,1.1-0.3,1.6v3.6
	h-1.6v-3.8c0-1.3-0.3-1.9-1.1-1.9c-0.4,0-0.8,0.2-1,0.5c-0.2,0.5-0.3,1.1-0.3,1.6v3.7h-1.6L113.4,115.1L113.4,115.1z"/>
<polygon class="st3" points="127.1,120.8 123.9,115.1 125.8,115.1 127.9,119.1 129.9,115.1 131.7,115.1 126.1,126 124.2,126 "/>
<polygon class="st4" points="127.1,120.8 123.9,115.1 125.8,115.1 127.9,119.1 129.9,115.1 131.7,115.1 126.1,126 124.2,126 "/>
<path class="st3" d="M12,131.5v2.2c-0.3-0.4-0.6-0.7-1-0.9c-0.3-0.2-0.6-0.3-1-0.3c-0.6,0-1.1,0.2-1.6,0.6c-0.4,0.4-0.7,1-0.6,1.6
	c0,0.6,0.2,1.2,0.6,1.6c0.4,0.4,0.9,0.6,1.5,0.6c0.4,0,0.7-0.1,1.1-0.3c0.4-0.3,0.7-0.6,1-1v2.1c-0.6,0.3-1.3,0.5-2,0.5
	c-1,0-2-0.4-2.8-1.1c-0.7-0.7-1.1-1.6-1.1-2.6c0-1,0.4-2,1.2-2.6c0.7-0.7,1.7-1.1,2.7-1.1C10.7,131,11.4,131.2,12,131.5z"/>
<path class="st4" d="M12,131.5v2.2c-0.3-0.4-0.6-0.7-1-0.9c-0.3-0.2-0.6-0.3-1-0.3c-0.6,0-1.1,0.2-1.6,0.6c-0.4,0.4-0.7,1-0.6,1.6
	c0,0.6,0.2,1.2,0.6,1.6c0.4,0.4,0.9,0.6,1.5,0.6c0.4,0,0.7-0.1,1.1-0.3c0.4-0.3,0.7-0.6,1-1v2.1c-0.6,0.3-1.3,0.5-2,0.5
	c-1,0-2-0.4-2.8-1.1c-0.7-0.7-1.1-1.6-1.1-2.6c0-1,0.4-2,1.2-2.6c0.7-0.7,1.7-1.1,2.7-1.1C10.7,131,11.4,131.2,12,131.5z"/>
<path class="st3" d="M13.3,134.6c0-1,0.4-2,1.1-2.6c1.5-1.4,3.9-1.4,5.4,0c1.5,1.4,1.5,3.8,0,5.3c0,0,0,0,0,0
	c-1.5,1.4-3.9,1.4-5.4,0C13.7,136.6,13.3,135.7,13.3,134.6z M15,134.6c0,0.6,0.2,1.2,0.6,1.7c0.4,0.4,1,0.6,1.6,0.6
	c0.6,0,1.1-0.2,1.5-0.6c0.8-1,0.8-2.4,0-3.3c-0.4-0.4-1-0.6-1.5-0.6c-0.6,0-1.1,0.2-1.5,0.6C15.2,133.4,14.9,134,15,134.6z"/>
<path class="st4" d="M13.3,134.6c0-1,0.4-2,1.1-2.6c1.5-1.4,3.9-1.4,5.4,0c1.5,1.4,1.5,3.8,0,5.3c0,0,0,0,0,0
	c-1.5,1.4-3.9,1.4-5.4,0C13.7,136.6,13.3,135.7,13.3,134.6z M15,134.6c0,0.6,0.2,1.2,0.6,1.7c0.4,0.4,1,0.6,1.6,0.6
	c0.6,0,1.1-0.2,1.5-0.6c0.8-1,0.8-2.4,0-3.3c-0.4-0.4-1-0.6-1.5-0.6c-0.6,0-1.1,0.2-1.5,0.6C15.2,133.4,14.9,134,15,134.6z"/>
<path class="st3" d="M24.2,131.2v4c0,1.2,0.5,1.8,1.4,1.8s1.4-0.6,1.4-1.8v-4h1.6v4.1c0,0.5-0.1,1-0.2,1.5c-0.2,0.4-0.4,0.7-0.7,1
	c-1.2,1-3,1-4.2,0c-0.3-0.3-0.5-0.6-0.7-1c-0.1-0.5-0.2-1-0.2-1.5v-4.1H24.2z"/>
<path class="st4" d="M24.2,131.2v4c0,1.2,0.5,1.8,1.4,1.8s1.4-0.6,1.4-1.8v-4h1.6v4.1c0,0.5-0.1,1-0.2,1.5c-0.2,0.4-0.4,0.7-0.7,1
	c-1.2,1-3,1-4.2,0c-0.3-0.3-0.5-0.6-0.7-1c-0.1-0.5-0.2-1-0.2-1.5v-4.1H24.2z"/>
<path class="st3" d="M30.6,131.2h1.6v0.6c0.2-0.3,0.5-0.5,0.8-0.6c0.3-0.1,0.6-0.2,0.8-0.1c0.5,0,0.9,0.1,1.3,0.4l-0.8,1.5
	c-0.3-0.2-0.6-0.3-0.9-0.4c-0.8,0-1.3,0.7-1.3,2v3.7h-1.6L30.6,131.2z"/>
<path class="st4" d="M30.6,131.2h1.6v0.6c0.2-0.3,0.5-0.5,0.8-0.6c0.3-0.1,0.6-0.2,0.8-0.1c0.5,0,0.9,0.1,1.3,0.4l-0.8,1.5
	c-0.3-0.2-0.6-0.3-0.9-0.4c-0.8,0-1.3,0.7-1.3,2v3.7h-1.6L30.6,131.2z"/>
<path class="st3" d="M40.3,132.4l-1.3,0.7c-0.2-0.4-0.5-0.6-0.8-0.6c-0.1,0-0.3,0.1-0.4,0.1c-0.1,0.1-0.1,0.2-0.1,0.4
	s0.3,0.6,0.9,0.8c0.7,0.2,1.3,0.6,1.8,1.1c0.3,0.3,0.5,0.8,0.4,1.3c0,0.7-0.3,1.3-0.8,1.7c-1.1,1-2.8,0.9-3.8-0.3c0,0,0,0,0,0
	c-0.2-0.2-0.4-0.5-0.5-0.8l1.4-0.6l0.4,0.6c0.2,0.2,0.4,0.3,0.7,0.3c0.6,0,0.8-0.3,0.8-0.8c0-0.3-0.2-0.6-0.6-0.9l-0.5-0.2l-0.5-0.2
	c-0.4-0.2-0.7-0.4-1-0.7c-0.3-0.3-0.4-0.7-0.3-1.1c0-0.6,0.2-1.1,0.6-1.6c0.4-0.4,1-0.6,1.5-0.6C39.2,131,40,131.5,40.3,132.4z"/>
<path class="st4" d="M40.3,132.4l-1.3,0.7c-0.2-0.4-0.5-0.6-0.8-0.6c-0.1,0-0.3,0.1-0.4,0.1c-0.1,0.1-0.1,0.2-0.1,0.4
	s0.3,0.6,0.9,0.8c0.7,0.2,1.3,0.6,1.8,1.1c0.3,0.3,0.5,0.8,0.4,1.3c0,0.7-0.3,1.3-0.8,1.7c-1.1,1-2.8,0.9-3.8-0.3c0,0,0,0,0,0
	c-0.2-0.2-0.4-0.5-0.5-0.8l1.4-0.6l0.4,0.6c0.2,0.2,0.4,0.3,0.7,0.3c0.6,0,0.8-0.3,0.8-0.8c0-0.3-0.2-0.6-0.6-0.9l-0.5-0.2l-0.5-0.2
	c-0.4-0.2-0.7-0.4-1-0.7c-0.3-0.3-0.4-0.7-0.3-1.1c0-0.6,0.2-1.1,0.6-1.6c0.4-0.4,1-0.6,1.5-0.6C39.2,131,40,131.5,40.3,132.4z"/>
<path class="st3" d="M48.6,135.1h-5.1c0,0.5,0.2,1,0.6,1.4c0.3,0.3,0.8,0.5,1.3,0.5c0.4,0,0.7-0.1,1-0.3c0.4-0.3,0.7-0.7,0.9-1.1
	l1.3,0.8c-0.2,0.3-0.4,0.6-0.7,0.9c-0.2,0.3-0.5,0.5-0.8,0.6c-0.3,0.1-0.6,0.3-0.8,0.4c-0.3,0.1-0.7,0.1-1,0.1c-0.9,0-1.9-0.3-2.5-1
	c-0.6-0.7-1-1.7-1-2.7c-0.1-1,0.3-1.9,0.9-2.7c1.4-1.3,3.6-1.3,4.9,0c0.6,0.8,0.9,1.7,0.8,2.7v0.3L48.6,135.1z M46.9,133.7
	c-0.3-0.9-1.2-1.5-2.2-1.2c0,0,0,0,0,0c-0.2,0.1-0.3,0.2-0.5,0.3c-0.1,0.1-0.3,0.3-0.4,0.4c-0.1,0.2-0.2,0.4-0.2,0.6L46.9,133.7z"/>
<path class="st4" d="M48.6,135.1h-5.1c0,0.5,0.2,1,0.6,1.4c0.3,0.3,0.8,0.5,1.3,0.5c0.4,0,0.7-0.1,1-0.3c0.4-0.3,0.7-0.7,0.9-1.1
	l1.3,0.8c-0.2,0.3-0.4,0.6-0.7,0.9c-0.2,0.3-0.5,0.5-0.8,0.6c-0.3,0.1-0.6,0.3-0.8,0.4c-0.3,0.1-0.7,0.1-1,0.1c-0.9,0-1.9-0.3-2.5-1
	c-0.6-0.7-1-1.7-1-2.7c-0.1-1,0.3-1.9,0.9-2.7c1.4-1.3,3.6-1.3,4.9,0c0.6,0.8,0.9,1.7,0.8,2.7v0.3L48.6,135.1z M46.9,133.7
	c-0.3-0.9-1.2-1.5-2.2-1.2c0,0,0,0,0,0c-0.2,0.1-0.3,0.2-0.5,0.3c-0.1,0.1-0.3,0.3-0.4,0.4c-0.1,0.2-0.2,0.4-0.2,0.6L46.9,133.7z"/>
<polygon class="st3" points="56.6,132.7 56.6,138.2 55,138.2 55,132.7 54.3,132.7 54.3,131.2 55,131.2 55,128.6 56.6,128.6 
	56.6,131.2 57.9,131.2 57.9,132.7 "/>
<polygon class="st4" points="56.6,132.7 56.6,138.2 55,138.2 55,132.7 54.3,132.7 54.3,131.2 55,131.2 55,128.6 56.6,128.6 
	56.6,131.2 57.9,131.2 57.9,132.7 "/>
<path class="st3" d="M58.8,134.6c0-1,0.4-2,1.1-2.6c1.5-1.4,3.9-1.4,5.4,0c1.5,1.4,1.5,3.8,0,5.3c0,0,0,0,0,0
	c-1.5,1.4-3.9,1.4-5.4,0C59.2,136.6,58.8,135.6,58.8,134.6z M60.5,134.6c0,0.6,0.2,1.2,0.6,1.7c0.8,0.8,2.2,0.8,3,0
	c0.8-1,0.8-2.3,0-3.3c-0.4-0.4-1-0.6-1.6-0.6c-0.5,0-1.1,0.2-1.5,0.6C60.6,133.4,60.4,134,60.5,134.6L60.5,134.6z"/>
<path class="st4" d="M58.8,134.6c0-1,0.4-2,1.1-2.6c1.5-1.4,3.9-1.4,5.4,0c1.5,1.4,1.5,3.8,0,5.3c0,0,0,0,0,0
	c-1.5,1.4-3.9,1.4-5.4,0C59.2,136.6,58.8,135.6,58.8,134.6z M60.5,134.6c0,0.6,0.2,1.2,0.6,1.7c0.8,0.8,2.2,0.8,3,0
	c0.8-1,0.8-2.3,0-3.3c-0.4-0.4-1-0.6-1.6-0.6c-0.5,0-1.1,0.2-1.5,0.6C60.6,133.4,60.4,134,60.5,134.6L60.5,134.6z"/>
<path class="st3" d="M76.7,132.4l-1.3,0.7c-0.1-0.3-0.4-0.6-0.8-0.6c-0.1,0-0.3,0.1-0.3,0.1c-0.1,0.1-0.1,0.2-0.1,0.4
	s0.3,0.6,0.9,0.8c0.7,0.2,1.3,0.6,1.8,1.1c0.3,0.3,0.5,0.8,0.4,1.3c0,0.6-0.3,1.3-0.8,1.7c-1.1,1-2.8,0.9-3.8-0.3c0,0,0,0,0,0
	c-0.2-0.2-0.4-0.5-0.5-0.8l1.4-0.6l0.4,0.6c0.2,0.2,0.4,0.3,0.7,0.3c0.6,0,0.8-0.3,0.8-0.8c0-0.3-0.2-0.6-0.6-0.9l-0.5-0.2l-0.5-0.2
	c-0.4-0.2-0.7-0.4-1-0.7c-0.3-0.3-0.4-0.7-0.3-1.1c0-0.6,0.2-1.1,0.6-1.6c0.4-0.4,1-0.6,1.6-0.5C75.6,131,76.4,131.6,76.7,132.4z"/>
<path class="st4" d="M76.7,132.4l-1.3,0.7c-0.1-0.3-0.4-0.6-0.8-0.6c-0.1,0-0.3,0.1-0.3,0.1c-0.1,0.1-0.1,0.2-0.1,0.4
	s0.3,0.6,0.9,0.8c0.7,0.2,1.3,0.6,1.8,1.1c0.3,0.3,0.5,0.8,0.4,1.3c0,0.6-0.3,1.3-0.8,1.7c-1.1,1-2.8,0.9-3.8-0.3c0,0,0,0,0,0
	c-0.2-0.2-0.4-0.5-0.5-0.8l1.4-0.6l0.4,0.6c0.2,0.2,0.4,0.3,0.7,0.3c0.6,0,0.8-0.3,0.8-0.8c0-0.3-0.2-0.6-0.6-0.9l-0.5-0.2l-0.5-0.2
	c-0.4-0.2-0.7-0.4-1-0.7c-0.3-0.3-0.4-0.7-0.3-1.1c0-0.6,0.2-1.1,0.6-1.6c0.4-0.4,1-0.6,1.6-0.5C75.6,131,76.4,131.6,76.7,132.4z"/>
<polygon class="st3" points="80.3,132.7 80.3,138.2 78.7,138.2 78.7,132.7 77.9,132.7 77.9,131.2 78.7,131.2 78.7,128.6 80.3,128.6 
	80.3,131.2 81.6,131.2 81.6,132.7 "/>
<polygon class="st4" points="80.3,132.7 80.3,138.2 78.7,138.2 78.7,132.7 77.9,132.7 77.9,131.2 78.7,131.2 78.7,128.6 80.3,128.6 
	80.3,131.2 81.6,131.2 81.6,132.7 "/>
<path class="st3" d="M88,131.2h1.6v7.1H88v-0.7c-1.2,1.2-3.2,1.3-4.4,0.1c0,0,0,0,0,0c-0.1-0.1-0.1-0.1-0.1-0.2
	c-0.6-0.8-1-1.8-0.9-2.8c0-1,0.3-1.9,0.9-2.7c0.6-0.7,1.5-1.1,2.4-1.1c0.8,0,1.6,0.4,2.2,1L88,131.2z M84.1,134.7
	c0,0.6,0.2,1.2,0.6,1.6c0.4,0.4,0.9,0.6,1.4,0.6c0.6,0,1.1-0.2,1.5-0.6c0.8-0.9,0.8-2.3,0-3.2c-0.4-0.4-0.9-0.6-1.4-0.6
	c-0.5,0-1.1,0.2-1.4,0.6C84.3,133.5,84.1,134.1,84.1,134.7z"/>
<path class="st4" d="M88,131.2h1.6v7.1H88v-0.7c-1.2,1.2-3.2,1.3-4.4,0.1c0,0,0,0,0,0c-0.1-0.1-0.1-0.1-0.1-0.2
	c-0.6-0.8-1-1.8-0.9-2.8c0-1,0.3-1.9,0.9-2.7c0.6-0.7,1.5-1.1,2.4-1.1c0.8,0,1.6,0.4,2.2,1L88,131.2z M84.1,134.7
	c0,0.6,0.2,1.2,0.6,1.6c0.4,0.4,0.9,0.6,1.4,0.6c0.6,0,1.1-0.2,1.5-0.6c0.8-0.9,0.8-2.3,0-3.2c-0.4-0.4-0.9-0.6-1.4-0.6
	c-0.5,0-1.1,0.2-1.4,0.6C84.3,133.5,84.1,134.1,84.1,134.7z"/>
<path class="st3" d="M91.6,131.2h1.6v0.6c0.2-0.3,0.5-0.5,0.8-0.6c0.3-0.1,0.6-0.2,0.8-0.1c0.5,0,0.9,0.1,1.3,0.4l-0.7,1.5
	c-0.3-0.2-0.6-0.3-0.9-0.4c-0.9,0-1.3,0.7-1.3,2v3.7h-1.6V131.2L91.6,131.2z"/>
<path class="st4" d="M91.6,131.2h1.6v0.6c0.2-0.3,0.5-0.5,0.8-0.6c0.3-0.1,0.6-0.2,0.8-0.1c0.5,0,0.9,0.1,1.3,0.4l-0.7,1.5
	c-0.3-0.2-0.6-0.3-0.9-0.4c-0.9,0-1.3,0.7-1.3,2v3.7h-1.6V131.2L91.6,131.2z"/>
<path class="st3" d="M98.8,126v6c0.6-0.6,1.3-1,2.2-1c0.9,0,1.8,0.4,2.4,1.1c0.6,0.7,1,1.7,0.9,2.6c0.1,1-0.3,2-1,2.7
	c-1.1,1.3-3.1,1.4-4.4,0.3c-0.1-0.1-0.1-0.1-0.2-0.1v0.7h-1.6V126H98.8z M102.7,134.8c0-0.6-0.2-1.2-0.6-1.6
	c-0.4-0.4-0.9-0.6-1.4-0.6c-0.6,0-1.1,0.2-1.5,0.6c-0.4,0.5-0.6,1-0.6,1.6c0,0.6,0.2,1.2,0.6,1.6c0.4,0.4,0.9,0.6,1.4,0.6
	c0.5,0,1.1-0.2,1.4-0.6C102.5,135.9,102.7,135.3,102.7,134.8L102.7,134.8z"/>
<path class="st4" d="M98.8,126v6c0.6-0.6,1.3-1,2.2-1c0.9,0,1.8,0.4,2.4,1.1c0.6,0.7,1,1.7,0.9,2.6c0.1,1-0.3,2-1,2.7
	c-1.1,1.3-3.1,1.4-4.4,0.3c-0.1-0.1-0.1-0.1-0.2-0.1v0.7h-1.6V126H98.8z M102.7,134.8c0-0.6-0.2-1.2-0.6-1.6
	c-0.4-0.4-0.9-0.6-1.4-0.6c-0.6,0-1.1,0.2-1.5,0.6c-0.4,0.5-0.6,1-0.6,1.6c0,0.6,0.2,1.2,0.6,1.6c0.4,0.4,0.9,0.6,1.4,0.6
	c0.5,0,1.1-0.2,1.4-0.6C102.5,135.9,102.7,135.3,102.7,134.8L102.7,134.8z"/>
<path class="st3" d="M105.8,134.6c0-1,0.4-1.9,1.1-2.6c1.5-1.4,3.9-1.4,5.4,0c1.5,1.4,1.5,3.8,0,5.3c0,0,0,0,0,0
	c-0.7,0.7-1.7,1.1-2.7,1.1c-2,0-3.7-1.6-3.7-3.6V134.6z M107.4,134.6c0,0.6,0.2,1.2,0.6,1.7c0.9,0.8,2.2,0.8,3.1,0
	c0.8-1,0.8-2.3,0-3.3c-0.8-0.8-2.2-0.8-3,0C107.6,133.5,107.4,134,107.4,134.6L107.4,134.6z"/>
<path class="st4" d="M105.8,134.6c0-1,0.4-1.9,1.1-2.6c1.5-1.4,3.9-1.4,5.4,0c1.5,1.4,1.5,3.8,0,5.3c0,0,0,0,0,0
	c-0.7,0.7-1.7,1.1-2.7,1.1c-2,0-3.7-1.6-3.7-3.6V134.6z M107.4,134.6c0,0.6,0.2,1.2,0.6,1.7c0.9,0.8,2.2,0.8,3.1,0
	c0.8-1,0.8-2.3,0-3.3c-0.8-0.8-2.2-0.8-3,0C107.6,133.5,107.4,134,107.4,134.6L107.4,134.6z"/>
<path class="st3" d="M120.2,131.2h1.6v7.1h-1.6v-0.7c-1.2,1.2-3.2,1.3-4.4,0.1c0,0,0,0,0,0c-0.1-0.1-0.2-0.1-0.2-0.2
	c-0.6-0.7-1-1.7-0.9-2.7c-0.1-1,0.3-2,1-2.7c0.6-0.7,1.5-1.1,2.4-1c0.8,0,1.6,0.4,2.2,1L120.2,131.2z M116.3,134.7
	c0,0.6,0.2,1.2,0.6,1.6c0.4,0.4,0.9,0.6,1.4,0.6c0.6,0,1.1-0.2,1.5-0.6c0.8-0.9,0.8-2.3,0-3.2c-0.4-0.4-0.9-0.6-1.4-0.6
	c-0.5,0-1.1,0.2-1.4,0.6C116.6,133.5,116.3,134.1,116.3,134.7z"/>
<path class="st4" d="M120.2,131.2h1.6v7.1h-1.6v-0.7c-1.2,1.2-3.2,1.3-4.4,0.1c0,0,0,0,0,0c-0.1-0.1-0.2-0.1-0.2-0.2
	c-0.6-0.7-1-1.7-0.9-2.7c-0.1-1,0.3-2,1-2.7c0.6-0.7,1.5-1.1,2.4-1c0.8,0,1.6,0.4,2.2,1L120.2,131.2z M116.3,134.7
	c0,0.6,0.2,1.2,0.6,1.6c0.4,0.4,0.9,0.6,1.4,0.6c0.6,0,1.1-0.2,1.5-0.6c0.8-0.9,0.8-2.3,0-3.2c-0.4-0.4-0.9-0.6-1.4-0.6
	c-0.5,0-1.1,0.2-1.4,0.6C116.6,133.5,116.3,134.1,116.3,134.7z"/>
<path class="st3" d="M123.9,131.2h1.6v0.6c0.2-0.3,0.5-0.5,0.8-0.6c0.3-0.1,0.6-0.2,0.8-0.1c0.5,0,0.9,0.1,1.3,0.4l-0.7,1.5
	c-0.3-0.2-0.6-0.3-0.9-0.4c-0.9,0-1.3,0.7-1.3,2v3.7h-1.6L123.9,131.2z"/>
<path class="st4" d="M123.9,131.2h1.6v0.6c0.2-0.3,0.5-0.5,0.8-0.6c0.3-0.1,0.6-0.2,0.8-0.1c0.5,0,0.9,0.1,1.3,0.4l-0.7,1.5
	c-0.3-0.2-0.6-0.3-0.9-0.4c-0.9,0-1.3,0.7-1.3,2v3.7h-1.6L123.9,131.2z"/>
<path class="st3" d="M134.6,126h1.6v12.3h-1.6v-0.7c-0.6,0.6-1.4,0.9-2.2,0.9c-0.9,0-1.8-0.4-2.4-1.1c-0.6-0.8-1-1.7-1-2.7
	c0-1,0.3-1.9,1-2.6c1.1-1.3,3-1.4,4.2-0.4c0,0,0.1,0,0.1,0.1c0.1,0.1,0.2,0.1,0.3,0.3V126z M130.7,134.7c0,0.6,0.2,1.2,0.6,1.6
	c0.3,0.4,0.9,0.6,1.4,0.6c0.6,0,1.1-0.2,1.5-0.6c0.8-0.9,0.8-2.3,0-3.2c-0.4-0.4-0.9-0.6-1.4-0.6c-0.5,0-1.1,0.2-1.4,0.6
	C130.9,133.5,130.6,134.1,130.7,134.7L130.7,134.7z"/>
<path class="st4" d="M134.6,126h1.6v12.3h-1.6v-0.7c-0.6,0.6-1.4,0.9-2.2,0.9c-0.9,0-1.8-0.4-2.4-1.1c-0.6-0.8-1-1.7-1-2.7
	c0-1,0.3-1.9,1-2.6c1.1-1.3,3-1.4,4.2-0.4c0,0,0.1,0,0.1,0.1c0.1,0.1,0.2,0.1,0.3,0.3V126z M130.7,134.7c0,0.6,0.2,1.2,0.6,1.6
	c0.3,0.4,0.9,0.6,1.4,0.6c0.6,0,1.1-0.2,1.5-0.6c0.8-0.9,0.8-2.3,0-3.2c-0.4-0.4-0.9-0.6-1.4-0.6c-0.5,0-1.1,0.2-1.4,0.6
	C130.9,133.5,130.6,134.1,130.7,134.7L130.7,134.7z"/>
</svg>
