<?xml version="1.0" encoding="utf-8"?>
<!-- Generator: Adobe Illustrator 24.0.1, SVG Export Plug-In . SVG Version: 6.00 Build 0)  -->
<svg version="1.1" xmlns="http://www.w3.org/2000/svg" xmlns:xlink="http://www.w3.org/1999/xlink" x="0px" y="0px"
	 viewBox="0 0 147.8 147.8" style="enable-background:new 0 0 147.8 147.8;" xml:space="preserve">
<style type="text/css">
	.st0{fill:#FFFFFF;}
	.st1{fill:#FF0000;}
	.st2{fill:none;stroke:#000000;stroke-width:3.75;stroke-linejoin:round;}
	.st3{fill:none;stroke:#000000;stroke-width:0.25;}
</style>
<g id="Layer_2">
	<title>Foxtrot</title>
	<rect x="1.9" y="1.9" class="st0" width="144" height="144"/>
	<path class="st1" d="M73.9,1.9l72,72l-72,72l-72-72L73.9,1.9z"/>
	<path class="st2" d="M1.9,1.9h144v144H1.9V1.9z"/>
</g>
<g id="Layer_1">
	<rect x="11.8" y="86.2" class="st0" width="2.2" height="14.7"/>
	<rect x="11.8" y="86.2" class="st3" width="2.2" height="14.7"/>
	<path class="st0" d="M30.1,91.6h2.1v9.3h-2.1v-1c-1.6,1.6-4.2,1.7-5.8,0.1c0,0,0,0,0,0c-0.1-0.1-0.2-0.2-0.2-0.3
		c-0.9-1-1.3-2.2-1.2-3.5c0-1.3,0.4-2.6,1.2-3.6c0.8-0.9,1.9-1.4,3.2-1.4c1.1,0,2.2,0.5,2.9,1.3L30.1,91.6z M25.1,96.3
		c0,0.8,0.2,1.6,0.8,2.1c0.5,0.6,1.1,0.9,1.9,0.8c0.7,0,1.4-0.3,2-0.8c1-1.2,1-3,0-4.3c-0.5-0.6-1.2-0.9-2-0.8
		c-0.7,0-1.4,0.3-1.9,0.8C25.3,94.7,25,95.5,25.1,96.3z"/>
	<path class="st3" d="M30.1,91.6h2.1v9.3h-2.1v-1c-1.6,1.6-4.2,1.7-5.8,0.1c0,0,0,0,0,0c-0.1-0.1-0.2-0.2-0.2-0.3
		c-0.9-1-1.3-2.2-1.2-3.5c0-1.3,0.4-2.6,1.2-3.6c0.8-0.9,1.9-1.4,3.2-1.4c1.1,0,2.2,0.5,2.9,1.3L30.1,91.6z M25.1,96.3
		c0,0.8,0.2,1.6,0.8,2.1c0.5,0.6,1.1,0.9,1.9,0.8c0.7,0,1.4-0.3,2-0.8c1-1.2,1-3,0-4.3c-0.5-0.6-1.2-0.9-2-0.8
		c-0.7,0-1.4,0.3-1.9,0.8C25.3,94.7,25,95.5,25.1,96.3z"/>
	<path class="st0" d="M35,91.6h2.1v0.8c0.3-0.4,0.6-0.7,1-0.9c0.4-0.2,0.8-0.3,1.2-0.2c1,0,2,0.5,2.5,1.4c0.6-0.9,1.7-1.4,2.8-1.4
		c2.1,0,3.2,1.3,3.2,3.8v5.8h-2.1v-5.2c0-0.6-0.1-1.3-0.4-1.9c-0.2-0.4-0.7-0.6-1.1-0.6c-0.5,0-1,0.2-1.3,0.7
		c-0.3,0.7-0.4,1.4-0.4,2.1v4.8h-2.1v-5c0-1.7-0.5-2.5-1.4-2.5c-0.5,0-1,0.2-1.3,0.7c-0.3,0.7-0.4,1.4-0.4,2.1v4.8h-2.1v-9.3
		L35,91.6z"/>
	<path class="st3" d="M35,91.6h2.1v0.8c0.3-0.4,0.6-0.7,1-0.9c0.4-0.2,0.8-0.3,1.2-0.2c1,0,2,0.5,2.5,1.4c0.6-0.9,1.7-1.4,2.8-1.4
		c2.1,0,3.2,1.3,3.2,3.8v5.8h-2.1v-5.2c0-0.6-0.1-1.3-0.4-1.9c-0.2-0.4-0.7-0.6-1.1-0.6c-0.5,0-1,0.2-1.3,0.7
		c-0.3,0.7-0.4,1.4-0.4,2.1v4.8h-2.1v-5c0-1.7-0.5-2.5-1.4-2.5c-0.5,0-1,0.2-1.3,0.7c-0.3,0.7-0.4,1.4-0.4,2.1v4.8h-2.1v-9.3
		L35,91.6z"/>
	<path class="st0" d="M63.3,84.8h2.1v16.1h-2.1v-1c-0.8,0.8-1.8,1.2-2.9,1.2c-1.2,0-2.4-0.5-3.2-1.4c-0.8-1-1.3-2.3-1.3-3.5
		c-0.1-1.3,0.4-2.5,1.3-3.4c1.4-1.7,4-1.8,5.6-0.4c0,0,0,0,0,0c0.1,0.1,0.3,0.2,0.4,0.4L63.3,84.8z M58.2,96.3
		c0,0.8,0.2,1.6,0.7,2.1c0.5,0.5,1.1,0.9,1.9,0.8c0.8,0,1.5-0.3,2-0.8c1-1.2,1-3,0-4.3c-0.5-0.6-1.2-0.9-2-0.8
		c-0.7,0-1.4,0.3-1.9,0.8C58.4,94.8,58.2,95.5,58.2,96.3z"/>
	<path class="st3" d="M63.3,84.8h2.1v16.1h-2.1v-1c-0.8,0.8-1.8,1.2-2.9,1.2c-1.2,0-2.4-0.5-3.2-1.4c-0.8-1-1.3-2.3-1.3-3.5
		c-0.1-1.3,0.4-2.5,1.3-3.4c1.4-1.7,4-1.8,5.6-0.4c0,0,0,0,0,0c0.1,0.1,0.3,0.2,0.4,0.4L63.3,84.8z M58.2,96.3
		c0,0.8,0.2,1.6,0.7,2.1c0.5,0.5,1.1,0.9,1.9,0.8c0.8,0,1.5-0.3,2-0.8c1-1.2,1-3,0-4.3c-0.5-0.6-1.2-0.9-2-0.8
		c-0.7,0-1.4,0.3-1.9,0.8C58.4,94.8,58.2,95.5,58.2,96.3z"/>
	<path class="st0" d="M67.9,87.7c0-0.8,0.6-1.4,1.4-1.4c0.4,0,0.7,0.2,1,0.4c0.2,0.3,0.4,0.6,0.4,1c0,0.4-0.2,0.7-0.4,1
		c-0.3,0.2-0.6,0.4-1,0.4c-0.7,0.1-1.3-0.5-1.4-1.2C67.9,87.8,67.9,87.7,67.9,87.7L67.9,87.7z M70.4,91.6v9.3h-2.1v-9.3H70.4z"/>
	<path class="st3" d="M67.9,87.7c0-0.8,0.6-1.4,1.4-1.4c0.4,0,0.7,0.2,1,0.4c0.2,0.3,0.4,0.6,0.4,1c0,0.4-0.2,0.7-0.4,1
		c-0.3,0.2-0.6,0.4-1,0.4c-0.7,0.1-1.3-0.5-1.4-1.2C67.9,87.8,67.9,87.7,67.9,87.7L67.9,87.7z M70.4,91.6v9.3h-2.1v-9.3H70.4z"/>
	<path class="st0" d="M78.5,93.2l-1.8,0.9c-0.3-0.6-0.7-0.8-1-0.8c-0.2,0-0.3,0.1-0.5,0.2c-0.2,0.1-0.2,0.3-0.2,0.5
		c0,0.4,0.5,0.8,1.2,1c0.9,0.3,1.7,0.8,2.3,1.4c0.4,0.5,0.6,1.1,0.6,1.7c0,0.9-0.4,1.7-1,2.2c-1.5,1.3-3.7,1.1-5-0.4c0,0,0,0,0,0
		c-0.3-0.3-0.4-0.6-0.6-0.9l1.9-0.8l0.6,0.8c0.2,0.3,0.6,0.4,0.9,0.4c0.7,0,1.1-0.4,1.1-1c0-0.4-0.3-0.8-0.8-1.1l-0.7-0.3l-0.7-0.3
		c-0.5-0.2-0.9-0.5-1.3-0.9c-0.3-0.4-0.5-1-0.5-1.5c0-0.8,0.3-1.5,0.8-2.1c0.5-0.5,1.3-0.8,2-0.7C77.1,91.4,78.1,92.1,78.5,93.2z"/>
	<path class="st3" d="M78.5,93.2l-1.8,0.9c-0.3-0.6-0.7-0.8-1-0.8c-0.2,0-0.3,0.1-0.5,0.2c-0.2,0.1-0.2,0.3-0.2,0.5
		c0,0.4,0.5,0.8,1.2,1c0.9,0.3,1.7,0.8,2.3,1.4c0.4,0.5,0.6,1.1,0.6,1.7c0,0.9-0.4,1.7-1,2.2c-1.5,1.3-3.7,1.1-5-0.4c0,0,0,0,0,0
		c-0.3-0.3-0.4-0.6-0.6-0.9l1.9-0.8l0.6,0.8c0.2,0.3,0.6,0.4,0.9,0.4c0.7,0,1.1-0.4,1.1-1c0-0.4-0.3-0.8-0.8-1.1l-0.7-0.3l-0.7-0.3
		c-0.5-0.2-0.9-0.5-1.3-0.9c-0.3-0.4-0.5-1-0.5-1.5c0-0.8,0.3-1.5,0.8-2.1c0.5-0.5,1.3-0.8,2-0.7C77.1,91.4,78.1,92.1,78.5,93.2z"/>
	<path class="st0" d="M87.9,91.6H90v9.3h-2.1v-1c-1.6,1.6-4.2,1.7-5.8,0.1c0,0,0,0-0.1,0c-0.1-0.1-0.2-0.2-0.2-0.3
		c-0.8-1-1.3-2.2-1.3-3.5c-0.1-1.3,0.4-2.6,1.2-3.5c0.8-0.9,2-1.4,3.2-1.4c1.1,0,2.2,0.5,2.9,1.3L87.9,91.6z M82.8,96.3
		c0,0.8,0.2,1.6,0.7,2.1c0.5,0.5,1.1,0.9,1.9,0.8c0.8,0,1.5-0.3,2-0.8c1-1.2,1-3,0-4.3c-0.5-0.5-1.1-0.8-1.9-0.8
		C83.9,93.4,82.7,94.7,82.8,96.3L82.8,96.3z"/>
	<path class="st3" d="M87.9,91.6H90v9.3h-2.1v-1c-1.6,1.6-4.2,1.7-5.8,0.1c0,0,0,0-0.1,0c-0.1-0.1-0.2-0.2-0.2-0.3
		c-0.8-1-1.3-2.2-1.3-3.5c-0.1-1.3,0.4-2.6,1.2-3.5c0.8-0.9,2-1.4,3.2-1.4c1.1,0,2.2,0.5,2.9,1.3L87.9,91.6z M82.8,96.3
		c0,0.8,0.2,1.6,0.7,2.1c0.5,0.5,1.1,0.9,1.9,0.8c0.8,0,1.5-0.3,2-0.8c1-1.2,1-3,0-4.3c-0.5-0.5-1.1-0.8-1.9-0.8
		C83.9,93.4,82.7,94.7,82.8,96.3L82.8,96.3z"/>
	<path class="st0" d="M94.9,84.8v7.9c0.7-0.8,1.8-1.3,2.9-1.3c1.2,0,2.4,0.5,3.2,1.4c0.8,1,1.3,2.2,1.3,3.4c0.1,1.3-0.4,2.6-1.3,3.5
		c-1.5,1.7-4.1,1.8-5.8,0.4c-0.1-0.1-0.2-0.2-0.3-0.2v1h-2.1V84.8H94.9z M100,96.4c0-0.8-0.2-1.6-0.8-2.1c-0.5-0.5-1.1-0.9-1.9-0.8
		c-0.7,0-1.4,0.3-1.9,0.8c-0.5,0.6-0.7,1.4-0.8,2.1c0,0.8,0.2,1.6,0.8,2.1c0.5,0.5,1.1,0.8,1.9,0.8c0.7,0,1.4-0.3,1.9-0.8
		C99.7,97.9,100,97.2,100,96.4z"/>
	<path class="st3" d="M94.9,84.8v7.9c0.7-0.8,1.8-1.3,2.9-1.3c1.2,0,2.4,0.5,3.2,1.4c0.8,1,1.3,2.2,1.3,3.4c0.1,1.3-0.4,2.6-1.3,3.5
		c-1.5,1.7-4.1,1.8-5.8,0.4c-0.1-0.1-0.2-0.2-0.3-0.2v1h-2.1V84.8H94.9z M100,96.4c0-0.8-0.2-1.6-0.8-2.1c-0.5-0.5-1.1-0.9-1.9-0.8
		c-0.7,0-1.4,0.3-1.9,0.8c-0.5,0.6-0.7,1.4-0.8,2.1c0,0.8,0.2,1.6,0.8,2.1c0.5,0.5,1.1,0.8,1.9,0.8c0.7,0,1.4-0.3,1.9-0.8
		C99.7,97.9,100,97.2,100,96.4z"/>
	<rect x="104.4" y="84.8" class="st0" width="2.1" height="16.1"/>
	<rect x="104.4" y="84.8" class="st3" width="2.1" height="16.1"/>
	<path class="st0" d="M117.8,96.8h-6.6c0,0.7,0.3,1.4,0.7,1.9c0.8,0.8,2.1,0.9,3,0.3c0.5-0.4,0.9-0.9,1.2-1.4l1.9,1
		c-0.3,0.4-0.6,0.8-0.9,1.2c-0.3,0.4-0.6,0.6-1,0.8c-0.4,0.2-0.7,0.3-1.1,0.5c-0.5,0.1-0.9,0.2-1.4,0.2c-1.3,0-2.5-0.4-3.3-1.3
		c-0.8-1-1.3-2.2-1.3-3.5c-0.1-1.3,0.3-2.5,1.1-3.5c1.8-1.7,4.7-1.7,6.5,0c0.9,1,1.3,2.3,1.2,3.6L117.8,96.8z M115.5,95.1
		c-0.2-1-1.1-1.8-2.1-1.8c-0.3,0-0.5,0-0.8,0.1c-0.2,0.1-0.5,0.2-0.7,0.4c-0.2,0.2-0.3,0.4-0.5,0.6c-0.2,0.2-0.2,0.5-0.3,0.7H115.5z
		"/>
	<path class="st3" d="M117.8,96.8h-6.6c0,0.7,0.3,1.4,0.7,1.9c0.8,0.8,2.1,0.9,3,0.3c0.5-0.4,0.9-0.9,1.2-1.4l1.9,1
		c-0.3,0.4-0.6,0.8-0.9,1.2c-0.3,0.4-0.6,0.6-1,0.8c-0.4,0.2-0.7,0.3-1.1,0.5c-0.5,0.1-0.9,0.2-1.4,0.2c-1.3,0-2.5-0.4-3.3-1.3
		c-0.8-1-1.3-2.2-1.3-3.5c-0.1-1.3,0.3-2.5,1.1-3.5c1.8-1.7,4.7-1.7,6.5,0c0.9,1,1.3,2.3,1.2,3.6L117.8,96.8z M115.5,95.1
		c-0.2-1-1.1-1.8-2.1-1.8c-0.3,0-0.5,0-0.8,0.1c-0.2,0.1-0.5,0.2-0.7,0.4c-0.2,0.2-0.3,0.4-0.5,0.6c-0.2,0.2-0.2,0.5-0.3,0.7H115.5z
		"/>
	<path class="st0" d="M127,84.8h2.1v16.1H127v-1c-0.8,0.8-1.8,1.2-2.9,1.2c-1.2,0-2.4-0.5-3.2-1.4c-0.8-1-1.3-2.2-1.3-3.5
		c-0.1-1.3,0.4-2.5,1.3-3.4c0.8-0.9,2-1.4,3.2-1.4c1.1,0,2.2,0.5,2.9,1.3V84.8z M121.9,96.3c0,0.8,0.2,1.6,0.7,2.1
		c0.5,0.6,1.2,0.9,1.9,0.8c0.8,0,1.5-0.3,2-0.8c1-1.2,1-3,0-4.3c-0.9-1-2.5-1.1-3.6-0.1c0,0,0,0-0.1,0.1l-0.1,0.1
		C122.2,94.7,121.9,95.5,121.9,96.3L121.9,96.3z"/>
	<path class="st3" d="M127,84.8h2.1v16.1H127v-1c-0.8,0.8-1.8,1.2-2.9,1.2c-1.2,0-2.4-0.5-3.2-1.4c-0.8-1-1.3-2.2-1.3-3.5
		c-0.1-1.3,0.4-2.5,1.3-3.4c0.8-0.9,2-1.4,3.2-1.4c1.1,0,2.2,0.5,2.9,1.3V84.8z M121.9,96.3c0,0.8,0.2,1.6,0.7,2.1
		c0.5,0.6,1.2,0.9,1.9,0.8c0.8,0,1.5-0.3,2-0.8c1-1.2,1-3,0-4.3c-0.9-1-2.5-1.1-3.6-0.1c0,0,0,0-0.1,0.1l-0.1,0.1
		C122.2,94.7,121.9,95.5,121.9,96.3L121.9,96.3z"/>
	<path class="st0" d="M133.1,98.2l1.9,0.8l-2.7,5.4l-1.5-0.6L133.1,98.2z M132.7,92.7c0-0.3,0.1-0.7,0.4-0.9
		c0.5-0.5,1.2-0.6,1.8-0.1c0,0,0.1,0.1,0.1,0.1l0,0c0.3,0.2,0.4,0.6,0.4,0.9c0,0.7-0.5,1.3-1.3,1.3c-0.3,0-0.7-0.2-0.9-0.4
		C132.8,93.4,132.6,93,132.7,92.7L132.7,92.7z"/>
	<path class="st3" d="M133.1,98.2l1.9,0.8l-2.7,5.4l-1.5-0.6L133.1,98.2z M132.7,92.7c0-0.3,0.1-0.7,0.4-0.9
		c0.5-0.5,1.2-0.6,1.8-0.1c0,0,0.1,0.1,0.1,0.1l0,0c0.3,0.2,0.4,0.6,0.4,0.9c0,0.7-0.5,1.3-1.3,1.3c-0.3,0-0.7-0.2-0.9-0.4
		C132.8,93.4,132.6,93,132.7,92.7L132.7,92.7z"/>
	<path class="st0" d="M24.8,109.9v2.9c-0.4-0.5-0.8-0.9-1.3-1.2c-0.4-0.3-0.8-0.4-1.3-0.4c-0.8,0-1.5,0.3-2,0.8
		c-0.6,0.6-0.9,1.3-0.8,2.1c0,0.8,0.3,1.5,0.7,2.1c0.5,0.6,1.2,0.9,2,0.8c0.5,0,1-0.1,1.4-0.4c0.5-0.3,1-0.8,1.3-1.3v2.8
		c-0.8,0.4-1.7,0.7-2.6,0.7c-1.3,0-2.6-0.5-3.6-1.4c-0.9-0.9-1.5-2.1-1.4-3.4c0-2.7,2.2-4.9,4.9-4.9c0.1,0,0.1,0,0.2,0
		C23.1,109.2,24,109.5,24.8,109.9z"/>
	<path class="st3" d="M24.8,109.9v2.9c-0.4-0.5-0.8-0.9-1.3-1.2c-0.4-0.3-0.8-0.4-1.3-0.4c-0.8,0-1.5,0.3-2,0.8
		c-0.6,0.6-0.9,1.3-0.8,2.1c0,0.8,0.3,1.5,0.7,2.1c0.5,0.6,1.2,0.9,2,0.8c0.5,0,1-0.1,1.4-0.4c0.5-0.3,1-0.8,1.3-1.3v2.8
		c-0.8,0.4-1.7,0.7-2.6,0.7c-1.3,0-2.6-0.5-3.6-1.4c-0.9-0.9-1.5-2.1-1.4-3.4c0-2.7,2.2-4.9,4.9-4.9c0.1,0,0.1,0,0.2,0
		C23.1,109.2,24,109.5,24.8,109.9z"/>
	<path class="st0" d="M26.4,114.1c0-1.3,0.5-2.6,1.5-3.4c2-1.9,5.1-1.9,7.1,0c1.9,1.9,2,5,0.1,6.9c0,0-0.1,0.1-0.1,0.1
		c-2,1.9-5.1,1.9-7.1,0C26.9,116.7,26.4,115.4,26.4,114.1z M28.6,114.1c0,0.8,0.2,1.6,0.8,2.2c0.5,0.5,1.2,0.8,2,0.8
		c0.8,0,1.5-0.3,2-0.8c1-1.3,1-3.1,0-4.4c-0.5-0.5-1.2-0.8-2-0.8c-0.7,0-1.5,0.3-2,0.8C28.9,112.5,28.6,113.3,28.6,114.1L28.6,114.1
		z"/>
	<path class="st3" d="M26.4,114.1c0-1.3,0.5-2.6,1.5-3.4c2-1.9,5.1-1.9,7.1,0c1.9,1.9,2,5,0.1,6.9c0,0-0.1,0.1-0.1,0.1
		c-2,1.9-5.1,1.9-7.1,0C26.9,116.7,26.4,115.4,26.4,114.1z M28.6,114.1c0,0.8,0.2,1.6,0.8,2.2c0.5,0.5,1.2,0.8,2,0.8
		c0.8,0,1.5-0.3,2-0.8c1-1.3,1-3.1,0-4.4c-0.5-0.5-1.2-0.8-2-0.8c-0.7,0-1.5,0.3-2,0.8C28.9,112.5,28.6,113.3,28.6,114.1L28.6,114.1
		z"/>
	<path class="st0" d="M38.6,109.5h2.1v0.8c0.3-0.4,0.6-0.7,1-0.9c0.4-0.2,0.8-0.3,1.2-0.2c1,0,2,0.5,2.5,1.4
		c0.6-0.9,1.6-1.4,2.7-1.4c2.1,0,3.2,1.3,3.2,3.8v5.8h-2.1v-5.1c0-0.6-0.1-1.3-0.4-1.9c-0.2-0.4-0.7-0.6-1.1-0.6
		c-0.5,0-1,0.2-1.3,0.7c-0.3,0.7-0.4,1.4-0.4,2.1v4.7h-2.1v-5.1c0-1.7-0.5-2.5-1.4-2.5c-0.5,0-1,0.2-1.3,0.7
		c-0.3,0.7-0.4,1.4-0.4,2.2v4.8h-2.1L38.6,109.5z"/>
	<path class="st3" d="M38.6,109.5h2.1v0.8c0.3-0.4,0.6-0.7,1-0.9c0.4-0.2,0.8-0.3,1.2-0.2c1,0,2,0.5,2.5,1.4
		c0.6-0.9,1.6-1.4,2.7-1.4c2.1,0,3.2,1.3,3.2,3.8v5.8h-2.1v-5.1c0-0.6-0.1-1.3-0.4-1.9c-0.2-0.4-0.7-0.6-1.1-0.6
		c-0.5,0-1,0.2-1.3,0.7c-0.3,0.7-0.4,1.4-0.4,2.1v4.7h-2.1v-5.1c0-1.7-0.5-2.5-1.4-2.5c-0.5,0-1,0.2-1.3,0.7
		c-0.3,0.7-0.4,1.4-0.4,2.2v4.8h-2.1L38.6,109.5z"/>
	<path class="st0" d="M54,109.5h2.1v0.8c0.3-0.4,0.6-0.7,1-0.9c0.4-0.2,0.8-0.3,1.2-0.2c1,0,2,0.5,2.5,1.4c0.6-0.9,1.6-1.3,2.7-1.3
		c2.1,0,3.2,1.3,3.2,3.8v5.8h-2.1v-5.1c0-0.6-0.1-1.3-0.4-1.9c-0.2-0.4-0.7-0.6-1.1-0.6c-0.5,0-1,0.2-1.3,0.7
		c-0.3,0.7-0.4,1.4-0.4,2.1v4.8h-2.1v-5.1c0-1.7-0.5-2.5-1.4-2.5c-0.5,0-1,0.2-1.3,0.7c-0.3,0.7-0.4,1.4-0.4,2.1v4.8H54V109.5z"/>
	<path class="st3" d="M54,109.5h2.1v0.8c0.3-0.4,0.6-0.7,1-0.9c0.4-0.2,0.8-0.3,1.2-0.2c1,0,2,0.5,2.5,1.4c0.6-0.9,1.6-1.3,2.7-1.3
		c2.1,0,3.2,1.3,3.2,3.8v5.8h-2.1v-5.1c0-0.6-0.1-1.3-0.4-1.9c-0.2-0.4-0.7-0.6-1.1-0.6c-0.5,0-1,0.2-1.3,0.7
		c-0.3,0.7-0.4,1.4-0.4,2.1v4.8h-2.1v-5.1c0-1.7-0.5-2.5-1.4-2.5c-0.5,0-1,0.2-1.3,0.7c-0.3,0.7-0.4,1.4-0.4,2.1v4.8H54V109.5z"/>
	<path class="st0" d="M71.7,109.5v5.3c0,1.6,0.6,2.3,1.9,2.3s1.8-0.8,1.8-2.3v-5.3h2.1v5.4c0,0.7-0.1,1.3-0.3,2
		c-0.9,2-3.2,2.9-5.3,2.1c-0.4-0.2-0.8-0.4-1.2-0.8c-0.4-0.4-0.7-0.8-0.9-1.3c-0.2-0.7-0.3-1.3-0.3-2v-5.4H71.7z"/>
	<path class="st3" d="M71.7,109.5v5.3c0,1.6,0.6,2.3,1.9,2.3s1.8-0.8,1.8-2.3v-5.3h2.1v5.4c0,0.7-0.1,1.3-0.3,2
		c-0.9,2-3.2,2.9-5.3,2.1c-0.4-0.2-0.8-0.4-1.2-0.8c-0.4-0.4-0.7-0.8-0.9-1.3c-0.2-0.7-0.3-1.3-0.3-2v-5.4H71.7z"/>
	<path class="st0" d="M80.2,109.5h2.1v0.8c0.6-0.7,1.6-1.1,2.5-1.1c0.9-0.1,1.9,0.3,2.5,1c0.6,0.8,0.8,1.8,0.8,2.8v5.8h-2.2v-5.2
		c0.1-0.6-0.1-1.3-0.4-1.9c-0.4-0.4-0.9-0.6-1.4-0.6c-0.6-0.1-1.2,0.2-1.5,0.8c-0.3,0.8-0.5,1.6-0.5,2.4v4.5H80L80.2,109.5z"/>
	<path class="st3" d="M80.2,109.5h2.1v0.8c0.6-0.7,1.6-1.1,2.5-1.1c0.9-0.1,1.9,0.3,2.5,1c0.6,0.8,0.8,1.8,0.8,2.8v5.8h-2.2v-5.2
		c0.1-0.6-0.1-1.3-0.4-1.9c-0.4-0.4-0.9-0.6-1.4-0.6c-0.6-0.1-1.2,0.2-1.5,0.8c-0.3,0.8-0.5,1.6-0.5,2.4v4.5H80L80.2,109.5z"/>
	<path class="st0" d="M90.6,105.6c0-0.7,0.6-1.3,1.3-1.3c0.1,0,0.1,0,0.1,0c0.3,0,0.7,0.2,0.9,0.4c0.3,0.2,0.4,0.6,0.4,1
		c0,0.4-0.2,0.7-0.4,1c-0.2,0.2-0.6,0.4-0.9,0.4c-0.4,0-0.7-0.2-1-0.4C90.7,106.4,90.6,106,90.6,105.6z M93,109.5v9.3h-2.1v-9.3H93z
		"/>
	<path class="st3" d="M90.6,105.6c0-0.7,0.6-1.3,1.3-1.3c0.1,0,0.1,0,0.1,0c0.3,0,0.7,0.2,0.9,0.4c0.3,0.2,0.4,0.6,0.4,1
		c0,0.4-0.2,0.7-0.4,1c-0.2,0.2-0.6,0.4-0.9,0.4c-0.4,0-0.7-0.2-1-0.4C90.7,106.4,90.6,106,90.6,105.6z M93,109.5v9.3h-2.1v-9.3H93z
		"/>
	<path class="st0" d="M103,109.9v2.9c-0.4-0.5-0.8-0.9-1.3-1.2c-0.4-0.3-0.8-0.4-1.3-0.4c-0.8,0-1.5,0.3-2,0.8
		c-0.6,0.6-0.9,1.3-0.8,2.1c0,0.8,0.3,1.5,0.7,2.1c0.5,0.6,1.2,0.9,2,0.8c0.5,0,1-0.1,1.4-0.4c0.5-0.4,1-0.8,1.4-1.3v2.8
		c-0.8,0.4-1.7,0.7-2.6,0.7c-1.3,0-2.6-0.5-3.6-1.4c-1.9-1.9-2-5-0.1-6.9c1-1,2.3-1.5,3.7-1.5C101.4,109.2,102.2,109.5,103,109.9z"
		/>
	<path class="st3" d="M103,109.9v2.9c-0.4-0.5-0.8-0.9-1.3-1.2c-0.4-0.3-0.8-0.4-1.3-0.4c-0.8,0-1.5,0.3-2,0.8
		c-0.6,0.6-0.9,1.3-0.8,2.1c0,0.8,0.3,1.5,0.7,2.1c0.5,0.6,1.2,0.9,2,0.8c0.5,0,1-0.1,1.4-0.4c0.5-0.4,1-0.8,1.4-1.3v2.8
		c-0.8,0.4-1.7,0.7-2.6,0.7c-1.3,0-2.6-0.5-3.6-1.4c-1.9-1.9-2-5-0.1-6.9c1-1,2.3-1.5,3.7-1.5C101.4,109.2,102.2,109.5,103,109.9z"
		/>
	<path class="st0" d="M111.9,109.5h2.2v9.3h-2.2v-0.9c-1.6,1.6-4.2,1.7-5.8,0.1c0,0,0,0,0,0c-0.1-0.1-0.2-0.2-0.2-0.3
		c-0.8-1-1.3-2.3-1.3-3.6c0-1.3,0.4-2.6,1.3-3.5c0.8-0.9,1.9-1.4,3.2-1.4c1.1,0,2.2,0.5,2.9,1.3V109.5z M106.8,114.2
		c0,0.8,0.2,1.6,0.7,2.1c0.5,0.5,1.1,0.9,1.9,0.8c0.8,0,1.5-0.3,2-0.8c1-1.2,1-3,0-4.3c-0.5-0.5-1.1-0.8-1.9-0.8
		c-0.7,0-1.4,0.3-1.9,0.8C107.1,112.6,106.8,113.4,106.8,114.2L106.8,114.2z"/>
	<path class="st3" d="M111.9,109.5h2.2v9.3h-2.2v-0.9c-1.6,1.6-4.2,1.7-5.8,0.1c0,0,0,0,0,0c-0.1-0.1-0.2-0.2-0.2-0.3
		c-0.8-1-1.3-2.3-1.3-3.6c0-1.3,0.4-2.6,1.3-3.5c0.8-0.9,1.9-1.4,3.2-1.4c1.1,0,2.2,0.5,2.9,1.3V109.5z M106.8,114.2
		c0,0.8,0.2,1.6,0.7,2.1c0.5,0.5,1.1,0.9,1.9,0.8c0.8,0,1.5-0.3,2-0.8c1-1.2,1-3,0-4.3c-0.5-0.5-1.1-0.8-1.9-0.8
		c-0.7,0-1.4,0.3-1.9,0.8C107.1,112.6,106.8,113.4,106.8,114.2L106.8,114.2z"/>
	<polygon class="st0" points="119,111.5 119,118.7 116.8,118.7 116.8,111.5 115.9,111.5 115.9,109.4 116.8,109.4 116.8,106.1 
		119,106.1 119,109.5 120.7,109.5 120.7,111.6 	"/>
	<polygon class="st3" points="119,111.5 119,118.7 116.8,118.7 116.8,111.5 115.9,111.5 115.9,109.4 116.8,109.4 116.8,106.1 
		119,106.1 119,109.5 120.7,109.5 120.7,111.6 	"/>
	<path class="st0" d="M130.8,114.6h-6.6c0,0.7,0.3,1.4,0.8,1.9c0.4,0.4,1,0.7,1.7,0.7c0.5,0,0.9-0.1,1.3-0.4
		c0.5-0.4,0.9-0.9,1.2-1.4l1.8,1c-0.3,0.4-0.6,0.8-0.9,1.2c-0.3,0.3-0.6,0.6-1,0.8c-0.4,0.2-0.7,0.4-1.1,0.5
		c-0.5,0.1-0.9,0.2-1.4,0.2c-1.2,0.1-2.5-0.4-3.3-1.3c-0.8-1-1.3-2.2-1.3-3.5c-0.1-1.3,0.4-2.6,1.2-3.5c1.8-1.7,4.7-1.7,6.5,0
		c0.8,1,1.3,2.3,1.2,3.6L130.8,114.6z M128.6,112.9c-0.2-1-1.1-1.8-2.2-1.7c-0.3,0-0.5,0-0.7,0.1c-0.2,0.1-0.5,0.2-0.7,0.4
		c-0.2,0.2-0.3,0.4-0.5,0.6c-0.1,0.2-0.2,0.5-0.3,0.7L128.6,112.9z"/>
	<path class="st3" d="M130.8,114.6h-6.6c0,0.7,0.3,1.4,0.8,1.9c0.4,0.4,1,0.7,1.7,0.7c0.5,0,0.9-0.1,1.3-0.4
		c0.5-0.4,0.9-0.9,1.2-1.4l1.8,1c-0.3,0.4-0.6,0.8-0.9,1.2c-0.3,0.3-0.6,0.6-1,0.8c-0.4,0.2-0.7,0.4-1.1,0.5
		c-0.5,0.1-0.9,0.2-1.4,0.2c-1.2,0.1-2.5-0.4-3.3-1.3c-0.8-1-1.3-2.2-1.3-3.5c-0.1-1.3,0.4-2.6,1.2-3.5c1.8-1.7,4.7-1.7,6.5,0
		c0.8,1,1.3,2.3,1.2,3.6L130.8,114.6z M128.6,112.9c-0.2-1-1.1-1.8-2.2-1.7c-0.3,0-0.5,0-0.7,0.1c-0.2,0.1-0.5,0.2-0.7,0.4
		c-0.2,0.2-0.3,0.4-0.5,0.6c-0.1,0.2-0.2,0.5-0.3,0.7L128.6,112.9z"/>
	<polygon class="st0" points="42.4,128.7 44.8,134 47.4,127.9 50,134 52.5,128.7 54.9,128.7 50,138.7 47.4,132.7 44.8,138.7 
		40,128.7 	"/>
	<polygon class="st3" points="42.4,128.7 44.8,134 47.4,127.9 50,134 52.5,128.7 54.9,128.7 50,138.7 47.4,132.7 44.8,138.7 
		40,128.7 	"/>
	<path class="st0" d="M56,124.8c0-0.7,0.6-1.3,1.4-1.3c0,0,0.1,0,0.1,0c0.3,0,0.7,0.2,0.9,0.4c0.3,0.2,0.4,0.6,0.4,1
		c0,0.4-0.2,0.7-0.4,1c-0.2,0.3-0.6,0.4-0.9,0.4c-0.4,0-0.7-0.2-1-0.4C56.2,125.6,56,125.2,56,124.8z M58.5,128.7v9.3h-2.1v-9.3
		H58.5z"/>
	<path class="st3" d="M56,124.8c0-0.7,0.6-1.3,1.4-1.3c0,0,0.1,0,0.1,0c0.3,0,0.7,0.2,0.9,0.4c0.3,0.2,0.4,0.6,0.4,1
		c0,0.4-0.2,0.7-0.4,1c-0.2,0.3-0.6,0.4-0.9,0.4c-0.4,0-0.7-0.2-1-0.4C56.2,125.6,56,125.2,56,124.8z M58.5,128.7v9.3h-2.1v-9.3
		H58.5z"/>
	<polygon class="st0" points="63.5,130.8 63.5,138 61.3,138 61.3,130.8 60.4,130.8 60.4,128.7 61.3,128.7 61.3,125.3 63.5,125.3 
		63.5,128.7 65.1,128.7 65.1,130.8 	"/>
	<polygon class="st3" points="63.5,130.8 63.5,138 61.3,138 61.3,130.8 60.4,130.8 60.4,128.7 61.3,128.7 61.3,125.3 63.5,125.3 
		63.5,128.7 65.1,128.7 65.1,130.8 	"/>
	<path class="st0" d="M66.9,121.9H69v7.6c0.7-0.6,1.6-1,2.5-1c0.9,0,1.9,0.3,2.5,1c0.6,0.8,0.9,1.9,0.8,2.9v5.7h-2.1v-5.6
		c0-0.6-0.1-1.1-0.4-1.6c-0.3-0.4-0.8-0.6-1.3-0.5c-0.6-0.1-1.3,0.2-1.6,0.8c-0.4,0.7-0.5,1.6-0.5,2.4v4.5h-2.2V121.9z"/>
	<path class="st3" d="M66.9,121.9H69v7.6c0.7-0.6,1.6-1,2.5-1c0.9,0,1.9,0.3,2.5,1c0.6,0.8,0.9,1.9,0.8,2.9v5.7h-2.1v-5.6
		c0-0.6-0.1-1.1-0.4-1.6c-0.3-0.4-0.8-0.6-1.3-0.5c-0.6-0.1-1.3,0.2-1.6,0.8c-0.4,0.7-0.5,1.6-0.5,2.4v4.5h-2.2V121.9z"/>
	<path class="st0" d="M83.7,128.7h2.1v0.8c0.3-0.4,0.6-0.6,1-0.8c0.4-0.2,0.8-0.3,1.2-0.2c1,0,2,0.5,2.5,1.4
		c0.6-0.9,1.6-1.4,2.7-1.4c2.2,0,3.2,1.3,3.2,3.8v5.8h-2.1v-5.2c0-0.6-0.1-1.3-0.4-1.9c-0.2-0.4-0.7-0.6-1.1-0.6
		c-0.5,0-1,0.2-1.3,0.6c-0.3,0.7-0.4,1.4-0.4,2.1v4.8H89V133c0-1.7-0.5-2.5-1.4-2.5c-0.5,0-1,0.2-1.3,0.6c-0.3,0.7-0.4,1.4-0.4,2.1
		v4.8h-2.2L83.7,128.7L83.7,128.7z"/>
	<path class="st3" d="M83.7,128.7h2.1v0.8c0.3-0.4,0.6-0.6,1-0.8c0.4-0.2,0.8-0.3,1.2-0.2c1,0,2,0.5,2.5,1.4
		c0.6-0.9,1.6-1.4,2.7-1.4c2.2,0,3.2,1.3,3.2,3.8v5.8h-2.1v-5.2c0-0.6-0.1-1.3-0.4-1.9c-0.2-0.4-0.7-0.6-1.1-0.6
		c-0.5,0-1,0.2-1.3,0.6c-0.3,0.7-0.4,1.4-0.4,2.1v4.8H89V133c0-1.7-0.5-2.5-1.4-2.5c-0.5,0-1,0.2-1.3,0.6c-0.3,0.7-0.4,1.4-0.4,2.1
		v4.8h-2.2L83.7,128.7L83.7,128.7z"/>
	<path class="st0" d="M107.6,133.8H101c0,0.7,0.3,1.4,0.7,1.9c0.8,0.8,2.1,0.9,3,0.3c0.5-0.4,0.9-0.9,1.2-1.5l1.9,1
		c-0.3,0.4-0.6,0.9-0.9,1.2c-0.3,0.4-0.6,0.6-1,0.8c-0.4,0.2-0.7,0.3-1.1,0.5c-0.4,0.1-0.9,0.2-1.3,0.2c-1.3,0-2.5-0.4-3.3-1.3
		c-0.8-1-1.3-2.2-1.3-3.5c-0.1-1.3,0.3-2.6,1.2-3.5c1.8-1.7,4.7-1.7,6.5,0c0.8,1,1.3,2.3,1.2,3.6L107.6,133.8z M105.4,132.1
		c-0.2-1-1.1-1.8-2.1-1.7c-0.3,0-0.5,0-0.8,0.1c-0.2,0.1-0.5,0.2-0.7,0.4c-0.2,0.2-0.3,0.4-0.5,0.6c-0.2,0.2-0.2,0.5-0.3,0.8
		L105.4,132.1L105.4,132.1z"/>
	<path class="st3" d="M107.6,133.8H101c0,0.7,0.3,1.4,0.7,1.9c0.8,0.8,2.1,0.9,3,0.3c0.5-0.4,0.9-0.9,1.2-1.5l1.9,1
		c-0.3,0.4-0.6,0.9-0.9,1.2c-0.3,0.4-0.6,0.6-1,0.8c-0.4,0.2-0.7,0.3-1.1,0.5c-0.4,0.1-0.9,0.2-1.3,0.2c-1.3,0-2.5-0.4-3.3-1.3
		c-0.8-1-1.3-2.2-1.3-3.5c-0.1-1.3,0.3-2.6,1.2-3.5c1.8-1.7,4.7-1.7,6.5,0c0.8,1,1.3,2.3,1.2,3.6L107.6,133.8z M105.4,132.1
		c-0.2-1-1.1-1.8-2.1-1.7c-0.3,0-0.5,0-0.8,0.1c-0.2,0.1-0.5,0.2-0.7,0.4c-0.2,0.2-0.3,0.4-0.5,0.6c-0.2,0.2-0.2,0.5-0.3,0.8
		L105.4,132.1L105.4,132.1z"/>
</g>
</svg>
