<?xml version="1.0" encoding="utf-8"?>
<!-- Generator: Adobe Illustrator 24.0.1, SVG Export Plug-In . SVG Version: 6.00 Build 0)  -->
<svg version="1.1" xmlns="http://www.w3.org/2000/svg" xmlns:xlink="http://www.w3.org/1999/xlink" x="0px" y="0px"
	 viewBox="0 0 147.8 147.8" style="enable-background:new 0 0 147.8 147.8;" xml:space="preserve">
<style type="text/css">
	.st0{fill:#000094;}
	.st1{stroke:#FFCC00;stroke-width:24;}
	.st2{fill:none;stroke:#000000;stroke-width:3.75;stroke-linejoin:round;}
	.st3{fill:#FFFFFF;}
	.st4{fill:none;stroke:#000000;stroke-width:0.32;}
</style>
<g id="Layer_2">
	<title>Golf</title>
	<path class="st0" d="M1.9,1.9h144v144H1.9"/>
	<path class="st1" d="M13.9,1.9v144 M61.9,145.9V1.9 M109.9,1.9v144"/>
	<path class="st2" d="M1.9,1.9h144v144H1.9V1.9z"/>
</g>
<g id="Layer_1">
	<rect x="6.4" y="121.5" class="st3" width="2.2" height="14.6"/>
	<rect x="6.4" y="121.5" class="st4" width="2.2" height="14.6"/>
	<path class="st3" d="M17.7,126.9h2.1v0.8c0.3-0.3,0.6-0.6,1-0.8c0.3-0.2,0.7-0.3,1.1-0.2c0.6,0,1.2,0.2,1.8,0.6l-0.9,1.9
		c-0.3-0.3-0.8-0.4-1.2-0.5c-1.1,0-1.8,0.9-1.8,2.6v4.8h-2.1V126.9z"/>
	<path class="st4" d="M17.7,126.9h2.1v0.8c0.3-0.3,0.6-0.6,1-0.8c0.3-0.2,0.7-0.3,1.1-0.2c0.6,0,1.2,0.2,1.8,0.6l-0.9,1.9
		c-0.3-0.3-0.8-0.4-1.2-0.5c-1.1,0-1.8,0.9-1.8,2.6v4.8h-2.1V126.9z"/>
	<path class="st3" d="M33.3,132h-6.7c0,0.7,0.3,1.3,0.7,1.9c0.4,0.4,1,0.7,1.7,0.6c0.5,0,0.9-0.1,1.3-0.4c0.5-0.4,0.9-0.9,1.2-1.4
		l1.8,1c-0.3,0.4-0.6,0.8-0.9,1.2c-0.3,0.3-0.6,0.6-1,0.8c-0.4,0.2-0.7,0.3-1.1,0.5c-0.4,0.1-0.9,0.2-1.3,0.2
		c-1.2,0-2.4-0.4-3.3-1.3c-0.8-1-1.3-2.2-1.3-3.5c-0.1-1.3,0.3-2.5,1.2-3.5c0.8-0.9,2-1.4,3.2-1.3c1.2-0.1,2.4,0.4,3.2,1.3
		c0.8,1,1.3,2.2,1.3,3.5L33.3,132z M31.1,130.2c-0.2-1-1.1-1.7-2.1-1.6c-0.3,0-0.5,0-0.7,0.1c-0.2,0.1-0.5,0.2-0.6,0.4
		c-0.2,0.2-0.3,0.4-0.5,0.6c-0.1,0.2-0.2,0.5-0.3,0.7L31.1,130.2z"/>
	<path class="st4" d="M33.3,132h-6.7c0,0.7,0.3,1.3,0.7,1.9c0.4,0.4,1,0.7,1.7,0.6c0.5,0,0.9-0.1,1.3-0.4c0.5-0.4,0.9-0.9,1.2-1.4
		l1.8,1c-0.3,0.4-0.6,0.8-0.9,1.2c-0.3,0.3-0.6,0.6-1,0.8c-0.4,0.2-0.7,0.3-1.1,0.5c-0.4,0.1-0.9,0.2-1.3,0.2
		c-1.2,0-2.4-0.4-3.3-1.3c-0.8-1-1.3-2.2-1.3-3.5c-0.1-1.3,0.3-2.5,1.2-3.5c0.8-0.9,2-1.4,3.2-1.3c1.2-0.1,2.4,0.4,3.2,1.3
		c0.8,1,1.3,2.2,1.3,3.5L33.3,132z M31.1,130.2c-0.2-1-1.1-1.7-2.1-1.6c-0.3,0-0.5,0-0.7,0.1c-0.2,0.1-0.5,0.2-0.6,0.4
		c-0.2,0.2-0.3,0.4-0.5,0.6c-0.1,0.2-0.2,0.5-0.3,0.7L31.1,130.2z"/>
	<path class="st3" d="M42.4,141.2v-6c-0.7,0.8-1.8,1.3-2.9,1.3c-1.2,0-2.3-0.5-3.2-1.4c-0.8-0.9-1.3-2.2-1.2-3.4
		c0-1.3,0.4-2.5,1.2-3.5c0.8-0.9,1.9-1.4,3.2-1.4c1.1,0,2.1,0.5,2.9,1.3v-1h2.1v14.2h-2.1V141.2z M37.4,131.5
		c-0.1,0.8,0.2,1.5,0.7,2.1c0.4,0.6,1.1,0.9,1.8,0.8c0.7,0,1.4-0.3,2-0.8c1-1.2,1-3,0-4.3c-0.9-1-2.5-1.1-3.5-0.2c0,0,0,0-0.1,0.1
		l-0.1,0.1C37.6,129.9,37.3,130.7,37.4,131.5L37.4,131.5z"/>
	<path class="st4" d="M42.4,141.2v-6c-0.7,0.8-1.8,1.3-2.9,1.3c-1.2,0-2.3-0.5-3.2-1.4c-0.8-0.9-1.3-2.2-1.2-3.4
		c0-1.3,0.4-2.5,1.2-3.5c0.8-0.9,1.9-1.4,3.2-1.4c1.1,0,2.1,0.5,2.9,1.3v-1h2.1v14.2h-2.1V141.2z M37.4,131.5
		c-0.1,0.8,0.2,1.5,0.7,2.1c0.4,0.6,1.1,0.9,1.8,0.8c0.7,0,1.4-0.3,2-0.8c1-1.2,1-3,0-4.3c-0.9-1-2.5-1.1-3.5-0.2c0,0,0,0-0.1,0.1
		l-0.1,0.1C37.6,129.9,37.3,130.7,37.4,131.5L37.4,131.5z"/>
	<path class="st3" d="M49.6,126.9v5.3c0,1.6,0.6,2.3,1.8,2.3s1.8-0.7,1.8-2.3v-5.3h2.1v5.4c0,0.7-0.1,1.3-0.3,1.9
		c-0.9,2-3.3,2.9-5.3,2c-0.4-0.2-0.8-0.4-1.1-0.7c-0.4-0.4-0.7-0.8-0.9-1.3c-0.2-0.6-0.3-1.3-0.3-1.9v-5.4H49.6z"/>
	<path class="st4" d="M49.6,126.9v5.3c0,1.6,0.6,2.3,1.8,2.3s1.8-0.7,1.8-2.3v-5.3h2.1v5.4c0,0.7-0.1,1.3-0.3,1.9
		c-0.9,2-3.3,2.9-5.3,2c-0.4-0.2-0.8-0.4-1.1-0.7c-0.4-0.4-0.7-0.8-0.9-1.3c-0.2-0.6-0.3-1.3-0.3-1.9v-5.4H49.6z"/>
	<path class="st3" d="M57.7,123.1c0-0.7,0.6-1.3,1.3-1.3c0.1,0,0.1,0,0.1,0c0.3,0,0.7,0.2,0.9,0.4c0.3,0.2,0.4,0.6,0.4,1
		c0,0.4-0.2,0.7-0.4,1c-0.3,0.3-0.6,0.4-1,0.4c-0.4,0-0.7-0.2-1-0.4C57.9,123.8,57.7,123.4,57.7,123.1z M60.1,126.9v9.2H58v-9.2
		H60.1z"/>
	<path class="st4" d="M57.7,123.1c0-0.7,0.6-1.3,1.3-1.3c0.1,0,0.1,0,0.1,0c0.3,0,0.7,0.2,0.9,0.4c0.3,0.2,0.4,0.6,0.4,1
		c0,0.4-0.2,0.7-0.4,1c-0.3,0.3-0.6,0.4-1,0.4c-0.4,0-0.7-0.2-1-0.4C57.9,123.8,57.7,123.4,57.7,123.1z M60.1,126.9v9.2H58v-9.2
		H60.1z"/>
	<path class="st3" d="M62.9,126.9H65v0.8c0.3-0.3,0.6-0.6,1-0.8c0.3-0.2,0.7-0.3,1.1-0.2c0.6,0,1.2,0.2,1.8,0.6l-1,1.9
		c-0.3-0.3-0.8-0.5-1.2-0.5c-1.2,0-1.8,0.9-1.8,2.6v4.8h-2L62.9,126.9z"/>
	<path class="st4" d="M62.9,126.9H65v0.8c0.3-0.3,0.6-0.6,1-0.8c0.3-0.2,0.7-0.3,1.1-0.2c0.6,0,1.2,0.2,1.8,0.6l-1,1.9
		c-0.3-0.3-0.8-0.5-1.2-0.5c-1.2,0-1.8,0.9-1.8,2.6v4.8h-2L62.9,126.9z"/>
	<path class="st3" d="M78.5,132h-6.6c0,0.7,0.3,1.3,0.7,1.9c0.8,0.8,2.1,0.9,3,0.3c0.5-0.4,0.9-0.9,1.2-1.4l1.8,1
		c-0.3,0.4-0.6,0.8-0.9,1.2c-0.3,0.3-0.6,0.6-1,0.8c-0.4,0.2-0.7,0.3-1.1,0.5c-0.5,0.1-0.9,0.2-1.4,0.2c-1.2,0-2.4-0.4-3.3-1.3
		c-0.8-1-1.3-2.2-1.3-3.5c-0.1-1.3,0.3-2.5,1.2-3.5c0.8-0.9,2-1.4,3.2-1.4c1.2-0.1,2.4,0.4,3.2,1.3c0.8,1,1.3,2.3,1.2,3.6L78.5,132
		L78.5,132z M76.2,130.2c-0.2-1-1.1-1.7-2.1-1.7c-0.3,0-0.5,0-0.7,0.1c-0.2,0.1-0.5,0.2-0.7,0.4c-0.2,0.2-0.3,0.3-0.5,0.6
		c-0.2,0.2-0.2,0.5-0.3,0.7L76.2,130.2z"/>
	<path class="st4" d="M78.5,132h-6.6c0,0.7,0.3,1.3,0.7,1.9c0.8,0.8,2.1,0.9,3,0.3c0.5-0.4,0.9-0.9,1.2-1.4l1.8,1
		c-0.3,0.4-0.6,0.8-0.9,1.2c-0.3,0.3-0.6,0.6-1,0.8c-0.4,0.2-0.7,0.3-1.1,0.5c-0.5,0.1-0.9,0.2-1.4,0.2c-1.2,0-2.4-0.4-3.3-1.3
		c-0.8-1-1.3-2.2-1.3-3.5c-0.1-1.3,0.3-2.5,1.2-3.5c0.8-0.9,2-1.4,3.2-1.4c1.2-0.1,2.4,0.4,3.2,1.3c0.8,1,1.3,2.3,1.2,3.6L78.5,132
		L78.5,132z M76.2,130.2c-0.2-1-1.1-1.7-2.1-1.7c-0.3,0-0.5,0-0.7,0.1c-0.2,0.1-0.5,0.2-0.7,0.4c-0.2,0.2-0.3,0.3-0.5,0.6
		c-0.2,0.2-0.2,0.5-0.3,0.7L76.2,130.2z"/>
	<path class="st3" d="M93.5,126.9h2.1v9.2h-2.1v-0.9c-1.6,1.6-4.2,1.7-5.8,0.1c0,0,0,0,0,0c-0.1-0.1-0.2-0.2-0.2-0.3
		c-0.8-1-1.3-2.2-1.2-3.5c0-1.3,0.4-2.5,1.2-3.5c0.8-0.9,1.9-1.5,3.2-1.5c1.1,0,2.1,0.5,2.9,1.3V126.9z M88.5,131.6
		c0,0.8,0.2,1.5,0.7,2.1c0.5,0.5,1.1,0.9,1.8,0.8c0.7,0,1.4-0.3,1.9-0.8c1-1.2,1-3,0-4.3c-0.5-0.5-1.1-0.8-1.8-0.8
		c-0.7,0-1.4,0.3-1.8,0.8C88.8,130,88.5,130.8,88.5,131.6L88.5,131.6z"/>
	<path class="st4" d="M93.5,126.9h2.1v9.2h-2.1v-0.9c-1.6,1.6-4.2,1.7-5.8,0.1c0,0,0,0,0,0c-0.1-0.1-0.2-0.2-0.2-0.3
		c-0.8-1-1.3-2.2-1.2-3.5c0-1.3,0.4-2.5,1.2-3.5c0.8-0.9,1.9-1.5,3.2-1.5c1.1,0,2.1,0.5,2.9,1.3V126.9z M88.5,131.6
		c0,0.8,0.2,1.5,0.7,2.1c0.5,0.5,1.1,0.9,1.8,0.8c0.7,0,1.4-0.3,1.9-0.8c1-1.2,1-3,0-4.3c-0.5-0.5-1.1-0.8-1.8-0.8
		c-0.7,0-1.4,0.3-1.8,0.8C88.8,130,88.5,130.8,88.5,131.6L88.5,131.6z"/>
	<path class="st3" d="M106.6,141.2h-2.1v-14.2h2.1v1c0.7-0.8,1.8-1.3,2.9-1.3c1.2,0,2.4,0.5,3.2,1.4c0.8,1,1.3,2.2,1.3,3.5
		c0,1.3-0.4,2.5-1.2,3.4c-1.5,1.7-4,1.8-5.7,0.4l-0.3-0.3L106.6,141.2z M111.6,131.6c0-0.8-0.2-1.5-0.7-2.1
		c-0.5-0.5-1.1-0.8-1.8-0.8c-0.7,0-1.4,0.3-1.9,0.8c-1,1.2-1,3,0,4.3c0.5,0.6,1.2,0.9,1.9,0.8c0.7,0,1.4-0.3,1.8-0.8
		C111.4,133.1,111.7,132.3,111.6,131.6L111.6,131.6z"/>
	<path class="st4" d="M106.6,141.2h-2.1v-14.2h2.1v1c0.7-0.8,1.8-1.3,2.9-1.3c1.2,0,2.4,0.5,3.2,1.4c0.8,1,1.3,2.2,1.3,3.5
		c0,1.3-0.4,2.5-1.2,3.4c-1.5,1.7-4,1.8-5.7,0.4l-0.3-0.3L106.6,141.2z M111.6,131.6c0-0.8-0.2-1.5-0.7-2.1
		c-0.5-0.5-1.1-0.8-1.8-0.8c-0.7,0-1.4,0.3-1.9,0.8c-1,1.2-1,3,0,4.3c0.5,0.6,1.2,0.9,1.9,0.8c0.7,0,1.4-0.3,1.8-0.8
		C111.4,133.1,111.7,132.3,111.6,131.6L111.6,131.6z"/>
	<path class="st3" d="M115.7,123.1c0-0.8,0.6-1.4,1.4-1.4c0.4,0,0.7,0.2,1,0.4c0.3,0.3,0.4,0.6,0.4,1c0,0.4-0.2,0.7-0.4,1
		c-0.5,0.5-1.4,0.5-1.9,0c0,0,0,0,0,0C115.9,123.8,115.8,123.4,115.7,123.1z M118.2,126.9v9.2h-2.1v-9.2H118.2z"/>
	<path class="st4" d="M115.7,123.1c0-0.8,0.6-1.4,1.4-1.4c0.4,0,0.7,0.2,1,0.4c0.3,0.3,0.4,0.6,0.4,1c0,0.4-0.2,0.7-0.4,1
		c-0.5,0.5-1.4,0.5-1.9,0c0,0,0,0,0,0C115.9,123.8,115.8,123.4,115.7,123.1z M118.2,126.9v9.2h-2.1v-9.2H118.2z"/>
	<rect x="120.9" y="120.2" class="st3" width="2.1" height="16"/>
	<rect x="120.9" y="120.2" class="st4" width="2.1" height="16"/>
	<path class="st3" d="M125.3,131.5c0-1.3,0.6-2.5,1.5-3.4c2-1.8,5-1.8,7,0c1.9,1.9,2,4.9,0.1,6.9c-0.9,1-2.3,1.5-3.6,1.5
		c-1.3,0-2.6-0.5-3.5-1.4C125.8,134.1,125.3,132.8,125.3,131.5z M127.5,131.5c0,0.8,0.2,1.6,0.7,2.2c1.1,1.1,2.8,1.1,3.9,0.1
		c0,0,0,0,0.1-0.1c1-1.3,1-3.1,0-4.4c-0.5-0.5-1.3-0.8-2-0.8c-0.7,0-1.4,0.3-1.9,0.8C127.7,129.9,127.5,130.7,127.5,131.5
		L127.5,131.5z"/>
	<path class="st4" d="M125.3,131.5c0-1.3,0.6-2.5,1.5-3.4c2-1.8,5-1.8,7,0c1.9,1.9,2,4.9,0.1,6.9c-0.9,1-2.3,1.5-3.6,1.5
		c-1.3,0-2.6-0.5-3.5-1.4C125.8,134.1,125.3,132.8,125.3,131.5z M127.5,131.5c0,0.8,0.2,1.6,0.7,2.2c1.1,1.1,2.8,1.1,3.9,0.1
		c0,0,0,0,0.1-0.1c1-1.3,1-3.1,0-4.4c-0.5-0.5-1.3-0.8-2-0.8c-0.7,0-1.4,0.3-1.9,0.8C127.7,129.9,127.5,130.7,127.5,131.5
		L127.5,131.5z"/>
	<polygon class="st3" points="139.7,128.9 139.7,136.1 137.6,136.1 137.6,128.9 136.7,128.9 136.7,126.8 137.6,126.8 137.6,123.5 
		139.7,123.5 139.7,126.9 141.4,126.9 141.4,129 	"/>
	<polygon class="st4" points="139.7,128.9 139.7,136.1 137.6,136.1 137.6,128.9 136.7,128.9 136.7,126.8 137.6,126.8 137.6,123.5 
		139.7,123.5 139.7,126.9 141.4,126.9 141.4,129 	"/>
</g>
</svg>
