<?xml version="1.0" encoding="utf-8"?>
<!-- Generator: Adobe Illustrator 24.0.1, SVG Export Plug-In . SVG Version: 6.00 Build 0)  -->
<svg version="1.1" id="Layer_1" xmlns="http://www.w3.org/2000/svg" xmlns:xlink="http://www.w3.org/1999/xlink" x="0px" y="0px"
	 viewBox="0 0 147.8 147.8" style="enable-background:new 0 0 147.8 147.8;" xml:space="preserve">
<style type="text/css">
	.st0{fill:#FF0000;}
	.st1{fill:#FFFFFF;}
	.st2{fill:none;stroke:#000000;stroke-width:3.75;stroke-linejoin:round;}
	.st3{fill:none;stroke:#000000;stroke-width:0.5;}
</style>
<g id="Layer_2_1_">
	<title>Hotel</title>
	<rect x="1.9" y="1.9" class="st0" width="144" height="144"/>
	<rect x="1.9" y="1.9" class="st1" width="72" height="144"/>
	<path class="st2" d="M1.9,1.9h144v144H1.9V1.9z"/>
</g>
<g id="Layer_1_1_">
	<rect x="11.9" y="100.3" class="st1" width="2.4" height="15.8"/>
	<rect x="11.9" y="100.3" class="st3" width="2.4" height="15.8"/>
	<path class="st1" d="M24.2,98.8h2.3v8.1c1.5-1.5,3.9-1.5,5.4,0c0.6,0.9,0.9,1.9,0.9,3v6.2h-2.3v-5.9c0-0.6-0.1-1.2-0.4-1.7
		c-0.3-0.4-0.9-0.6-1.4-0.5c-0.7-0.1-1.3,0.2-1.7,0.8c-0.4,0.8-0.6,1.7-0.5,2.6v4.8h-2.3V98.8z"/>
	<path class="st3" d="M24.2,98.8h2.3v8.1c1.5-1.5,3.9-1.5,5.4,0c0.6,0.9,0.9,1.9,0.9,3v6.2h-2.3v-5.9c0-0.6-0.1-1.2-0.4-1.7
		c-0.3-0.4-0.9-0.6-1.4-0.5c-0.7-0.1-1.3,0.2-1.7,0.8c-0.4,0.8-0.6,1.7-0.5,2.6v4.8h-2.3V98.8z"/>
	<path class="st1" d="M43,106.1h2.3v10H43v-1c-1.7,1.8-4.5,1.8-6.3,0.1l0,0c-0.1-0.1-0.2-0.2-0.2-0.3c-0.9-1.1-1.4-2.4-1.4-3.8
		s0.5-2.8,1.4-3.8s2.1-1.5,3.4-1.5c1.2,0,2.3,0.5,3.1,1.4V106.1z M37.6,111.1c0,0.8,0.2,1.7,0.8,2.3c0.5,0.6,1.2,0.9,2,0.9
		s1.6-0.3,2.1-0.9c1.1-1.3,1.1-3.3,0-4.6c-0.5-0.6-1.3-0.9-2.1-0.9s-1.5,0.3-2,0.9C37.9,109.5,37.6,110.3,37.6,111.1z"/>
	<path class="st3" d="M43,106.1h2.3v10H43v-1c-1.7,1.8-4.5,1.8-6.3,0.1l0,0c-0.1-0.1-0.2-0.2-0.2-0.3c-0.9-1.1-1.4-2.4-1.4-3.8
		s0.5-2.8,1.4-3.8s2.1-1.5,3.4-1.5c1.2,0,2.3,0.5,3.1,1.4V106.1z M37.6,111.1c0,0.8,0.2,1.7,0.8,2.3c0.5,0.6,1.2,0.9,2,0.9
		s1.6-0.3,2.1-0.9c1.1-1.3,1.1-3.3,0-4.6c-0.5-0.6-1.3-0.9-2.1-0.9s-1.5,0.3-2,0.9C37.9,109.5,37.6,110.3,37.6,111.1z"/>
	<polygon class="st1" points="49.7,106.1 52.3,111.7 54.9,106.1 57.5,106.1 52.3,116.8 47.2,106.1 	"/>
	<polygon class="st3" points="49.7,106.1 52.3,111.7 54.9,106.1 57.5,106.1 52.3,116.8 47.2,106.1 	"/>
	<path class="st1" d="M67.8,111.7h-7.2c0,0.7,0.3,1.5,0.8,2s1.1,0.7,1.8,0.7c0.5,0,1-0.1,1.4-0.4c0.5-0.4,0.9-0.9,1.3-1.5l2,1.1
		c-0.3,0.5-0.6,0.9-1,1.3c-0.3,0.4-0.7,0.7-1.1,0.9c-0.4,0.2-0.8,0.4-1.2,0.5c-0.5,0.1-0.9,0.2-1.4,0.2c-1.3,0.1-2.6-0.5-3.6-1.4
		c-0.9-1.1-1.4-2.4-1.4-3.8c-0.1-1.4,0.4-2.8,1.3-3.8c1.9-1.9,5.1-1.9,7,0c0.9,1.1,1.4,2.5,1.3,3.9V111.7z M65.4,109.8
		c-0.2-1.1-1.2-1.9-2.3-1.9c-0.3,0-0.5,0-0.8,0.1s-0.5,0.2-0.7,0.4c-0.2,0.2-0.4,0.4-0.5,0.6c-0.2,0.2-0.3,0.5-0.3,0.8H65.4z"/>
	<path class="st3" d="M67.8,111.7h-7.2c0,0.7,0.3,1.5,0.8,2s1.1,0.7,1.8,0.7c0.5,0,1-0.1,1.4-0.4c0.5-0.4,0.9-0.9,1.3-1.5l2,1.1
		c-0.3,0.5-0.6,0.9-1,1.3c-0.3,0.4-0.7,0.7-1.1,0.9c-0.4,0.2-0.8,0.4-1.2,0.5c-0.5,0.1-0.9,0.2-1.4,0.2c-1.3,0.1-2.6-0.5-3.6-1.4
		c-0.9-1.1-1.4-2.4-1.4-3.8c-0.1-1.4,0.4-2.8,1.3-3.8c1.9-1.9,5.1-1.9,7,0c0.9,1.1,1.4,2.5,1.3,3.9V111.7z M65.4,109.8
		c-0.2-1.1-1.2-1.9-2.3-1.9c-0.3,0-0.5,0-0.8,0.1s-0.5,0.2-0.7,0.4c-0.2,0.2-0.4,0.4-0.5,0.6c-0.2,0.2-0.3,0.5-0.3,0.8H65.4z"/>
	<path class="st1" d="M84.1,106.1h2.3v10h-2.3v-1c-1.7,1.8-4.5,1.8-6.3,0.1l0,0c-0.1-0.1-0.2-0.2-0.2-0.3c-0.9-1.1-1.4-2.4-1.3-3.8
		c0-1.4,0.4-2.7,1.3-3.8c0.8-1,2.1-1.6,3.4-1.5c1.2,0,2.3,0.5,3.1,1.4V106.1z M78.6,111.1c0,0.8,0.2,1.7,0.8,2.3
		c0.5,0.6,1.2,0.9,2,0.9s1.6-0.3,2.1-0.9c1.1-1.3,1.1-3.3,0-4.6c-0.5-0.6-1.2-0.9-2-0.9s-1.5,0.3-2,0.9
		C79,109.5,78.6,110.3,78.6,111.1z"/>
	<path class="st3" d="M84.1,106.1h2.3v10h-2.3v-1c-1.7,1.8-4.5,1.8-6.3,0.1l0,0c-0.1-0.1-0.2-0.2-0.2-0.3c-0.9-1.1-1.4-2.4-1.3-3.8
		c0-1.4,0.4-2.7,1.3-3.8c0.8-1,2.1-1.6,3.4-1.5c1.2,0,2.3,0.5,3.1,1.4V106.1z M78.6,111.1c0,0.8,0.2,1.7,0.8,2.3
		c0.5,0.6,1.2,0.9,2,0.9s1.6-0.3,2.1-0.9c1.1-1.3,1.1-3.3,0-4.6c-0.5-0.6-1.2-0.9-2-0.9s-1.5,0.3-2,0.9
		C79,109.5,78.6,110.3,78.6,111.1z"/>
	<path class="st1" d="M98.1,121.6h-2.3v-15.5h2.3v1.1c0.8-0.9,1.9-1.4,3.1-1.4c1.3,0,2.5,0.5,3.4,1.5c0.9,1.1,1.4,2.4,1.4,3.8
		c0.1,1.4-0.4,2.7-1.4,3.7c-1.6,1.8-4.4,2-6.2,0.4l-0.3-0.3V121.6z M103.6,111.2c0-0.8-0.2-1.7-0.8-2.3c-0.5-0.6-1.2-0.9-2-0.9
		s-1.6,0.3-2.1,0.9c-0.5,0.7-0.8,1.5-0.8,2.3s0.2,1.7,0.8,2.3c0.5,0.6,1.2,0.9,2,0.9s1.5-0.3,2-0.9
		C103.4,112.9,103.7,112.1,103.6,111.2z"/>
	<path class="st3" d="M98.1,121.6h-2.3v-15.5h2.3v1.1c0.8-0.9,1.9-1.4,3.1-1.4c1.3,0,2.5,0.5,3.4,1.5c0.9,1.1,1.4,2.4,1.4,3.8
		c0.1,1.4-0.4,2.7-1.4,3.7c-1.6,1.8-4.4,2-6.2,0.4l-0.3-0.3V121.6z M103.6,111.2c0-0.8-0.2-1.7-0.8-2.3c-0.5-0.6-1.2-0.9-2-0.9
		s-1.6,0.3-2.1,0.9c-0.5,0.7-0.8,1.5-0.8,2.3s0.2,1.7,0.8,2.3c0.5,0.6,1.2,0.9,2,0.9s1.5-0.3,2-0.9
		C103.4,112.9,103.7,112.1,103.6,111.2z"/>
	<path class="st1" d="M108,102c0-0.8,0.7-1.5,1.5-1.5c0.4,0,0.8,0.2,1.1,0.4c0.3,0.3,0.4,0.7,0.4,1.1s-0.2,0.8-0.4,1.1
		c-0.3,0.3-0.6,0.4-1,0.4C108.8,103.5,108,102.9,108,102L108,102z M110.7,106.1v10h-2.3v-10H110.7z"/>
	<path class="st3" d="M108,102c0-0.8,0.7-1.5,1.5-1.5c0.4,0,0.8,0.2,1.1,0.4c0.3,0.3,0.4,0.7,0.4,1.1s-0.2,0.8-0.4,1.1
		c-0.3,0.3-0.6,0.4-1,0.4C108.8,103.5,108,102.9,108,102L108,102z M110.7,106.1v10h-2.3v-10H110.7z"/>
	<rect x="113.7" y="98.8" class="st1" width="2.3" height="17.3"/>
	<rect x="113.7" y="98.8" class="st3" width="2.3" height="17.3"/>
	<path class="st1" d="M118.4,111.1c0-1.4,0.5-2.7,1.5-3.7c2.1-2,5.5-2,7.6,0c2.1,2,2.1,5.4,0.1,7.4l-0.1,0.1c-2.1,2-5.5,2-7.6,0
		C118.9,113.9,118.4,112.5,118.4,111.1z M120.8,111.1c0,0.9,0.2,1.7,0.8,2.4c1.2,1.2,3.2,1.2,4.4,0c1.1-1.4,1.1-3.3,0-4.7
		c-1.2-1.2-3.1-1.2-4.2-0.1c0,0,0,0-0.1,0.1C121.1,109.4,120.7,110.3,120.8,111.1z"/>
	<path class="st3" d="M118.4,111.1c0-1.4,0.5-2.7,1.5-3.7c2.1-2,5.5-2,7.6,0c2.1,2,2.1,5.4,0.1,7.4l-0.1,0.1c-2.1,2-5.5,2-7.6,0
		C118.9,113.9,118.4,112.5,118.4,111.1z M120.8,111.1c0,0.9,0.2,1.7,0.8,2.4c1.2,1.2,3.2,1.2,4.4,0c1.1-1.4,1.1-3.3,0-4.7
		c-1.2-1.2-3.1-1.2-4.2-0.1c0,0,0,0-0.1,0.1C121.1,109.4,120.7,110.3,120.8,111.1z"/>
	<polygon class="st1" points="134,108.3 134,116.1 131.7,116.1 131.7,108.3 130.7,108.3 130.7,106.1 131.7,106.1 131.7,102.4 
		134,102.4 134,106.1 135.8,106.1 135.8,108.3 	"/>
	<polygon class="st3" points="134,108.3 134,116.1 131.7,116.1 131.7,108.3 130.7,108.3 130.7,106.1 131.7,106.1 131.7,102.4 
		134,102.4 134,106.1 135.8,106.1 135.8,108.3 	"/>
	<path class="st1" d="M30.7,133.9c0-1.4,0.6-2.8,1.6-3.7c2.1-2,5.5-2,7.6,0s2.1,5.4,0.1,7.4l-0.1,0.1c-2.1,2-5.5,2-7.6,0
		C31.3,136.7,30.7,135.3,30.7,133.9z M33.1,133.9c0,0.9,0.2,1.7,0.8,2.4c1.2,1.2,3.2,1.2,4.4,0c1.1-1.4,1.1-3.3,0-4.7
		c-1.2-1.2-3.1-1.2-4.2-0.1c0,0,0,0-0.1,0.1C33.4,132.2,33,133.1,33.1,133.9z"/>
	<path class="st3" d="M30.7,133.9c0-1.4,0.6-2.8,1.6-3.7c2.1-2,5.5-2,7.6,0s2.1,5.4,0.1,7.4l-0.1,0.1c-2.1,2-5.5,2-7.6,0
		C31.3,136.7,30.7,135.3,30.7,133.9z M33.1,133.9c0,0.9,0.2,1.7,0.8,2.4c1.2,1.2,3.2,1.2,4.4,0c1.1-1.4,1.1-3.3,0-4.7
		c-1.2-1.2-3.1-1.2-4.2-0.1c0,0,0,0-0.1,0.1C33.4,132.2,33,133.1,33.1,133.9z"/>
	<path class="st1" d="M43.8,128.9h2.3v0.9c0.7-0.8,1.7-1.2,2.7-1.2c1-0.1,2,0.3,2.7,1.1c0.6,0.9,0.9,1.9,0.8,3v6.2H50v-5.6
		c0.1-0.7-0.1-1.4-0.4-2c-0.4-0.4-0.9-0.6-1.5-0.6c-0.6-0.1-1.3,0.2-1.6,0.8c-0.4,0.8-0.5,1.7-0.5,2.6v4.8h-2.3L43.8,128.9z"/>
	<path class="st3" d="M43.8,128.9h2.3v0.9c0.7-0.8,1.7-1.2,2.7-1.2c1-0.1,2,0.3,2.7,1.1c0.6,0.9,0.9,1.9,0.8,3v6.2H50v-5.6
		c0.1-0.7-0.1-1.4-0.4-2c-0.4-0.4-0.9-0.6-1.5-0.6c-0.6-0.1-1.3,0.2-1.6,0.8c-0.4,0.8-0.5,1.7-0.5,2.6v4.8h-2.3L43.8,128.9z"/>
	<path class="st1" d="M64.1,121.6v8.5c0.8-0.9,1.9-1.4,3.1-1.4c1.3,0,2.5,0.5,3.4,1.5s1.4,2.3,1.4,3.7c0.1,1.4-0.4,2.8-1.4,3.8
		c-1.6,1.8-4.4,2-6.2,0.4c-0.1-0.1-0.2-0.2-0.3-0.2v1.1h-2.3v-17.4L64.1,121.6z M69.6,134c0-0.8-0.2-1.7-0.8-2.3
		c-0.5-0.6-1.2-0.9-2-0.9s-1.6,0.3-2.1,0.9c-0.5,0.7-0.8,1.5-0.8,2.3s0.2,1.7,0.8,2.3c0.5,0.6,1.3,0.9,2.1,0.9c0.8,0,1.5-0.3,2-0.9
		C69.3,135.7,69.6,134.9,69.6,134z"/>
	<path class="st3" d="M64.1,121.6v8.5c0.8-0.9,1.9-1.4,3.1-1.4c1.3,0,2.5,0.5,3.4,1.5s1.4,2.3,1.4,3.7c0.1,1.4-0.4,2.8-1.4,3.8
		c-1.6,1.8-4.4,2-6.2,0.4c-0.1-0.1-0.2-0.2-0.3-0.2v1.1h-2.3v-17.4L64.1,121.6z M69.6,134c0-0.8-0.2-1.7-0.8-2.3
		c-0.5-0.6-1.2-0.9-2-0.9s-1.6,0.3-2.1,0.9c-0.5,0.7-0.8,1.5-0.8,2.3s0.2,1.7,0.8,2.3c0.5,0.6,1.3,0.9,2.1,0.9c0.8,0,1.5-0.3,2-0.9
		C69.3,135.7,69.6,134.9,69.6,134z"/>
	<path class="st1" d="M73.9,133.9c0-1.4,0.6-2.8,1.6-3.7c2.1-2,5.5-2,7.6,0s2.1,5.4,0.1,7.4l-0.1,0.1c-2.1,2-5.5,2-7.6,0
		C74.5,136.7,73.9,135.3,73.9,133.9z M76.3,133.9c0,0.9,0.2,1.7,0.8,2.4c1.2,1.2,3.2,1.2,4.4,0c1.1-1.4,1.1-3.3,0-4.7
		c-1.2-1.2-3.1-1.2-4.2-0.1c0,0,0,0-0.1,0.1C76.6,132.2,76.2,133.1,76.3,133.9z"/>
	<path class="st3" d="M73.9,133.9c0-1.4,0.6-2.8,1.6-3.7c2.1-2,5.5-2,7.6,0s2.1,5.4,0.1,7.4l-0.1,0.1c-2.1,2-5.5,2-7.6,0
		C74.5,136.7,73.9,135.3,73.9,133.9z M76.3,133.9c0,0.9,0.2,1.7,0.8,2.4c1.2,1.2,3.2,1.2,4.4,0c1.1-1.4,1.1-3.3,0-4.7
		c-1.2-1.2-3.1-1.2-4.2-0.1c0,0,0,0-0.1,0.1C76.6,132.2,76.2,133.1,76.3,133.9z"/>
	<path class="st1" d="M94.4,128.9h2.4v10h-2.3v-1.1c-1.7,1.8-4.5,1.8-6.3,0.1l0,0c-0.1-0.1-0.2-0.2-0.2-0.3c-0.9-1-1.4-2.4-1.3-3.8
		c0-1.4,0.4-2.7,1.3-3.8c0.9-1,2.1-1.5,3.4-1.5c1.2,0,2.3,0.5,3.1,1.4L94.4,128.9z M88.9,133.9c0,0.8,0.2,1.7,0.8,2.3
		c0.5,0.6,1.2,0.9,2,0.9s1.6-0.3,2.1-0.9c1.1-1.3,1.1-3.3,0-4.6c-0.5-0.6-1.2-0.9-2-0.9s-1.5,0.3-2,0.9
		C89.3,132.3,88.9,133.1,88.9,133.9z"/>
	<path class="st3" d="M94.4,128.9h2.4v10h-2.3v-1.1c-1.7,1.8-4.5,1.8-6.3,0.1l0,0c-0.1-0.1-0.2-0.2-0.2-0.3c-0.9-1-1.4-2.4-1.3-3.8
		c0-1.4,0.4-2.7,1.3-3.8c0.9-1,2.1-1.5,3.4-1.5c1.2,0,2.3,0.5,3.1,1.4L94.4,128.9z M88.9,133.9c0,0.8,0.2,1.7,0.8,2.3
		c0.5,0.6,1.2,0.9,2,0.9s1.6-0.3,2.1-0.9c1.1-1.3,1.1-3.3,0-4.6c-0.5-0.6-1.2-0.9-2-0.9s-1.5,0.3-2,0.9
		C89.3,132.3,88.9,133.1,88.9,133.9z"/>
	<path class="st1" d="M99.6,128.9h2.3v0.9c0.3-0.4,0.7-0.7,1.1-0.9s0.8-0.3,1.2-0.2c0.7,0,1.3,0.2,1.9,0.6l-1,2.1
		c-0.4-0.3-0.8-0.5-1.3-0.5c-1.2,0-1.9,0.9-1.9,2.8v5.2h-2.3L99.6,128.9z"/>
	<path class="st3" d="M99.6,128.9h2.3v0.9c0.3-0.4,0.7-0.7,1.1-0.9s0.8-0.3,1.2-0.2c0.7,0,1.3,0.2,1.9,0.6l-1,2.1
		c-0.4-0.3-0.8-0.5-1.3-0.5c-1.2,0-1.9,0.9-1.9,2.8v5.2h-2.3L99.6,128.9z"/>
	<path class="st1" d="M114.7,121.6h2.3v17.3h-2.3v-1.1c-0.8,0.8-1.9,1.3-3.1,1.3c-1.3,0-2.5-0.5-3.4-1.5c-1.8-2.2-1.8-5.3,0-7.5
		c0.8-1,2.1-1.5,3.4-1.5c1.2,0,2.3,0.5,3.1,1.4V121.6z M109.3,133.9c0,0.8,0.2,1.7,0.8,2.3c0.5,0.6,1.2,0.9,2,0.9s1.6-0.3,2.1-0.9
		c1.1-1.3,1.1-3.3,0-4.6c-0.5-0.6-1.2-0.9-2-0.9s-1.5,0.3-2,0.9C109.6,132.2,109.2,133.1,109.3,133.9z"/>
	<path class="st3" d="M114.7,121.6h2.3v17.3h-2.3v-1.1c-0.8,0.8-1.9,1.3-3.1,1.3c-1.3,0-2.5-0.5-3.4-1.5c-1.8-2.2-1.8-5.3,0-7.5
		c0.8-1,2.1-1.5,3.4-1.5c1.2,0,2.3,0.5,3.1,1.4V121.6z M109.3,133.9c0,0.8,0.2,1.7,0.8,2.3c0.5,0.6,1.2,0.9,2,0.9s1.6-0.3,2.1-0.9
		c1.1-1.3,1.1-3.3,0-4.6c-0.5-0.6-1.2-0.9-2-0.9s-1.5,0.3-2,0.9C109.6,132.2,109.2,133.1,109.3,133.9z"/>
</g>
</svg>
