<?xml version="1.0" encoding="utf-8"?>
<!-- Generator: Adobe Illustrator 24.0.1, SVG Export Plug-In . SVG Version: 6.00 Build 0)  -->
<svg version="1.1" xmlns="http://www.w3.org/2000/svg" xmlns:xlink="http://www.w3.org/1999/xlink" x="0px" y="0px"
	 viewBox="0 0 147.8 147.8" style="enable-background:new 0 0 147.8 147.8;" xml:space="preserve">
<style type="text/css">
	.st0{fill:#FFCC00;}
	.st1{fill:none;stroke:#000000;stroke-width:3.75;stroke-linejoin:round;}
	.st2{fill:#FFFFFF;}
	.st3{fill:none;stroke:#000000;stroke-width:0.25;}
</style>
<g id="Layer_2">
	<title>India</title>
	<rect x="1.9" y="1.9" class="st0" width="144" height="144"/>
	<circle cx="73.9" cy="73.9" r="36"/>
	<path class="st1" d="M1.9,1.9h144v144H1.9V1.9z"/>
</g>
<g id="Layer_1">
	<rect x="9.3" y="111.4" class="st2" width="1.9" height="12.6"/>
	<rect x="9.3" y="111.4" class="st3" width="1.9" height="12.6"/>
	<path class="st2" d="M24.9,116h1.8v7.9h-1.8v-0.9c-1.4,1.4-3.6,1.4-5,0.1c0,0,0,0,0,0c-0.1-0.1-0.1-0.1-0.1-0.2
		c-0.7-0.8-1.1-1.9-1-3c0-1.1,0.3-2.1,1-3c0.7-0.8,1.7-1.2,2.7-1.2c0.9,0,1.8,0.4,2.5,1.1L24.9,116z M20.5,120
		c0,0.7,0.2,1.3,0.6,1.8c0.4,0.5,1,0.7,1.6,0.7c0.6,0,1.2-0.3,1.7-0.7c0.9-1.1,0.9-2.6,0-3.7c-0.4-0.5-1-0.7-1.7-0.7
		c-0.6,0-1.2,0.2-1.6,0.7C20.7,118.7,20.5,119.3,20.5,120z"/>
	<path class="st3" d="M24.9,116h1.8v7.9h-1.8v-0.9c-1.4,1.4-3.6,1.4-5,0.1c0,0,0,0,0,0c-0.1-0.1-0.1-0.1-0.1-0.2
		c-0.7-0.8-1.1-1.9-1-3c0-1.1,0.3-2.1,1-3c0.7-0.8,1.7-1.2,2.7-1.2c0.9,0,1.8,0.4,2.5,1.1L24.9,116z M20.5,120
		c0,0.7,0.2,1.3,0.6,1.8c0.4,0.5,1,0.7,1.6,0.7c0.6,0,1.2-0.3,1.7-0.7c0.9-1.1,0.9-2.6,0-3.7c-0.4-0.5-1-0.7-1.7-0.7
		c-0.6,0-1.2,0.2-1.6,0.7C20.7,118.7,20.5,119.3,20.5,120z"/>
	<path class="st2" d="M29,116h1.8v0.7c0.3-0.3,0.5-0.6,0.9-0.8c0.3-0.2,0.7-0.2,1-0.2c0.9,0,1.7,0.4,2.1,1.2
		c0.5-0.8,1.4-1.2,2.4-1.2c1.8,0,2.7,1.1,2.7,3.2v4.9h-1.8v-4.4c0-0.5-0.1-1.1-0.3-1.6c-0.2-0.3-0.6-0.5-1-0.5
		c-0.4,0-0.9,0.2-1.1,0.6c-0.3,0.6-0.4,1.2-0.3,1.8v4.1h-1.8v-4.4c0-1.4-0.4-2.1-1.2-2.1c-0.4,0-0.9,0.2-1.1,0.6
		c-0.3,0.6-0.4,1.2-0.3,1.8v4.1h-1.8V116L29,116z"/>
	<path class="st3" d="M29,116h1.8v0.7c0.3-0.3,0.5-0.6,0.9-0.8c0.3-0.2,0.7-0.2,1-0.2c0.9,0,1.7,0.4,2.1,1.2
		c0.5-0.8,1.4-1.2,2.4-1.2c1.8,0,2.7,1.1,2.7,3.2v4.9h-1.8v-4.4c0-0.5-0.1-1.1-0.3-1.6c-0.2-0.3-0.6-0.5-1-0.5
		c-0.4,0-0.9,0.2-1.1,0.6c-0.3,0.6-0.4,1.2-0.3,1.8v4.1h-1.8v-4.4c0-1.4-0.4-2.1-1.2-2.1c-0.4,0-0.9,0.2-1.1,0.6
		c-0.3,0.6-0.4,1.2-0.3,1.8v4.1h-1.8V116L29,116z"/>
	<path class="st2" d="M53.2,110.2H55v13.7h-1.8v-0.9c-0.7,0.6-1.5,1-2.5,1c-1,0-2-0.4-2.7-1.2c-0.7-0.8-1.1-1.9-1.1-3
		c0-1.1,0.4-2.2,1.1-2.9c1.2-1.4,3.4-1.6,4.8-0.3c0,0,0,0,0,0c0.1,0.1,0.2,0.2,0.3,0.3L53.2,110.2z M48.9,120c0,0.7,0.2,1.3,0.6,1.8
		c0.4,0.5,1,0.7,1.6,0.7c0.6,0,1.2-0.3,1.7-0.7c0.9-1.1,0.9-2.6,0-3.7c-0.4-0.5-1-0.7-1.7-0.7c-0.6,0-1.2,0.2-1.6,0.7
		C49,118.6,48.8,119.3,48.9,120z"/>
	<path class="st3" d="M53.2,110.2H55v13.7h-1.8v-0.9c-0.7,0.6-1.5,1-2.5,1c-1,0-2-0.4-2.7-1.2c-0.7-0.8-1.1-1.9-1.1-3
		c0-1.1,0.4-2.2,1.1-2.9c1.2-1.4,3.4-1.6,4.8-0.3c0,0,0,0,0,0c0.1,0.1,0.2,0.2,0.3,0.3L53.2,110.2z M48.9,120c0,0.7,0.2,1.3,0.6,1.8
		c0.4,0.5,1,0.7,1.6,0.7c0.6,0,1.2-0.3,1.7-0.7c0.9-1.1,0.9-2.6,0-3.7c-0.4-0.5-1-0.7-1.7-0.7c-0.6,0-1.2,0.2-1.6,0.7
		C49,118.6,48.8,119.3,48.9,120z"/>
	<path class="st2" d="M57,112.7c0-0.7,0.5-1.2,1.2-1.2c0.3,0,0.6,0.1,0.9,0.3c0.2,0.2,0.3,0.6,0.3,0.9c0,0.3-0.1,0.6-0.3,0.9
		c-0.2,0.2-0.6,0.3-0.9,0.3C57.5,113.9,57,113.4,57,112.7z M59.2,116v7.9h-1.8V116H59.2z"/>
	<path class="st3" d="M57,112.7c0-0.7,0.5-1.2,1.2-1.2c0.3,0,0.6,0.1,0.9,0.3c0.2,0.2,0.3,0.6,0.3,0.9c0,0.3-0.1,0.6-0.3,0.9
		c-0.2,0.2-0.6,0.3-0.9,0.3C57.5,113.9,57,113.4,57,112.7z M59.2,116v7.9h-1.8V116H59.2z"/>
	<path class="st2" d="M61.5,116h1.8v0.7c0.2-0.3,0.5-0.5,0.9-0.7c0.3-0.2,0.6-0.2,0.9-0.2c0.5,0,1.1,0.2,1.5,0.5l-0.9,1.7
		c-0.3-0.2-0.6-0.4-1-0.4c-1,0-1.5,0.8-1.5,2.2v4.1h-1.9L61.5,116L61.5,116z"/>
	<path class="st3" d="M61.5,116h1.8v0.7c0.2-0.3,0.5-0.5,0.9-0.7c0.3-0.2,0.6-0.2,0.9-0.2c0.5,0,1.1,0.2,1.5,0.5l-0.9,1.7
		c-0.3-0.2-0.6-0.4-1-0.4c-1,0-1.5,0.8-1.5,2.2v4.1h-1.9L61.5,116L61.5,116z"/>
	<path class="st2" d="M74.8,120.4h-5.6c0,0.6,0.2,1.2,0.6,1.6c0.4,0.4,0.9,0.6,1.4,0.6c0.4,0,0.8-0.1,1.1-0.3c0.4-0.3,0.7-0.7,1-1.2
		l1.6,0.9c-0.2,0.4-0.5,0.7-0.8,1c-0.2,0.3-0.5,0.5-0.9,0.7c-0.3,0.2-0.6,0.3-0.9,0.4c-0.4,0.1-0.7,0.1-1.1,0.2
		c-1.1,0-2.1-0.4-2.9-1.1c-0.7-0.8-1.1-1.9-1.1-3c-0.1-1.1,0.3-2.2,1-3c1.6-1.5,4-1.5,5.6,0c0.7,0.9,1.1,2,1,3.1L74.8,120.4z
		 M73,118.9c-0.1-0.9-0.9-1.5-1.8-1.4c-0.4,0-0.8,0.2-1.2,0.4c-0.2,0.1-0.3,0.3-0.4,0.5c-0.2,0.2-0.2,0.4-0.2,0.6
		C69.3,119,73,118.9,73,118.9z"/>
	<path class="st3" d="M74.8,120.4h-5.6c0,0.6,0.2,1.2,0.6,1.6c0.4,0.4,0.9,0.6,1.4,0.6c0.4,0,0.8-0.1,1.1-0.3c0.4-0.3,0.7-0.7,1-1.2
		l1.6,0.9c-0.2,0.4-0.5,0.7-0.8,1c-0.2,0.3-0.5,0.5-0.9,0.7c-0.3,0.2-0.6,0.3-0.9,0.4c-0.4,0.1-0.7,0.1-1.1,0.2
		c-1.1,0-2.1-0.4-2.9-1.1c-0.7-0.8-1.1-1.9-1.1-3c-0.1-1.1,0.3-2.2,1-3c1.6-1.5,4-1.5,5.6,0c0.7,0.9,1.1,2,1,3.1L74.8,120.4z
		 M73,118.9c-0.1-0.9-0.9-1.5-1.8-1.4c-0.4,0-0.8,0.2-1.2,0.4c-0.2,0.1-0.3,0.3-0.4,0.5c-0.2,0.2-0.2,0.4-0.2,0.6
		C69.3,119,73,118.9,73,118.9z"/>
	<path class="st2" d="M83,116.3v2.5c-0.3-0.4-0.7-0.7-1.1-1c-0.3-0.2-0.7-0.3-1.1-0.3c-0.7,0-1.3,0.2-1.8,0.7
		c-0.5,0.5-0.7,1.1-0.7,1.8c0,0.7,0.2,1.3,0.6,1.8c0.4,0.5,1,0.7,1.7,0.7c0.4,0,0.8-0.1,1.2-0.3c0.5-0.3,0.9-0.7,1.2-1.2v2.4
		c-0.7,0.4-1.4,0.6-2.2,0.6c-1.1,0-2.2-0.4-3.1-1.2c-0.8-0.8-1.3-1.8-1.3-2.9c0-1.1,0.4-2.2,1.3-3c0.8-0.8,2-1.2,3.1-1.2
		C81.6,115.8,82.3,116,83,116.3z"/>
	<path class="st3" d="M83,116.3v2.5c-0.3-0.4-0.7-0.7-1.1-1c-0.3-0.2-0.7-0.3-1.1-0.3c-0.7,0-1.3,0.2-1.8,0.7
		c-0.5,0.5-0.7,1.1-0.7,1.8c0,0.7,0.2,1.3,0.6,1.8c0.4,0.5,1,0.7,1.7,0.7c0.4,0,0.8-0.1,1.2-0.3c0.5-0.3,0.9-0.7,1.2-1.2v2.4
		c-0.7,0.4-1.4,0.6-2.2,0.6c-1.1,0-2.2-0.4-3.1-1.2c-0.8-0.8-1.3-1.8-1.3-2.9c0-1.1,0.4-2.2,1.3-3c0.8-0.8,2-1.2,3.1-1.2
		C81.6,115.8,82.3,116,83,116.3z"/>
	<polygon class="st2" points="86.7,117.7 86.7,123.9 84.8,123.9 84.8,117.7 84,117.7 84,116 84.8,116 84.8,113 86.6,113 86.6,116 
		88,116 88,117.7 	"/>
	<polygon class="st3" points="86.7,117.7 86.7,123.9 84.8,123.9 84.8,117.7 84,117.7 84,116 84.8,116 84.8,113 86.6,113 86.6,116 
		88,116 88,117.7 	"/>
	<path class="st2" d="M89.1,112.7c0-0.7,0.5-1.2,1.2-1.2c0.3,0,0.6,0.1,0.9,0.3c0.2,0.2,0.3,0.6,0.3,0.9c0,0.3-0.1,0.6-0.3,0.9
		c-0.2,0.2-0.6,0.3-0.9,0.3C89.6,113.9,89.1,113.4,89.1,112.7z M91.2,116v7.9h-1.8V116H91.2z"/>
	<path class="st3" d="M89.1,112.7c0-0.7,0.5-1.2,1.2-1.2c0.3,0,0.6,0.1,0.9,0.3c0.2,0.2,0.3,0.6,0.3,0.9c0,0.3-0.1,0.6-0.3,0.9
		c-0.2,0.2-0.6,0.3-0.9,0.3C89.6,113.9,89.1,113.4,89.1,112.7z M91.2,116v7.9h-1.8V116H91.2z"/>
	<path class="st2" d="M93.5,116h1.8v0.7c0.5-0.6,1.3-1,2.1-1c0.8-0.1,1.6,0.3,2.2,0.9c0.5,0.7,0.7,1.5,0.6,2.4v4.9h-1.8v-4.4
		c0.1-0.6-0.1-1.1-0.3-1.6c-0.3-0.3-0.7-0.5-1.2-0.5c-0.5-0.1-1,0.2-1.3,0.6c-0.3,0.6-0.4,1.4-0.4,2.1v3.8h-1.8L93.5,116L93.5,116z"
		/>
	<path class="st3" d="M93.5,116h1.8v0.7c0.5-0.6,1.3-1,2.1-1c0.8-0.1,1.6,0.3,2.2,0.9c0.5,0.7,0.7,1.5,0.6,2.4v4.9h-1.8v-4.4
		c0.1-0.6-0.1-1.1-0.3-1.6c-0.3-0.3-0.7-0.5-1.2-0.5c-0.5-0.1-1,0.2-1.3,0.6c-0.3,0.6-0.4,1.4-0.4,2.1v3.8h-1.8L93.5,116L93.5,116z"
		/>
	<path class="st2" d="M110.3,123.8v1c0,0.2-0.1,0.6-0.1,0.8c-0.1,0.6-0.4,1.1-0.8,1.5c-0.7,0.8-1.8,1.3-2.9,1.3
		c-1,0-1.9-0.3-2.6-0.9c-0.7-0.6-1.2-1.5-1.2-2.5h1.8c0,0.3,0.2,0.6,0.4,0.9c0.4,0.5,1,0.8,1.7,0.7c1.3,0,2-0.8,2-2.5V123
		c-1.3,1.4-3.5,1.5-4.9,0.2c0,0,0,0-0.1-0.1l-0.2-0.2c-0.7-0.9-1-1.9-1-3c0-1.1,0.3-2.1,0.9-2.9c1.2-1.5,3.4-1.7,4.9-0.5
		c0.1,0.1,0.2,0.2,0.3,0.3V116h1.8L110.3,123.8z M108.6,120c0-0.7-0.2-1.3-0.6-1.8c-0.8-0.9-2.2-1-3-0.2c-0.1,0.1-0.2,0.2-0.2,0.2
		c-0.4,0.5-0.6,1.2-0.6,1.8c0,0.6,0.2,1.2,0.6,1.8c0.4,0.5,1,0.8,1.7,0.8c0.6,0,1.3-0.3,1.7-0.8C108.4,121.3,108.6,120.6,108.6,120z
		"/>
	<path class="st3" d="M110.3,123.8v1c0,0.2-0.1,0.6-0.1,0.8c-0.1,0.6-0.4,1.1-0.8,1.5c-0.7,0.8-1.8,1.3-2.9,1.3
		c-1,0-1.9-0.3-2.6-0.9c-0.7-0.6-1.2-1.5-1.2-2.5h1.8c0,0.3,0.2,0.6,0.4,0.9c0.4,0.5,1,0.8,1.7,0.7c1.3,0,2-0.8,2-2.5V123
		c-1.3,1.4-3.5,1.5-4.9,0.2c0,0,0,0-0.1-0.1l-0.2-0.2c-0.7-0.9-1-1.9-1-3c0-1.1,0.3-2.1,0.9-2.9c1.2-1.5,3.4-1.7,4.9-0.5
		c0.1,0.1,0.2,0.2,0.3,0.3V116h1.8L110.3,123.8z M108.6,120c0-0.7-0.2-1.3-0.6-1.8c-0.8-0.9-2.2-1-3-0.2c-0.1,0.1-0.2,0.2-0.2,0.2
		c-0.4,0.5-0.6,1.2-0.6,1.8c0,0.6,0.2,1.2,0.6,1.8c0.4,0.5,1,0.8,1.7,0.8c0.6,0,1.3-0.3,1.7-0.8C108.4,121.3,108.6,120.6,108.6,120z
		"/>
	<path class="st2" d="M117.8,116h1.8v0.7c0.3-0.3,0.5-0.6,0.9-0.8c0.3-0.2,0.7-0.2,1-0.2c0.9,0,1.7,0.4,2.1,1.2
		c0.5-0.8,1.4-1.2,2.3-1.2c1.8,0,2.7,1.1,2.7,3.2v4.9h-1.8v-4.4c0-0.5-0.1-1.1-0.3-1.6c-0.2-0.3-0.6-0.5-1-0.5
		c-0.4,0-0.9,0.2-1.1,0.6c-0.3,0.6-0.4,1.2-0.3,1.8v4.1h-1.8v-4.4c0-1.4-0.4-2.1-1.2-2.1c-0.4,0-0.9,0.2-1.1,0.6
		c-0.3,0.6-0.4,1.2-0.3,1.8v4.1h-1.8C117.8,123.9,117.8,116,117.8,116z"/>
	<path class="st3" d="M117.8,116h1.8v0.7c0.3-0.3,0.5-0.6,0.9-0.8c0.3-0.2,0.7-0.2,1-0.2c0.9,0,1.7,0.4,2.1,1.2
		c0.5-0.8,1.4-1.2,2.3-1.2c1.8,0,2.7,1.1,2.7,3.2v4.9h-1.8v-4.4c0-0.5-0.1-1.1-0.3-1.6c-0.2-0.3-0.6-0.5-1-0.5
		c-0.4,0-0.9,0.2-1.1,0.6c-0.3,0.6-0.4,1.2-0.3,1.8v4.1h-1.8v-4.4c0-1.4-0.4-2.1-1.2-2.1c-0.4,0-0.9,0.2-1.1,0.6
		c-0.3,0.6-0.4,1.2-0.3,1.8v4.1h-1.8C117.8,123.9,117.8,116,117.8,116z"/>
	<polygon class="st2" points="133.2,122.4 129.6,116 131.8,116 134.2,120.5 136.4,116 138.5,116 132.1,128.2 130.1,128.2 	"/>
	<polygon class="st3" points="133.2,122.4 129.6,116 131.8,116 134.2,120.5 136.4,116 138.5,116 132.1,128.2 130.1,128.2 	"/>
	<path class="st2" d="M28,131.5v2.5c-0.3-0.4-0.7-0.7-1.1-1c-0.3-0.2-0.7-0.3-1.1-0.3c-1.3,0-2.4,1.1-2.5,2.4c0,0,0,0.1,0,0.1
		c0,0.7,0.2,1.3,0.6,1.8c0.4,0.5,1,0.7,1.7,0.7c0.4,0,0.8-0.1,1.2-0.3c0.4-0.3,0.8-0.7,1.1-1.1v2.4c-0.7,0.4-1.4,0.6-2.2,0.6
		c-1.1,0-2.3-0.4-3.1-1.2c-0.8-0.8-1.2-1.8-1.2-2.9c0-2.3,1.9-4.2,4.2-4.2c0,0,0.1,0,0.1,0C26.6,130.9,27.3,131.1,28,131.5z"/>
	<path class="st3" d="M28,131.5v2.5c-0.3-0.4-0.7-0.7-1.1-1c-0.3-0.2-0.7-0.3-1.1-0.3c-1.3,0-2.4,1.1-2.5,2.4c0,0,0,0.1,0,0.1
		c0,0.7,0.2,1.3,0.6,1.8c0.4,0.5,1,0.7,1.7,0.7c0.4,0,0.8-0.1,1.2-0.3c0.4-0.3,0.8-0.7,1.1-1.1v2.4c-0.7,0.4-1.4,0.6-2.2,0.6
		c-1.1,0-2.3-0.4-3.1-1.2c-0.8-0.8-1.2-1.8-1.2-2.9c0-2.3,1.9-4.2,4.2-4.2c0,0,0.1,0,0.1,0C26.6,130.9,27.3,131.1,28,131.5z"/>
	<path class="st2" d="M29.4,135.1c0-1.1,0.4-2.2,1.3-2.9c1.7-1.6,4.3-1.6,6,0c1.6,1.6,1.7,4.2,0.1,5.9c0,0,0,0-0.1,0.1
		c-1.7,1.6-4.3,1.6-6,0C29.8,137.3,29.3,136.2,29.4,135.1z M31.2,135.1c0,0.7,0.2,1.4,0.6,1.9c0.5,0.5,1.1,0.7,1.7,0.7
		c0.7,0,1.3-0.3,1.8-0.7c0.9-1.1,0.9-2.6,0-3.7c-0.5-0.5-1.1-0.7-1.8-0.7c-0.6,0-1.2,0.2-1.7,0.7C31.5,133.7,31.3,134.4,31.2,135.1
		L31.2,135.1z"/>
	<path class="st3" d="M29.4,135.1c0-1.1,0.4-2.2,1.3-2.9c1.7-1.6,4.3-1.6,6,0c1.6,1.6,1.7,4.2,0.1,5.9c0,0,0,0-0.1,0.1
		c-1.7,1.6-4.3,1.6-6,0C29.8,137.3,29.3,136.2,29.4,135.1z M31.2,135.1c0,0.7,0.2,1.4,0.6,1.9c0.5,0.5,1.1,0.7,1.7,0.7
		c0.7,0,1.3-0.3,1.8-0.7c0.9-1.1,0.9-2.6,0-3.7c-0.5-0.5-1.1-0.7-1.8-0.7c-0.6,0-1.2,0.2-1.7,0.7C31.5,133.7,31.3,134.4,31.2,135.1
		L31.2,135.1z"/>
	<path class="st2" d="M41.7,131.2v4.5c0,1.4,0.6,2,1.6,2s1.6-0.6,1.6-2v-4.5h1.8v4.6c0,0.6-0.1,1.1-0.2,1.7
		c-0.2,0.4-0.5,0.8-0.8,1.1c-1.4,1.3-3.6,1.2-4.8-0.2c-0.3-0.3-0.5-0.6-0.6-1c-0.2-0.5-0.2-1.1-0.2-1.7v-4.6H41.7z"/>
	<path class="st3" d="M41.7,131.2v4.5c0,1.4,0.6,2,1.6,2s1.6-0.6,1.6-2v-4.5h1.8v4.6c0,0.6-0.1,1.1-0.2,1.7
		c-0.2,0.4-0.5,0.8-0.8,1.1c-1.4,1.3-3.6,1.2-4.8-0.2c-0.3-0.3-0.5-0.6-0.6-1c-0.2-0.5-0.2-1.1-0.2-1.7v-4.6H41.7z"/>
	<path class="st2" d="M48.9,131.2h1.8v0.7c0.2-0.3,0.5-0.6,0.9-0.7c0.3-0.2,0.7-0.2,1-0.2c0.5,0,1.1,0.2,1.5,0.5l-0.9,1.7
		c-0.3-0.2-0.6-0.4-1-0.4c-1,0-1.5,0.8-1.5,2.2v4.1h-1.9L48.9,131.2z"/>
	<path class="st3" d="M48.9,131.2h1.8v0.7c0.2-0.3,0.5-0.6,0.9-0.7c0.3-0.2,0.7-0.2,1-0.2c0.5,0,1.1,0.2,1.5,0.5l-0.9,1.7
		c-0.3-0.2-0.6-0.4-1-0.4c-1,0-1.5,0.8-1.5,2.2v4.1h-1.9L48.9,131.2z"/>
	<path class="st2" d="M59.8,132.5l-1.5,0.8c-0.2-0.5-0.6-0.7-0.9-0.7c-0.1,0-0.3,0.1-0.4,0.2c-0.2,0.1-0.2,0.2-0.2,0.4
		c0,0.3,0.3,0.6,1,0.9c0.7,0.3,1.4,0.7,2,1.2c0.3,0.4,0.5,0.9,0.5,1.4c0,0.7-0.3,1.4-0.9,1.9c-1.2,1.1-3.1,1-4.2-0.3
		c0,0,0,0-0.1-0.1c-0.2-0.3-0.4-0.6-0.6-0.9l1.6-0.7l0.5,0.7c0.2,0.2,0.5,0.3,0.8,0.3c0.6,0,1-0.3,1-0.9c0-0.3-0.2-0.6-0.7-1
		l-0.6-0.2l-0.5-0.2c-0.4-0.2-0.8-0.5-1.1-0.8c-0.3-0.4-0.4-0.8-0.4-1.3c0-0.7,0.3-1.3,0.7-1.8c0.5-0.5,1.1-0.7,1.8-0.6
		C58.6,130.9,59.4,131.6,59.8,132.5z"/>
	<path class="st3" d="M59.8,132.5l-1.5,0.8c-0.2-0.5-0.6-0.7-0.9-0.7c-0.1,0-0.3,0.1-0.4,0.2c-0.2,0.1-0.2,0.2-0.2,0.4
		c0,0.3,0.3,0.6,1,0.9c0.7,0.3,1.4,0.7,2,1.2c0.3,0.4,0.5,0.9,0.5,1.4c0,0.7-0.3,1.4-0.9,1.9c-1.2,1.1-3.1,1-4.2-0.3
		c0,0,0,0-0.1-0.1c-0.2-0.3-0.4-0.6-0.6-0.9l1.6-0.7l0.5,0.7c0.2,0.2,0.5,0.3,0.8,0.3c0.6,0,1-0.3,1-0.9c0-0.3-0.2-0.6-0.7-1
		l-0.6-0.2l-0.5-0.2c-0.4-0.2-0.8-0.5-1.1-0.8c-0.3-0.4-0.4-0.8-0.4-1.3c0-0.7,0.3-1.3,0.7-1.8c0.5-0.5,1.1-0.7,1.8-0.6
		C58.6,130.9,59.4,131.6,59.8,132.5z"/>
	<path class="st2" d="M69.2,135.5h-5.7c0,0.6,0.2,1.2,0.6,1.6c0.4,0.4,0.9,0.6,1.4,0.6c0.4,0,0.8-0.1,1.1-0.3c0.4-0.3,0.7-0.7,1-1.2
		l1.5,0.9c-0.2,0.4-0.5,0.7-0.8,1c-0.2,0.3-0.5,0.6-0.9,0.7c-0.3,0.2-0.7,0.3-1,0.4c-0.4,0.1-0.7,0.1-1.1,0.2
		c-1.1,0-2.1-0.4-2.9-1.1c-0.7-0.8-1.1-1.9-1.1-3c-0.1-1.1,0.3-2.2,1-3c1.6-1.5,4-1.5,5.6,0c0.7,0.9,1,1.9,1,3l0.1,0.3L69.2,135.5z
		 M67.2,134.1c-0.1-0.9-0.9-1.5-1.8-1.4c-0.2,0-0.4,0-0.6,0.1c-0.2,0.1-0.4,0.2-0.6,0.3c-0.2,0.1-0.3,0.3-0.4,0.5
		c-0.2,0.2-0.2,0.4-0.2,0.6L67.2,134.1z"/>
	<path class="st3" d="M69.2,135.5h-5.7c0,0.6,0.2,1.2,0.6,1.6c0.4,0.4,0.9,0.6,1.4,0.6c0.4,0,0.8-0.1,1.1-0.3c0.4-0.3,0.7-0.7,1-1.2
		l1.5,0.9c-0.2,0.4-0.5,0.7-0.8,1c-0.2,0.3-0.5,0.6-0.9,0.7c-0.3,0.2-0.7,0.3-1,0.4c-0.4,0.1-0.7,0.1-1.1,0.2
		c-1.1,0-2.1-0.4-2.9-1.1c-0.7-0.8-1.1-1.9-1.1-3c-0.1-1.1,0.3-2.2,1-3c1.6-1.5,4-1.5,5.6,0c0.7,0.9,1,1.9,1,3l0.1,0.3L69.2,135.5z
		 M67.2,134.1c-0.1-0.9-0.9-1.5-1.8-1.4c-0.2,0-0.4,0-0.6,0.1c-0.2,0.1-0.4,0.2-0.6,0.3c-0.2,0.1-0.3,0.3-0.4,0.5
		c-0.2,0.2-0.2,0.4-0.2,0.6L67.2,134.1z"/>
	<polygon class="st2" points="78.2,132.9 78.2,139.1 76.4,139.1 76.4,132.9 75.6,132.9 75.6,131.2 76.4,131.2 76.4,128.3 
		78.2,128.3 78.2,131.2 79.6,131.2 79.6,133 	"/>
	<polygon class="st3" points="78.2,132.9 78.2,139.1 76.4,139.1 76.4,132.9 75.6,132.9 75.6,131.2 76.4,131.2 76.4,128.3 
		78.2,128.3 78.2,131.2 79.6,131.2 79.6,133 	"/>
	<path class="st2" d="M80.6,135.1c0-1.1,0.5-2.2,1.3-2.9c1.7-1.6,4.3-1.6,6,0c1.6,1.6,1.7,4.2,0.1,5.9c0,0,0,0-0.1,0.1
		c-1.7,1.6-4.3,1.6-6,0C81,137.3,80.5,136.2,80.6,135.1z M82.5,135.1c0,0.7,0.2,1.4,0.6,1.9c0.9,0.9,2.4,1,3.4,0c0,0,0,0,0,0
		c0.9-1.1,0.9-2.6,0-3.7c-0.5-0.5-1.1-0.7-1.8-0.7c-0.6,0-1.2,0.2-1.7,0.7C82.7,133.7,82.4,134.4,82.5,135.1L82.5,135.1z"/>
	<path class="st3" d="M80.6,135.1c0-1.1,0.5-2.2,1.3-2.9c1.7-1.6,4.3-1.6,6,0c1.6,1.6,1.7,4.2,0.1,5.9c0,0,0,0-0.1,0.1
		c-1.7,1.6-4.3,1.6-6,0C81,137.3,80.5,136.2,80.6,135.1z M82.5,135.1c0,0.7,0.2,1.4,0.6,1.9c0.9,0.9,2.4,1,3.4,0c0,0,0,0,0,0
		c0.9-1.1,0.9-2.6,0-3.7c-0.5-0.5-1.1-0.7-1.8-0.7c-0.6,0-1.2,0.2-1.7,0.7C82.7,133.7,82.4,134.4,82.5,135.1L82.5,135.1z"/>
	<path class="st2" d="M98,143.4h-1.8v-12.2H98v0.9c0.6-0.7,1.5-1.1,2.5-1.1c1,0,2,0.4,2.7,1.2c0.7,0.8,1.1,1.9,1.1,3
		c0,1.1-0.3,2.1-1,2.9c-1.3,1.4-3.5,1.6-4.9,0.3l-0.2-0.2L98,143.4z M102.4,135.1c0-0.7-0.2-1.3-0.6-1.8c-0.4-0.5-1-0.7-1.6-0.7
		c-0.6,0-1.2,0.3-1.7,0.7c-0.4,0.5-0.6,1.2-0.6,1.8c0,0.7,0.2,1.3,0.6,1.8c0.4,0.5,1,0.7,1.6,0.7c0.6,0,1.2-0.2,1.6-0.7
		C102.1,136.5,102.4,135.8,102.4,135.1z"/>
	<path class="st3" d="M98,143.4h-1.8v-12.2H98v0.9c0.6-0.7,1.5-1.1,2.5-1.1c1,0,2,0.4,2.7,1.2c0.7,0.8,1.1,1.9,1.1,3
		c0,1.1-0.3,2.1-1,2.9c-1.3,1.4-3.5,1.6-4.9,0.3l-0.2-0.2L98,143.4z M102.4,135.1c0-0.7-0.2-1.3-0.6-1.8c-0.4-0.5-1-0.7-1.6-0.7
		c-0.6,0-1.2,0.3-1.7,0.7c-0.4,0.5-0.6,1.2-0.6,1.8c0,0.7,0.2,1.3,0.6,1.8c0.4,0.5,1,0.7,1.6,0.7c0.6,0,1.2-0.2,1.6-0.7
		C102.1,136.5,102.4,135.8,102.4,135.1z"/>
	<path class="st2" d="M105.8,135.1c0-1.1,0.4-2.2,1.2-2.9c1.7-1.6,4.3-1.6,6,0c1.6,1.6,1.7,4.2,0.1,5.9c0,0,0,0-0.1,0.1
		c-1.7,1.6-4.3,1.6-6,0C106.2,137.3,105.7,136.2,105.8,135.1z M107.6,135.1c0,0.7,0.2,1.4,0.6,1.9c0.5,0.5,1.1,0.7,1.8,0.7
		c0.7,0.1,1.3-0.2,1.8-0.6c0.9-1.1,0.9-2.6,0-3.7c-0.5-0.5-1.1-0.7-1.8-0.7c-0.6,0-1.2,0.2-1.7,0.7
		C107.9,133.8,107.6,134.4,107.6,135.1L107.6,135.1z"/>
	<path class="st3" d="M105.8,135.1c0-1.1,0.4-2.2,1.2-2.9c1.7-1.6,4.3-1.6,6,0c1.6,1.6,1.7,4.2,0.1,5.9c0,0,0,0-0.1,0.1
		c-1.7,1.6-4.3,1.6-6,0C106.2,137.3,105.7,136.2,105.8,135.1z M107.6,135.1c0,0.7,0.2,1.4,0.6,1.9c0.5,0.5,1.1,0.7,1.8,0.7
		c0.7,0.1,1.3-0.2,1.8-0.6c0.9-1.1,0.9-2.6,0-3.7c-0.5-0.5-1.1-0.7-1.8-0.7c-0.6,0-1.2,0.2-1.7,0.7
		C107.9,133.8,107.6,134.4,107.6,135.1L107.6,135.1z"/>
	<path class="st2" d="M116.2,131.2h1.8v0.7c0.2-0.3,0.5-0.6,0.9-0.7c0.3-0.2,0.7-0.2,1-0.2c0.5,0,1.1,0.2,1.5,0.5l-0.9,1.7
		c-0.3-0.2-0.6-0.4-1-0.4c-1,0-1.5,0.8-1.5,2.2v4.1h-1.8L116.2,131.2L116.2,131.2z"/>
	<path class="st3" d="M116.2,131.2h1.8v0.7c0.2-0.3,0.5-0.6,0.9-0.7c0.3-0.2,0.7-0.2,1-0.2c0.5,0,1.1,0.2,1.5,0.5l-0.9,1.7
		c-0.3-0.2-0.6-0.4-1-0.4c-1,0-1.5,0.8-1.5,2.2v4.1h-1.8L116.2,131.2L116.2,131.2z"/>
	<polygon class="st2" points="124.9,132.9 124.9,139.1 123.1,139.1 123.1,132.9 122.3,132.9 122.3,131.2 123.1,131.2 123.1,128.3 
		124.9,128.3 124.9,131.2 126.4,131.2 126.4,133 	"/>
	<polygon class="st3" points="124.9,132.9 124.9,139.1 123.1,139.1 123.1,132.9 122.3,132.9 122.3,131.2 123.1,131.2 123.1,128.3 
		124.9,128.3 124.9,131.2 126.4,131.2 126.4,133 	"/>
</g>
</svg>
