<?xml version="1.0" encoding="utf-8"?>
<!-- Generator: Adobe Illustrator 24.0.1, SVG Export Plug-In . SVG Version: 6.00 Build 0)  -->
<svg version="1.1" xmlns="http://www.w3.org/2000/svg" xmlns:xlink="http://www.w3.org/1999/xlink" x="0px" y="0px"
	 viewBox="0 0 147.8 147.8" style="enable-background:new 0 0 147.8 147.8;" xml:space="preserve">
<style type="text/css">
	.st0{fill:#000094;}
	.st1{fill:#FFFFFF;}
	.st2{fill:none;stroke:#000000;stroke-width:3.75;stroke-linejoin:round;}
	.st3{fill:none;stroke:#000000;stroke-width:0.3;}
</style>
<g id="Layer_2">
	<title>Juliet</title>
	<rect x="1.9" y="1.9" class="st0" width="144" height="144"/>
	<rect x="1.9" y="49.9" class="st1" width="144" height="48"/>
	<path class="st2" d="M1.9,1.9h144v144H1.9V1.9z"/>
</g>
<g id="Layer_1">
	<g id="Layer_1_1_">
		<rect x="11" y="101.9" class="st1" width="1.5" height="10.1"/>
		<rect x="11" y="101.9" class="st3" width="1.5" height="10.1"/>
		<path class="st1" d="M23.5,105.6h1.5v6.4h-1.5v-0.7c-1.1,1.1-2.9,1.1-4,0.1c-0.1-0.1-0.1-0.1-0.1-0.2c-0.6-0.7-0.9-1.5-0.8-2.4
			c0-0.9,0.3-1.7,0.8-2.4c0.5-0.6,1.3-1,2.2-1c0.8,0,1.5,0.3,2,0.9L23.5,105.6z M20,108.8c0,0.5,0.2,1.1,0.5,1.5
			c0.3,0.4,0.8,0.6,1.3,0.6c0.5,0,1-0.2,1.3-0.6c0.7-0.8,0.7-2.1,0-2.9c-0.3-0.4-0.8-0.6-1.3-0.6c-0.5,0-1,0.2-1.3,0.6
			C20.1,107.7,19.9,108.2,20,108.8z"/>
		<path class="st3" d="M23.5,105.6h1.5v6.4h-1.5v-0.7c-1.1,1.1-2.9,1.1-4,0.1c-0.1-0.1-0.1-0.1-0.1-0.2c-0.6-0.7-0.9-1.5-0.8-2.4
			c0-0.9,0.3-1.7,0.8-2.4c0.5-0.6,1.3-1,2.2-1c0.8,0,1.5,0.3,2,0.9L23.5,105.6z M20,108.8c0,0.5,0.2,1.1,0.5,1.5
			c0.3,0.4,0.8,0.6,1.3,0.6c0.5,0,1-0.2,1.3-0.6c0.7-0.8,0.7-2.1,0-2.9c-0.3-0.4-0.8-0.6-1.3-0.6c-0.5,0-1,0.2-1.3,0.6
			C20.1,107.7,19.9,108.2,20,108.8z"/>
		<path class="st1" d="M26.8,105.6h1.5v0.6c0.2-0.2,0.4-0.5,0.7-0.6c0.3-0.1,0.5-0.2,0.8-0.1c0.7,0,1.4,0.4,1.7,1
			c0.4-0.6,1.1-1,1.9-1c1.5,0,2.2,0.9,2.2,2.6v4h-1.5v-3.6c0-0.4-0.1-0.9-0.3-1.3c-0.2-0.3-0.5-0.4-0.8-0.4c-0.4,0-0.7,0.2-0.9,0.4
			c-0.2,0.5-0.3,1-0.3,1.5v3.2h-1.5v-3.5c0-1.2-0.3-1.7-1-1.7c-0.4,0-0.7,0.1-0.9,0.4c-0.2,0.5-0.3,1-0.2,1.5v3.3h-1.4L26.8,105.6
			L26.8,105.6z"/>
		<path class="st3" d="M26.8,105.6h1.5v0.6c0.2-0.2,0.4-0.5,0.7-0.6c0.3-0.1,0.5-0.2,0.8-0.1c0.7,0,1.4,0.4,1.7,1
			c0.4-0.6,1.1-1,1.9-1c1.5,0,2.2,0.9,2.2,2.6v4h-1.5v-3.6c0-0.4-0.1-0.9-0.3-1.3c-0.2-0.3-0.5-0.4-0.8-0.4c-0.4,0-0.7,0.2-0.9,0.4
			c-0.2,0.5-0.3,1-0.3,1.5v3.2h-1.5v-3.5c0-1.2-0.3-1.7-1-1.7c-0.4,0-0.7,0.1-0.9,0.4c-0.2,0.5-0.3,1-0.2,1.5v3.3h-1.4L26.8,105.6
			L26.8,105.6z"/>
		<path class="st1" d="M41.2,108.7c0-0.9,0.3-1.7,1-2.3c1.4-1.3,3.5-1.3,4.8,0c1.3,1.3,1.3,3.4,0.1,4.7c0,0,0,0,0,0l-0.1,0.1
			c-1.4,1.3-3.5,1.3-4.8,0C41.5,110.5,41.1,109.6,41.2,108.7z M42.7,108.7c0,0.6,0.2,1.1,0.5,1.5c0.4,0.4,0.9,0.6,1.4,0.6
			c0.5,0,1-0.2,1.4-0.6c0.7-0.9,0.7-2.1,0-3c-0.4-0.4-0.9-0.6-1.4-0.6C43.6,106.7,42.7,107.6,42.7,108.7
			C42.7,108.6,42.7,108.6,42.7,108.7L42.7,108.7z"/>
		<path class="st3" d="M41.2,108.7c0-0.9,0.3-1.7,1-2.3c1.4-1.3,3.5-1.3,4.8,0c1.3,1.3,1.3,3.4,0.1,4.7c0,0,0,0,0,0l-0.1,0.1
			c-1.4,1.3-3.5,1.3-4.8,0C41.5,110.5,41.1,109.6,41.2,108.7z M42.7,108.7c0,0.6,0.2,1.1,0.5,1.5c0.4,0.4,0.9,0.6,1.4,0.6
			c0.5,0,1-0.2,1.4-0.6c0.7-0.9,0.7-2.1,0-3c-0.4-0.4-0.9-0.6-1.4-0.6C43.6,106.7,42.7,107.6,42.7,108.7
			C42.7,108.6,42.7,108.6,42.7,108.7L42.7,108.7z"/>
		<path class="st1" d="M49.5,105.6H51v0.6c0.4-0.5,1.1-0.8,1.7-0.8c0.7-0.1,1.3,0.2,1.7,0.7c0.4,0.6,0.6,1.2,0.5,1.9v4h-1.5v-3.6
			c0-0.4,0-0.9-0.2-1.3c-0.3-0.3-0.6-0.4-1-0.4c-0.4-0.1-0.8,0.2-1,0.5c-0.3,0.5-0.4,1.1-0.3,1.7v3h-1.4L49.5,105.6z"/>
		<path class="st3" d="M49.5,105.6H51v0.6c0.4-0.5,1.1-0.8,1.7-0.8c0.7-0.1,1.3,0.2,1.7,0.7c0.4,0.6,0.6,1.2,0.5,1.9v4h-1.5v-3.6
			c0-0.4,0-0.9-0.2-1.3c-0.3-0.3-0.6-0.4-1-0.4c-0.4-0.1-0.8,0.2-1,0.5c-0.3,0.5-0.4,1.1-0.3,1.7v3h-1.4L49.5,105.6z"/>
		<path class="st1" d="M62.5,107v5h-1.5v-5h-0.5v-1.4h0.5v-2.5c-0.1-0.6,0.1-1.2,0.5-1.7c0.4-0.5,1-0.7,1.7-0.7c0.4,0,0.7,0.1,1,0.2
			v1.5l-0.1-0.1c-0.2-0.1-0.5-0.2-0.8-0.3c-0.2,0-0.5,0.1-0.5,0.3c-0.1,0.3-0.2,0.7-0.1,1.1v2.1h1.6v1.4H62.5z"/>
		<path class="st3" d="M62.5,107v5h-1.5v-5h-0.5v-1.4h0.5v-2.5c-0.1-0.6,0.1-1.2,0.5-1.7c0.4-0.5,1-0.7,1.7-0.7c0.4,0,0.7,0.1,1,0.2
			v1.5l-0.1-0.1c-0.2-0.1-0.5-0.2-0.8-0.3c-0.2,0-0.5,0.1-0.5,0.3c-0.1,0.3-0.2,0.7-0.1,1.1v2.1h1.6v1.4H62.5z"/>
		<path class="st1" d="M65,103c0-0.6,0.4-1,1-1c0.3,0,0.5,0.1,0.7,0.2c0.2,0.2,0.3,0.4,0.2,0.7c0,0.6-0.4,1-1,1l0,0
			C65.4,103.9,65,103.5,65,103L65,103z M66.7,105.6v6.4h-1.5v-6.4L66.7,105.6z"/>
		<path class="st3" d="M65,103c0-0.6,0.4-1,1-1c0.3,0,0.5,0.1,0.7,0.2c0.2,0.2,0.3,0.4,0.2,0.7c0,0.6-0.4,1-1,1l0,0
			C65.4,103.9,65,103.5,65,103L65,103z M66.7,105.6v6.4h-1.5v-6.4L66.7,105.6z"/>
		<path class="st1" d="M68.5,105.6H70v0.6c0.2-0.2,0.4-0.4,0.7-0.6c0.2-0.1,0.5-0.2,0.8-0.1c0.4,0,0.9,0.1,1.2,0.4l-0.7,1.3
			c-0.2-0.2-0.5-0.3-0.8-0.3c-0.8,0-1.2,0.6-1.2,1.8v3.3h-1.4V105.6L68.5,105.6z"/>
		<path class="st3" d="M68.5,105.6H70v0.6c0.2-0.2,0.4-0.4,0.7-0.6c0.2-0.1,0.5-0.2,0.8-0.1c0.4,0,0.9,0.1,1.2,0.4l-0.7,1.3
			c-0.2-0.2-0.5-0.3-0.8-0.3c-0.8,0-1.2,0.6-1.2,1.8v3.3h-1.4V105.6L68.5,105.6z"/>
		<path class="st1" d="M79.3,109.1h-4.5c0,0.5,0.2,0.9,0.5,1.3c0.5,0.5,1.4,0.6,2,0.2c0.3-0.3,0.6-0.6,0.8-1l1.3,0.7
			c-0.2,0.3-0.4,0.6-0.6,0.8c-0.2,0.2-0.4,0.4-0.7,0.6c-0.2,0.1-0.5,0.2-0.8,0.3c-0.3,0.1-0.6,0.1-0.9,0.1c-0.9,0-1.7-0.3-2.3-0.9
			c-0.6-0.7-0.9-1.5-0.9-2.4c-0.1-0.9,0.2-1.8,0.8-2.4c1.2-1.2,3.2-1.2,4.5,0c0.6,0.7,0.9,1.6,0.8,2.5L79.3,109.1z M77.8,107.9
			c-0.1-0.7-0.8-1.2-1.5-1.2c-0.2,0-0.3,0-0.5,0.1c-0.2,0.1-0.3,0.1-0.4,0.2c-0.1,0.1-0.2,0.2-0.3,0.4c-0.1,0.1-0.2,0.3-0.2,0.5
			L77.8,107.9z"/>
		<path class="st3" d="M79.3,109.1h-4.5c0,0.5,0.2,0.9,0.5,1.3c0.5,0.5,1.4,0.6,2,0.2c0.3-0.3,0.6-0.6,0.8-1l1.3,0.7
			c-0.2,0.3-0.4,0.6-0.6,0.8c-0.2,0.2-0.4,0.4-0.7,0.6c-0.2,0.1-0.5,0.2-0.8,0.3c-0.3,0.1-0.6,0.1-0.9,0.1c-0.9,0-1.7-0.3-2.3-0.9
			c-0.6-0.7-0.9-1.5-0.9-2.4c-0.1-0.9,0.2-1.8,0.8-2.4c1.2-1.2,3.2-1.2,4.5,0c0.6,0.7,0.9,1.6,0.8,2.5L79.3,109.1z M77.8,107.9
			c-0.1-0.7-0.8-1.2-1.5-1.2c-0.2,0-0.3,0-0.5,0.1c-0.2,0.1-0.3,0.1-0.4,0.2c-0.1,0.1-0.2,0.2-0.3,0.4c-0.1,0.1-0.2,0.3-0.2,0.5
			L77.8,107.9z"/>
		<path class="st1" d="M89.7,105.6h1.5v6.4h-1.5v-0.7c-1.1,1.1-2.9,1.2-4,0.1l0,0c-0.1-0.1-0.1-0.1-0.1-0.2
			c-0.6-0.7-0.9-1.5-0.9-2.4c0-0.9,0.3-1.7,0.8-2.4c0.5-0.6,1.3-1,2.2-1c0.8,0,1.5,0.3,2,0.9L89.7,105.6z M86.2,108.8
			c0,0.5,0.2,1.1,0.5,1.5c0.3,0.4,0.8,0.6,1.3,0.6c0.5,0,1-0.2,1.3-0.6c0.7-0.9,0.7-2.1,0-2.9c-0.3-0.4-0.8-0.6-1.3-0.6
			c-0.5,0-1,0.2-1.3,0.6C86.4,107.7,86.2,108.2,86.2,108.8z"/>
		<path class="st3" d="M89.7,105.6h1.5v6.4h-1.5v-0.7c-1.1,1.1-2.9,1.2-4,0.1l0,0c-0.1-0.1-0.1-0.1-0.1-0.2
			c-0.6-0.7-0.9-1.5-0.9-2.4c0-0.9,0.3-1.7,0.8-2.4c0.5-0.6,1.3-1,2.2-1c0.8,0,1.5,0.3,2,0.9L89.7,105.6z M86.2,108.8
			c0,0.5,0.2,1.1,0.5,1.5c0.3,0.4,0.8,0.6,1.3,0.6c0.5,0,1-0.2,1.3-0.6c0.7-0.9,0.7-2.1,0-2.9c-0.3-0.4-0.8-0.6-1.3-0.6
			c-0.5,0-1,0.2-1.3,0.6C86.4,107.7,86.2,108.2,86.2,108.8z"/>
		<path class="st1" d="M93,105.6h1.5v0.6c0.4-0.5,1.1-0.8,1.7-0.8c0.7-0.1,1.3,0.2,1.7,0.7c0.4,0.6,0.5,1.3,0.5,1.9v4H97v-3.6
			c0-0.4-0.1-0.9-0.3-1.3c-0.3-0.3-0.6-0.4-1-0.4c-0.4-0.1-0.8,0.2-1,0.5c-0.3,0.5-0.4,1.1-0.3,1.7v3H93L93,105.6z"/>
		<path class="st3" d="M93,105.6h1.5v0.6c0.4-0.5,1.1-0.8,1.7-0.8c0.7-0.1,1.3,0.2,1.7,0.7c0.4,0.6,0.5,1.3,0.5,1.9v4H97v-3.6
			c0-0.4-0.1-0.9-0.3-1.3c-0.3-0.3-0.6-0.4-1-0.4c-0.4-0.1-0.8,0.2-1,0.5c-0.3,0.5-0.4,1.1-0.3,1.7v3H93L93,105.6z"/>
		<path class="st1" d="M105.1,100.9h1.5v11h-1.5v-0.7c-0.5,0.5-1.2,0.8-2,0.8c-0.8,0-1.6-0.4-2.2-1c-1.1-1.4-1.1-3.4,0-4.8
			c0.5-0.6,1.3-1,2.2-1c0.8,0,1.5,0.3,2,0.9L105.1,100.9z M101.5,108.8c0,0.5,0.2,1.1,0.5,1.5c0.3,0.4,0.8,0.6,1.3,0.6
			c0.5,0,1-0.2,1.3-0.6c0.7-0.9,0.7-2.1,0-2.9c-0.3-0.4-0.8-0.6-1.3-0.6c-0.5,0-1,0.2-1.3,0.6C101.8,107.7,101.6,108.2,101.5,108.8z
			"/>
		<path class="st3" d="M105.1,100.9h1.5v11h-1.5v-0.7c-0.5,0.5-1.2,0.8-2,0.8c-0.8,0-1.6-0.4-2.2-1c-1.1-1.4-1.1-3.4,0-4.8
			c0.5-0.6,1.3-1,2.2-1c0.8,0,1.5,0.3,2,0.9L105.1,100.9z M101.5,108.8c0,0.5,0.2,1.1,0.5,1.5c0.3,0.4,0.8,0.6,1.3,0.6
			c0.5,0,1-0.2,1.3-0.6c0.7-0.9,0.7-2.1,0-2.9c-0.3-0.4-0.8-0.6-1.3-0.6c-0.5,0-1,0.2-1.3,0.6C101.8,107.7,101.6,108.2,101.5,108.8z
			"/>
		<path class="st1" d="M112.5,100.9h1.5v5.2c1-0.9,2.5-0.9,3.4,0c0.4,0.6,0.6,1.2,0.6,1.9v4h-1.5v-3.8c0-0.4-0.1-0.8-0.3-1.1
			c-0.2-0.3-0.6-0.4-0.9-0.3c-0.4-0.1-0.9,0.1-1.1,0.5c-0.3,0.5-0.4,1.1-0.3,1.7v3.1h-1.4V100.9z"/>
		<path class="st3" d="M112.5,100.9h1.5v5.2c1-0.9,2.5-0.9,3.4,0c0.4,0.6,0.6,1.2,0.6,1.9v4h-1.5v-3.8c0-0.4-0.1-0.8-0.3-1.1
			c-0.2-0.3-0.6-0.4-0.9-0.3c-0.4-0.1-0.9,0.1-1.1,0.5c-0.3,0.5-0.4,1.1-0.3,1.7v3.1h-1.4V100.9z"/>
		<path class="st1" d="M124.5,105.6h1.5v6.4h-1.5v-0.7c-1.1,1.1-2.9,1.2-4,0.1l0,0c-0.1-0.1-0.1-0.1-0.1-0.2
			c-0.6-0.7-0.9-1.5-0.8-2.4c0-0.9,0.3-1.7,0.8-2.4c0.5-0.6,1.3-1,2.2-1c0.8,0,1.5,0.3,2,0.9L124.5,105.6z M121,108.8
			c0,0.5,0.2,1.1,0.5,1.5c0.3,0.4,0.8,0.6,1.3,0.6c0.5,0,1-0.2,1.3-0.6c0.7-0.9,0.7-2.1,0-2.9c-0.3-0.4-0.8-0.6-1.3-0.6
			c-0.5,0-1,0.2-1.3,0.6C121.2,107.7,121,108.2,121,108.8z"/>
		<path class="st3" d="M124.5,105.6h1.5v6.4h-1.5v-0.7c-1.1,1.1-2.9,1.2-4,0.1l0,0c-0.1-0.1-0.1-0.1-0.1-0.2
			c-0.6-0.7-0.9-1.5-0.8-2.4c0-0.9,0.3-1.7,0.8-2.4c0.5-0.6,1.3-1,2.2-1c0.8,0,1.5,0.3,2,0.9L124.5,105.6z M121,108.8
			c0,0.5,0.2,1.1,0.5,1.5c0.3,0.4,0.8,0.6,1.3,0.6c0.5,0,1-0.2,1.3-0.6c0.7-0.9,0.7-2.1,0-2.9c-0.3-0.4-0.8-0.6-1.3-0.6
			c-0.5,0-1,0.2-1.3,0.6C121.2,107.7,121,108.2,121,108.8z"/>
		<polygon class="st1" points="128.8,105.6 130.4,109.1 132.1,105.6 133.7,105.6 130.4,112.4 127.2,105.6 		"/>
		<polygon class="st3" points="128.8,105.6 130.4,109.1 132.1,105.6 133.7,105.6 130.4,112.4 127.2,105.6 		"/>
		<path class="st1" d="M140.3,109.1h-4.5c0,0.5,0.2,0.9,0.5,1.3c0.5,0.5,1.4,0.6,2,0.2c0.3-0.3,0.6-0.6,0.8-1l1.3,0.6
			c-0.2,0.3-0.4,0.6-0.6,0.8c-0.2,0.2-0.4,0.4-0.6,0.6c-0.2,0.1-0.5,0.2-0.8,0.3c-0.3,0.1-0.7,0.1-1,0.1c-0.9,0-1.7-0.3-2.3-0.9
			c-0.6-0.7-0.9-1.5-0.9-2.4c-0.1-0.9,0.2-1.8,0.8-2.4c1.2-1.2,3.2-1.2,4.5,0c0.6,0.7,0.9,1.6,0.8,2.5L140.3,109.1z M138.8,107.9
			c-0.1-0.7-0.8-1.2-1.5-1.2c-0.2,0-0.3,0-0.5,0.1c-0.2,0.1-0.3,0.1-0.4,0.2c-0.1,0.1-0.2,0.2-0.3,0.4c-0.1,0.2-0.2,0.3-0.2,0.5
			L138.8,107.9L138.8,107.9z"/>
		<path class="st3" d="M140.3,109.1h-4.5c0,0.5,0.2,0.9,0.5,1.3c0.5,0.5,1.4,0.6,2,0.2c0.3-0.3,0.6-0.6,0.8-1l1.3,0.6
			c-0.2,0.3-0.4,0.6-0.6,0.8c-0.2,0.2-0.4,0.4-0.6,0.6c-0.2,0.1-0.5,0.2-0.8,0.3c-0.3,0.1-0.7,0.1-1,0.1c-0.9,0-1.7-0.3-2.3-0.9
			c-0.6-0.7-0.9-1.5-0.9-2.4c-0.1-0.9,0.2-1.8,0.8-2.4c1.2-1.2,3.2-1.2,4.5,0c0.6,0.7,0.9,1.6,0.8,2.5L140.3,109.1z M138.8,107.9
			c-0.1-0.7-0.8-1.2-1.5-1.2c-0.2,0-0.3,0-0.5,0.1c-0.2,0.1-0.3,0.1-0.4,0.2c-0.1,0.1-0.2,0.2-0.3,0.4c-0.1,0.2-0.2,0.3-0.2,0.5
			L138.8,107.9L138.8,107.9z"/>
		<path class="st1" d="M26,115.2h1.5v11H26v-0.6c-0.5,0.5-1.3,0.8-2,0.8c-0.8,0-1.6-0.4-2.2-1c-0.6-0.7-0.9-1.6-0.8-2.5
			c0-0.9,0.3-1.7,0.9-2.4c0.5-0.6,1.3-1,2.2-1c0.8,0,1.5,0.3,2,0.9L26,115.2z M22.5,123c0,0.5,0.2,1.1,0.5,1.5
			c0.3,0.4,0.8,0.6,1.3,0.6c0.5,0,1-0.2,1.3-0.6c0.7-0.9,0.7-2.1,0-2.9c-0.6-0.7-1.7-0.7-2.4-0.1c0,0,0,0,0,0l0,0l-0.1,0.1
			C22.8,121.9,22.6,122.4,22.5,123z"/>
		<path class="st3" d="M26,115.2h1.5v11H26v-0.6c-0.5,0.5-1.3,0.8-2,0.8c-0.8,0-1.6-0.4-2.2-1c-0.6-0.7-0.9-1.6-0.8-2.5
			c0-0.9,0.3-1.7,0.9-2.4c0.5-0.6,1.3-1,2.2-1c0.8,0,1.5,0.3,2,0.9L26,115.2z M22.5,123c0,0.5,0.2,1.1,0.5,1.5
			c0.3,0.4,0.8,0.6,1.3,0.6c0.5,0,1-0.2,1.3-0.6c0.7-0.9,0.7-2.1,0-2.9c-0.6-0.7-1.7-0.7-2.4-0.1c0,0,0,0,0,0l0,0l-0.1,0.1
			C22.8,121.9,22.6,122.4,22.5,123z"/>
		<path class="st1" d="M34,119.8h1.5v6.4H34v-0.6c-1.1,1.1-2.9,1.1-4,0.1c-0.1,0-0.1-0.1-0.1-0.2c-0.6-0.7-0.9-1.5-0.8-2.4
			c0-0.9,0.3-1.7,0.8-2.4c0.5-0.6,1.3-1,2.2-1c0.8,0,1.5,0.3,2,0.9L34,119.8z M30.5,123c0,0.5,0.2,1.1,0.5,1.5
			c0.3,0.4,0.8,0.6,1.3,0.6c0.5,0,1-0.2,1.3-0.6c0.7-0.9,0.7-2.1,0-2.9c-0.7-0.7-1.8-0.7-2.5-0.1l0,0l-0.1,0.1
			C30.8,121.9,30.6,122.4,30.5,123z"/>
		<path class="st3" d="M34,119.8h1.5v6.4H34v-0.6c-1.1,1.1-2.9,1.1-4,0.1c-0.1,0-0.1-0.1-0.1-0.2c-0.6-0.7-0.9-1.5-0.8-2.4
			c0-0.9,0.3-1.7,0.8-2.4c0.5-0.6,1.3-1,2.2-1c0.8,0,1.5,0.3,2,0.9L34,119.8z M30.5,123c0,0.5,0.2,1.1,0.5,1.5
			c0.3,0.4,0.8,0.6,1.3,0.6c0.5,0,1-0.2,1.3-0.6c0.7-0.9,0.7-2.1,0-2.9c-0.7-0.7-1.8-0.7-2.5-0.1l0,0l-0.1,0.1
			C30.8,121.9,30.6,122.4,30.5,123z"/>
		<path class="st1" d="M37.3,119.8h1.5v0.6c0.4-0.5,1.1-0.8,1.7-0.8c0.7-0.1,1.3,0.2,1.7,0.7c0.4,0.6,0.6,1.2,0.5,1.9v3.9h-1.5v-3.6
			c0-0.4,0-0.9-0.2-1.3c-0.3-0.3-0.6-0.4-1-0.4c-0.4-0.1-0.8,0.2-1,0.5c-0.2,0.5-0.3,1.1-0.3,1.7v3.1h-1.5V119.8z"/>
		<path class="st3" d="M37.3,119.8h1.5v0.6c0.4-0.5,1.1-0.8,1.7-0.8c0.7-0.1,1.3,0.2,1.7,0.7c0.4,0.6,0.6,1.2,0.5,1.9v3.9h-1.5v-3.6
			c0-0.4,0-0.9-0.2-1.3c-0.3-0.3-0.6-0.4-1-0.4c-0.4-0.1-0.8,0.2-1,0.5c-0.2,0.5-0.3,1.1-0.3,1.7v3.1h-1.5V119.8z"/>
		<path class="st1" d="M50.8,126.1v0.8c0,0.2-0.1,0.4-0.1,0.6c-0.1,0.5-0.3,0.9-0.6,1.2c-0.6,0.7-1.5,1-2.3,1
			c-0.8,0-1.5-0.2-2.1-0.7c-0.6-0.5-1-1.2-1-2h1.5c0.1,0.2,0.1,0.5,0.3,0.7c0.3,0.4,0.8,0.6,1.3,0.6c1.1,0,1.6-0.6,1.6-2v-0.9
			c-0.5,0.6-1.2,0.9-2,0.9c-0.8,0-1.6-0.4-2.1-1c-0.6-0.6-0.9-1.5-0.8-2.4c0-0.8,0.3-1.7,0.8-2.4c1-1.2,2.7-1.4,3.9-0.4
			c0.1,0.1,0.2,0.2,0.3,0.3v-0.8h1.5V126.1z M49.4,123.1c0-0.5-0.1-1.1-0.5-1.5c-0.6-0.7-1.7-0.8-2.4-0.1c-0.1,0.1-0.1,0.1-0.2,0.2
			c-0.3,0.4-0.5,0.9-0.4,1.5c0,0.5,0.1,1,0.4,1.4c0.6,0.7,1.7,0.9,2.4,0.3c0,0,0,0,0,0c0.1-0.1,0.2-0.2,0.3-0.3
			C49.3,124.1,49.5,123.5,49.4,123.1L49.4,123.1z"/>
		<path class="st3" d="M50.8,126.1v0.8c0,0.2-0.1,0.4-0.1,0.6c-0.1,0.5-0.3,0.9-0.6,1.2c-0.6,0.7-1.5,1-2.3,1
			c-0.8,0-1.5-0.2-2.1-0.7c-0.6-0.5-1-1.2-1-2h1.5c0.1,0.2,0.1,0.5,0.3,0.7c0.3,0.4,0.8,0.6,1.3,0.6c1.1,0,1.6-0.6,1.6-2v-0.9
			c-0.5,0.6-1.2,0.9-2,0.9c-0.8,0-1.6-0.4-2.1-1c-0.6-0.6-0.9-1.5-0.8-2.4c0-0.8,0.3-1.7,0.8-2.4c1-1.2,2.7-1.4,3.9-0.4
			c0.1,0.1,0.2,0.2,0.3,0.3v-0.8h1.5V126.1z M49.4,123.1c0-0.5-0.1-1.1-0.5-1.5c-0.6-0.7-1.7-0.8-2.4-0.1c-0.1,0.1-0.1,0.1-0.2,0.2
			c-0.3,0.4-0.5,0.9-0.4,1.5c0,0.5,0.1,1,0.4,1.4c0.6,0.7,1.7,0.9,2.4,0.3c0,0,0,0,0,0c0.1-0.1,0.2-0.2,0.3-0.3
			C49.3,124.1,49.5,123.5,49.4,123.1L49.4,123.1z"/>
		<path class="st1" d="M58.5,123.4h-4.6c0,0.5,0.2,0.9,0.5,1.3c0.3,0.3,0.7,0.5,1.2,0.4c0.3,0,0.6-0.1,0.9-0.2
			c0.3-0.3,0.6-0.6,0.8-1l1.2,0.7c-0.2,0.3-0.4,0.6-0.6,0.8c-0.2,0.2-0.4,0.4-0.7,0.6c-0.2,0.1-0.5,0.2-0.8,0.3
			c-0.3,0.1-0.6,0.1-0.9,0.1c-0.9,0-1.7-0.3-2.3-0.9c-0.6-0.7-0.9-1.5-0.9-2.4c-0.1-0.9,0.2-1.8,0.8-2.4c1.2-1.2,3.2-1.2,4.5,0
			c0.6,0.7,0.9,1.6,0.8,2.5L58.5,123.4z M57,122.2c-0.1-0.7-0.8-1.2-1.5-1.2c-0.2,0-0.3,0-0.5,0.1c-0.2,0.1-0.3,0.1-0.4,0.2
			c-0.1,0.1-0.2,0.2-0.3,0.4c-0.1,0.1-0.2,0.3-0.2,0.5L57,122.2z"/>
		<path class="st3" d="M58.5,123.4h-4.6c0,0.5,0.2,0.9,0.5,1.3c0.3,0.3,0.7,0.5,1.2,0.4c0.3,0,0.6-0.1,0.9-0.2
			c0.3-0.3,0.6-0.6,0.8-1l1.2,0.7c-0.2,0.3-0.4,0.6-0.6,0.8c-0.2,0.2-0.4,0.4-0.7,0.6c-0.2,0.1-0.5,0.2-0.8,0.3
			c-0.3,0.1-0.6,0.1-0.9,0.1c-0.9,0-1.7-0.3-2.3-0.9c-0.6-0.7-0.9-1.5-0.9-2.4c-0.1-0.9,0.2-1.8,0.8-2.4c1.2-1.2,3.2-1.2,4.5,0
			c0.6,0.7,0.9,1.6,0.8,2.5L58.5,123.4z M57,122.2c-0.1-0.7-0.8-1.2-1.5-1.2c-0.2,0-0.3,0-0.5,0.1c-0.2,0.1-0.3,0.1-0.4,0.2
			c-0.1,0.1-0.2,0.2-0.3,0.4c-0.1,0.1-0.2,0.3-0.2,0.5L57,122.2z"/>
		<path class="st1" d="M60.1,119.8h1.5v0.6c0.2-0.2,0.4-0.4,0.7-0.6c0.2-0.1,0.5-0.2,0.8-0.1c0.4,0,0.9,0.1,1.2,0.4l-0.7,1.3
			c-0.2-0.2-0.5-0.3-0.8-0.3c-0.8,0-1.2,0.6-1.2,1.8v3.3H60L60.1,119.8L60.1,119.8z"/>
		<path class="st3" d="M60.1,119.8h1.5v0.6c0.2-0.2,0.4-0.4,0.7-0.6c0.2-0.1,0.5-0.2,0.8-0.1c0.4,0,0.9,0.1,1.2,0.4l-0.7,1.3
			c-0.2-0.2-0.5-0.3-0.8-0.3c-0.8,0-1.2,0.6-1.2,1.8v3.3H60L60.1,119.8L60.1,119.8z"/>
		<path class="st1" d="M64.7,122.9c0-0.9,0.4-1.7,1-2.4c1.4-1.3,3.5-1.3,4.8,0c1.3,1.3,1.4,3.4,0.1,4.7c0,0,0,0,0,0l-0.1,0.1
			c-1.4,1.3-3.5,1.3-4.8,0C65,124.7,64.6,123.8,64.7,122.9z M66.2,122.9c0,0.6,0.2,1.1,0.5,1.5c0.4,0.4,0.9,0.6,1.4,0.6
			c0.5,0.1,1-0.1,1.3-0.5c0.7-0.9,0.7-2.1,0-3c-0.4-0.4-0.9-0.6-1.4-0.6c-0.5,0-1,0.2-1.3,0.6C66.4,121.9,66.2,122.4,66.2,122.9z"/>
		<path class="st3" d="M64.7,122.9c0-0.9,0.4-1.7,1-2.4c1.4-1.3,3.5-1.3,4.8,0c1.3,1.3,1.4,3.4,0.1,4.7c0,0,0,0,0,0l-0.1,0.1
			c-1.4,1.3-3.5,1.3-4.8,0C65,124.7,64.6,123.8,64.7,122.9z M66.2,122.9c0,0.6,0.2,1.1,0.5,1.5c0.4,0.4,0.9,0.6,1.4,0.6
			c0.5,0.1,1-0.1,1.3-0.5c0.7-0.9,0.7-2.1,0-3c-0.4-0.4-0.9-0.6-1.4-0.6c-0.5,0-1,0.2-1.3,0.6C66.4,121.9,66.2,122.4,66.2,122.9z"/>
		<path class="st1" d="M74.5,119.8v3.6c0,1.1,0.4,1.6,1.3,1.6s1.3-0.5,1.3-1.6v-3.6h1.5v3.7c0,0.5-0.1,0.9-0.2,1.3
			c-0.6,1.4-2.2,2-3.6,1.4c-0.3-0.1-0.6-0.3-0.8-0.5c-0.3-0.3-0.5-0.6-0.6-0.9c-0.1-0.4-0.2-0.9-0.2-1.3v-3.7H74.5z"/>
		<path class="st3" d="M74.5,119.8v3.6c0,1.1,0.4,1.6,1.3,1.6s1.3-0.5,1.3-1.6v-3.6h1.5v3.7c0,0.5-0.1,0.9-0.2,1.3
			c-0.6,1.4-2.2,2-3.6,1.4c-0.3-0.1-0.6-0.3-0.8-0.5c-0.3-0.3-0.5-0.6-0.6-0.9c-0.1-0.4-0.2-0.9-0.2-1.3v-3.7H74.5z"/>
		<path class="st1" d="M84,120.9l-1.2,0.6c-0.2-0.4-0.4-0.6-0.7-0.6c-0.1,0-0.2,0-0.3,0.1c-0.1,0.1-0.1,0.2-0.1,0.3
			c0,0.2,0.2,0.5,0.8,0.7c0.6,0.2,1.1,0.6,1.6,1c0.3,0.3,0.4,0.7,0.4,1.2c0,0.6-0.3,1.1-0.7,1.5c-0.4,0.4-1,0.6-1.6,0.6
			c-1,0-2-0.6-2.3-1.5l1.3-0.6l0.4,0.6c0.2,0.2,0.4,0.3,0.6,0.3c0.5,0,0.8-0.3,0.8-0.7c0-0.3-0.2-0.5-0.6-0.8l-0.4-0.2l-0.4-0.2
			c-0.3-0.2-0.6-0.4-0.9-0.6c-0.2-0.3-0.3-0.6-0.3-1c0-0.5,0.2-1,0.6-1.4c0.4-0.4,0.9-0.6,1.4-0.5C83,119.7,83.7,120.1,84,120.9z"/>
		<path class="st3" d="M84,120.9l-1.2,0.6c-0.2-0.4-0.4-0.6-0.7-0.6c-0.1,0-0.2,0-0.3,0.1c-0.1,0.1-0.1,0.2-0.1,0.3
			c0,0.2,0.2,0.5,0.8,0.7c0.6,0.2,1.1,0.6,1.6,1c0.3,0.3,0.4,0.7,0.4,1.2c0,0.6-0.3,1.1-0.7,1.5c-0.4,0.4-1,0.6-1.6,0.6
			c-1,0-2-0.6-2.3-1.5l1.3-0.6l0.4,0.6c0.2,0.2,0.4,0.3,0.6,0.3c0.5,0,0.8-0.3,0.8-0.7c0-0.3-0.2-0.5-0.6-0.8l-0.4-0.2l-0.4-0.2
			c-0.3-0.2-0.6-0.4-0.9-0.6c-0.2-0.3-0.3-0.6-0.3-1c0-0.5,0.2-1,0.6-1.4c0.4-0.4,0.9-0.6,1.4-0.5C83,119.7,83.7,120.1,84,120.9z"/>
		<path class="st1" d="M94.8,120.1v2c-0.2-0.3-0.5-0.6-0.9-0.8c-0.3-0.2-0.6-0.3-1-0.3c-0.5,0-1,0.2-1.4,0.6
			c-0.4,0.4-0.6,0.9-0.6,1.5c0,0.5,0.2,1,0.5,1.5c0.3,0.4,0.8,0.6,1.3,0.6c0.4,0,0.7-0.1,1-0.3c0.4-0.2,0.7-0.5,0.9-0.9v1.9
			c-0.5,0.3-1.2,0.5-1.8,0.4c-0.9,0-1.8-0.4-2.5-1c-0.6-0.6-1-1.5-1-2.3c0-1.9,1.5-3.4,3.4-3.4h0.1
			C93.6,119.6,94.2,119.7,94.8,120.1z"/>
		<path class="st3" d="M94.8,120.1v2c-0.2-0.3-0.5-0.6-0.9-0.8c-0.3-0.2-0.6-0.3-1-0.3c-0.5,0-1,0.2-1.4,0.6
			c-0.4,0.4-0.6,0.9-0.6,1.5c0,0.5,0.2,1,0.5,1.5c0.3,0.4,0.8,0.6,1.3,0.6c0.4,0,0.7-0.1,1-0.3c0.4-0.2,0.7-0.5,0.9-0.9v1.9
			c-0.5,0.3-1.2,0.5-1.8,0.4c-0.9,0-1.8-0.4-2.5-1c-0.6-0.6-1-1.5-1-2.3c0-1.9,1.5-3.4,3.4-3.4h0.1
			C93.6,119.6,94.2,119.7,94.8,120.1z"/>
		<path class="st1" d="M100.9,119.8h1.5v6.4h-1.5v-0.6c-1.1,1.1-2.9,1.1-4,0.1c-0.1-0.1-0.1-0.1-0.1-0.2c-0.6-0.7-0.9-1.5-0.8-2.4
			c-0.1-0.9,0.3-1.8,0.9-2.4c0.5-0.6,1.3-1,2.2-1c0.8,0,1.5,0.3,2,0.9L100.9,119.8z M97.4,123c0,0.5,0.2,1.1,0.5,1.5
			c0.3,0.4,0.8,0.6,1.3,0.6c0.5,0,1-0.2,1.3-0.6c0.7-0.9,0.7-2.1,0-2.9c-0.3-0.4-0.8-0.6-1.3-0.6c-0.5,0-1,0.2-1.3,0.6
			C97.6,121.9,97.4,122.5,97.4,123z"/>
		<path class="st3" d="M100.9,119.8h1.5v6.4h-1.5v-0.6c-1.1,1.1-2.9,1.1-4,0.1c-0.1-0.1-0.1-0.1-0.1-0.2c-0.6-0.7-0.9-1.5-0.8-2.4
			c-0.1-0.9,0.3-1.8,0.9-2.4c0.5-0.6,1.3-1,2.2-1c0.8,0,1.5,0.3,2,0.9L100.9,119.8z M97.4,123c0,0.5,0.2,1.1,0.5,1.5
			c0.3,0.4,0.8,0.6,1.3,0.6c0.5,0,1-0.2,1.3-0.6c0.7-0.9,0.7-2.1,0-2.9c-0.3-0.4-0.8-0.6-1.3-0.6c-0.5,0-1,0.2-1.3,0.6
			C97.6,121.9,97.4,122.5,97.4,123z"/>
		<path class="st1" d="M104.2,119.8h1.5v0.6c0.2-0.2,0.4-0.4,0.7-0.6c0.2-0.1,0.5-0.2,0.8-0.1c0.4,0,0.9,0.1,1.2,0.4l-0.6,1.3
			c-0.2-0.2-0.5-0.3-0.8-0.3c-0.8,0-1.2,0.6-1.2,1.8v3.3h-1.5L104.2,119.8z"/>
		<path class="st3" d="M104.2,119.8h1.5v0.6c0.2-0.2,0.4-0.4,0.7-0.6c0.2-0.1,0.5-0.2,0.8-0.1c0.4,0,0.9,0.1,1.2,0.4l-0.6,1.3
			c-0.2-0.2-0.5-0.3-0.8-0.3c-0.8,0-1.2,0.6-1.2,1.8v3.3h-1.5L104.2,119.8z"/>
		<path class="st1" d="M115.4,126.1v0.8c0,0.2-0.1,0.4-0.1,0.6c-0.1,0.4-0.3,0.9-0.6,1.2c-0.6,0.7-1.5,1-2.4,1
			c-0.8,0-1.5-0.2-2.1-0.7c-0.6-0.5-1-1.2-1-2h1.5c0,0.2,0.1,0.5,0.2,0.7c0.3,0.4,0.8,0.6,1.3,0.6c1.1,0,1.6-0.6,1.6-2v-0.9
			c-0.5,0.6-1.2,0.9-2,0.9c-0.8,0-1.6-0.4-2.1-1c-0.6-0.6-0.9-1.5-0.8-2.4c0-0.9,0.3-1.7,0.8-2.4c0.5-0.7,1.4-1.1,2.2-1
			c0.8,0,1.5,0.3,2,0.9v-0.8h1.5L115.4,126.1L115.4,126.1z M114,123.1c0-0.5-0.1-1.1-0.5-1.5c-0.3-0.4-0.8-0.6-1.3-0.6
			c-0.5,0-1,0.2-1.3,0.6c-0.3,0.4-0.5,0.9-0.4,1.5c0,0.5,0.1,1,0.4,1.4c0.6,0.7,1.7,0.9,2.4,0.3c0,0,0,0,0,0
			c0.1-0.1,0.2-0.2,0.3-0.3C113.9,124.1,114.1,123.5,114,123.1L114,123.1z"/>
		<path class="st3" d="M115.4,126.1v0.8c0,0.2-0.1,0.4-0.1,0.6c-0.1,0.4-0.3,0.9-0.6,1.2c-0.6,0.7-1.5,1-2.4,1
			c-0.8,0-1.5-0.2-2.1-0.7c-0.6-0.5-1-1.2-1-2h1.5c0,0.2,0.1,0.5,0.2,0.7c0.3,0.4,0.8,0.6,1.3,0.6c1.1,0,1.6-0.6,1.6-2v-0.9
			c-0.5,0.6-1.2,0.9-2,0.9c-0.8,0-1.6-0.4-2.1-1c-0.6-0.6-0.9-1.5-0.8-2.4c0-0.9,0.3-1.7,0.8-2.4c0.5-0.7,1.4-1.1,2.2-1
			c0.8,0,1.5,0.3,2,0.9v-0.8h1.5L115.4,126.1L115.4,126.1z M114,123.1c0-0.5-0.1-1.1-0.5-1.5c-0.3-0.4-0.8-0.6-1.3-0.6
			c-0.5,0-1,0.2-1.3,0.6c-0.3,0.4-0.5,0.9-0.4,1.5c0,0.5,0.1,1,0.4,1.4c0.6,0.7,1.7,0.9,2.4,0.3c0,0,0,0,0,0
			c0.1-0.1,0.2-0.2,0.3-0.3C113.9,124.1,114.1,123.5,114,123.1L114,123.1z"/>
		<path class="st1" d="M117,122.9c0-0.9,0.4-1.7,1-2.4c1.4-1.3,3.5-1.3,4.8,0c1.3,1.3,1.4,3.4,0.1,4.7c0,0,0,0,0,0l-0.1,0.1
			c-1.4,1.3-3.5,1.3-4.8,0C117.3,124.7,116.9,123.8,117,122.9z M118.5,122.9c0,0.6,0.2,1.1,0.5,1.5c0.8,0.8,2,0.8,2.8,0
			c0.7-0.9,0.7-2.1,0-3c-0.8-0.7-2-0.7-2.7,0l0,0C118.7,121.8,118.5,122.4,118.5,122.9L118.5,122.9z"/>
		<path class="st3" d="M117,122.9c0-0.9,0.4-1.7,1-2.4c1.4-1.3,3.5-1.3,4.8,0c1.3,1.3,1.4,3.4,0.1,4.7c0,0,0,0,0,0l-0.1,0.1
			c-1.4,1.3-3.5,1.3-4.8,0C117.3,124.7,116.9,123.8,117,122.9z M118.5,122.9c0,0.6,0.2,1.1,0.5,1.5c0.8,0.8,2,0.8,2.8,0
			c0.7-0.9,0.7-2.1,0-3c-0.8-0.7-2-0.7-2.7,0l0,0C118.7,121.8,118.5,122.4,118.5,122.9L118.5,122.9z"/>
		<path class="st1" d="M126.2,124.3l1.3,0.5l-1.8,3.7l-1-0.4L126.2,124.3z M125.9,120.6c0-0.2,0.1-0.5,0.3-0.6
			c0.2-0.2,0.4-0.3,0.6-0.2c0.5,0,0.9,0.4,0.9,0.8c0,0,0,0,0,0l0,0c0,0.2-0.1,0.5-0.2,0.6c-0.2,0.2-0.4,0.3-0.6,0.2
			c-0.2,0-0.4-0.1-0.6-0.2C126,121,125.9,120.8,125.9,120.6z"/>
		<path class="st3" d="M126.2,124.3l1.3,0.5l-1.8,3.7l-1-0.4L126.2,124.3z M125.9,120.6c0-0.2,0.1-0.5,0.3-0.6
			c0.2-0.2,0.4-0.3,0.6-0.2c0.5,0,0.9,0.4,0.9,0.8c0,0,0,0,0,0l0,0c0,0.2-0.1,0.5-0.2,0.6c-0.2,0.2-0.4,0.3-0.6,0.2
			c-0.2,0-0.4-0.1-0.6-0.2C126,121,125.9,120.8,125.9,120.6z"/>
		<polygon class="st1" points="44.2,129.7 44.2,136.4 46.2,134.3 48.2,134.3 45.5,137 48.4,140.7 46.5,140.7 44.4,138 44.2,138.3 
			44.2,140.7 42.7,140.7 42.7,129.7 		"/>
		<polygon class="st3" points="44.2,129.7 44.2,136.4 46.2,134.3 48.2,134.3 45.5,137 48.4,140.7 46.5,140.7 44.4,138 44.2,138.3 
			44.2,140.7 42.7,140.7 42.7,129.7 		"/>
		<path class="st1" d="M54.9,137.9h-4.5c0,0.5,0.2,0.9,0.5,1.3c0.3,0.3,0.7,0.5,1.1,0.4c0.3,0,0.6-0.1,0.9-0.2
			c0.3-0.3,0.6-0.6,0.8-1l1.2,0.7c-0.2,0.3-0.4,0.6-0.6,0.8c-0.2,0.2-0.4,0.4-0.7,0.6c-0.2,0.1-0.5,0.2-0.8,0.3
			c-0.3,0.1-0.6,0.1-0.9,0.1c-0.9,0-1.7-0.3-2.3-0.9c-0.6-0.7-0.9-1.5-0.9-2.4c-0.1-0.9,0.2-1.8,0.8-2.4c1.2-1.2,3.2-1.2,4.5,0
			c0.6,0.7,0.9,1.6,0.8,2.5L54.9,137.9z M53.5,136.7c-0.1-0.7-0.8-1.2-1.5-1.1c-0.2,0-0.3,0-0.5,0.1c-0.3,0.1-0.6,0.3-0.8,0.6
			c-0.1,0.1-0.2,0.3-0.2,0.5L53.5,136.7L53.5,136.7z"/>
		<path class="st3" d="M54.9,137.9h-4.5c0,0.5,0.2,0.9,0.5,1.3c0.3,0.3,0.7,0.5,1.1,0.4c0.3,0,0.6-0.1,0.9-0.2
			c0.3-0.3,0.6-0.6,0.8-1l1.2,0.7c-0.2,0.3-0.4,0.6-0.6,0.8c-0.2,0.2-0.4,0.4-0.7,0.6c-0.2,0.1-0.5,0.2-0.8,0.3
			c-0.3,0.1-0.6,0.1-0.9,0.1c-0.9,0-1.7-0.3-2.3-0.9c-0.6-0.7-0.9-1.5-0.9-2.4c-0.1-0.9,0.2-1.8,0.8-2.4c1.2-1.2,3.2-1.2,4.5,0
			c0.6,0.7,0.9,1.6,0.8,2.5L54.9,137.9z M53.5,136.7c-0.1-0.7-0.8-1.2-1.5-1.1c-0.2,0-0.3,0-0.5,0.1c-0.3,0.1-0.6,0.3-0.8,0.6
			c-0.1,0.1-0.2,0.3-0.2,0.5L53.5,136.7L53.5,136.7z"/>
		<path class="st1" d="M62.4,137.9h-4.6c0,0.5,0.2,0.9,0.5,1.3c0.3,0.3,0.7,0.5,1.1,0.4c0.3,0,0.6-0.1,0.9-0.2
			c0.3-0.3,0.6-0.6,0.8-1l1.2,0.7c-0.2,0.3-0.4,0.6-0.6,0.8c-0.2,0.2-0.4,0.4-0.7,0.6c-0.2,0.1-0.5,0.2-0.8,0.3
			c-0.3,0.1-0.6,0.1-0.9,0.1c-0.9,0-1.7-0.3-2.3-0.9c-0.6-0.7-0.9-1.5-0.9-2.4c-0.1-0.9,0.2-1.8,0.8-2.5c1.2-1.2,3.2-1.2,4.5,0
			c0.6,0.7,0.9,1.6,0.8,2.5L62.4,137.9z M60.9,136.7c-0.1-0.7-0.8-1.2-1.5-1.1c-0.2,0-0.3,0-0.5,0.1c-0.2,0.1-0.3,0.1-0.5,0.2
			c-0.1,0.1-0.2,0.2-0.3,0.4c-0.1,0.2-0.2,0.3-0.2,0.5L60.9,136.7L60.9,136.7z"/>
		<path class="st3" d="M62.4,137.9h-4.6c0,0.5,0.2,0.9,0.5,1.3c0.3,0.3,0.7,0.5,1.1,0.4c0.3,0,0.6-0.1,0.9-0.2
			c0.3-0.3,0.6-0.6,0.8-1l1.2,0.7c-0.2,0.3-0.4,0.6-0.6,0.8c-0.2,0.2-0.4,0.4-0.7,0.6c-0.2,0.1-0.5,0.2-0.8,0.3
			c-0.3,0.1-0.6,0.1-0.9,0.1c-0.9,0-1.7-0.3-2.3-0.9c-0.6-0.7-0.9-1.5-0.9-2.4c-0.1-0.9,0.2-1.8,0.8-2.5c1.2-1.2,3.2-1.2,4.5,0
			c0.6,0.7,0.9,1.6,0.8,2.5L62.4,137.9z M60.9,136.7c-0.1-0.7-0.8-1.2-1.5-1.1c-0.2,0-0.3,0-0.5,0.1c-0.2,0.1-0.3,0.1-0.5,0.2
			c-0.1,0.1-0.2,0.2-0.3,0.4c-0.1,0.2-0.2,0.3-0.2,0.5L60.9,136.7L60.9,136.7z"/>
		<path class="st1" d="M65.5,144.1H64v-9.8h1.5v0.7c0.5-0.6,1.2-0.9,2-0.9c0.8,0,1.6,0.4,2.2,1c0.6,0.7,0.9,1.5,0.9,2.4
			c0,0.9-0.3,1.7-0.8,2.4c-1,1.2-2.8,1.3-4,0.3c0,0,0,0,0,0l0,0l-0.1-0.2L65.5,144.1L65.5,144.1z M69,137.6c0-0.5-0.2-1.1-0.5-1.5
			c-0.3-0.4-0.8-0.6-1.3-0.6c-0.5,0-1,0.2-1.3,0.6c-0.3,0.4-0.5,0.9-0.5,1.5c0,0.5,0.2,1.1,0.5,1.5c0.3,0.4,0.8,0.6,1.3,0.6
			c0.5,0,1-0.2,1.3-0.6C68.8,138.6,68.9,138.1,69,137.6L69,137.6z"/>
		<path class="st3" d="M65.5,144.1H64v-9.8h1.5v0.7c0.5-0.6,1.2-0.9,2-0.9c0.8,0,1.6,0.4,2.2,1c0.6,0.7,0.9,1.5,0.9,2.4
			c0,0.9-0.3,1.7-0.8,2.4c-1,1.2-2.8,1.3-4,0.3c0,0,0,0,0,0l0,0l-0.1-0.2L65.5,144.1L65.5,144.1z M69,137.6c0-0.5-0.2-1.1-0.5-1.5
			c-0.3-0.4-0.8-0.6-1.3-0.6c-0.5,0-1,0.2-1.3,0.6c-0.3,0.4-0.5,0.9-0.5,1.5c0,0.5,0.2,1.1,0.5,1.5c0.3,0.4,0.8,0.6,1.3,0.6
			c0.5,0,1-0.2,1.3-0.6C68.8,138.6,68.9,138.1,69,137.6L69,137.6z"/>
		<path class="st1" d="M81.1,134.6v2c-0.2-0.3-0.5-0.6-0.9-0.8c-0.3-0.2-0.6-0.3-0.9-0.2c-1.1,0-2,0.8-2,1.9c0,0,0,0.1,0,0.1
			c0,0.5,0.2,1,0.5,1.5c0.3,0.4,0.8,0.6,1.3,0.6c0.4,0,0.7-0.1,1-0.2c0.4-0.2,0.7-0.5,0.9-0.9v1.9c-0.5,0.3-1.2,0.5-1.8,0.4
			c-0.9,0-1.8-0.4-2.5-1c-1.3-1.3-1.3-3.4,0-4.7c0.6-0.6,1.5-1,2.4-1h0.1C79.9,134.1,80.5,134.3,81.1,134.6z"/>
		<path class="st3" d="M81.1,134.6v2c-0.2-0.3-0.5-0.6-0.9-0.8c-0.3-0.2-0.6-0.3-0.9-0.2c-1.1,0-2,0.8-2,1.9c0,0,0,0.1,0,0.1
			c0,0.5,0.2,1,0.5,1.5c0.3,0.4,0.8,0.6,1.3,0.6c0.4,0,0.7-0.1,1-0.2c0.4-0.2,0.7-0.5,0.9-0.9v1.9c-0.5,0.3-1.2,0.5-1.8,0.4
			c-0.9,0-1.8-0.4-2.5-1c-1.3-1.3-1.3-3.4,0-4.7c0.6-0.6,1.5-1,2.4-1h0.1C79.9,134.1,80.5,134.3,81.1,134.6z"/>
		<rect x="82.5" y="129.7" class="st1" width="1.5" height="11"/>
		<rect x="82.5" y="129.7" class="st3" width="1.5" height="11"/>
		<path class="st1" d="M91.6,137.9H87c0,0.5,0.2,0.9,0.5,1.3c0.3,0.3,0.7,0.5,1.2,0.4c0.3,0,0.6-0.1,0.9-0.2c0.3-0.3,0.6-0.6,0.8-1
			l1.3,0.7c-0.2,0.3-0.4,0.6-0.6,0.8c-0.2,0.2-0.4,0.4-0.7,0.6c-0.2,0.1-0.5,0.2-0.8,0.3c-0.3,0.1-0.7,0.1-1,0.1
			c-0.9,0-1.7-0.3-2.3-0.9c-0.6-0.7-0.9-1.5-0.9-2.4c-0.1-0.9,0.3-1.8,0.9-2.5c1.2-1.2,3.2-1.2,4.5,0c0.6,0.7,0.9,1.6,0.8,2.5
			L91.6,137.9z M90.1,136.7c-0.1-0.7-0.8-1.2-1.5-1.1c-0.4,0-0.7,0.1-1,0.3c-0.1,0.1-0.2,0.2-0.3,0.4c-0.1,0.2-0.2,0.3-0.2,0.5
			L90.1,136.7L90.1,136.7z"/>
		<path class="st3" d="M91.6,137.9H87c0,0.5,0.2,0.9,0.5,1.3c0.3,0.3,0.7,0.5,1.2,0.4c0.3,0,0.6-0.1,0.9-0.2c0.3-0.3,0.6-0.6,0.8-1
			l1.3,0.7c-0.2,0.3-0.4,0.6-0.6,0.8c-0.2,0.2-0.4,0.4-0.7,0.6c-0.2,0.1-0.5,0.2-0.8,0.3c-0.3,0.1-0.7,0.1-1,0.1
			c-0.9,0-1.7-0.3-2.3-0.9c-0.6-0.7-0.9-1.5-0.9-2.4c-0.1-0.9,0.3-1.8,0.9-2.5c1.2-1.2,3.2-1.2,4.5,0c0.6,0.7,0.9,1.6,0.8,2.5
			L91.6,137.9z M90.1,136.7c-0.1-0.7-0.8-1.2-1.5-1.1c-0.4,0-0.7,0.1-1,0.3c-0.1,0.1-0.2,0.2-0.3,0.4c-0.1,0.2-0.2,0.3-0.2,0.5
			L90.1,136.7L90.1,136.7z"/>
		<path class="st1" d="M97.9,134.3h1.5v6.4h-1.5v-0.6c-1.1,1.1-2.9,1.1-4,0.1c-0.1,0-0.1-0.1-0.1-0.2c-0.6-0.7-0.9-1.5-0.8-2.4
			c0-0.9,0.3-1.7,0.8-2.4c0.5-0.6,1.3-1,2.2-1c0.8,0,1.5,0.3,2,0.9L97.9,134.3z M94.4,137.5c0,0.5,0.2,1.1,0.5,1.5
			c0.3,0.4,0.8,0.6,1.3,0.6c0.5,0,1-0.2,1.3-0.6c0.7-0.9,0.7-2.1,0-2.9c-0.3-0.4-0.8-0.6-1.3-0.6c-0.5,0-1,0.2-1.3,0.6
			C94.6,136.5,94.4,137,94.4,137.5L94.4,137.5z"/>
		<path class="st3" d="M97.9,134.3h1.5v6.4h-1.5v-0.6c-1.1,1.1-2.9,1.1-4,0.1c-0.1,0-0.1-0.1-0.1-0.2c-0.6-0.7-0.9-1.5-0.8-2.4
			c0-0.9,0.3-1.7,0.8-2.4c0.5-0.6,1.3-1,2.2-1c0.8,0,1.5,0.3,2,0.9L97.9,134.3z M94.4,137.5c0,0.5,0.2,1.1,0.5,1.5
			c0.3,0.4,0.8,0.6,1.3,0.6c0.5,0,1-0.2,1.3-0.6c0.7-0.9,0.7-2.1,0-2.9c-0.3-0.4-0.8-0.6-1.3-0.6c-0.5,0-1,0.2-1.3,0.6
			C94.6,136.5,94.4,137,94.4,137.5L94.4,137.5z"/>
		<path class="st1" d="M101.2,134.3h1.5v0.6c0.2-0.2,0.4-0.4,0.7-0.6c0.2-0.1,0.5-0.2,0.8-0.1c0.4,0,0.9,0.1,1.2,0.4l-0.6,1.3
			c-0.2-0.2-0.5-0.3-0.8-0.3c-0.8,0-1.2,0.6-1.2,1.8v3.3h-1.5V134.3z"/>
		<path class="st3" d="M101.2,134.3h1.5v0.6c0.2-0.2,0.4-0.4,0.7-0.6c0.2-0.1,0.5-0.2,0.8-0.1c0.4,0,0.9,0.1,1.2,0.4l-0.6,1.3
			c-0.2-0.2-0.5-0.3-0.8-0.3c-0.8,0-1.2,0.6-1.2,1.8v3.3h-1.5V134.3z"/>
	</g>
</g>
</svg>
