<?xml version="1.0" encoding="utf-8"?>
<!-- Generator: Adobe Illustrator 24.0.1, SVG Export Plug-In . SVG Version: 6.00 Build 0)  -->
<svg version="1.1" xmlns="http://www.w3.org/2000/svg" xmlns:xlink="http://www.w3.org/1999/xlink" x="0px" y="0px"
	 viewBox="0 0 147.8 147.8" style="enable-background:new 0 0 147.8 147.8;" xml:space="preserve">
<style type="text/css">
	.st0{fill:#000094;}
	.st1{fill:#FFCC00;}
	.st2{fill:none;stroke:#000000;stroke-width:3.75;stroke-linejoin:round;}
	.st3{fill:#FFFFFF;}
	.st4{fill:none;stroke:#000000;stroke-width:0.5;}
</style>
<g id="Layer_2">
	<title>Kilo</title>
	<rect x="1.9" y="1.9" class="st0" width="144" height="144"/>
	<rect x="1.9" y="1.9" class="st1" width="72" height="144"/>
	<path class="st2" d="M1.9,1.9h144v144H1.9V1.9z"/>
</g>
<g id="Layer_1">
	<rect x="53.2" y="95.1" class="st3" width="2" height="12.8"/>
	<rect x="53.2" y="95.1" class="st4" width="2" height="12.8"/>
	<polygon class="st3" points="64.2,99.8 66.3,104.4 68.6,99.1 70.9,104.4 73,99.8 75.1,99.8 70.9,108.5 68.6,103.3 66.3,108.5 
		62.1,99.8 	"/>
	<polygon class="st4" points="64.2,99.8 66.3,104.4 68.6,99.1 70.9,104.4 73,99.8 75.1,99.8 70.9,108.5 68.6,103.3 66.3,108.5 
		62.1,99.8 	"/>
	<path class="st3" d="M76.1,96.4c0-0.6,0.5-1.2,1.1-1.2c0,0,0,0,0,0h0.1c0.3,0,0.6,0.1,0.8,0.3c0.2,0.2,0.3,0.6,0.3,0.9
		c0,0.3-0.1,0.6-0.3,0.9c-0.2,0.2-0.6,0.3-0.9,0.3c-0.6,0.1-1.2-0.4-1.2-1C76,96.6,76,96.5,76.1,96.4L76.1,96.4z M78.2,99.8v8.1
		h-1.9v-8.1L78.2,99.8z"/>
	<path class="st4" d="M76.1,96.4c0-0.6,0.5-1.2,1.1-1.2c0,0,0,0,0,0h0.1c0.3,0,0.6,0.1,0.8,0.3c0.2,0.2,0.3,0.6,0.3,0.9
		c0,0.3-0.1,0.6-0.3,0.9c-0.2,0.2-0.6,0.3-0.9,0.3c-0.6,0.1-1.2-0.4-1.2-1C76,96.6,76,96.5,76.1,96.4L76.1,96.4z M78.2,99.8v8.1
		h-1.9v-8.1L78.2,99.8z"/>
	<path class="st3" d="M85.3,101.2l-1.6,0.8c-0.2-0.5-0.6-0.7-0.9-0.7c-0.2,0-0.3,0.1-0.4,0.2c-0.2,0.1-0.2,0.2-0.2,0.4
		c0,0.3,0.3,0.7,1.1,0.9c0.7,0.3,1.4,0.7,2,1.2c0.3,0.4,0.5,0.9,0.5,1.5c0,0.8-0.3,1.5-0.9,2c-1.3,1.1-3.2,1-4.4-0.3l0,0
		c-0.2-0.3-0.4-0.6-0.6-0.9l1.6-0.7l0.5,0.7c0.2,0.2,0.5,0.3,0.8,0.3c0.7,0,1-0.3,1-0.9c0-0.3-0.2-0.7-0.7-1l-0.6-0.2l-0.6-0.2
		c-0.4-0.2-0.8-0.5-1.1-0.8c-0.3-0.4-0.4-0.8-0.4-1.3c0-0.7,0.3-1.3,0.7-1.8c0.5-0.5,1.1-0.7,1.8-0.7C84,99.6,84.9,100.2,85.3,101.2
		z"/>
	<path class="st4" d="M85.3,101.2l-1.6,0.8c-0.2-0.5-0.6-0.7-0.9-0.7c-0.2,0-0.3,0.1-0.4,0.2c-0.2,0.1-0.2,0.2-0.2,0.4
		c0,0.3,0.3,0.7,1.1,0.9c0.7,0.3,1.4,0.7,2,1.2c0.3,0.4,0.5,0.9,0.5,1.5c0,0.8-0.3,1.5-0.9,2c-1.3,1.1-3.2,1-4.4-0.3l0,0
		c-0.2-0.3-0.4-0.6-0.6-0.9l1.6-0.7l0.5,0.7c0.2,0.2,0.5,0.3,0.8,0.3c0.7,0,1-0.3,1-0.9c0-0.3-0.2-0.7-0.7-1l-0.6-0.2l-0.6-0.2
		c-0.4-0.2-0.8-0.5-1.1-0.8c-0.3-0.4-0.4-0.8-0.4-1.3c0-0.7,0.3-1.3,0.7-1.8c0.5-0.5,1.1-0.7,1.8-0.7C84,99.6,84.9,100.2,85.3,101.2
		z"/>
	<path class="st3" d="M87.5,93.9h1.9v6.7c0.6-0.6,1.4-0.9,2.2-0.9c0.8,0,1.6,0.3,2.2,0.9c0.5,0.7,0.8,1.6,0.7,2.5v5h-1.8v-4.8
		c0.1-0.5-0.1-1-0.3-1.4c-0.3-0.3-0.7-0.5-1.1-0.4c-0.6-0.1-1.1,0.2-1.4,0.7c-0.3,0.7-0.5,1.4-0.4,2.1v3.9h-1.9V93.9z"/>
	<path class="st4" d="M87.5,93.9h1.9v6.7c0.6-0.6,1.4-0.9,2.2-0.9c0.8,0,1.6,0.3,2.2,0.9c0.5,0.7,0.8,1.6,0.7,2.5v5h-1.8v-4.8
		c0.1-0.5-0.1-1-0.3-1.4c-0.3-0.3-0.7-0.5-1.1-0.4c-0.6-0.1-1.1,0.2-1.4,0.7c-0.3,0.7-0.5,1.4-0.4,2.1v3.9h-1.9V93.9z"/>
	<polygon class="st3" points="16.6,116 16.6,122.3 14.7,122.3 14.7,116 13.9,116 13.9,114.2 14.7,114.2 14.7,111.2 16.6,111.2 
		16.6,114.2 18,114.2 18,116 	"/>
	<polygon class="st4" points="16.6,116 16.6,122.3 14.7,122.3 14.7,116 13.9,116 13.9,114.2 14.7,114.2 14.7,111.2 16.6,111.2 
		16.6,114.2 18,114.2 18,116 	"/>
	<path class="st3" d="M19.1,118.2c0-1.1,0.4-2.2,1.3-3c1.7-1.7,4.4-1.7,6.2,0c1.6,1.7,1.6,4.4,0,6.1c-1.7,1.6-4.4,1.6-6.2,0
		C19.5,120.5,19,119.3,19.1,118.2z M21,118.2c0,0.7,0.2,1.4,0.6,2c1,1,2.5,1,3.5,0l0,0c0.9-1.1,0.9-2.7,0-3.8
		c-0.5-0.5-1.1-0.7-1.8-0.7c-0.6,0-1.3,0.2-1.7,0.7C21.2,116.9,21,117.5,21,118.2z"/>
	<path class="st4" d="M19.1,118.2c0-1.1,0.4-2.2,1.3-3c1.7-1.7,4.4-1.7,6.2,0c1.6,1.7,1.6,4.4,0,6.1c-1.7,1.6-4.4,1.6-6.2,0
		C19.5,120.5,19,119.3,19.1,118.2z M21,118.2c0,0.7,0.2,1.4,0.6,2c1,1,2.5,1,3.5,0l0,0c0.9-1.1,0.9-2.7,0-3.8
		c-0.5-0.5-1.1-0.7-1.8-0.7c-0.6,0-1.3,0.2-1.7,0.7C21.2,116.9,21,117.5,21,118.2z"/>
	<path class="st3" d="M41.3,114.5v2.5c-0.3-0.4-0.7-0.7-1.1-1c-0.3-0.2-0.8-0.3-1.2-0.3c-0.7,0-1.3,0.3-1.8,0.7
		c-0.5,0.5-0.8,1.2-0.7,1.9c0,0.7,0.2,1.3,0.7,1.9c0.8,0.8,2,1,2.9,0.4c0.5-0.3,0.8-0.7,1.1-1.1v2.4c-0.7,0.4-1.5,0.6-2.3,0.6
		c-1.2,0-2.3-0.5-3.2-1.3c-1.6-1.7-1.6-4.4,0.1-6.1c0.8-0.8,2-1.3,3.2-1.2C39.7,113.9,40.5,114.1,41.3,114.5z"/>
	<path class="st4" d="M41.3,114.5v2.5c-0.3-0.4-0.7-0.7-1.1-1c-0.3-0.2-0.8-0.3-1.2-0.3c-0.7,0-1.3,0.3-1.8,0.7
		c-0.5,0.5-0.8,1.2-0.7,1.9c0,0.7,0.2,1.3,0.7,1.9c0.8,0.8,2,1,2.9,0.4c0.5-0.3,0.8-0.7,1.1-1.1v2.4c-0.7,0.4-1.5,0.6-2.3,0.6
		c-1.2,0-2.3-0.5-3.2-1.3c-1.6-1.7-1.6-4.4,0.1-6.1c0.8-0.8,2-1.3,3.2-1.2C39.7,113.9,40.5,114.1,41.3,114.5z"/>
	<path class="st3" d="M42.7,118.2c0-1.1,0.4-2.2,1.3-3c1.7-1.6,4.4-1.6,6.2,0c1.6,1.7,1.6,4.4,0,6.1c-1.7,1.6-4.4,1.6-6.2,0
		C43.2,120.4,42.7,119.3,42.7,118.2z M44.7,118.2c-0.1,0.7,0.2,1.4,0.7,2c0.5,0.5,1.1,0.7,1.8,0.7c0.7,0,1.3-0.3,1.8-0.7
		c0.9-1.1,0.9-2.7,0-3.8c-0.5-0.5-1.1-0.7-1.8-0.7C45.8,115.6,44.7,116.7,44.7,118.2L44.7,118.2L44.7,118.2z"/>
	<path class="st4" d="M42.7,118.2c0-1.1,0.4-2.2,1.3-3c1.7-1.6,4.4-1.6,6.2,0c1.6,1.7,1.6,4.4,0,6.1c-1.7,1.6-4.4,1.6-6.2,0
		C43.2,120.4,42.7,119.3,42.7,118.2z M44.7,118.2c-0.1,0.7,0.2,1.4,0.7,2c0.5,0.5,1.1,0.7,1.8,0.7c0.7,0,1.3-0.3,1.8-0.7
		c0.9-1.1,0.9-2.7,0-3.8c-0.5-0.5-1.1-0.7-1.8-0.7C45.8,115.6,44.7,116.7,44.7,118.2L44.7,118.2L44.7,118.2z"/>
	<path class="st3" d="M53.4,114.2h1.9v0.7c0.3-0.3,0.6-0.6,0.9-0.8c0.3-0.2,0.7-0.2,1.1-0.2c0.9,0,1.7,0.4,2.2,1.2
		c0.5-0.8,1.4-1.2,2.3-1.2c1.9,0,2.8,1.1,2.8,3.3v5h-1.8v-4.6c0-0.6-0.1-1.1-0.3-1.6c-0.2-0.3-0.6-0.5-1-0.5c-0.5,0-0.9,0.2-1.1,0.6
		c-0.3,0.6-0.4,1.2-0.3,1.9v4.1H58v-4.4c0-1.5-0.4-2.2-1.2-2.2c-0.5,0-0.9,0.2-1.1,0.6c-0.3,0.6-0.4,1.2-0.3,1.9v4.2h-2L53.4,114.2z
		"/>
	<path class="st4" d="M53.4,114.2h1.9v0.7c0.3-0.3,0.6-0.6,0.9-0.8c0.3-0.2,0.7-0.2,1.1-0.2c0.9,0,1.7,0.4,2.2,1.2
		c0.5-0.8,1.4-1.2,2.3-1.2c1.9,0,2.8,1.1,2.8,3.3v5h-1.8v-4.6c0-0.6-0.1-1.1-0.3-1.6c-0.2-0.3-0.6-0.5-1-0.5c-0.5,0-0.9,0.2-1.1,0.6
		c-0.3,0.6-0.4,1.2-0.3,1.9v4.1H58v-4.4c0-1.5-0.4-2.2-1.2-2.2c-0.5,0-0.9,0.2-1.1,0.6c-0.3,0.6-0.4,1.2-0.3,1.9v4.2h-2L53.4,114.2z
		"/>
	<path class="st3" d="M66.8,114.2h1.8v0.7c0.3-0.3,0.6-0.6,0.9-0.8c0.3-0.2,0.7-0.2,1-0.2c0.9,0,1.7,0.4,2.2,1.2
		c0.5-0.8,1.4-1.2,2.3-1.1c1.9,0,2.8,1.1,2.8,3.3v5h-1.8v-4.6c0-0.6-0.1-1.1-0.3-1.6c-0.2-0.3-0.6-0.5-1-0.5c-0.5,0-0.9,0.2-1.1,0.6
		c-0.3,0.6-0.4,1.2-0.3,1.9v4.1h-1.8v-4.4c0-1.5-0.4-2.2-1.2-2.2c-0.5,0-0.9,0.2-1.1,0.6c-0.3,0.6-0.4,1.2-0.4,1.9v4.2h-1.9V114.2z"
		/>
	<path class="st4" d="M66.8,114.2h1.8v0.7c0.3-0.3,0.6-0.6,0.9-0.8c0.3-0.2,0.7-0.2,1-0.2c0.9,0,1.7,0.4,2.2,1.2
		c0.5-0.8,1.4-1.2,2.3-1.1c1.9,0,2.8,1.1,2.8,3.3v5h-1.8v-4.6c0-0.6-0.1-1.1-0.3-1.6c-0.2-0.3-0.6-0.5-1-0.5c-0.5,0-0.9,0.2-1.1,0.6
		c-0.3,0.6-0.4,1.2-0.3,1.9v4.1h-1.8v-4.4c0-1.5-0.4-2.2-1.2-2.2c-0.5,0-0.9,0.2-1.1,0.6c-0.3,0.6-0.4,1.2-0.4,1.9v4.2h-1.9V114.2z"
		/>
	<path class="st3" d="M82.2,114.2v4.6c0,1.4,0.5,2,1.6,2s1.6-0.7,1.6-2v-4.6h1.9v4.7c0,0.6-0.1,1.1-0.2,1.7
		c-0.2,0.4-0.5,0.8-0.8,1.1c-1.4,1.1-3.4,1.1-4.8,0c-0.3-0.3-0.6-0.7-0.8-1.1c-0.2-0.6-0.2-1.1-0.2-1.7v-4.7H82.2z"/>
	<path class="st4" d="M82.2,114.2v4.6c0,1.4,0.5,2,1.6,2s1.6-0.7,1.6-2v-4.6h1.9v4.7c0,0.6-0.1,1.1-0.2,1.7
		c-0.2,0.4-0.5,0.8-0.8,1.1c-1.4,1.1-3.4,1.1-4.8,0c-0.3-0.3-0.6-0.7-0.8-1.1c-0.2-0.6-0.2-1.1-0.2-1.7v-4.7H82.2z"/>
	<path class="st3" d="M89.7,114.2h1.8v0.7c0.5-0.6,1.3-1,2.2-1c0.8-0.1,1.7,0.3,2.2,0.9c0.5,0.7,0.7,1.6,0.7,2.4v5h-1.9v-4.6
		c0.1-0.6-0.1-1.1-0.3-1.6c-0.3-0.3-0.8-0.5-1.2-0.5c-0.5-0.1-1,0.2-1.3,0.7c-0.3,0.7-0.4,1.4-0.4,2.1v4h-1.9L89.7,114.2z"/>
	<path class="st4" d="M89.7,114.2h1.8v0.7c0.5-0.6,1.3-1,2.2-1c0.8-0.1,1.7,0.3,2.2,0.9c0.5,0.7,0.7,1.6,0.7,2.4v5h-1.9v-4.6
		c0.1-0.6-0.1-1.1-0.3-1.6c-0.3-0.3-0.8-0.5-1.2-0.5c-0.5-0.1-1,0.2-1.3,0.7c-0.3,0.7-0.4,1.4-0.4,2.1v4h-1.9L89.7,114.2z"/>
	<path class="st3" d="M98.7,110.8c0-0.3,0.1-0.6,0.3-0.8c0.5-0.5,1.2-0.5,1.7,0l0,0c0.2,0.2,0.4,0.6,0.3,0.9c0,0.7-0.5,1.2-1.1,1.2
		c-0.7,0-1.2-0.5-1.2-1.1C98.6,110.9,98.6,110.8,98.7,110.8L98.7,110.8z M100.9,114.2v8.1H99v-8.1L100.9,114.2z"/>
	<path class="st4" d="M98.7,110.8c0-0.3,0.1-0.6,0.3-0.8c0.5-0.5,1.2-0.5,1.7,0l0,0c0.2,0.2,0.4,0.6,0.3,0.9c0,0.7-0.5,1.2-1.1,1.2
		c-0.7,0-1.2-0.5-1.2-1.1C98.6,110.9,98.6,110.8,98.7,110.8L98.7,110.8z M100.9,114.2v8.1H99v-8.1L100.9,114.2z"/>
	<path class="st3" d="M109.5,114.5v2.5c-0.3-0.4-0.7-0.7-1.1-1c-0.3-0.2-0.7-0.4-1.1-0.3c-0.7,0-1.3,0.3-1.8,0.7
		c-0.5,0.5-0.8,1.2-0.7,1.9c0,0.7,0.2,1.3,0.6,1.9c0.4,0.5,1.1,0.7,1.7,0.7c0.4,0,0.9-0.1,1.2-0.3c0.5-0.3,0.9-0.7,1.2-1.1v2.4
		c-0.7,0.4-1.5,0.6-2.3,0.6c-1.2,0-2.3-0.4-3.2-1.2c-1.7-1.6-1.7-4.3-0.1-6c0.9-0.9,2-1.3,3.3-1.3
		C108.1,113.9,108.8,114.1,109.5,114.5z"/>
	<path class="st4" d="M109.5,114.5v2.5c-0.3-0.4-0.7-0.7-1.1-1c-0.3-0.2-0.7-0.4-1.1-0.3c-0.7,0-1.3,0.3-1.8,0.7
		c-0.5,0.5-0.8,1.2-0.7,1.9c0,0.7,0.2,1.3,0.6,1.9c0.4,0.5,1.1,0.7,1.7,0.7c0.4,0,0.9-0.1,1.2-0.3c0.5-0.3,0.9-0.7,1.2-1.1v2.4
		c-0.7,0.4-1.5,0.6-2.3,0.6c-1.2,0-2.3-0.4-3.2-1.2c-1.7-1.6-1.7-4.3-0.1-6c0.9-0.9,2-1.3,3.3-1.3
		C108.1,113.9,108.8,114.1,109.5,114.5z"/>
	<path class="st3" d="M117.3,114.2h1.9v8.1h-1.9v-0.8c-1.3,1.4-3.6,1.5-5,0.2l-0.1-0.1c-0.1-0.1-0.2-0.2-0.2-0.2
		c-0.7-0.9-1.1-2-1.1-3.2c0-1.1,0.4-2.2,1.1-3.1c0.7-0.8,1.7-1.2,2.8-1.2c1,0,1.9,0.4,2.5,1.1L117.3,114.2z M112.9,118.2
		c0,0.7,0.2,1.4,0.7,1.9c0.4,0.5,1,0.8,1.6,0.7c0.6,0,1.3-0.3,1.7-0.7c0.9-1.1,0.9-2.6,0-3.7c-0.8-0.9-2.2-1-3.1-0.2c0,0,0,0,0,0
		c-0.1,0-0.1,0.1-0.2,0.2C113.2,116.9,112.9,117.5,112.9,118.2z"/>
	<path class="st4" d="M117.3,114.2h1.9v8.1h-1.9v-0.8c-1.3,1.4-3.6,1.5-5,0.2l-0.1-0.1c-0.1-0.1-0.2-0.2-0.2-0.2
		c-0.7-0.9-1.1-2-1.1-3.2c0-1.1,0.4-2.2,1.1-3.1c0.7-0.8,1.7-1.2,2.8-1.2c1,0,1.9,0.4,2.5,1.1L117.3,114.2z M112.9,118.2
		c0,0.7,0.2,1.4,0.7,1.9c0.4,0.5,1,0.8,1.6,0.7c0.6,0,1.3-0.3,1.7-0.7c0.9-1.1,0.9-2.6,0-3.7c-0.8-0.9-2.2-1-3.1-0.2c0,0,0,0,0,0
		c-0.1,0-0.1,0.1-0.2,0.2C113.2,116.9,112.9,117.5,112.9,118.2z"/>
	<polygon class="st3" points="123.5,116 123.5,122.3 121.7,122.3 121.7,116 120.8,116 120.8,114.2 121.7,114.2 121.7,111.2 
		123.5,111.2 123.5,114.2 125,114.2 125,116 	"/>
	<polygon class="st4" points="123.5,116 123.5,122.3 121.7,122.3 121.7,116 120.8,116 120.8,114.2 121.7,114.2 121.7,111.2 
		123.5,111.2 123.5,114.2 125,114.2 125,116 	"/>
	<path class="st3" d="M133.8,118.6H128c0,0.6,0.2,1.2,0.6,1.7c0.4,0.4,0.9,0.6,1.5,0.6c0.4,0,0.8-0.1,1.1-0.3
		c0.4-0.3,0.8-0.8,1.1-1.2l1.5,0.9c-0.2,0.4-0.5,0.7-0.8,1c-0.3,0.3-0.6,0.5-0.9,0.7c-0.3,0.2-0.6,0.3-1,0.4
		c-0.4,0.1-0.8,0.2-1.2,0.2c-1.1,0.1-2.2-0.4-2.9-1.1c-0.7-0.9-1.1-2-1.1-3.1c-0.1-1.1,0.3-2.2,1-3.1c1.6-1.5,4.1-1.5,5.7,0
		c0.7,0.9,1.1,2,1.1,3.2L133.8,118.6z M131.9,117.1c-0.3-1.1-1.4-1.7-2.5-1.4c0,0,0,0,0,0l0,0c-0.2,0.1-0.4,0.2-0.6,0.3
		c-0.2,0.1-0.3,0.3-0.4,0.5c-0.1,0.2-0.2,0.4-0.2,0.6L131.9,117.1z"/>
	<path class="st4" d="M133.8,118.6H128c0,0.6,0.2,1.2,0.6,1.7c0.4,0.4,0.9,0.6,1.5,0.6c0.4,0,0.8-0.1,1.1-0.3
		c0.4-0.3,0.8-0.8,1.1-1.2l1.5,0.9c-0.2,0.4-0.5,0.7-0.8,1c-0.3,0.3-0.6,0.5-0.9,0.7c-0.3,0.2-0.6,0.3-1,0.4
		c-0.4,0.1-0.8,0.2-1.2,0.2c-1.1,0.1-2.2-0.4-2.9-1.1c-0.7-0.9-1.1-2-1.1-3.1c-0.1-1.1,0.3-2.2,1-3.1c1.6-1.5,4.1-1.5,5.7,0
		c0.7,0.9,1.1,2,1.1,3.2L133.8,118.6z M131.9,117.1c-0.3-1.1-1.4-1.7-2.5-1.4c0,0,0,0,0,0l0,0c-0.2,0.1-0.4,0.2-0.6,0.3
		c-0.2,0.1-0.3,0.3-0.4,0.5c-0.1,0.2-0.2,0.4-0.2,0.6L131.9,117.1z"/>
	<polygon class="st3" points="43.4,130.8 45.5,135.4 47.7,130 50,135.4 52.1,130.8 54.2,130.8 50,139.5 47.7,134.3 45.5,139.5 
		41.3,130.8 	"/>
	<polygon class="st4" points="43.4,130.8 45.5,135.4 47.7,130 50,135.4 52.1,130.8 54.2,130.8 50,139.5 47.7,134.3 45.5,139.5 
		41.3,130.8 	"/>
	<path class="st3" d="M55.3,127.5c0-0.6,0.5-1.2,1.2-1.2c0,0,0,0,0,0h0.1c0.3,0,0.6,0.1,0.8,0.3c0.2,0.2,0.4,0.6,0.3,0.9
		c0,0.3-0.1,0.6-0.3,0.9c-0.2,0.2-0.5,0.3-0.8,0.3c-0.3,0-0.6-0.1-0.9-0.3C55.5,128.2,55.3,127.8,55.3,127.5z M57.4,130.8v8.1h-1.9
		v-8.1H57.4z"/>
	<path class="st4" d="M55.3,127.5c0-0.6,0.5-1.2,1.2-1.2c0,0,0,0,0,0h0.1c0.3,0,0.6,0.1,0.8,0.3c0.2,0.2,0.4,0.6,0.3,0.9
		c0,0.3-0.1,0.6-0.3,0.9c-0.2,0.2-0.5,0.3-0.8,0.3c-0.3,0-0.6-0.1-0.9-0.3C55.5,128.2,55.3,127.8,55.3,127.5z M57.4,130.8v8.1h-1.9
		v-8.1H57.4z"/>
	<polygon class="st3" points="61.7,132.6 61.7,138.9 59.8,138.9 59.8,132.6 59,132.6 59,130.8 59.8,130.8 59.8,127.8 61.7,127.8 
		61.7,130.8 63.2,130.8 63.2,132.6 	"/>
	<polygon class="st4" points="61.7,132.6 61.7,138.9 59.8,138.9 59.8,132.6 59,132.6 59,130.8 59.8,130.8 59.8,127.8 61.7,127.8 
		61.7,130.8 63.2,130.8 63.2,132.6 	"/>
	<path class="st3" d="M64.8,124.9h1.9v6.6c0.6-0.6,1.4-0.9,2.2-0.9c0.8,0,1.6,0.3,2.2,0.9c0.5,0.7,0.8,1.6,0.7,2.5v5H70v-4.8
		c0-0.5-0.1-1-0.3-1.4c-0.3-0.3-0.7-0.5-1.1-0.4c-0.5-0.1-1.1,0.2-1.4,0.6c-0.3,0.7-0.5,1.4-0.4,2.1v3.9h-1.9L64.8,124.9z"/>
	<path class="st4" d="M64.8,124.9h1.9v6.6c0.6-0.6,1.4-0.9,2.2-0.9c0.8,0,1.6,0.3,2.2,0.9c0.5,0.7,0.8,1.6,0.7,2.5v5H70v-4.8
		c0-0.5-0.1-1-0.3-1.4c-0.3-0.3-0.7-0.5-1.1-0.4c-0.5-0.1-1.1,0.2-1.4,0.6c-0.3,0.7-0.5,1.4-0.4,2.1v3.9h-1.9L64.8,124.9z"/>
	<polygon class="st3" points="82,137.4 78.4,130.8 80.6,130.8 83.1,135.4 85.4,130.8 87.5,130.8 81,143.3 78.9,143.3 	"/>
	<polygon class="st4" points="82,137.4 78.4,130.8 80.6,130.8 83.1,135.4 85.4,130.8 87.5,130.8 81,143.3 78.9,143.3 	"/>
	<path class="st3" d="M88,134.8c0-1.1,0.5-2.2,1.3-3c1.7-1.6,4.4-1.6,6.2,0c1.6,1.7,1.6,4.3,0,6v0.1c-0.8,0.8-1.9,1.2-3.1,1.2
		c-2.3,0-4.2-1.8-4.3-4.1C88,134.9,88,134.8,88,134.8z M89.9,134.8c0,0.7,0.2,1.4,0.7,1.9c1,1,2.6,1,3.6,0c0.9-1.1,0.9-2.7,0-3.8
		c-0.5-0.5-1.1-0.7-1.8-0.7c-0.6,0-1.3,0.3-1.7,0.7C90.2,133.4,89.9,134.1,89.9,134.8L89.9,134.8z"/>
	<path class="st4" d="M88,134.8c0-1.1,0.5-2.2,1.3-3c1.7-1.6,4.4-1.6,6.2,0c1.6,1.7,1.6,4.3,0,6v0.1c-0.8,0.8-1.9,1.2-3.1,1.2
		c-2.3,0-4.2-1.8-4.3-4.1C88,134.9,88,134.8,88,134.8z M89.9,134.8c0,0.7,0.2,1.4,0.7,1.9c1,1,2.6,1,3.6,0c0.9-1.1,0.9-2.7,0-3.8
		c-0.5-0.5-1.1-0.7-1.8-0.7c-0.6,0-1.3,0.3-1.7,0.7C90.2,133.4,89.9,134.1,89.9,134.8L89.9,134.8z"/>
	<path class="st3" d="M100.5,130.8v4.6c0,1.4,0.5,2,1.6,2s1.6-0.6,1.6-2v-4.6h1.9v4.7c0,0.6-0.1,1.2-0.2,1.7
		c-0.2,0.4-0.5,0.8-0.8,1.1c-1.4,1.1-3.4,1.1-4.8,0c-0.3-0.3-0.6-0.7-0.8-1.1c-0.2-0.6-0.2-1.1-0.2-1.7v-4.7H100.5z"/>
	<path class="st4" d="M100.5,130.8v4.6c0,1.4,0.5,2,1.6,2s1.6-0.6,1.6-2v-4.6h1.9v4.7c0,0.6-0.1,1.2-0.2,1.7
		c-0.2,0.4-0.5,0.8-0.8,1.1c-1.4,1.1-3.4,1.1-4.8,0c-0.3-0.3-0.6-0.7-0.8-1.1c-0.2-0.6-0.2-1.1-0.2-1.7v-4.7H100.5z"/>
</g>
</svg>
