<?xml version="1.0" encoding="utf-8"?>
<!-- Generator: Adobe Illustrator 24.0.1, SVG Export Plug-In . SVG Version: 6.00 Build 0)  -->
<svg version="1.1" id="Layer_1" xmlns="http://www.w3.org/2000/svg" xmlns:xlink="http://www.w3.org/1999/xlink" x="0px" y="0px"
	 viewBox="0 0 148 148" style="enable-background:new 0 0 148 148;" xml:space="preserve">
<style type="text/css">
	.st0{fill:#FFCC00;}
	.st1{fill:#FFFFFF;}
	.st2{fill:none;stroke:#000000;stroke-width:0.5;}
</style>
<g id="Layer_2_1_">
	<title>Lima</title>
	<path d="M2,0h144c1.1,0,2,0.9,2,2v144c0,1.1-0.9,2-2,2H2c-1.1,0-2-0.9-2-2V2C0,0.9,0.9,0,2,0z"/>
	<path class="st0" d="M4,4h70v140h70V74H4"/>
</g>
<g id="Layer_1_1_">
	<polygon class="st1" points="36.8,99.9 32.6,92.7 34.9,92.7 37.8,97.8 40.7,92.7 42.9,92.7 38.7,99.9 38.7,105.4 36.7,105.4 	"/>
	<polygon class="st2" points="36.8,99.9 32.6,92.7 34.9,92.7 37.8,97.8 40.7,92.7 42.9,92.7 38.7,99.9 38.7,105.4 36.7,105.4 	"/>
	<path class="st1" d="M42.5,101.4c0-1.1,0.5-2.2,1.3-3c1.7-1.6,4.5-1.6,6.2,0c1.7,1.7,1.7,4.3,0,6l0,0c-1.7,1.6-4.5,1.6-6.2,0
		C42.9,103.6,42.5,102.5,42.5,101.4z M44.5,101.4c-0.1,0.7,0.2,1.4,0.6,2c0.5,0.5,1.1,0.7,1.8,0.7s1.3-0.3,1.8-0.7
		c0.9-1.1,0.9-2.7,0-3.8c-0.5-0.5-1.1-0.7-1.8-0.7c-0.6,0-1.3,0.2-1.7,0.7C44.7,100.1,44.5,100.7,44.5,101.4L44.5,101.4z"/>
	<path class="st2" d="M42.5,101.4c0-1.1,0.5-2.2,1.3-3c1.7-1.6,4.5-1.6,6.2,0c1.7,1.7,1.7,4.3,0,6l0,0c-1.7,1.6-4.5,1.6-6.2,0
		C42.9,103.6,42.5,102.5,42.5,101.4z M44.5,101.4c-0.1,0.7,0.2,1.4,0.6,2c0.5,0.5,1.1,0.7,1.8,0.7s1.3-0.3,1.8-0.7
		c0.9-1.1,0.9-2.7,0-3.8c-0.5-0.5-1.1-0.7-1.8-0.7c-0.6,0-1.3,0.2-1.7,0.7C44.7,100.1,44.5,100.7,44.5,101.4L44.5,101.4z"/>
	<path class="st1" d="M55,97.4v4.6c0,1.4,0.5,2,1.6,2s1.6-0.6,1.6-2v-4.6h1.9v4.7c0,0.6-0.1,1.1-0.2,1.7c-0.2,0.4-0.5,0.9-0.9,1.2
		c-1.4,1.1-3.4,1.1-4.8,0c-0.3-0.3-0.6-0.7-0.8-1.1c-0.2-0.6-0.2-1.1-0.2-1.7v-4.7L55,97.4L55,97.4z"/>
	<path class="st2" d="M55,97.4v4.6c0,1.4,0.5,2,1.6,2s1.6-0.6,1.6-2v-4.6h1.9v4.7c0,0.6-0.1,1.1-0.2,1.7c-0.2,0.4-0.5,0.9-0.9,1.2
		c-1.4,1.1-3.4,1.1-4.8,0c-0.3-0.3-0.6-0.7-0.8-1.1c-0.2-0.6-0.2-1.1-0.2-1.7v-4.7L55,97.4L55,97.4z"/>
	<path class="st1" d="M72.4,98.8l-1.5,0.8c-0.2-0.5-0.6-0.7-0.9-0.7c-0.2,0-0.3,0.1-0.5,0.2c-0.1,0.1-0.2,0.3-0.2,0.4
		c0,0.3,0.3,0.7,1.1,0.9c0.7,0.3,1.4,0.7,2,1.2c0.4,0.4,0.5,0.9,0.5,1.5c0,0.8-0.3,1.5-0.9,2c-1.3,1.1-3.2,1-4.3-0.3l0,0
		c-0.3-0.3-0.5-0.6-0.6-1l1.6-0.7l0.5,0.7c0.2,0.2,0.5,0.3,0.9,0.3c0.7,0,1-0.3,1-0.9c0-0.3-0.2-0.6-0.7-1l-0.6-0.2l-0.6-0.2
		c-0.4-0.2-0.8-0.5-1.1-0.8c-0.3-0.4-0.4-0.8-0.4-1.3c0-0.7,0.3-1.3,0.7-1.8c0.4-0.5,1.1-0.7,1.7-0.6C71.1,97.1,72,97.8,72.4,98.8z"
		/>
	<path class="st2" d="M72.4,98.8l-1.5,0.8c-0.2-0.5-0.6-0.7-0.9-0.7c-0.2,0-0.3,0.1-0.5,0.2c-0.1,0.1-0.2,0.3-0.2,0.4
		c0,0.3,0.3,0.7,1.1,0.9c0.7,0.3,1.4,0.7,2,1.2c0.4,0.4,0.5,0.9,0.5,1.5c0,0.8-0.3,1.5-0.9,2c-1.3,1.1-3.2,1-4.3-0.3l0,0
		c-0.3-0.3-0.5-0.6-0.6-1l1.6-0.7l0.5,0.7c0.2,0.2,0.5,0.3,0.9,0.3c0.7,0,1-0.3,1-0.9c0-0.3-0.2-0.6-0.7-1l-0.6-0.2l-0.6-0.2
		c-0.4-0.2-0.8-0.5-1.1-0.8c-0.3-0.4-0.4-0.8-0.4-1.3c0-0.7,0.3-1.3,0.7-1.8c0.4-0.5,1.1-0.7,1.7-0.6C71.1,97.1,72,97.8,72.4,98.8z"
		/>
	<path class="st1" d="M74.6,91.4h1.9V98c1.2-1.2,3.2-1.2,4.4,0c0.5,0.7,0.7,1.6,0.7,2.4v5h-1.9v-4.8c0-0.5-0.1-1-0.3-1.4
		c-0.3-0.3-0.7-0.5-1.1-0.4c-0.5-0.1-1.1,0.2-1.4,0.7c-0.3,0.6-0.5,1.4-0.4,2.1v3.9h-1.9C74.6,105.5,74.6,91.4,74.6,91.4z"/>
	<path class="st2" d="M74.6,91.4h1.9V98c1.2-1.2,3.2-1.2,4.4,0c0.5,0.7,0.7,1.6,0.7,2.4v5h-1.9v-4.8c0-0.5-0.1-1-0.3-1.4
		c-0.3-0.3-0.7-0.5-1.1-0.4c-0.5-0.1-1.1,0.2-1.4,0.7c-0.3,0.6-0.5,1.4-0.4,2.1v3.9h-1.9C74.6,105.5,74.6,91.4,74.6,91.4z"/>
	<path class="st1" d="M83.5,101.4c0-1.1,0.4-2.2,1.2-3c1.7-1.6,4.5-1.6,6.2,0s1.7,4.3,0.1,6l-0.1,0.1c-0.8,0.9-2,1.3-3.2,1.2
		c-1.1,0-2.2-0.4-3-1.2C83.9,103.7,83.4,102.5,83.5,101.4z M85.4,101.4c-0.1,0.7,0.2,1.4,0.7,2c1,1,2.5,1,3.5,0
		c0.9-1.1,0.9-2.7,0-3.8c-0.9-0.9-2.5-1-3.4,0l0,0l0,0C85.6,100.1,85.4,100.7,85.4,101.4L85.4,101.4z"/>
	<path class="st2" d="M83.5,101.4c0-1.1,0.4-2.2,1.2-3c1.7-1.6,4.5-1.6,6.2,0s1.7,4.3,0.1,6l-0.1,0.1c-0.8,0.9-2,1.3-3.2,1.2
		c-1.1,0-2.2-0.4-3-1.2C83.9,103.7,83.4,102.5,83.5,101.4z M85.4,101.4c-0.1,0.7,0.2,1.4,0.7,2c1,1,2.5,1,3.5,0
		c0.9-1.1,0.9-2.7,0-3.8c-0.9-0.9-2.5-1-3.4,0l0,0l0,0C85.6,100.1,85.4,100.7,85.4,101.4L85.4,101.4z"/>
	<path class="st1" d="M95.9,97.4v4.6c0,1.4,0.6,2,1.6,2s1.6-0.6,1.6-2v-4.6h1.8v4.7c0,0.6-0.1,1.1-0.2,1.7c-0.8,1.8-2.8,2.6-4.6,1.8
		c-0.8-0.4-1.4-1-1.8-1.8c-0.2-0.6-0.2-1.1-0.2-1.7v-4.7H95.9z"/>
	<path class="st2" d="M95.9,97.4v4.6c0,1.4,0.6,2,1.6,2s1.6-0.6,1.6-2v-4.6h1.8v4.7c0,0.6-0.1,1.1-0.2,1.7c-0.8,1.8-2.8,2.6-4.6,1.8
		c-0.8-0.4-1.4-1-1.8-1.8c-0.2-0.6-0.2-1.1-0.2-1.7v-4.7H95.9z"/>
	<rect x="103.4" y="91.4" class="st1" width="1.9" height="14"/>
	<rect x="103.4" y="91.4" class="st2" width="1.9" height="14"/>
	<path class="st1" d="M113.6,91.4h1.9v14h-1.9v-0.8c-1.4,1.4-3.7,1.4-5.1,0c-0.1-0.1-0.1-0.1-0.2-0.2c-0.7-0.9-1.2-2-1.1-3.2
		c0-1.1,0.3-2.2,1-3s1.7-1.3,2.8-1.2c1,0,1.9,0.4,2.5,1.1L113.6,91.4z M109.2,101.4c0,0.7,0.2,1.4,0.7,1.9c0.4,0.5,1,0.7,1.6,0.7
		s1.3-0.3,1.7-0.7c0.9-1.1,0.9-2.6,0-3.7c-0.4-0.5-1-0.7-1.6-0.7s-1.2,0.2-1.6,0.7C109.4,100.1,109.1,100.7,109.2,101.4L109.2,101.4
		z"/>
	<path class="st2" d="M113.6,91.4h1.9v14h-1.9v-0.8c-1.4,1.4-3.7,1.4-5.1,0c-0.1-0.1-0.1-0.1-0.2-0.2c-0.7-0.9-1.2-2-1.1-3.2
		c0-1.1,0.3-2.2,1-3s1.7-1.3,2.8-1.2c1,0,1.9,0.4,2.5,1.1L113.6,91.4z M109.2,101.4c0,0.7,0.2,1.4,0.7,1.9c0.4,0.5,1,0.7,1.6,0.7
		s1.3-0.3,1.7-0.7c0.9-1.1,0.9-2.6,0-3.7c-0.4-0.5-1-0.7-1.6-0.7s-1.2,0.2-1.6,0.7C109.4,100.1,109.1,100.7,109.2,101.4L109.2,101.4
		z"/>
	<path class="st1" d="M19.2,113.5l-1.5,0.8c-0.2-0.5-0.6-0.7-0.9-0.7c-0.2,0-0.3,0.1-0.4,0.2s-0.1,0.2-0.1,0.4c0,0.3,0.4,0.7,1,0.9
		c0.7,0.3,1.4,0.7,2,1.2c0.4,0.4,0.5,0.9,0.5,1.5c0,0.8-0.3,1.5-0.8,2c-1.3,1.1-3.2,1-4.4-0.3v-0.1c-0.3-0.3-0.5-0.6-0.6-1l1.7-0.7
		l0.5,0.7c0.2,0.2,0.5,0.3,0.8,0.3c0.6,0,1-0.3,1-0.9c0-0.3-0.2-0.6-0.7-1l-0.6-0.2l-0.6-0.2c-0.4-0.2-0.8-0.5-1.1-0.8
		c-0.3-0.4-0.4-0.8-0.4-1.3c0-0.7,0.3-1.3,0.7-1.8c0.5-0.5,1.1-0.7,1.8-0.6C18.1,111.9,18.9,112.5,19.2,113.5z"/>
	<path class="st2" d="M19.2,113.5l-1.5,0.8c-0.2-0.5-0.6-0.7-0.9-0.7c-0.2,0-0.3,0.1-0.4,0.2s-0.1,0.2-0.1,0.4c0,0.3,0.4,0.7,1,0.9
		c0.7,0.3,1.4,0.7,2,1.2c0.4,0.4,0.5,0.9,0.5,1.5c0,0.8-0.3,1.5-0.8,2c-1.3,1.1-3.2,1-4.4-0.3v-0.1c-0.3-0.3-0.5-0.6-0.6-1l1.7-0.7
		l0.5,0.7c0.2,0.2,0.5,0.3,0.8,0.3c0.6,0,1-0.3,1-0.9c0-0.3-0.2-0.6-0.7-1l-0.6-0.2l-0.6-0.2c-0.4-0.2-0.8-0.5-1.1-0.8
		c-0.3-0.4-0.4-0.8-0.4-1.3c0-0.7,0.3-1.3,0.7-1.8c0.5-0.5,1.1-0.7,1.8-0.6C18.1,111.9,18.9,112.5,19.2,113.5z"/>
	<polygon class="st1" points="23.4,113.8 23.4,120.1 21.5,120.1 21.5,113.8 20.7,113.8 20.7,112 21.5,112 21.5,109 23.4,109 
		23.4,112 24.8,112 24.8,113.8 	"/>
	<polygon class="st2" points="23.4,113.8 23.4,120.1 21.5,120.1 21.5,113.8 20.7,113.8 20.7,112 21.5,112 21.5,109 23.4,109 
		23.4,112 24.8,112 24.8,113.8 	"/>
	<path class="st1" d="M25.8,116.1c0-1.1,0.4-2.2,1.2-3c1.7-1.6,4.4-1.6,6.2,0c1.6,1.7,1.6,4.3,0,6l0,0c-0.8,0.8-1.9,1.2-3.1,1.2
		c-2.3,0.1-4.2-1.7-4.3-4C25.8,116.2,25.8,116.1,25.8,116.1L25.8,116.1z M27.7,116.1c0,0.7,0.2,1.4,0.6,1.9c1,1,2.5,1,3.5,0l0,0
		c0.9-1.1,0.9-2.7,0-3.8c-0.5-0.5-1.1-0.7-1.8-0.7c-0.6,0-1.3,0.2-1.7,0.7S27.7,115.4,27.7,116.1L27.7,116.1z"/>
	<path class="st2" d="M25.8,116.1c0-1.1,0.4-2.2,1.2-3c1.7-1.6,4.4-1.6,6.2,0c1.6,1.7,1.6,4.3,0,6l0,0c-0.8,0.8-1.9,1.2-3.1,1.2
		c-2.3,0.1-4.2-1.7-4.3-4C25.8,116.2,25.8,116.1,25.8,116.1L25.8,116.1z M27.7,116.1c0,0.7,0.2,1.4,0.6,1.9c1,1,2.5,1,3.5,0l0,0
		c0.9-1.1,0.9-2.7,0-3.8c-0.5-0.5-1.1-0.7-1.8-0.7c-0.6,0-1.3,0.2-1.7,0.7S27.7,115.4,27.7,116.1L27.7,116.1z"/>
	<path class="st1" d="M38.3,124.6h-1.9v-12.5h1.9v0.9c0.6-0.7,1.5-1.1,2.5-1.1c1.1,0,2.1,0.5,2.8,1.2c0.7,0.9,1.1,2,1.1,3.1
		s-0.3,2.2-1.1,3c-1.3,1.5-3.5,1.6-5,0.4l0,0l0,0l-0.2-0.2L38.3,124.6L38.3,124.6z M42.7,116.1c0-0.7-0.2-1.4-0.7-1.9
		c-0.4-0.5-1-0.8-1.6-0.7c-0.6,0-1.3,0.3-1.7,0.7c-0.4,0.5-0.6,1.2-0.7,1.9c0,0.7,0.2,1.3,0.7,1.8c0.4,0.5,1,0.7,1.6,0.7
		s1.2-0.2,1.6-0.7C42.4,117.5,42.7,116.8,42.7,116.1L42.7,116.1z"/>
	<path class="st2" d="M38.3,124.6h-1.9v-12.5h1.9v0.9c0.6-0.7,1.5-1.1,2.5-1.1c1.1,0,2.1,0.5,2.8,1.2c0.7,0.9,1.1,2,1.1,3.1
		s-0.3,2.2-1.1,3c-1.3,1.5-3.5,1.6-5,0.4l0,0l0,0l-0.2-0.2L38.3,124.6L38.3,124.6z M42.7,116.1c0-0.7-0.2-1.4-0.7-1.9
		c-0.4-0.5-1-0.8-1.6-0.7c-0.6,0-1.3,0.3-1.7,0.7c-0.4,0.5-0.6,1.2-0.7,1.9c0,0.7,0.2,1.3,0.7,1.8c0.4,0.5,1,0.7,1.6,0.7
		s1.2-0.2,1.6-0.7C42.4,117.5,42.7,116.8,42.7,116.1L42.7,116.1z"/>
	<polygon class="st1" points="53.8,118.6 50.2,112.1 52.4,112.1 54.9,116.8 57.2,112.1 59.3,112.1 52.9,124.6 50.8,124.6 	"/>
	<polygon class="st2" points="53.8,118.6 50.2,112.1 52.4,112.1 54.9,116.8 57.2,112.1 59.3,112.1 52.9,124.6 50.8,124.6 	"/>
	<path class="st1" d="M59.8,116.1c0-1.1,0.5-2.2,1.3-3c1.7-1.6,4.5-1.6,6.2,0s1.7,4.3,0.1,6l-0.1,0.1c-0.8,0.8-1.9,1.2-3.1,1.2
		C61.9,120.4,59.9,118.6,59.8,116.1C59.8,116.1,59.8,116.1,59.8,116.1L59.8,116.1z M61.7,116.1c0,0.7,0.2,1.4,0.6,1.9
		c1,1,2.5,1,3.5,0l0,0c0.9-1.1,0.9-2.7,0-3.8c-0.5-0.5-1.1-0.7-1.8-0.7c-0.6,0-1.3,0.2-1.7,0.7C61.9,114.7,61.7,115.4,61.7,116.1
		L61.7,116.1z"/>
	<path class="st2" d="M59.8,116.1c0-1.1,0.5-2.2,1.3-3c1.7-1.6,4.5-1.6,6.2,0s1.7,4.3,0.1,6l-0.1,0.1c-0.8,0.8-1.9,1.2-3.1,1.2
		C61.9,120.4,59.9,118.6,59.8,116.1C59.8,116.1,59.8,116.1,59.8,116.1L59.8,116.1z M61.7,116.1c0,0.7,0.2,1.4,0.6,1.9
		c1,1,2.5,1,3.5,0l0,0c0.9-1.1,0.9-2.7,0-3.8c-0.5-0.5-1.1-0.7-1.8-0.7c-0.6,0-1.3,0.2-1.7,0.7C61.9,114.7,61.7,115.4,61.7,116.1
		L61.7,116.1z"/>
	<path class="st1" d="M72.2,112.1v4.6c0,1.4,0.5,2,1.6,2s1.5-0.6,1.5-2v-4.6h1.9v4.7c0,0.6-0.1,1.1-0.2,1.7
		c-0.2,0.4-0.5,0.8-0.8,1.1c-1.4,1.1-3.4,1.1-4.8,0c-0.3-0.3-0.6-0.7-0.8-1.1c-0.2-0.6-0.2-1.1-0.2-1.7v-4.7H72.2z"/>
	<path class="st2" d="M72.2,112.1v4.6c0,1.4,0.5,2,1.6,2s1.5-0.6,1.5-2v-4.6h1.9v4.7c0,0.6-0.1,1.1-0.2,1.7
		c-0.2,0.4-0.5,0.8-0.8,1.1c-1.4,1.1-3.4,1.1-4.8,0c-0.3-0.3-0.6-0.7-0.8-1.1c-0.2-0.6-0.2-1.1-0.2-1.7v-4.7H72.2z"/>
	<path class="st1" d="M79.7,112.1h1.9v0.7c0.2-0.3,0.5-0.6,0.9-0.7c0.3-0.2,0.7-0.2,1-0.2c0.6,0,1.1,0.2,1.5,0.5l-0.9,1.7
		c-0.3-0.2-0.6-0.4-1-0.4c-1,0-1.5,0.8-1.5,2.3v4.2h-2L79.7,112.1z"/>
	<path class="st2" d="M79.7,112.1h1.9v0.7c0.2-0.3,0.5-0.6,0.9-0.7c0.3-0.2,0.7-0.2,1-0.2c0.6,0,1.1,0.2,1.5,0.5l-0.9,1.7
		c-0.3-0.2-0.6-0.4-1-0.4c-1,0-1.5,0.8-1.5,2.3v4.2h-2L79.7,112.1z"/>
	<polygon class="st1" points="92.3,112.1 94.4,116.6 96.5,112.1 98.6,112.1 94.4,120.8 90.3,112.1 	"/>
	<polygon class="st2" points="92.3,112.1 94.4,116.6 96.5,112.1 98.6,112.1 94.4,120.8 90.3,112.1 	"/>
	<path class="st1" d="M106.9,116.5H101c0,0.6,0.2,1.2,0.7,1.6c0.4,0.4,0.9,0.6,1.5,0.6c0.4,0,0.8-0.1,1.1-0.3c0.4-0.4,0.7-0.8,1-1.2
		l1.6,0.9c-0.2,0.4-0.5,0.7-0.8,1.1c-0.2,0.3-0.5,0.6-0.9,0.7c-0.3,0.2-0.7,0.3-1,0.4c-0.4,0.1-0.8,0.2-1.2,0.2
		c-1.1,0-2.1-0.4-2.9-1.1c-0.7-0.9-1.1-2-1-3.1c-0.1-1.1,0.3-2.2,1-3.1c1.6-1.5,4.1-1.5,5.7,0c0.7,0.9,1.1,2,1,3.2L106.9,116.5z
		 M105,115.1c-0.2-0.9-1-1.5-1.9-1.4c-0.2,0-0.4,0-0.7,0.1c-0.2,0.1-0.4,0.2-0.6,0.3c-0.2,0.1-0.3,0.3-0.4,0.5s-0.2,0.4-0.2,0.7
		L105,115.1z"/>
	<path class="st2" d="M106.9,116.5H101c0,0.6,0.2,1.2,0.7,1.6c0.4,0.4,0.9,0.6,1.5,0.6c0.4,0,0.8-0.1,1.1-0.3c0.4-0.4,0.7-0.8,1-1.2
		l1.6,0.9c-0.2,0.4-0.5,0.7-0.8,1.1c-0.2,0.3-0.5,0.6-0.9,0.7c-0.3,0.2-0.7,0.3-1,0.4c-0.4,0.1-0.8,0.2-1.2,0.2
		c-1.1,0-2.1-0.4-2.9-1.1c-0.7-0.9-1.1-2-1-3.1c-0.1-1.1,0.3-2.2,1-3.1c1.6-1.5,4.1-1.5,5.7,0c0.7,0.9,1.1,2,1,3.2L106.9,116.5z
		 M105,115.1c-0.2-0.9-1-1.5-1.9-1.4c-0.2,0-0.4,0-0.7,0.1c-0.2,0.1-0.4,0.2-0.6,0.3c-0.2,0.1-0.3,0.3-0.4,0.5s-0.2,0.4-0.2,0.7
		L105,115.1z"/>
	<path class="st1" d="M113.7,113.5l-1.5,0.8c-0.2-0.5-0.6-0.7-0.9-0.7c-0.2,0-0.3,0.1-0.4,0.2c-0.2,0.1-0.2,0.2-0.2,0.4
		c0,0.3,0.3,0.7,1,0.9c0.7,0.3,1.4,0.7,2,1.2c0.4,0.4,0.5,0.9,0.5,1.5c0,0.8-0.3,1.5-0.9,2c-0.5,0.5-1.3,0.8-2,0.7
		c-1.3,0-2.5-0.7-2.9-1.9l1.6-0.7l0.5,0.7c0.2,0.2,0.5,0.3,0.8,0.3c0.7,0,1-0.3,1-0.9c0-0.3-0.2-0.6-0.7-1l-0.6-0.2l-0.6-0.2
		c-0.4-0.2-0.8-0.5-1.1-0.8c-0.3-0.4-0.4-0.8-0.4-1.3c0-0.7,0.3-1.3,0.7-1.8c0.5-0.5,1.1-0.7,1.8-0.6
		C112.4,111.9,113.3,112.5,113.7,113.5z"/>
	<path class="st2" d="M113.7,113.5l-1.5,0.8c-0.2-0.5-0.6-0.7-0.9-0.7c-0.2,0-0.3,0.1-0.4,0.2c-0.2,0.1-0.2,0.2-0.2,0.4
		c0,0.3,0.3,0.7,1,0.9c0.7,0.3,1.4,0.7,2,1.2c0.4,0.4,0.5,0.9,0.5,1.5c0,0.8-0.3,1.5-0.9,2c-0.5,0.5-1.3,0.8-2,0.7
		c-1.3,0-2.5-0.7-2.9-1.9l1.6-0.7l0.5,0.7c0.2,0.2,0.5,0.3,0.8,0.3c0.7,0,1-0.3,1-0.9c0-0.3-0.2-0.6-0.7-1l-0.6-0.2l-0.6-0.2
		c-0.4-0.2-0.8-0.5-1.1-0.8c-0.3-0.4-0.4-0.8-0.4-1.3c0-0.7,0.3-1.3,0.7-1.8c0.5-0.5,1.1-0.7,1.8-0.6
		C112.4,111.9,113.3,112.5,113.7,113.5z"/>
	<path class="st1" d="M120.6,113.5l-1.5,0.8c-0.2-0.5-0.6-0.7-0.9-0.7c-0.2,0-0.3,0.1-0.4,0.2c-0.2,0.1-0.2,0.2-0.2,0.4
		c0,0.3,0.3,0.7,1.1,0.9c0.7,0.3,1.4,0.7,2,1.2c0.4,0.4,0.5,0.9,0.5,1.5c0,0.8-0.3,1.5-0.9,2c-0.5,0.5-1.3,0.8-2,0.7
		c-1.3,0-2.5-0.7-2.9-1.9l1.6-0.7l0.5,0.7c0.2,0.2,0.5,0.3,0.8,0.3c0.6,0,1-0.3,1-0.9c0-0.3-0.2-0.6-0.7-1l-0.6-0.2l-0.6-0.2
		c-0.4-0.2-0.8-0.5-1.1-0.8c-0.3-0.4-0.4-0.8-0.4-1.3c0-0.7,0.3-1.3,0.7-1.8c0.5-0.5,1.1-0.7,1.8-0.6
		C119.3,111.9,120.2,112.5,120.6,113.5z"/>
	<path class="st2" d="M120.6,113.5l-1.5,0.8c-0.2-0.5-0.6-0.7-0.9-0.7c-0.2,0-0.3,0.1-0.4,0.2c-0.2,0.1-0.2,0.2-0.2,0.4
		c0,0.3,0.3,0.7,1.1,0.9c0.7,0.3,1.4,0.7,2,1.2c0.4,0.4,0.5,0.9,0.5,1.5c0,0.8-0.3,1.5-0.9,2c-0.5,0.5-1.3,0.8-2,0.7
		c-1.3,0-2.5-0.7-2.9-1.9l1.6-0.7l0.5,0.7c0.2,0.2,0.5,0.3,0.8,0.3c0.6,0,1-0.3,1-0.9c0-0.3-0.2-0.6-0.7-1l-0.6-0.2l-0.6-0.2
		c-0.4-0.2-0.8-0.5-1.1-0.8c-0.3-0.4-0.4-0.8-0.4-1.3c0-0.7,0.3-1.3,0.7-1.8c0.5-0.5,1.1-0.7,1.8-0.6
		C119.3,111.9,120.2,112.5,120.6,113.5z"/>
	<path class="st1" d="M130.1,116.5h-5.8c0,0.6,0.2,1.2,0.7,1.6c0.4,0.4,0.9,0.6,1.5,0.6c0.4,0,0.8-0.1,1.1-0.3
		c0.4-0.4,0.7-0.8,1-1.3l1.6,0.9c-0.2,0.4-0.5,0.7-0.8,1.1c-0.3,0.3-0.6,0.5-0.9,0.7c-0.3,0.2-0.7,0.3-1,0.4
		c-0.4,0.1-0.8,0.1-1.2,0.2c-1.1,0-2.1-0.4-2.9-1.1c-0.7-0.9-1.1-1.9-1.1-3.1c-0.1-1.1,0.3-2.2,1.1-3.1c1.6-1.5,4.1-1.5,5.7,0
		c0.7,0.9,1.1,2,1,3.2L130.1,116.5z M128.2,115.1c-0.2-0.9-1-1.5-1.9-1.4c-0.2,0-0.4,0-0.6,0.1s-0.4,0.2-0.6,0.3
		c-0.2,0.1-0.3,0.3-0.4,0.5s-0.2,0.4-0.2,0.7L128.2,115.1z"/>
	<path class="st2" d="M130.1,116.5h-5.8c0,0.6,0.2,1.2,0.7,1.6c0.4,0.4,0.9,0.6,1.5,0.6c0.4,0,0.8-0.1,1.1-0.3
		c0.4-0.4,0.7-0.8,1-1.3l1.6,0.9c-0.2,0.4-0.5,0.7-0.8,1.1c-0.3,0.3-0.6,0.5-0.9,0.7c-0.3,0.2-0.7,0.3-1,0.4
		c-0.4,0.1-0.8,0.1-1.2,0.2c-1.1,0-2.1-0.4-2.9-1.1c-0.7-0.9-1.1-1.9-1.1-3.1c-0.1-1.1,0.3-2.2,1.1-3.1c1.6-1.5,4.1-1.5,5.7,0
		c0.7,0.9,1.1,2,1,3.2L130.1,116.5z M128.2,115.1c-0.2-0.9-1-1.5-1.9-1.4c-0.2,0-0.4,0-0.6,0.1s-0.4,0.2-0.6,0.3
		c-0.2,0.1-0.3,0.3-0.4,0.5s-0.2,0.4-0.2,0.7L128.2,115.1z"/>
	<rect x="132.1" y="106.1" class="st1" width="1.9" height="14"/>
	<rect x="132.1" y="106.1" class="st2" width="1.9" height="14"/>
	<path class="st1" d="M28,127.2c0-0.7,0.5-1.2,1.2-1.2c0.3,0,0.6,0.1,0.9,0.3c0.2,0.2,0.3,0.6,0.3,0.9s-0.1,0.6-0.3,0.9
		c-0.2,0.2-0.5,0.3-0.8,0.3c-0.6,0.1-1.2-0.4-1.3-1C28,127.3,28,127.2,28,127.2L28,127.2z M30.1,130.6v8.1h-1.9v-8.1H30.1z"/>
	<path class="st2" d="M28,127.2c0-0.7,0.5-1.2,1.2-1.2c0.3,0,0.6,0.1,0.9,0.3c0.2,0.2,0.3,0.6,0.3,0.9s-0.1,0.6-0.3,0.9
		c-0.2,0.2-0.5,0.3-0.8,0.3c-0.6,0.1-1.2-0.4-1.3-1C28,127.3,28,127.2,28,127.2L28,127.2z M30.1,130.6v8.1h-1.9v-8.1H30.1z"/>
	<path class="st1" d="M32.5,130.6h1.9v0.7c0.3-0.3,0.6-0.6,0.9-0.8c0.3-0.2,0.7-0.2,1-0.2c0.9,0,1.7,0.5,2.2,1.2
		c0.5-0.8,1.4-1.2,2.3-1.2c1.9,0,2.8,1.1,2.8,3.3v5h-1.8v-4.5c0-0.6-0.1-1.1-0.3-1.6c-0.2-0.3-0.6-0.5-1-0.5c-0.5,0-0.9,0.2-1.1,0.6
		c-0.3,0.6-0.4,1.2-0.3,1.9v4.2h-1.8v-4.4c0-1.5-0.4-2.2-1.2-2.2c-0.5,0-0.9,0.2-1.1,0.6c-0.3,0.6-0.4,1.2-0.3,1.9v4.2h-1.9v-8.1
		L32.5,130.6z"/>
	<path class="st2" d="M32.5,130.6h1.9v0.7c0.3-0.3,0.6-0.6,0.9-0.8c0.3-0.2,0.7-0.2,1-0.2c0.9,0,1.7,0.5,2.2,1.2
		c0.5-0.8,1.4-1.2,2.3-1.2c1.9,0,2.8,1.1,2.8,3.3v5h-1.8v-4.5c0-0.6-0.1-1.1-0.3-1.6c-0.2-0.3-0.6-0.5-1-0.5c-0.5,0-0.9,0.2-1.1,0.6
		c-0.3,0.6-0.4,1.2-0.3,1.9v4.2h-1.8v-4.4c0-1.5-0.4-2.2-1.2-2.2c-0.5,0-0.9,0.2-1.1,0.6c-0.3,0.6-0.4,1.2-0.3,1.9v4.2h-1.9v-8.1
		L32.5,130.6z"/>
	<path class="st1" d="M46,130.6h1.9v0.7c0.3-0.3,0.5-0.6,0.9-0.8c0.3-0.2,0.7-0.2,1.1-0.2c0.9,0,1.7,0.5,2.2,1.2
		c0.5-0.8,1.4-1.2,2.3-1.2c1.9,0,2.8,1.1,2.8,3.3v5h-1.9v-4.5c0-0.6-0.1-1.1-0.3-1.6c-0.2-0.3-0.6-0.5-1-0.5c-0.5,0-0.9,0.2-1.1,0.6
		c-0.3,0.6-0.4,1.2-0.3,1.9v4.2h-1.8v-4.4c0-1.5-0.4-2.2-1.2-2.2c-0.5,0-0.9,0.2-1.1,0.6c-0.3,0.6-0.4,1.2-0.3,1.9v4.2H46V130.6z"/>
	<path class="st2" d="M46,130.6h1.9v0.7c0.3-0.3,0.5-0.6,0.9-0.8c0.3-0.2,0.7-0.2,1.1-0.2c0.9,0,1.7,0.5,2.2,1.2
		c0.5-0.8,1.4-1.2,2.3-1.2c1.9,0,2.8,1.1,2.8,3.3v5h-1.9v-4.5c0-0.6-0.1-1.1-0.3-1.6c-0.2-0.3-0.6-0.5-1-0.5c-0.5,0-0.9,0.2-1.1,0.6
		c-0.3,0.6-0.4,1.2-0.3,1.9v4.2h-1.8v-4.4c0-1.5-0.4-2.2-1.2-2.2c-0.5,0-0.9,0.2-1.1,0.6c-0.3,0.6-0.4,1.2-0.3,1.9v4.2H46V130.6z"/>
	<path class="st1" d="M66.8,135H61c0,0.6,0.2,1.2,0.7,1.6c0.7,0.7,1.8,0.8,2.6,0.2c0.4-0.4,0.7-0.8,1-1.2l1.5,0.9
		c-0.2,0.4-0.5,0.7-0.8,1.1c-0.2,0.3-0.5,0.6-0.9,0.7c-0.3,0.2-0.7,0.3-1,0.4c-0.4,0.1-0.7,0.1-1.1,0.2c-1.1,0.1-2.1-0.4-2.9-1.1
		c-0.7-0.9-1.1-1.9-1.1-3.1c-0.1-1.1,0.3-2.2,1-3c1.6-1.5,4.1-1.5,5.7,0c0.7,0.9,1.1,2,1.1,3.1L66.8,135z M64.8,133.5
		c-0.1-0.9-0.9-1.5-1.8-1.5c-0.2,0-0.4,0-0.7,0.1c-0.2,0.1-0.4,0.2-0.6,0.3c-0.2,0.1-0.3,0.3-0.4,0.5c-0.1,0.2-0.2,0.4-0.2,0.6
		L64.8,133.5z"/>
	<path class="st2" d="M66.8,135H61c0,0.6,0.2,1.2,0.7,1.6c0.7,0.7,1.8,0.8,2.6,0.2c0.4-0.4,0.7-0.8,1-1.2l1.5,0.9
		c-0.2,0.4-0.5,0.7-0.8,1.1c-0.2,0.3-0.5,0.6-0.9,0.7c-0.3,0.2-0.7,0.3-1,0.4c-0.4,0.1-0.7,0.1-1.1,0.2c-1.1,0.1-2.1-0.4-2.9-1.1
		c-0.7-0.9-1.1-1.9-1.1-3.1c-0.1-1.1,0.3-2.2,1-3c1.6-1.5,4.1-1.5,5.7,0c0.7,0.9,1.1,2,1.1,3.1L66.8,135z M64.8,133.5
		c-0.1-0.9-0.9-1.5-1.8-1.5c-0.2,0-0.4,0-0.7,0.1c-0.2,0.1-0.4,0.2-0.6,0.3c-0.2,0.1-0.3,0.3-0.4,0.5c-0.1,0.2-0.2,0.4-0.2,0.6
		L64.8,133.5z"/>
	<path class="st1" d="M74.8,124.6h1.9v14h-1.9v-0.8c-0.7,0.7-1.6,1.1-2.5,1.1c-1,0-2.1-0.4-2.8-1.2c-0.7-0.9-1.1-1.9-1.1-3.1
		c0-1.1,0.4-2.2,1.1-3s1.7-1.2,2.8-1.2c1,0,1.9,0.4,2.5,1.1V124.6z M70.4,134.6c0,0.7,0.2,1.3,0.7,1.9c0.4,0.5,1,0.8,1.6,0.7
		c0.6,0,1.3-0.3,1.7-0.7c0.9-1.1,0.9-2.6,0-3.7c-0.8-0.9-2.2-0.9-3.1-0.1l0,0l-0.1,0.1C70.7,133.1,70.4,133.8,70.4,134.6L70.4,134.6
		z"/>
	<path class="st2" d="M74.8,124.6h1.9v14h-1.9v-0.8c-0.7,0.7-1.6,1.1-2.5,1.1c-1,0-2.1-0.4-2.8-1.2c-0.7-0.9-1.1-1.9-1.1-3.1
		c0-1.1,0.4-2.2,1.1-3s1.7-1.2,2.8-1.2c1,0,1.9,0.4,2.5,1.1V124.6z M70.4,134.6c0,0.7,0.2,1.3,0.7,1.9c0.4,0.5,1,0.8,1.6,0.7
		c0.6,0,1.3-0.3,1.7-0.7c0.9-1.1,0.9-2.6,0-3.7c-0.8-0.9-2.2-0.9-3.1-0.1l0,0l-0.1,0.1C70.7,133.1,70.4,133.8,70.4,134.6L70.4,134.6
		z"/>
	<path class="st1" d="M78.8,127.2c0-0.6,0.5-1.1,1.1-1.2h0.2c0.3,0,0.6,0.1,0.8,0.3c0.3,0.2,0.4,0.6,0.3,0.9c0,0.3-0.1,0.6-0.3,0.9
		c-0.2,0.2-0.5,0.3-0.8,0.3s-0.6-0.1-0.9-0.3C78.9,127.9,78.7,127.5,78.8,127.2z M80.9,130.6v8.1H79v-8.1H80.9z"/>
	<path class="st2" d="M78.8,127.2c0-0.6,0.5-1.1,1.1-1.2h0.2c0.3,0,0.6,0.1,0.8,0.3c0.3,0.2,0.4,0.6,0.3,0.9c0,0.3-0.1,0.6-0.3,0.9
		c-0.2,0.2-0.5,0.3-0.8,0.3s-0.6-0.1-0.9-0.3C78.9,127.9,78.7,127.5,78.8,127.2z M80.9,130.6v8.1H79v-8.1H80.9z"/>
	<path class="st1" d="M89.2,130.6h1.9v8.1h-1.9v-0.8c-1.4,1.4-3.6,1.5-5.1,0.1l0,0l0,0c-0.1-0.1-0.2-0.2-0.2-0.2
		c-0.7-0.8-1.1-1.9-1.1-3.1c0-1.1,0.4-2.2,1.1-3.1c0.7-0.8,1.7-1.2,2.7-1.2s1.9,0.4,2.5,1.1L89.2,130.6z M84.8,134.6
		c0,0.7,0.2,1.3,0.6,1.9c0.4,0.5,1,0.8,1.6,0.7c0.6,0,1.3-0.3,1.7-0.7c0.9-1.1,0.9-2.7,0-3.7c-0.8-0.9-2.2-1-3.1-0.1l0,0l-0.1,0.1
		l-0.1,0.1C85,133.2,84.8,133.9,84.8,134.6L84.8,134.6z"/>
	<path class="st2" d="M89.2,130.6h1.9v8.1h-1.9v-0.8c-1.4,1.4-3.6,1.5-5.1,0.1l0,0l0,0c-0.1-0.1-0.2-0.2-0.2-0.2
		c-0.7-0.8-1.1-1.9-1.1-3.1c0-1.1,0.4-2.2,1.1-3.1c0.7-0.8,1.7-1.2,2.7-1.2s1.9,0.4,2.5,1.1L89.2,130.6z M84.8,134.6
		c0,0.7,0.2,1.3,0.6,1.9c0.4,0.5,1,0.8,1.6,0.7c0.6,0,1.3-0.3,1.7-0.7c0.9-1.1,0.9-2.7,0-3.7c-0.8-0.9-2.2-1-3.1-0.1l0,0l-0.1,0.1
		l-0.1,0.1C85,133.2,84.8,133.9,84.8,134.6L84.8,134.6z"/>
	<polygon class="st1" points="95.4,132.2 95.4,138.6 93.5,138.6 93.5,132.2 92.7,132.2 92.7,130.5 93.5,130.5 93.5,127.6 
		95.4,127.6 95.4,130.6 96.8,130.6 96.8,132.3 	"/>
	<polygon class="st2" points="95.4,132.2 95.4,138.6 93.5,138.6 93.5,132.2 92.7,132.2 92.7,130.5 93.5,130.5 93.5,127.6 
		95.4,127.6 95.4,130.6 96.8,130.6 96.8,132.3 	"/>
	<path class="st1" d="M105.6,135h-5.8c0,0.6,0.2,1.2,0.6,1.6c0.4,0.4,0.9,0.6,1.5,0.6c0.4,0,0.8-0.1,1.1-0.3c0.4-0.3,0.7-0.8,1-1.2
		l1.5,0.9c-0.2,0.4-0.5,0.7-0.8,1.1c-0.2,0.3-0.5,0.6-0.9,0.7c-0.3,0.2-0.7,0.3-1,0.4c-0.4,0.1-0.7,0.1-1.1,0.2
		c-1.1,0.1-2.2-0.4-2.9-1.1c-0.7-0.9-1.1-1.9-1.1-3.1c-0.1-1.1,0.3-2.2,1.1-3.1c1.6-1.5,4.1-1.5,5.7,0c0.7,0.9,1.1,2,1,3.2
		L105.6,135z M103.7,133.5c-0.2-0.9-1-1.5-1.9-1.5c-0.4,0-0.9,0.1-1.2,0.4c-0.2,0.1-0.3,0.3-0.4,0.5c-0.2,0.2-0.2,0.4-0.2,0.6H103.7
		L103.7,133.5z"/>
	<path class="st2" d="M105.6,135h-5.8c0,0.6,0.2,1.2,0.6,1.6c0.4,0.4,0.9,0.6,1.5,0.6c0.4,0,0.8-0.1,1.1-0.3c0.4-0.3,0.7-0.8,1-1.2
		l1.5,0.9c-0.2,0.4-0.5,0.7-0.8,1.1c-0.2,0.3-0.5,0.6-0.9,0.7c-0.3,0.2-0.7,0.3-1,0.4c-0.4,0.1-0.7,0.1-1.1,0.2
		c-1.1,0.1-2.2-0.4-2.9-1.1c-0.7-0.9-1.1-1.9-1.1-3.1c-0.1-1.1,0.3-2.2,1.1-3.1c1.6-1.5,4.1-1.5,5.7,0c0.7,0.9,1.1,2,1,3.2
		L105.6,135z M103.7,133.5c-0.2-0.9-1-1.5-1.9-1.5c-0.4,0-0.9,0.1-1.2,0.4c-0.2,0.1-0.3,0.3-0.4,0.5c-0.2,0.2-0.2,0.4-0.2,0.6H103.7
		L103.7,133.5z"/>
	<rect x="107.7" y="124.6" class="st1" width="1.9" height="14"/>
	<rect x="107.7" y="124.6" class="st2" width="1.9" height="14"/>
	<polygon class="st1" points="114.6,137.1 110.9,130.6 113.1,130.6 115.6,135.2 117.9,130.6 120.1,130.6 113.6,143 111.5,143 	"/>
	<polygon class="st2" points="114.6,137.1 110.9,130.6 113.1,130.6 115.6,135.2 117.9,130.6 120.1,130.6 113.6,143 111.5,143 	"/>
</g>
</svg>
