<?xml version="1.0" encoding="utf-8"?>
<!-- Generator: Adobe Illustrator 24.0.1, SVG Export Plug-In . SVG Version: 6.00 Build 0)  -->
<svg version="1.1" id="Layer_1" xmlns="http://www.w3.org/2000/svg" xmlns:xlink="http://www.w3.org/1999/xlink" x="0px" y="0px"
	 viewBox="0 0 144 144" style="enable-background:new 0 0 144 144;" xml:space="preserve">
<style type="text/css">
	.st0{fill:#000094;}
	.st1{clip-path:url(#SVGID_2_);}
	.st2{stroke:#FFFFFF;stroke-width:28.8;}
	.st3{fill:#FFFFFF;stroke:#FFFFFF;stroke-width:29;stroke-miterlimit:10;}
	.st4{fill:none;stroke:#000000;stroke-width:3.75;stroke-linejoin:round;}
	.st5{fill:#FFFFFF;stroke:#FFFFFF;stroke-width:28.8;stroke-miterlimit:10;}
	.st6{fill:#FFFFFF;}
	.st7{fill:none;stroke:#000000;stroke-width:0.5;}
</style>
<g id="Layer_2_1_">
	<title>Mike</title>
	<rect class="st0" width="144" height="144"/>
	<g>
		<g>
			<defs>
				<rect id="SVGID_1_" width="144" height="144"/>
			</defs>
			<clipPath id="SVGID_2_">
				<use xlink:href="#SVGID_1_"  style="overflow:visible;"/>
			</clipPath>
			<g class="st1">
				<path class="st2" d="M0,0l144,144 M144,0L0,144"/>
			</g>
		</g>
	</g>
	<line class="st3" x1="110" y1="110" x2="71.9" y2="72"/>
	<path class="st4" d="M0,0h144v144H0V0z"/>
	<path class="st5" d="M71.9,72l-32.8,32.8L71.9,72z"/>
</g>
<g id="Layer_1_1_">
	<polygon class="st6" points="22.7,103.7 25.4,89.7 29.9,99.8 34.5,89.7 37,103.7 35,103.7 33.7,95.8 29.9,104.3 26.1,95.8 
		24.7,103.7 	"/>
	<polygon class="st7" points="22.7,103.7 25.4,89.7 29.9,99.8 34.5,89.7 37,103.7 35,103.7 33.7,95.8 29.9,104.3 26.1,95.8 
		24.7,103.7 	"/>
	<polygon class="st6" points="42,102.2 38.3,95.5 40.4,95.5 43,100.2 45.4,95.5 47.5,95.5 40.9,108.2 38.8,108.2 	"/>
	<polygon class="st7" points="42,102.2 38.3,95.5 40.4,95.5 43,100.2 45.4,95.5 47.5,95.5 40.9,108.2 38.8,108.2 	"/>
	<polygon class="st6" points="55.2,95.5 57.4,100.1 59.5,95.5 61.7,95.5 57.4,104.3 53.2,95.5 	"/>
	<polygon class="st7" points="55.2,95.5 57.4,100.1 59.5,95.5 61.7,95.5 57.4,104.3 53.2,95.5 	"/>
	<path class="st6" d="M70.1,100h-5.9c0,0.6,0.2,1.2,0.7,1.7c0.7,0.7,1.8,0.8,2.6,0.2c0.4-0.4,0.7-0.8,1-1.3l1.7,1
		c-0.2,0.4-0.5,0.7-0.8,1s-0.6,0.5-0.9,0.7s-0.6,0.3-1,0.4s-0.8,0.1-1.2,0.2c-1.1,0-2.2-0.4-3-1.2c-0.8-0.9-1.1-2-1.1-3.1
		c-0.1-1.1,0.3-2.3,1.1-3.1c0.7-0.8,1.8-1.2,2.9-1.2s2.1,0.4,2.9,1.2c0.8,0.9,1.2,2.1,1.1,3.3L70.1,100z M68.2,98.4
		c-0.2-0.9-1-1.6-1.9-1.5c-0.2,0-0.4,0-0.7,0.1c-0.2,0.1-0.4,0.2-0.6,0.3c-0.2,0.1-0.3,0.3-0.4,0.5c-0.2,0.2-0.3,0.4-0.2,0.7
		L68.2,98.4L68.2,98.4z"/>
	<path class="st7" d="M70.1,100h-5.9c0,0.6,0.2,1.2,0.7,1.7c0.7,0.7,1.8,0.8,2.6,0.2c0.4-0.4,0.7-0.8,1-1.3l1.7,1
		c-0.2,0.4-0.5,0.7-0.8,1s-0.6,0.5-0.9,0.7s-0.6,0.3-1,0.4s-0.8,0.1-1.2,0.2c-1.1,0-2.2-0.4-3-1.2c-0.8-0.9-1.1-2-1.1-3.1
		c-0.1-1.1,0.3-2.3,1.1-3.1c0.7-0.8,1.8-1.2,2.9-1.2s2.1,0.4,2.9,1.2c0.8,0.9,1.2,2.1,1.1,3.3L70.1,100z M68.2,98.4
		c-0.2-0.9-1-1.6-1.9-1.5c-0.2,0-0.4,0-0.7,0.1c-0.2,0.1-0.4,0.2-0.6,0.3c-0.2,0.1-0.3,0.3-0.4,0.5c-0.2,0.2-0.3,0.4-0.2,0.7
		L68.2,98.4L68.2,98.4z"/>
	<path class="st6" d="M77,96.9l-1.6,0.8c-0.2-0.5-0.6-0.7-0.9-0.7c-0.2,0-0.3,0.1-0.4,0.2s-0.2,0.3-0.2,0.4c0,0.3,0.3,0.7,1.1,1
		c0.7,0.3,1.4,0.7,2.1,1.2c0.4,0.4,0.5,0.9,0.5,1.5c0,0.8-0.3,1.5-0.9,2s-1.3,0.8-2.1,0.7c-1.3,0.1-2.5-0.8-3-2l1.7-0.7l0.5,0.7
		c0.2,0.2,0.5,0.3,0.8,0.3c0.7,0,1-0.2,1-1c0-0.3-0.2-0.7-0.7-1l-0.6-0.2l-0.6-0.2c-0.4-0.2-0.8-0.5-1.2-0.8
		c-0.3-0.3-0.5-0.8-0.4-1.3c0-0.7,0.3-1.3,0.7-1.8c0.5-0.5,1.1-0.7,1.8-0.7C75.7,95.2,76.7,95.9,77,96.9z"/>
	<path class="st7" d="M77,96.9l-1.6,0.8c-0.2-0.5-0.6-0.7-0.9-0.7c-0.2,0-0.3,0.1-0.4,0.2s-0.2,0.3-0.2,0.4c0,0.3,0.3,0.7,1.1,1
		c0.7,0.3,1.4,0.7,2.1,1.2c0.4,0.4,0.5,0.9,0.5,1.5c0,0.8-0.3,1.5-0.9,2s-1.3,0.8-2.1,0.7c-1.3,0.1-2.5-0.8-3-2l1.7-0.7l0.5,0.7
		c0.2,0.2,0.5,0.3,0.8,0.3c0.7,0,1-0.2,1-1c0-0.3-0.2-0.7-0.7-1l-0.6-0.2l-0.6-0.2c-0.4-0.2-0.8-0.5-1.2-0.8
		c-0.3-0.3-0.5-0.8-0.4-1.3c0-0.7,0.3-1.3,0.7-1.8c0.5-0.5,1.1-0.7,1.8-0.7C75.7,95.2,76.7,95.9,77,96.9z"/>
	<path class="st6" d="M84,96.9l-1.6,0.8c-0.2-0.5-0.6-0.7-1-0.7c-0.2,0-0.3,0.1-0.5,0.2c-0.1,0.1-0.2,0.3-0.2,0.4
		c0,0.3,0.3,0.7,1.1,1c0.7,0.3,1.4,0.7,2.1,1.2c0.4,0.4,0.6,0.9,0.5,1.4c0,0.8-0.4,1.5-1,2c-1.3,1.1-3.3,1-4.4-0.3l0,0
		c-0.2-0.3-0.4-0.6-0.6-0.9l1.7-0.7l0.5,0.7c0.2,0.2,0.5,0.3,0.8,0.3c0.7,0,1-0.2,1-1c0-0.3-0.2-0.7-0.7-1l-0.6-0.2l-0.6-0.2
		c-0.4-0.2-0.8-0.5-1.2-0.8c-0.3-0.4-0.5-0.8-0.4-1.3c0-0.7,0.3-1.3,0.7-1.8c0.5-0.5,1.1-0.7,1.8-0.7C82.7,95.1,83.7,95.8,84,96.9z"
		/>
	<path class="st7" d="M84,96.9l-1.6,0.8c-0.2-0.5-0.6-0.7-1-0.7c-0.2,0-0.3,0.1-0.5,0.2c-0.1,0.1-0.2,0.3-0.2,0.4
		c0,0.3,0.3,0.7,1.1,1c0.7,0.3,1.4,0.7,2.1,1.2c0.4,0.4,0.6,0.9,0.5,1.4c0,0.8-0.4,1.5-1,2c-1.3,1.1-3.3,1-4.4-0.3l0,0
		c-0.2-0.3-0.4-0.6-0.6-0.9l1.7-0.7l0.5,0.7c0.2,0.2,0.5,0.3,0.8,0.3c0.7,0,1-0.2,1-1c0-0.3-0.2-0.7-0.7-1l-0.6-0.2l-0.6-0.2
		c-0.4-0.2-0.8-0.5-1.2-0.8c-0.3-0.4-0.5-0.8-0.4-1.3c0-0.7,0.3-1.3,0.7-1.8c0.5-0.5,1.1-0.7,1.8-0.7C82.7,95.1,83.7,95.8,84,96.9z"
		/>
	<path class="st6" d="M93.8,100h-5.9c0,0.6,0.2,1.2,0.7,1.7c0.4,0.4,0.9,0.6,1.5,0.6c0.4,0,0.8-0.1,1.2-0.3c0.4-0.4,0.8-0.8,1.1-1.2
		l1.6,1c-0.2,0.4-0.5,0.8-0.8,1.1c-0.3,0.3-0.6,0.5-1,0.7c-0.3,0.2-0.6,0.3-1,0.4s-0.8,0.1-1.2,0.2c-1.1,0-2.2-0.4-3-1.2
		c-0.8-0.9-1.1-2-1.1-3.2c-0.1-1.1,0.3-2.3,1.1-3.1c1.6-1.5,4.1-1.5,5.7,0c0.7,0.9,1.1,2,1,3.1L93.8,100z M91.8,98.4
		c-0.2-0.9-1-1.6-1.9-1.5c-0.4,0-0.9,0.2-1.2,0.4c-0.2,0.1-0.3,0.3-0.4,0.5c-0.2,0.2-0.3,0.4-0.2,0.7L91.8,98.4L91.8,98.4z"/>
	<path class="st7" d="M93.8,100h-5.9c0,0.6,0.2,1.2,0.7,1.7c0.4,0.4,0.9,0.6,1.5,0.6c0.4,0,0.8-0.1,1.2-0.3c0.4-0.4,0.8-0.8,1.1-1.2
		l1.6,1c-0.2,0.4-0.5,0.8-0.8,1.1c-0.3,0.3-0.6,0.5-1,0.7c-0.3,0.2-0.6,0.3-1,0.4s-0.8,0.1-1.2,0.2c-1.1,0-2.2-0.4-3-1.2
		c-0.8-0.9-1.1-2-1.1-3.2c-0.1-1.1,0.3-2.3,1.1-3.1c1.6-1.5,4.1-1.5,5.7,0c0.7,0.9,1.1,2,1,3.1L93.8,100z M91.8,98.4
		c-0.2-0.9-1-1.6-1.9-1.5c-0.4,0-0.9,0.2-1.2,0.4c-0.2,0.1-0.3,0.3-0.4,0.5c-0.2,0.2-0.3,0.4-0.2,0.7L91.8,98.4L91.8,98.4z"/>
	<rect x="95.8" y="89.4" class="st6" width="1.9" height="14.3"/>
	<rect x="95.8" y="89.4" class="st7" width="1.9" height="14.3"/>
	<path class="st6" d="M105.3,92c-0.1-0.7,0.4-1.3,1.1-1.3c0.7-0.1,1.3,0.4,1.3,1.1c0,0.1,0,0.1,0,0.2l0,0c0,0.3-0.1,0.7-0.3,1
		c-0.2,0.3-0.6,0.4-1,0.3C105.8,93.3,105.3,92.7,105.3,92C105.3,92.1,105.3,92,105.3,92z M107.4,95.5v8.3h-1.9v-8.3H107.4z"/>
	<path class="st7" d="M105.3,92c-0.1-0.7,0.4-1.3,1.1-1.3c0.7-0.1,1.3,0.4,1.3,1.1c0,0.1,0,0.1,0,0.2l0,0c0,0.3-0.1,0.7-0.3,1
		c-0.2,0.3-0.6,0.4-1,0.3C105.8,93.3,105.3,92.7,105.3,92C105.3,92.1,105.3,92,105.3,92z M107.4,95.5v8.3h-1.9v-8.3H107.4z"/>
	<path class="st6" d="M114.7,96.9l-1.6,0.8c-0.2-0.5-0.6-0.7-1-0.7c-0.2,0-0.3,0.1-0.4,0.2c-0.2,0.1-0.2,0.2-0.2,0.4
		c0,0.3,0.4,0.7,1.1,1s1.4,0.7,2.1,1.2c0.4,0.4,0.5,0.9,0.5,1.5c0,0.8-0.4,1.5-1,2s-1.3,0.8-2.1,0.7c-1.3,0.1-2.5-0.8-3-2l1.7-0.7
		l0.5,0.7c0.2,0.2,0.5,0.3,0.8,0.3c0.7,0,1-0.2,1-1c0-0.3-0.2-0.7-0.7-1l-0.6-0.2l-0.6-0.2c-0.4-0.2-0.8-0.5-1.2-0.8
		c-0.3-0.4-0.4-0.8-0.4-1.3c0-0.7,0.3-1.3,0.7-1.8c0.5-0.5,1.1-0.7,1.8-0.7C113.3,95.1,114.3,95.8,114.7,96.9z"/>
	<path class="st7" d="M114.7,96.9l-1.6,0.8c-0.2-0.5-0.6-0.7-1-0.7c-0.2,0-0.3,0.1-0.4,0.2c-0.2,0.1-0.2,0.2-0.2,0.4
		c0,0.3,0.4,0.7,1.1,1s1.4,0.7,2.1,1.2c0.4,0.4,0.5,0.9,0.5,1.5c0,0.8-0.4,1.5-1,2s-1.3,0.8-2.1,0.7c-1.3,0.1-2.5-0.8-3-2l1.7-0.7
		l0.5,0.7c0.2,0.2,0.5,0.3,0.8,0.3c0.7,0,1-0.2,1-1c0-0.3-0.2-0.7-0.7-1l-0.6-0.2l-0.6-0.2c-0.4-0.2-0.8-0.5-1.2-0.8
		c-0.3-0.4-0.4-0.8-0.4-1.3c0-0.7,0.3-1.3,0.7-1.8c0.5-0.5,1.1-0.7,1.8-0.7C113.3,95.1,114.3,95.8,114.7,96.9z"/>
	<path class="st6" d="M44.9,113.1l-1.6,0.8c-0.2-0.5-0.6-0.7-1-0.7c-0.2,0-0.3,0.1-0.4,0.2c-0.2,0.1-0.2,0.2-0.2,0.4
		c0,0.3,0.3,0.7,1.1,1c0.7,0.3,1.4,0.7,2.1,1.2c0.4,0.4,0.5,0.9,0.5,1.5c0,0.8-0.4,1.5-1,2s-1.3,0.7-2.1,0.7c-1.3,0.1-2.6-0.8-3-2.1
		l1.7-0.7l0.5,0.7c0.2,0.2,0.5,0.3,0.8,0.3c0.7,0,1-0.2,1-0.9c0-0.3-0.2-0.7-0.7-1l-0.6-0.2l-0.6-0.2c-0.4-0.2-0.8-0.5-1.2-0.8
		c-0.3-0.4-0.5-0.8-0.4-1.3c0-0.7,0.3-1.3,0.7-1.8c0.5-0.5,1.1-0.7,1.8-0.7C43.5,111.4,44.5,112.1,44.9,113.1z"/>
	<path class="st7" d="M44.9,113.1l-1.6,0.8c-0.2-0.5-0.6-0.7-1-0.7c-0.2,0-0.3,0.1-0.4,0.2c-0.2,0.1-0.2,0.2-0.2,0.4
		c0,0.3,0.3,0.7,1.1,1c0.7,0.3,1.4,0.7,2.1,1.2c0.4,0.4,0.5,0.9,0.5,1.5c0,0.8-0.4,1.5-1,2s-1.3,0.7-2.1,0.7c-1.3,0.1-2.6-0.8-3-2.1
		l1.7-0.7l0.5,0.7c0.2,0.2,0.5,0.3,0.8,0.3c0.7,0,1-0.2,1-0.9c0-0.3-0.2-0.7-0.7-1l-0.6-0.2l-0.6-0.2c-0.4-0.2-0.8-0.5-1.2-0.8
		c-0.3-0.4-0.5-0.8-0.4-1.3c0-0.7,0.3-1.3,0.7-1.8c0.5-0.5,1.1-0.7,1.8-0.7C43.5,111.4,44.5,112.1,44.9,113.1z"/>
	<polygon class="st6" points="49.1,113.4 49.1,119.9 47.2,119.9 47.2,113.4 46.4,113.4 46.4,111.6 47.2,111.6 47.2,108.5 
		49.1,108.5 49.1,111.6 50.6,111.6 50.6,113.4 	"/>
	<polygon class="st7" points="49.1,113.4 49.1,119.9 47.2,119.9 47.2,113.4 46.4,113.4 46.4,111.6 47.2,111.6 47.2,108.5 
		49.1,108.5 49.1,111.6 50.6,111.6 50.6,113.4 	"/>
	<path class="st6" d="M51.6,115.7c0-1.2,0.5-2.3,1.3-3.1c1.8-1.7,4.5-1.7,6.3,0c0.9,0.8,1.3,2,1.2,3.1c0.1,1.2-0.4,2.3-1.2,3.1
		c-0.8,0.8-2,1.3-3.1,1.2c-1.2,0-2.3-0.5-3.1-1.3C52,118.1,51.5,116.9,51.6,115.7z M53.5,115.7c-0.2,1.3,0.8,2.6,2.1,2.7
		c0.8,0.1,1.6-0.2,2.1-0.8c0.9-1.1,0.9-2.8,0-3.9c-1-1-2.6-1-3.6,0l0,0C53.7,114.3,53.5,115,53.5,115.7L53.5,115.7z"/>
	<path class="st7" d="M51.6,115.7c0-1.2,0.5-2.3,1.3-3.1c1.8-1.7,4.5-1.7,6.3,0c0.9,0.8,1.3,2,1.2,3.1c0.1,1.2-0.4,2.3-1.2,3.1
		c-0.8,0.8-2,1.3-3.1,1.2c-1.2,0-2.3-0.5-3.1-1.3C52,118.1,51.5,116.9,51.6,115.7z M53.5,115.7c-0.2,1.3,0.8,2.6,2.1,2.7
		c0.8,0.1,1.6-0.2,2.1-0.8c0.9-1.1,0.9-2.8,0-3.9c-1-1-2.6-1-3.6,0l0,0C53.7,114.3,53.5,115,53.5,115.7L53.5,115.7z"/>
	<path class="st6" d="M64.3,124.4h-1.9v-12.7h1.9v1c1.4-1.5,3.7-1.5,5.1-0.2l0.2,0.2c0.8,0.9,1.2,2,1.2,3.1c0.1,1.1-0.3,2.3-1.1,3.1
		c-1.3,1.5-3.6,1.6-5.1,0.3l-0.2-0.2L64.3,124.4L64.3,124.4z M68.8,115.8c0-0.7-0.2-1.4-0.7-1.9c-0.4-0.5-1-0.8-1.7-0.7
		c-0.7,0-1.3,0.3-1.7,0.7c-0.4,0.5-0.7,1.2-0.7,1.9c0,0.7,0.2,1.4,0.7,1.9c0.4,0.5,1.1,0.8,1.7,0.7c0.6,0,1.2-0.3,1.7-0.7
		C68.6,117.2,68.8,116.5,68.8,115.8L68.8,115.8z"/>
	<path class="st7" d="M64.3,124.4h-1.9v-12.7h1.9v1c1.4-1.5,3.7-1.5,5.1-0.2l0.2,0.2c0.8,0.9,1.2,2,1.2,3.1c0.1,1.1-0.3,2.3-1.1,3.1
		c-1.3,1.5-3.6,1.6-5.1,0.3l-0.2-0.2L64.3,124.4L64.3,124.4z M68.8,115.8c0-0.7-0.2-1.4-0.7-1.9c-0.4-0.5-1-0.8-1.7-0.7
		c-0.7,0-1.3,0.3-1.7,0.7c-0.4,0.5-0.7,1.2-0.7,1.9c0,0.7,0.2,1.4,0.7,1.9c0.4,0.5,1.1,0.8,1.7,0.7c0.6,0,1.2-0.3,1.7-0.7
		C68.6,117.2,68.8,116.5,68.8,115.8L68.8,115.8z"/>
	<path class="st6" d="M74.7,124.4h-1.9v-12.7h1.9v1c1.4-1.5,3.7-1.5,5.1-0.2l0.2,0.2c0.8,0.9,1.2,2,1.2,3.1c0.1,1.2-0.3,2.3-1.2,3.1
		c-1.3,1.5-3.6,1.6-5.1,0.3l-0.2-0.2V124.4z M79.2,115.8c0-0.7-0.2-1.4-0.7-1.9c-0.4-0.5-1-0.8-1.7-0.7c-0.7,0-1.3,0.3-1.7,0.7
		c-0.4,0.5-0.7,1.2-0.7,1.9c0,0.7,0.2,1.4,0.7,1.9c0.4,0.5,1.1,0.8,1.7,0.7c0.6,0,1.2-0.3,1.7-0.7C79,117.2,79.2,116.5,79.2,115.8z"
		/>
	<path class="st7" d="M74.7,124.4h-1.9v-12.7h1.9v1c1.4-1.5,3.7-1.5,5.1-0.2l0.2,0.2c0.8,0.9,1.2,2,1.2,3.1c0.1,1.2-0.3,2.3-1.2,3.1
		c-1.3,1.5-3.6,1.6-5.1,0.3l-0.2-0.2V124.4z M79.2,115.8c0-0.7-0.2-1.4-0.7-1.9c-0.4-0.5-1-0.8-1.7-0.7c-0.7,0-1.3,0.3-1.7,0.7
		c-0.4,0.5-0.7,1.2-0.7,1.9c0,0.7,0.2,1.4,0.7,1.9c0.4,0.5,1.1,0.8,1.7,0.7c0.6,0,1.2-0.3,1.7-0.7C79,117.2,79.2,116.5,79.2,115.8z"
		/>
	<path class="st6" d="M90.7,116.2h-5.9c0,0.6,0.2,1.2,0.7,1.7c0.4,0.4,0.9,0.6,1.5,0.6c0.4,0,0.8-0.2,1.2-0.4
		c0.4-0.3,0.8-0.8,1.1-1.2l1.6,1c-0.2,0.4-0.5,0.7-0.7,1.1c-0.3,0.3-0.6,0.5-1,0.7c-0.3,0.2-0.6,0.3-1,0.4s-0.8,0.1-1.2,0.2
		c-1.1,0.1-2.2-0.4-3-1.2c-0.7-0.9-1.1-2-1.2-3.1s0.3-2.3,1.1-3.1c1.6-1.5,4.1-1.5,5.7,0c0.8,0.9,1.1,2,1.1,3.2L90.7,116.2z
		 M88.7,114.7c-0.3-1.1-1.4-1.8-2.5-1.5h-0.1c-0.2,0.1-0.4,0.2-0.6,0.3c-0.2,0.1-0.3,0.3-0.4,0.5c-0.2,0.2-0.3,0.4-0.2,0.7H88.7z"/>
	<path class="st7" d="M90.7,116.2h-5.9c0,0.6,0.2,1.2,0.7,1.7c0.4,0.4,0.9,0.6,1.5,0.6c0.4,0,0.8-0.2,1.2-0.4
		c0.4-0.3,0.8-0.8,1.1-1.2l1.6,1c-0.2,0.4-0.5,0.7-0.7,1.1c-0.3,0.3-0.6,0.5-1,0.7c-0.3,0.2-0.6,0.3-1,0.4s-0.8,0.1-1.2,0.2
		c-1.1,0.1-2.2-0.4-3-1.2c-0.7-0.9-1.1-2-1.2-3.1s0.3-2.3,1.1-3.1c1.6-1.5,4.1-1.5,5.7,0c0.8,0.9,1.1,2,1.1,3.2L90.7,116.2z
		 M88.7,114.7c-0.3-1.1-1.4-1.8-2.5-1.5h-0.1c-0.2,0.1-0.4,0.2-0.6,0.3c-0.2,0.1-0.3,0.3-0.4,0.5c-0.2,0.2-0.3,0.4-0.2,0.7H88.7z"/>
	<path class="st6" d="M98.9,105.6h1.9v14.3h-1.9v-0.8c-0.7,0.7-1.6,1.1-2.6,1.1c-1.1,0-2.1-0.4-2.8-1.2c-0.7-0.9-1.2-2-1.2-3.1
		s0.4-2.2,1.2-3.1c1.3-1.5,3.5-1.7,5-0.4l0.3,0.3L98.9,105.6z M94.3,115.7c0,0.7,0.2,1.4,0.7,1.9c0.4,0.5,1,0.8,1.7,0.7
		c0.7,0,1.3-0.3,1.7-0.7c0.9-1.1,0.9-2.7,0-3.8c-0.4-0.5-1.1-0.8-1.7-0.7c-0.6,0-1.2,0.3-1.7,0.7C94.5,114.4,94.3,115,94.3,115.7z"
		/>
	<path class="st7" d="M98.9,105.6h1.9v14.3h-1.9v-0.8c-0.7,0.7-1.6,1.1-2.6,1.1c-1.1,0-2.1-0.4-2.8-1.2c-0.7-0.9-1.2-2-1.2-3.1
		s0.4-2.2,1.2-3.1c1.3-1.5,3.5-1.7,5-0.4l0.3,0.3L98.9,105.6z M94.3,115.7c0,0.7,0.2,1.4,0.7,1.9c0.4,0.5,1,0.8,1.7,0.7
		c0.7,0,1.3-0.3,1.7-0.7c0.9-1.1,0.9-2.7,0-3.8c-0.4-0.5-1.1-0.8-1.7-0.7c-0.6,0-1.2,0.3-1.7,0.7C94.5,114.4,94.3,115,94.3,115.7z"
		/>
	<path class="st6" d="M104.3,117.5l1.7,0.7l-2.4,4.9l-1.3-0.6L104.3,117.5z M103.9,112.6c0-0.6,0.5-1.1,1.1-1.2c0,0,0,0,0.1,0
		c0.6,0,1.1,0.5,1.2,1.2c0,0.3-0.1,0.6-0.3,0.8c-0.5,0.4-1.2,0.4-1.7,0C104,113.2,103.9,112.9,103.9,112.6z"/>
	<path class="st7" d="M104.3,117.5l1.7,0.7l-2.4,4.9l-1.3-0.6L104.3,117.5z M103.9,112.6c0-0.6,0.5-1.1,1.1-1.2c0,0,0,0,0.1,0
		c0.6,0,1.1,0.5,1.2,1.2c0,0.3-0.1,0.6-0.3,0.8c-0.5,0.4-1.2,0.4-1.7,0C104,113.2,103.9,112.9,103.9,112.6z"/>
	<path class="st6" d="M12,128.2h1.9v0.7c0.2-0.3,0.6-0.6,0.9-0.7c0.3-0.2,0.7-0.3,1.1-0.2c0.9,0,1.8,0.5,2.2,1.2
		c0.5-0.8,1.4-1.3,2.4-1.2c1.9,0,2.8,1.2,2.8,3.4v5.1h-1.9V132c0-0.6-0.1-1.1-0.3-1.6c-0.2-0.3-0.6-0.5-1-0.5
		c-0.5,0-0.9,0.2-1.2,0.6c-0.3,0.6-0.4,1.3-0.3,1.9v4.3h-2v-4.5c0-1.5-0.4-2.2-1.2-2.2c-0.5,0-0.9,0.2-1.2,0.6
		c-0.3,0.6-0.4,1.3-0.4,1.9v4.3h-1.9L12,128.2z"/>
	<path class="st7" d="M12,128.2h1.9v0.7c0.2-0.3,0.6-0.6,0.9-0.7c0.3-0.2,0.7-0.3,1.1-0.2c0.9,0,1.8,0.5,2.2,1.2
		c0.5-0.8,1.4-1.3,2.4-1.2c1.9,0,2.8,1.2,2.8,3.4v5.1h-1.9V132c0-0.6-0.1-1.1-0.3-1.6c-0.2-0.3-0.6-0.5-1-0.5
		c-0.5,0-0.9,0.2-1.2,0.6c-0.3,0.6-0.4,1.3-0.3,1.9v4.3h-2v-4.5c0-1.5-0.4-2.2-1.2-2.2c-0.5,0-0.9,0.2-1.2,0.6
		c-0.3,0.6-0.4,1.3-0.4,1.9v4.3h-1.9L12,128.2z"/>
	<path class="st6" d="M31.7,128.2h1.9v8.3h-1.9v-0.8c-1.4,1.4-3.7,1.5-5.2,0.1l-0.2-0.2c-0.7-0.9-1.2-2-1.2-3.2c0-1.1,0.3-2.2,1-3
		s1.7-1.3,2.8-1.2c1,0,1.9,0.4,2.6,1.2L31.7,128.2z M27.3,132.3c0,0.7,0.2,1.4,0.7,1.9c0.4,0.5,1,0.8,1.7,0.7c0.7,0,1.3-0.3,1.7-0.7
		c0.9-1.1,0.9-2.7,0-3.8c-0.4-0.5-1-0.7-1.7-0.7c-0.6,0-1.2,0.3-1.7,0.7C27.5,130.8,27.2,131.6,27.3,132.3z"/>
	<path class="st7" d="M31.7,128.2h1.9v8.3h-1.9v-0.8c-1.4,1.4-3.7,1.5-5.2,0.1l-0.2-0.2c-0.7-0.9-1.2-2-1.2-3.2c0-1.1,0.3-2.2,1-3
		s1.7-1.3,2.8-1.2c1,0,1.9,0.4,2.6,1.2L31.7,128.2z M27.3,132.3c0,0.7,0.2,1.4,0.7,1.9c0.4,0.5,1,0.8,1.7,0.7c0.7,0,1.3-0.3,1.7-0.7
		c0.9-1.1,0.9-2.7,0-3.8c-0.4-0.5-1-0.7-1.7-0.7c-0.6,0-1.2,0.3-1.7,0.7C27.5,130.8,27.2,131.6,27.3,132.3z"/>
	<polygon class="st6" points="38,122.1 38,130.8 40.7,128.2 43.2,128.2 39.7,131.6 43.5,136.4 41,136.4 38.3,133 37.9,133.3 
		37.9,136.4 36,136.4 36,122.1 	"/>
	<polygon class="st7" points="38,122.1 38,130.8 40.7,128.2 43.2,128.2 39.7,131.6 43.5,136.4 41,136.4 38.3,133 37.9,133.3 
		37.9,136.4 36,136.4 36,122.1 	"/>
	<path class="st6" d="M44.5,124.7c0-0.6,0.5-1.2,1.2-1.2h0.1c0.3,0,0.6,0.1,0.8,0.3c0.2,0.2,0.3,0.5,0.3,0.8s-0.1,0.7-0.3,1
		c-0.2,0.2-0.5,0.3-0.8,0.3s-0.7-0.1-0.9-0.3C44.6,125.4,44.5,125.1,44.5,124.7z M46.6,128.1v8.3h-1.9v-8.3H46.6z"/>
	<path class="st7" d="M44.5,124.7c0-0.6,0.5-1.2,1.2-1.2h0.1c0.3,0,0.6,0.1,0.8,0.3c0.2,0.2,0.3,0.5,0.3,0.8s-0.1,0.7-0.3,1
		c-0.2,0.2-0.5,0.3-0.8,0.3s-0.7-0.1-0.9-0.3C44.6,125.4,44.5,125.1,44.5,124.7z M46.6,128.1v8.3h-1.9v-8.3H46.6z"/>
	<path class="st6" d="M49.1,128.2H51v0.7c0.6-0.6,1.4-1,2.2-1c0.9-0.1,1.7,0.3,2.2,1s0.7,1.6,0.7,2.5v5h-1.9v-4.5
		c0.1-0.6-0.1-1.1-0.3-1.7c-0.3-0.3-0.8-0.5-1.2-0.5c-0.5-0.1-1.1,0.2-1.3,0.7c-0.3,0.7-0.5,1.4-0.4,2.1v4h-1.9V128.2z"/>
	<path class="st7" d="M49.1,128.2H51v0.7c0.6-0.6,1.4-1,2.2-1c0.9-0.1,1.7,0.3,2.2,1s0.7,1.6,0.7,2.5v5h-1.9v-4.5
		c0.1-0.6-0.1-1.1-0.3-1.7c-0.3-0.3-0.8-0.5-1.2-0.5c-0.5-0.1-1.1,0.2-1.3,0.7c-0.3,0.7-0.5,1.4-0.4,2.1v4h-1.9V128.2z"/>
	<path class="st6" d="M66.6,136.3v1c0,0.2-0.1,0.6-0.1,0.8c-0.1,0.6-0.4,1.1-0.8,1.6c-0.8,0.9-1.9,1.4-3.1,1.3c-1,0-2-0.3-2.7-0.9
		c-0.8-0.6-1.2-1.6-1.2-2.6h1.9c0.1,0.3,0.2,0.7,0.3,1c0.4,0.5,1.1,0.8,1.7,0.7c1.4,0,2.1-0.8,2.1-2.6v-1.2
		c-0.7,0.7-1.6,1.2-2.6,1.2c-1.1,0.1-2.1-0.4-2.8-1.2c-0.8-0.9-1.2-2-1.1-3.1c0-1.1,0.3-2.2,1-3.1c1.3-1.5,3.6-1.8,5.1-0.5
		c0.1,0.1,0.2,0.2,0.3,0.3v-1h1.9L66.6,136.3L66.6,136.3z M64.8,132.3c0-0.7-0.2-1.4-0.7-1.9c-0.4-0.5-1-0.8-1.7-0.7
		c-0.7,0-1.3,0.3-1.7,0.8c-0.7,1.1-0.7,2.6,0,3.7c0.4,0.5,1.1,0.8,1.7,0.8c0.7,0,1.3-0.3,1.7-0.8C64.6,133.6,64.8,132.9,64.8,132.3
		L64.8,132.3z"/>
	<path class="st7" d="M66.6,136.3v1c0,0.2-0.1,0.6-0.1,0.8c-0.1,0.6-0.4,1.1-0.8,1.6c-0.8,0.9-1.9,1.4-3.1,1.3c-1,0-2-0.3-2.7-0.9
		c-0.8-0.6-1.2-1.6-1.2-2.6h1.9c0.1,0.3,0.2,0.7,0.3,1c0.4,0.5,1.1,0.8,1.7,0.7c1.4,0,2.1-0.8,2.1-2.6v-1.2
		c-0.7,0.7-1.6,1.2-2.6,1.2c-1.1,0.1-2.1-0.4-2.8-1.2c-0.8-0.9-1.2-2-1.1-3.1c0-1.1,0.3-2.2,1-3.1c1.3-1.5,3.6-1.8,5.1-0.5
		c0.1,0.1,0.2,0.2,0.3,0.3v-1h1.9L66.6,136.3L66.6,136.3z M64.8,132.3c0-0.7-0.2-1.4-0.7-1.9c-0.4-0.5-1-0.8-1.7-0.7
		c-0.7,0-1.3,0.3-1.7,0.8c-0.7,1.1-0.7,2.6,0,3.7c0.4,0.5,1.1,0.8,1.7,0.8c0.7,0,1.3-0.3,1.7-0.8C64.6,133.6,64.8,132.9,64.8,132.3
		L64.8,132.3z"/>
	<path class="st6" d="M74.7,128.4h1.9v0.7c0.6-0.6,1.4-1,2.2-1c0.9,0,1.7,0.3,2.2,1s0.7,1.6,0.7,2.5v5h-1.8v-4.7
		c0.1-0.6-0.1-1.1-0.3-1.6c-0.3-0.3-0.8-0.5-1.2-0.5c-0.5-0.1-1.1,0.2-1.3,0.7c-0.3,0.7-0.4,1.4-0.4,2.1v4h-1.9L74.7,128.4
		L74.7,128.4z"/>
	<path class="st7" d="M74.7,128.4h1.9v0.7c0.6-0.6,1.4-1,2.2-1c0.9,0,1.7,0.3,2.2,1s0.7,1.6,0.7,2.5v5h-1.8v-4.7
		c0.1-0.6-0.1-1.1-0.3-1.6c-0.3-0.3-0.8-0.5-1.2-0.5c-0.5-0.1-1.1,0.2-1.3,0.7c-0.3,0.7-0.4,1.4-0.4,2.1v4h-1.9L74.7,128.4
		L74.7,128.4z"/>
	<path class="st6" d="M83.8,132.5c0-1.1,0.4-2.2,1.2-3.1c1.8-1.6,4.5-1.6,6.3,0c1.7,1.7,1.7,4.4,0,6.2l0,0c-1.7,1.7-4.5,1.8-6.2,0.1
		C84.3,134.8,83.8,133.7,83.8,132.5L83.8,132.5z M85.8,132.5c0,0.7,0.2,1.4,0.7,2c1,1,2.5,1,3.5,0l0,0c0.9-1.1,0.9-2.8,0-3.9
		c-1-1-2.5-1-3.5,0l0,0C86,131.1,85.7,131.8,85.8,132.5L85.8,132.5z"/>
	<path class="st7" d="M83.8,132.5c0-1.1,0.4-2.2,1.2-3.1c1.8-1.6,4.5-1.6,6.3,0c1.7,1.7,1.7,4.4,0,6.2l0,0c-1.7,1.7-4.5,1.8-6.2,0.1
		C84.3,134.8,83.8,133.7,83.8,132.5L83.8,132.5z M85.8,132.5c0,0.7,0.2,1.4,0.7,2c1,1,2.5,1,3.5,0l0,0c0.9-1.1,0.9-2.8,0-3.9
		c-1-1-2.5-1-3.5,0l0,0C86,131.1,85.7,131.8,85.8,132.5L85.8,132.5z"/>
	<polygon class="st6" points="101,128.4 103.2,133.1 105.5,127.6 107.9,133 110,128.3 112.2,128.3 107.9,137.2 105.5,131.9 
		103.2,137.2 98.9,128.4 	"/>
	<polygon class="st7" points="101,128.4 103.2,133.1 105.5,127.6 107.9,133 110,128.3 112.2,128.3 107.9,137.2 105.5,131.9 
		103.2,137.2 98.9,128.4 	"/>
	<path class="st6" d="M119.3,128.4h1.9v8.3h-1.9v-0.8c-1.4,1.4-3.7,1.5-5.2,0.1l-0.2-0.2c-0.7-0.9-1.2-2-1.2-3.1s0.4-2.2,1.2-3.1
		c0.7-0.8,1.7-1.3,2.8-1.2c1,0,1.9,0.4,2.6,1.2L119.3,128.4z M114.7,132.5c0,0.7,0.2,1.4,0.7,1.9c0.4,0.5,1,0.8,1.6,0.7
		c0.7,0,1.3-0.3,1.7-0.7c0.9-1.1,0.9-2.7,0-3.8c-0.8-0.9-2.2-1-3.1-0.2c-0.1,0.1-0.1,0.1-0.2,0.2C115,131.1,114.7,131.8,114.7,132.5
		z"/>
	<path class="st7" d="M119.3,128.4h1.9v8.3h-1.9v-0.8c-1.4,1.4-3.7,1.5-5.2,0.1l-0.2-0.2c-0.7-0.9-1.2-2-1.2-3.1s0.4-2.2,1.2-3.1
		c0.7-0.8,1.7-1.3,2.8-1.2c1,0,1.9,0.4,2.6,1.2L119.3,128.4z M114.7,132.5c0,0.7,0.2,1.4,0.7,1.9c0.4,0.5,1,0.8,1.6,0.7
		c0.7,0,1.3-0.3,1.7-0.7c0.9-1.1,0.9-2.7,0-3.8c-0.8-0.9-2.2-1-3.1-0.2c-0.1,0.1-0.1,0.1-0.2,0.2C115,131.1,114.7,131.8,114.7,132.5
		z"/>
	<polygon class="st6" points="126.4,135.1 122.6,128.4 124.9,128.4 127.4,133.1 129.8,128.4 132,128.4 125.4,141.1 123.2,141.1 	"/>
	<polygon class="st7" points="126.4,135.1 122.6,128.4 124.9,128.4 127.4,133.1 129.8,128.4 132,128.4 125.4,141.1 123.2,141.1 	"/>
</g>
</svg>
