<?xml version="1.0" encoding="utf-8"?>
<!-- Generator: Adobe Illustrator 24.0.1, SVG Export Plug-In . SVG Version: 6.00 Build 0)  -->
<svg version="1.1" xmlns="http://www.w3.org/2000/svg" xmlns:xlink="http://www.w3.org/1999/xlink" x="0px" y="0px"
	 viewBox="0 0 147.8 147.8" style="enable-background:new 0 0 147.8 147.8;" xml:space="preserve">
<style type="text/css">
	.st0{fill:#FFFFFF;}
	.st1{fill:#000094;}
	.st2{fill:none;stroke:#000000;stroke-width:3.75;stroke-linejoin:round;}
	.st3{fill:none;stroke:#000201;stroke-width:0.5;}
</style>
<g id="Layer_2">
	<title>November</title>
	<rect x="1.9" y="1.9" class="st0" width="144" height="144"/>
	<path class="st1" d="M1.9,1.9h36v144h36V1.9h36v144h36v-36H1.9v-36h144v-36H1.9V1.9z"/>
	<path class="st2" d="M1.9,1.9h144v144H1.9V1.9z"/>
</g>
<g id="Layer_1">
	<path class="st0" d="M50.7,96.2l-2.1-0.8l2.9-5.9l1.6,0.6L50.7,96.2z M54.8,96.2l-2.1-0.8l2.9-5.9l1.6,0.6L54.8,96.2z"/>
	<path class="st3" d="M50.7,96.2l-2.1-0.8l2.9-5.9l1.6,0.6L50.7,96.2z M54.8,96.2l-2.1-0.8l2.9-5.9l1.6,0.6L54.8,96.2z"/>
	<polygon class="st0" points="60.3,106.1 60.3,89.2 71.8,101.3 71.8,90.3 74.2,90.3 74.2,107.1 62.7,95.1 62.7,106.1 	"/>
	<polygon class="st3" points="60.3,106.1 60.3,89.2 71.8,101.3 71.8,90.3 74.2,90.3 74.2,107.1 62.7,95.1 62.7,106.1 	"/>
	<path class="st0" d="M77.2,101c0-1.4,0.6-2.8,1.6-3.7c2.1-2,5.5-2,7.6,0c2.1,2,2.1,5.4,0.1,7.4c0,0-0.1,0.1-0.1,0.1
		c-2.1,2-5.5,2-7.6,0C77.7,103.8,77.1,102.4,77.2,101z M79.6,101c0,0.9,0.2,1.7,0.8,2.4c1.2,1.2,3.1,1.2,4.2,0.1c0,0,0,0,0.1-0.1
		c1.1-1.4,1.1-3.3,0-4.7c-1.2-1.2-3.1-1.2-4.2-0.1c0,0,0,0-0.1,0.1C79.8,99.3,79.5,100.2,79.6,101z"/>
	<path class="st3" d="M77.2,101c0-1.4,0.6-2.8,1.6-3.7c2.1-2,5.5-2,7.6,0c2.1,2,2.1,5.4,0.1,7.4c0,0-0.1,0.1-0.1,0.1
		c-2.1,2-5.5,2-7.6,0C77.7,103.8,77.1,102.4,77.2,101z M79.6,101c0,0.9,0.2,1.7,0.8,2.4c1.2,1.2,3.1,1.2,4.2,0.1c0,0,0,0,0.1-0.1
		c1.1-1.4,1.1-3.3,0-4.7c-1.2-1.2-3.1-1.2-4.2-0.1c0,0,0,0-0.1,0.1C79.8,99.3,79.5,100.2,79.6,101z"/>
	<path class="st0" d="M92.5,89.6l2,0.8l-2.9,5.9L90,95.6L92.5,89.6z M96.6,89.6l2.1,0.8l-2.9,5.9l-1.6-0.7L96.6,89.6z"/>
	<path class="st3" d="M92.5,89.6l2,0.8l-2.9,5.9L90,95.6L92.5,89.6z M96.6,89.6l2.1,0.8l-2.9,5.9l-1.6-0.7L96.6,89.6z"/>
	<path class="st0" d="M63.8,116.1c0-1.4,0.6-2.8,1.6-3.7c2.1-2,5.5-2,7.6,0c2.1,2,2.1,5.4,0.1,7.4c0,0-0.1,0.1-0.1,0.1
		c-2.1,2-5.5,2-7.6,0C64.4,118.9,63.8,117.5,63.8,116.1z M66.2,116.1c0,0.9,0.2,1.7,0.8,2.4c1.2,1.2,3.2,1.2,4.4,0
		c1.1-1.4,1.1-3.3,0-4.7c-1.2-1.2-3.1-1.2-4.2-0.1c0,0,0,0-0.1,0.1C66.5,114.4,66.1,115.2,66.2,116.1z"/>
	<path class="st3" d="M63.8,116.1c0-1.4,0.6-2.8,1.6-3.7c2.1-2,5.5-2,7.6,0c2.1,2,2.1,5.4,0.1,7.4c0,0-0.1,0.1-0.1,0.1
		c-2.1,2-5.5,2-7.6,0C64.4,118.9,63.8,117.5,63.8,116.1z M66.2,116.1c0,0.9,0.2,1.7,0.8,2.4c1.2,1.2,3.2,1.2,4.4,0
		c1.1-1.4,1.1-3.3,0-4.7c-1.2-1.2-3.1-1.2-4.2-0.1c0,0,0,0-0.1,0.1C66.5,114.4,66.1,115.2,66.2,116.1z"/>
	<path class="st0" d="M76.9,111.2h2.3v0.9c0.3-0.4,0.7-0.7,1.1-0.9c0.4-0.2,0.8-0.3,1.2-0.2c0.7,0,1.3,0.2,1.9,0.6l-1.1,2.1
		c-0.4-0.3-0.8-0.5-1.3-0.5c-1.3,0-1.9,1-1.9,2.8v5.2h-2.3v-10H76.9z"/>
	<path class="st3" d="M76.9,111.2h2.3v0.9c0.3-0.4,0.7-0.7,1.1-0.9c0.4-0.2,0.8-0.3,1.2-0.2c0.7,0,1.3,0.2,1.9,0.6l-1.1,2.1
		c-0.4-0.3-0.8-0.5-1.3-0.5c-1.3,0-1.9,1-1.9,2.8v5.2h-2.3v-10H76.9z"/>
	<path class="st0" d="M23.1,125.8L21,125l2.9-5.9l1.6,0.6L23.1,125.8z M27.2,125.8l-2.1-0.8l2.9-5.9l1.6,0.6L27.2,125.8z"/>
	<path class="st3" d="M23.1,125.8L21,125l2.9-5.9l1.6,0.6L23.1,125.8z M27.2,125.8l-2.1-0.8l2.9-5.9l1.6,0.6L27.2,125.8z"/>
	<polygon class="st0" points="32.7,135.6 32.7,118.7 44.2,130.8 44.2,119.8 46.6,119.8 46.6,136.6 35.1,124.6 35.1,135.6 	"/>
	<polygon class="st3" points="32.7,135.6 32.7,118.7 44.2,130.8 44.2,119.8 46.6,119.8 46.6,136.6 35.1,124.6 35.1,135.6 	"/>
	<path class="st0" d="M59.3,131.1h-7.2c0,0.7,0.3,1.5,0.8,2c0.5,0.5,1.1,0.7,1.8,0.7c0.5,0,1-0.1,1.4-0.4c0.5-0.4,0.9-0.9,1.3-1.5
		l1.9,1.1c-0.3,0.4-0.6,0.9-0.9,1.3c-0.3,0.4-0.7,0.7-1.1,0.9c-0.4,0.2-0.8,0.4-1.2,0.5c-0.5,0.1-0.9,0.2-1.4,0.2
		c-1.3,0.1-2.6-0.5-3.6-1.4c-0.9-1.1-1.4-2.4-1.4-3.8c-0.1-1.4,0.4-2.8,1.3-3.8c0.9-1,2.2-1.5,3.5-1.4c1.3-0.1,2.6,0.4,3.5,1.4
		c0.9,1.1,1.4,2.5,1.3,3.9L59.3,131.1z M56.9,129.2c-0.2-1.1-1.2-1.9-2.3-1.8c-0.3,0-0.5,0-0.8,0.1c-0.3,0.1-0.5,0.2-0.7,0.4
		c-0.2,0.2-0.4,0.4-0.5,0.6c-0.2,0.2-0.3,0.5-0.3,0.8L56.9,129.2z"/>
	<path class="st3" d="M59.3,131.1h-7.2c0,0.7,0.3,1.5,0.8,2c0.5,0.5,1.1,0.7,1.8,0.7c0.5,0,1-0.1,1.4-0.4c0.5-0.4,0.9-0.9,1.3-1.5
		l1.9,1.1c-0.3,0.4-0.6,0.9-0.9,1.3c-0.3,0.4-0.7,0.7-1.1,0.9c-0.4,0.2-0.8,0.4-1.2,0.5c-0.5,0.1-0.9,0.2-1.4,0.2
		c-1.3,0.1-2.6-0.5-3.6-1.4c-0.9-1.1-1.4-2.4-1.4-3.8c-0.1-1.4,0.4-2.8,1.3-3.8c0.9-1,2.2-1.5,3.5-1.4c1.3-0.1,2.6,0.4,3.5,1.4
		c0.9,1.1,1.4,2.5,1.3,3.9L59.3,131.1z M56.9,129.2c-0.2-1.1-1.2-1.9-2.3-1.8c-0.3,0-0.5,0-0.8,0.1c-0.3,0.1-0.5,0.2-0.7,0.4
		c-0.2,0.2-0.4,0.4-0.5,0.6c-0.2,0.2-0.3,0.5-0.3,0.8L56.9,129.2z"/>
	<path class="st0" d="M71.5,135.3v1.2c0,0.3-0.1,0.7-0.1,1c-0.2,0.7-0.5,1.4-1,1.9c-0.9,1.1-2.3,1.6-3.7,1.6
		c-1.2,0.1-2.4-0.3-3.3-1.1c-0.9-0.8-1.5-1.9-1.5-3.1h2.3c0.1,0.4,0.2,0.8,0.4,1.1c0.5,0.6,1.3,1,2.1,0.9c1.7,0,2.5-1,2.5-3.1v-1.4
		c-1.6,1.8-4.3,1.9-6.1,0.3c0,0-0.1-0.1-0.1-0.1l-0.3-0.3c-0.9-1-1.4-2.3-1.3-3.7c0-1.3,0.4-2.6,1.2-3.7c1.5-1.9,4.3-2.1,6.2-0.6
		c0.2,0.1,0.3,0.3,0.4,0.4v-1.1h2.3L71.5,135.3z M69.2,130.6c0-0.8-0.2-1.7-0.8-2.3c-1-1.1-2.7-1.2-3.8-0.2
		c-0.1,0.1-0.2,0.2-0.3,0.3c-0.5,0.7-0.7,1.5-0.7,2.3c0,0.8,0.2,1.6,0.7,2.2c0.9,1.2,2.7,1.3,3.8,0.4c0.1-0.1,0.3-0.2,0.4-0.4
		C69,132.2,69.3,131.4,69.2,130.6z"/>
	<path class="st3" d="M71.5,135.3v1.2c0,0.3-0.1,0.7-0.1,1c-0.2,0.7-0.5,1.4-1,1.9c-0.9,1.1-2.3,1.6-3.7,1.6
		c-1.2,0.1-2.4-0.3-3.3-1.1c-0.9-0.8-1.5-1.9-1.5-3.1h2.3c0.1,0.4,0.2,0.8,0.4,1.1c0.5,0.6,1.3,1,2.1,0.9c1.7,0,2.5-1,2.5-3.1v-1.4
		c-1.6,1.8-4.3,1.9-6.1,0.3c0,0-0.1-0.1-0.1-0.1l-0.3-0.3c-0.9-1-1.4-2.3-1.3-3.7c0-1.3,0.4-2.6,1.2-3.7c1.5-1.9,4.3-2.1,6.2-0.6
		c0.2,0.1,0.3,0.3,0.4,0.4v-1.1h2.3L71.5,135.3z M69.2,130.6c0-0.8-0.2-1.7-0.8-2.3c-1-1.1-2.7-1.2-3.8-0.2
		c-0.1,0.1-0.2,0.2-0.3,0.3c-0.5,0.7-0.7,1.5-0.7,2.3c0,0.8,0.2,1.6,0.7,2.2c0.9,1.2,2.7,1.3,3.8,0.4c0.1-0.1,0.3-0.2,0.4-0.4
		C69,132.2,69.3,131.4,69.2,130.6z"/>
	<path class="st0" d="M81.7,125.6H84v10h-2.3v-1c-1.7,1.8-4.5,1.8-6.3,0.1c0,0,0,0,0,0c-0.1-0.1-0.2-0.2-0.2-0.3
		c-0.9-1-1.4-2.4-1.3-3.8c0-1.4,0.4-2.7,1.3-3.8c0.9-1,2.1-1.5,3.4-1.5c1.2,0,2.3,0.5,3.1,1.4L81.7,125.6z M76.3,130.6
		c0,0.8,0.2,1.7,0.8,2.3c0.5,0.6,1.2,0.9,2,0.9c0.8,0,1.6-0.3,2.1-0.9c1.1-1.3,1.1-3.3,0-4.6c-0.5-0.6-1.2-0.9-2-0.9
		C77.5,127.5,76.2,128.9,76.3,130.6z"/>
	<path class="st3" d="M81.7,125.6H84v10h-2.3v-1c-1.7,1.8-4.5,1.8-6.3,0.1c0,0,0,0,0,0c-0.1-0.1-0.2-0.2-0.2-0.3
		c-0.9-1-1.4-2.4-1.3-3.8c0-1.4,0.4-2.7,1.3-3.8c0.9-1,2.1-1.5,3.4-1.5c1.2,0,2.3,0.5,3.1,1.4L81.7,125.6z M76.3,130.6
		c0,0.8,0.2,1.7,0.8,2.3c0.5,0.6,1.2,0.9,2,0.9c0.8,0,1.6-0.3,2.1-0.9c1.1-1.3,1.1-3.3,0-4.6c-0.5-0.6-1.2-0.9-2-0.9
		C77.5,127.5,76.2,128.9,76.3,130.6z"/>
	<polygon class="st0" points="89.3,127.8 89.3,135.6 87,135.6 87,127.8 86,127.8 86,125.6 87,125.6 87,121.9 89.3,121.9 89.3,125.6 
		91.1,125.6 91.1,127.8 	"/>
	<polygon class="st3" points="89.3,127.8 89.3,135.6 87,135.6 87,127.8 86,127.8 86,125.6 87,125.6 87,121.9 89.3,121.9 89.3,125.6 
		91.1,125.6 91.1,127.8 	"/>
	<path class="st0" d="M92.4,121.4c0-0.8,0.7-1.5,1.5-1.5c0.4,0,0.8,0.2,1.1,0.4c0.3,0.3,0.4,0.7,0.4,1.1c0,0.4-0.2,0.8-0.4,1.1
		c-0.3,0.3-0.7,0.4-1.1,0.4c-0.8,0.1-1.4-0.5-1.5-1.2C92.4,121.5,92.4,121.5,92.4,121.4z M95,125.6v10h-2.3v-10H95z"/>
	<path class="st3" d="M92.4,121.4c0-0.8,0.7-1.5,1.5-1.5c0.4,0,0.8,0.2,1.1,0.4c0.3,0.3,0.4,0.7,0.4,1.1c0,0.4-0.2,0.8-0.4,1.1
		c-0.3,0.3-0.7,0.4-1.1,0.4c-0.8,0.1-1.4-0.5-1.5-1.2C92.4,121.5,92.4,121.5,92.4,121.4z M95,125.6v10h-2.3v-10H95z"/>
	<polygon class="st0" points="99.2,125.6 101.8,131.2 104.4,125.6 107,125.6 101.8,136.3 96.7,125.6 	"/>
	<polygon class="st3" points="99.2,125.6 101.8,131.2 104.4,125.6 107,125.6 101.8,136.3 96.7,125.6 	"/>
	<path class="st0" d="M117.2,131.1h-7.1c0,0.7,0.3,1.5,0.8,2c0.5,0.5,1.1,0.7,1.8,0.7c0.5,0,1-0.1,1.4-0.4c0.5-0.4,0.9-0.9,1.3-1.5
		l1.9,1.1c-0.3,0.5-0.6,0.9-1,1.3c-0.3,0.4-0.7,0.7-1.1,0.9c-0.4,0.2-0.8,0.4-1.2,0.5c-0.5,0.1-0.9,0.2-1.4,0.2
		c-1.3,0.1-2.6-0.5-3.6-1.4c-0.9-1.1-1.4-2.4-1.4-3.8c-0.1-1.4,0.4-2.8,1.3-3.8c2-1.9,5-1.9,7,0c0.9,1.1,1.4,2.5,1.3,3.9
		L117.2,131.1z M114.9,129.2c-0.2-1.1-1.2-1.9-2.3-1.8c-0.3,0-0.5,0-0.8,0.1c-0.3,0.1-0.5,0.2-0.7,0.4c-0.2,0.2-0.4,0.4-0.5,0.6
		c-0.2,0.2-0.3,0.5-0.3,0.8C110.3,129.3,114.9,129.2,114.9,129.2z"/>
	<path class="st3" d="M117.2,131.1h-7.1c0,0.7,0.3,1.5,0.8,2c0.5,0.5,1.1,0.7,1.8,0.7c0.5,0,1-0.1,1.4-0.4c0.5-0.4,0.9-0.9,1.3-1.5
		l1.9,1.1c-0.3,0.5-0.6,0.9-1,1.3c-0.3,0.4-0.7,0.7-1.1,0.9c-0.4,0.2-0.8,0.4-1.2,0.5c-0.5,0.1-0.9,0.2-1.4,0.2
		c-1.3,0.1-2.6-0.5-3.6-1.4c-0.9-1.1-1.4-2.4-1.4-3.8c-0.1-1.4,0.4-2.8,1.3-3.8c2-1.9,5-1.9,7,0c0.9,1.1,1.4,2.5,1.3,3.9
		L117.2,131.1z M114.9,129.2c-0.2-1.1-1.2-1.9-2.3-1.8c-0.3,0-0.5,0-0.8,0.1c-0.3,0.1-0.5,0.2-0.7,0.4c-0.2,0.2-0.4,0.4-0.5,0.6
		c-0.2,0.2-0.3,0.5-0.3,0.8C110.3,129.3,114.9,129.2,114.9,129.2z"/>
	<path class="st0" d="M121.9,119.1l2,0.8l-2.9,5.9l-1.6-0.7L121.9,119.1z M126,119.1l2,0.8l-2.9,5.9l-1.6-0.7L126,119.1z"/>
	<path class="st3" d="M121.9,119.1l2,0.8l-2.9,5.9l-1.6-0.7L121.9,119.1z M126,119.1l2,0.8l-2.9,5.9l-1.6-0.7L126,119.1z"/>
</g>
</svg>
