<?xml version="1.0" encoding="utf-8"?>
<!-- Generator: Adobe Illustrator 24.0.1, SVG Export Plug-In . SVG Version: 6.00 Build 0)  -->
<svg version="1.1" xmlns="http://www.w3.org/2000/svg" xmlns:xlink="http://www.w3.org/1999/xlink" x="0px" y="0px"
	 viewBox="0 0 147.8 147.8" style="enable-background:new 0 0 147.8 147.8;" xml:space="preserve">
<style type="text/css">
	.st0{fill:#FFCC00;}
	.st1{fill:#FF0000;}
	.st2{fill:none;stroke:#000000;stroke-width:3.75;stroke-linejoin:round;}
	.st3{fill:#FFFFFF;}
	.st4{fill:none;stroke:#000000;stroke-width:0.5;}
</style>
<g id="Layer_2">
	<title>Oscar</title>
	<rect x="1.9" y="1.9" class="st0" width="144" height="144"/>
	<path class="st1" d="M1.9,1.9h144v144L1.9,1.9z"/>
	<path class="st2" d="M1.9,1.9h144v144H1.9V1.9z"/>
</g>
<g id="Layer_1">
	<polygon class="st3" points="53.1,124.4 56.4,107.4 61.8,119.7 67.4,107.4 70.4,124.4 68,124.4 66.5,114.8 61.8,125.1 57.2,114.8 
		55.5,124.4 53.1,124.4 	"/>
	<polygon class="st4" points="53.1,124.4 56.4,107.4 61.8,119.7 67.4,107.4 70.4,124.4 68,124.4 66.5,114.8 61.8,125.1 57.2,114.8 
		55.5,124.4 53.1,124.4 	"/>
	<path class="st3" d="M80.7,114.4H83v10h-2.3v-1.1c-1.7,1.8-4.5,1.8-6.3,0.1c0,0,0,0,0,0l0,0c-0.1-0.1-0.2-0.2-0.2-0.3
		c-0.9-1.1-1.4-2.4-1.4-3.8c0-1.4,0.5-2.8,1.4-3.8c0.8-1,2.1-1.5,3.4-1.5c1.2,0,2.3,0.5,3.1,1.4L80.7,114.4z M75.2,119.4
		c0,0.8,0.2,1.7,0.8,2.3c0.5,0.6,1.2,0.9,2,0.9c0.8,0,1.6-0.3,2.1-0.9c1.1-1.3,1.1-3.3,0-4.6c-0.5-0.6-1.3-0.9-2.1-0.9
		c-0.8,0-1.5,0.3-2,0.9C75.5,117.7,75.2,118.5,75.2,119.4z"/>
	<path class="st4" d="M80.7,114.4H83v10h-2.3v-1.1c-1.7,1.8-4.5,1.8-6.3,0.1c0,0,0,0,0,0l0,0c-0.1-0.1-0.2-0.2-0.2-0.3
		c-0.9-1.1-1.4-2.4-1.4-3.8c0-1.4,0.5-2.8,1.4-3.8c0.8-1,2.1-1.5,3.4-1.5c1.2,0,2.3,0.5,3.1,1.4L80.7,114.4z M75.2,119.4
		c0,0.8,0.2,1.7,0.8,2.3c0.5,0.6,1.2,0.9,2,0.9c0.8,0,1.6-0.3,2.1-0.9c1.1-1.3,1.1-3.3,0-4.6c-0.5-0.6-1.3-0.9-2.1-0.9
		c-0.8,0-1.5,0.3-2,0.9C75.5,117.7,75.2,118.5,75.2,119.4z"/>
	<path class="st3" d="M86,114.4h2.3v0.9c0.7-0.8,1.7-1.2,2.7-1.2c1-0.1,2,0.3,2.7,1.1c0.6,0.9,0.9,1.9,0.8,3v6.2h-2.3v-5.6
		c0.1-0.7-0.1-1.4-0.4-2c-0.4-0.4-0.9-0.6-1.4-0.6c-0.7-0.1-1.3,0.2-1.7,0.8c-0.4,0.8-0.6,1.7-0.5,2.6v4.8h-2.3L86,114.4z"/>
	<path class="st4" d="M86,114.4h2.3v0.9c0.7-0.8,1.7-1.2,2.7-1.2c1-0.1,2,0.3,2.7,1.1c0.6,0.9,0.9,1.9,0.8,3v6.2h-2.3v-5.6
		c0.1-0.7-0.1-1.4-0.4-2c-0.4-0.4-0.9-0.6-1.4-0.6c-0.7-0.1-1.3,0.2-1.7,0.8c-0.4,0.8-0.6,1.7-0.5,2.6v4.8h-2.3L86,114.4z"/>
	<path class="st3" d="M25,137.3c0-1.4,0.6-2.8,1.6-3.7c2.1-2,5.5-2,7.6,0c2.1,2,2.1,5.3,0.1,7.4l-0.1,0.1c-2.1,2-5.5,2-7.6,0
		C25.5,140.1,25,138.7,25,137.3z M27.4,137.3c0,0.9,0.2,1.7,0.8,2.4c1.2,1.2,3.2,1.2,4.4,0c1.1-1.4,1.1-3.3,0-4.7
		c-1.2-1.2-3.1-1.2-4.2-0.1l-0.1,0.1C27.7,135.6,27.3,136.4,27.4,137.3L27.4,137.3z"/>
	<path class="st4" d="M25,137.3c0-1.4,0.6-2.8,1.6-3.7c2.1-2,5.5-2,7.6,0c2.1,2,2.1,5.3,0.1,7.4l-0.1,0.1c-2.1,2-5.5,2-7.6,0
		C25.5,140.1,25,138.7,25,137.3z M27.4,137.3c0,0.9,0.2,1.7,0.8,2.4c1.2,1.2,3.2,1.2,4.4,0c1.1-1.4,1.1-3.3,0-4.7
		c-1.2-1.2-3.1-1.2-4.2-0.1l-0.1,0.1C27.7,135.6,27.3,136.4,27.4,137.3L27.4,137.3z"/>
	<polygon class="st3" points="38.9,132.4 41.5,138 44.1,132.4 46.7,132.4 41.5,143.1 36.3,132.4 	"/>
	<polygon class="st4" points="38.9,132.4 41.5,138 44.1,132.4 46.7,132.4 41.5,143.1 36.3,132.4 	"/>
	<path class="st3" d="M57,138h-7.2c0,0.7,0.3,1.5,0.8,2c0.5,0.5,1.1,0.7,1.8,0.7c0.5,0,1-0.1,1.4-0.4c0.5-0.4,0.9-0.9,1.3-1.5
		l1.9,1.1c-0.3,0.5-0.6,0.9-1,1.3c-0.3,0.4-0.7,0.7-1.1,0.9c-0.4,0.2-0.8,0.4-1.2,0.5c-0.5,0.1-0.9,0.2-1.4,0.2
		c-1.3,0.1-2.6-0.4-3.6-1.4c-0.9-1.1-1.4-2.4-1.4-3.8c-0.1-1.4,0.4-2.8,1.3-3.8c0.9-1,2.2-1.5,3.5-1.4c1.3-0.1,2.6,0.4,3.5,1.4
		c0.9,1.1,1.4,2.5,1.3,3.9L57,138z M54.7,136.1c-0.4-1.3-1.8-2.1-3.1-1.7c0,0,0,0,0,0l0,0c-0.3,0.1-0.5,0.2-0.7,0.4
		c-0.2,0.2-0.4,0.4-0.5,0.6c-0.2,0.2-0.3,0.5-0.3,0.8L54.7,136.1z"/>
	<path class="st4" d="M57,138h-7.2c0,0.7,0.3,1.5,0.8,2c0.5,0.5,1.1,0.7,1.8,0.7c0.5,0,1-0.1,1.4-0.4c0.5-0.4,0.9-0.9,1.3-1.5
		l1.9,1.1c-0.3,0.5-0.6,0.9-1,1.3c-0.3,0.4-0.7,0.7-1.1,0.9c-0.4,0.2-0.8,0.4-1.2,0.5c-0.5,0.1-0.9,0.2-1.4,0.2
		c-1.3,0.1-2.6-0.4-3.6-1.4c-0.9-1.1-1.4-2.4-1.4-3.8c-0.1-1.4,0.4-2.8,1.3-3.8c0.9-1,2.2-1.5,3.5-1.4c1.3-0.1,2.6,0.4,3.5,1.4
		c0.9,1.1,1.4,2.5,1.3,3.9L57,138z M54.7,136.1c-0.4-1.3-1.8-2.1-3.1-1.7c0,0,0,0,0,0l0,0c-0.3,0.1-0.5,0.2-0.7,0.4
		c-0.2,0.2-0.4,0.4-0.5,0.6c-0.2,0.2-0.3,0.5-0.3,0.8L54.7,136.1z"/>
	<path class="st3" d="M59.5,132.4h2.3v0.9c0.3-0.4,0.7-0.7,1.1-0.9c0.4-0.2,0.8-0.3,1.2-0.2c0.7,0,1.3,0.2,1.9,0.6l-1.1,2.1
		c-0.4-0.3-0.8-0.5-1.3-0.5c-1.3,0-1.9,1-1.9,2.8v5.2h-2.3v-10L59.5,132.4z"/>
	<path class="st4" d="M59.5,132.4h2.3v0.9c0.3-0.4,0.7-0.7,1.1-0.9c0.4-0.2,0.8-0.3,1.2-0.2c0.7,0,1.3,0.2,1.9,0.6l-1.1,2.1
		c-0.4-0.3-0.8-0.5-1.3-0.5c-1.3,0-1.9,1-1.9,2.8v5.2h-2.3v-10L59.5,132.4z"/>
	<path class="st3" d="M69.7,125.1v8.5c0.8-0.9,1.9-1.4,3.1-1.4c1.3,0,2.5,0.5,3.4,1.5c0.9,1,1.4,2.3,1.3,3.7
		c0.1,1.4-0.4,2.8-1.4,3.8c-1.6,1.8-4.4,2-6.2,0.4c-0.1-0.1-0.2-0.2-0.3-0.2v1h-2.3v-17.3H69.7z M75.1,137.5c0-0.8-0.2-1.7-0.8-2.3
		c-0.5-0.6-1.2-0.9-2-0.9c-0.8,0-1.6,0.3-2.1,0.9c-0.5,0.7-0.8,1.5-0.8,2.3c0,0.8,0.3,1.7,0.8,2.3c0.5,0.6,1.3,0.9,2.1,0.9
		c0.8,0,1.5-0.3,2-0.9C74.9,139.2,75.2,138.3,75.1,137.5z"/>
	<path class="st4" d="M69.7,125.1v8.5c0.8-0.9,1.9-1.4,3.1-1.4c1.3,0,2.5,0.5,3.4,1.5c0.9,1,1.4,2.3,1.3,3.7
		c0.1,1.4-0.4,2.8-1.4,3.8c-1.6,1.8-4.4,2-6.2,0.4c-0.1-0.1-0.2-0.2-0.3-0.2v1h-2.3v-17.3H69.7z M75.1,137.5c0-0.8-0.2-1.7-0.8-2.3
		c-0.5-0.6-1.2-0.9-2-0.9c-0.8,0-1.6,0.3-2.1,0.9c-0.5,0.7-0.8,1.5-0.8,2.3c0,0.8,0.3,1.7,0.8,2.3c0.5,0.6,1.3,0.9,2.1,0.9
		c0.8,0,1.5-0.3,2-0.9C74.9,139.2,75.2,138.3,75.1,137.5z"/>
	<path class="st3" d="M79.5,137.3c0-1.4,0.5-2.7,1.5-3.7c2.1-2,5.5-2,7.6,0c2.1,2,2.1,5.3,0.1,7.4l-0.1,0.1c-2.1,2-5.5,2-7.6,0
		C80,140.1,79.4,138.7,79.5,137.3z M81.8,137.3c0,0.9,0.2,1.7,0.8,2.4c1.2,1.2,3.2,1.2,4.4,0c1.1-1.4,1.1-3.3,0-4.7
		c-1.2-1.2-3.1-1.2-4.2-0.1l-0.1,0.1C82.2,135.6,81.8,136.4,81.8,137.3z"/>
	<path class="st4" d="M79.5,137.3c0-1.4,0.5-2.7,1.5-3.7c2.1-2,5.5-2,7.6,0c2.1,2,2.1,5.3,0.1,7.4l-0.1,0.1c-2.1,2-5.5,2-7.6,0
		C80,140.1,79.4,138.7,79.5,137.3z M81.8,137.3c0,0.9,0.2,1.7,0.8,2.4c1.2,1.2,3.2,1.2,4.4,0c1.1-1.4,1.1-3.3,0-4.7
		c-1.2-1.2-3.1-1.2-4.2-0.1l-0.1,0.1C82.2,135.6,81.8,136.4,81.8,137.3z"/>
	<path class="st3" d="M99.9,132.4h2.3v10h-2.3v-1c-1.7,1.8-4.5,1.8-6.3,0.1c0,0,0,0,0,0l0,0c-0.1-0.1-0.2-0.2-0.2-0.3
		c-0.9-1-1.4-2.4-1.3-3.8c0-1.4,0.4-2.7,1.3-3.8c0.8-1,2.1-1.5,3.4-1.5c1.2,0,2.3,0.5,3.1,1.4L99.9,132.4z M94.4,137.4
		c0,0.8,0.2,1.7,0.8,2.3c0.5,0.6,1.2,0.9,2,0.9c0.8,0,1.6-0.3,2.1-0.9c1.1-1.3,1.1-3.3,0-4.6c-1-1.1-2.7-1.2-3.8-0.1h-0.1l-0.1,0.1
		C94.7,135.7,94.4,136.5,94.4,137.4z"/>
	<path class="st4" d="M99.9,132.4h2.3v10h-2.3v-1c-1.7,1.8-4.5,1.8-6.3,0.1c0,0,0,0,0,0l0,0c-0.1-0.1-0.2-0.2-0.2-0.3
		c-0.9-1-1.4-2.4-1.3-3.8c0-1.4,0.4-2.7,1.3-3.8c0.8-1,2.1-1.5,3.4-1.5c1.2,0,2.3,0.5,3.1,1.4L99.9,132.4z M94.4,137.4
		c0,0.8,0.2,1.7,0.8,2.3c0.5,0.6,1.2,0.9,2,0.9c0.8,0,1.6-0.3,2.1-0.9c1.1-1.3,1.1-3.3,0-4.6c-1-1.1-2.7-1.2-3.8-0.1h-0.1l-0.1,0.1
		C94.7,135.7,94.4,136.5,94.4,137.4z"/>
	<path class="st3" d="M105.2,132.4h2.3v0.9c0.3-0.4,0.7-0.7,1.1-0.9c0.4-0.2,0.8-0.3,1.2-0.2c0.7,0,1.3,0.2,1.9,0.6l-1.1,2.1
		c-0.4-0.3-0.8-0.5-1.3-0.5c-1.3,0-1.9,1-1.9,2.8v5.2h-2.3v-10L105.2,132.4z"/>
	<path class="st4" d="M105.2,132.4h2.3v0.9c0.3-0.4,0.7-0.7,1.1-0.9c0.4-0.2,0.8-0.3,1.2-0.2c0.7,0,1.3,0.2,1.9,0.6l-1.1,2.1
		c-0.4-0.3-0.8-0.5-1.3-0.5c-1.3,0-1.9,1-1.9,2.8v5.2h-2.3v-10L105.2,132.4z"/>
	<path class="st3" d="M120.2,125.1h2.3v17.3h-2.3v-1c-0.8,0.8-1.9,1.3-3.1,1.3c-1.3,0-2.5-0.5-3.4-1.5c-1.8-2.2-1.8-5.3,0-7.5
		c0.8-1,2.1-1.5,3.4-1.5c1.2,0,2.3,0.5,3.1,1.4V125.1z M114.8,137.4c0,0.8,0.2,1.7,0.8,2.3c0.5,0.6,1.2,0.9,2,0.9
		c0.8,0,1.6-0.3,2.1-0.9c1.1-1.3,1.1-3.3,0-4.6c-0.5-0.6-1.3-0.9-2.1-0.9c-0.8,0-1.5,0.3-2,0.9C115,135.7,114.7,136.5,114.8,137.4z"
		/>
	<path class="st4" d="M120.2,125.1h2.3v17.3h-2.3v-1c-0.8,0.8-1.9,1.3-3.1,1.3c-1.3,0-2.5-0.5-3.4-1.5c-1.8-2.2-1.8-5.3,0-7.5
		c0.8-1,2.1-1.5,3.4-1.5c1.2,0,2.3,0.5,3.1,1.4V125.1z M114.8,137.4c0,0.8,0.2,1.7,0.8,2.3c0.5,0.6,1.2,0.9,2,0.9
		c0.8,0,1.6-0.3,2.1-0.9c1.1-1.3,1.1-3.3,0-4.6c-0.5-0.6-1.3-0.9-2.1-0.9c-0.8,0-1.5,0.3-2,0.9C115,135.7,114.7,136.5,114.8,137.4z"
		/>
</g>
</svg>
