<?xml version="1.0" encoding="utf-8"?>
<!-- Generator: Adobe Illustrator 24.0.1, SVG Export Plug-In . SVG Version: 6.00 Build 0)  -->
<svg version="1.1" xmlns="http://www.w3.org/2000/svg" xmlns:xlink="http://www.w3.org/1999/xlink" x="0px" y="0px"
	 viewBox="0 0 147.8 147.8" style="enable-background:new 0 0 147.8 147.8;" xml:space="preserve">
<style type="text/css">
	.st0{fill:#000094;}
	.st1{fill:#FFFFFF;}
	.st2{fill:none;stroke:#000000;stroke-width:3.75;stroke-linejoin:round;}
	.st3{fill:none;stroke:#000000;stroke-width:0.25;}
</style>
<g id="Layer_2">
	<title>Papa</title>
	<rect x="1.9" y="1.9" class="st0" width="144" height="144"/>
	<rect x="36.7" y="37.9" class="st1" width="72" height="72"/>
	<path class="st2" d="M1.9,1.9h144v144H1.9V1.9z"/>
</g>
<g id="Layer_1">
	<path class="st1" d="M34.6,104.7h-4.8l-1.3,2.7h-1.8l5.5-11.8l5.3,11.8h-1.8L34.6,104.7z M33.9,103.1l-1.6-3.8l-1.8,3.8H33.9z"/>
	<path class="st3" d="M34.6,104.7h-4.8l-1.3,2.7h-1.8l5.5-11.8l5.3,11.8h-1.8L34.6,104.7z M33.9,103.1l-1.6-3.8l-1.8,3.8H33.9z"/>
	<rect x="38.7" y="95.2" class="st1" width="1.6" height="12.1"/>
	<rect x="38.7" y="95.2" class="st3" width="1.6" height="12.1"/>
	<rect x="42.4" y="95.2" class="st1" width="1.6" height="12.1"/>
	<rect x="42.4" y="95.2" class="st3" width="1.6" height="12.1"/>
	<path class="st1" d="M52.2,111.1h-1.6v-10.7h1.6v0.8c0.5-0.6,1.3-1,2.2-1c0.9,0,1.8,0.3,2.4,1c0.6,0.7,1,1.7,1,2.7
		c0,0.9-0.3,1.9-0.9,2.6c-0.6,0.7-1.5,1-2.4,1c-0.8,0-1.6-0.4-2.2-1L52.2,111.1z M56,103.9c0-0.6-0.2-1.2-0.6-1.6
		c-0.3-0.4-0.9-0.6-1.4-0.6c-0.6,0-1.1,0.2-1.5,0.6c-0.7,0.9-0.7,2.3,0,3.2c0.4,0.4,0.9,0.6,1.5,0.6c0.5,0,1.1-0.2,1.4-0.6
		C55.8,105.1,56,104.5,56,103.9z"/>
	<path class="st3" d="M52.2,111.1h-1.6v-10.7h1.6v0.8c0.5-0.6,1.3-1,2.2-1c0.9,0,1.8,0.3,2.4,1c0.6,0.7,1,1.7,1,2.7
		c0,0.9-0.3,1.9-0.9,2.6c-0.6,0.7-1.5,1-2.4,1c-0.8,0-1.6-0.4-2.2-1L52.2,111.1z M56,103.9c0-0.6-0.2-1.2-0.6-1.6
		c-0.3-0.4-0.9-0.6-1.4-0.6c-0.6,0-1.1,0.2-1.5,0.6c-0.7,0.9-0.7,2.3,0,3.2c0.4,0.4,0.9,0.6,1.5,0.6c0.5,0,1.1-0.2,1.4-0.6
		C55.8,105.1,56,104.5,56,103.9z"/>
	<path class="st1" d="M65.8,104.3h-5c0,0.5,0.2,1,0.6,1.4c0.3,0.3,0.8,0.5,1.2,0.5c0.4,0,0.7-0.1,1-0.3c0.4-0.3,0.7-0.6,0.9-1
		l1.3,0.8c-0.2,0.3-0.4,0.6-0.6,0.9c-0.2,0.2-0.5,0.5-0.8,0.6c-0.3,0.1-0.5,0.3-0.8,0.3c-0.3,0.1-0.7,0.1-1,0.1
		c-0.9,0-1.9-0.3-2.5-1c-0.6-0.7-1-1.7-1-2.7c-0.1-1,0.3-1.9,0.9-2.7c1.4-1.3,3.5-1.3,4.9,0c0.6,0.8,1,1.7,0.9,2.7L65.8,104.3z
		 M64.1,102.9c-0.1-0.8-0.8-1.3-1.6-1.3c-0.2,0-0.4,0-0.6,0.1c-0.2,0.1-0.3,0.2-0.5,0.3c-0.1,0.1-0.3,0.3-0.3,0.4
		c-0.1,0.2-0.2,0.4-0.2,0.6L64.1,102.9L64.1,102.9z"/>
	<path class="st3" d="M65.8,104.3h-5c0,0.5,0.2,1,0.6,1.4c0.3,0.3,0.8,0.5,1.2,0.5c0.4,0,0.7-0.1,1-0.3c0.4-0.3,0.7-0.6,0.9-1
		l1.3,0.8c-0.2,0.3-0.4,0.6-0.6,0.9c-0.2,0.2-0.5,0.5-0.8,0.6c-0.3,0.1-0.5,0.3-0.8,0.3c-0.3,0.1-0.7,0.1-1,0.1
		c-0.9,0-1.9-0.3-2.5-1c-0.6-0.7-1-1.7-1-2.7c-0.1-1,0.3-1.9,0.9-2.7c1.4-1.3,3.5-1.3,4.9,0c0.6,0.8,1,1.7,0.9,2.7L65.8,104.3z
		 M64.1,102.9c-0.1-0.8-0.8-1.3-1.6-1.3c-0.2,0-0.4,0-0.6,0.1c-0.2,0.1-0.3,0.2-0.5,0.3c-0.1,0.1-0.3,0.3-0.3,0.4
		c-0.1,0.2-0.2,0.4-0.2,0.6L64.1,102.9L64.1,102.9z"/>
	<path class="st1" d="M67.5,100.4h1.6v0.6c0.2-0.3,0.5-0.5,0.8-0.6c0.3-0.1,0.6-0.2,0.8-0.1c0.5,0,0.9,0.1,1.3,0.4l-0.8,1.5
		c-0.3-0.2-0.6-0.3-0.9-0.3c-0.8,0-1.3,0.6-1.3,2v3.6h-1.6L67.5,100.4L67.5,100.4z"/>
	<path class="st3" d="M67.5,100.4h1.6v0.6c0.2-0.3,0.5-0.5,0.8-0.6c0.3-0.1,0.6-0.2,0.8-0.1c0.5,0,0.9,0.1,1.3,0.4l-0.8,1.5
		c-0.3-0.2-0.6-0.3-0.9-0.3c-0.8,0-1.3,0.6-1.3,2v3.6h-1.6L67.5,100.4L67.5,100.4z"/>
	<path class="st1" d="M77,101.5l-1.3,0.7c-0.2-0.4-0.5-0.6-0.8-0.6c-0.1,0-0.3,0-0.3,0.1c-0.1,0.1-0.2,0.3-0.1,0.4
		c0,0.3,0.3,0.6,0.9,0.8c0.6,0.2,1.2,0.6,1.8,1c0.3,0.3,0.5,0.8,0.4,1.3c0,0.6-0.3,1.3-0.8,1.7c-1.1,0.9-2.8,0.8-3.7-0.3l0,0
		c-0.2-0.2-0.4-0.5-0.5-0.8l1.4-0.6l0.4,0.6c0.2,0.2,0.4,0.3,0.7,0.3c0.6,0,0.8-0.3,0.8-0.8c0-0.3-0.2-0.6-0.6-0.8l-0.5-0.2
		l-0.5-0.2c-0.4-0.2-0.7-0.4-1-0.7c-0.3-0.3-0.4-0.7-0.3-1.1c0-0.6,0.2-1.1,0.6-1.5c0.4-0.4,1-0.6,1.5-0.6
		C75.9,100.2,76.7,100.7,77,101.5z"/>
	<path class="st3" d="M77,101.5l-1.3,0.7c-0.2-0.4-0.5-0.6-0.8-0.6c-0.1,0-0.3,0-0.3,0.1c-0.1,0.1-0.2,0.3-0.1,0.4
		c0,0.3,0.3,0.6,0.9,0.8c0.6,0.2,1.2,0.6,1.8,1c0.3,0.3,0.5,0.8,0.4,1.3c0,0.6-0.3,1.3-0.8,1.7c-1.1,0.9-2.8,0.8-3.7-0.3l0,0
		c-0.2-0.2-0.4-0.5-0.5-0.8l1.4-0.6l0.4,0.6c0.2,0.2,0.4,0.3,0.7,0.3c0.6,0,0.8-0.3,0.8-0.8c0-0.3-0.2-0.6-0.6-0.8l-0.5-0.2
		l-0.5-0.2c-0.4-0.2-0.7-0.4-1-0.7c-0.3-0.3-0.4-0.7-0.3-1.1c0-0.6,0.2-1.1,0.6-1.5c0.4-0.4,1-0.6,1.5-0.6
		C75.9,100.2,76.7,100.7,77,101.5z"/>
	<path class="st1" d="M78.7,103.8c0-1,0.3-1.9,1-2.6c1.5-1.4,3.8-1.4,5.3,0c1.4,1.4,1.4,3.8,0,5.2l0,0c-1.5,1.4-3.8,1.4-5.3,0
		C79,105.7,78.6,104.7,78.7,103.8z M80.3,103.8c0,0.6,0.2,1.2,0.6,1.7c0.9,0.8,2.2,0.8,3.1,0c0.8-1,0.8-2.3,0-3.3
		c-0.8-0.8-2.2-0.8-3,0c0,0,0,0,0,0l0,0C80.5,102.6,80.3,103.2,80.3,103.8L80.3,103.8z"/>
	<path class="st3" d="M78.7,103.8c0-1,0.3-1.9,1-2.6c1.5-1.4,3.8-1.4,5.3,0c1.4,1.4,1.4,3.8,0,5.2l0,0c-1.5,1.4-3.8,1.4-5.3,0
		C79,105.7,78.6,104.7,78.7,103.8z M80.3,103.8c0,0.6,0.2,1.2,0.6,1.7c0.9,0.8,2.2,0.8,3.1,0c0.8-1,0.8-2.3,0-3.3
		c-0.8-0.8-2.2-0.8-3,0c0,0,0,0,0,0l0,0C80.5,102.6,80.3,103.2,80.3,103.8L80.3,103.8z"/>
	<path class="st1" d="M87.8,100.4h1.6v0.6c0.5-0.5,1.2-0.9,1.9-0.8c0.7-0.1,1.4,0.2,1.9,0.8c0.4,0.6,0.6,1.4,0.6,2.1v4.3h-1.6v-4
		c0-0.5,0-1-0.3-1.4c-0.3-0.3-0.6-0.4-1-0.4c-0.4,0-0.9,0.2-1.1,0.6c-0.3,0.6-0.4,1.2-0.3,1.8v3.4h-1.7L87.8,100.4z"/>
	<path class="st3" d="M87.8,100.4h1.6v0.6c0.5-0.5,1.2-0.9,1.9-0.8c0.7-0.1,1.4,0.2,1.9,0.8c0.4,0.6,0.6,1.4,0.6,2.1v4.3h-1.6v-4
		c0-0.5,0-1-0.3-1.4c-0.3-0.3-0.6-0.4-1-0.4c-0.4,0-0.9,0.2-1.1,0.6c-0.3,0.6-0.4,1.2-0.3,1.8v3.4h-1.7L87.8,100.4z"/>
	<path class="st1" d="M95.9,100.4h1.6v0.6c0.5-0.5,1.2-0.8,1.9-0.8c0.7-0.1,1.4,0.2,1.9,0.8c0.4,0.6,0.6,1.4,0.6,2.1v4.3h-1.6v-4
		c0.1-0.5,0-1-0.3-1.4c-0.3-0.3-0.6-0.4-1-0.4c-0.5-0.1-0.9,0.2-1.1,0.6c-0.3,0.6-0.4,1.2-0.3,1.8v3.4h-1.6L95.9,100.4z"/>
	<path class="st3" d="M95.9,100.4h1.6v0.6c0.5-0.5,1.2-0.8,1.9-0.8c0.7-0.1,1.4,0.2,1.9,0.8c0.4,0.6,0.6,1.4,0.6,2.1v4.3h-1.6v-4
		c0.1-0.5,0-1-0.3-1.4c-0.3-0.3-0.6-0.4-1-0.4c-0.5-0.1-0.9,0.2-1.1,0.6c-0.3,0.6-0.4,1.2-0.3,1.8v3.4h-1.6L95.9,100.4z"/>
	<path class="st1" d="M110.3,104.3h-5c0,0.5,0.2,1,0.6,1.4c0.6,0.6,1.5,0.7,2.2,0.2c0.4-0.3,0.7-0.6,0.9-1l1.4,0.8
		c-0.2,0.3-0.4,0.6-0.7,0.9c-0.2,0.3-0.5,0.5-0.8,0.6c-0.3,0.1-0.5,0.3-0.8,0.3c-0.3,0.1-0.7,0.1-1,0.1c-0.9,0-1.9-0.3-2.5-1
		c-0.6-0.7-1-1.7-1-2.7c-0.1-1,0.3-2,0.9-2.7c1.4-1.3,3.5-1.3,4.9,0c0.6,0.8,1,1.7,0.9,2.7L110.3,104.3z M108.6,102.9
		c-0.1-0.8-0.8-1.3-1.6-1.3c-0.2,0-0.4,0-0.6,0.1c-0.2,0.1-0.3,0.2-0.5,0.3c-0.1,0.1-0.3,0.3-0.3,0.4c-0.1,0.2-0.2,0.4-0.2,0.6
		L108.6,102.9L108.6,102.9z"/>
	<path class="st3" d="M110.3,104.3h-5c0,0.5,0.2,1,0.6,1.4c0.6,0.6,1.5,0.7,2.2,0.2c0.4-0.3,0.7-0.6,0.9-1l1.4,0.8
		c-0.2,0.3-0.4,0.6-0.7,0.9c-0.2,0.3-0.5,0.5-0.8,0.6c-0.3,0.1-0.5,0.3-0.8,0.3c-0.3,0.1-0.7,0.1-1,0.1c-0.9,0-1.9-0.3-2.5-1
		c-0.6-0.7-1-1.7-1-2.7c-0.1-1,0.3-2,0.9-2.7c1.4-1.3,3.5-1.3,4.9,0c0.6,0.8,1,1.7,0.9,2.7L110.3,104.3z M108.6,102.9
		c-0.1-0.8-0.8-1.3-1.6-1.3c-0.2,0-0.4,0-0.6,0.1c-0.2,0.1-0.3,0.2-0.5,0.3c-0.1,0.1-0.3,0.3-0.3,0.4c-0.1,0.2-0.2,0.4-0.2,0.6
		L108.6,102.9L108.6,102.9z"/>
	<rect x="112.1" y="95.2" class="st1" width="1.6" height="12.1"/>
	<rect x="112.1" y="95.2" class="st3" width="1.6" height="12.1"/>
	<path class="st1" d="M26.1,115.9h1.6v0.6c0.2-0.3,0.5-0.5,0.8-0.6c0.3-0.2,0.6-0.2,0.8-0.1c0.5,0,0.9,0.1,1.3,0.4l-0.7,1.5
		c-0.3-0.2-0.6-0.3-0.9-0.3c-0.9,0-1.3,0.7-1.3,2v3.6h-1.6V115.9z"/>
	<path class="st3" d="M26.1,115.9h1.6v0.6c0.2-0.3,0.5-0.5,0.8-0.6c0.3-0.2,0.6-0.2,0.8-0.1c0.5,0,0.9,0.1,1.3,0.4l-0.7,1.5
		c-0.3-0.2-0.6-0.3-0.9-0.3c-0.9,0-1.3,0.7-1.3,2v3.6h-1.6V115.9z"/>
	<path class="st1" d="M37.9,119.8h-5c0,0.5,0.2,1,0.6,1.4c0.3,0.3,0.8,0.5,1.3,0.5c0.4,0,0.7-0.1,1-0.3c0.4-0.3,0.7-0.7,0.9-1.1
		l1.4,0.8c-0.2,0.3-0.4,0.6-0.7,0.9c-0.2,0.3-0.5,0.5-0.8,0.6c-0.3,0.1-0.5,0.3-0.8,0.3c-0.3,0.1-0.7,0.1-1,0.1
		c-0.9,0-1.9-0.3-2.5-1c-0.6-0.7-1-1.7-1-2.7c-0.1-1,0.3-1.9,0.9-2.7c0.6-0.7,1.5-1.1,2.5-1c0.9-0.1,1.8,0.3,2.5,1
		c0.6,0.8,1,1.7,0.9,2.7L37.9,119.8z M36.3,118.5c-0.3-0.9-1.2-1.5-2.2-1.2c0,0,0,0,0,0c-0.2,0.1-0.3,0.2-0.5,0.3
		c-0.1,0.1-0.2,0.3-0.3,0.4c-0.1,0.1-0.2,0.4-0.2,0.6L36.3,118.5L36.3,118.5z"/>
	<path class="st3" d="M37.9,119.8h-5c0,0.5,0.2,1,0.6,1.4c0.3,0.3,0.8,0.5,1.3,0.5c0.4,0,0.7-0.1,1-0.3c0.4-0.3,0.7-0.7,0.9-1.1
		l1.4,0.8c-0.2,0.3-0.4,0.6-0.7,0.9c-0.2,0.3-0.5,0.5-0.8,0.6c-0.3,0.1-0.5,0.3-0.8,0.3c-0.3,0.1-0.7,0.1-1,0.1
		c-0.9,0-1.9-0.3-2.5-1c-0.6-0.7-1-1.7-1-2.7c-0.1-1,0.3-1.9,0.9-2.7c0.6-0.7,1.5-1.1,2.5-1c0.9-0.1,1.8,0.3,2.5,1
		c0.6,0.8,1,1.7,0.9,2.7L37.9,119.8z M36.3,118.5c-0.3-0.9-1.2-1.5-2.2-1.2c0,0,0,0,0,0c-0.2,0.1-0.3,0.2-0.5,0.3
		c-0.1,0.1-0.2,0.3-0.3,0.4c-0.1,0.1-0.2,0.4-0.2,0.6L36.3,118.5L36.3,118.5z"/>
	<polygon class="st1" points="41.5,117.4 41.5,122.9 39.8,122.9 39.8,117.4 39.1,117.4 39.1,115.9 39.8,115.9 39.8,113.3 
		41.5,113.3 41.5,115.9 42.7,115.9 42.7,117.4 	"/>
	<polygon class="st3" points="41.5,117.4 41.5,122.9 39.8,122.9 39.8,117.4 39.1,117.4 39.1,115.9 39.8,115.9 39.8,113.3 
		41.5,113.3 41.5,115.9 42.7,115.9 42.7,117.4 	"/>
	<path class="st1" d="M45.5,115.9v4c0,1.2,0.4,1.8,1.4,1.8s1.4-0.6,1.4-1.8v-4h1.6v4.1c0,0.5-0.1,1-0.2,1.5c-0.2,0.4-0.4,0.7-0.7,1
		c-1.2,1-2.9,1-4.1,0c-0.3-0.3-0.5-0.6-0.7-1c-0.1-0.5-0.2-1-0.2-1.5v-4.1H45.5z"/>
	<path class="st3" d="M45.5,115.9v4c0,1.2,0.4,1.8,1.4,1.8s1.4-0.6,1.4-1.8v-4h1.6v4.1c0,0.5-0.1,1-0.2,1.5c-0.2,0.4-0.4,0.7-0.7,1
		c-1.2,1-2.9,1-4.1,0c-0.3-0.3-0.5-0.6-0.7-1c-0.1-0.5-0.2-1-0.2-1.5v-4.1H45.5z"/>
	<path class="st1" d="M51.8,115.9h1.6v0.6c0.2-0.3,0.5-0.5,0.8-0.6c0.3-0.2,0.6-0.2,0.8-0.1c0.5,0,0.9,0.1,1.3,0.4l-0.8,1.5
		c-0.3-0.2-0.6-0.3-0.9-0.3c-0.9,0-1.3,0.6-1.3,2v3.6h-1.6L51.8,115.9L51.8,115.9z"/>
	<path class="st3" d="M51.8,115.9h1.6v0.6c0.2-0.3,0.5-0.5,0.8-0.6c0.3-0.2,0.6-0.2,0.8-0.1c0.5,0,0.9,0.1,1.3,0.4l-0.8,1.5
		c-0.3-0.2-0.6-0.3-0.9-0.3c-0.9,0-1.3,0.6-1.3,2v3.6h-1.6L51.8,115.9L51.8,115.9z"/>
	<path class="st1" d="M57.6,115.9h1.6v0.6c0.5-0.5,1.2-0.9,1.9-0.8c0.7-0.1,1.4,0.2,1.9,0.8c0.4,0.6,0.6,1.4,0.6,2.1v4.3h-1.6V119
		c0-0.5,0-1-0.3-1.4c-0.3-0.3-0.6-0.4-1-0.4c-0.5-0.1-0.9,0.1-1.1,0.6c-0.3,0.6-0.4,1.2-0.3,1.8v3.4h-1.7L57.6,115.9z"/>
	<path class="st3" d="M57.6,115.9h1.6v0.6c0.5-0.5,1.2-0.9,1.9-0.8c0.7-0.1,1.4,0.2,1.9,0.8c0.4,0.6,0.6,1.4,0.6,2.1v4.3h-1.6V119
		c0-0.5,0-1-0.3-1.4c-0.3-0.3-0.6-0.4-1-0.4c-0.5-0.1-0.9,0.1-1.1,0.6c-0.3,0.6-0.4,1.2-0.3,1.8v3.4h-1.7L57.6,115.9z"/>
	<polygon class="st1" points="72.8,117.5 72.8,123 71.2,123 71.2,117.5 70.5,117.5 70.5,116 71.2,116 71.2,113.4 72.8,113.4 
		72.8,116 74,116 74,117.6 	"/>
	<polygon class="st3" points="72.8,117.5 72.8,123 71.2,123 71.2,117.5 70.5,117.5 70.5,116 71.2,116 71.2,113.4 72.8,113.4 
		72.8,116 74,116 74,117.6 	"/>
	<path class="st1" d="M75,119.4c0-1,0.4-1.9,1.1-2.6c1.5-1.4,3.8-1.4,5.3,0c1.4,1.4,1.4,3.8,0,5.2c-0.7,0.7-1.7,1.1-2.7,1.1
		c-1,0-1.9-0.3-2.7-1C75.4,121.4,75,120.4,75,119.4z M76.6,119.4c0,0.6,0.2,1.2,0.6,1.7c0.8,0.8,2.2,0.8,3,0c0,0,0,0,0,0l0,0
		c0.8-1,0.8-2.3,0-3.3c-0.4-0.4-1-0.6-1.6-0.6c-0.6,0-1.1,0.2-1.5,0.6C76.8,118.2,76.6,118.8,76.6,119.4L76.6,119.4z"/>
	<path class="st3" d="M75,119.4c0-1,0.4-1.9,1.1-2.6c1.5-1.4,3.8-1.4,5.3,0c1.4,1.4,1.4,3.8,0,5.2c-0.7,0.7-1.7,1.1-2.7,1.1
		c-1,0-1.9-0.3-2.7-1C75.4,121.4,75,120.4,75,119.4z M76.6,119.4c0,0.6,0.2,1.2,0.6,1.7c0.8,0.8,2.2,0.8,3,0c0,0,0,0,0,0l0,0
		c0.8-1,0.8-2.3,0-3.3c-0.4-0.4-1-0.6-1.6-0.6c-0.6,0-1.1,0.2-1.5,0.6C76.8,118.2,76.6,118.8,76.6,119.4L76.6,119.4z"/>
	<path class="st1" d="M92.8,117.2l-1.3,0.7c-0.2-0.4-0.5-0.6-0.8-0.6c-0.1,0-0.3,0-0.3,0.1c-0.1,0.1-0.1,0.2-0.1,0.3
		s0.3,0.6,0.9,0.8c0.6,0.2,1.2,0.6,1.8,1c0.3,0.3,0.5,0.8,0.4,1.3c0,0.7-0.3,1.3-0.8,1.8c-1.1,1-2.8,0.8-3.8-0.3c0,0,0,0,0,0l0,0
		c-0.2-0.2-0.4-0.5-0.5-0.8l1.4-0.6l0.4,0.6c0.2,0.2,0.4,0.3,0.7,0.3c0.6,0,0.8-0.3,0.8-0.8c0-0.3-0.2-0.6-0.6-0.8l-0.5-0.2
		l-0.5-0.2c-0.4-0.2-0.7-0.4-1-0.7c-0.3-0.3-0.4-0.7-0.3-1.1c0-0.6,0.2-1.1,0.6-1.5c0.4-0.4,1-0.6,1.5-0.6
		C91.7,115.8,92.4,116.3,92.8,117.2z"/>
	<path class="st3" d="M92.8,117.2l-1.3,0.7c-0.2-0.4-0.5-0.6-0.8-0.6c-0.1,0-0.3,0-0.3,0.1c-0.1,0.1-0.1,0.2-0.1,0.3
		s0.3,0.6,0.9,0.8c0.6,0.2,1.2,0.6,1.8,1c0.3,0.3,0.5,0.8,0.4,1.3c0,0.7-0.3,1.3-0.8,1.8c-1.1,1-2.8,0.8-3.8-0.3c0,0,0,0,0,0l0,0
		c-0.2-0.2-0.4-0.5-0.5-0.8l1.4-0.6l0.4,0.6c0.2,0.2,0.4,0.3,0.7,0.3c0.6,0,0.8-0.3,0.8-0.8c0-0.3-0.2-0.6-0.6-0.8l-0.5-0.2
		l-0.5-0.2c-0.4-0.2-0.7-0.4-1-0.7c-0.3-0.3-0.4-0.7-0.3-1.1c0-0.6,0.2-1.1,0.6-1.5c0.4-0.4,1-0.6,1.5-0.6
		C91.7,115.8,92.4,116.3,92.8,117.2z"/>
	<path class="st1" d="M94.6,110.9h1.6v5.7c1-1,2.7-1,3.8,0c0.4,0.6,0.6,1.4,0.6,2.1v4.3H99v-4.1c0.1-0.4,0-0.8-0.3-1.2
		c-0.2-0.3-0.6-0.4-1-0.3c-0.5-0.1-0.9,0.1-1.2,0.6c-0.3,0.6-0.4,1.2-0.3,1.8v3.4h-1.6V110.9z"/>
	<path class="st3" d="M94.6,110.9h1.6v5.7c1-1,2.7-1,3.8,0c0.4,0.6,0.6,1.4,0.6,2.1v4.3H99v-4.1c0.1-0.4,0-0.8-0.3-1.2
		c-0.2-0.3-0.6-0.4-1-0.3c-0.5-0.1-0.9,0.1-1.2,0.6c-0.3,0.6-0.4,1.2-0.3,1.8v3.4h-1.6V110.9z"/>
	<path class="st1" d="M102.4,113.1c0-0.6,0.4-1,1-1h0.1c0.3,0,0.5,0.1,0.7,0.3c0.2,0.2,0.3,0.5,0.3,0.8c0,0.3-0.1,0.5-0.3,0.8
		c-0.2,0.2-0.5,0.3-0.8,0.3c-0.3,0-0.5-0.1-0.8-0.3C102.5,113.7,102.4,113.4,102.4,113.1z M104.3,116v7h-1.6v-7H104.3z"/>
	<path class="st3" d="M102.4,113.1c0-0.6,0.4-1,1-1h0.1c0.3,0,0.5,0.1,0.7,0.3c0.2,0.2,0.3,0.5,0.3,0.8c0,0.3-0.1,0.5-0.3,0.8
		c-0.2,0.2-0.5,0.3-0.8,0.3c-0.3,0-0.5-0.1-0.8-0.3C102.5,113.7,102.4,113.4,102.4,113.1z M104.3,116v7h-1.6v-7H104.3z"/>
	<path class="st1" d="M107.9,126.8h-1.6V116h1.6v0.8c0.5-0.6,1.3-1,2.2-1c0.9,0,1.8,0.3,2.4,1c0.6,0.7,1,1.7,1,2.7
		c0,0.9-0.3,1.9-0.9,2.6c-0.6,0.7-1.5,1-2.4,1c-0.8,0-1.6-0.4-2.2-1v4.6L107.9,126.8z M111.8,119.5c0-0.6-0.2-1.2-0.6-1.6
		c-0.3-0.4-0.9-0.6-1.4-0.6c-0.6,0-1.1,0.2-1.5,0.6c-0.7,0.9-0.7,2.3,0,3.2c0.4,0.4,0.9,0.7,1.5,0.6c0.5,0,1-0.2,1.4-0.6
		C111.6,120.6,111.8,120.1,111.8,119.5z"/>
	<path class="st3" d="M107.9,126.8h-1.6V116h1.6v0.8c0.5-0.6,1.3-1,2.2-1c0.9,0,1.8,0.3,2.4,1c0.6,0.7,1,1.7,1,2.7
		c0,0.9-0.3,1.9-0.9,2.6c-0.6,0.7-1.5,1-2.4,1c-0.8,0-1.6-0.4-2.2-1v4.6L107.9,126.8z M111.8,119.5c0-0.6-0.2-1.2-0.6-1.6
		c-0.3-0.4-0.9-0.6-1.4-0.6c-0.6,0-1.1,0.2-1.5,0.6c-0.7,0.9-0.7,2.3,0,3.2c0.4,0.4,0.9,0.7,1.5,0.6c0.5,0,1-0.2,1.4-0.6
		C111.6,120.6,111.8,120.1,111.8,119.5z"/>
	<path class="st1" d="M117.8,121.1l1.4,0.6l-2,4.1l-1.1-0.5L117.8,121.1z M117.4,117.1c0-0.6,0.4-1,1-1s1,0.4,1,1
		c0,0.3-0.1,0.5-0.3,0.7c-0.2,0.2-0.4,0.3-0.7,0.3c-0.3,0-0.5-0.1-0.7-0.3C117.5,117.6,117.4,117.3,117.4,117.1L117.4,117.1z"/>
	<path class="st3" d="M117.8,121.1l1.4,0.6l-2,4.1l-1.1-0.5L117.8,121.1z M117.4,117.1c0-0.6,0.4-1,1-1s1,0.4,1,1
		c0,0.3-0.1,0.5-0.3,0.7c-0.2,0.2-0.4,0.3-0.7,0.3c-0.3,0-0.5-0.1-0.7-0.3C117.5,117.6,117.4,117.3,117.4,117.1L117.4,117.1z"/>
	<path class="st1" d="M15.5,142.4h-1.6v-10.8h1.6v0.8c0.5-0.6,1.3-1,2.2-1c0.9,0,1.7,0.4,2.3,1.1c0.6,0.7,1,1.7,1,2.7
		c0,0.9-0.3,1.9-0.9,2.6c-1.1,1.3-3.1,1.4-4.3,0.3l-0.2-0.2L15.5,142.4z M19.4,135.1c0-0.6-0.2-1.2-0.6-1.6
		c-0.3-0.4-0.9-0.6-1.4-0.6c-0.6,0-1.1,0.2-1.5,0.6c-0.4,0.5-0.6,1-0.6,1.6c0,0.6,0.2,1.2,0.6,1.6c0.7,0.8,1.9,0.8,2.6,0.2l0.2-0.2
		C19.1,136.3,19.4,135.7,19.4,135.1z"/>
	<path class="st3" d="M15.5,142.4h-1.6v-10.8h1.6v0.8c0.5-0.6,1.3-1,2.2-1c0.9,0,1.7,0.4,2.3,1.1c0.6,0.7,1,1.7,1,2.7
		c0,0.9-0.3,1.9-0.9,2.6c-1.1,1.3-3.1,1.4-4.3,0.3l-0.2-0.2L15.5,142.4z M19.4,135.1c0-0.6-0.2-1.2-0.6-1.6
		c-0.3-0.4-0.9-0.6-1.4-0.6c-0.6,0-1.1,0.2-1.5,0.6c-0.4,0.5-0.6,1-0.6,1.6c0,0.6,0.2,1.2,0.6,1.6c0.7,0.8,1.9,0.8,2.6,0.2l0.2-0.2
		C19.1,136.3,19.4,135.7,19.4,135.1z"/>
	<path class="st1" d="M22.7,131.6h1.6v0.6c0.2-0.3,0.5-0.5,0.8-0.6c0.3-0.2,0.6-0.2,0.8-0.1c0.5,0,0.9,0.1,1.3,0.4l-0.8,1.5
		c-0.3-0.2-0.6-0.3-0.9-0.4c-0.9,0-1.3,0.7-1.3,2v3.6h-1.6L22.7,131.6z"/>
	<path class="st3" d="M22.7,131.6h1.6v0.6c0.2-0.3,0.5-0.5,0.8-0.6c0.3-0.2,0.6-0.2,0.8-0.1c0.5,0,0.9,0.1,1.3,0.4l-0.8,1.5
		c-0.3-0.2-0.6-0.3-0.9-0.4c-0.9,0-1.3,0.7-1.3,2v3.6h-1.6L22.7,131.6z"/>
	<path class="st1" d="M27.8,135c0-1,0.4-1.9,1-2.6c1.5-1.4,3.8-1.4,5.3,0c1.4,1.4,1.4,3.8,0,5.2v0.1c-1.5,1.4-3.8,1.4-5.3,0
		C28.1,137,27.7,136,27.8,135z M29.4,135c0,0.6,0.2,1.2,0.6,1.7c0.9,0.8,2.2,0.8,3.1,0c0.8-1,0.8-2.4,0-3.3c-0.8-0.8-2.2-0.8-3,0
		c0,0,0,0,0,0l0,0C29.6,133.8,29.4,134.4,29.4,135L29.4,135z"/>
	<path class="st3" d="M27.8,135c0-1,0.4-1.9,1-2.6c1.5-1.4,3.8-1.4,5.3,0c1.4,1.4,1.4,3.8,0,5.2v0.1c-1.5,1.4-3.8,1.4-5.3,0
		C28.1,137,27.7,136,27.8,135z M29.4,135c0,0.6,0.2,1.2,0.6,1.7c0.9,0.8,2.2,0.8,3.1,0c0.8-1,0.8-2.4,0-3.3c-0.8-0.8-2.2-0.8-3,0
		c0,0,0,0,0,0l0,0C29.6,133.8,29.4,134.4,29.4,135L29.4,135z"/>
	<path class="st1" d="M42.3,131.9v2.2c-0.3-0.4-0.6-0.7-1-0.9c-0.3-0.2-0.6-0.3-1-0.3c-0.6,0-1.1,0.2-1.5,0.6
		c-0.4,0.4-0.7,1-0.6,1.6c0,0.6,0.2,1.1,0.6,1.6c0.4,0.4,0.9,0.6,1.5,0.6c0.4,0,0.7-0.1,1-0.3c0.4-0.3,0.7-0.6,1-1v2.1
		c-0.6,0.3-1.3,0.5-2,0.5c-1,0-2-0.4-2.7-1.1c-0.7-0.7-1.1-1.6-1-2.6c0-2,1.6-3.7,3.7-3.7c0,0,0,0,0,0h0.2
		C41,131.3,41.7,131.5,42.3,131.9z"/>
	<path class="st3" d="M42.3,131.9v2.2c-0.3-0.4-0.6-0.7-1-0.9c-0.3-0.2-0.6-0.3-1-0.3c-0.6,0-1.1,0.2-1.5,0.6
		c-0.4,0.4-0.7,1-0.6,1.6c0,0.6,0.2,1.1,0.6,1.6c0.4,0.4,0.9,0.6,1.5,0.6c0.4,0,0.7-0.1,1-0.3c0.4-0.3,0.7-0.6,1-1v2.1
		c-0.6,0.3-1.3,0.5-2,0.5c-1,0-2-0.4-2.7-1.1c-0.7-0.7-1.1-1.6-1-2.6c0-2,1.6-3.7,3.7-3.7c0,0,0,0,0,0h0.2
		C41,131.3,41.7,131.5,42.3,131.9z"/>
	<path class="st1" d="M50.3,135.5h-5c0,0.5,0.2,1,0.6,1.4c0.3,0.3,0.8,0.5,1.3,0.5c0.4,0,0.7-0.1,1-0.3c0.3-0.3,0.7-0.6,0.9-1
		l1.3,0.8c-0.2,0.3-0.4,0.6-0.7,0.9c-0.2,0.3-0.5,0.5-0.8,0.6c-0.3,0.1-0.5,0.3-0.8,0.4c-0.3,0.1-0.7,0.1-1,0.1
		c-0.9,0.1-1.9-0.3-2.5-1c-0.6-0.7-1-1.7-1-2.7c-0.1-1,0.3-2,1-2.7c1.4-1.3,3.5-1.3,4.9,0c0.6,0.8,1,1.7,0.9,2.7L50.3,135.5z
		 M48.6,134.2c-0.3-0.9-1.2-1.5-2.2-1.2c0,0,0,0,0,0c-0.2,0.1-0.3,0.2-0.5,0.3c-0.1,0.1-0.2,0.3-0.3,0.4c-0.1,0.1-0.2,0.4-0.2,0.6
		L48.6,134.2z"/>
	<path class="st3" d="M50.3,135.5h-5c0,0.5,0.2,1,0.6,1.4c0.3,0.3,0.8,0.5,1.3,0.5c0.4,0,0.7-0.1,1-0.3c0.3-0.3,0.7-0.6,0.9-1
		l1.3,0.8c-0.2,0.3-0.4,0.6-0.7,0.9c-0.2,0.3-0.5,0.5-0.8,0.6c-0.3,0.1-0.5,0.3-0.8,0.4c-0.3,0.1-0.7,0.1-1,0.1
		c-0.9,0.1-1.9-0.3-2.5-1c-0.6-0.7-1-1.7-1-2.7c-0.1-1,0.3-2,1-2.7c1.4-1.3,3.5-1.3,4.9,0c0.6,0.8,1,1.7,0.9,2.7L50.3,135.5z
		 M48.6,134.2c-0.3-0.9-1.2-1.5-2.2-1.2c0,0,0,0,0,0c-0.2,0.1-0.3,0.2-0.5,0.3c-0.1,0.1-0.2,0.3-0.3,0.4c-0.1,0.1-0.2,0.4-0.2,0.6
		L48.6,134.2z"/>
	<path class="st1" d="M58.4,135.5h-5c0,0.5,0.2,1,0.6,1.4c0.3,0.3,0.8,0.5,1.3,0.5c0.4,0,0.7-0.1,1-0.3c0.4-0.3,0.6-0.7,0.8-1.1
		l1.4,0.8c-0.2,0.3-0.4,0.6-0.7,0.9c-0.2,0.2-0.5,0.5-0.8,0.6c-0.3,0.1-0.5,0.3-0.8,0.4c-0.3,0.1-0.7,0.1-1,0.1
		c-0.9,0-1.9-0.3-2.5-1c-0.6-0.7-1-1.7-1-2.7c-0.1-1,0.3-1.9,0.9-2.7c1.4-1.3,3.5-1.3,4.9,0c0.6,0.8,1,1.7,0.9,2.7L58.4,135.5
		L58.4,135.5z M56.7,134.2c-0.3-0.9-1.2-1.5-2.2-1.2c0,0,0,0,0,0c-0.2,0.1-0.3,0.2-0.5,0.3c-0.1,0.1-0.3,0.3-0.3,0.4
		c-0.1,0.2-0.2,0.4-0.2,0.6L56.7,134.2z"/>
	<path class="st3" d="M58.4,135.5h-5c0,0.5,0.2,1,0.6,1.4c0.3,0.3,0.8,0.5,1.3,0.5c0.4,0,0.7-0.1,1-0.3c0.4-0.3,0.6-0.7,0.8-1.1
		l1.4,0.8c-0.2,0.3-0.4,0.6-0.7,0.9c-0.2,0.2-0.5,0.5-0.8,0.6c-0.3,0.1-0.5,0.3-0.8,0.4c-0.3,0.1-0.7,0.1-1,0.1
		c-0.9,0-1.9-0.3-2.5-1c-0.6-0.7-1-1.7-1-2.7c-0.1-1,0.3-1.9,0.9-2.7c1.4-1.3,3.5-1.3,4.9,0c0.6,0.8,1,1.7,0.9,2.7L58.4,135.5
		L58.4,135.5z M56.7,134.2c-0.3-0.9-1.2-1.5-2.2-1.2c0,0,0,0,0,0c-0.2,0.1-0.3,0.2-0.5,0.3c-0.1,0.1-0.3,0.3-0.3,0.4
		c-0.1,0.2-0.2,0.4-0.2,0.6L56.7,134.2z"/>
	<path class="st1" d="M65.3,126.5H67v12.1h-1.7v-0.7c-1.3,1.2-3.3,1.2-4.5,0c0,0,0,0,0,0c-1.2-1.5-1.2-3.7,0-5.2
		c0.6-0.7,1.5-1.1,2.4-1.1c0.8,0,1.6,0.4,2.2,1V126.5z M61.5,135.1c0,0.6,0.2,1.2,0.6,1.6c0.3,0.4,0.9,0.6,1.4,0.6
		c0.6,0,1.1-0.2,1.5-0.6c0.8-0.9,0.8-2.3,0-3.2c-0.4-0.4-0.9-0.6-1.4-0.6c-0.5,0-1.1,0.2-1.4,0.6C61.7,133.9,61.5,134.5,61.5,135.1z
		"/>
	<path class="st3" d="M65.3,126.5H67v12.1h-1.7v-0.7c-1.3,1.2-3.3,1.2-4.5,0c0,0,0,0,0,0c-1.2-1.5-1.2-3.7,0-5.2
		c0.6-0.7,1.5-1.1,2.4-1.1c0.8,0,1.6,0.4,2.2,1V126.5z M61.5,135.1c0,0.6,0.2,1.2,0.6,1.6c0.3,0.4,0.9,0.6,1.4,0.6
		c0.6,0,1.1-0.2,1.5-0.6c0.8-0.9,0.8-2.3,0-3.2c-0.4-0.4-0.9-0.6-1.4-0.6c-0.5,0-1.1,0.2-1.4,0.6C61.7,133.9,61.5,134.5,61.5,135.1z
		"/>
	<path class="st1" d="M68.7,128.7c0-0.5,0.5-1,1-1c0.3,0,0.5,0.1,0.8,0.3c0.2,0.2,0.3,0.5,0.3,0.8c0,0.3-0.1,0.5-0.3,0.8
		c-0.4,0.4-1,0.4-1.4,0.1l-0.1-0.1C68.8,129.3,68.7,129,68.7,128.7z M70.6,131.6v7H69v-7H70.6z"/>
	<path class="st3" d="M68.7,128.7c0-0.5,0.5-1,1-1c0.3,0,0.5,0.1,0.8,0.3c0.2,0.2,0.3,0.5,0.3,0.8c0,0.3-0.1,0.5-0.3,0.8
		c-0.4,0.4-1,0.4-1.4,0.1l-0.1-0.1C68.8,129.3,68.7,129,68.7,128.7z M70.6,131.6v7H69v-7H70.6z"/>
	<path class="st1" d="M72.6,131.6h1.6v0.6c0.5-0.5,1.2-0.8,1.9-0.8c0.7-0.1,1.4,0.2,1.9,0.8c0.4,0.6,0.6,1.4,0.6,2.1v4.3H77v-3.9
		c0-0.5,0-1-0.3-1.4c-0.3-0.3-0.6-0.4-1-0.4c-0.5-0.1-0.9,0.2-1.1,0.6c-0.3,0.6-0.4,1.2-0.3,1.8v3.4h-1.7L72.6,131.6L72.6,131.6z"/>
	<path class="st3" d="M72.6,131.6h1.6v0.6c0.5-0.5,1.2-0.8,1.9-0.8c0.7-0.1,1.4,0.2,1.9,0.8c0.4,0.6,0.6,1.4,0.6,2.1v4.3H77v-3.9
		c0-0.5,0-1-0.3-1.4c-0.3-0.3-0.6-0.4-1-0.4c-0.5-0.1-0.9,0.2-1.1,0.6c-0.3,0.6-0.4,1.2-0.3,1.8v3.4h-1.7L72.6,131.6L72.6,131.6z"/>
	<path class="st1" d="M87.5,138.5v0.8c0,0.2-0.1,0.5-0.1,0.7c-0.1,0.5-0.4,1-0.7,1.3c-0.7,0.7-1.6,1.1-2.6,1.1
		c-0.8,0-1.7-0.2-2.3-0.8c-0.6-0.5-1-1.3-1-2.2h1.6c0,0.3,0.2,0.6,0.3,0.8c0.4,0.4,0.9,0.7,1.5,0.6c1.2,0,1.8-0.7,1.8-2.2v-1
		c-1.1,1.2-3,1.3-4.2,0.2c0,0,0,0,0,0l-0.1-0.1l-0.2-0.2c-0.6-0.7-1-1.6-0.9-2.6c0-0.9,0.3-1.8,0.8-2.6c1.1-1.3,3-1.5,4.3-0.4
		c0,0,0,0,0,0l0.3,0.3v-0.8h1.6v6.9L87.5,138.5z M85.9,135.1c0-0.6-0.2-1.2-0.6-1.6c-0.7-0.8-1.9-0.9-2.7-0.2c0,0,0,0,0,0
		c-0.1,0.1-0.1,0.1-0.2,0.2c-0.3,0.5-0.5,1-0.5,1.6c0,0.6,0.1,1.1,0.5,1.5c0.7,0.8,1.8,0.9,2.6,0.3c0,0,0,0,0,0
		c0.1-0.1,0.2-0.2,0.3-0.3C85.8,136.2,86,135.7,85.9,135.1z"/>
	<path class="st3" d="M87.5,138.5v0.8c0,0.2-0.1,0.5-0.1,0.7c-0.1,0.5-0.4,1-0.7,1.3c-0.7,0.7-1.6,1.1-2.6,1.1
		c-0.8,0-1.7-0.2-2.3-0.8c-0.6-0.5-1-1.3-1-2.2h1.6c0,0.3,0.2,0.6,0.3,0.8c0.4,0.4,0.9,0.7,1.5,0.6c1.2,0,1.8-0.7,1.8-2.2v-1
		c-1.1,1.2-3,1.3-4.2,0.2c0,0,0,0,0,0l-0.1-0.1l-0.2-0.2c-0.6-0.7-1-1.6-0.9-2.6c0-0.9,0.3-1.8,0.8-2.6c1.1-1.3,3-1.5,4.3-0.4
		c0,0,0,0,0,0l0.3,0.3v-0.8h1.6v6.9L87.5,138.5z M85.9,135.1c0-0.6-0.2-1.2-0.6-1.6c-0.7-0.8-1.9-0.9-2.7-0.2c0,0,0,0,0,0
		c-0.1,0.1-0.1,0.1-0.2,0.2c-0.3,0.5-0.5,1-0.5,1.6c0,0.6,0.1,1.1,0.5,1.5c0.7,0.8,1.8,0.9,2.6,0.3c0,0,0,0,0,0
		c0.1-0.1,0.2-0.2,0.3-0.3C85.8,136.2,86,135.7,85.9,135.1z"/>
	<polygon class="st1" points="97.1,133.3 97.1,138.8 95.5,138.8 95.5,133.3 94.8,133.3 94.8,131.8 95.5,131.8 95.5,129.2 
		97.1,129.2 97.1,131.8 98.4,131.8 98.4,133.3 	"/>
	<polygon class="st3" points="97.1,133.3 97.1,138.8 95.5,138.8 95.5,133.3 94.8,133.3 94.8,131.8 95.5,131.8 95.5,129.2 
		97.1,129.2 97.1,131.8 98.4,131.8 98.4,133.3 	"/>
	<path class="st1" d="M99.3,135.2c0-1,0.4-1.9,1.1-2.6c1.5-1.4,3.8-1.4,5.3,0c1.4,1.4,1.4,3.8,0,5.2c-0.7,0.7-1.7,1.1-2.7,1.1
		c-1,0-1.9-0.3-2.7-1C99.6,137.3,99.2,136.3,99.3,135.2z M100.9,135.2c0,0.6,0.2,1.2,0.6,1.7c0.8,0.8,2.2,0.8,3,0c0,0,0,0,0,0l0,0
		c0.8-1,0.8-2.3,0-3.3c-0.4-0.4-1-0.6-1.5-0.6c-0.6,0-1.1,0.2-1.5,0.6C101.1,134.1,100.9,134.7,100.9,135.2L100.9,135.2z"/>
	<path class="st3" d="M99.3,135.2c0-1,0.4-1.9,1.1-2.6c1.5-1.4,3.8-1.4,5.3,0c1.4,1.4,1.4,3.8,0,5.2c-0.7,0.7-1.7,1.1-2.7,1.1
		c-1,0-1.9-0.3-2.7-1C99.6,137.3,99.2,136.3,99.3,135.2z M100.9,135.2c0,0.6,0.2,1.2,0.6,1.7c0.8,0.8,2.2,0.8,3,0c0,0,0,0,0,0l0,0
		c0.8-1,0.8-2.3,0-3.3c-0.4-0.4-1-0.6-1.5-0.6c-0.6,0-1.1,0.2-1.5,0.6C101.1,134.1,100.9,134.7,100.9,135.2L100.9,135.2z"/>
	<path class="st1" d="M117.1,133l-1.3,0.7c-0.2-0.4-0.5-0.6-0.8-0.6c-0.1,0-0.3,0-0.3,0.1c-0.1,0.1-0.1,0.2-0.1,0.4s0.3,0.6,0.9,0.8
		c0.6,0.2,1.2,0.6,1.8,1c0.3,0.3,0.5,0.8,0.4,1.3c0,0.6-0.3,1.3-0.8,1.7c-1.1,1-2.8,0.8-3.8-0.3c0,0,0,0,0,0l0,0
		c-0.2-0.2-0.4-0.5-0.5-0.8l1.4-0.6l0.4,0.6c0.2,0.2,0.4,0.3,0.7,0.3c0.6,0,0.8-0.3,0.8-0.8c0-0.3-0.2-0.6-0.6-0.8l-0.5-0.2
		l-0.5-0.2c-0.4-0.2-0.7-0.4-1-0.7c-0.3-0.3-0.4-0.7-0.3-1.1c0-0.6,0.2-1.1,0.6-1.5c0.4-0.4,1-0.6,1.5-0.6
		C116,131.6,116.8,132.2,117.1,133z"/>
	<path class="st3" d="M117.1,133l-1.3,0.7c-0.2-0.4-0.5-0.6-0.8-0.6c-0.1,0-0.3,0-0.3,0.1c-0.1,0.1-0.1,0.2-0.1,0.4s0.3,0.6,0.9,0.8
		c0.6,0.2,1.2,0.6,1.8,1c0.3,0.3,0.5,0.8,0.4,1.3c0,0.6-0.3,1.3-0.8,1.7c-1.1,1-2.8,0.8-3.8-0.3c0,0,0,0,0,0l0,0
		c-0.2-0.2-0.4-0.5-0.5-0.8l1.4-0.6l0.4,0.6c0.2,0.2,0.4,0.3,0.7,0.3c0.6,0,0.8-0.3,0.8-0.8c0-0.3-0.2-0.6-0.6-0.8l-0.5-0.2
		l-0.5-0.2c-0.4-0.2-0.7-0.4-1-0.7c-0.3-0.3-0.4-0.7-0.3-1.1c0-0.6,0.2-1.1,0.6-1.5c0.4-0.4,1-0.6,1.5-0.6
		C116,131.6,116.8,132.2,117.1,133z"/>
	<path class="st1" d="M125.3,135.7h-5c0,0.5,0.2,1,0.6,1.4c0.3,0.3,0.8,0.5,1.3,0.5c0.4,0,0.7-0.1,1-0.3c0.3-0.3,0.7-0.6,0.9-1
		l1.3,0.8c-0.2,0.3-0.4,0.6-0.7,0.9c-0.2,0.3-0.5,0.5-0.8,0.6c-0.3,0.1-0.5,0.3-0.8,0.4c-0.3,0.1-0.7,0.1-1,0.1
		c-0.9,0-1.9-0.3-2.5-1c-0.6-0.7-1-1.7-1-2.7c-0.1-1,0.3-1.9,0.9-2.7c1.4-1.3,3.5-1.3,4.9,0c0.6,0.8,1,1.7,0.9,2.7L125.3,135.7z
		 M123.7,134.4c-0.1-0.8-0.8-1.3-1.6-1.3c-0.4,0-0.7,0.1-1,0.4c-0.1,0.1-0.3,0.3-0.3,0.4c-0.1,0.1-0.2,0.4-0.2,0.6L123.7,134.4
		L123.7,134.4z"/>
	<path class="st3" d="M125.3,135.7h-5c0,0.5,0.2,1,0.6,1.4c0.3,0.3,0.8,0.5,1.3,0.5c0.4,0,0.7-0.1,1-0.3c0.3-0.3,0.7-0.6,0.9-1
		l1.3,0.8c-0.2,0.3-0.4,0.6-0.7,0.9c-0.2,0.3-0.5,0.5-0.8,0.6c-0.3,0.1-0.5,0.3-0.8,0.4c-0.3,0.1-0.7,0.1-1,0.1
		c-0.9,0-1.9-0.3-2.5-1c-0.6-0.7-1-1.7-1-2.7c-0.1-1,0.3-1.9,0.9-2.7c1.4-1.3,3.5-1.3,4.9,0c0.6,0.8,1,1.7,0.9,2.7L125.3,135.7z
		 M123.7,134.4c-0.1-0.8-0.8-1.3-1.6-1.3c-0.4,0-0.7,0.1-1,0.4c-0.1,0.1-0.3,0.3-0.3,0.4c-0.1,0.1-0.2,0.4-0.2,0.6L123.7,134.4
		L123.7,134.4z"/>
	<path class="st1" d="M132.3,131.8h1.6v7h-1.6v-0.7c-1.2,1.2-3.1,1.3-4.4,0.1c0,0,0,0,0,0l0,0c-0.1-0.1-0.1-0.1-0.1-0.2
		c-0.6-0.7-1-1.7-1-2.7c0-1,0.3-1.9,1-2.7c0.6-0.7,1.5-1,2.4-1c0.8,0,1.6,0.4,2.2,1L132.3,131.8z M128.4,135.3
		c0,0.6,0.2,1.2,0.6,1.6c0.4,0.4,0.9,0.6,1.4,0.6c0.6,0,1.1-0.2,1.5-0.6c0.8-0.9,0.8-2.3,0-3.2c-0.4-0.4-0.9-0.7-1.5-0.6
		c-0.5,0-1.1,0.2-1.4,0.6C128.6,134.2,128.4,134.7,128.4,135.3L128.4,135.3z"/>
	<path class="st3" d="M132.3,131.8h1.6v7h-1.6v-0.7c-1.2,1.2-3.1,1.3-4.4,0.1c0,0,0,0,0,0l0,0c-0.1-0.1-0.1-0.1-0.1-0.2
		c-0.6-0.7-1-1.7-1-2.7c0-1,0.3-1.9,1-2.7c0.6-0.7,1.5-1,2.4-1c0.8,0,1.6,0.4,2.2,1L132.3,131.8z M128.4,135.3
		c0,0.6,0.2,1.2,0.6,1.6c0.4,0.4,0.9,0.6,1.4,0.6c0.6,0,1.1-0.2,1.5-0.6c0.8-0.9,0.8-2.3,0-3.2c-0.4-0.4-0.9-0.7-1.5-0.6
		c-0.5,0-1.1,0.2-1.4,0.6C128.6,134.2,128.4,134.7,128.4,135.3L128.4,135.3z"/>
</g>
</svg>
