<?xml version="1.0" encoding="utf-8"?>
<!-- Generator: Adobe Illustrator 24.0.1, SVG Export Plug-In . SVG Version: 6.00 Build 0)  -->
<svg version="1.1" id="Layer_1" xmlns="http://www.w3.org/2000/svg" xmlns:xlink="http://www.w3.org/1999/xlink" x="0px" y="0px"
	 viewBox="0 0 147.8 147.8" style="enable-background:new 0 0 147.8 147.8;" xml:space="preserve">
<style type="text/css">
	.st0{fill:#FFCC00;}
	.st1{fill:none;stroke:#000000;stroke-width:3.75;stroke-linejoin:round;}
	.st2{fill:#FFFFFF;}
	.st3{fill:none;stroke:#000000;stroke-width:0.5;}
</style>
<title>Quebec</title>
<rect x="1.9" y="1.9" class="st0" width="144" height="144"/>
<path class="st1" d="M1.9,1.9h144v144H1.9V1.9z"/>
<g id="Layer_1_1_">
	<path class="st2" d="M16,69.3l-1.5,1c-0.2-0.3-0.4-0.8-0.8-1c-0.3-0.1-0.6-0.2-1-0.2s-1,0.1-1.3,0.4c-0.3,0.2-0.5,0.6-0.4,1.1
		c0,0.6,0.4,1.1,1.3,1.5l1.3,0.5c0.9,0.3,1.6,0.8,2.2,1.5c0.4,0.6,0.8,1.4,0.8,2.2c0,1.1-0.4,2.1-1.2,2.8c-0.8,0.8-1.7,1.2-2.8,1.1
		c-1,0-1.9-0.3-2.7-1c-0.8-0.8-1.2-1.6-1.3-2.7l1.8-0.4c0,0.5,0.2,1.1,0.4,1.5c0.6,0.9,1.9,1.1,2.9,0.4l0,0l0.1-0.1
		c0.1,0,0.1-0.1,0.1-0.1c0.5-0.5,0.8-1.4,0.4-2.2c0-0.2-0.1-0.4-0.3-0.5c-0.2-0.2-0.3-0.3-0.5-0.4c-0.2-0.2-0.5-0.3-0.8-0.4
		l-1.2-0.4C9.8,73.1,9,72.1,9,70.7c0-0.9,0.4-1.8,1.1-2.4c0.8-0.6,1.7-1,2.7-1C14.3,67.3,15.6,68,16,69.3z"/>
	<path class="st3" d="M16,69.3l-1.5,1c-0.2-0.3-0.4-0.8-0.8-1c-0.3-0.1-0.6-0.2-1-0.2s-1,0.1-1.3,0.4c-0.3,0.2-0.5,0.6-0.4,1.1
		c0,0.6,0.4,1.1,1.3,1.5l1.3,0.5c0.9,0.3,1.6,0.8,2.2,1.5c0.4,0.6,0.8,1.4,0.8,2.2c0,1.1-0.4,2.1-1.2,2.8c-0.8,0.8-1.7,1.2-2.8,1.1
		c-1,0-1.9-0.3-2.7-1c-0.8-0.8-1.2-1.6-1.3-2.7l1.8-0.4c0,0.5,0.2,1.1,0.4,1.5c0.6,0.9,1.9,1.1,2.9,0.4l0,0l0.1-0.1
		c0.1,0,0.1-0.1,0.1-0.1c0.5-0.5,0.8-1.4,0.4-2.2c0-0.2-0.1-0.4-0.3-0.5c-0.2-0.2-0.3-0.3-0.5-0.4c-0.2-0.2-0.5-0.3-0.8-0.4
		l-1.2-0.4C9.8,73.1,9,72.1,9,70.7c0-0.9,0.4-1.8,1.1-2.4c0.8-0.6,1.7-1,2.7-1C14.3,67.3,15.6,68,16,69.3z"/>
	<path class="st2" d="M18.4,66.3h1.8v6.4c1.2-1.2,3-1.2,4.2,0c0.4,0.6,0.8,1.5,0.8,2.4V80h-1.8v-4.7c0-0.4-0.1-1-0.3-1.3
		c-0.3-0.3-0.6-0.4-1.1-0.4c-0.5-0.1-1.1,0.2-1.3,0.6c-0.3,0.6-0.4,1.3-0.4,2.1V80h-1.8V66.3H18.4z"/>
	<path class="st3" d="M18.4,66.3h1.8v6.4c1.2-1.2,3-1.2,4.2,0c0.4,0.6,0.8,1.5,0.8,2.4V80h-1.8v-4.7c0-0.4-0.1-1-0.3-1.3
		c-0.3-0.3-0.6-0.4-1.1-0.4c-0.5-0.1-1.1,0.2-1.3,0.6c-0.3,0.6-0.4,1.3-0.4,2.1V80h-1.8V66.3H18.4z"/>
	<path class="st2" d="M27.2,68.8c0-0.6,0.5-1.2,1.2-1.2c0.3,0,0.6,0.1,0.9,0.3c0.2,0.2,0.3,0.5,0.3,0.9c0,0.3-0.1,0.6-0.3,0.9
		c-0.3,0.2-0.6,0.3-1,0.3C27.7,70,27.2,69.4,27.2,68.8z M29.2,72v7.9h-1.8V72H29.2z"/>
	<path class="st3" d="M27.2,68.8c0-0.6,0.5-1.2,1.2-1.2c0.3,0,0.6,0.1,0.9,0.3c0.2,0.2,0.3,0.5,0.3,0.9c0,0.3-0.1,0.6-0.3,0.9
		c-0.3,0.2-0.6,0.3-1,0.3C27.7,70,27.2,69.4,27.2,68.8z M29.2,72v7.9h-1.8V72H29.2z"/>
	<path class="st2" d="M33.3,84.2h-1.8V72h1.8v0.9c0.6-0.6,1.5-1.1,2.5-1.1s1.9,0.4,2.7,1.2c0.8,0.9,1.1,1.9,1.1,3s-0.3,2.2-1.1,2.9
		c-1.3,1.4-3.5,1.6-4.9,0.3l0,0L33.4,79L33.3,84.2C33.4,84.2,33.3,84.2,33.3,84.2z M37.7,76c0-0.6-0.2-1.3-0.6-1.8
		c-0.4-0.4-1-0.8-1.6-0.8s-1.2,0.2-1.6,0.8c-0.4,0.5-0.6,1.2-0.6,1.8s0.2,1.4,0.6,1.8s1,0.8,1.6,0.8s1.2-0.2,1.6-0.8
		C37.5,77.3,37.8,76.7,37.7,76z"/>
	<path class="st3" d="M33.3,84.2h-1.8V72h1.8v0.9c0.6-0.6,1.5-1.1,2.5-1.1s1.9,0.4,2.7,1.2c0.8,0.9,1.1,1.9,1.1,3s-0.3,2.2-1.1,2.9
		c-1.3,1.4-3.5,1.6-4.9,0.3l0,0L33.4,79L33.3,84.2C33.4,84.2,33.3,84.2,33.3,84.2z M37.7,76c0-0.6-0.2-1.3-0.6-1.8
		c-0.4-0.4-1-0.8-1.6-0.8s-1.2,0.2-1.6,0.8c-0.4,0.5-0.6,1.2-0.6,1.8s0.2,1.4,0.6,1.8s1,0.8,1.6,0.8s1.2-0.2,1.6-0.8
		C37.5,77.3,37.8,76.7,37.7,76z"/>
	<path class="st2" d="M46.5,72h1.8v0.8c0.2-0.3,0.5-0.5,0.9-0.8c0.3-0.2,0.6-0.2,1-0.2c0.9,0,1.7,0.4,2.2,1.2
		c0.5-0.8,1.4-1.2,2.3-1.2c1.8,0,2.7,1.1,2.7,3.2v4.8h-1.8v-4.3c0-0.5-0.1-1.1-0.3-1.6c-0.2-0.3-0.5-0.5-1-0.4
		c-0.4,0-0.9,0.2-1.1,0.5c-0.2,0.5-0.3,1.2-0.3,1.8v4H51v-4.3c0-1.4-0.4-2.2-1.2-2.2c-0.4,0-0.9,0.2-1.1,0.5
		c-0.2,0.5-0.3,1.2-0.3,1.8v4.1h-1.7L46.5,72L46.5,72z"/>
	<path class="st3" d="M46.5,72h1.8v0.8c0.2-0.3,0.5-0.5,0.9-0.8c0.3-0.2,0.6-0.2,1-0.2c0.9,0,1.7,0.4,2.2,1.2
		c0.5-0.8,1.4-1.2,2.3-1.2c1.8,0,2.7,1.1,2.7,3.2v4.8h-1.8v-4.3c0-0.5-0.1-1.1-0.3-1.6c-0.2-0.3-0.5-0.5-1-0.4
		c-0.4,0-0.9,0.2-1.1,0.5c-0.2,0.5-0.3,1.2-0.3,1.8v4H51v-4.3c0-1.4-0.4-2.2-1.2-2.2c-0.4,0-0.9,0.2-1.1,0.5
		c-0.2,0.5-0.3,1.2-0.3,1.8v4.1h-1.7L46.5,72L46.5,72z"/>
	<path class="st2" d="M66.9,76.5h-5.6c0,0.5,0.2,1.2,0.5,1.6c0.6,0.6,1.7,0.8,2.5,0.2c0.4-0.3,0.8-0.8,1-1.2l1.6,0.9
		c-0.2,0.3-0.4,0.8-0.8,1c-0.2,0.3-0.4,0.5-0.8,0.6c-0.3,0.2-0.6,0.3-1,0.4c-0.3,0.1-0.8,0.1-1.1,0.1c-1.1,0-2.1-0.4-2.8-1.2
		c-0.8-0.9-1.1-1.9-1.1-3c-0.1-1.1,0.3-2.2,1.1-3c1.5-1.5,4-1.5,5.5,0c0.8,0.9,1.1,1.9,1,3L66.9,76.5z M64.9,74.8
		c-0.2-0.9-1-1.5-1.8-1.5c-0.2,0-0.4,0-0.6,0.1c-0.2,0.1-0.4,0.2-0.5,0.3c-0.1,0.1-0.3,0.3-0.4,0.4c-0.1,0.2-0.2,0.4-0.2,0.6
		L64.9,74.8L64.9,74.8z"/>
	<path class="st3" d="M66.9,76.5h-5.6c0,0.5,0.2,1.2,0.5,1.6c0.6,0.6,1.7,0.8,2.5,0.2c0.4-0.3,0.8-0.8,1-1.2l1.6,0.9
		c-0.2,0.3-0.4,0.8-0.8,1c-0.2,0.3-0.4,0.5-0.8,0.6c-0.3,0.2-0.6,0.3-1,0.4c-0.3,0.1-0.8,0.1-1.1,0.1c-1.1,0-2.1-0.4-2.8-1.2
		c-0.8-0.9-1.1-1.9-1.1-3c-0.1-1.1,0.3-2.2,1.1-3c1.5-1.5,4-1.5,5.5,0c0.8,0.9,1.1,1.9,1,3L66.9,76.5z M64.9,74.8
		c-0.2-0.9-1-1.5-1.8-1.5c-0.2,0-0.4,0-0.6,0.1c-0.2,0.1-0.4,0.2-0.5,0.3c-0.1,0.1-0.3,0.3-0.4,0.4c-0.1,0.2-0.2,0.4-0.2,0.6
		L64.9,74.8L64.9,74.8z"/>
	<path class="st2" d="M76,76.5h-5.6c0,0.5,0.2,1.2,0.6,1.6c0.3,0.3,0.9,0.5,1.4,0.5c0.4,0,0.8-0.1,1.1-0.3c0.4-0.3,0.8-0.8,1-1.3
		l1.6,0.9c-0.2,0.3-0.4,0.8-0.8,1c-0.2,0.3-0.5,0.5-0.9,0.8c-0.3,0.2-0.6,0.3-1,0.4c-0.3,0.1-0.8,0.1-1.1,0.1
		c-1.1,0-2.1-0.3-2.8-1.1c-0.8-0.9-1.1-1.9-1.1-3c-0.1-1.1,0.3-2.2,1-3c1.5-1.5,4-1.5,5.5,0c0.8,0.9,1.1,1.9,1,3
		C76,76,76,76.5,76,76.5z M74.1,74.8c-0.2-1.1-1.3-1.7-2.3-1.4h-0.1c-0.2,0.1-0.4,0.2-0.5,0.3c-0.1,0.1-0.3,0.3-0.4,0.4
		c-0.1,0.2-0.2,0.4-0.2,0.6L74.1,74.8L74.1,74.8z"/>
	<path class="st3" d="M76,76.5h-5.6c0,0.5,0.2,1.2,0.6,1.6c0.3,0.3,0.9,0.5,1.4,0.5c0.4,0,0.8-0.1,1.1-0.3c0.4-0.3,0.8-0.8,1-1.3
		l1.6,0.9c-0.2,0.3-0.4,0.8-0.8,1c-0.2,0.3-0.5,0.5-0.9,0.8c-0.3,0.2-0.6,0.3-1,0.4c-0.3,0.1-0.8,0.1-1.1,0.1
		c-1.1,0-2.1-0.3-2.8-1.1c-0.8-0.9-1.1-1.9-1.1-3c-0.1-1.1,0.3-2.2,1-3c1.5-1.5,4-1.5,5.5,0c0.8,0.9,1.1,1.9,1,3
		C76,76,76,76.5,76,76.5z M74.1,74.8c-0.2-1.1-1.3-1.7-2.3-1.4h-0.1c-0.2,0.1-0.4,0.2-0.5,0.3c-0.1,0.1-0.3,0.3-0.4,0.4
		c-0.1,0.2-0.2,0.4-0.2,0.6L74.1,74.8L74.1,74.8z"/>
	<polygon class="st2" points="80,73.8 80,79.9 78.1,79.9 78.1,73.8 77.4,73.8 77.4,72 78.1,72 78.1,69.1 80,69.1 80,72 81.4,72 
		81.4,73.8 	"/>
	<polygon class="st3" points="80,73.8 80,79.9 78.1,79.9 78.1,73.8 77.4,73.8 77.4,72 78.1,72 78.1,69.1 80,69.1 80,72 81.4,72 
		81.4,73.8 	"/>
	<path class="st2" d="M87.2,73.3l-1.5,0.8c-0.2-0.4-0.5-0.8-0.9-0.8c-0.1,0-0.3,0.1-0.4,0.1c-0.1,0.1-0.1,0.2-0.1,0.4
		c0,0.2,0.3,0.6,1,0.9c0.8,0.2,1.4,0.6,1.9,1.2c0.3,0.4,0.5,0.9,0.4,1.4c0,0.8-0.3,1.4-0.9,1.8c-0.5,0.5-1.2,0.8-1.9,0.8
		c-1.3,0-2.4-0.8-2.8-1.9l1.6-0.8L84,78c0.2,0.2,0.4,0.3,0.8,0.3c0.6,0,1-0.3,1-0.9c0-0.3-0.2-0.6-0.8-1l-0.5-0.2L84,76
		c-0.4-0.2-0.8-0.4-1.1-0.8c-0.3-0.3-0.4-0.8-0.4-1.3c0-0.6,0.2-1.3,0.8-1.7c0.4-0.4,1.1-0.8,1.7-0.6C86,71.8,86.9,72.5,87.2,73.3z"
		/>
	<path class="st3" d="M87.2,73.3l-1.5,0.8c-0.2-0.4-0.5-0.8-0.9-0.8c-0.1,0-0.3,0.1-0.4,0.1c-0.1,0.1-0.1,0.2-0.1,0.4
		c0,0.2,0.3,0.6,1,0.9c0.8,0.2,1.4,0.6,1.9,1.2c0.3,0.4,0.5,0.9,0.4,1.4c0,0.8-0.3,1.4-0.9,1.8c-0.5,0.5-1.2,0.8-1.9,0.8
		c-1.3,0-2.4-0.8-2.8-1.9l1.6-0.8L84,78c0.2,0.2,0.4,0.3,0.8,0.3c0.6,0,1-0.3,1-0.9c0-0.3-0.2-0.6-0.8-1l-0.5-0.2L84,76
		c-0.4-0.2-0.8-0.4-1.1-0.8c-0.3-0.3-0.4-0.8-0.4-1.3c0-0.6,0.2-1.3,0.8-1.7c0.4-0.4,1.1-0.8,1.7-0.6C86,71.8,86.9,72.5,87.2,73.3z"
		/>
	<path class="st2" d="M94.5,66.3h1.8v6.4c1.2-1.2,3-1.2,4.2,0c0.4,0.6,0.8,1.5,0.8,2.4V80h-1.8v-4.7c0-0.4-0.1-1-0.3-1.3
		c-0.3-0.3-0.6-0.4-1.1-0.4c-0.5-0.1-1.1,0.2-1.3,0.6c-0.3,0.6-0.4,1.3-0.4,2.1V80h-1.8L94.5,66.3L94.5,66.3z"/>
	<path class="st3" d="M94.5,66.3h1.8v6.4c1.2-1.2,3-1.2,4.2,0c0.4,0.6,0.8,1.5,0.8,2.4V80h-1.8v-4.7c0-0.4-0.1-1-0.3-1.3
		c-0.3-0.3-0.6-0.4-1.1-0.4c-0.5-0.1-1.1,0.2-1.3,0.6c-0.3,0.6-0.4,1.3-0.4,2.1V80h-1.8L94.5,66.3L94.5,66.3z"/>
	<path class="st2" d="M110.8,76.5h-5.7c0,0.5,0.2,1.2,0.6,1.6c0.3,0.3,0.9,0.5,1.4,0.5c0.4,0,0.8-0.1,1.1-0.3c0.4-0.3,0.8-0.8,1-1.3
		l1.6,0.9c-0.2,0.3-0.4,0.8-0.8,1c-0.2,0.3-0.5,0.5-0.9,0.8c-0.3,0.2-0.6,0.3-1,0.4c-0.3,0.1-0.8,0.1-1.1,0.1
		c-1.1,0-2.1-0.3-2.8-1.1c-0.8-0.9-1.1-1.9-1.1-3c-0.1-1.1,0.3-2.2,1-3c1.5-1.5,4-1.5,5.5,0c0.8,0.9,1.1,1.9,1,3L110.8,76.5z
		 M108.9,74.8c-0.2-0.9-0.9-1.5-1.7-1.5c-0.6,0-1.3,0.3-1.6,0.9c-0.1,0.2-0.2,0.4-0.2,0.6H108.9z"/>
	<path class="st3" d="M110.8,76.5h-5.7c0,0.5,0.2,1.2,0.6,1.6c0.3,0.3,0.9,0.5,1.4,0.5c0.4,0,0.8-0.1,1.1-0.3c0.4-0.3,0.8-0.8,1-1.3
		l1.6,0.9c-0.2,0.3-0.4,0.8-0.8,1c-0.2,0.3-0.5,0.5-0.9,0.8c-0.3,0.2-0.6,0.3-1,0.4c-0.3,0.1-0.8,0.1-1.1,0.1
		c-1.1,0-2.1-0.3-2.8-1.1c-0.8-0.9-1.1-1.9-1.1-3c-0.1-1.1,0.3-2.2,1-3c1.5-1.5,4-1.5,5.5,0c0.8,0.9,1.1,1.9,1,3L110.8,76.5z
		 M108.9,74.8c-0.2-0.9-0.9-1.5-1.7-1.5c-0.6,0-1.3,0.3-1.6,0.9c-0.1,0.2-0.2,0.4-0.2,0.6H108.9z"/>
	<path class="st2" d="M118.5,72h1.8v7.9h-1.8V79c-1.4,1.3-3.6,1.4-4.9,0.1V79c-0.1,0-0.1-0.1-0.1-0.2c-0.8-0.9-1.1-1.9-1-3
		c0-1.1,0.3-2.2,1.1-3c0.6-0.8,1.6-1.2,2.7-1.2c1,0,1.8,0.4,2.5,1.1L118.5,72z M114.2,76c0,0.6,0.2,1.3,0.6,1.8
		c0.4,0.4,1,0.8,1.6,0.8s1.2-0.2,1.6-0.8c0.9-1.1,0.9-2.6,0-3.7c-0.4-0.4-1-0.8-1.6-0.8s-1.2,0.2-1.6,0.8
		C114.4,74.6,114.2,75.3,114.2,76L114.2,76z"/>
	<path class="st3" d="M118.5,72h1.8v7.9h-1.8V79c-1.4,1.3-3.6,1.4-4.9,0.1V79c-0.1,0-0.1-0.1-0.1-0.2c-0.8-0.9-1.1-1.9-1-3
		c0-1.1,0.3-2.2,1.1-3c0.6-0.8,1.6-1.2,2.7-1.2c1,0,1.8,0.4,2.5,1.1L118.5,72z M114.2,76c0,0.6,0.2,1.3,0.6,1.8
		c0.4,0.4,1,0.8,1.6,0.8s1.2-0.2,1.6-0.8c0.9-1.1,0.9-2.6,0-3.7c-0.4-0.4-1-0.8-1.6-0.8s-1.2,0.2-1.6,0.8
		C114.4,74.6,114.2,75.3,114.2,76L114.2,76z"/>
	<rect x="122.6" y="66.3" class="st2" width="1.8" height="13.6"/>
	<rect x="122.6" y="66.3" class="st3" width="1.8" height="13.6"/>
	<polygon class="st2" points="128.7,73.8 128.7,79.9 126.8,79.9 126.8,73.8 126.1,73.8 126.1,72 126.8,72 126.8,69.1 128.7,69.1 
		128.7,72 130.1,72 130.1,73.8 	"/>
	<polygon class="st3" points="128.7,73.8 128.7,79.9 126.8,79.9 126.8,73.8 126.1,73.8 126.1,72 126.8,72 126.8,69.1 128.7,69.1 
		128.7,72 130.1,72 130.1,73.8 	"/>
	<path class="st2" d="M131.7,66.3h1.8v6.4c1.2-1.2,3-1.2,4.2,0c0.4,0.6,0.8,1.5,0.8,2.4V80h-1.8v-4.7c0-0.4-0.1-1-0.3-1.3
		c-0.3-0.3-0.6-0.4-1.1-0.4c-0.5-0.1-1.1,0.2-1.3,0.6c-0.3,0.6-0.4,1.3-0.4,2.1V80h-1.8L131.7,66.3L131.7,66.3z"/>
	<path class="st3" d="M131.7,66.3h1.8v6.4c1.2-1.2,3-1.2,4.2,0c0.4,0.6,0.8,1.5,0.8,2.4V80h-1.8v-4.7c0-0.4-0.1-1-0.3-1.3
		c-0.3-0.3-0.6-0.4-1.1-0.4c-0.5-0.1-1.1,0.2-1.3,0.6c-0.3,0.6-0.4,1.3-0.4,2.1V80h-1.8L131.7,66.3L131.7,66.3z"/>
	<path class="st2" d="M27.3,89.2h1.8v0.6c0.2-0.3,0.5-0.5,0.9-0.8s0.6-0.2,1-0.2c0.5,0,1.1,0.2,1.5,0.4l-1,1.8
		c-0.3-0.2-0.6-0.4-1-0.4c-1,0-1.5,0.8-1.5,2.2V97h-1.8L27.3,89.2z"/>
	<path class="st3" d="M27.3,89.2h1.8v0.6c0.2-0.3,0.5-0.5,0.9-0.8s0.6-0.2,1-0.2c0.5,0,1.1,0.2,1.5,0.4l-1,1.8
		c-0.3-0.2-0.6-0.4-1-0.4c-1,0-1.5,0.8-1.5,2.2V97h-1.8L27.3,89.2z"/>
	<path class="st2" d="M40.5,93.7h-5.6c0,0.5,0.2,1.2,0.6,1.6c0.6,0.6,1.7,0.8,2.5,0.2c0.4-0.3,0.8-0.8,1-1.2l1.5,0.9
		c-0.2,0.3-0.4,0.6-0.8,1c-0.2,0.3-0.5,0.5-0.9,0.8c-0.3,0.1-0.6,0.3-1,0.4c-0.3,0.1-0.8,0.1-1.1,0.1c-1.1,0-2.1-0.3-2.8-1.1
		c-0.8-0.9-1.1-1.9-1.1-3c-0.1-1.1,0.3-2.2,1-3c1.5-1.5,4-1.5,5.5,0c0.8,0.9,1.1,1.9,1,3L40.5,93.7z M38.6,92.2
		c-0.1-0.9-1-1.5-1.8-1.4c-0.2,0-0.4,0-0.6,0.1c-0.2,0.1-0.3,0.2-0.5,0.3c-0.1,0.1-0.3,0.3-0.4,0.4c-0.2,0.2-0.2,0.4-0.2,0.6H38.6z"
		/>
	<path class="st3" d="M40.5,93.7h-5.6c0,0.5,0.2,1.2,0.6,1.6c0.6,0.6,1.7,0.8,2.5,0.2c0.4-0.3,0.8-0.8,1-1.2l1.5,0.9
		c-0.2,0.3-0.4,0.6-0.8,1c-0.2,0.3-0.5,0.5-0.9,0.8c-0.3,0.1-0.6,0.3-1,0.4c-0.3,0.1-0.8,0.1-1.1,0.1c-1.1,0-2.1-0.3-2.8-1.1
		c-0.8-0.9-1.1-1.9-1.1-3c-0.1-1.1,0.3-2.2,1-3c1.5-1.5,4-1.5,5.5,0c0.8,0.9,1.1,1.9,1,3L40.5,93.7z M38.6,92.2
		c-0.1-0.9-1-1.5-1.8-1.4c-0.2,0-0.4,0-0.6,0.1c-0.2,0.1-0.3,0.2-0.5,0.3c-0.1,0.1-0.3,0.3-0.4,0.4c-0.2,0.2-0.2,0.4-0.2,0.6H38.6z"
		/>
	<path class="st2" d="M50,96.9v1c0,0.2-0.1,0.5-0.1,0.8c-0.1,0.5-0.4,1.1-0.8,1.5c-0.8,0.9-1.8,1.3-2.9,1.3c-1,0-1.8-0.2-2.6-0.9
		c-0.8-0.6-1.2-1.5-1.2-2.5h1.8c0,0.3,0.1,0.6,0.3,0.9c0.4,0.5,1,0.8,1.6,0.8c1.3,0,1.9-0.8,1.9-2.4v-1.1c-1.3,1.4-3.5,1.5-4.8,0.2
		l0,0l-0.1-0.1l-0.2-0.2c-0.8-0.8-1.1-1.8-1-2.9c0-1.1,0.3-2.1,1-2.9c0.6-0.9,1.6-1.4,2.8-1.4c1,0,1.8,0.4,2.5,1.1v-0.9H50V97l0,0
		V96.9z M48.3,93.2c0-0.6-0.2-1.3-0.6-1.8c-0.8-0.9-2.2-1-3-0.1c-0.1,0.1-0.1,0.1-0.2,0.2C44.1,92,44,92.7,44,93.3
		c0,0.6,0.2,1.2,0.5,1.7c0.8,0.9,2.1,1.1,3,0.3c0.1-0.1,0.2-0.2,0.3-0.3C48.2,94.5,48.4,93.9,48.3,93.2L48.3,93.2z"/>
	<path class="st3" d="M50,96.9v1c0,0.2-0.1,0.5-0.1,0.8c-0.1,0.5-0.4,1.1-0.8,1.5c-0.8,0.9-1.8,1.3-2.9,1.3c-1,0-1.8-0.2-2.6-0.9
		c-0.8-0.6-1.2-1.5-1.2-2.5h1.8c0,0.3,0.1,0.6,0.3,0.9c0.4,0.5,1,0.8,1.6,0.8c1.3,0,1.9-0.8,1.9-2.4v-1.1c-1.3,1.4-3.5,1.5-4.8,0.2
		l0,0l-0.1-0.1l-0.2-0.2c-0.8-0.8-1.1-1.8-1-2.9c0-1.1,0.3-2.1,1-2.9c0.6-0.9,1.6-1.4,2.8-1.4c1,0,1.8,0.4,2.5,1.1v-0.9H50V97l0,0
		V96.9z M48.3,93.2c0-0.6-0.2-1.3-0.6-1.8c-0.8-0.9-2.2-1-3-0.1c-0.1,0.1-0.1,0.1-0.2,0.2C44.1,92,44,92.7,44,93.3
		c0,0.6,0.2,1.2,0.5,1.7c0.8,0.9,2.1,1.1,3,0.3c0.1-0.1,0.2-0.2,0.3-0.3C48.2,94.5,48.4,93.9,48.3,93.2L48.3,93.2z"/>
	<path class="st2" d="M56.9,90.5l-1.5,0.8c-0.2-0.4-0.5-0.8-0.9-0.8c-0.1,0-0.3,0.1-0.4,0.1c-0.1,0.1-0.2,0.2-0.2,0.4
		c0,0.3,0.3,0.6,1,0.9c0.8,0.2,1.4,0.6,1.9,1.2c0.3,0.4,0.5,0.9,0.4,1.4c0,0.8-0.3,1.4-0.9,1.8c-1.3,1.1-3.1,1-4.2-0.3l0,0
		c-0.2-0.2-0.4-0.5-0.5-0.9l1.6-0.8l0.4,0.8c0.2,0.2,0.5,0.3,0.8,0.3c0.6,0,1-0.3,1-0.9c0-0.3-0.2-0.6-0.8-1l-0.5-0.2l-0.5-0.2
		c-0.4-0.2-0.8-0.4-1.1-0.8c-0.3-0.3-0.4-0.8-0.4-1.3c0-0.6,0.2-1.3,0.8-1.7c0.4-0.4,1.1-0.8,1.7-0.6C55.7,89,56.6,89.7,56.9,90.5z"
		/>
	<path class="st3" d="M56.9,90.5l-1.5,0.8c-0.2-0.4-0.5-0.8-0.9-0.8c-0.1,0-0.3,0.1-0.4,0.1c-0.1,0.1-0.2,0.2-0.2,0.4
		c0,0.3,0.3,0.6,1,0.9c0.8,0.2,1.4,0.6,1.9,1.2c0.3,0.4,0.5,0.9,0.4,1.4c0,0.8-0.3,1.4-0.9,1.8c-1.3,1.1-3.1,1-4.2-0.3l0,0
		c-0.2-0.2-0.4-0.5-0.5-0.9l1.6-0.8l0.4,0.8c0.2,0.2,0.5,0.3,0.8,0.3c0.6,0,1-0.3,1-0.9c0-0.3-0.2-0.6-0.8-1l-0.5-0.2l-0.5-0.2
		c-0.4-0.2-0.8-0.4-1.1-0.8c-0.3-0.3-0.4-0.8-0.4-1.3c0-0.6,0.2-1.3,0.8-1.7c0.4-0.4,1.1-0.8,1.7-0.6C55.7,89,56.6,89.7,56.9,90.5z"
		/>
	<path class="st2" d="M60.2,94.7l1.6,0.6l-2.3,4.5l-1.3-0.4L60.2,94.7z M59.7,90.1c0-0.5,0.4-1.1,1-1.1h0.1c0.6,0,1.1,0.4,1.1,1.1
		l0,0c0,0.5-0.5,1.1-1.1,1.1c-0.3,0-0.5-0.1-0.8-0.3C59.8,90.6,59.7,90.4,59.7,90.1L59.7,90.1z"/>
	<path class="st3" d="M60.2,94.7l1.6,0.6l-2.3,4.5l-1.3-0.4L60.2,94.7z M59.7,90.1c0-0.5,0.4-1.1,1-1.1h0.1c0.6,0,1.1,0.4,1.1,1.1
		l0,0c0,0.5-0.5,1.1-1.1,1.1c-0.3,0-0.5-0.1-0.8-0.3C59.8,90.6,59.7,90.4,59.7,90.1L59.7,90.1z"/>
	<path class="st2" d="M67.7,89.2h1.8v0.6c0.2-0.3,0.5-0.5,0.9-0.8s0.6-0.2,1-0.1c0.5,0,1.1,0.1,1.5,0.4L72,90.9
		c-0.3-0.2-0.6-0.4-1-0.4c-1,0-1.5,0.8-1.5,2.2v4.1h-1.8V89.2L67.7,89.2z"/>
	<path class="st3" d="M67.7,89.2h1.8v0.6c0.2-0.3,0.5-0.5,0.9-0.8s0.6-0.2,1-0.1c0.5,0,1.1,0.1,1.5,0.4L72,90.9
		c-0.3-0.2-0.6-0.4-1-0.4c-1,0-1.5,0.8-1.5,2.2v4.1h-1.8V89.2L67.7,89.2z"/>
	<path class="st2" d="M80.9,93.6h-5.6c0,0.5,0.2,1.2,0.6,1.6c0.6,0.6,1.7,0.8,2.5,0.2c0.4-0.3,0.8-0.8,1-1.2l1.6,0.9
		c-0.2,0.3-0.4,0.8-0.8,1c-0.2,0.3-0.5,0.5-0.9,0.8c-0.3,0.2-0.6,0.3-1,0.4c-0.3,0.1-0.8,0.1-1.1,0.1c-1.1,0-2.1-0.3-2.8-1.1
		c-0.6-0.9-1.1-1.9-1.1-3c-0.1-1.1,0.3-2.2,1-3c1.5-1.5,4-1.5,5.5,0c0.8,0.9,1.1,1.9,1,3L80.9,93.6z M79.2,92
		c-0.1-0.9-0.9-1.5-1.8-1.5c-0.2,0-0.4,0-0.6,0.1s-0.4,0.2-0.5,0.3c-0.1,0.1-0.3,0.3-0.4,0.4c-0.1,0.2-0.2,0.4-0.2,0.6L79.2,92
		L79.2,92z"/>
	<path class="st3" d="M80.9,93.6h-5.6c0,0.5,0.2,1.2,0.6,1.6c0.6,0.6,1.7,0.8,2.5,0.2c0.4-0.3,0.8-0.8,1-1.2l1.6,0.9
		c-0.2,0.3-0.4,0.8-0.8,1c-0.2,0.3-0.5,0.5-0.9,0.8c-0.3,0.2-0.6,0.3-1,0.4c-0.3,0.1-0.8,0.1-1.1,0.1c-1.1,0-2.1-0.3-2.8-1.1
		c-0.6-0.9-1.1-1.9-1.1-3c-0.1-1.1,0.3-2.2,1-3c1.5-1.5,4-1.5,5.5,0c0.8,0.9,1.1,1.9,1,3L80.9,93.6z M79.2,92
		c-0.1-0.9-0.9-1.5-1.8-1.5c-0.2,0-0.4,0-0.6,0.1s-0.4,0.2-0.5,0.3c-0.1,0.1-0.3,0.3-0.4,0.4c-0.1,0.2-0.2,0.4-0.2,0.6L79.2,92
		L79.2,92z"/>
	<path class="st2" d="M88.9,101.5v-5.2c-1.3,1.4-3.5,1.5-4.9,0.2c-0.1-0.1-0.2-0.1-0.3-0.3c-0.8-0.9-1.1-1.8-1-3c0-1.1,0.3-2.2,1-3
		c0.6-0.8,1.6-1.2,2.7-1.2c1,0,1.8,0.4,2.5,1.1v-0.9h1.8v12.1L88.9,101.5z M84.4,93.1c0,0.6,0.2,1.3,0.6,1.8c0.3,0.4,1,0.8,1.6,0.8
		s1.2-0.2,1.6-0.8c0.9-1.1,0.9-2.6,0-3.7c-0.8-0.9-2.2-1-3-0.1l0,0l0,0l-0.1,0.1C84.7,91.8,84.5,92.5,84.4,93.1z"/>
	<path class="st3" d="M88.9,101.5v-5.2c-1.3,1.4-3.5,1.5-4.9,0.2c-0.1-0.1-0.2-0.1-0.3-0.3c-0.8-0.9-1.1-1.8-1-3c0-1.1,0.3-2.2,1-3
		c0.6-0.8,1.6-1.2,2.7-1.2c1,0,1.8,0.4,2.5,1.1v-0.9h1.8v12.1L88.9,101.5z M84.4,93.1c0,0.6,0.2,1.3,0.6,1.8c0.3,0.4,1,0.8,1.6,0.8
		s1.2-0.2,1.6-0.8c0.9-1.1,0.9-2.6,0-3.7c-0.8-0.9-2.2-1-3-0.1l0,0l0,0l-0.1,0.1C84.7,91.8,84.5,92.5,84.4,93.1z"/>
	<path class="st2" d="M94.9,89.2v4.5c0,1.3,0.4,1.9,1.6,1.9s1.6-0.6,1.6-1.9v-4.5h1.8v4.4c0,0.5-0.1,1.1-0.2,1.6
		c-0.2,0.4-0.4,0.8-0.8,1.1c-1.4,1.3-3.6,1.2-4.9-0.2c-0.2-0.3-0.4-0.5-0.6-1s-0.3-1.1-0.3-1.6v-4.4h1.7v0.1H94.9z"/>
	<path class="st3" d="M94.9,89.2v4.5c0,1.3,0.4,1.9,1.6,1.9s1.6-0.6,1.6-1.9v-4.5h1.8v4.4c0,0.5-0.1,1.1-0.2,1.6
		c-0.2,0.4-0.4,0.8-0.8,1.1c-1.4,1.3-3.6,1.2-4.9-0.2c-0.2-0.3-0.4-0.5-0.6-1s-0.3-1.1-0.3-1.6v-4.4h1.7v0.1H94.9z"/>
	<path class="st2" d="M109.3,93.6h-5.5c0,0.5,0.2,1.2,0.6,1.6c0.4,0.3,0.9,0.5,1.4,0.5c0.4,0,0.8-0.1,1.1-0.3c0.4-0.3,0.8-0.8,1-1.2
		l1.5,0.9c-0.2,0.3-0.4,0.8-0.8,1c-0.2,0.3-0.5,0.5-0.9,0.8c-0.3,0.2-0.6,0.3-1,0.4c-0.3,0.1-0.8,0.1-1.1,0.1
		c-1.1,0-2.1-0.3-2.8-1.1c-0.8-0.9-1.1-1.9-1-3c-0.1-1.1,0.3-2.2,1-3c1.5-1.5,4-1.5,5.5,0c0.8,0.9,1.1,1.9,1,3L109.3,93.6z
		 M107.5,92c-0.3-1-1.3-1.6-2.4-1.4l0,0c-0.2,0.1-0.4,0.2-0.5,0.3c-0.1,0.1-0.3,0.3-0.4,0.4c-0.1,0.2-0.2,0.4-0.2,0.6L107.5,92
		L107.5,92z"/>
	<path class="st3" d="M109.3,93.6h-5.5c0,0.5,0.2,1.2,0.6,1.6c0.4,0.3,0.9,0.5,1.4,0.5c0.4,0,0.8-0.1,1.1-0.3c0.4-0.3,0.8-0.8,1-1.2
		l1.5,0.9c-0.2,0.3-0.4,0.8-0.8,1c-0.2,0.3-0.5,0.5-0.9,0.8c-0.3,0.2-0.6,0.3-1,0.4c-0.3,0.1-0.8,0.1-1.1,0.1
		c-1.1,0-2.1-0.3-2.8-1.1c-0.8-0.9-1.1-1.9-1-3c-0.1-1.1,0.3-2.2,1-3c1.5-1.5,4-1.5,5.5,0c0.8,0.9,1.1,1.9,1,3L109.3,93.6z
		 M107.5,92c-0.3-1-1.3-1.6-2.4-1.4l0,0c-0.2,0.1-0.4,0.2-0.5,0.3c-0.1,0.1-0.3,0.3-0.4,0.4c-0.1,0.2-0.2,0.4-0.2,0.6L107.5,92
		L107.5,92z"/>
	<path class="st2" d="M115.9,90.5l-1.5,0.8c-0.2-0.4-0.5-0.8-0.9-0.8S113,90.7,113,91s0.3,0.6,1,0.9c0.8,0.2,1.4,0.6,1.9,1.2
		c0.3,0.4,0.5,0.9,0.4,1.4c0,0.8-0.3,1.4-0.9,1.8c-1.3,1.1-3.1,1-4.2-0.3c-0.2-0.2-0.4-0.5-0.5-0.9l1.6-0.8l0.4,0.8
		c0.2,0.2,0.5,0.3,0.8,0.3c0.6,0,1-0.3,1-0.9c0-0.3-0.2-0.6-0.8-1l-0.5-0.2l-0.5-0.2c-0.4-0.2-0.8-0.4-1.1-0.8
		c-0.3-0.3-0.4-0.8-0.4-1.3c0-0.6,0.2-1.3,0.8-1.7c0.4-0.4,1.1-0.8,1.7-0.6C114.7,88.9,115.6,89.6,115.9,90.5z"/>
	<path class="st3" d="M115.9,90.5l-1.5,0.8c-0.2-0.4-0.5-0.8-0.9-0.8S113,90.7,113,91s0.3,0.6,1,0.9c0.8,0.2,1.4,0.6,1.9,1.2
		c0.3,0.4,0.5,0.9,0.4,1.4c0,0.8-0.3,1.4-0.9,1.8c-1.3,1.1-3.1,1-4.2-0.3c-0.2-0.2-0.4-0.5-0.5-0.9l1.6-0.8l0.4,0.8
		c0.2,0.2,0.5,0.3,0.8,0.3c0.6,0,1-0.3,1-0.9c0-0.3-0.2-0.6-0.8-1l-0.5-0.2l-0.5-0.2c-0.4-0.2-0.8-0.4-1.1-0.8
		c-0.3-0.3-0.4-0.8-0.4-1.3c0-0.6,0.2-1.3,0.8-1.7c0.4-0.4,1.1-0.8,1.7-0.6C114.7,88.9,115.6,89.6,115.9,90.5z"/>
	<polygon class="st2" points="119.9,90.9 119.9,97 118.2,97 118.2,90.9 117.3,90.9 117.3,89.1 118.2,89.1 118.2,86.2 119.9,86.2 
		119.9,89.1 121.4,89.1 121.4,90.9 	"/>
	<polygon class="st3" points="119.9,90.9 119.9,97 118.2,97 118.2,90.9 117.3,90.9 117.3,89.1 118.2,89.1 118.2,86.2 119.9,86.2 
		119.9,89.1 121.4,89.1 121.4,90.9 	"/>
	<path class="st2" d="M46.7,108.7v2.5c-0.3-0.4-0.6-0.8-1.1-1c-0.3-0.2-0.8-0.3-1.1-0.3c-0.6,0-1.3,0.2-1.7,0.8
		c-0.4,0.4-0.8,1.1-0.8,1.8c0,0.6,0.2,1.3,0.6,1.8c0.4,0.4,1,0.8,1.6,0.8c0.4,0,0.9-0.1,1.2-0.3c0.4-0.3,0.9-0.6,1.1-1.1v2.4
		c-0.6,0.3-1.4,0.5-2.2,0.5c-1.1,0-2.3-0.4-3-1.2c-1.6-1.6-1.7-4.2-0.1-5.8c0.8-0.9,1.8-1.3,3-1.3h0.1
		C45.2,108.2,46,108.4,46.7,108.7z"/>
	<path class="st3" d="M46.7,108.7v2.5c-0.3-0.4-0.6-0.8-1.1-1c-0.3-0.2-0.8-0.3-1.1-0.3c-0.6,0-1.3,0.2-1.7,0.8
		c-0.4,0.4-0.8,1.1-0.8,1.8c0,0.6,0.2,1.3,0.6,1.8c0.4,0.4,1,0.8,1.6,0.8c0.4,0,0.9-0.1,1.2-0.3c0.4-0.3,0.9-0.6,1.1-1.1v2.4
		c-0.6,0.3-1.4,0.5-2.2,0.5c-1.1,0-2.3-0.4-3-1.2c-1.6-1.6-1.7-4.2-0.1-5.8c0.8-0.9,1.8-1.3,3-1.3h0.1
		C45.2,108.2,46,108.4,46.7,108.7z"/>
	<rect x="48.5" y="102.7" class="st2" width="1.8" height="13.6"/>
	<rect x="48.5" y="102.7" class="st3" width="1.8" height="13.6"/>
	<path class="st2" d="M59.8,112.8h-5.7c0,0.5,0.2,1.2,0.6,1.6c0.4,0.3,0.9,0.5,1.4,0.5c0.4,0,0.8-0.1,1.1-0.3c0.4-0.3,0.8-0.8,1-1.2
		l1.5,0.9c-0.2,0.3-0.4,0.6-0.8,1c-0.2,0.3-0.5,0.5-0.9,0.8c-0.3,0.2-0.6,0.3-1,0.4c-0.3,0.1-0.8,0.1-1.1,0.2
		c-1.1,0-2.1-0.3-2.8-1.1c-0.8-0.9-1.1-1.8-1.1-3c-0.1-1.1,0.3-2.2,1-3c1.5-1.5,4-1.5,5.5,0c0.8,0.9,1.1,1.9,1,3L59.8,112.8z
		 M58,111.4c-0.1-0.9-1-1.5-1.8-1.4c-0.2,0-0.4,0-0.6,0.1c-0.4,0.1-0.8,0.4-1,0.8c-0.1,0.2-0.2,0.4-0.2,0.6L58,111.4z"/>
	<path class="st3" d="M59.8,112.8h-5.7c0,0.5,0.2,1.2,0.6,1.6c0.4,0.3,0.9,0.5,1.4,0.5c0.4,0,0.8-0.1,1.1-0.3c0.4-0.3,0.8-0.8,1-1.2
		l1.5,0.9c-0.2,0.3-0.4,0.6-0.8,1c-0.2,0.3-0.5,0.5-0.9,0.8c-0.3,0.2-0.6,0.3-1,0.4c-0.3,0.1-0.8,0.1-1.1,0.2
		c-1.1,0-2.1-0.3-2.8-1.1c-0.8-0.9-1.1-1.8-1.1-3c-0.1-1.1,0.3-2.2,1-3c1.5-1.5,4-1.5,5.5,0c0.8,0.9,1.1,1.9,1,3L59.8,112.8z
		 M58,111.4c-0.1-0.9-1-1.5-1.8-1.4c-0.2,0-0.4,0-0.6,0.1c-0.4,0.1-0.8,0.4-1,0.8c-0.1,0.2-0.2,0.4-0.2,0.6L58,111.4z"/>
	<path class="st2" d="M67.6,108.5h1.8v7.9h-1.8v-0.8c-1.4,1.4-3.6,1.4-5,0.1c-0.1-0.1-0.2-0.1-0.2-0.2c-0.8-0.9-1.1-1.9-1-3
		c0-1.1,0.3-2.2,1-3c0.6-0.8,1.6-1.2,2.7-1.2c1,0,1.8,0.4,2.5,1.1V108.5z M63.3,112.4c0,0.6,0.2,1.3,0.6,1.8c0.4,0.4,1,0.8,1.6,0.8
		s1.2-0.2,1.6-0.8c0.9-1.1,0.9-2.6,0-3.7c-0.4-0.4-1-0.8-1.6-0.8s-1.2,0.2-1.6,0.8C63.5,111.1,63.3,111.7,63.3,112.4z"/>
	<path class="st3" d="M67.6,108.5h1.8v7.9h-1.8v-0.8c-1.4,1.4-3.6,1.4-5,0.1c-0.1-0.1-0.2-0.1-0.2-0.2c-0.8-0.9-1.1-1.9-1-3
		c0-1.1,0.3-2.2,1-3c0.6-0.8,1.6-1.2,2.7-1.2c1,0,1.8,0.4,2.5,1.1V108.5z M63.3,112.4c0,0.6,0.2,1.3,0.6,1.8c0.4,0.4,1,0.8,1.6,0.8
		s1.2-0.2,1.6-0.8c0.9-1.1,0.9-2.6,0-3.7c-0.4-0.4-1-0.8-1.6-0.8s-1.2,0.2-1.6,0.8C63.5,111.1,63.3,111.7,63.3,112.4z"/>
	<path class="st2" d="M71.7,108.5h1.8v0.8c0.2-0.3,0.5-0.5,0.9-0.8c0.3-0.2,0.6-0.2,1-0.2c0.5,0,1.1,0.2,1.5,0.4l-0.9,1.6
		c-0.3-0.2-0.6-0.3-1-0.4c-1,0-1.5,0.8-1.5,2.2v4.1h-1.7v-7.7H71.7z"/>
	<path class="st3" d="M71.7,108.5h1.8v0.8c0.2-0.3,0.5-0.5,0.9-0.8c0.3-0.2,0.6-0.2,1-0.2c0.5,0,1.1,0.2,1.5,0.4l-0.9,1.6
		c-0.3-0.2-0.6-0.3-1-0.4c-1,0-1.5,0.8-1.5,2.2v4.1h-1.7v-7.7H71.7z"/>
	<path class="st2" d="M83.7,108.5h1.8v7.9h-1.8v-0.8c-1.4,1.4-3.6,1.4-5,0.1c-0.1-0.1-0.2-0.1-0.2-0.2c-0.8-0.9-1.1-1.9-1.1-3
		s0.3-2.2,1.1-3c0.6-0.8,1.6-1.2,2.7-1.2c1,0,1.8,0.4,2.5,1.1V108.5z M79.3,112.4c0,0.6,0.2,1.3,0.6,1.8c0.4,0.4,1,0.8,1.6,0.8
		s1.2-0.2,1.6-0.8c0.9-1.1,0.9-2.6,0-3.7c-0.4-0.4-1-0.8-1.6-0.8s-1.2,0.2-1.6,0.8C79.5,111.1,79.3,111.7,79.3,112.4z"/>
	<path class="st3" d="M83.7,108.5h1.8v7.9h-1.8v-0.8c-1.4,1.4-3.6,1.4-5,0.1c-0.1-0.1-0.2-0.1-0.2-0.2c-0.8-0.9-1.1-1.9-1.1-3
		s0.3-2.2,1.1-3c0.6-0.8,1.6-1.2,2.7-1.2c1,0,1.8,0.4,2.5,1.1V108.5z M79.3,112.4c0,0.6,0.2,1.3,0.6,1.8c0.4,0.4,1,0.8,1.6,0.8
		s1.2-0.2,1.6-0.8c0.9-1.1,0.9-2.6,0-3.7c-0.4-0.4-1-0.8-1.6-0.8s-1.2,0.2-1.6,0.8C79.5,111.1,79.3,111.7,79.3,112.4z"/>
	<path class="st2" d="M87.8,108.5h1.8v0.8c0.5-0.6,1.3-1,2.2-1c0.8-0.1,1.6,0.2,2.2,0.9c0.4,0.6,0.8,1.5,0.6,2.4v4.8h-1.8V112
		c0.1-0.5-0.1-1.1-0.3-1.6c-0.3-0.3-0.8-0.5-1.2-0.4c-0.5-0.1-1.1,0.2-1.3,0.6c-0.3,0.6-0.4,1.3-0.4,2.1v3.8h-1.8L87.8,108.5z"/>
	<path class="st3" d="M87.8,108.5h1.8v0.8c0.5-0.6,1.3-1,2.2-1c0.8-0.1,1.6,0.2,2.2,0.9c0.4,0.6,0.8,1.5,0.6,2.4v4.8h-1.8V112
		c0.1-0.5-0.1-1.1-0.3-1.6c-0.3-0.3-0.8-0.5-1.2-0.4c-0.5-0.1-1.1,0.2-1.3,0.6c-0.3,0.6-0.4,1.3-0.4,2.1v3.8h-1.8L87.8,108.5z"/>
	<path class="st2" d="M102.9,108.7v2.5c-0.3-0.4-0.6-0.8-1.1-1c-0.3-0.2-0.8-0.3-1.2-0.3c-0.6,0-1.3,0.2-1.7,0.8
		c-0.4,0.4-0.8,1.1-0.8,1.8c0,0.6,0.2,1.3,0.6,1.8c0.4,0.4,1,0.8,1.6,0.8c0.4,0,0.9-0.1,1.2-0.3c0.4-0.3,0.9-0.6,1.1-1.1v2.4
		c-0.6,0.3-1.4,0.5-2.2,0.5c-1.1,0-2.3-0.4-3-1.2c-1.6-1.6-1.7-4.2-0.1-5.8c0.8-0.9,1.8-1.3,3-1.3h0.1
		C101.4,108.2,102.3,108.4,102.9,108.7z"/>
	<path class="st3" d="M102.9,108.7v2.5c-0.3-0.4-0.6-0.8-1.1-1c-0.3-0.2-0.8-0.3-1.2-0.3c-0.6,0-1.3,0.2-1.7,0.8
		c-0.4,0.4-0.8,1.1-0.8,1.8c0,0.6,0.2,1.3,0.6,1.8c0.4,0.4,1,0.8,1.6,0.8c0.4,0,0.9-0.1,1.2-0.3c0.4-0.3,0.9-0.6,1.1-1.1v2.4
		c-0.6,0.3-1.4,0.5-2.2,0.5c-1.1,0-2.3-0.4-3-1.2c-1.6-1.6-1.7-4.2-0.1-5.8c0.8-0.9,1.8-1.3,3-1.3h0.1
		C101.4,108.2,102.3,108.4,102.9,108.7z"/>
	<path class="st2" d="M111.9,112.8h-5.6c0,0.5,0.2,1.2,0.6,1.6c0.6,0.6,1.7,0.8,2.5,0.2c0.4-0.3,0.8-0.8,1-1.3l1.6,0.9
		c-0.2,0.3-0.4,0.8-0.8,1c-0.2,0.3-0.5,0.5-0.9,0.8c-0.3,0.2-0.6,0.3-1,0.4s-0.8,0.1-1.2,0.1c-1.1,0-2.1-0.3-2.8-1.1
		c-0.8-0.9-1.1-1.9-1.1-3c-0.2-2.1,1.3-4,3.4-4.2c1.2-0.1,2.4,0.3,3.1,1.2c0.8,0.9,1.1,1.9,1,3L111.9,112.8z M110.1,111.4
		c-0.1-0.9-1-1.5-1.8-1.4c-0.2,0-0.4,0-0.6,0.1s-0.4,0.2-0.5,0.3c-0.1,0.1-0.3,0.3-0.4,0.4c-0.1,0.2-0.2,0.4-0.2,0.6H110.1z"/>
	<path class="st3" d="M111.9,112.8h-5.6c0,0.5,0.2,1.2,0.6,1.6c0.6,0.6,1.7,0.8,2.5,0.2c0.4-0.3,0.8-0.8,1-1.3l1.6,0.9
		c-0.2,0.3-0.4,0.8-0.8,1c-0.2,0.3-0.5,0.5-0.9,0.8c-0.3,0.2-0.6,0.3-1,0.4s-0.8,0.1-1.2,0.1c-1.1,0-2.1-0.3-2.8-1.1
		c-0.8-0.9-1.1-1.9-1.1-3c-0.2-2.1,1.3-4,3.4-4.2c1.2-0.1,2.4,0.3,3.1,1.2c0.8,0.9,1.1,1.9,1,3L111.9,112.8z M110.1,111.4
		c-0.1-0.9-1-1.5-1.8-1.4c-0.2,0-0.4,0-0.6,0.1s-0.4,0.2-0.5,0.3c-0.1,0.1-0.3,0.3-0.4,0.4c-0.1,0.2-0.2,0.4-0.2,0.6H110.1z"/>
	<path class="st2" d="M44.5,122.2c0-0.3,0.1-0.5,0.3-0.8c0.4-0.4,1.2-0.4,1.6,0c0.2,0.2,0.3,0.5,0.3,0.9c0,0.6-0.5,1.2-1.2,1.2
		C44.9,123.4,44.5,122.9,44.5,122.2L44.5,122.2z M46.5,125.4v7.9h-1.8v-7.9H46.5z"/>
	<path class="st3" d="M44.5,122.2c0-0.3,0.1-0.5,0.3-0.8c0.4-0.4,1.2-0.4,1.6,0c0.2,0.2,0.3,0.5,0.3,0.9c0,0.6-0.5,1.2-1.2,1.2
		C44.9,123.4,44.5,122.9,44.5,122.2L44.5,122.2z M46.5,125.4v7.9h-1.8v-7.9H46.5z"/>
	<path class="st2" d="M48.9,125.4h1.8v0.8c0.5-0.6,1.3-1,2.2-1c0.8-0.1,1.6,0.2,2.2,0.9c0.4,0.6,0.8,1.5,0.6,2.4v4.8h-1.8V129
		c0.1-0.5,0-1.1-0.3-1.6c-0.3-0.3-0.8-0.5-1.2-0.4c-0.5-0.1-1.1,0.2-1.3,0.6c-0.3,0.6-0.4,1.3-0.4,2.1v3.8h-1.8V125.4z"/>
	<path class="st3" d="M48.9,125.4h1.8v0.8c0.5-0.6,1.3-1,2.2-1c0.8-0.1,1.6,0.2,2.2,0.9c0.4,0.6,0.8,1.5,0.6,2.4v4.8h-1.8V129
		c0.1-0.5,0-1.1-0.3-1.6c-0.3-0.3-0.8-0.5-1.2-0.4c-0.5-0.1-1.1,0.2-1.3,0.6c-0.3,0.6-0.4,1.3-0.4,2.1v3.8h-1.8V125.4z"/>
	<polygon class="st2" points="59.8,127.1 59.8,133.3 58,133.3 58,127.1 57.2,127.1 57.2,125.4 58,125.4 58,122.6 59.8,122.6 
		59.8,125.5 61.2,125.5 61.2,127.2 	"/>
	<polygon class="st3" points="59.8,127.1 59.8,133.3 58,133.3 58,127.1 57.2,127.1 57.2,125.4 58,125.4 58,122.6 59.8,122.6 
		59.8,125.5 61.2,125.5 61.2,127.2 	"/>
	<path class="st2" d="M62.2,129.4c0-1.1,0.4-2.2,1.2-2.9c1.7-1.6,4.3-1.6,6,0c1.6,1.6,1.6,4.2,0.1,5.8l-0.1,0.1
		c-1.7,1.6-4.3,1.6-6,0C62.7,131.6,62.2,130.5,62.2,129.4z M64.1,129.4c0,0.8,0.2,1.4,0.6,1.9c1,1,2.5,1,3.5,0
		c0.9-1.1,0.9-2.6,0-3.7c-1-1-2.4-1-3.4,0l0,0l0,0C64.4,128.1,64.2,128.7,64.1,129.4L64.1,129.4z"/>
	<path class="st3" d="M62.2,129.4c0-1.1,0.4-2.2,1.2-2.9c1.7-1.6,4.3-1.6,6,0c1.6,1.6,1.6,4.2,0.1,5.8l-0.1,0.1
		c-1.7,1.6-4.3,1.6-6,0C62.7,131.6,62.2,130.5,62.2,129.4z M64.1,129.4c0,0.8,0.2,1.4,0.6,1.9c1,1,2.5,1,3.5,0
		c0.9-1.1,0.9-2.6,0-3.7c-1-1-2.4-1-3.4,0l0,0l0,0C64.4,128.1,64.2,128.7,64.1,129.4L64.1,129.4z"/>
	<path class="st2" d="M79.5,137.6h-1.7v-12.1h1.7v0.9c0.6-0.8,1.5-1.1,2.5-1.1s2.1,0.4,2.7,1.2c0.8,0.9,1.1,1.9,1.1,3
		s-0.3,2.1-1,2.9c-0.6,0.8-1.6,1.2-2.7,1.2c-1,0-1.8-0.4-2.5-1.1L79.5,137.6L79.5,137.6z M83.8,129.5c0-0.6-0.2-1.3-0.6-1.8
		c-0.4-0.4-1-0.8-1.6-0.8s-1.2,0.2-1.6,0.8c-0.9,1.1-0.9,2.6,0,3.7c0.4,0.4,1,0.6,1.6,0.8c0.6,0,1.2-0.2,1.6-0.8
		C83.7,130.8,83.9,130.1,83.8,129.5L83.8,129.5z"/>
	<path class="st3" d="M79.5,137.6h-1.7v-12.1h1.7v0.9c0.6-0.8,1.5-1.1,2.5-1.1s2.1,0.4,2.7,1.2c0.8,0.9,1.1,1.9,1.1,3
		s-0.3,2.1-1,2.9c-0.6,0.8-1.6,1.2-2.7,1.2c-1,0-1.8-0.4-2.5-1.1L79.5,137.6L79.5,137.6z M83.8,129.5c0-0.6-0.2-1.3-0.6-1.8
		c-0.4-0.4-1-0.8-1.6-0.8s-1.2,0.2-1.6,0.8c-0.9,1.1-0.9,2.6,0,3.7c0.4,0.4,1,0.6,1.6,0.8c0.6,0,1.2-0.2,1.6-0.8
		C83.7,130.8,83.9,130.1,83.8,129.5L83.8,129.5z"/>
	<path class="st2" d="M87.2,129.4c0-1.1,0.4-2.2,1.2-2.9c1.7-1.6,4.3-1.6,6,0c1.6,1.6,1.6,4.2,0,5.8l0,0v0.1c-1.7,1.6-4.3,1.6-6,0
		C87.6,131.6,87.1,130.5,87.2,129.4z M89,129.4c0,0.6,0.2,1.4,0.6,1.8c0.9,1,2.4,1.1,3.4,0.2l0.1-0.1c0.9-1.1,0.9-2.6,0-3.7
		c-0.4-0.4-1.1-0.8-1.7-0.8s-1.2,0.2-1.6,0.8C89.3,128.1,89.1,128.7,89,129.4L89,129.4z"/>
	<path class="st3" d="M87.2,129.4c0-1.1,0.4-2.2,1.2-2.9c1.7-1.6,4.3-1.6,6,0c1.6,1.6,1.6,4.2,0,5.8l0,0v0.1c-1.7,1.6-4.3,1.6-6,0
		C87.6,131.6,87.1,130.5,87.2,129.4z M89,129.4c0,0.6,0.2,1.4,0.6,1.8c0.9,1,2.4,1.1,3.4,0.2l0.1-0.1c0.9-1.1,0.9-2.6,0-3.7
		c-0.4-0.4-1.1-0.8-1.7-0.8s-1.2,0.2-1.6,0.8C89.3,128.1,89.1,128.7,89,129.4L89,129.4z"/>
	<path class="st2" d="M97.5,125.4h1.8v0.8c0.2-0.3,0.5-0.5,0.9-0.8c0.3-0.2,0.6-0.2,1-0.1c0.5,0,1.1,0.1,1.5,0.4l-0.9,1.6
		c-0.3-0.2-0.6-0.3-1-0.4c-1,0-1.5,0.8-1.5,2.2v4.1h-1.8V125.4L97.5,125.4z"/>
	<path class="st3" d="M97.5,125.4h1.8v0.8c0.2-0.3,0.5-0.5,0.9-0.8c0.3-0.2,0.6-0.2,1-0.1c0.5,0,1.1,0.1,1.5,0.4l-0.9,1.6
		c-0.3-0.2-0.6-0.3-1-0.4c-1,0-1.5,0.8-1.5,2.2v4.1h-1.8V125.4L97.5,125.4z"/>
	<polygon class="st2" points="106.3,127.1 106.3,133.3 104.4,133.3 104.4,127.1 103.7,127.1 103.7,125.4 104.4,125.4 104.4,122.6 
		106.3,122.6 106.3,125.5 107.7,125.5 107.7,127.2 	"/>
	<polygon class="st3" points="106.3,127.1 106.3,133.3 104.4,133.3 104.4,127.1 103.7,127.1 103.7,125.4 104.4,125.4 104.4,122.6 
		106.3,122.6 106.3,125.5 107.7,125.5 107.7,127.2 	"/>
</g>
</svg>
