<?xml version="1.0" encoding="utf-8"?>
<!-- Generator: Adobe Illustrator 24.0.1, SVG Export Plug-In . SVG Version: 6.00 Build 0)  -->
<svg version="1.1" xmlns="http://www.w3.org/2000/svg" xmlns:xlink="http://www.w3.org/1999/xlink" x="0px" y="0px"
	 viewBox="0 0 147.8 147.8" style="enable-background:new 0 0 147.8 147.8;" xml:space="preserve">
<style type="text/css">
	.st0{fill:#FFCC00;}
	.st1{fill:none;stroke:#000000;stroke-width:3.75;stroke-linejoin:round;}
	.st2{fill:#FFFFFF;}
	.st3{fill:none;stroke:#000000;stroke-width:0.38;}
</style>
<g id="Layer_2">
	<title>Quebec</title>
	<rect x="1.9" y="1.9" class="st0" width="144" height="144"/>
	<path class="st1" d="M1.9,1.9h144v144H1.9V1.9z"/>
</g>
<g id="Layer_1">
	<path class="st2" d="M21.7,79l-1.4,0.9c-0.2-0.3-0.4-0.7-0.7-0.9c-0.3-0.1-0.6-0.2-0.9-0.2c-0.4,0-0.9,0.1-1.2,0.4
		c-0.3,0.2-0.5,0.6-0.4,1c0,0.6,0.4,1,1.2,1.4l1.2,0.5c0.8,0.3,1.5,0.7,2,1.4c0.4,0.6,0.7,1.3,0.7,2c0,1-0.4,1.9-1.1,2.6
		c-0.7,0.7-1.6,1.1-2.6,1c-0.9,0-1.8-0.3-2.5-0.9c-0.7-0.7-1.1-1.5-1.2-2.5l1.7-0.4c0,0.5,0.2,1,0.4,1.4c0.6,0.8,1.8,1,2.7,0.4
		c0,0,0,0,0,0l0.1-0.1c0.1,0,0.1-0.1,0.1-0.1c0.5-0.5,0.7-1.3,0.4-2c0-0.2-0.1-0.4-0.3-0.5c-0.2-0.2-0.3-0.3-0.5-0.4
		c-0.2-0.2-0.5-0.3-0.7-0.4l-1.1-0.4c-1.6-0.7-2.4-1.6-2.4-2.9c0-0.8,0.4-1.7,1-2.2c0.7-0.6,1.6-0.9,2.5-0.9
		C20.1,77.1,21.3,77.8,21.7,79z"/>
	<path class="st3" d="M21.7,79l-1.4,0.9c-0.2-0.3-0.4-0.7-0.7-0.9c-0.3-0.1-0.6-0.2-0.9-0.2c-0.4,0-0.9,0.1-1.2,0.4
		c-0.3,0.2-0.5,0.6-0.4,1c0,0.6,0.4,1,1.2,1.4l1.2,0.5c0.8,0.3,1.5,0.7,2,1.4c0.4,0.6,0.7,1.3,0.7,2c0,1-0.4,1.9-1.1,2.6
		c-0.7,0.7-1.6,1.1-2.6,1c-0.9,0-1.8-0.3-2.5-0.9c-0.7-0.7-1.1-1.5-1.2-2.5l1.7-0.4c0,0.5,0.2,1,0.4,1.4c0.6,0.8,1.8,1,2.7,0.4
		c0,0,0,0,0,0l0.1-0.1c0.1,0,0.1-0.1,0.1-0.1c0.5-0.5,0.7-1.3,0.4-2c0-0.2-0.1-0.4-0.3-0.5c-0.2-0.2-0.3-0.3-0.5-0.4
		c-0.2-0.2-0.5-0.3-0.7-0.4l-1.1-0.4c-1.6-0.7-2.4-1.6-2.4-2.9c0-0.8,0.4-1.7,1-2.2c0.7-0.6,1.6-0.9,2.5-0.9
		C20.1,77.1,21.3,77.8,21.7,79z"/>
	<path class="st2" d="M23.9,76.2h1.7v5.9c1.1-1.1,2.8-1.1,3.9,0c0.4,0.6,0.7,1.4,0.7,2.2v4.5h-1.7v-4.3c0-0.4-0.1-0.9-0.3-1.2
		c-0.3-0.3-0.6-0.4-1-0.4c-0.5-0.1-1,0.2-1.2,0.6c-0.3,0.6-0.4,1.2-0.4,1.9v3.4h-1.7V76.2z"/>
	<path class="st3" d="M23.9,76.2h1.7v5.9c1.1-1.1,2.8-1.1,3.9,0c0.4,0.6,0.7,1.4,0.7,2.2v4.5h-1.7v-4.3c0-0.4-0.1-0.9-0.3-1.2
		c-0.3-0.3-0.6-0.4-1-0.4c-0.5-0.1-1,0.2-1.2,0.6c-0.3,0.6-0.4,1.2-0.4,1.9v3.4h-1.7V76.2z"/>
	<path class="st2" d="M32,78.5c0-0.6,0.5-1.1,1.1-1.1c0.3,0,0.6,0.1,0.8,0.3c0.2,0.2,0.3,0.5,0.3,0.8c0,0.3-0.1,0.6-0.3,0.8
		c-0.2,0.2-0.5,0.3-0.8,0.3C32.5,79.6,32,79.1,32,78.5z M33.9,81.5v7.3h-1.7v-7.3H33.9z"/>
	<path class="st3" d="M32,78.5c0-0.6,0.5-1.1,1.1-1.1c0.3,0,0.6,0.1,0.8,0.3c0.2,0.2,0.3,0.5,0.3,0.8c0,0.3-0.1,0.6-0.3,0.8
		c-0.2,0.2-0.5,0.3-0.8,0.3C32.5,79.6,32,79.1,32,78.5z M33.9,81.5v7.3h-1.7v-7.3H33.9z"/>
	<path class="st2" d="M37.7,92.8H36V81.5h1.7v0.8c0.6-0.6,1.4-1,2.3-1c0.9,0,1.8,0.4,2.5,1.1c0.7,0.8,1,1.8,1,2.8c0,1-0.3,2-1,2.7
		c-1.2,1.3-3.2,1.5-4.5,0.3c0,0,0,0,0,0l-0.2-0.2V92.8z M41.7,85.2c0-0.6-0.2-1.2-0.6-1.7c-0.4-0.4-0.9-0.7-1.5-0.7
		c-0.6,0-1.1,0.2-1.5,0.7c-0.4,0.5-0.6,1.1-0.6,1.7c0,0.6,0.2,1.3,0.6,1.7c0.4,0.4,0.9,0.7,1.5,0.7c0.6,0,1.1-0.2,1.5-0.7
		C41.6,86.4,41.8,85.8,41.7,85.2z"/>
	<path class="st3" d="M37.7,92.8H36V81.5h1.7v0.8c0.6-0.6,1.4-1,2.3-1c0.9,0,1.8,0.4,2.5,1.1c0.7,0.8,1,1.8,1,2.8c0,1-0.3,2-1,2.7
		c-1.2,1.3-3.2,1.5-4.5,0.3c0,0,0,0,0,0l-0.2-0.2V92.8z M41.7,85.2c0-0.6-0.2-1.2-0.6-1.7c-0.4-0.4-0.9-0.7-1.5-0.7
		c-0.6,0-1.1,0.2-1.5,0.7c-0.4,0.5-0.6,1.1-0.6,1.7c0,0.6,0.2,1.3,0.6,1.7c0.4,0.4,0.9,0.7,1.5,0.7c0.6,0,1.1-0.2,1.5-0.7
		C41.6,86.4,41.8,85.8,41.7,85.2z"/>
	<path class="st2" d="M49.9,81.5h1.7v0.7c0.2-0.3,0.5-0.5,0.8-0.7c0.3-0.2,0.6-0.2,0.9-0.2c0.8,0,1.6,0.4,2,1.1
		c0.5-0.7,1.3-1.1,2.1-1.1c1.7,0,2.5,1,2.5,3v4.4h-1.7v-4c0-0.5-0.1-1-0.3-1.5c-0.2-0.3-0.5-0.5-0.9-0.4c-0.4,0-0.8,0.2-1,0.5
		c-0.2,0.5-0.3,1.1-0.3,1.7v3.7h-1.7v-4c0-1.3-0.4-2-1.1-2c-0.4,0-0.8,0.2-1,0.5c-0.2,0.5-0.3,1.1-0.3,1.7v3.8H50L49.9,81.5
		L49.9,81.5z"/>
	<path class="st3" d="M49.9,81.5h1.7v0.7c0.2-0.3,0.5-0.5,0.8-0.7c0.3-0.2,0.6-0.2,0.9-0.2c0.8,0,1.6,0.4,2,1.1
		c0.5-0.7,1.3-1.1,2.1-1.1c1.7,0,2.5,1,2.5,3v4.4h-1.7v-4c0-0.5-0.1-1-0.3-1.5c-0.2-0.3-0.5-0.5-0.9-0.4c-0.4,0-0.8,0.2-1,0.5
		c-0.2,0.5-0.3,1.1-0.3,1.7v3.7h-1.7v-4c0-1.3-0.4-2-1.1-2c-0.4,0-0.8,0.2-1,0.5c-0.2,0.5-0.3,1.1-0.3,1.7v3.8H50L49.9,81.5
		L49.9,81.5z"/>
	<path class="st2" d="M68.7,85.6h-5.2c0,0.5,0.2,1.1,0.5,1.5c0.6,0.6,1.6,0.7,2.3,0.2c0.4-0.3,0.7-0.7,0.9-1.1l1.5,0.8
		c-0.2,0.3-0.4,0.7-0.7,0.9c-0.2,0.3-0.4,0.5-0.7,0.6c-0.3,0.2-0.6,0.3-0.9,0.4c-0.3,0.1-0.7,0.1-1,0.1c-1,0-1.9-0.4-2.6-1.1
		c-0.7-0.8-1-1.8-1-2.8c-0.1-1,0.3-2,1-2.8c1.4-1.4,3.7-1.4,5.1,0c0.7,0.8,1,1.8,0.9,2.8L68.7,85.6z M66.9,84.1
		c-0.2-0.8-0.9-1.4-1.7-1.4c-0.2,0-0.4,0-0.6,0.1c-0.2,0.1-0.4,0.2-0.5,0.3c-0.1,0.1-0.3,0.3-0.4,0.4c-0.1,0.2-0.2,0.4-0.2,0.6
		L66.9,84.1z"/>
	<path class="st3" d="M68.7,85.6h-5.2c0,0.5,0.2,1.1,0.5,1.5c0.6,0.6,1.6,0.7,2.3,0.2c0.4-0.3,0.7-0.7,0.9-1.1l1.5,0.8
		c-0.2,0.3-0.4,0.7-0.7,0.9c-0.2,0.3-0.4,0.5-0.7,0.6c-0.3,0.2-0.6,0.3-0.9,0.4c-0.3,0.1-0.7,0.1-1,0.1c-1,0-1.9-0.4-2.6-1.1
		c-0.7-0.8-1-1.8-1-2.8c-0.1-1,0.3-2,1-2.8c1.4-1.4,3.7-1.4,5.1,0c0.7,0.8,1,1.8,0.9,2.8L68.7,85.6z M66.9,84.1
		c-0.2-0.8-0.9-1.4-1.7-1.4c-0.2,0-0.4,0-0.6,0.1c-0.2,0.1-0.4,0.2-0.5,0.3c-0.1,0.1-0.3,0.3-0.4,0.4c-0.1,0.2-0.2,0.4-0.2,0.6
		L66.9,84.1z"/>
	<path class="st2" d="M77.1,85.6h-5.2c0,0.5,0.2,1.1,0.6,1.5c0.3,0.3,0.8,0.5,1.3,0.5c0.4,0,0.7-0.1,1-0.3c0.4-0.3,0.7-0.7,0.9-1.2
		l1.5,0.8c-0.2,0.3-0.4,0.7-0.7,0.9c-0.2,0.3-0.5,0.5-0.8,0.7c-0.3,0.2-0.6,0.3-0.9,0.4c-0.3,0.1-0.7,0.1-1,0.1c-1,0-1.9-0.3-2.6-1
		c-0.7-0.8-1-1.8-1-2.8c-0.1-1,0.3-2,0.9-2.8c1.4-1.4,3.7-1.4,5.1,0c0.7,0.8,1,1.8,0.9,2.8V85.6z M75.4,84.1c-0.2-1-1.2-1.6-2.1-1.3
		c0,0-0.1,0-0.1,0c-0.2,0.1-0.4,0.2-0.5,0.3c-0.1,0.1-0.3,0.3-0.4,0.4c-0.1,0.2-0.2,0.4-0.2,0.6L75.4,84.1z"/>
	<path class="st3" d="M77.1,85.6h-5.2c0,0.5,0.2,1.1,0.6,1.5c0.3,0.3,0.8,0.5,1.3,0.5c0.4,0,0.7-0.1,1-0.3c0.4-0.3,0.7-0.7,0.9-1.2
		l1.5,0.8c-0.2,0.3-0.4,0.7-0.7,0.9c-0.2,0.3-0.5,0.5-0.8,0.7c-0.3,0.2-0.6,0.3-0.9,0.4c-0.3,0.1-0.7,0.1-1,0.1c-1,0-1.9-0.3-2.6-1
		c-0.7-0.8-1-1.8-1-2.8c-0.1-1,0.3-2,0.9-2.8c1.4-1.4,3.7-1.4,5.1,0c0.7,0.8,1,1.8,0.9,2.8V85.6z M75.4,84.1c-0.2-1-1.2-1.6-2.1-1.3
		c0,0-0.1,0-0.1,0c-0.2,0.1-0.4,0.2-0.5,0.3c-0.1,0.1-0.3,0.3-0.4,0.4c-0.1,0.2-0.2,0.4-0.2,0.6L75.4,84.1z"/>
	<polygon class="st2" points="80.8,83.1 80.8,88.8 79.1,88.8 79.1,83.1 78.4,83.1 78.4,81.5 79.1,81.5 79.1,78.8 80.8,78.8 
		80.8,81.5 82.1,81.5 82.1,83.1 	"/>
	<polygon class="st3" points="80.8,83.1 80.8,88.8 79.1,88.8 79.1,83.1 78.4,83.1 78.4,81.5 79.1,81.5 79.1,78.8 80.8,78.8 
		80.8,81.5 82.1,81.5 82.1,83.1 	"/>
	<path class="st2" d="M87.5,82.7l-1.4,0.7c-0.2-0.4-0.5-0.7-0.8-0.7c-0.1,0-0.3,0.1-0.4,0.1c-0.1,0.1-0.1,0.2-0.1,0.4
		c0,0.2,0.3,0.6,0.9,0.8c0.7,0.2,1.3,0.6,1.8,1.1c0.3,0.4,0.5,0.8,0.4,1.3c0,0.7-0.3,1.3-0.8,1.7c-0.5,0.5-1.1,0.7-1.8,0.7
		c-1.2,0-2.2-0.7-2.6-1.8l1.5-0.7l0.4,0.7c0.2,0.2,0.4,0.3,0.7,0.3c0.6,0,0.9-0.3,0.9-0.8c0-0.3-0.2-0.6-0.7-0.9l-0.5-0.2l-0.5-0.2
		c-0.4-0.2-0.7-0.4-1-0.7c-0.3-0.3-0.4-0.7-0.4-1.2c0-0.6,0.2-1.2,0.7-1.6c0.4-0.4,1-0.7,1.6-0.6C86.4,81.3,87.2,81.9,87.5,82.7z"/>
	<path class="st3" d="M87.5,82.7l-1.4,0.7c-0.2-0.4-0.5-0.7-0.8-0.7c-0.1,0-0.3,0.1-0.4,0.1c-0.1,0.1-0.1,0.2-0.1,0.4
		c0,0.2,0.3,0.6,0.9,0.8c0.7,0.2,1.3,0.6,1.8,1.1c0.3,0.4,0.5,0.8,0.4,1.3c0,0.7-0.3,1.3-0.8,1.7c-0.5,0.5-1.1,0.7-1.8,0.7
		c-1.2,0-2.2-0.7-2.6-1.8l1.5-0.7l0.4,0.7c0.2,0.2,0.4,0.3,0.7,0.3c0.6,0,0.9-0.3,0.9-0.8c0-0.3-0.2-0.6-0.7-0.9l-0.5-0.2l-0.5-0.2
		c-0.4-0.2-0.7-0.4-1-0.7c-0.3-0.3-0.4-0.7-0.4-1.2c0-0.6,0.2-1.2,0.7-1.6c0.4-0.4,1-0.7,1.6-0.6C86.4,81.3,87.2,81.9,87.5,82.7z"/>
	<path class="st2" d="M94.2,76.2h1.7v5.9c1.1-1.1,2.8-1.1,3.9,0c0.4,0.6,0.7,1.4,0.7,2.2v4.5h-1.7v-4.3c0-0.4-0.1-0.9-0.3-1.2
		c-0.3-0.3-0.6-0.4-1-0.4c-0.5-0.1-1,0.2-1.2,0.6c-0.3,0.6-0.4,1.2-0.4,1.9v3.4h-1.7V76.2z"/>
	<path class="st3" d="M94.2,76.2h1.7v5.9c1.1-1.1,2.8-1.1,3.9,0c0.4,0.6,0.7,1.4,0.7,2.2v4.5h-1.7v-4.3c0-0.4-0.1-0.9-0.3-1.2
		c-0.3-0.3-0.6-0.4-1-0.4c-0.5-0.1-1,0.2-1.2,0.6c-0.3,0.6-0.4,1.2-0.4,1.9v3.4h-1.7V76.2z"/>
	<path class="st2" d="M109.3,85.6H104c0,0.5,0.2,1.1,0.6,1.5c0.3,0.3,0.8,0.5,1.3,0.5c0.4,0,0.7-0.1,1-0.3c0.4-0.3,0.7-0.7,0.9-1.2
		l1.5,0.8c-0.2,0.3-0.4,0.7-0.7,0.9c-0.2,0.3-0.5,0.5-0.8,0.7c-0.3,0.2-0.6,0.3-0.9,0.4c-0.3,0.1-0.7,0.1-1,0.1c-1,0-1.9-0.3-2.6-1
		c-0.7-0.8-1-1.8-1-2.8c-0.1-1,0.3-2,0.9-2.8c1.4-1.4,3.7-1.4,5.1,0c0.7,0.8,1,1.8,0.9,2.8L109.3,85.6z M107.5,84.1
		c-0.2-0.8-0.8-1.4-1.6-1.4c-0.6,0-1.2,0.3-1.5,0.8c-0.1,0.2-0.2,0.4-0.2,0.6L107.5,84.1z"/>
	<path class="st3" d="M109.3,85.6H104c0,0.5,0.2,1.1,0.6,1.5c0.3,0.3,0.8,0.5,1.3,0.5c0.4,0,0.7-0.1,1-0.3c0.4-0.3,0.7-0.7,0.9-1.2
		l1.5,0.8c-0.2,0.3-0.4,0.7-0.7,0.9c-0.2,0.3-0.5,0.5-0.8,0.7c-0.3,0.2-0.6,0.3-0.9,0.4c-0.3,0.1-0.7,0.1-1,0.1c-1,0-1.9-0.3-2.6-1
		c-0.7-0.8-1-1.8-1-2.8c-0.1-1,0.3-2,0.9-2.8c1.4-1.4,3.7-1.4,5.1,0c0.7,0.8,1,1.8,0.9,2.8L109.3,85.6z M107.5,84.1
		c-0.2-0.8-0.8-1.4-1.6-1.4c-0.6,0-1.2,0.3-1.5,0.8c-0.1,0.2-0.2,0.4-0.2,0.6L107.5,84.1z"/>
	<path class="st2" d="M116.4,81.5h1.7v7.3h-1.7V88c-1.3,1.2-3.3,1.3-4.5,0.1V88c-0.1,0-0.1-0.1-0.1-0.2c-0.7-0.8-1-1.8-0.9-2.8
		c0-1,0.3-2,1-2.8c0.6-0.7,1.5-1.1,2.5-1.1c0.9,0,1.7,0.4,2.3,1L116.4,81.5z M112.4,85.2c0,0.6,0.2,1.2,0.6,1.7
		c0.4,0.4,0.9,0.7,1.5,0.7c0.6,0,1.1-0.2,1.5-0.7c0.8-1,0.8-2.4,0-3.4c-0.4-0.4-0.9-0.7-1.5-0.7c-0.6,0-1.1,0.2-1.5,0.7
		C112.6,83.9,112.4,84.5,112.4,85.2L112.4,85.2z"/>
	<path class="st3" d="M116.4,81.5h1.7v7.3h-1.7V88c-1.3,1.2-3.3,1.3-4.5,0.1V88c-0.1,0-0.1-0.1-0.1-0.2c-0.7-0.8-1-1.8-0.9-2.8
		c0-1,0.3-2,1-2.8c0.6-0.7,1.5-1.1,2.5-1.1c0.9,0,1.7,0.4,2.3,1L116.4,81.5z M112.4,85.2c0,0.6,0.2,1.2,0.6,1.7
		c0.4,0.4,0.9,0.7,1.5,0.7c0.6,0,1.1-0.2,1.5-0.7c0.8-1,0.8-2.4,0-3.4c-0.4-0.4-0.9-0.7-1.5-0.7c-0.6,0-1.1,0.2-1.5,0.7
		C112.6,83.9,112.4,84.5,112.4,85.2L112.4,85.2z"/>
	<rect x="120.2" y="76.2" class="st2" width="1.7" height="12.6"/>
	<rect x="120.2" y="76.2" class="st3" width="1.7" height="12.6"/>
	<polygon class="st2" points="125.8,83.1 125.8,88.8 124.1,88.8 124.1,83.1 123.4,83.1 123.4,81.5 124.1,81.5 124.1,78.8 
		125.8,78.8 125.8,81.5 127.1,81.5 127.1,83.1 	"/>
	<polygon class="st3" points="125.8,83.1 125.8,88.8 124.1,88.8 124.1,83.1 123.4,83.1 123.4,81.5 124.1,81.5 124.1,78.8 
		125.8,78.8 125.8,81.5 127.1,81.5 127.1,83.1 	"/>
	<path class="st2" d="M128.6,76.2h1.7v5.9c1.1-1.1,2.8-1.1,3.9,0c0.4,0.6,0.7,1.4,0.7,2.2v4.5h-1.7v-4.3c0-0.4-0.1-0.9-0.3-1.2
		c-0.3-0.3-0.6-0.4-1-0.4c-0.5-0.1-1,0.2-1.2,0.6c-0.3,0.6-0.4,1.2-0.4,1.9v3.5h-1.7L128.6,76.2L128.6,76.2z"/>
	<path class="st3" d="M128.6,76.2h1.7v5.9c1.1-1.1,2.8-1.1,3.9,0c0.4,0.6,0.7,1.4,0.7,2.2v4.5h-1.7v-4.3c0-0.4-0.1-0.9-0.3-1.2
		c-0.3-0.3-0.6-0.4-1-0.4c-0.5-0.1-1,0.2-1.2,0.6c-0.3,0.6-0.4,1.2-0.4,1.9v3.5h-1.7L128.6,76.2L128.6,76.2z"/>
	<path class="st2" d="M32.1,97.4h1.7V98c0.2-0.3,0.5-0.5,0.8-0.7c0.3-0.2,0.6-0.2,0.9-0.2c0.5,0,1,0.2,1.4,0.4L36,99.2
		c-0.3-0.2-0.6-0.4-0.9-0.4c-0.9,0-1.4,0.7-1.4,2v3.8H32L32.1,97.4z"/>
	<path class="st3" d="M32.1,97.4h1.7V98c0.2-0.3,0.5-0.5,0.8-0.7c0.3-0.2,0.6-0.2,0.9-0.2c0.5,0,1,0.2,1.4,0.4L36,99.2
		c-0.3-0.2-0.6-0.4-0.9-0.4c-0.9,0-1.4,0.7-1.4,2v3.8H32L32.1,97.4z"/>
	<path class="st2" d="M44.3,101.5h-5.2c0,0.5,0.2,1.1,0.6,1.5c0.6,0.6,1.6,0.7,2.3,0.2c0.4-0.3,0.7-0.7,0.9-1.1l1.4,0.8
		c-0.2,0.3-0.4,0.6-0.7,0.9c-0.2,0.3-0.5,0.5-0.8,0.7c-0.3,0.1-0.6,0.3-0.9,0.4c-0.3,0.1-0.7,0.1-1,0.1c-1,0-1.9-0.3-2.6-1
		c-0.7-0.8-1-1.8-1-2.8c-0.1-1,0.3-2,0.9-2.8c1.4-1.4,3.7-1.4,5.1,0c0.7,0.8,1,1.8,0.9,2.8L44.3,101.5z M42.6,100.1
		c-0.1-0.8-0.9-1.4-1.7-1.3c-0.2,0-0.4,0-0.6,0.1c-0.2,0.1-0.3,0.2-0.5,0.3c-0.1,0.1-0.3,0.3-0.4,0.4c-0.2,0.2-0.2,0.4-0.2,0.6
		L42.6,100.1z"/>
	<path class="st3" d="M44.3,101.5h-5.2c0,0.5,0.2,1.1,0.6,1.5c0.6,0.6,1.6,0.7,2.3,0.2c0.4-0.3,0.7-0.7,0.9-1.1l1.4,0.8
		c-0.2,0.3-0.4,0.6-0.7,0.9c-0.2,0.3-0.5,0.5-0.8,0.7c-0.3,0.1-0.6,0.3-0.9,0.4c-0.3,0.1-0.7,0.1-1,0.1c-1,0-1.9-0.3-2.6-1
		c-0.7-0.8-1-1.8-1-2.8c-0.1-1,0.3-2,0.9-2.8c1.4-1.4,3.7-1.4,5.1,0c0.7,0.8,1,1.8,0.9,2.8L44.3,101.5z M42.6,100.1
		c-0.1-0.8-0.9-1.4-1.7-1.3c-0.2,0-0.4,0-0.6,0.1c-0.2,0.1-0.3,0.2-0.5,0.3c-0.1,0.1-0.3,0.3-0.4,0.4c-0.2,0.2-0.2,0.4-0.2,0.6
		L42.6,100.1z"/>
	<path class="st2" d="M53.1,104.5v0.9c0,0.2-0.1,0.5-0.1,0.7c-0.1,0.5-0.4,1-0.7,1.4c-0.7,0.8-1.7,1.2-2.7,1.2
		c-0.9,0-1.7-0.2-2.4-0.8c-0.7-0.6-1.1-1.4-1.1-2.3h1.7c0,0.3,0.1,0.6,0.3,0.8c0.4,0.5,0.9,0.7,1.5,0.7c1.2,0,1.8-0.7,1.8-2.2v-1
		c-1.2,1.3-3.2,1.4-4.4,0.2c0,0,0,0,0,0l-0.1-0.1l-0.2-0.2c-0.7-0.7-1-1.7-0.9-2.7c0-1,0.3-1.9,0.9-2.7c0.6-0.8,1.5-1.3,2.6-1.3
		c0.9,0,1.7,0.4,2.3,1v-0.8h1.7V104.5z M51.5,101.1c0-0.6-0.2-1.2-0.6-1.7c-0.7-0.8-2-0.9-2.8-0.1c-0.1,0.1-0.1,0.1-0.2,0.2
		c-0.4,0.5-0.5,1.1-0.5,1.7c0,0.6,0.2,1.1,0.5,1.6c0.7,0.8,1.9,1,2.8,0.3c0.1-0.1,0.2-0.2,0.3-0.3C51.4,102.3,51.6,101.7,51.5,101.1
		L51.5,101.1z"/>
	<path class="st3" d="M53.1,104.5v0.9c0,0.2-0.1,0.5-0.1,0.7c-0.1,0.5-0.4,1-0.7,1.4c-0.7,0.8-1.7,1.2-2.7,1.2
		c-0.9,0-1.7-0.2-2.4-0.8c-0.7-0.6-1.1-1.4-1.1-2.3h1.7c0,0.3,0.1,0.6,0.3,0.8c0.4,0.5,0.9,0.7,1.5,0.7c1.2,0,1.8-0.7,1.8-2.2v-1
		c-1.2,1.3-3.2,1.4-4.4,0.2c0,0,0,0,0,0l-0.1-0.1l-0.2-0.2c-0.7-0.7-1-1.7-0.9-2.7c0-1,0.3-1.9,0.9-2.7c0.6-0.8,1.5-1.3,2.6-1.3
		c0.9,0,1.7,0.4,2.3,1v-0.8h1.7V104.5z M51.5,101.1c0-0.6-0.2-1.2-0.6-1.7c-0.7-0.8-2-0.9-2.8-0.1c-0.1,0.1-0.1,0.1-0.2,0.2
		c-0.4,0.5-0.5,1.1-0.5,1.7c0,0.6,0.2,1.1,0.5,1.6c0.7,0.8,1.9,1,2.8,0.3c0.1-0.1,0.2-0.2,0.3-0.3C51.4,102.3,51.6,101.7,51.5,101.1
		L51.5,101.1z"/>
	<path class="st2" d="M59.5,98.6l-1.4,0.7c-0.2-0.4-0.5-0.7-0.8-0.7c-0.1,0-0.3,0.1-0.4,0.1c-0.1,0.1-0.2,0.2-0.2,0.4
		c0,0.3,0.3,0.6,0.9,0.8c0.7,0.2,1.3,0.6,1.8,1.1c0.3,0.4,0.5,0.8,0.4,1.3c0,0.7-0.3,1.3-0.8,1.7c-1.2,1-2.9,0.9-3.9-0.3l0,0
		c-0.2-0.2-0.4-0.5-0.5-0.8l1.5-0.7l0.4,0.7c0.2,0.2,0.5,0.3,0.7,0.3c0.6,0,0.9-0.3,0.9-0.8c0-0.3-0.2-0.6-0.7-0.9l-0.5-0.2
		l-0.5-0.2c-0.4-0.2-0.7-0.4-1-0.7c-0.3-0.3-0.4-0.7-0.4-1.2c0-0.6,0.2-1.2,0.7-1.6c0.4-0.4,1-0.7,1.6-0.6
		C58.4,97.2,59.2,97.8,59.5,98.6z"/>
	<path class="st3" d="M59.5,98.6l-1.4,0.7c-0.2-0.4-0.5-0.7-0.8-0.7c-0.1,0-0.3,0.1-0.4,0.1c-0.1,0.1-0.2,0.2-0.2,0.4
		c0,0.3,0.3,0.6,0.9,0.8c0.7,0.2,1.3,0.6,1.8,1.1c0.3,0.4,0.5,0.8,0.4,1.3c0,0.7-0.3,1.3-0.8,1.7c-1.2,1-2.9,0.9-3.9-0.3l0,0
		c-0.2-0.2-0.4-0.5-0.5-0.8l1.5-0.7l0.4,0.7c0.2,0.2,0.5,0.3,0.7,0.3c0.6,0,0.9-0.3,0.9-0.8c0-0.3-0.2-0.6-0.7-0.9l-0.5-0.2
		l-0.5-0.2c-0.4-0.2-0.7-0.4-1-0.7c-0.3-0.3-0.4-0.7-0.4-1.2c0-0.6,0.2-1.2,0.7-1.6c0.4-0.4,1-0.7,1.6-0.6
		C58.4,97.2,59.2,97.8,59.5,98.6z"/>
	<path class="st2" d="M62.5,102.5l1.5,0.6l-2.1,4.2l-1.2-0.4L62.5,102.5z M62.1,98.2c0-0.5,0.4-1,0.9-1h0.1c0.6,0,1,0.4,1,1l0,0
		c0,0.5-0.5,1-1,1c-0.3,0-0.5-0.1-0.7-0.3C62.2,98.7,62.1,98.5,62.1,98.2L62.1,98.2z"/>
	<path class="st3" d="M62.5,102.5l1.5,0.6l-2.1,4.2l-1.2-0.4L62.5,102.5z M62.1,98.2c0-0.5,0.4-1,0.9-1h0.1c0.6,0,1,0.4,1,1l0,0
		c0,0.5-0.5,1-1,1c-0.3,0-0.5-0.1-0.7-0.3C62.2,98.7,62.1,98.5,62.1,98.2L62.1,98.2z"/>
	<path class="st2" d="M69.5,97.4h1.7V98c0.2-0.3,0.5-0.5,0.8-0.7c0.3-0.2,0.6-0.2,0.9-0.1c0.5,0,1,0.1,1.4,0.4l-0.8,1.5
		c-0.3-0.2-0.6-0.4-0.9-0.4c-0.9,0-1.4,0.7-1.4,2v3.8h-1.7L69.5,97.4L69.5,97.4z"/>
	<path class="st3" d="M69.5,97.4h1.7V98c0.2-0.3,0.5-0.5,0.8-0.7c0.3-0.2,0.6-0.2,0.9-0.1c0.5,0,1,0.1,1.4,0.4l-0.8,1.5
		c-0.3-0.2-0.6-0.4-0.9-0.4c-0.9,0-1.4,0.7-1.4,2v3.8h-1.7L69.5,97.4L69.5,97.4z"/>
	<path class="st2" d="M81.7,101.4h-5.2c0,0.5,0.2,1.1,0.6,1.5c0.6,0.6,1.6,0.7,2.3,0.2c0.4-0.3,0.7-0.7,0.9-1.1l1.5,0.8
		c-0.2,0.3-0.4,0.7-0.7,0.9c-0.2,0.3-0.5,0.5-0.8,0.7c-0.3,0.2-0.6,0.3-0.9,0.4c-0.3,0.1-0.7,0.1-1,0.1c-1,0-1.9-0.3-2.6-1
		c-0.6-0.8-1-1.8-1-2.8c-0.1-1,0.3-2,0.9-2.8c1.4-1.4,3.7-1.4,5.1,0c0.7,0.8,1,1.8,0.9,2.8L81.7,101.4z M80.1,100
		c-0.1-0.8-0.8-1.4-1.7-1.4c-0.2,0-0.4,0-0.6,0.1c-0.2,0.1-0.4,0.2-0.5,0.3c-0.1,0.1-0.3,0.3-0.4,0.4c-0.1,0.2-0.2,0.4-0.2,0.6
		L80.1,100z"/>
	<path class="st3" d="M81.7,101.4h-5.2c0,0.5,0.2,1.1,0.6,1.5c0.6,0.6,1.6,0.7,2.3,0.2c0.4-0.3,0.7-0.7,0.9-1.1l1.5,0.8
		c-0.2,0.3-0.4,0.7-0.7,0.9c-0.2,0.3-0.5,0.5-0.8,0.7c-0.3,0.2-0.6,0.3-0.9,0.4c-0.3,0.1-0.7,0.1-1,0.1c-1,0-1.9-0.3-2.6-1
		c-0.6-0.8-1-1.8-1-2.8c-0.1-1,0.3-2,0.9-2.8c1.4-1.4,3.7-1.4,5.1,0c0.7,0.8,1,1.8,0.9,2.8L81.7,101.4z M80.1,100
		c-0.1-0.8-0.8-1.4-1.7-1.4c-0.2,0-0.4,0-0.6,0.1c-0.2,0.1-0.4,0.2-0.5,0.3c-0.1,0.1-0.3,0.3-0.4,0.4c-0.1,0.2-0.2,0.4-0.2,0.6
		L80.1,100z"/>
	<path class="st2" d="M89,108.7v-4.8c-1.2,1.3-3.2,1.4-4.5,0.2c-0.1-0.1-0.2-0.1-0.3-0.3c-0.7-0.8-1-1.7-0.9-2.8c0-1,0.3-2,0.9-2.8
		c0.6-0.7,1.5-1.1,2.5-1.1c0.9,0,1.7,0.4,2.3,1v-0.8h1.7v11.2L89,108.7z M84.9,101c0,0.6,0.2,1.2,0.6,1.7c0.3,0.4,0.9,0.7,1.5,0.7
		c0.6,0,1.1-0.2,1.5-0.7c0.8-1,0.8-2.4,0-3.4c-0.7-0.8-2-0.9-2.8-0.1c0,0,0,0,0,0l0,0l-0.1,0.1C85.2,99.8,85,100.4,84.9,101z"/>
	<path class="st3" d="M89,108.7v-4.8c-1.2,1.3-3.2,1.4-4.5,0.2c-0.1-0.1-0.2-0.1-0.3-0.3c-0.7-0.8-1-1.7-0.9-2.8c0-1,0.3-2,0.9-2.8
		c0.6-0.7,1.5-1.1,2.5-1.1c0.9,0,1.7,0.4,2.3,1v-0.8h1.7v11.2L89,108.7z M84.9,101c0,0.6,0.2,1.2,0.6,1.7c0.3,0.4,0.9,0.7,1.5,0.7
		c0.6,0,1.1-0.2,1.5-0.7c0.8-1,0.8-2.4,0-3.4c-0.7-0.8-2-0.9-2.8-0.1c0,0,0,0,0,0l0,0l-0.1,0.1C85.2,99.8,85,100.4,84.9,101z"/>
	<path class="st2" d="M94.6,97.4v4.2c0,1.2,0.4,1.8,1.5,1.8s1.5-0.6,1.5-1.8v-4.2h1.7v4.1c0,0.5-0.1,1-0.2,1.5
		c-0.2,0.4-0.4,0.7-0.7,1c-1.3,1.2-3.3,1.1-4.5-0.2c-0.2-0.3-0.4-0.5-0.6-0.9c-0.2-0.5-0.3-1-0.3-1.5v-4.1H94.6z"/>
	<path class="st3" d="M94.6,97.4v4.2c0,1.2,0.4,1.8,1.5,1.8s1.5-0.6,1.5-1.8v-4.2h1.7v4.1c0,0.5-0.1,1-0.2,1.5
		c-0.2,0.4-0.4,0.7-0.7,1c-1.3,1.2-3.3,1.1-4.5-0.2c-0.2-0.3-0.4-0.5-0.6-0.9c-0.2-0.5-0.3-1-0.3-1.5v-4.1H94.6z"/>
	<path class="st2" d="M107.9,101.4h-5.1c0,0.5,0.2,1.1,0.6,1.5c0.4,0.3,0.8,0.5,1.3,0.5c0.4,0,0.7-0.1,1-0.3
		c0.4-0.3,0.7-0.7,0.9-1.1l1.4,0.8c-0.2,0.3-0.4,0.7-0.7,0.9c-0.2,0.3-0.5,0.5-0.8,0.7c-0.3,0.2-0.6,0.3-0.9,0.4
		c-0.3,0.1-0.7,0.1-1,0.1c-1,0-1.9-0.3-2.6-1c-0.7-0.8-1-1.8-0.9-2.8c-0.1-1,0.3-2,0.9-2.8c1.4-1.4,3.7-1.4,5.1,0
		c0.7,0.8,1,1.8,0.9,2.8L107.9,101.4z M106.2,100c-0.3-0.9-1.2-1.5-2.2-1.3l0,0c-0.2,0.1-0.4,0.2-0.5,0.3c-0.1,0.1-0.3,0.3-0.4,0.4
		c-0.1,0.2-0.2,0.4-0.2,0.6L106.2,100L106.2,100z"/>
	<path class="st3" d="M107.9,101.4h-5.1c0,0.5,0.2,1.1,0.6,1.5c0.4,0.3,0.8,0.5,1.3,0.5c0.4,0,0.7-0.1,1-0.3
		c0.4-0.3,0.7-0.7,0.9-1.1l1.4,0.8c-0.2,0.3-0.4,0.7-0.7,0.9c-0.2,0.3-0.5,0.5-0.8,0.7c-0.3,0.2-0.6,0.3-0.9,0.4
		c-0.3,0.1-0.7,0.1-1,0.1c-1,0-1.9-0.3-2.6-1c-0.7-0.8-1-1.8-0.9-2.8c-0.1-1,0.3-2,0.9-2.8c1.4-1.4,3.7-1.4,5.1,0
		c0.7,0.8,1,1.8,0.9,2.8L107.9,101.4z M106.2,100c-0.3-0.9-1.2-1.5-2.2-1.3l0,0c-0.2,0.1-0.4,0.2-0.5,0.3c-0.1,0.1-0.3,0.3-0.4,0.4
		c-0.1,0.2-0.2,0.4-0.2,0.6L106.2,100L106.2,100z"/>
	<path class="st2" d="M114,98.6l-1.4,0.7c-0.2-0.4-0.5-0.7-0.8-0.7c-0.3,0-0.5,0.2-0.5,0.5c0,0.3,0.3,0.6,0.9,0.8
		c0.7,0.2,1.3,0.6,1.8,1.1c0.3,0.4,0.5,0.8,0.4,1.3c0,0.7-0.3,1.3-0.8,1.7c-1.2,1-2.9,0.9-3.9-0.3c-0.2-0.2-0.4-0.5-0.5-0.8l1.5-0.7
		l0.4,0.7c0.2,0.2,0.5,0.3,0.7,0.3c0.6,0,0.9-0.3,0.9-0.8c0-0.3-0.2-0.6-0.7-0.9l-0.5-0.2l-0.5-0.2c-0.4-0.2-0.7-0.4-1-0.7
		c-0.3-0.3-0.4-0.7-0.4-1.2c0-0.6,0.2-1.2,0.7-1.6c0.4-0.4,1-0.7,1.6-0.6C112.9,97.1,113.7,97.7,114,98.6z"/>
	<path class="st3" d="M114,98.6l-1.4,0.7c-0.2-0.4-0.5-0.7-0.8-0.7c-0.3,0-0.5,0.2-0.5,0.5c0,0.3,0.3,0.6,0.9,0.8
		c0.7,0.2,1.3,0.6,1.8,1.1c0.3,0.4,0.5,0.8,0.4,1.3c0,0.7-0.3,1.3-0.8,1.7c-1.2,1-2.9,0.9-3.9-0.3c-0.2-0.2-0.4-0.5-0.5-0.8l1.5-0.7
		l0.4,0.7c0.2,0.2,0.5,0.3,0.7,0.3c0.6,0,0.9-0.3,0.9-0.8c0-0.3-0.2-0.6-0.7-0.9l-0.5-0.2l-0.5-0.2c-0.4-0.2-0.7-0.4-1-0.7
		c-0.3-0.3-0.4-0.7-0.4-1.2c0-0.6,0.2-1.2,0.7-1.6c0.4-0.4,1-0.7,1.6-0.6C112.9,97.1,113.7,97.7,114,98.6z"/>
	<polygon class="st2" points="117.7,98.9 117.7,104.6 116.1,104.6 116.1,98.9 115.3,98.9 115.3,97.3 116.1,97.3 116.1,94.6 
		117.7,94.6 117.7,97.3 119.1,97.3 119.1,98.9 	"/>
	<polygon class="st3" points="117.7,98.9 117.7,104.6 116.1,104.6 116.1,98.9 115.3,98.9 115.3,97.3 116.1,97.3 116.1,94.6 
		117.7,94.6 117.7,97.3 119.1,97.3 119.1,98.9 	"/>
	<path class="st2" d="M50.1,115.4v2.3c-0.3-0.4-0.6-0.7-1-0.9c-0.3-0.2-0.7-0.3-1-0.3c-0.6,0-1.2,0.2-1.6,0.7
		c-0.4,0.4-0.7,1-0.7,1.7c0,0.6,0.2,1.2,0.6,1.7c0.4,0.4,0.9,0.7,1.5,0.7c0.4,0,0.8-0.1,1.1-0.3c0.4-0.3,0.8-0.6,1-1v2.2
		c-0.6,0.3-1.3,0.5-2,0.5c-1,0-2.1-0.4-2.8-1.1c-1.5-1.5-1.6-3.9-0.1-5.4c0.7-0.8,1.7-1.2,2.8-1.2H48
		C48.7,114.9,49.4,115.1,50.1,115.4z"/>
	<path class="st3" d="M50.1,115.4v2.3c-0.3-0.4-0.6-0.7-1-0.9c-0.3-0.2-0.7-0.3-1-0.3c-0.6,0-1.2,0.2-1.6,0.7
		c-0.4,0.4-0.7,1-0.7,1.7c0,0.6,0.2,1.2,0.6,1.7c0.4,0.4,0.9,0.7,1.5,0.7c0.4,0,0.8-0.1,1.1-0.3c0.4-0.3,0.8-0.6,1-1v2.2
		c-0.6,0.3-1.3,0.5-2,0.5c-1,0-2.1-0.4-2.8-1.1c-1.5-1.5-1.6-3.9-0.1-5.4c0.7-0.8,1.7-1.2,2.8-1.2H48
		C48.7,114.9,49.4,115.1,50.1,115.4z"/>
	<rect x="51.7" y="109.8" class="st2" width="1.7" height="12.6"/>
	<rect x="51.7" y="109.8" class="st3" width="1.7" height="12.6"/>
	<path class="st2" d="M62.2,119.2h-5.3c0,0.5,0.2,1.1,0.6,1.5c0.4,0.3,0.8,0.5,1.3,0.5c0.4,0,0.7-0.1,1-0.3c0.4-0.3,0.7-0.7,0.9-1.1
		l1.4,0.8c-0.2,0.3-0.4,0.6-0.7,0.9c-0.2,0.3-0.5,0.5-0.8,0.7c-0.3,0.2-0.6,0.3-0.9,0.4c-0.3,0.1-0.7,0.1-1,0.2c-1,0-1.9-0.3-2.6-1
		c-0.7-0.8-1-1.7-1-2.8c-0.1-1,0.3-2,0.9-2.8c1.4-1.4,3.7-1.4,5.1,0c0.7,0.8,1,1.8,0.9,2.8L62.2,119.2z M60.5,117.9
		c-0.1-0.8-0.9-1.4-1.7-1.3c-0.2,0-0.4,0-0.6,0.1c-0.4,0.1-0.7,0.4-0.9,0.7c-0.1,0.2-0.2,0.4-0.2,0.6L60.5,117.9z"/>
	<path class="st3" d="M62.2,119.2h-5.3c0,0.5,0.2,1.1,0.6,1.5c0.4,0.3,0.8,0.5,1.3,0.5c0.4,0,0.7-0.1,1-0.3c0.4-0.3,0.7-0.7,0.9-1.1
		l1.4,0.8c-0.2,0.3-0.4,0.6-0.7,0.9c-0.2,0.3-0.5,0.5-0.8,0.7c-0.3,0.2-0.6,0.3-0.9,0.4c-0.3,0.1-0.7,0.1-1,0.2c-1,0-1.9-0.3-2.6-1
		c-0.7-0.8-1-1.7-1-2.8c-0.1-1,0.3-2,0.9-2.8c1.4-1.4,3.7-1.4,5.1,0c0.7,0.8,1,1.8,0.9,2.8L62.2,119.2z M60.5,117.9
		c-0.1-0.8-0.9-1.4-1.7-1.3c-0.2,0-0.4,0-0.6,0.1c-0.4,0.1-0.7,0.4-0.9,0.7c-0.1,0.2-0.2,0.4-0.2,0.6L60.5,117.9z"/>
	<path class="st2" d="M69.4,115.2h1.7v7.3h-1.7v-0.7c-1.3,1.3-3.3,1.3-4.6,0.1c-0.1-0.1-0.2-0.1-0.2-0.2c-0.7-0.8-1-1.8-0.9-2.8
		c0-1,0.3-2,0.9-2.8c0.6-0.7,1.5-1.1,2.5-1.1c0.9,0,1.7,0.4,2.3,1V115.2z M65.4,118.8c0,0.6,0.2,1.2,0.6,1.7
		c0.4,0.4,0.9,0.7,1.5,0.7c0.6,0,1.1-0.2,1.5-0.7c0.8-1,0.8-2.4,0-3.4c-0.4-0.4-0.9-0.7-1.5-0.7c-0.6,0-1.1,0.2-1.5,0.7
		C65.6,117.6,65.4,118.2,65.4,118.8z"/>
	<path class="st3" d="M69.4,115.2h1.7v7.3h-1.7v-0.7c-1.3,1.3-3.3,1.3-4.6,0.1c-0.1-0.1-0.2-0.1-0.2-0.2c-0.7-0.8-1-1.8-0.9-2.8
		c0-1,0.3-2,0.9-2.8c0.6-0.7,1.5-1.1,2.5-1.1c0.9,0,1.7,0.4,2.3,1V115.2z M65.4,118.8c0,0.6,0.2,1.2,0.6,1.7
		c0.4,0.4,0.9,0.7,1.5,0.7c0.6,0,1.1-0.2,1.5-0.7c0.8-1,0.8-2.4,0-3.4c-0.4-0.4-0.9-0.7-1.5-0.7c-0.6,0-1.1,0.2-1.5,0.7
		C65.6,117.6,65.4,118.2,65.4,118.8z"/>
	<path class="st2" d="M73.2,115.2h1.7v0.7c0.2-0.3,0.5-0.5,0.8-0.7c0.3-0.2,0.6-0.2,0.9-0.2c0.5,0,1,0.2,1.4,0.4l-0.8,1.5
		c-0.3-0.2-0.6-0.3-0.9-0.4c-0.9,0-1.4,0.7-1.4,2v3.8h-1.6V115.2z"/>
	<path class="st3" d="M73.2,115.2h1.7v0.7c0.2-0.3,0.5-0.5,0.8-0.7c0.3-0.2,0.6-0.2,0.9-0.2c0.5,0,1,0.2,1.4,0.4l-0.8,1.5
		c-0.3-0.2-0.6-0.3-0.9-0.4c-0.9,0-1.4,0.7-1.4,2v3.8h-1.6V115.2z"/>
	<path class="st2" d="M84.2,115.2h1.7v7.3h-1.7v-0.7c-1.3,1.3-3.3,1.3-4.6,0.1c-0.1-0.1-0.2-0.1-0.2-0.2c-0.7-0.8-1-1.8-1-2.8
		c0-1,0.3-2,1-2.8c0.6-0.7,1.5-1.1,2.5-1.1c0.9,0,1.7,0.4,2.3,1V115.2z M80.2,118.8c0,0.6,0.2,1.2,0.6,1.7c0.4,0.4,0.9,0.7,1.5,0.7
		c0.6,0,1.1-0.2,1.5-0.7c0.8-1,0.8-2.4,0-3.4c-0.4-0.4-0.9-0.7-1.5-0.7c-0.6,0-1.1,0.2-1.5,0.7C80.4,117.6,80.2,118.2,80.2,118.8z"
		/>
	<path class="st3" d="M84.2,115.2h1.7v7.3h-1.7v-0.7c-1.3,1.3-3.3,1.3-4.6,0.1c-0.1-0.1-0.2-0.1-0.2-0.2c-0.7-0.8-1-1.8-1-2.8
		c0-1,0.3-2,1-2.8c0.6-0.7,1.5-1.1,2.5-1.1c0.9,0,1.7,0.4,2.3,1V115.2z M80.2,118.8c0,0.6,0.2,1.2,0.6,1.7c0.4,0.4,0.9,0.7,1.5,0.7
		c0.6,0,1.1-0.2,1.5-0.7c0.8-1,0.8-2.4,0-3.4c-0.4-0.4-0.9-0.7-1.5-0.7c-0.6,0-1.1,0.2-1.5,0.7C80.4,117.6,80.2,118.2,80.2,118.8z"
		/>
	<path class="st2" d="M88,115.2h1.7v0.7c0.5-0.6,1.2-0.9,2-0.9c0.7-0.1,1.5,0.2,2,0.8c0.4,0.6,0.7,1.4,0.6,2.2v4.4h-1.7v-4.1
		c0.1-0.5-0.1-1-0.3-1.5c-0.3-0.3-0.7-0.5-1.1-0.4c-0.5-0.1-1,0.2-1.2,0.6c-0.3,0.6-0.4,1.2-0.4,1.9v3.5h-1.7L88,115.2z"/>
	<path class="st3" d="M88,115.2h1.7v0.7c0.5-0.6,1.2-0.9,2-0.9c0.7-0.1,1.5,0.2,2,0.8c0.4,0.6,0.7,1.4,0.6,2.2v4.4h-1.7v-4.1
		c0.1-0.5-0.1-1-0.3-1.5c-0.3-0.3-0.7-0.5-1.1-0.4c-0.5-0.1-1,0.2-1.2,0.6c-0.3,0.6-0.4,1.2-0.4,1.9v3.5h-1.7L88,115.2z"/>
	<path class="st2" d="M102,115.4v2.3c-0.3-0.4-0.6-0.7-1-0.9c-0.3-0.2-0.7-0.3-1.1-0.3c-0.6,0-1.2,0.2-1.6,0.7
		c-0.4,0.4-0.7,1-0.7,1.7c0,0.6,0.2,1.2,0.6,1.7c0.4,0.4,0.9,0.7,1.5,0.7c0.4,0,0.8-0.1,1.1-0.3c0.4-0.3,0.8-0.6,1-1v2.2
		c-0.6,0.3-1.3,0.5-2,0.5c-1,0-2.1-0.4-2.8-1.1c-1.5-1.5-1.6-3.9-0.1-5.4c0.7-0.8,1.7-1.2,2.8-1.2h0.1
		C100.6,114.9,101.4,115.1,102,115.4z"/>
	<path class="st3" d="M102,115.4v2.3c-0.3-0.4-0.6-0.7-1-0.9c-0.3-0.2-0.7-0.3-1.1-0.3c-0.6,0-1.2,0.2-1.6,0.7
		c-0.4,0.4-0.7,1-0.7,1.7c0,0.6,0.2,1.2,0.6,1.7c0.4,0.4,0.9,0.7,1.5,0.7c0.4,0,0.8-0.1,1.1-0.3c0.4-0.3,0.8-0.6,1-1v2.2
		c-0.6,0.3-1.3,0.5-2,0.5c-1,0-2.1-0.4-2.8-1.1c-1.5-1.5-1.6-3.9-0.1-5.4c0.7-0.8,1.7-1.2,2.8-1.2h0.1
		C100.6,114.9,101.4,115.1,102,115.4z"/>
	<path class="st2" d="M110.3,119.2h-5.2c0,0.5,0.2,1.1,0.6,1.5c0.6,0.6,1.6,0.7,2.3,0.2c0.4-0.3,0.7-0.7,0.9-1.2l1.5,0.8
		c-0.2,0.3-0.4,0.7-0.7,0.9c-0.2,0.3-0.5,0.5-0.8,0.7c-0.3,0.2-0.6,0.3-0.9,0.4c-0.4,0.1-0.7,0.1-1.1,0.1c-1,0-1.9-0.3-2.6-1
		c-0.7-0.8-1-1.8-1-2.8c-0.2-1.9,1.2-3.7,3.1-3.9c1.1-0.1,2.2,0.3,2.9,1.1c0.7,0.8,1,1.8,0.9,2.8L110.3,119.2z M108.6,117.9
		c-0.1-0.8-0.9-1.4-1.7-1.3c-0.2,0-0.4,0-0.6,0.1c-0.2,0.1-0.4,0.2-0.5,0.3c-0.1,0.1-0.3,0.3-0.4,0.4c-0.1,0.2-0.2,0.4-0.2,0.6
		L108.6,117.9z"/>
	<path class="st3" d="M110.3,119.2h-5.2c0,0.5,0.2,1.1,0.6,1.5c0.6,0.6,1.6,0.7,2.3,0.2c0.4-0.3,0.7-0.7,0.9-1.2l1.5,0.8
		c-0.2,0.3-0.4,0.7-0.7,0.9c-0.2,0.3-0.5,0.5-0.8,0.7c-0.3,0.2-0.6,0.3-0.9,0.4c-0.4,0.1-0.7,0.1-1.1,0.1c-1,0-1.9-0.3-2.6-1
		c-0.7-0.8-1-1.8-1-2.8c-0.2-1.9,1.2-3.7,3.1-3.9c1.1-0.1,2.2,0.3,2.9,1.1c0.7,0.8,1,1.8,0.9,2.8L110.3,119.2z M108.6,117.9
		c-0.1-0.8-0.9-1.4-1.7-1.3c-0.2,0-0.4,0-0.6,0.1c-0.2,0.1-0.4,0.2-0.5,0.3c-0.1,0.1-0.3,0.3-0.4,0.4c-0.1,0.2-0.2,0.4-0.2,0.6
		L108.6,117.9z"/>
	<path class="st2" d="M48,127.9c0-0.3,0.1-0.5,0.3-0.7c0.4-0.4,1.1-0.4,1.5,0c0.2,0.2,0.3,0.5,0.3,0.8c0,0.6-0.5,1.1-1.1,1.1
		C48.4,129,48,128.5,48,127.9L48,127.9z M49.9,130.8v7.3h-1.7v-7.3H49.9z"/>
	<path class="st3" d="M48,127.9c0-0.3,0.1-0.5,0.3-0.7c0.4-0.4,1.1-0.4,1.5,0c0.2,0.2,0.3,0.5,0.3,0.8c0,0.6-0.5,1.1-1.1,1.1
		C48.4,129,48,128.5,48,127.9L48,127.9z M49.9,130.8v7.3h-1.7v-7.3H49.9z"/>
	<path class="st2" d="M52.1,130.8h1.7v0.7c0.5-0.6,1.2-0.9,2-0.9c0.7-0.1,1.5,0.2,2,0.8c0.4,0.6,0.7,1.4,0.6,2.2v4.4h-1.7V134
		c0.1-0.5,0-1-0.3-1.5c-0.3-0.3-0.7-0.5-1.1-0.4c-0.5-0.1-1,0.2-1.2,0.6c-0.3,0.6-0.4,1.2-0.4,1.9v3.5H52L52.1,130.8z"/>
	<path class="st3" d="M52.1,130.8h1.7v0.7c0.5-0.6,1.2-0.9,2-0.9c0.7-0.1,1.5,0.2,2,0.8c0.4,0.6,0.7,1.4,0.6,2.2v4.4h-1.7V134
		c0.1-0.5,0-1-0.3-1.5c-0.3-0.3-0.7-0.5-1.1-0.4c-0.5-0.1-1,0.2-1.2,0.6c-0.3,0.6-0.4,1.2-0.4,1.9v3.5H52L52.1,130.8z"/>
	<polygon class="st2" points="62.2,132.4 62.2,138.1 60.5,138.1 60.5,132.4 59.8,132.4 59.8,130.8 60.5,130.8 60.5,128.2 
		62.2,128.2 62.2,130.9 63.5,130.9 63.5,132.5 	"/>
	<polygon class="st3" points="62.2,132.4 62.2,138.1 60.5,138.1 60.5,132.4 59.8,132.4 59.8,130.8 60.5,130.8 60.5,128.2 
		62.2,128.2 62.2,130.9 63.5,130.9 63.5,132.5 	"/>
	<path class="st2" d="M64.4,134.5c0-1,0.4-2,1.1-2.7c1.6-1.5,4-1.5,5.5,0c1.5,1.5,1.5,3.9,0.1,5.4c0,0-0.1,0.1-0.1,0.1
		c-1.6,1.5-4,1.5-5.5,0C64.8,136.5,64.4,135.5,64.4,134.5z M66.1,134.5c0,0.7,0.2,1.3,0.6,1.8c0.9,0.9,2.3,0.9,3.2,0
		c0.8-1,0.8-2.4,0-3.4c-0.9-0.9-2.2-0.9-3.1,0c0,0,0,0,0,0l0,0C66.4,133.3,66.2,133.9,66.1,134.5L66.1,134.5z"/>
	<path class="st3" d="M64.4,134.5c0-1,0.4-2,1.1-2.7c1.6-1.5,4-1.5,5.5,0c1.5,1.5,1.5,3.9,0.1,5.4c0,0-0.1,0.1-0.1,0.1
		c-1.6,1.5-4,1.5-5.5,0C64.8,136.5,64.4,135.5,64.4,134.5z M66.1,134.5c0,0.7,0.2,1.3,0.6,1.8c0.9,0.9,2.3,0.9,3.2,0
		c0.8-1,0.8-2.4,0-3.4c-0.9-0.9-2.2-0.9-3.1,0c0,0,0,0,0,0l0,0C66.4,133.3,66.2,133.9,66.1,134.5L66.1,134.5z"/>
	<path class="st2" d="M80.4,142.1h-1.6v-11.2h1.6v0.8c0.6-0.7,1.4-1,2.3-1c0.9,0,1.9,0.4,2.5,1.1c0.7,0.8,1,1.8,1,2.8
		c0,1-0.3,1.9-0.9,2.7c-0.6,0.7-1.5,1.1-2.5,1.1c-0.9,0-1.7-0.4-2.3-1L80.4,142.1L80.4,142.1z M84.3,134.6c0-0.6-0.2-1.2-0.6-1.7
		c-0.4-0.4-0.9-0.7-1.5-0.7c-0.6,0-1.1,0.2-1.5,0.7c-0.8,1-0.8,2.4,0,3.4c0.4,0.4,0.9,0.6,1.5,0.7c0.6,0,1.1-0.2,1.5-0.7
		C84.2,135.8,84.4,135.2,84.3,134.6L84.3,134.6z"/>
	<path class="st3" d="M80.4,142.1h-1.6v-11.2h1.6v0.8c0.6-0.7,1.4-1,2.3-1c0.9,0,1.9,0.4,2.5,1.1c0.7,0.8,1,1.8,1,2.8
		c0,1-0.3,1.9-0.9,2.7c-0.6,0.7-1.5,1.1-2.5,1.1c-0.9,0-1.7-0.4-2.3-1L80.4,142.1L80.4,142.1z M84.3,134.6c0-0.6-0.2-1.2-0.6-1.7
		c-0.4-0.4-0.9-0.7-1.5-0.7c-0.6,0-1.1,0.2-1.5,0.7c-0.8,1-0.8,2.4,0,3.4c0.4,0.4,0.9,0.6,1.5,0.7c0.6,0,1.1-0.2,1.5-0.7
		C84.2,135.8,84.4,135.2,84.3,134.6L84.3,134.6z"/>
	<path class="st2" d="M87.5,134.5c0-1,0.4-2,1.1-2.7c1.6-1.5,4-1.5,5.5,0c1.5,1.5,1.5,3.9,0,5.4c0,0,0,0,0,0v0.1
		c-1.6,1.5-4,1.5-5.5,0C87.8,136.5,87.4,135.5,87.5,134.5z M89.1,134.5c0,0.6,0.2,1.3,0.6,1.7c0.8,0.9,2.2,1,3.1,0.2l0.1-0.1
		c0.8-1,0.8-2.4,0-3.4c-0.4-0.4-1-0.7-1.6-0.7c-0.6,0-1.1,0.2-1.5,0.7C89.4,133.3,89.2,133.9,89.1,134.5L89.1,134.5z"/>
	<path class="st3" d="M87.5,134.5c0-1,0.4-2,1.1-2.7c1.6-1.5,4-1.5,5.5,0c1.5,1.5,1.5,3.9,0,5.4c0,0,0,0,0,0v0.1
		c-1.6,1.5-4,1.5-5.5,0C87.8,136.5,87.4,135.5,87.5,134.5z M89.1,134.5c0,0.6,0.2,1.3,0.6,1.7c0.8,0.9,2.2,1,3.1,0.2l0.1-0.1
		c0.8-1,0.8-2.4,0-3.4c-0.4-0.4-1-0.7-1.6-0.7c-0.6,0-1.1,0.2-1.5,0.7C89.4,133.3,89.2,133.9,89.1,134.5L89.1,134.5z"/>
	<path class="st2" d="M97,130.8h1.7v0.7c0.2-0.3,0.5-0.5,0.8-0.7c0.3-0.2,0.6-0.2,0.9-0.1c0.5,0,1,0.1,1.4,0.4l-0.8,1.5
		c-0.3-0.2-0.6-0.3-0.9-0.4c-0.9,0-1.4,0.7-1.4,2v3.8H97L97,130.8L97,130.8z"/>
	<path class="st3" d="M97,130.8h1.7v0.7c0.2-0.3,0.5-0.5,0.8-0.7c0.3-0.2,0.6-0.2,0.9-0.1c0.5,0,1,0.1,1.4,0.4l-0.8,1.5
		c-0.3-0.2-0.6-0.3-0.9-0.4c-0.9,0-1.4,0.7-1.4,2v3.8H97L97,130.8L97,130.8z"/>
	<polygon class="st2" points="105.1,132.4 105.1,138.1 103.4,138.1 103.4,132.4 102.7,132.4 102.7,130.8 103.4,130.8 103.4,128.2 
		105.1,128.2 105.1,130.9 106.4,130.9 106.4,132.5 	"/>
	<polygon class="st3" points="105.1,132.4 105.1,138.1 103.4,138.1 103.4,132.4 102.7,132.4 102.7,130.8 103.4,130.8 103.4,128.2 
		105.1,128.2 105.1,130.9 106.4,130.9 106.4,132.5 	"/>
</g>
</svg>
