<?xml version="1.0" encoding="utf-8"?>
<!-- Generator: Adobe Illustrator 24.0.1, SVG Export Plug-In . SVG Version: 6.00 Build 0)  -->
<svg version="1.1" xmlns="http://www.w3.org/2000/svg" xmlns:xlink="http://www.w3.org/1999/xlink" x="0px" y="0px"
	 viewBox="0 0 147.8 147.8" style="enable-background:new 0 0 147.8 147.8;" xml:space="preserve">
<style type="text/css">
	.st0{fill:#FF0000;}
	.st1{stroke:#FFCC00;stroke-width:36;}
	.st2{fill:none;stroke:#000000;stroke-width:3.75;stroke-linejoin:round;}
	.st3{fill:#FFFFFF;}
	.st4{fill:none;stroke:#000000;stroke-width:0.25;}
</style>
<g id="Layer_2">
	<title>Romeo</title>
	<rect x="1.9" y="1.9" class="st0" width="144" height="144"/>
	<path class="st1" d="M73.9,1.9v144 M1.9,73.9h144"/>
	<path class="st2" d="M1.9,1.9h144v144H1.9V1.9z"/>
</g>
<g id="Layer_1">
	<polygon class="st3" points="45.7,138.5 45.7,121.5 57.2,133.6 57.2,122.6 59.6,122.6 59.6,139.4 48.1,127.4 48.1,138.4 
		45.7,138.5 	"/>
	<polygon class="st4" points="45.7,138.5 45.7,121.5 57.2,133.6 57.2,122.6 59.6,122.6 59.6,139.4 48.1,127.4 48.1,138.4 
		45.7,138.5 	"/>
	<path class="st3" d="M62.7,133.4c0-1.4,0.6-2.8,1.6-3.7c2.1-2,5.5-2,7.6,0c2.1,2,2.1,5.4,0.1,7.4c0,0-0.1,0.1-0.1,0.1
		c-2.1,2-5.5,2-7.6,0C63.2,136.3,62.7,134.9,62.7,133.4z M65,133.4c0,0.9,0.2,1.7,0.8,2.4c1.2,1.2,3.1,1.2,4.2,0.1c0,0,0,0,0.1-0.1
		c1.1-1.4,1.1-3.3,0-4.7c-0.6-0.6-1.4-0.9-2.2-0.9c-0.8,0-1.6,0.3-2.1,0.9C65.3,131.8,65,132.6,65,133.4z"/>
	<path class="st4" d="M62.7,133.4c0-1.4,0.6-2.8,1.6-3.7c2.1-2,5.5-2,7.6,0c2.1,2,2.1,5.4,0.1,7.4c0,0-0.1,0.1-0.1,0.1
		c-2.1,2-5.5,2-7.6,0C63.2,136.3,62.7,134.9,62.7,133.4z M65,133.4c0,0.9,0.2,1.7,0.8,2.4c1.2,1.2,3.1,1.2,4.2,0.1c0,0,0,0,0.1-0.1
		c1.1-1.4,1.1-3.3,0-4.7c-0.6-0.6-1.4-0.9-2.2-0.9c-0.8,0-1.6,0.3-2.1,0.9C65.3,131.8,65,132.6,65,133.4z"/>
	<path class="st3" d="M75.8,128.5h2.3v0.9c0.7-0.8,1.7-1.2,2.7-1.2c1-0.1,2,0.3,2.7,1.1c0.6,0.9,0.9,1.9,0.8,3v6.2H82v-5.6
		c0.1-0.7-0.1-1.4-0.4-2c-0.4-0.4-0.9-0.6-1.5-0.6c-0.6-0.1-1.3,0.2-1.6,0.8c-0.4,0.8-0.5,1.7-0.5,2.6v4.8h-2.2L75.8,128.5z"/>
	<path class="st4" d="M75.8,128.5h2.3v0.9c0.7-0.8,1.7-1.2,2.7-1.2c1-0.1,2,0.3,2.7,1.1c0.6,0.9,0.9,1.9,0.8,3v6.2H82v-5.6
		c0.1-0.7-0.1-1.4-0.4-2c-0.4-0.4-0.9-0.6-1.5-0.6c-0.6-0.1-1.3,0.2-1.6,0.8c-0.4,0.8-0.5,1.7-0.5,2.6v4.8h-2.2L75.8,128.5z"/>
	<path class="st3" d="M96.4,134.1h-7.2c0,0.7,0.3,1.5,0.8,2c0.5,0.5,1.1,0.7,1.8,0.7c0.5,0,1-0.1,1.4-0.4c0.5-0.4,0.9-0.9,1.3-1.5
		l1.9,1.1c-0.3,0.5-0.6,0.9-1,1.3c-0.3,0.4-0.7,0.7-1.1,0.9c-0.4,0.2-0.8,0.4-1.2,0.5c-0.5,0.1-0.9,0.2-1.4,0.2
		c-1.3,0.1-2.6-0.5-3.6-1.4c-0.9-1.1-1.4-2.5-1.4-3.9c-0.1-1.4,0.4-2.8,1.3-3.8c2-1.9,5-1.9,7,0c0.9,1.1,1.4,2.5,1.3,3.9L96.4,134.1
		z M94,132.3c-0.2-1.1-1.2-1.9-2.3-1.8c-0.5,0-1.1,0.2-1.5,0.5c-0.2,0.2-0.4,0.4-0.5,0.6c-0.2,0.2-0.3,0.5-0.3,0.8L94,132.3z"/>
	<path class="st4" d="M96.4,134.1h-7.2c0,0.7,0.3,1.5,0.8,2c0.5,0.5,1.1,0.7,1.8,0.7c0.5,0,1-0.1,1.4-0.4c0.5-0.4,0.9-0.9,1.3-1.5
		l1.9,1.1c-0.3,0.5-0.6,0.9-1,1.3c-0.3,0.4-0.7,0.7-1.1,0.9c-0.4,0.2-0.8,0.4-1.2,0.5c-0.5,0.1-0.9,0.2-1.4,0.2
		c-1.3,0.1-2.6-0.5-3.6-1.4c-0.9-1.1-1.4-2.5-1.4-3.9c-0.1-1.4,0.4-2.8,1.3-3.8c2-1.9,5-1.9,7,0c0.9,1.1,1.4,2.5,1.3,3.9L96.4,134.1
		z M94,132.3c-0.2-1.1-1.2-1.9-2.3-1.8c-0.5,0-1.1,0.2-1.5,0.5c-0.2,0.2-0.4,0.4-0.5,0.6c-0.2,0.2-0.3,0.5-0.3,0.8L94,132.3z"/>
	<path class="st3" d="M99.2,137.3c0-0.7,0.6-1.4,1.3-1.4c0,0,0.1,0,0.1,0c0.8,0,1.4,0.6,1.4,1.3c0,0,0,0.1,0,0.1
		c0,0.4-0.2,0.7-0.4,1c-0.3,0.3-0.6,0.4-1,0.4c-0.4,0-0.7-0.1-1-0.4C99.4,138.1,99.3,137.7,99.2,137.3z"/>
	<path class="st4" d="M99.2,137.3c0-0.7,0.6-1.4,1.3-1.4c0,0,0.1,0,0.1,0c0.8,0,1.4,0.6,1.4,1.3c0,0,0,0.1,0,0.1
		c0,0.4-0.2,0.7-0.4,1c-0.3,0.3-0.6,0.4-1,0.4c-0.4,0-0.7-0.1-1-0.4C99.4,138.1,99.3,137.7,99.2,137.3z"/>
</g>
</svg>
