<?xml version="1.0" encoding="utf-8"?>
<!-- Generator: Adobe Illustrator 24.0.1, SVG Export Plug-In . SVG Version: 6.00 Build 0)  -->
<svg version="1.1" xmlns="http://www.w3.org/2000/svg" xmlns:xlink="http://www.w3.org/1999/xlink" x="0px" y="0px"
	 viewBox="0 0 147.8 147.8" style="enable-background:new 0 0 147.8 147.8;" xml:space="preserve">
<style type="text/css">
	.st0{fill:#FFFFFF;}
	.st1{fill:#000094;}
	.st2{fill:none;stroke:#000000;stroke-width:3.75;stroke-linejoin:round;}
	.st3{fill:none;stroke:#000000;stroke-width:0.5;}
</style>
<g id="Layer_2">
	<title>Sierra</title>
	<rect x="1.9" y="1.9" class="st0" width="144" height="144"/>
	<rect x="37.9" y="37.9" class="st1" width="72" height="72"/>
	<path class="st2" d="M1.9,1.9h144v144H1.9V1.9z"/>
</g>
<g id="Layer_1">
	<polygon class="st0" points="6.7,135.9 10,118.9 15.4,131.2 21,118.9 24,135.9 21.6,135.9 20.1,126.3 15.4,136.6 10.8,126.3 
		9.1,135.9 	"/>
	<polygon class="st3" points="6.7,135.9 10,118.9 15.4,131.2 21,118.9 24,135.9 21.6,135.9 20.1,126.3 15.4,136.6 10.8,126.3 
		9.1,135.9 	"/>
	<path class="st0" d="M26.5,130.8c0-1.4,0.6-2.8,1.6-3.7c2.1-2,5.5-2,7.6,0c2.1,2,2.1,5.3,0.1,7.4l-0.1,0.1c-2.1,2-5.5,2-7.6,0
		C27.1,133.7,26.5,132.3,26.5,130.8z M28.8,130.8c0,0.9,0.2,1.7,0.8,2.4c1.2,1.2,3.2,1.2,4.4,0c1.1-1.4,1.1-3.3,0-4.7
		c-1.2-1.2-3.1-1.2-4.2-0.1l-0.1,0.1C29.2,129.2,28.8,130,28.8,130.8z"/>
	<path class="st3" d="M26.5,130.8c0-1.4,0.6-2.8,1.6-3.7c2.1-2,5.5-2,7.6,0c2.1,2,2.1,5.3,0.1,7.4l-0.1,0.1c-2.1,2-5.5,2-7.6,0
		C27.1,133.7,26.5,132.3,26.5,130.8z M28.8,130.8c0,0.9,0.2,1.7,0.8,2.4c1.2,1.2,3.2,1.2,4.4,0c1.1-1.4,1.1-3.3,0-4.7
		c-1.2-1.2-3.1-1.2-4.2-0.1l-0.1,0.1C29.2,129.2,28.8,130,28.8,130.8z"/>
	<polygon class="st0" points="40.4,125.9 43,131.5 45.6,125.9 48.2,125.9 43,136.5 37.9,125.8 	"/>
	<polygon class="st3" points="40.4,125.9 43,131.5 45.6,125.9 48.2,125.9 43,136.5 37.9,125.8 	"/>
	<path class="st0" d="M49.4,121.7c0-0.8,0.7-1.5,1.5-1.5c0.4,0,0.7,0.1,1,0.4c0.3,0.3,0.5,0.7,0.4,1.1c0,0.4-0.2,0.8-0.4,1.1
		c-0.3,0.3-0.7,0.4-1.1,0.4c-0.4,0-0.8-0.2-1.1-0.4C49.5,122.5,49.4,122.1,49.4,121.7z M52,125.9v10h-2.3v-10L52,125.9z"/>
	<path class="st3" d="M49.4,121.7c0-0.8,0.7-1.5,1.5-1.5c0.4,0,0.7,0.1,1,0.4c0.3,0.3,0.5,0.7,0.4,1.1c0,0.4-0.2,0.8-0.4,1.1
		c-0.3,0.3-0.7,0.4-1.1,0.4c-0.4,0-0.8-0.2-1.1-0.4C49.5,122.5,49.4,122.1,49.4,121.7z M52,125.9v10h-2.3v-10L52,125.9z"/>
	<path class="st0" d="M54.9,125.9h2.4v0.9c0.7-0.8,1.7-1.2,2.7-1.2c1-0.1,2,0.3,2.7,1.1c0.6,0.9,0.9,1.9,0.8,3v6.2h-2.3v-5.6
		c0.1-0.7-0.1-1.4-0.4-2c-0.4-0.4-0.9-0.6-1.4-0.6c-0.6-0.1-1.3,0.2-1.6,0.8c-0.4,0.8-0.5,1.7-0.5,2.6v4.8H55L54.9,125.9z"/>
	<path class="st3" d="M54.9,125.9h2.4v0.9c0.7-0.8,1.7-1.2,2.7-1.2c1-0.1,2,0.3,2.7,1.1c0.6,0.9,0.9,1.9,0.8,3v6.2h-2.3v-5.6
		c0.1-0.7-0.1-1.4-0.4-2c-0.4-0.4-0.9-0.6-1.4-0.6c-0.6-0.1-1.3,0.2-1.6,0.8c-0.4,0.8-0.5,1.7-0.5,2.6v4.8H55L54.9,125.9z"/>
	<path class="st0" d="M76.1,135.6v1.2c0,0.3-0.1,0.7-0.1,1c-0.2,0.7-0.5,1.4-1,1.9c-0.9,1.1-2.3,1.6-3.7,1.6
		c-1.2,0.1-2.4-0.3-3.3-1.1c-0.9-0.8-1.5-1.9-1.5-3.1h2.3c0.1,0.4,0.2,0.8,0.4,1.1c0.5,0.6,1.3,1,2.1,0.9c1.7,0,2.5-1,2.5-3.1v-1.4
		c-0.8,0.9-2,1.4-3.2,1.4c-1.3,0-2.5-0.5-3.3-1.5c-0.9-1-1.4-2.3-1.3-3.7c0-1.3,0.4-2.6,1.2-3.7c1.5-1.9,4.3-2.1,6.2-0.6
		c0.2,0.1,0.3,0.3,0.4,0.4v-1.1h2.3V135.6z M73.9,130.9c0-0.8-0.2-1.7-0.8-2.3c-1-1.1-2.7-1.2-3.8-0.2c0,0,0,0,0,0
		c-0.1,0.1-0.2,0.2-0.3,0.3c-0.5,0.7-0.7,1.5-0.7,2.3c0,0.8,0.2,1.6,0.7,2.2c0.9,1.2,2.6,1.3,3.8,0.4c0.1-0.1,0.3-0.3,0.4-0.4
		C73.7,132.6,74,131.8,73.9,130.9L73.9,130.9z"/>
	<path class="st3" d="M76.1,135.6v1.2c0,0.3-0.1,0.7-0.1,1c-0.2,0.7-0.5,1.4-1,1.9c-0.9,1.1-2.3,1.6-3.7,1.6
		c-1.2,0.1-2.4-0.3-3.3-1.1c-0.9-0.8-1.5-1.9-1.5-3.1h2.3c0.1,0.4,0.2,0.8,0.4,1.1c0.5,0.6,1.3,1,2.1,0.9c1.7,0,2.5-1,2.5-3.1v-1.4
		c-0.8,0.9-2,1.4-3.2,1.4c-1.3,0-2.5-0.5-3.3-1.5c-0.9-1-1.4-2.3-1.3-3.7c0-1.3,0.4-2.6,1.2-3.7c1.5-1.9,4.3-2.1,6.2-0.6
		c0.2,0.1,0.3,0.3,0.4,0.4v-1.1h2.3V135.6z M73.9,130.9c0-0.8-0.2-1.7-0.8-2.3c-1-1.1-2.7-1.2-3.8-0.2c0,0,0,0,0,0
		c-0.1,0.1-0.2,0.2-0.3,0.3c-0.5,0.7-0.7,1.5-0.7,2.3c0,0.8,0.2,1.6,0.7,2.2c0.9,1.2,2.6,1.3,3.8,0.4c0.1-0.1,0.3-0.3,0.4-0.4
		C73.7,132.6,74,131.8,73.9,130.9L73.9,130.9z"/>
	<path class="st0" d="M92.9,125.9h2.3v10h-2.3v-1.1c-1.7,1.8-4.5,1.8-6.3,0.1c0,0,0,0,0,0l0,0c-0.1-0.1-0.2-0.2-0.2-0.3
		c-0.9-1.1-1.4-2.4-1.4-3.8c0-1.4,0.5-2.8,1.4-3.8c0.8-1,2.1-1.5,3.4-1.5c1.2,0,2.3,0.5,3.1,1.4L92.9,125.9z M87.4,130.9
		c0,0.8,0.2,1.7,0.8,2.3c0.5,0.6,1.2,0.9,2,0.9c0.8,0,1.6-0.3,2.1-0.9c1.1-1.3,1.1-3.3,0-4.6c-1-1.1-2.7-1.2-3.8-0.1h-0.1l-0.1,0.1
		C87.7,129.2,87.4,130.1,87.4,130.9z"/>
	<path class="st3" d="M92.9,125.9h2.3v10h-2.3v-1.1c-1.7,1.8-4.5,1.8-6.3,0.1c0,0,0,0,0,0l0,0c-0.1-0.1-0.2-0.2-0.2-0.3
		c-0.9-1.1-1.4-2.4-1.4-3.8c0-1.4,0.5-2.8,1.4-3.8c0.8-1,2.1-1.5,3.4-1.5c1.2,0,2.3,0.5,3.1,1.4L92.9,125.9z M87.4,130.9
		c0,0.8,0.2,1.7,0.8,2.3c0.5,0.6,1.2,0.9,2,0.9c0.8,0,1.6-0.3,2.1-0.9c1.1-1.3,1.1-3.3,0-4.6c-1-1.1-2.7-1.2-3.8-0.1h-0.1l-0.1,0.1
		C87.7,129.2,87.4,130.1,87.4,130.9z"/>
	<path class="st0" d="M103.9,127.6l-1.9,1c-0.3-0.6-0.7-0.9-1.1-0.9c-0.4,0-0.7,0.3-0.7,0.6c0,0,0,0,0,0l0,0c0,0.4,0.4,0.8,1.3,1.1
		c0.9,0.3,1.8,0.8,2.5,1.5c0.4,0.5,0.7,1.1,0.6,1.8c0,0.9-0.4,1.8-1.1,2.4c-1.6,1.4-4,1.2-5.4-0.4c0,0,0,0,0,0l0,0
		c-0.3-0.3-0.5-0.7-0.7-1.1l2-0.9l0.6,0.9c0.3,0.3,0.6,0.4,1,0.4c0.8,0,1.2-0.4,1.2-1.1c0-0.4-0.3-0.8-0.9-1.2l-0.7-0.3l-0.7-0.3
		c-0.5-0.2-1-0.6-1.4-1c-0.4-0.4-0.6-1-0.5-1.6c0-0.8,0.3-1.6,0.9-2.2c0.6-0.6,1.4-0.9,2.2-0.8C102.4,125.6,103.5,126.4,103.9,127.6
		z"/>
	<path class="st3" d="M103.9,127.6l-1.9,1c-0.3-0.6-0.7-0.9-1.1-0.9c-0.4,0-0.7,0.3-0.7,0.6c0,0,0,0,0,0l0,0c0,0.4,0.4,0.8,1.3,1.1
		c0.9,0.3,1.8,0.8,2.5,1.5c0.4,0.5,0.7,1.1,0.6,1.8c0,0.9-0.4,1.8-1.1,2.4c-1.6,1.4-4,1.2-5.4-0.4c0,0,0,0,0,0l0,0
		c-0.3-0.3-0.5-0.7-0.7-1.1l2-0.9l0.6,0.9c0.3,0.3,0.6,0.4,1,0.4c0.8,0,1.2-0.4,1.2-1.1c0-0.4-0.3-0.8-0.9-1.2l-0.7-0.3l-0.7-0.3
		c-0.5-0.2-1-0.6-1.4-1c-0.4-0.4-0.6-1-0.5-1.6c0-0.8,0.3-1.6,0.9-2.2c0.6-0.6,1.4-0.9,2.2-0.8C102.4,125.6,103.5,126.4,103.9,127.6
		z"/>
	<polygon class="st0" points="109,128 109,135.8 106.7,135.8 106.7,128 105.7,128 105.7,125.8 106.7,125.8 106.7,122.1 109,122.1 
		109,125.8 110.8,125.8 110.8,128 	"/>
	<polygon class="st3" points="109,128 109,135.8 106.7,135.8 106.7,128 105.7,128 105.7,125.8 106.7,125.8 106.7,122.1 109,122.1 
		109,125.8 110.8,125.8 110.8,128 	"/>
	<path class="st0" d="M121.6,131.5h-7.2c0,0.7,0.3,1.5,0.8,2c0.5,0.5,1.1,0.7,1.8,0.7c0.5,0,1-0.1,1.4-0.4c0.5-0.4,0.9-0.9,1.3-1.5
		l2,1.1c-0.3,0.5-0.6,0.9-1,1.3c-0.3,0.4-0.7,0.7-1.1,0.9c-0.4,0.2-0.8,0.4-1.2,0.5c-0.5,0.1-0.9,0.2-1.4,0.2
		c-1.3,0.1-2.6-0.4-3.6-1.4c-0.9-1.1-1.4-2.4-1.4-3.8c-0.1-1.4,0.4-2.8,1.3-3.8c1.9-1.9,5.1-1.9,7,0c0.9,1.1,1.4,2.5,1.3,3.9
		L121.6,131.5z M119.3,129.5c-0.2-1.1-1.2-1.9-2.3-1.8c-0.5,0-1.1,0.2-1.5,0.5c-0.2,0.2-0.4,0.4-0.5,0.6c-0.2,0.2-0.3,0.5-0.3,0.8
		L119.3,129.5z"/>
	<path class="st3" d="M121.6,131.5h-7.2c0,0.7,0.3,1.5,0.8,2c0.5,0.5,1.1,0.7,1.8,0.7c0.5,0,1-0.1,1.4-0.4c0.5-0.4,0.9-0.9,1.3-1.5
		l2,1.1c-0.3,0.5-0.6,0.9-1,1.3c-0.3,0.4-0.7,0.7-1.1,0.9c-0.4,0.2-0.8,0.4-1.2,0.5c-0.5,0.1-0.9,0.2-1.4,0.2
		c-1.3,0.1-2.6-0.4-3.6-1.4c-0.9-1.1-1.4-2.4-1.4-3.8c-0.1-1.4,0.4-2.8,1.3-3.8c1.9-1.9,5.1-1.9,7,0c0.9,1.1,1.4,2.5,1.3,3.9
		L121.6,131.5z M119.3,129.5c-0.2-1.1-1.2-1.9-2.3-1.8c-0.5,0-1.1,0.2-1.5,0.5c-0.2,0.2-0.4,0.4-0.5,0.6c-0.2,0.2-0.3,0.5-0.3,0.8
		L119.3,129.5z"/>
	<path class="st0" d="M124.2,125.9h2.3v0.9c0.3-0.4,0.7-0.7,1.1-0.9c0.4-0.2,0.8-0.3,1.2-0.2c0.7,0,1.3,0.2,1.9,0.6l-1,2.1
		c-0.4-0.3-0.8-0.4-1.3-0.5c-1.3,0-1.9,1-1.9,2.8v5.2h-2.3L124.2,125.9L124.2,125.9z"/>
	<path class="st3" d="M124.2,125.9h2.3v0.9c0.3-0.4,0.7-0.7,1.1-0.9c0.4-0.2,0.8-0.3,1.2-0.2c0.7,0,1.3,0.2,1.9,0.6l-1,2.1
		c-0.4-0.3-0.8-0.4-1.3-0.5c-1.3,0-1.9,1-1.9,2.8v5.2h-2.3L124.2,125.9L124.2,125.9z"/>
	<path class="st0" d="M132.3,125.9h2.3v0.9c0.7-0.8,1.7-1.2,2.7-1.2c1-0.1,2,0.3,2.7,1.1c0.6,0.9,0.9,1.9,0.8,3v6.2h-2.3v-5.6
		c0.1-0.7-0.1-1.4-0.4-2c-0.4-0.4-0.9-0.6-1.5-0.6c-0.6-0.1-1.3,0.2-1.6,0.8c-0.4,0.8-0.5,1.7-0.5,2.6v4.8h-2.3L132.3,125.9z"/>
	<path class="st3" d="M132.3,125.9h2.3v0.9c0.7-0.8,1.7-1.2,2.7-1.2c1-0.1,2,0.3,2.7,1.1c0.6,0.9,0.9,1.9,0.8,3v6.2h-2.3v-5.6
		c0.1-0.7-0.1-1.4-0.4-2c-0.4-0.4-0.9-0.6-1.5-0.6c-0.6-0.1-1.3,0.2-1.6,0.8c-0.4,0.8-0.5,1.7-0.5,2.6v4.8h-2.3L132.3,125.9z"/>
</g>
</svg>
