<?xml version="1.0" encoding="utf-8"?>
<!-- Generator: Adobe Illustrator 24.0.1, SVG Export Plug-In . SVG Version: 6.00 Build 0)  -->
<svg version="1.1" xmlns="http://www.w3.org/2000/svg" xmlns:xlink="http://www.w3.org/1999/xlink" x="0px" y="0px"
	 viewBox="0 0 147.8 147.8" style="enable-background:new 0 0 147.8 147.8;" xml:space="preserve">
<style type="text/css">
	.st0{fill:#000094;}
	.st1{fill:#FFFFFF;}
	.st2{fill:#FF0000;}
	.st3{fill:none;stroke:#000000;stroke-width:3.75;stroke-linejoin:round;}
	.st4{fill:none;stroke:#000000;stroke-width:0.5;}
</style>
<g id="Layer_2">
	<title>Tango</title>
	<rect x="1.9" y="1.9" class="st0" width="144" height="144"/>
	<rect x="1.9" y="1.9" class="st1" width="96" height="144"/>
	<rect x="1.9" y="1.9" class="st2" width="48" height="144"/>
	<path class="st3" d="M1.9,1.9h144v144H1.9V1.9z"/>
</g>
<g id="Layer_1">
	<polygon class="st1" points="27.8,89.2 33.3,83.6 36.2,83.6 29.7,90 36.2,97.8 33.3,97.8 28.2,91.5 27.8,92 27.8,97.8 25.6,97.8 
		25.6,83.6 27.8,83.6 	"/>
	<polygon class="st4" points="27.8,89.2 33.3,83.6 36.2,83.6 29.7,90 36.2,97.8 33.3,97.8 28.2,91.5 27.8,92 27.8,97.8 25.6,97.8 
		25.6,83.6 27.8,83.6 	"/>
	<path class="st1" d="M45.2,93.8h-6.4c0,0.7,0.3,1.3,0.7,1.8c0.4,0.4,1,0.7,1.6,0.6c0.4,0,0.9-0.1,1.2-0.4c0.5-0.4,0.8-0.9,1.1-1.4
		l1.7,1c-0.2,0.4-0.5,0.8-0.8,1.1c-0.3,0.3-0.6,0.6-1,0.8c-0.4,0.2-0.7,0.3-1.1,0.4c-0.4,0.1-0.8,0.2-1.2,0.2
		c-1.2,0.1-2.4-0.4-3.2-1.3c-0.8-0.9-1.3-2.1-1.3-3.4c-0.1-1.2,0.3-2.5,1.1-3.4c1.8-1.7,4.5-1.7,6.3,0c0.8,1,1.2,2.2,1.1,3.5
		L45.2,93.8z M43.2,92.2c-0.2-1-1-1.6-2-1.6c-0.2,0-0.5,0-0.7,0.1c-0.2,0.1-0.4,0.2-0.6,0.4c-0.2,0.2-0.3,0.3-0.5,0.5
		c-0.1,0.2-0.2,0.5-0.3,0.7L43.2,92.2z"/>
	<path class="st4" d="M45.2,93.8h-6.4c0,0.7,0.3,1.3,0.7,1.8c0.4,0.4,1,0.7,1.6,0.6c0.4,0,0.9-0.1,1.2-0.4c0.5-0.4,0.8-0.9,1.1-1.4
		l1.7,1c-0.2,0.4-0.5,0.8-0.8,1.1c-0.3,0.3-0.6,0.6-1,0.8c-0.4,0.2-0.7,0.3-1.1,0.4c-0.4,0.1-0.8,0.2-1.2,0.2
		c-1.2,0.1-2.4-0.4-3.2-1.3c-0.8-0.9-1.3-2.1-1.3-3.4c-0.1-1.2,0.3-2.5,1.1-3.4c1.8-1.7,4.5-1.7,6.3,0c0.8,1,1.2,2.2,1.1,3.5
		L45.2,93.8z M43.2,92.2c-0.2-1-1-1.6-2-1.6c-0.2,0-0.5,0-0.7,0.1c-0.2,0.1-0.4,0.2-0.6,0.4c-0.2,0.2-0.3,0.3-0.5,0.5
		c-0.1,0.2-0.2,0.5-0.3,0.7L43.2,92.2z"/>
	<path class="st1" d="M55.7,93.8h-6.4c0,0.7,0.3,1.3,0.7,1.8c0.4,0.4,1,0.7,1.6,0.6c0.4,0,0.9-0.1,1.3-0.4c0.4-0.4,0.8-0.8,1.1-1.3
		l1.7,1c-0.2,0.4-0.5,0.8-0.8,1.1c-0.3,0.3-0.6,0.6-1,0.8c-0.3,0.2-0.7,0.3-1.1,0.4C52.4,98,52,98,51.5,98.1
		c-1.2,0.1-2.4-0.4-3.2-1.2c-0.8-0.9-1.2-2.2-1.2-3.4C47,92.2,47.4,91,48.2,90c1.8-1.7,4.5-1.7,6.3,0c0.8,1,1.2,2.2,1.1,3.5
		L55.7,93.8z M53.5,92.2c-0.2-1-1.1-1.7-2.1-1.6c-0.2,0-0.5,0-0.7,0.1c-0.2,0.1-0.4,0.2-0.6,0.4c-0.2,0.2-0.3,0.3-0.5,0.5
		c-0.1,0.2-0.2,0.5-0.3,0.7L53.5,92.2z"/>
	<path class="st4" d="M55.7,93.8h-6.4c0,0.7,0.3,1.3,0.7,1.8c0.4,0.4,1,0.7,1.6,0.6c0.4,0,0.9-0.1,1.3-0.4c0.4-0.4,0.8-0.8,1.1-1.3
		l1.7,1c-0.2,0.4-0.5,0.8-0.8,1.1c-0.3,0.3-0.6,0.6-1,0.8c-0.3,0.2-0.7,0.3-1.1,0.4C52.4,98,52,98,51.5,98.1
		c-1.2,0.1-2.4-0.4-3.2-1.2c-0.8-0.9-1.2-2.2-1.2-3.4C47,92.2,47.4,91,48.2,90c1.8-1.7,4.5-1.7,6.3,0c0.8,1,1.2,2.2,1.1,3.5
		L55.7,93.8z M53.5,92.2c-0.2-1-1.1-1.7-2.1-1.6c-0.2,0-0.5,0-0.7,0.1c-0.2,0.1-0.4,0.2-0.6,0.4c-0.2,0.2-0.3,0.3-0.5,0.5
		c-0.1,0.2-0.2,0.5-0.3,0.7L53.5,92.2z"/>
	<path class="st1" d="M60,102.6h-2.1V88.9H60v1c0.7-0.8,1.7-1.2,2.8-1.2c1.2,0,2.3,0.5,3,1.3c0.8,1,1.2,2.2,1.3,3.4
		c0,1.2-0.4,2.4-1.1,3.3c-0.8,0.9-1.9,1.3-3,1.3c-1.1,0-2.1-0.4-2.8-1.3L60,102.6z M64.9,93.3c0-0.8-0.2-1.5-0.7-2.1
		c-0.4-0.5-1.1-0.8-1.8-0.8c-0.7,0-1.4,0.3-1.9,0.8c-1,1.2-1,2.9,0,4.1c0.5,0.5,1.2,0.8,1.9,0.8c0.7,0,1.4-0.3,1.8-0.8
		C64.6,94.8,64.9,94.1,64.9,93.3z"/>
	<path class="st4" d="M60,102.6h-2.1V88.9H60v1c0.7-0.8,1.7-1.2,2.8-1.2c1.2,0,2.3,0.5,3,1.3c0.8,1,1.2,2.2,1.3,3.4
		c0,1.2-0.4,2.4-1.1,3.3c-0.8,0.9-1.9,1.3-3,1.3c-1.1,0-2.1-0.4-2.8-1.3L60,102.6z M64.9,93.3c0-0.8-0.2-1.5-0.7-2.1
		c-0.4-0.5-1.1-0.8-1.8-0.8c-0.7,0-1.4,0.3-1.9,0.8c-1,1.2-1,2.9,0,4.1c0.5,0.5,1.2,0.8,1.9,0.8c0.7,0,1.4-0.3,1.8-0.8
		C64.6,94.8,64.9,94.1,64.9,93.3z"/>
	<path class="st1" d="M81.9,89.2V92c-0.4-0.4-0.8-0.8-1.3-1.1c-0.4-0.3-0.9-0.4-1.3-0.4c-0.7,0-1.4,0.3-2,0.8
		c-0.5,0.5-0.8,1.3-0.8,2c0,0.7,0.3,1.5,0.7,2.1c0.8,0.9,2.2,1.1,3.2,0.4c0.5-0.3,1-0.8,1.3-1.3v2.7c-0.8,0.4-1.6,0.6-2.5,0.6
		c-1.3,0-2.5-0.5-3.5-1.4c-0.9-0.8-1.5-2-1.5-3.3c0-1.3,0.5-2.5,1.4-3.4c0.9-0.9,2.2-1.4,3.5-1.3C80.1,88.5,81.1,88.8,81.9,89.2z"/>
	<path class="st4" d="M81.9,89.2V92c-0.4-0.4-0.8-0.8-1.3-1.1c-0.4-0.3-0.9-0.4-1.3-0.4c-0.7,0-1.4,0.3-2,0.8
		c-0.5,0.5-0.8,1.3-0.8,2c0,0.7,0.3,1.5,0.7,2.1c0.8,0.9,2.2,1.1,3.2,0.4c0.5-0.3,1-0.8,1.3-1.3v2.7c-0.8,0.4-1.6,0.6-2.5,0.6
		c-1.3,0-2.5-0.5-3.5-1.4c-0.9-0.8-1.5-2-1.5-3.3c0-1.3,0.5-2.5,1.4-3.4c0.9-0.9,2.2-1.4,3.5-1.3C80.1,88.5,81.1,88.8,81.9,89.2z"/>
	<rect x="83.9" y="82.2" class="st1" width="2.1" height="15.5"/>
	<rect x="83.9" y="82.2" class="st4" width="2.1" height="15.5"/>
	<path class="st1" d="M96.8,93.8h-6.4c0,0.7,0.3,1.3,0.7,1.8c0.8,0.8,2,0.9,2.9,0.3c0.4-0.4,0.8-0.8,1.1-1.3l1.8,1
		c-0.2,0.4-0.5,0.8-0.9,1.1c-0.3,0.3-0.6,0.6-1,0.8c-0.4,0.2-0.7,0.3-1.1,0.4C93.5,98,93,98,92.6,98.1c-1.2,0.1-2.4-0.4-3.2-1.2
		c-0.8-0.9-1.2-2.2-1.2-3.4C88,92.2,88.4,91,89.2,90c1.7-1.7,4.5-1.7,6.2,0c0.8,1,1.2,2.2,1.1,3.5L96.8,93.8z M94.6,92.1
		c-0.2-1-1.1-1.7-2.1-1.6c-0.2,0-0.5,0-0.7,0.1c-0.2,0.1-0.4,0.2-0.6,0.3c-0.2,0.2-0.3,0.3-0.5,0.5c-0.1,0.2-0.2,0.5-0.3,0.7
		L94.6,92.1z"/>
	<path class="st4" d="M96.8,93.8h-6.4c0,0.7,0.3,1.3,0.7,1.8c0.8,0.8,2,0.9,2.9,0.3c0.4-0.4,0.8-0.8,1.1-1.3l1.8,1
		c-0.2,0.4-0.5,0.8-0.9,1.1c-0.3,0.3-0.6,0.6-1,0.8c-0.4,0.2-0.7,0.3-1.1,0.4C93.5,98,93,98,92.6,98.1c-1.2,0.1-2.4-0.4-3.2-1.2
		c-0.8-0.9-1.2-2.2-1.2-3.4C88,92.2,88.4,91,89.2,90c1.7-1.7,4.5-1.7,6.2,0c0.8,1,1.2,2.2,1.1,3.5L96.8,93.8z M94.6,92.1
		c-0.2-1-1.1-1.7-2.1-1.6c-0.2,0-0.5,0-0.7,0.1c-0.2,0.1-0.4,0.2-0.6,0.3c-0.2,0.2-0.3,0.3-0.5,0.5c-0.1,0.2-0.2,0.5-0.3,0.7
		L94.6,92.1z"/>
	<path class="st1" d="M105.6,88.9h2.1v8.9h-2.1v-1c-1.5,1.6-4,1.7-5.6,0.2c0,0,0,0,0,0c0,0-0.1,0-0.1-0.1c-0.1-0.1-0.2-0.2-0.2-0.3
		c-0.8-0.9-1.2-2.2-1.1-3.4c0-1.2,0.4-2.4,1.1-3.4c0.8-0.9,1.9-1.4,3-1.3c1.1,0,2.1,0.5,2.8,1.2L105.6,88.9z M100.7,93.4
		c0,0.7,0.2,1.5,0.7,2c0.4,0.5,1.1,0.8,1.8,0.8c0.7,0,1.4-0.3,1.9-0.8c1-1.2,1-2.9,0-4.1c-0.9-0.9-2.4-1-3.4-0.1l0,0l-0.1,0.1
		C101.1,91.8,100.8,92.6,100.7,93.4L100.7,93.4z"/>
	<path class="st4" d="M105.6,88.9h2.1v8.9h-2.1v-1c-1.5,1.6-4,1.7-5.6,0.2c0,0,0,0,0,0c0,0-0.1,0-0.1-0.1c-0.1-0.1-0.2-0.2-0.2-0.3
		c-0.8-0.9-1.2-2.2-1.1-3.4c0-1.2,0.4-2.4,1.1-3.4c0.8-0.9,1.9-1.4,3-1.3c1.1,0,2.1,0.5,2.8,1.2L105.6,88.9z M100.7,93.4
		c0,0.7,0.2,1.5,0.7,2c0.4,0.5,1.1,0.8,1.8,0.8c0.7,0,1.4-0.3,1.9-0.8c1-1.2,1-2.9,0-4.1c-0.9-0.9-2.4-1-3.4-0.1l0,0l-0.1,0.1
		C101.1,91.8,100.8,92.6,100.7,93.4L100.7,93.4z"/>
	<path class="st1" d="M110.3,88.9h2.1v0.8c0.3-0.3,0.6-0.6,1-0.8c0.3-0.2,0.7-0.3,1.1-0.2c0.6,0,1.2,0.2,1.7,0.5l-0.9,1.9
		c-0.3-0.3-0.7-0.4-1.1-0.5c-1.1,0-1.7,0.8-1.7,2.5v4.6h-2.1L110.3,88.9z"/>
	<path class="st4" d="M110.3,88.9h2.1v0.8c0.3-0.3,0.6-0.6,1-0.8c0.3-0.2,0.7-0.3,1.1-0.2c0.6,0,1.2,0.2,1.7,0.5l-0.9,1.9
		c-0.3-0.3-0.7-0.4-1.1-0.5c-1.1,0-1.7,0.8-1.7,2.5v4.6h-2.1L110.3,88.9z"/>
	<path class="st1" d="M118.6,95.1l1.8,0.7l-2.6,5.2l-1.4-0.5L118.6,95.1z M118.2,89.8c0-0.7,0.5-1.2,1.2-1.2c0,0,0,0,0,0l0,0
		c0.3,0,0.6,0.2,0.9,0.4c0.2,0.2,0.4,0.6,0.4,0.9c0,0.7-0.5,1.2-1.1,1.3l0,0c-0.7,0-1.2-0.5-1.3-1.1L118.2,89.8L118.2,89.8z"/>
	<path class="st4" d="M118.6,95.1l1.8,0.7l-2.6,5.2l-1.4-0.5L118.6,95.1z M118.2,89.8c0-0.7,0.5-1.2,1.2-1.2c0,0,0,0,0,0l0,0
		c0.3,0,0.6,0.2,0.9,0.4c0.2,0.2,0.4,0.6,0.4,0.9c0,0.7-0.5,1.2-1.1,1.3l0,0c-0.7,0-1.2-0.5-1.3-1.1L118.2,89.8L118.2,89.8z"/>
	<path class="st1" d="M42.7,114.2h-6.4c0,0.7,0.3,1.3,0.7,1.8c0.4,0.4,1,0.7,1.6,0.6c0.4,0,0.9-0.1,1.2-0.4c0.4-0.4,0.8-0.8,1.1-1.3
		l1.7,1c-0.2,0.4-0.5,0.8-0.8,1.1c-0.3,0.3-0.6,0.6-1,0.8c-0.4,0.2-0.7,0.4-1.1,0.5c-0.4,0.1-0.8,0.2-1.2,0.2
		c-1.2,0.1-2.4-0.4-3.2-1.3c-0.8-0.9-1.2-2.2-1.1-3.4c-0.1-1.2,0.3-2.5,1.1-3.4c0.8-0.9,2-1.3,3.1-1.3c1.2-0.1,2.3,0.4,3.1,1.3
		c0.8,1,1.2,2.2,1.1,3.5L42.7,114.2z M40.5,112.5c-0.2-1-1.1-1.7-2.1-1.6c-0.5,0-1,0.2-1.3,0.5c-0.2,0.2-0.3,0.3-0.5,0.5
		c-0.2,0.2-0.3,0.5-0.3,0.7L40.5,112.5z"/>
	<path class="st4" d="M42.7,114.2h-6.4c0,0.7,0.3,1.3,0.7,1.8c0.4,0.4,1,0.7,1.6,0.6c0.4,0,0.9-0.1,1.2-0.4c0.4-0.4,0.8-0.8,1.1-1.3
		l1.7,1c-0.2,0.4-0.5,0.8-0.8,1.1c-0.3,0.3-0.6,0.6-1,0.8c-0.4,0.2-0.7,0.4-1.1,0.5c-0.4,0.1-0.8,0.2-1.2,0.2
		c-1.2,0.1-2.4-0.4-3.2-1.3c-0.8-0.9-1.2-2.2-1.1-3.4c-0.1-1.2,0.3-2.5,1.1-3.4c0.8-0.9,2-1.3,3.1-1.3c1.2-0.1,2.3,0.4,3.1,1.3
		c0.8,1,1.2,2.2,1.1,3.5L42.7,114.2z M40.5,112.5c-0.2-1-1.1-1.7-2.1-1.6c-0.5,0-1,0.2-1.3,0.5c-0.2,0.2-0.3,0.3-0.5,0.5
		c-0.2,0.2-0.3,0.5-0.3,0.7L40.5,112.5z"/>
	<path class="st1" d="M44.9,109.3H47v0.8c0.6-0.7,1.5-1.1,2.4-1.1c0.9-0.1,1.8,0.3,2.4,1c0.5,0.8,0.8,1.7,0.7,2.7v5.5h-2v-5
		c0.1-0.6-0.1-1.2-0.4-1.8c-0.4-0.4-0.8-0.6-1.3-0.5c-0.6-0.1-1.2,0.2-1.4,0.7c-0.3,0.7-0.5,1.5-0.5,2.3v4.3h-2V109.3z"/>
	<path class="st4" d="M44.9,109.3H47v0.8c0.6-0.7,1.5-1.1,2.4-1.1c0.9-0.1,1.8,0.3,2.4,1c0.5,0.8,0.8,1.7,0.7,2.7v5.5h-2v-5
		c0.1-0.6-0.1-1.2-0.4-1.8c-0.4-0.4-0.8-0.6-1.3-0.5c-0.6-0.1-1.2,0.2-1.4,0.7c-0.3,0.7-0.5,1.5-0.5,2.3v4.3h-2V109.3z"/>
	<path class="st1" d="M63.9,117.9c0,0.4,0,0.8-0.1,1.1c0,0.3-0.1,0.6-0.1,0.9c-0.1,0.6-0.5,1.2-0.9,1.7c-0.8,0.9-2,1.5-3.2,1.4
		c-1,0-2-0.3-2.9-1c-0.8-0.7-1.3-1.7-1.3-2.8h2.1c0.1,0.3,0.2,0.7,0.4,1c0.5,0.6,1.2,0.9,1.9,0.8c1.5,0,2.3-0.9,2.3-2.8v-1.3
		c-1.4,1.6-3.9,1.7-5.5,0.3c0,0-0.1,0-0.1-0.1l-0.3-0.3c-0.8-0.9-1.2-2.1-1.1-3.3c0-1.2,0.4-2.3,1.1-3.3c1.4-1.7,3.8-1.9,5.5-0.6
		c0,0,0,0,0,0l0.4,0.4v-1.1H64L63.9,117.9z M61.8,113.8c0-0.8-0.2-1.5-0.7-2.1c-0.9-1-2.4-1.1-3.4-0.2l-0.3,0.3
		c-0.4,0.6-0.6,1.3-0.6,2.1c0,0.7,0.2,1.4,0.6,2c0.8,1,2.4,1.2,3.4,0.4c0,0,0,0,0,0c0.1-0.1,0.2-0.2,0.4-0.4
		C61.7,115.3,61.9,114.5,61.8,113.8z"/>
	<path class="st4" d="M63.9,117.9c0,0.4,0,0.8-0.1,1.1c0,0.3-0.1,0.6-0.1,0.9c-0.1,0.6-0.5,1.2-0.9,1.7c-0.8,0.9-2,1.5-3.2,1.4
		c-1,0-2-0.3-2.9-1c-0.8-0.7-1.3-1.7-1.3-2.8h2.1c0.1,0.3,0.2,0.7,0.4,1c0.5,0.6,1.2,0.9,1.9,0.8c1.5,0,2.3-0.9,2.3-2.8v-1.3
		c-1.4,1.6-3.9,1.7-5.5,0.3c0,0-0.1,0-0.1-0.1l-0.3-0.3c-0.8-0.9-1.2-2.1-1.1-3.3c0-1.2,0.4-2.3,1.1-3.3c1.4-1.7,3.8-1.9,5.5-0.6
		c0,0,0,0,0,0l0.4,0.4v-1.1H64L63.9,117.9z M61.8,113.8c0-0.8-0.2-1.5-0.7-2.1c-0.9-1-2.4-1.1-3.4-0.2l-0.3,0.3
		c-0.4,0.6-0.6,1.3-0.6,2.1c0,0.7,0.2,1.4,0.6,2c0.8,1,2.4,1.2,3.4,0.4c0,0,0,0,0,0c0.1-0.1,0.2-0.2,0.4-0.4
		C61.7,115.3,61.9,114.5,61.8,113.8z"/>
	<path class="st1" d="M73,109.3h2.1v8.9H73v-0.9c-1.5,1.6-4,1.7-5.6,0.2c0,0,0,0-0.1-0.1l0,0c-0.1-0.1-0.2-0.2-0.2-0.3
		c-0.8-0.9-1.2-2.2-1.1-3.4c-0.1-1.2,0.3-2.5,1.1-3.4c0.8-0.9,1.9-1.4,3.1-1.4c1.1,0,2.1,0.5,2.8,1.3L73,109.3z M68.2,113.8
		c0,0.8,0.2,1.5,0.7,2.1c0.4,0.5,1.1,0.8,1.8,0.8c0.7,0,1.4-0.3,1.9-0.8c1-1.2,1-2.9,0-4.1c-0.9-1-2.4-1.1-3.4-0.2c0,0,0,0,0,0
		c-0.1,0.1-0.1,0.1-0.2,0.2C68.4,112.3,68.1,113,68.2,113.8L68.2,113.8z"/>
	<path class="st4" d="M73,109.3h2.1v8.9H73v-0.9c-1.5,1.6-4,1.7-5.6,0.2c0,0,0,0-0.1-0.1l0,0c-0.1-0.1-0.2-0.2-0.2-0.3
		c-0.8-0.9-1.2-2.2-1.1-3.4c-0.1-1.2,0.3-2.5,1.1-3.4c0.8-0.9,1.9-1.4,3.1-1.4c1.1,0,2.1,0.5,2.8,1.3L73,109.3z M68.2,113.8
		c0,0.8,0.2,1.5,0.7,2.1c0.4,0.5,1.1,0.8,1.8,0.8c0.7,0,1.4-0.3,1.9-0.8c1-1.2,1-2.9,0-4.1c-0.9-1-2.4-1.1-3.4-0.2c0,0,0,0,0,0
		c-0.1,0.1-0.1,0.1-0.2,0.2C68.4,112.3,68.1,113,68.2,113.8L68.2,113.8z"/>
	<path class="st1" d="M86.3,117.9v1.1c0,0.3-0.1,0.6-0.1,0.9c-0.2,0.6-0.5,1.2-0.9,1.7c-0.8,1-2.1,1.5-3.3,1.4c-1.1,0-2.1-0.3-3-1
		c-0.8-0.7-1.3-1.7-1.3-2.8h2c0.1,0.3,0.2,0.7,0.4,1c0.5,0.6,1.2,0.9,1.9,0.8c1.5,0,2.3-0.9,2.3-2.8v-1.3c-1.4,1.6-3.9,1.7-5.5,0.3
		c0,0-0.1,0-0.1-0.1l-0.3-0.3c-0.8-0.9-1.2-2.1-1.1-3.3c0-1.2,0.4-2.3,1.1-3.2c0.7-1,1.9-1.5,3.1-1.5c1.1,0,2.1,0.5,2.7,1.3v-1h2
		L86.3,117.9z M84.4,113.8c0-0.8-0.2-1.5-0.7-2.1c-0.9-1-2.4-1.1-3.4-0.2c-0.1,0.1-0.2,0.2-0.3,0.3c-0.4,0.6-0.6,1.3-0.6,2.1
		c0,0.7,0.2,1.4,0.6,2c0.8,1,2.4,1.2,3.4,0.4c0.1-0.1,0.3-0.2,0.4-0.4C84.2,115.3,84.4,114.5,84.4,113.8z"/>
	<path class="st4" d="M86.3,117.9v1.1c0,0.3-0.1,0.6-0.1,0.9c-0.2,0.6-0.5,1.2-0.9,1.7c-0.8,1-2.1,1.5-3.3,1.4c-1.1,0-2.1-0.3-3-1
		c-0.8-0.7-1.3-1.7-1.3-2.8h2c0.1,0.3,0.2,0.7,0.4,1c0.5,0.6,1.2,0.9,1.9,0.8c1.5,0,2.3-0.9,2.3-2.8v-1.3c-1.4,1.6-3.9,1.7-5.5,0.3
		c0,0-0.1,0-0.1-0.1l-0.3-0.3c-0.8-0.9-1.2-2.1-1.1-3.3c0-1.2,0.4-2.3,1.1-3.2c0.7-1,1.9-1.5,3.1-1.5c1.1,0,2.1,0.5,2.7,1.3v-1h2
		L86.3,117.9z M84.4,113.8c0-0.8-0.2-1.5-0.7-2.1c-0.9-1-2.4-1.1-3.4-0.2c-0.1,0.1-0.2,0.2-0.3,0.3c-0.4,0.6-0.6,1.3-0.6,2.1
		c0,0.7,0.2,1.4,0.6,2c0.8,1,2.4,1.2,3.4,0.4c0.1-0.1,0.3-0.2,0.4-0.4C84.2,115.3,84.4,114.5,84.4,113.8z"/>
	<path class="st1" d="M97.1,114.2h-6.4c0,0.7,0.3,1.3,0.7,1.8c0.4,0.4,1,0.7,1.6,0.6c0.4,0,0.9-0.1,1.3-0.4c0.4-0.4,0.8-0.8,1.1-1.3
		l1.7,1c-0.2,0.4-0.5,0.8-0.9,1.1c-0.3,0.3-0.6,0.6-1,0.8c-0.4,0.2-0.7,0.3-1.1,0.5c-0.4,0.1-0.9,0.2-1.3,0.2
		c-1.2,0.1-2.4-0.4-3.2-1.3c-0.8-0.9-1.3-2.1-1.3-3.4c-0.1-1.2,0.3-2.5,1.1-3.4c1.8-1.7,4.5-1.7,6.3,0c0.8,1,1.2,2.2,1.1,3.5
		L97.1,114.2z M95,112.5c-0.4-1.2-1.6-1.9-2.8-1.5c-0.2,0.1-0.4,0.2-0.6,0.4c-0.2,0.2-0.3,0.3-0.5,0.5c-0.1,0.2-0.2,0.5-0.3,0.7
		L95,112.5z"/>
	<path class="st4" d="M97.1,114.2h-6.4c0,0.7,0.3,1.3,0.7,1.8c0.4,0.4,1,0.7,1.6,0.6c0.4,0,0.9-0.1,1.3-0.4c0.4-0.4,0.8-0.8,1.1-1.3
		l1.7,1c-0.2,0.4-0.5,0.8-0.9,1.1c-0.3,0.3-0.6,0.6-1,0.8c-0.4,0.2-0.7,0.3-1.1,0.5c-0.4,0.1-0.9,0.2-1.3,0.2
		c-1.2,0.1-2.4-0.4-3.2-1.3c-0.8-0.9-1.3-2.1-1.3-3.4c-0.1-1.2,0.3-2.5,1.1-3.4c1.8-1.7,4.5-1.7,6.3,0c0.8,1,1.2,2.2,1.1,3.5
		L97.1,114.2z M95,112.5c-0.4-1.2-1.6-1.9-2.8-1.5c-0.2,0.1-0.4,0.2-0.6,0.4c-0.2,0.2-0.3,0.3-0.5,0.5c-0.1,0.2-0.2,0.5-0.3,0.7
		L95,112.5z"/>
	<path class="st1" d="M105.9,102.6h2.1v15.5h-2.1v-0.9c-1.6,1.6-4.1,1.6-5.7,0l-0.1-0.2c-1.6-2-1.6-4.7,0-6.7c0.8-0.9,1.9-1.4,3-1.3
		c1.1,0,2.1,0.5,2.8,1.3L105.9,102.6z M101,113.6c0,0.8,0.2,1.5,0.7,2.1c0.4,0.5,1.1,0.8,1.8,0.8c0.7,0,1.4-0.3,1.9-0.8
		c1-1.2,1-2.9,0-4.1c-0.5-0.5-1.1-0.8-1.8-0.8c-0.7,0-1.3,0.3-1.8,0.8C101.3,112.2,101,112.9,101,113.6z"/>
	<path class="st4" d="M105.9,102.6h2.1v15.5h-2.1v-0.9c-1.6,1.6-4.1,1.6-5.7,0l-0.1-0.2c-1.6-2-1.6-4.7,0-6.7c0.8-0.9,1.9-1.4,3-1.3
		c1.1,0,2.1,0.5,2.8,1.3L105.9,102.6z M101,113.6c0,0.8,0.2,1.5,0.7,2.1c0.4,0.5,1.1,0.8,1.8,0.8c0.7,0,1.4-0.3,1.9-0.8
		c1-1.2,1-2.9,0-4.1c-0.5-0.5-1.1-0.8-1.8-0.8c-0.7,0-1.3,0.3-1.8,0.8C101.3,112.2,101,112.9,101,113.6z"/>
	<path class="st1" d="M29.1,125.9c0-0.7,0.6-1.3,1.3-1.3c0.4,0,0.7,0.1,1,0.4c0.2,0.3,0.4,0.6,0.4,1c0,0.4-0.1,0.7-0.4,1
		c-0.5,0.5-1.3,0.5-1.8,0h-0.1C29.3,126.7,29.1,126.3,29.1,125.9z M31.5,129.7v9h-2.1v-9L31.5,129.7z"/>
	<path class="st4" d="M29.1,125.9c0-0.7,0.6-1.3,1.3-1.3c0.4,0,0.7,0.1,1,0.4c0.2,0.3,0.4,0.6,0.4,1c0,0.4-0.1,0.7-0.4,1
		c-0.5,0.5-1.3,0.5-1.8,0h-0.1C29.3,126.7,29.1,126.3,29.1,125.9z M31.5,129.7v9h-2.1v-9L31.5,129.7z"/>
	<path class="st1" d="M34.1,129.6h2.1v0.8c0.6-0.7,1.5-1.1,2.4-1.1c0.9-0.1,1.8,0.3,2.4,1c0.6,0.8,0.8,1.7,0.7,2.7v5.5h-2.1v-4.9
		c0.1-0.6-0.1-1.2-0.4-1.8c-0.4-0.3-0.8-0.5-1.3-0.5c-0.6-0.1-1.1,0.2-1.4,0.7c-0.3,0.7-0.5,1.5-0.5,2.3v4.3H34L34.1,129.6z"/>
	<path class="st4" d="M34.1,129.6h2.1v0.8c0.6-0.7,1.5-1.1,2.4-1.1c0.9-0.1,1.8,0.3,2.4,1c0.6,0.8,0.8,1.7,0.7,2.7v5.5h-2.1v-4.9
		c0.1-0.6-0.1-1.2-0.4-1.8c-0.4-0.3-0.8-0.5-1.3-0.5c-0.6-0.1-1.1,0.2-1.4,0.7c-0.3,0.7-0.5,1.5-0.5,2.3v4.3H34L34.1,129.6z"/>
	<polygon class="st1" points="52.3,131.6 52.3,138.5 50.2,138.5 50.2,131.6 49.3,131.6 49.3,129.6 50.2,129.6 50.2,126.4 
		52.3,126.4 52.3,129.7 53.9,129.7 53.9,131.6 	"/>
	<polygon class="st4" points="52.3,131.6 52.3,138.5 50.2,138.5 50.2,131.6 49.3,131.6 49.3,129.6 50.2,129.6 50.2,126.4 
		52.3,126.4 52.3,129.7 53.9,129.7 53.9,131.6 	"/>
	<path class="st1" d="M55.3,129.6h2.1v0.8c0.3-0.3,0.6-0.6,1-0.8c0.3-0.2,0.7-0.3,1.1-0.2c0.6,0,1.2,0.2,1.7,0.5l-1,1.9
		c-0.3-0.3-0.7-0.4-1.1-0.4c-1.1,0-1.7,0.9-1.7,2.5v4.7h-2.1L55.3,129.6L55.3,129.6z"/>
	<path class="st4" d="M55.3,129.6h2.1v0.8c0.3-0.3,0.6-0.6,1-0.8c0.3-0.2,0.7-0.3,1.1-0.2c0.6,0,1.2,0.2,1.7,0.5l-1,1.9
		c-0.3-0.3-0.7-0.4-1.1-0.4c-1.1,0-1.7,0.9-1.7,2.5v4.7h-2.1L55.3,129.6L55.3,129.6z"/>
	<path class="st1" d="M68.9,129.6h2.1v9h-2.1v-0.9c-1.5,1.6-4,1.7-5.6,0.2c0,0,0,0-0.1-0.1l0,0c-0.1-0.1-0.2-0.2-0.2-0.3
		c-0.8-0.9-1.2-2.2-1.1-3.4c0-1.2,0.4-2.4,1.1-3.4c0.7-0.9,1.9-1.4,3-1.4c1.1,0,2.1,0.5,2.8,1.3L68.9,129.6z M63.9,134.2
		c0,0.8,0.2,1.5,0.7,2.1c0.4,0.5,1.1,0.8,1.8,0.8c0.7,0,1.4-0.3,1.9-0.8c1-1.2,1-2.9,0-4.1c-0.5-0.5-1.1-0.8-1.8-0.8
		c-0.7,0-1.3,0.3-1.8,0.8C64.2,132.6,63.9,133.4,63.9,134.2z"/>
	<path class="st4" d="M68.9,129.6h2.1v9h-2.1v-0.9c-1.5,1.6-4,1.7-5.6,0.2c0,0,0,0-0.1-0.1l0,0c-0.1-0.1-0.2-0.2-0.2-0.3
		c-0.8-0.9-1.2-2.2-1.1-3.4c0-1.2,0.4-2.4,1.1-3.4c0.7-0.9,1.9-1.4,3-1.4c1.1,0,2.1,0.5,2.8,1.3L68.9,129.6z M63.9,134.2
		c0,0.8,0.2,1.5,0.7,2.1c0.4,0.5,1.1,0.8,1.8,0.8c0.7,0,1.4-0.3,1.9-0.8c1-1.2,1-2.9,0-4.1c-0.5-0.5-1.1-0.8-1.8-0.8
		c-0.7,0-1.3,0.3-1.8,0.8C64.2,132.6,63.9,133.4,63.9,134.2z"/>
	<polygon class="st1" points="74.8,129.7 77.1,134.8 79.6,128.9 82.2,134.8 84.5,129.7 86.8,129.7 82.2,139.2 79.7,133.5 
		77.2,139.2 72.5,129.7 	"/>
	<polygon class="st4" points="74.8,129.7 77.1,134.8 79.6,128.9 82.2,134.8 84.5,129.7 86.8,129.7 82.2,139.2 79.7,133.5 
		77.2,139.2 72.5,129.7 	"/>
	<rect x="88.4" y="123" class="st1" width="2.1" height="15.5"/>
	<rect x="88.4" y="123" class="st4" width="2.1" height="15.5"/>
	<path class="st1" d="M92.8,125.9c0-0.7,0.6-1.3,1.3-1.3c0.4,0,0.7,0.1,1,0.4c0.2,0.3,0.4,0.6,0.4,1c0,0.4-0.1,0.7-0.4,1
		c-0.3,0.3-0.6,0.4-1,0.4c-0.7,0-1.3-0.5-1.3-1.2c0,0,0,0,0,0V125.9z M95.2,129.7v9h-2.1v-9L95.2,129.7z"/>
	<path class="st4" d="M92.8,125.9c0-0.7,0.6-1.3,1.3-1.3c0.4,0,0.7,0.1,1,0.4c0.2,0.3,0.4,0.6,0.4,1c0,0.4-0.1,0.7-0.4,1
		c-0.3,0.3-0.6,0.4-1,0.4c-0.7,0-1.3-0.5-1.3-1.2c0,0,0,0,0,0V125.9z M95.2,129.7v9h-2.1v-9L95.2,129.7z"/>
	<path class="st1" d="M97.7,129.6h2.1v0.8c0.6-0.7,1.5-1.1,2.4-1.1c0.9-0.1,1.8,0.3,2.4,1c0.5,0.8,0.8,1.7,0.7,2.7v5.5h-2.1v-4.9
		c0.1-0.6-0.1-1.2-0.4-1.8c-0.4-0.3-0.8-0.5-1.3-0.5c-0.6-0.1-1.1,0.2-1.4,0.7c-0.3,0.7-0.5,1.5-0.4,2.3v4.3h-2V129.6z"/>
	<path class="st4" d="M97.7,129.6h2.1v0.8c0.6-0.7,1.5-1.1,2.4-1.1c0.9-0.1,1.8,0.3,2.4,1c0.5,0.8,0.8,1.7,0.7,2.7v5.5h-2.1v-4.9
		c0.1-0.6-0.1-1.2-0.4-1.8c-0.4-0.3-0.8-0.5-1.3-0.5c-0.6-0.1-1.1,0.2-1.4,0.7c-0.3,0.7-0.5,1.5-0.4,2.3v4.3h-2V129.6z"/>
	<path class="st1" d="M116.7,138.4v1.1c0,0.3-0.1,0.6-0.1,0.9c-0.2,0.6-0.5,1.2-0.9,1.7c-0.8,1-2,1.5-3.3,1.4c-1.1,0.1-2.1-0.3-3-1
		c-0.8-0.7-1.3-1.7-1.3-2.8h2c0.1,0.3,0.2,0.7,0.4,1c0.5,0.6,1.2,0.9,1.9,0.8c1.5,0,2.3-0.9,2.3-2.8v-1.2c-1.4,1.6-3.9,1.7-5.5,0.3
		c0,0,0,0,0,0l-0.1-0.1l-0.3-0.3c-0.8-0.9-1.2-2.1-1.1-3.3c0-1.2,0.4-2.4,1.1-3.3c1.4-1.7,3.9-1.9,5.5-0.5l0.4,0.4v-1.1h2.1
		L116.7,138.4L116.7,138.4z M114.7,134.2c0-0.8-0.2-1.5-0.7-2.1c-0.9-1-2.4-1.1-3.4-0.2c-0.1,0.1-0.2,0.2-0.3,0.3
		c-0.4,0.6-0.6,1.3-0.6,2.1c0,0.7,0.2,1.4,0.6,2c0.8,1,2.4,1.2,3.4,0.4c0.1-0.1,0.3-0.2,0.4-0.4
		C114.5,135.6,114.8,134.9,114.7,134.2z"/>
	<path class="st4" d="M116.7,138.4v1.1c0,0.3-0.1,0.6-0.1,0.9c-0.2,0.6-0.5,1.2-0.9,1.7c-0.8,1-2,1.5-3.3,1.4c-1.1,0.1-2.1-0.3-3-1
		c-0.8-0.7-1.3-1.7-1.3-2.8h2c0.1,0.3,0.2,0.7,0.4,1c0.5,0.6,1.2,0.9,1.9,0.8c1.5,0,2.3-0.9,2.3-2.8v-1.2c-1.4,1.6-3.9,1.7-5.5,0.3
		c0,0,0,0,0,0l-0.1-0.1l-0.3-0.3c-0.8-0.9-1.2-2.1-1.1-3.3c0-1.2,0.4-2.4,1.1-3.3c1.4-1.7,3.9-1.9,5.5-0.5l0.4,0.4v-1.1h2.1
		L116.7,138.4L116.7,138.4z M114.7,134.2c0-0.8-0.2-1.5-0.7-2.1c-0.9-1-2.4-1.1-3.4-0.2c-0.1,0.1-0.2,0.2-0.3,0.3
		c-0.4,0.6-0.6,1.3-0.6,2.1c0,0.7,0.2,1.4,0.6,2c0.8,1,2.4,1.2,3.4,0.4c0.1-0.1,0.3-0.2,0.4-0.4
		C114.5,135.6,114.8,134.9,114.7,134.2z"/>
</g>
</svg>
