<?xml version="1.0" encoding="utf-8"?>
<!-- Generator: Adobe Illustrator 24.0.1, SVG Export Plug-In . SVG Version: 6.00 Build 0)  -->
<svg version="1.1" xmlns="http://www.w3.org/2000/svg" xmlns:xlink="http://www.w3.org/1999/xlink" x="0px" y="0px"
	 viewBox="0 0 147.8 147.8" style="enable-background:new 0 0 147.8 147.8;" xml:space="preserve">
<style type="text/css">
	.st0{fill:#FFFFFF;}
	.st1{fill:#FF0000;}
	.st2{fill:none;stroke:#000000;stroke-width:3.75;stroke-linejoin:round;}
	.st3{fill:none;stroke:#000000;stroke-width:0.5;}
</style>
<g id="Layer_2">
	<title>Uniform</title>
	<rect x="1.9" y="1.9" class="st0" width="144" height="144"/>
	<path class="st1" d="M1.9,1.9h72v144h72v-72H1.9V1.9z"/>
	<path class="st2" d="M1.9,1.9h144v144H1.9V1.9z"/>
</g>
<g id="Layer_1">
	<polygon class="st0" points="42.7,90.4 37.5,81.4 40.3,81.4 43.9,87.7 47.5,81.4 50.2,81.4 45,90.4 45,97.2 42.6,97.2 42.7,90.4 	
		"/>
	<polygon class="st3" points="42.7,90.4 37.5,81.4 40.3,81.4 43.9,87.7 47.5,81.4 50.2,81.4 45,90.4 45,97.2 42.6,97.2 42.7,90.4 	
		"/>
	<path class="st0" d="M49.7,92.2c0-1.4,0.6-2.8,1.6-3.7c2.1-2,5.5-2,7.6,0c2.1,2,2.1,5.4,0.1,7.4c0,0-0.1,0.1-0.1,0.1
		c-2.1,2-5.5,2-7.6,0C50.3,95,49.7,93.6,49.7,92.2z M52.1,92.2c0,0.9,0.2,1.7,0.8,2.4c0.6,0.6,1.4,0.9,2.2,0.9
		c0.8,0,1.6-0.3,2.2-0.9c1.1-1.4,1.1-3.3,0-4.7c-0.6-0.6-1.4-0.9-2.2-0.9c-0.8,0-1.6,0.3-2.1,0.9C52.4,90.4,52,91.3,52.1,92.2z"/>
	<path class="st3" d="M49.7,92.2c0-1.4,0.6-2.8,1.6-3.7c2.1-2,5.5-2,7.6,0c2.1,2,2.1,5.4,0.1,7.4c0,0-0.1,0.1-0.1,0.1
		c-2.1,2-5.5,2-7.6,0C50.3,95,49.7,93.6,49.7,92.2z M52.1,92.2c0,0.9,0.2,1.7,0.8,2.4c0.6,0.6,1.4,0.9,2.2,0.9
		c0.8,0,1.6-0.3,2.2-0.9c1.1-1.4,1.1-3.3,0-4.7c-0.6-0.6-1.4-0.9-2.2-0.9c-0.8,0-1.6,0.3-2.1,0.9C52.4,90.4,52,91.3,52.1,92.2z"/>
	<path class="st0" d="M65.1,87.2v5.7c0,1.7,0.6,2.5,2,2.5s2-0.8,2-2.5v-5.7h2.3V93c0,0.7-0.1,1.4-0.3,2.1c-0.2,0.5-0.6,1-1,1.4
		c-1.8,1.6-4.5,1.5-6.1-0.2c-0.3-0.3-0.6-0.7-0.8-1.2c-0.2-0.7-0.3-1.4-0.3-2.1v-5.8H65.1z"/>
	<path class="st3" d="M65.1,87.2v5.7c0,1.7,0.6,2.5,2,2.5s2-0.8,2-2.5v-5.7h2.3V93c0,0.7-0.1,1.4-0.3,2.1c-0.2,0.5-0.6,1-1,1.4
		c-1.8,1.6-4.5,1.5-6.1-0.2c-0.3-0.3-0.6-0.7-0.8-1.2c-0.2-0.7-0.3-1.4-0.3-2.1v-5.8H65.1z"/>
	<path class="st0" d="M88.1,87.2h2.3v10h-2.3v-1.1c-1.7,1.8-4.5,1.8-6.3,0.1c0,0,0,0,0,0c-0.1-0.1-0.2-0.2-0.2-0.3
		c-0.9-1-1.4-2.4-1.3-3.8c0-1.4,0.4-2.7,1.3-3.8c0.9-1,2.1-1.5,3.4-1.5c1.2,0,2.3,0.5,3.1,1.4V87.2z M82.6,92.2
		c0,0.8,0.2,1.7,0.8,2.3c0.5,0.6,1.2,0.9,2,0.9c0.8,0,1.6-0.3,2.1-0.9c1.1-1.3,1.1-3.3,0-4.6c-1-1.1-2.7-1.2-3.8-0.2
		c-0.1,0.1-0.2,0.1-0.2,0.2C83,90.5,82.6,91.3,82.6,92.2z"/>
	<path class="st3" d="M88.1,87.2h2.3v10h-2.3v-1.1c-1.7,1.8-4.5,1.8-6.3,0.1c0,0,0,0,0,0c-0.1-0.1-0.2-0.2-0.2-0.3
		c-0.9-1-1.4-2.4-1.3-3.8c0-1.4,0.4-2.7,1.3-3.8c0.9-1,2.1-1.5,3.4-1.5c1.2,0,2.3,0.5,3.1,1.4V87.2z M82.6,92.2
		c0,0.8,0.2,1.7,0.8,2.3c0.5,0.6,1.2,0.9,2,0.9c0.8,0,1.6-0.3,2.1-0.9c1.1-1.3,1.1-3.3,0-4.6c-1-1.1-2.7-1.2-3.8-0.2
		c-0.1,0.1-0.2,0.1-0.2,0.2C83,90.5,82.6,91.3,82.6,92.2z"/>
	<path class="st0" d="M93.3,87.2h2.3v0.9c0.3-0.4,0.7-0.7,1.1-0.9c0.4-0.2,0.8-0.3,1.2-0.2c0.7,0,1.3,0.2,1.9,0.6l-1,2.1
		c-0.4-0.3-0.8-0.5-1.3-0.5c-1.2,0-1.9,0.9-1.9,2.8v5.2h-2.3L93.3,87.2z"/>
	<path class="st3" d="M93.3,87.2h2.3v0.9c0.3-0.4,0.7-0.7,1.1-0.9c0.4-0.2,0.8-0.3,1.2-0.2c0.7,0,1.3,0.2,1.9,0.6l-1,2.1
		c-0.4-0.3-0.8-0.5-1.3-0.5c-1.2,0-1.9,0.9-1.9,2.8v5.2h-2.3L93.3,87.2z"/>
	<path class="st0" d="M110.1,92.8h-7.2c0,0.7,0.3,1.5,0.8,2c0.5,0.5,1.1,0.7,1.8,0.7c0.5,0,1-0.1,1.4-0.4c0.5-0.4,0.9-0.9,1.3-1.5
		l2,1.1c-0.3,0.5-0.6,0.9-1,1.3c-0.3,0.4-0.7,0.7-1.1,0.9c-0.4,0.2-0.8,0.4-1.2,0.5c-0.5,0.1-1,0.2-1.5,0.2
		c-1.3,0.1-2.6-0.5-3.6-1.4c-0.9-1.1-1.4-2.5-1.3-3.9c-0.1-1.4,0.4-2.8,1.3-3.8c2-1.9,5-1.9,7,0c0.9,1.1,1.4,2.5,1.3,3.9L110.1,92.8
		z M107.8,90.9c-0.2-1.1-1.2-1.9-2.3-1.8c-0.3,0-0.5,0-0.8,0.1c-0.3,0.1-0.5,0.2-0.7,0.4c-0.2,0.2-0.4,0.4-0.5,0.6
		c-0.2,0.2-0.3,0.5-0.3,0.8C103.2,91,107.8,90.9,107.8,90.9z"/>
	<path class="st3" d="M110.1,92.8h-7.2c0,0.7,0.3,1.5,0.8,2c0.5,0.5,1.1,0.7,1.8,0.7c0.5,0,1-0.1,1.4-0.4c0.5-0.4,0.9-0.9,1.3-1.5
		l2,1.1c-0.3,0.5-0.6,0.9-1,1.3c-0.3,0.4-0.7,0.7-1.1,0.9c-0.4,0.2-0.8,0.4-1.2,0.5c-0.5,0.1-1,0.2-1.5,0.2
		c-1.3,0.1-2.6-0.5-3.6-1.4c-0.9-1.1-1.4-2.5-1.3-3.9c-0.1-1.4,0.4-2.8,1.3-3.8c2-1.9,5-1.9,7,0c0.9,1.1,1.4,2.5,1.3,3.9L110.1,92.8
		z M107.8,90.9c-0.2-1.1-1.2-1.9-2.3-1.8c-0.3,0-0.5,0-0.8,0.1c-0.3,0.1-0.5,0.2-0.7,0.4c-0.2,0.2-0.4,0.4-0.5,0.6
		c-0.2,0.2-0.3,0.5-0.3,0.8C103.2,91,107.8,90.9,107.8,90.9z"/>
	<path class="st0" d="M39.3,106.1h2.3v0.9c0.3-0.4,0.7-0.7,1.1-0.9c0.4-0.2,0.8-0.3,1.2-0.2c0.7,0,1.3,0.2,1.9,0.6l-1,2.1
		c-0.4-0.3-0.8-0.5-1.3-0.5c-1.2,0-1.9,0.9-1.9,2.8v5.2h-2.3V106.1z"/>
	<path class="st3" d="M39.3,106.1h2.3v0.9c0.3-0.4,0.7-0.7,1.1-0.9c0.4-0.2,0.8-0.3,1.2-0.2c0.7,0,1.3,0.2,1.9,0.6l-1,2.1
		c-0.4-0.3-0.8-0.5-1.3-0.5c-1.2,0-1.9,0.9-1.9,2.8v5.2h-2.3V106.1z"/>
	<path class="st0" d="M49.8,106.1v5.7c0,1.7,0.6,2.5,2,2.5s2-0.8,2-2.5v-5.7h2.3v5.8c0,0.7-0.1,1.4-0.3,2.1c-0.2,0.5-0.6,1-1,1.4
		c-1.7,1.4-4.2,1.4-5.9,0c-0.4-0.4-0.8-0.9-1-1.4c-0.2-0.7-0.3-1.4-0.3-2.1v-5.8H49.8z"/>
	<path class="st3" d="M49.8,106.1v5.7c0,1.7,0.6,2.5,2,2.5s2-0.8,2-2.5v-5.7h2.3v5.8c0,0.7-0.1,1.4-0.3,2.1c-0.2,0.5-0.6,1-1,1.4
		c-1.7,1.4-4.2,1.4-5.9,0c-0.4-0.4-0.8-0.9-1-1.4c-0.2-0.7-0.3-1.4-0.3-2.1v-5.8H49.8z"/>
	<path class="st0" d="M59,106.1h2.3v0.9c0.7-0.8,1.7-1.2,2.7-1.2c1.1-0.1,2.1,0.3,2.8,1.1c0.6,0.9,0.9,1.9,0.8,3v6.2h-2.3v-5.6
		c0.1-0.7-0.1-1.4-0.4-2c-0.4-0.4-0.9-0.6-1.5-0.6c-0.7-0.1-1.3,0.2-1.7,0.8c-0.4,0.8-0.6,1.7-0.5,2.6v4.8h-2.3L59,106.1L59,106.1z"
		/>
	<path class="st3" d="M59,106.1h2.3v0.9c0.7-0.8,1.7-1.2,2.7-1.2c1.1-0.1,2.1,0.3,2.8,1.1c0.6,0.9,0.9,1.9,0.8,3v6.2h-2.3v-5.6
		c0.1-0.7-0.1-1.4-0.4-2c-0.4-0.4-0.9-0.6-1.5-0.6c-0.7-0.1-1.3,0.2-1.7,0.8c-0.4,0.8-0.6,1.7-0.5,2.6v4.8h-2.3L59,106.1L59,106.1z"
		/>
	<path class="st0" d="M70.5,106.3h2.3v0.9c0.7-0.8,1.7-1.2,2.7-1.2c1-0.1,2,0.3,2.7,1.1c0.6,0.9,0.9,1.9,0.8,3v6.2h-2.3v-5.6
		c0.1-0.7-0.1-1.4-0.4-2c-0.4-0.4-0.9-0.6-1.5-0.6c-0.6-0.1-1.3,0.2-1.6,0.8c-0.4,0.8-0.5,1.7-0.5,2.6v4.8h-2.3
		C70.4,116.3,70.5,106.3,70.5,106.3z"/>
	<path class="st3" d="M70.5,106.3h2.3v0.9c0.7-0.8,1.7-1.2,2.7-1.2c1-0.1,2,0.3,2.7,1.1c0.6,0.9,0.9,1.9,0.8,3v6.2h-2.3v-5.6
		c0.1-0.7-0.1-1.4-0.4-2c-0.4-0.4-0.9-0.6-1.5-0.6c-0.6-0.1-1.3,0.2-1.6,0.8c-0.4,0.8-0.5,1.7-0.5,2.6v4.8h-2.3
		C70.4,116.3,70.5,106.3,70.5,106.3z"/>
	<path class="st0" d="M81.5,102.1c0-0.8,0.7-1.5,1.5-1.5c0.4,0,0.8,0.2,1.1,0.4c0.3,0.3,0.4,0.7,0.4,1.1c0,0.4-0.2,0.8-0.4,1.1
		c-0.3,0.3-0.7,0.4-1.1,0.4C82.2,103.6,81.5,102.9,81.5,102.1z M84.2,106.2v10h-2.3v-10L84.2,106.2z"/>
	<path class="st3" d="M81.5,102.1c0-0.8,0.7-1.5,1.5-1.5c0.4,0,0.8,0.2,1.1,0.4c0.3,0.3,0.4,0.7,0.4,1.1c0,0.4-0.2,0.8-0.4,1.1
		c-0.3,0.3-0.7,0.4-1.1,0.4C82.2,103.6,81.5,102.9,81.5,102.1z M84.2,106.2v10h-2.3v-10L84.2,106.2z"/>
	<path class="st0" d="M87.1,106.3h2.3v0.9c0.7-0.8,1.7-1.2,2.7-1.2c1-0.1,2,0.3,2.7,1.1c0.6,0.9,0.9,1.9,0.8,3v6.2h-2.3v-5.6
		c0.1-0.7-0.1-1.4-0.4-2c-0.4-0.4-0.9-0.6-1.5-0.6c-0.6-0.1-1.3,0.2-1.6,0.8c-0.4,0.8-0.6,1.7-0.5,2.6v4.8H87L87.1,106.3z"/>
	<path class="st3" d="M87.1,106.3h2.3v0.9c0.7-0.8,1.7-1.2,2.7-1.2c1-0.1,2,0.3,2.7,1.1c0.6,0.9,0.9,1.9,0.8,3v6.2h-2.3v-5.6
		c0.1-0.7-0.1-1.4-0.4-2c-0.4-0.4-0.9-0.6-1.5-0.6c-0.6-0.1-1.3,0.2-1.6,0.8c-0.4,0.8-0.6,1.7-0.5,2.6v4.8H87L87.1,106.3z"/>
	<path class="st0" d="M108.3,116v1.2c0,0.3-0.1,0.7-0.1,1c-0.2,0.7-0.5,1.4-1,1.9c-0.9,1.1-2.3,1.6-3.7,1.6
		c-1.2,0.1-2.4-0.3-3.3-1.1c-0.9-0.8-1.5-1.9-1.5-3.1h2.3c0.1,0.4,0.2,0.8,0.4,1.1c0.5,0.6,1.3,1,2.1,0.9c1.7,0,2.5-1,2.5-3.1v-1.4
		c-1.6,1.8-4.3,1.9-6.1,0.3c0,0-0.1-0.1-0.1-0.1l-0.3-0.3c-0.9-1-1.4-2.3-1.3-3.7c0-1.3,0.4-2.6,1.2-3.7c1.5-1.9,4.3-2.1,6.2-0.6
		c0.2,0.1,0.3,0.3,0.4,0.4v-1.2h2.3L108.3,116z M106.1,111.3c0-0.8-0.2-1.7-0.8-2.3c-1-1.1-2.7-1.2-3.8-0.2
		c-0.1,0.1-0.2,0.2-0.3,0.3c-0.5,0.7-0.7,1.5-0.7,2.3c0,0.8,0.2,1.6,0.7,2.2c0.5,0.7,1.3,1,2.1,1c0.8,0,1.6-0.4,2.1-1
		C105.9,113,106.1,112.1,106.1,111.3z"/>
	<path class="st3" d="M108.3,116v1.2c0,0.3-0.1,0.7-0.1,1c-0.2,0.7-0.5,1.4-1,1.9c-0.9,1.1-2.3,1.6-3.7,1.6
		c-1.2,0.1-2.4-0.3-3.3-1.1c-0.9-0.8-1.5-1.9-1.5-3.1h2.3c0.1,0.4,0.2,0.8,0.4,1.1c0.5,0.6,1.3,1,2.1,0.9c1.7,0,2.5-1,2.5-3.1v-1.4
		c-1.6,1.8-4.3,1.9-6.1,0.3c0,0-0.1-0.1-0.1-0.1l-0.3-0.3c-0.9-1-1.4-2.3-1.3-3.7c0-1.3,0.4-2.6,1.2-3.7c1.5-1.9,4.3-2.1,6.2-0.6
		c0.2,0.1,0.3,0.3,0.4,0.4v-1.2h2.3L108.3,116z M106.1,111.3c0-0.8-0.2-1.7-0.8-2.3c-1-1.1-2.7-1.2-3.8-0.2
		c-0.1,0.1-0.2,0.2-0.3,0.3c-0.5,0.7-0.7,1.5-0.7,2.3c0,0.8,0.2,1.6,0.7,2.2c0.5,0.7,1.3,1,2.1,1c0.8,0,1.6-0.4,2.1-1
		C105.9,113,106.1,112.1,106.1,111.3z"/>
	<path class="st0" d="M19.2,122.8c0-0.8,0.7-1.5,1.5-1.5c0.4,0,0.8,0.2,1.1,0.4c0.3,0.3,0.4,0.7,0.4,1.1c0,0.4-0.2,0.8-0.4,1.1
		c-0.3,0.3-0.6,0.4-1,0.4c-0.8,0.1-1.5-0.5-1.6-1.3C19.2,123,19.2,122.9,19.2,122.8z M21.8,126.9v10h-2.3v-10H21.8z"/>
	<path class="st3" d="M19.2,122.8c0-0.8,0.7-1.5,1.5-1.5c0.4,0,0.8,0.2,1.1,0.4c0.3,0.3,0.4,0.7,0.4,1.1c0,0.4-0.2,0.8-0.4,1.1
		c-0.3,0.3-0.6,0.4-1,0.4c-0.8,0.1-1.5-0.5-1.6-1.3C19.2,123,19.2,122.9,19.2,122.8z M21.8,126.9v10h-2.3v-10H21.8z"/>
	<path class="st0" d="M24.7,126.9H27v0.9c0.7-0.8,1.7-1.2,2.7-1.2c1-0.1,2,0.3,2.7,1.1c0.6,0.9,0.9,1.9,0.8,3v6.1h-2.3v-5.5
		c0.1-0.7-0.1-1.4-0.4-2c-0.4-0.4-0.9-0.6-1.5-0.6c-0.6-0.1-1.3,0.2-1.6,0.8c-0.4,0.8-0.5,1.7-0.5,2.6v4.8h-2.3L24.7,126.9z"/>
	<path class="st3" d="M24.7,126.9H27v0.9c0.7-0.8,1.7-1.2,2.7-1.2c1-0.1,2,0.3,2.7,1.1c0.6,0.9,0.9,1.9,0.8,3v6.1h-2.3v-5.5
		c0.1-0.7-0.1-1.4-0.4-2c-0.4-0.4-0.9-0.6-1.5-0.6c-0.6-0.1-1.3,0.2-1.6,0.8c-0.4,0.8-0.5,1.7-0.5,2.6v4.8h-2.3L24.7,126.9z"/>
	<polygon class="st0" points="38.6,129.1 38.6,136.9 36.3,136.9 36.3,129.1 35.3,129.1 35.3,126.9 36.3,126.9 36.3,123.3 
		38.6,123.3 38.6,127 40.4,127 40.4,129.2 	"/>
	<polygon class="st3" points="38.6,129.1 38.6,136.9 36.3,136.9 36.3,129.1 35.3,129.1 35.3,126.9 36.3,126.9 36.3,123.3 
		38.6,123.3 38.6,127 40.4,127 40.4,129.2 	"/>
	<path class="st0" d="M41.7,131.9c0-1.4,0.5-2.7,1.5-3.7c2.1-2,5.5-2,7.6,0c2.1,2,2.1,5.3,0.1,7.4c0,0-0.1,0.1-0.1,0.1
		c-2.1,2-5.5,2-7.6,0C42.2,134.7,41.6,133.4,41.7,131.9z M44,131.9c0,0.9,0.2,1.7,0.8,2.4c0.6,0.6,1.4,0.9,2.2,0.9
		c0.8,0,1.6-0.3,2.2-0.9c1.1-1.4,1.1-3.3,0-4.7c-1.2-1.2-3.1-1.2-4.2-0.1c0,0,0,0-0.1,0.1C44.3,130.3,44,131.1,44,131.9z"/>
	<path class="st3" d="M41.7,131.9c0-1.4,0.5-2.7,1.5-3.7c2.1-2,5.5-2,7.6,0c2.1,2,2.1,5.3,0.1,7.4c0,0-0.1,0.1-0.1,0.1
		c-2.1,2-5.5,2-7.6,0C42.2,134.7,41.6,133.4,41.7,131.9z M44,131.9c0,0.9,0.2,1.7,0.8,2.4c0.6,0.6,1.4,0.9,2.2,0.9
		c0.8,0,1.6-0.3,2.2-0.9c1.1-1.4,1.1-3.3,0-4.7c-1.2-1.2-3.1-1.2-4.2-0.1c0,0,0,0-0.1,0.1C44.3,130.3,44,131.1,44,131.9z"/>
	<path class="st0" d="M68.6,119.6h2.3v17.3h-2.3v-1c-0.8,0.8-1.9,1.3-3.1,1.3c-1.3,0-2.5-0.5-3.4-1.5c-0.9-1-1.4-2.4-1.3-3.8
		c0-1.4,0.4-2.7,1.3-3.7c0.9-1,2.1-1.5,3.4-1.5c1.2,0,2.3,0.5,3.1,1.4V119.6z M63.1,131.9c0,0.8,0.2,1.7,0.8,2.3
		c0.5,0.6,1.2,0.9,2,0.9c0.8,0,1.6-0.3,2.1-0.9c1.1-1.3,1.1-3.3,0-4.6c-0.5-0.6-1.3-0.9-2.1-0.9c-0.8,0-1.5,0.3-2,0.9
		C63.4,130.3,63.1,131.1,63.1,131.9L63.1,131.9z"/>
	<path class="st3" d="M68.6,119.6h2.3v17.3h-2.3v-1c-0.8,0.8-1.9,1.3-3.1,1.3c-1.3,0-2.5-0.5-3.4-1.5c-0.9-1-1.4-2.4-1.3-3.8
		c0-1.4,0.4-2.7,1.3-3.7c0.9-1,2.1-1.5,3.4-1.5c1.2,0,2.3,0.5,3.1,1.4V119.6z M63.1,131.9c0,0.8,0.2,1.7,0.8,2.3
		c0.5,0.6,1.2,0.9,2,0.9c0.8,0,1.6-0.3,2.1-0.9c1.1-1.3,1.1-3.3,0-4.6c-0.5-0.6-1.3-0.9-2.1-0.9c-0.8,0-1.5,0.3-2,0.9
		C63.4,130.3,63.1,131.1,63.1,131.9L63.1,131.9z"/>
	<path class="st0" d="M81.2,126.9h2.3v10h-2.3v-1c-1.7,1.8-4.5,1.8-6.3,0.1c0,0,0,0,0,0c-0.1-0.1-0.2-0.2-0.2-0.3
		c-0.9-1-1.4-2.4-1.3-3.8c0-1.4,0.4-2.7,1.3-3.8c0.8-1,2-1.6,3.3-1.6c1.2,0,2.3,0.5,3.1,1.4L81.2,126.9z M75.7,131.9
		c0,0.8,0.2,1.7,0.8,2.3c0.5,0.6,1.2,0.9,2,0.9c0.8,0,1.6-0.3,2.1-0.9c1.1-1.3,1.1-3.3,0-4.6c-0.5-0.6-1.2-0.9-2-0.9
		c-0.8,0-1.5,0.3-2,0.9C76,130.3,75.7,131.1,75.7,131.9z"/>
	<path class="st3" d="M81.2,126.9h2.3v10h-2.3v-1c-1.7,1.8-4.5,1.8-6.3,0.1c0,0,0,0,0,0c-0.1-0.1-0.2-0.2-0.2-0.3
		c-0.9-1-1.4-2.4-1.3-3.8c0-1.4,0.4-2.7,1.3-3.8c0.8-1,2-1.6,3.3-1.6c1.2,0,2.3,0.5,3.1,1.4L81.2,126.9z M75.7,131.9
		c0,0.8,0.2,1.7,0.8,2.3c0.5,0.6,1.2,0.9,2,0.9c0.8,0,1.6-0.3,2.1-0.9c1.1-1.3,1.1-3.3,0-4.6c-0.5-0.6-1.2-0.9-2-0.9
		c-0.8,0-1.5,0.3-2,0.9C76,130.3,75.7,131.1,75.7,131.9z"/>
	<path class="st0" d="M86.4,126.9h2.3v0.9c0.7-0.8,1.7-1.2,2.7-1.2c1-0.1,2,0.3,2.7,1.1c0.6,0.9,0.9,1.9,0.8,3v6.1h-2.3v-5.5
		c0.1-0.7-0.1-1.4-0.4-2c-0.4-0.4-0.9-0.6-1.5-0.6c-0.6-0.1-1.3,0.2-1.6,0.8c-0.4,0.8-0.5,1.7-0.5,2.6v4.8h-2.2V126.9z"/>
	<path class="st3" d="M86.4,126.9h2.3v0.9c0.7-0.8,1.7-1.2,2.7-1.2c1-0.1,2,0.3,2.7,1.1c0.6,0.9,0.9,1.9,0.8,3v6.1h-2.3v-5.5
		c0.1-0.7-0.1-1.4-0.4-2c-0.4-0.4-0.9-0.6-1.5-0.6c-0.6-0.1-1.3,0.2-1.6,0.8c-0.4,0.8-0.5,1.7-0.5,2.6v4.8h-2.2V126.9z"/>
	<path class="st0" d="M107.6,136.7v1.2c0,0.3-0.1,0.7-0.1,1c-0.2,0.7-0.5,1.4-1,1.9c-0.9,1.1-2.3,1.6-3.7,1.6
		c-1.2,0.1-2.4-0.3-3.3-1.1c-0.9-0.8-1.4-1.9-1.5-3.1h2.3c0.1,0.4,0.2,0.8,0.5,1.1c0.5,0.6,1.3,1,2.1,0.9c1.7,0,2.5-1,2.5-3.1v-1.4
		c-1.6,1.8-4.3,1.9-6.1,0.3c0,0-0.1-0.1-0.1-0.1l-0.3-0.3c-0.9-1-1.4-2.3-1.3-3.7c0-1.3,0.4-2.6,1.2-3.7c1.5-1.9,4.3-2.1,6.2-0.6
		c0.2,0.1,0.3,0.3,0.4,0.4v-1.2h2.3L107.6,136.7z M105.4,132c0-0.8-0.2-1.7-0.8-2.3c-1-1.1-2.7-1.2-3.8-0.2
		c-0.1,0.1-0.2,0.2-0.3,0.3c-0.5,0.7-0.7,1.5-0.7,2.3c0,0.8,0.2,1.6,0.7,2.2c0.9,1.2,2.7,1.3,3.8,0.4c0.1-0.1,0.3-0.2,0.4-0.4
		C105.1,133.7,105.4,132.8,105.4,132z"/>
	<path class="st3" d="M107.6,136.7v1.2c0,0.3-0.1,0.7-0.1,1c-0.2,0.7-0.5,1.4-1,1.9c-0.9,1.1-2.3,1.6-3.7,1.6
		c-1.2,0.1-2.4-0.3-3.3-1.1c-0.9-0.8-1.4-1.9-1.5-3.1h2.3c0.1,0.4,0.2,0.8,0.5,1.1c0.5,0.6,1.3,1,2.1,0.9c1.7,0,2.5-1,2.5-3.1v-1.4
		c-1.6,1.8-4.3,1.9-6.1,0.3c0,0-0.1-0.1-0.1-0.1l-0.3-0.3c-0.9-1-1.4-2.3-1.3-3.7c0-1.3,0.4-2.6,1.2-3.7c1.5-1.9,4.3-2.1,6.2-0.6
		c0.2,0.1,0.3,0.3,0.4,0.4v-1.2h2.3L107.6,136.7z M105.4,132c0-0.8-0.2-1.7-0.8-2.3c-1-1.1-2.7-1.2-3.8-0.2
		c-0.1,0.1-0.2,0.2-0.3,0.3c-0.5,0.7-0.7,1.5-0.7,2.3c0,0.8,0.2,1.6,0.7,2.2c0.9,1.2,2.7,1.3,3.8,0.4c0.1-0.1,0.3-0.2,0.4-0.4
		C105.1,133.7,105.4,132.8,105.4,132z"/>
	<path class="st0" d="M119.6,132.5h-7.2c0,0.7,0.3,1.5,0.8,2c0.9,0.8,2.2,1,3.2,0.3c0.5-0.4,0.9-0.9,1.3-1.5l2,1.1
		c-0.3,0.5-0.6,0.9-1,1.3c-0.3,0.4-0.7,0.7-1.1,0.9c-0.4,0.2-0.8,0.4-1.2,0.5c-0.5,0.1-1,0.2-1.5,0.2c-1.3,0.1-2.6-0.5-3.6-1.4
		c-0.9-1.1-1.4-2.4-1.4-3.8c-0.1-1.4,0.4-2.8,1.3-3.8c2-1.9,5-1.9,7,0c0.9,1.1,1.4,2.5,1.3,3.9L119.6,132.5z M117.2,130.6
		c-0.2-1.1-1.2-1.9-2.3-1.8c-0.3,0-0.5,0-0.8,0.1c-0.3,0.1-0.5,0.2-0.7,0.4c-0.2,0.2-0.4,0.4-0.5,0.6c-0.2,0.2-0.3,0.5-0.3,0.8
		L117.2,130.6z"/>
	<path class="st3" d="M119.6,132.5h-7.2c0,0.7,0.3,1.5,0.8,2c0.9,0.8,2.2,1,3.2,0.3c0.5-0.4,0.9-0.9,1.3-1.5l2,1.1
		c-0.3,0.5-0.6,0.9-1,1.3c-0.3,0.4-0.7,0.7-1.1,0.9c-0.4,0.2-0.8,0.4-1.2,0.5c-0.5,0.1-1,0.2-1.5,0.2c-1.3,0.1-2.6-0.5-3.6-1.4
		c-0.9-1.1-1.4-2.4-1.4-3.8c-0.1-1.4,0.4-2.8,1.3-3.8c2-1.9,5-1.9,7,0c0.9,1.1,1.4,2.5,1.3,3.9L119.6,132.5z M117.2,130.6
		c-0.2-1.1-1.2-1.9-2.3-1.8c-0.3,0-0.5,0-0.8,0.1c-0.3,0.1-0.5,0.2-0.7,0.4c-0.2,0.2-0.4,0.4-0.5,0.6c-0.2,0.2-0.3,0.5-0.3,0.8
		L117.2,130.6z"/>
	<path class="st0" d="M122.1,126.9h2.3v0.9c0.3-0.4,0.7-0.7,1.1-0.9c0.4-0.2,0.8-0.3,1.2-0.2c0.7,0,1.3,0.2,1.9,0.6l-1.1,2.1
		c-0.4-0.3-0.8-0.5-1.3-0.5c-1.3,0-1.9,1-1.9,2.8v5.2H122L122.1,126.9L122.1,126.9z"/>
	<path class="st3" d="M122.1,126.9h2.3v0.9c0.3-0.4,0.7-0.7,1.1-0.9c0.4-0.2,0.8-0.3,1.2-0.2c0.7,0,1.3,0.2,1.9,0.6l-1.1,2.1
		c-0.4-0.3-0.8-0.5-1.3-0.5c-1.3,0-1.9,1-1.9,2.8v5.2H122L122.1,126.9L122.1,126.9z"/>
</g>
</svg>
