<?xml version="1.0" encoding="utf-8"?>
<!-- Generator: Adobe Illustrator 24.0.1, SVG Export Plug-In . SVG Version: 6.00 Build 0)  -->
<svg version="1.1" xmlns="http://www.w3.org/2000/svg" xmlns:xlink="http://www.w3.org/1999/xlink" x="0px" y="0px"
	 viewBox="0 0 147.8 147.8" style="enable-background:new 0 0 147.8 147.8;" xml:space="preserve">
<style type="text/css">
	.st0{fill:#FFFFFF;}
	.st1{clip-path:url(#SVGID_2_);}
	.st2{stroke:#FF0000;stroke-width:28.8;}
	.st3{fill:none;stroke:#000000;stroke-width:3.75;stroke-linejoin:round;}
	.st4{fill:none;stroke:#000000;stroke-width:0.5;}
</style>
<g id="Layer_2">
	<title>Victor</title>
	<rect x="1.9" y="1.9" class="st0" width="144" height="144"/>
	<g>
		<defs>
			<rect id="SVGID_1_" x="1.9" y="1.9" width="144" height="144"/>
		</defs>
		<clipPath id="SVGID_2_">
			<use xlink:href="#SVGID_1_"  style="overflow:visible;"/>
		</clipPath>
		<g class="st1">
			<path class="st2" d="M1.9,1.9l144,144 M145.9,1.9L53.8,94.1L1.9,145.9"/>
		</g>
	</g>
	<path class="st3" d="M1.9,1.9h144v144H1.9V1.9z"/>
</g>
<g id="Layer_1">
	<rect x="34.9" y="102" class="st0" width="2.4" height="15.8"/>
	<rect x="34.9" y="102" class="st4" width="2.4" height="15.8"/>
	<path class="st0" d="M47.2,107.9h2.3v0.9c0.3-0.4,0.7-0.7,1.1-0.9c0.4-0.2,0.8-0.3,1.2-0.3c0.7,0,1.3,0.2,1.9,0.6l-1.1,2.1
		c-0.4-0.3-0.8-0.5-1.3-0.5c-1.3,0-1.9,1-1.9,2.8v5.2h-2.3L47.2,107.9z"/>
	<path class="st4" d="M47.2,107.9h2.3v0.9c0.3-0.4,0.7-0.7,1.1-0.9c0.4-0.2,0.8-0.3,1.2-0.3c0.7,0,1.3,0.2,1.9,0.6l-1.1,2.1
		c-0.4-0.3-0.8-0.5-1.3-0.5c-1.3,0-1.9,1-1.9,2.8v5.2h-2.3L47.2,107.9z"/>
	<path class="st0" d="M64,113.4h-7.1c0,0.7,0.3,1.5,0.8,2c0.5,0.5,1.1,0.7,1.8,0.7c0.5,0,1-0.1,1.4-0.4c0.5-0.5,0.9-1,1.3-1.6
		l1.9,1.1c-0.3,0.5-0.6,0.9-1,1.3c-0.3,0.4-0.7,0.7-1.1,0.9c-0.4,0.2-0.8,0.4-1.2,0.5c-0.5,0.1-0.9,0.2-1.4,0.2
		c-1.3,0.1-2.6-0.5-3.6-1.4c-0.9-1.1-1.4-2.4-1.4-3.8c-0.1-1.4,0.4-2.8,1.3-3.8c0.9-1,2.2-1.5,3.5-1.4c1.3-0.1,2.6,0.5,3.5,1.4
		c0.9,1.1,1.4,2.5,1.3,3.9V113.4z M61.6,111.5c-0.2-1.1-1.2-1.9-2.3-1.8c-0.3,0-0.5,0-0.8,0.1c-0.3,0.1-0.5,0.2-0.7,0.4
		c-0.2,0.2-0.4,0.4-0.5,0.6c-0.2,0.2-0.3,0.5-0.3,0.8L61.6,111.5z"/>
	<path class="st4" d="M64,113.4h-7.1c0,0.7,0.3,1.5,0.8,2c0.5,0.5,1.1,0.7,1.8,0.7c0.5,0,1-0.1,1.4-0.4c0.5-0.5,0.9-1,1.3-1.6
		l1.9,1.1c-0.3,0.5-0.6,0.9-1,1.3c-0.3,0.4-0.7,0.7-1.1,0.9c-0.4,0.2-0.8,0.4-1.2,0.5c-0.5,0.1-0.9,0.2-1.4,0.2
		c-1.3,0.1-2.6-0.5-3.6-1.4c-0.9-1.1-1.4-2.4-1.4-3.8c-0.1-1.4,0.4-2.8,1.3-3.8c0.9-1,2.2-1.5,3.5-1.4c1.3-0.1,2.6,0.5,3.5,1.4
		c0.9,1.1,1.4,2.5,1.3,3.9V113.4z M61.6,111.5c-0.2-1.1-1.2-1.9-2.3-1.8c-0.3,0-0.5,0-0.8,0.1c-0.3,0.1-0.5,0.2-0.7,0.4
		c-0.2,0.2-0.4,0.4-0.5,0.6c-0.2,0.2-0.3,0.5-0.3,0.8L61.6,111.5z"/>
	<path class="st0" d="M73.9,123.3v-6.5c-1.6,1.8-4.3,1.9-6.1,0.3c0,0-0.1-0.1-0.1-0.1l-0.3-0.3c-0.9-1-1.4-2.4-1.3-3.8
		c-0.1-1.4,0.4-2.8,1.3-3.8c0.8-1,2.1-1.5,3.4-1.5c1.2,0,2.3,0.5,3.1,1.4v-1.1h2.3v15.4L73.9,123.3z M68.4,112.8
		c-0.1,0.8,0.2,1.7,0.8,2.3c0.5,0.6,1.2,0.9,2,0.9c0.8,0,1.6-0.3,2.1-0.9c1.1-1.3,1.1-3.3,0-4.6c-1-1.1-2.7-1.2-3.8-0.2
		c-0.1,0.1-0.2,0.1-0.2,0.2C68.8,111.1,68.4,111.9,68.4,112.8z"/>
	<path class="st4" d="M73.9,123.3v-6.5c-1.6,1.8-4.3,1.9-6.1,0.3c0,0-0.1-0.1-0.1-0.1l-0.3-0.3c-0.9-1-1.4-2.4-1.3-3.8
		c-0.1-1.4,0.4-2.8,1.3-3.8c0.8-1,2.1-1.5,3.4-1.5c1.2,0,2.3,0.5,3.1,1.4v-1.1h2.3v15.4L73.9,123.3z M68.4,112.8
		c-0.1,0.8,0.2,1.7,0.8,2.3c0.5,0.6,1.2,0.9,2,0.9c0.8,0,1.6-0.3,2.1-0.9c1.1-1.3,1.1-3.3,0-4.6c-1-1.1-2.7-1.2-3.8-0.2
		c-0.1,0.1-0.2,0.1-0.2,0.2C68.8,111.1,68.4,111.9,68.4,112.8z"/>
	<path class="st0" d="M81.6,107.9v5.7c0,1.7,0.6,2.5,2,2.5s2-0.8,2-2.5v-5.7h2.3v5.8c0,0.7-0.1,1.4-0.3,2.1c-0.2,0.5-0.6,1-1,1.4
		c-1.7,1.3-4.1,1.3-5.9,0c-0.4-0.4-0.8-0.9-1-1.4c-0.2-0.7-0.3-1.4-0.3-2.1v-5.8H81.6z"/>
	<path class="st4" d="M81.6,107.9v5.7c0,1.7,0.6,2.5,2,2.5s2-0.8,2-2.5v-5.7h2.3v5.8c0,0.7-0.1,1.4-0.3,2.1c-0.2,0.5-0.6,1-1,1.4
		c-1.7,1.3-4.1,1.3-5.9,0c-0.4-0.4-0.8-0.9-1-1.4c-0.2-0.7-0.3-1.4-0.3-2.1v-5.8H81.6z"/>
	<path class="st0" d="M90.4,103.7c0-0.4,0.2-0.7,0.4-1c0.3-0.3,0.7-0.4,1.1-0.4c0.4,0,0.8,0.2,1.1,0.4c0.3,0.3,0.4,0.7,0.4,1.1
		c0,0.4-0.2,0.8-0.4,1.1c-0.3,0.3-0.7,0.5-1.1,0.4C91.1,105.2,90.4,104.5,90.4,103.7C90.4,103.7,90.4,103.7,90.4,103.7z M93.1,107.9
		v10h-2.3v-10H93.1z"/>
	<path class="st4" d="M90.4,103.7c0-0.4,0.2-0.7,0.4-1c0.3-0.3,0.7-0.4,1.1-0.4c0.4,0,0.8,0.2,1.1,0.4c0.3,0.3,0.4,0.7,0.4,1.1
		c0,0.4-0.2,0.8-0.4,1.1c-0.3,0.3-0.7,0.5-1.1,0.4C91.1,105.2,90.4,104.5,90.4,103.7C90.4,103.7,90.4,103.7,90.4,103.7z M93.1,107.9
		v10h-2.3v-10H93.1z"/>
	<path class="st0" d="M96,107.9h2.3v0.9c0.3-0.4,0.7-0.7,1.1-0.9c0.4-0.2,0.8-0.3,1.2-0.3c0.7,0,1.3,0.2,1.9,0.6l-1.1,2.1
		c-0.4-0.3-0.8-0.5-1.3-0.5c-1.3,0-1.9,1-1.9,2.8v5.2h-2.3L96,107.9L96,107.9z"/>
	<path class="st4" d="M96,107.9h2.3v0.9c0.3-0.4,0.7-0.7,1.1-0.9c0.4-0.2,0.8-0.3,1.2-0.3c0.7,0,1.3,0.2,1.9,0.6l-1.1,2.1
		c-0.4-0.3-0.8-0.5-1.3-0.5c-1.3,0-1.9,1-1.9,2.8v5.2h-2.3L96,107.9L96,107.9z"/>
	<path class="st0" d="M112.8,113.4h-7.2c0,0.7,0.3,1.5,0.8,2c0.5,0.5,1.1,0.7,1.8,0.7c0.5,0,1-0.1,1.4-0.4c0.5-0.5,0.9-1,1.3-1.6
		l1.9,1.1c-0.3,0.5-0.6,0.9-1,1.3c-0.3,0.4-0.7,0.7-1.1,0.9c-0.4,0.2-0.8,0.4-1.2,0.5c-0.5,0.1-0.9,0.2-1.4,0.2
		c-1.3,0.1-2.6-0.5-3.6-1.4c-0.9-1.1-1.4-2.4-1.4-3.8c-0.1-1.4,0.4-2.8,1.3-3.8c0.9-1,2.2-1.5,3.5-1.4c1.3-0.1,2.6,0.5,3.5,1.4
		c0.9,1.1,1.4,2.5,1.3,3.9L112.8,113.4z M110.4,111.5c-0.4-1.3-1.8-2.1-3.2-1.7c-0.3,0.1-0.5,0.2-0.7,0.4c-0.2,0.2-0.4,0.4-0.5,0.6
		c-0.2,0.2-0.3,0.5-0.3,0.8L110.4,111.5z"/>
	<path class="st4" d="M112.8,113.4h-7.2c0,0.7,0.3,1.5,0.8,2c0.5,0.5,1.1,0.7,1.8,0.7c0.5,0,1-0.1,1.4-0.4c0.5-0.5,0.9-1,1.3-1.6
		l1.9,1.1c-0.3,0.5-0.6,0.9-1,1.3c-0.3,0.4-0.7,0.7-1.1,0.9c-0.4,0.2-0.8,0.4-1.2,0.5c-0.5,0.1-0.9,0.2-1.4,0.2
		c-1.3,0.1-2.6-0.5-3.6-1.4c-0.9-1.1-1.4-2.4-1.4-3.8c-0.1-1.4,0.4-2.8,1.3-3.8c0.9-1,2.2-1.5,3.5-1.4c1.3-0.1,2.6,0.5,3.5,1.4
		c0.9,1.1,1.4,2.5,1.3,3.9L112.8,113.4z M110.4,111.5c-0.4-1.3-1.8-2.1-3.2-1.7c-0.3,0.1-0.5,0.2-0.7,0.4c-0.2,0.2-0.4,0.4-0.5,0.6
		c-0.2,0.2-0.3,0.5-0.3,0.8L110.4,111.5z"/>
	<path class="st0" d="M35.2,128.9h2.3v10h-2.3v-1c-1.7,1.8-4.5,1.8-6.3,0.1c0,0,0,0,0,0l-0.2-0.2c-0.9-1.1-1.4-2.4-1.4-3.8
		c-0.1-1.4,0.4-2.8,1.3-3.8c0.9-1,2.1-1.5,3.4-1.5c1.2,0,2.3,0.5,3.1,1.4L35.2,128.9z M29.7,133.9c0,0.8,0.2,1.7,0.8,2.3
		c0.5,0.6,1.2,0.9,2,0.9c0.8,0,1.6-0.3,2.1-0.9c1.1-1.3,1.1-3.3,0-4.6c-0.5-0.6-1.2-0.9-2-0.9c-0.8,0-1.5,0.3-2,0.9
		C30,132.2,29.7,133,29.7,133.9z"/>
	<path class="st4" d="M35.2,128.9h2.3v10h-2.3v-1c-1.7,1.8-4.5,1.8-6.3,0.1c0,0,0,0,0,0l-0.2-0.2c-0.9-1.1-1.4-2.4-1.4-3.8
		c-0.1-1.4,0.4-2.8,1.3-3.8c0.9-1,2.1-1.5,3.4-1.5c1.2,0,2.3,0.5,3.1,1.4L35.2,128.9z M29.7,133.9c0,0.8,0.2,1.7,0.8,2.3
		c0.5,0.6,1.2,0.9,2,0.9c0.8,0,1.6-0.3,2.1-0.9c1.1-1.3,1.1-3.3,0-4.6c-0.5-0.6-1.2-0.9-2-0.9c-0.8,0-1.5,0.3-2,0.9
		C30,132.2,29.7,133,29.7,133.9z"/>
	<path class="st0" d="M46.2,130.6l-1.9,1c-0.3-0.6-0.7-0.9-1.1-0.9c-0.4,0-0.7,0.3-0.7,0.7c0,0,0,0,0,0c0,0.4,0.5,0.8,1.3,1.1
		c0.9,0.3,1.8,0.8,2.5,1.5c0.4,0.5,0.7,1.1,0.6,1.8c0,0.9-0.4,1.8-1.1,2.4c-1.6,1.4-4,1.2-5.4-0.4c0,0,0,0,0,0
		c-0.3-0.3-0.5-0.7-0.7-1.1l2-0.9l0.6,0.9c0.3,0.3,0.6,0.4,1,0.4c0.8,0,1.2-0.3,1.2-1.1c0-0.4-0.3-0.8-0.9-1.2l-0.7-0.3l-0.7-0.3
		c-0.5-0.2-1-0.6-1.4-1c-0.4-0.5-0.5-1-0.5-1.6c0-0.8,0.3-1.6,0.9-2.2c0.6-0.6,1.4-0.9,2.2-0.8C44.6,128.6,45.8,129.4,46.2,130.6z"
		/>
	<path class="st4" d="M46.2,130.6l-1.9,1c-0.3-0.6-0.7-0.9-1.1-0.9c-0.4,0-0.7,0.3-0.7,0.7c0,0,0,0,0,0c0,0.4,0.5,0.8,1.3,1.1
		c0.9,0.3,1.8,0.8,2.5,1.5c0.4,0.5,0.7,1.1,0.6,1.8c0,0.9-0.4,1.8-1.1,2.4c-1.6,1.4-4,1.2-5.4-0.4c0,0,0,0,0,0
		c-0.3-0.3-0.5-0.7-0.7-1.1l2-0.9l0.6,0.9c0.3,0.3,0.6,0.4,1,0.4c0.8,0,1.2-0.3,1.2-1.1c0-0.4-0.3-0.8-0.9-1.2l-0.7-0.3l-0.7-0.3
		c-0.5-0.2-1-0.6-1.4-1c-0.4-0.5-0.5-1-0.5-1.6c0-0.8,0.3-1.6,0.9-2.2c0.6-0.6,1.4-0.9,2.2-0.8C44.6,128.6,45.8,129.4,46.2,130.6z"
		/>
	<path class="st0" d="M54.7,130.6l-1.9,1c-0.3-0.6-0.7-0.9-1.1-0.9c-0.4,0-0.7,0.3-0.7,0.7c0,0,0,0,0,0c0,0.4,0.4,0.8,1.3,1.1
		c0.9,0.3,1.8,0.8,2.5,1.5c0.4,0.5,0.7,1.1,0.6,1.8c0,0.9-0.4,1.8-1.1,2.4c-1.6,1.4-4,1.2-5.4-0.4c0,0,0,0,0,0
		c-0.3-0.3-0.5-0.7-0.7-1.1l2-0.9l0.6,0.9c0.3,0.3,0.6,0.4,1,0.4c0.8,0,1.2-0.3,1.2-1.1c0-0.4-0.3-0.8-0.9-1.2l-0.7-0.3l-0.7-0.3
		c-0.5-0.2-1-0.6-1.4-1c-0.4-0.4-0.6-1-0.5-1.6c0-0.8,0.3-1.6,0.9-2.2c0.6-0.6,1.4-0.9,2.2-0.8C53.1,128.6,54.3,129.4,54.7,130.6z"
		/>
	<path class="st4" d="M54.7,130.6l-1.9,1c-0.3-0.6-0.7-0.9-1.1-0.9c-0.4,0-0.7,0.3-0.7,0.7c0,0,0,0,0,0c0,0.4,0.4,0.8,1.3,1.1
		c0.9,0.3,1.8,0.8,2.5,1.5c0.4,0.5,0.7,1.1,0.6,1.8c0,0.9-0.4,1.8-1.1,2.4c-1.6,1.4-4,1.2-5.4-0.4c0,0,0,0,0,0
		c-0.3-0.3-0.5-0.7-0.7-1.1l2-0.9l0.6,0.9c0.3,0.3,0.6,0.4,1,0.4c0.8,0,1.2-0.3,1.2-1.1c0-0.4-0.3-0.8-0.9-1.2l-0.7-0.3l-0.7-0.3
		c-0.5-0.2-1-0.6-1.4-1c-0.4-0.4-0.6-1-0.5-1.6c0-0.8,0.3-1.6,0.9-2.2c0.6-0.6,1.4-0.9,2.2-0.8C53.1,128.6,54.3,129.4,54.7,130.6z"
		/>
	<path class="st0" d="M57.1,124.7c0-0.8,0.6-1.4,1.4-1.4c0.1,0,0.1,0,0.2,0c0.4,0,0.7,0.2,1,0.4c0.3,0.3,0.5,0.7,0.4,1.1
		c0,0.4-0.2,0.8-0.4,1.1c-0.2,0.3-0.6,0.5-1,0.4c-0.4,0-0.8-0.1-1.1-0.4C57.2,125.6,57,125.1,57.1,124.7z M59.7,128.9v10h-2.3v-10
		H59.7z"/>
	<path class="st4" d="M57.1,124.7c0-0.8,0.6-1.4,1.4-1.4c0.1,0,0.1,0,0.2,0c0.4,0,0.7,0.2,1,0.4c0.3,0.3,0.5,0.7,0.4,1.1
		c0,0.4-0.2,0.8-0.4,1.1c-0.2,0.3-0.6,0.5-1,0.4c-0.4,0-0.8-0.1-1.1-0.4C57.2,125.6,57,125.1,57.1,124.7z M59.7,128.9v10h-2.3v-10
		H59.7z"/>
	<path class="st0" d="M68.5,130.6l-1.9,1c-0.3-0.6-0.7-0.9-1.1-0.9c-0.4,0-0.7,0.3-0.7,0.7c0,0,0,0,0,0c0,0.4,0.4,0.8,1.3,1.1
		c0.9,0.3,1.8,0.8,2.5,1.5c0.4,0.5,0.7,1.1,0.6,1.8c0,0.9-0.4,1.8-1.1,2.4c-1.6,1.4-4,1.2-5.4-0.4c0,0,0,0,0,0
		c-0.3-0.3-0.5-0.7-0.7-1.1l2-0.9l0.6,0.9c0.3,0.3,0.6,0.4,1,0.4c0.8,0,1.2-0.3,1.2-1.1c0-0.4-0.3-0.8-0.9-1.2l-0.7-0.3l-0.7-0.3
		c-0.5-0.2-1-0.6-1.4-1c-0.4-0.4-0.6-1-0.5-1.6c0-0.8,0.3-1.6,0.9-2.2c0.6-0.6,1.4-0.9,2.2-0.8C66.9,128.6,68,129.4,68.5,130.6z"/>
	<path class="st4" d="M68.5,130.6l-1.9,1c-0.3-0.6-0.7-0.9-1.1-0.9c-0.4,0-0.7,0.3-0.7,0.7c0,0,0,0,0,0c0,0.4,0.4,0.8,1.3,1.1
		c0.9,0.3,1.8,0.8,2.5,1.5c0.4,0.5,0.7,1.1,0.6,1.8c0,0.9-0.4,1.8-1.1,2.4c-1.6,1.4-4,1.2-5.4-0.4c0,0,0,0,0,0
		c-0.3-0.3-0.5-0.7-0.7-1.1l2-0.9l0.6,0.9c0.3,0.3,0.6,0.4,1,0.4c0.8,0,1.2-0.3,1.2-1.1c0-0.4-0.3-0.8-0.9-1.2l-0.7-0.3l-0.7-0.3
		c-0.5-0.2-1-0.6-1.4-1c-0.4-0.4-0.6-1-0.5-1.6c0-0.8,0.3-1.6,0.9-2.2c0.6-0.6,1.4-0.9,2.2-0.8C66.9,128.6,68,129.4,68.5,130.6z"/>
	<polygon class="st0" points="73.6,131 73.6,138.8 71.3,138.8 71.3,131 70.3,131 70.3,128.8 71.3,128.8 71.3,125.1 73.6,125.1 
		73.6,128.8 75.4,128.8 75.4,131 	"/>
	<polygon class="st4" points="73.6,131 73.6,138.8 71.3,138.8 71.3,131 70.3,131 70.3,128.8 71.3,128.8 71.3,125.1 73.6,125.1 
		73.6,128.8 75.4,128.8 75.4,131 	"/>
	<path class="st0" d="M84.5,128.9h2.3v10h-2.3v-1c-1.7,1.8-4.5,1.8-6.3,0.1c0,0,0,0,0,0l-0.2-0.2c-0.9-1.1-1.4-2.4-1.4-3.8
		c-0.1-1.4,0.4-2.8,1.4-3.8c0.9-1,2.1-1.5,3.4-1.5c1.2,0,2.3,0.5,3.1,1.4V128.9z M79,133.9c0,0.8,0.2,1.7,0.8,2.3
		c0.5,0.6,1.2,0.9,2,0.9c0.8,0,1.6-0.3,2.1-0.9c1.1-1.3,1.1-3.3,0-4.6c-0.5-0.6-1.2-0.9-2-0.9c-0.8,0-1.5,0.3-2,0.9
		C79.3,132.2,79,133,79,133.9z"/>
	<path class="st4" d="M84.5,128.9h2.3v10h-2.3v-1c-1.7,1.8-4.5,1.8-6.3,0.1c0,0,0,0,0,0l-0.2-0.2c-0.9-1.1-1.4-2.4-1.4-3.8
		c-0.1-1.4,0.4-2.8,1.4-3.8c0.9-1,2.1-1.5,3.4-1.5c1.2,0,2.3,0.5,3.1,1.4V128.9z M79,133.9c0,0.8,0.2,1.7,0.8,2.3
		c0.5,0.6,1.2,0.9,2,0.9c0.8,0,1.6-0.3,2.1-0.9c1.1-1.3,1.1-3.3,0-4.6c-0.5-0.6-1.2-0.9-2-0.9c-0.8,0-1.5,0.3-2,0.9
		C79.3,132.2,79,133,79,133.9z"/>
	<path class="st0" d="M89.7,128.9h2.4v0.9c0.7-0.8,1.7-1.2,2.7-1.2c1-0.1,2,0.3,2.7,1.1c0.6,0.9,0.9,2,0.8,3.1v6.1H96v-5.6
		c0.1-0.7-0.1-1.4-0.4-2c-0.4-0.4-0.9-0.6-1.5-0.6c-0.6-0.1-1.3,0.2-1.6,0.8c-0.4,0.8-0.6,1.7-0.5,2.6v4.8h-2.3L89.7,128.9z"/>
	<path class="st4" d="M89.7,128.9h2.4v0.9c0.7-0.8,1.7-1.2,2.7-1.2c1-0.1,2,0.3,2.7,1.1c0.6,0.9,0.9,2,0.8,3.1v6.1H96v-5.6
		c0.1-0.7-0.1-1.4-0.4-2c-0.4-0.4-0.9-0.6-1.5-0.6c-0.6-0.1-1.3,0.2-1.6,0.8c-0.4,0.8-0.6,1.7-0.5,2.6v4.8h-2.3L89.7,128.9z"/>
	<path class="st0" d="M109,129.3v3.1c-0.4-0.5-0.9-0.9-1.4-1.3c-1.2-0.7-2.7-0.4-3.6,0.6c-1.1,1.3-1.1,3.3,0,4.6
		c0.5,0.6,1.3,0.9,2.1,0.9c0.5,0,1-0.1,1.5-0.4c0.5-0.4,1-0.8,1.4-1.3v3c-0.9,0.5-1.8,0.7-2.8,0.7c-1.4,0-2.8-0.5-3.9-1.5
		c-1-1-1.6-2.4-1.6-3.8c0-1.4,0.6-2.8,1.6-3.8c1-1,2.4-1.6,3.9-1.5C107.2,128.6,108.1,128.8,109,129.3z"/>
	<path class="st4" d="M109,129.3v3.1c-0.4-0.5-0.9-0.9-1.4-1.3c-1.2-0.7-2.7-0.4-3.6,0.6c-1.1,1.3-1.1,3.3,0,4.6
		c0.5,0.6,1.3,0.9,2.1,0.9c0.5,0,1-0.1,1.5-0.4c0.5-0.4,1-0.8,1.4-1.3v3c-0.9,0.5-1.8,0.7-2.8,0.7c-1.4,0-2.8-0.5-3.9-1.5
		c-1-1-1.6-2.4-1.6-3.8c0-1.4,0.6-2.8,1.6-3.8c1-1,2.4-1.6,3.9-1.5C107.2,128.6,108.1,128.8,109,129.3z"/>
	<path class="st0" d="M120.3,134.4h-7.1c0,0.7,0.3,1.5,0.8,2c0.5,0.5,1.1,0.7,1.8,0.7c0.5,0,1-0.1,1.4-0.4c0.5-0.5,0.9-1,1.3-1.6
		l2,1.1c-0.3,0.5-0.6,0.9-1,1.3c-0.3,0.4-0.7,0.7-1.1,0.9c-0.4,0.2-0.8,0.4-1.2,0.5c-0.5,0.1-1,0.2-1.5,0.2
		c-1.4,0.1-2.7-0.4-3.6-1.4c-0.9-1.1-1.4-2.4-1.4-3.8c-0.1-1.4,0.4-2.8,1.4-3.8c2-1.9,5-1.9,7,0c0.9,1.1,1.4,2.5,1.3,3.9
		L120.3,134.4z M118,132.5c-0.2-1.1-1.2-1.9-2.3-1.8c-0.3,0-0.5,0-0.8,0.1c-0.3,0.1-0.5,0.2-0.7,0.4c-0.2,0.2-0.4,0.4-0.5,0.6
		c-0.2,0.2-0.3,0.5-0.3,0.8C113.4,132.6,118,132.5,118,132.5z"/>
	<path class="st4" d="M120.3,134.4h-7.1c0,0.7,0.3,1.5,0.8,2c0.5,0.5,1.1,0.7,1.8,0.7c0.5,0,1-0.1,1.4-0.4c0.5-0.5,0.9-1,1.3-1.6
		l2,1.1c-0.3,0.5-0.6,0.9-1,1.3c-0.3,0.4-0.7,0.7-1.1,0.9c-0.4,0.2-0.8,0.4-1.2,0.5c-0.5,0.1-1,0.2-1.5,0.2
		c-1.4,0.1-2.7-0.4-3.6-1.4c-0.9-1.1-1.4-2.4-1.4-3.8c-0.1-1.4,0.4-2.8,1.4-3.8c2-1.9,5-1.9,7,0c0.9,1.1,1.4,2.5,1.3,3.9
		L120.3,134.4z M118,132.5c-0.2-1.1-1.2-1.9-2.3-1.8c-0.3,0-0.5,0-0.8,0.1c-0.3,0.1-0.5,0.2-0.7,0.4c-0.2,0.2-0.4,0.4-0.5,0.6
		c-0.2,0.2-0.3,0.5-0.3,0.8C113.4,132.6,118,132.5,118,132.5z"/>
</g>
</svg>
