<?xml version="1.0" encoding="utf-8"?>
<!-- Generator: Adobe Illustrator 24.0.1, SVG Export Plug-In . SVG Version: 6.00 Build 0)  -->
<svg version="1.1" xmlns="http://www.w3.org/2000/svg" xmlns:xlink="http://www.w3.org/1999/xlink" x="0px" y="0px"
	 viewBox="0 0 147.8 147.8" style="enable-background:new 0 0 147.8 147.8;" xml:space="preserve">
<style type="text/css">
	.st0{fill:#000094;}
	.st1{fill:#FFFFFF;}
	.st2{fill:#FF0000;}
	.st3{fill:none;stroke:#000000;stroke-width:3.75;stroke-linejoin:round;}
	.st4{fill:none;stroke:#000000;stroke-width:0.3;}
</style>
<g id="Layer_2">
	<title>Whisky</title>
	<rect x="1.9" y="1.9" class="st0" width="144" height="144"/>
	<rect x="25.9" y="25.9" class="st1" width="96" height="96"/>
	<rect x="49.9" y="49.9" class="st2" width="48" height="48"/>
	<path class="st3" d="M1.9,1.9h144v144H1.9V1.9z"/>
</g>
<g id="Layer_1">
	<rect x="47.7" y="110.9" class="st1" width="1.7" height="11.1"/>
	<rect x="47.7" y="110.9" class="st4" width="1.7" height="11.1"/>
	<path class="st1" d="M56.3,115h1.6v0.6c0.2-0.3,0.5-0.5,0.8-0.6c0.3-0.2,0.6-0.2,0.8-0.2c0.5,0,0.9,0.2,1.3,0.4l-0.7,1.5
		c-0.3-0.2-0.6-0.3-0.9-0.4c-0.8,0-1.3,0.6-1.3,2v3.7h-1.6V115z"/>
	<path class="st4" d="M56.3,115h1.6v0.6c0.2-0.3,0.5-0.5,0.8-0.6c0.3-0.2,0.6-0.2,0.8-0.2c0.5,0,0.9,0.2,1.3,0.4l-0.7,1.5
		c-0.3-0.2-0.6-0.3-0.9-0.4c-0.8,0-1.3,0.6-1.3,2v3.7h-1.6V115z"/>
	<path class="st1" d="M68.2,118.9h-5.1c0,0.5,0.2,1,0.6,1.4c0.3,0.3,0.8,0.5,1.3,0.5c0.4,0,0.7-0.1,1-0.3c0.4-0.3,0.7-0.7,0.9-1.1
		l1.3,0.7c-0.2,0.3-0.4,0.6-0.7,0.9c-0.2,0.3-0.5,0.5-0.8,0.6c-0.3,0.1-0.6,0.3-0.8,0.3c-0.3,0.1-0.7,0.1-1,0.1
		c-0.9,0-1.9-0.3-2.5-1c-0.6-0.7-1-1.7-1-2.7c-0.1-1,0.3-1.9,0.9-2.7c1.4-1.3,3.5-1.3,4.9,0c0.7,0.8,1,1.7,1,2.8L68.2,118.9z
		 M66.5,117.6c-0.2-0.8-0.8-1.3-1.6-1.3c-0.2,0-0.4,0-0.6,0.1c-0.2,0.1-0.3,0.2-0.5,0.3c-0.1,0.1-0.3,0.3-0.3,0.4
		c-0.1,0.2-0.2,0.4-0.2,0.6H66.5z"/>
	<path class="st4" d="M68.2,118.9h-5.1c0,0.5,0.2,1,0.6,1.4c0.3,0.3,0.8,0.5,1.3,0.5c0.4,0,0.7-0.1,1-0.3c0.4-0.3,0.7-0.7,0.9-1.1
		l1.3,0.7c-0.2,0.3-0.4,0.6-0.7,0.9c-0.2,0.3-0.5,0.5-0.8,0.6c-0.3,0.1-0.6,0.3-0.8,0.3c-0.3,0.1-0.7,0.1-1,0.1
		c-0.9,0-1.9-0.3-2.5-1c-0.6-0.7-1-1.7-1-2.7c-0.1-1,0.3-1.9,0.9-2.7c1.4-1.3,3.5-1.3,4.9,0c0.7,0.8,1,1.7,1,2.8L68.2,118.9z
		 M66.5,117.6c-0.2-0.8-0.8-1.3-1.6-1.3c-0.2,0-0.4,0-0.6,0.1c-0.2,0.1-0.3,0.2-0.5,0.3c-0.1,0.1-0.3,0.3-0.3,0.4
		c-0.1,0.2-0.2,0.4-0.2,0.6H66.5z"/>
	<path class="st1" d="M75.1,125.9v-4.6c-0.5,0.6-1.3,1-2.2,1c-0.9,0-1.8-0.4-2.4-1.1c-0.6-0.7-1-1.6-0.9-2.6c0-1,0.3-1.9,0.9-2.7
		c0.6-0.7,1.5-1,2.4-1c0.8,0,1.6,0.4,2.2,1V115h1.6v10.8L75.1,125.9L75.1,125.9z M71.3,118.5c0,0.6,0.2,1.2,0.6,1.6
		c0.3,0.4,0.9,0.7,1.4,0.6c0.6,0,1.1-0.2,1.5-0.6c0.4-0.4,0.6-1,0.6-1.6c0-0.6-0.2-1.2-0.6-1.6c-0.7-0.8-1.9-0.8-2.7-0.1
		c0,0,0,0-0.1,0l-0.1,0.1C71.5,117.3,71.3,117.9,71.3,118.5z"/>
	<path class="st4" d="M75.1,125.9v-4.6c-0.5,0.6-1.3,1-2.2,1c-0.9,0-1.8-0.4-2.4-1.1c-0.6-0.7-1-1.6-0.9-2.6c0-1,0.3-1.9,0.9-2.7
		c0.6-0.7,1.5-1,2.4-1c0.8,0,1.6,0.4,2.2,1V115h1.6v10.8L75.1,125.9L75.1,125.9z M71.3,118.5c0,0.6,0.2,1.2,0.6,1.6
		c0.3,0.4,0.9,0.7,1.4,0.6c0.6,0,1.1-0.2,1.5-0.6c0.4-0.4,0.6-1,0.6-1.6c0-0.6-0.2-1.2-0.6-1.6c-0.7-0.8-1.9-0.8-2.7-0.1
		c0,0,0,0-0.1,0l-0.1,0.1C71.5,117.3,71.3,117.9,71.3,118.5z"/>
	<path class="st1" d="M80.6,115v4c0,1.2,0.5,1.8,1.4,1.8s1.4-0.6,1.4-1.8v-4H85v4.1c0,0.5-0.1,1-0.2,1.5c-0.2,0.4-0.4,0.7-0.7,1
		c-1.2,1-2.9,1-4.2,0c-0.3-0.3-0.5-0.6-0.7-1c-0.1-0.5-0.2-1-0.2-1.5V115H80.6z"/>
	<path class="st4" d="M80.6,115v4c0,1.2,0.5,1.8,1.4,1.8s1.4-0.6,1.4-1.8v-4H85v4.1c0,0.5-0.1,1-0.2,1.5c-0.2,0.4-0.4,0.7-0.7,1
		c-1.2,1-2.9,1-4.2,0c-0.3-0.3-0.5-0.6-0.7-1c-0.1-0.5-0.2-1-0.2-1.5V115H80.6z"/>
	<path class="st1" d="M86.8,112.1c0-0.6,0.5-1,1.1-1.1c0.3,0,0.5,0.1,0.8,0.3c0.2,0.2,0.3,0.5,0.3,0.8c0,0.3-0.1,0.5-0.3,0.8
		c-0.2,0.2-0.4,0.3-0.7,0.3c-0.3,0-0.6-0.1-0.8-0.3C86.9,112.6,86.8,112.4,86.8,112.1z M88.6,115v7H87v-7H88.6z"/>
	<path class="st4" d="M86.8,112.1c0-0.6,0.5-1,1.1-1.1c0.3,0,0.5,0.1,0.8,0.3c0.2,0.2,0.3,0.5,0.3,0.8c0,0.3-0.1,0.5-0.3,0.8
		c-0.2,0.2-0.4,0.3-0.7,0.3c-0.3,0-0.6-0.1-0.8-0.3C86.9,112.6,86.8,112.4,86.8,112.1z M88.6,115v7H87v-7H88.6z"/>
	<path class="st1" d="M90.7,115h1.6v0.6c0.2-0.3,0.5-0.5,0.8-0.6c0.3-0.2,0.6-0.2,0.8-0.2c0.5,0,0.9,0.2,1.3,0.4l-0.8,1.5
		c-0.3-0.2-0.6-0.3-0.9-0.4c-0.9,0-1.3,0.6-1.3,2v3.7h-1.6L90.7,115L90.7,115z"/>
	<path class="st4" d="M90.7,115h1.6v0.6c0.2-0.3,0.5-0.5,0.8-0.6c0.3-0.2,0.6-0.2,0.8-0.2c0.5,0,0.9,0.2,1.3,0.4l-0.8,1.5
		c-0.3-0.2-0.6-0.3-0.9-0.4c-0.9,0-1.3,0.6-1.3,2v3.7h-1.6L90.7,115L90.7,115z"/>
	<path class="st1" d="M102.6,118.9h-5c0,0.5,0.2,1,0.6,1.4c0.6,0.6,1.5,0.7,2.2,0.2c0.4-0.3,0.7-0.7,0.9-1.1l1.4,0.8
		c-0.2,0.3-0.4,0.6-0.7,0.9c-0.2,0.3-0.5,0.5-0.8,0.6c-0.3,0.1-0.6,0.3-0.8,0.3c-0.3,0.1-0.7,0.1-1.1,0.1c-0.9,0-1.9-0.3-2.5-1
		c-0.6-0.7-1-1.7-1-2.7c-0.1-1,0.3-1.9,0.9-2.7c0.6-0.7,1.5-1,2.5-1c0.9-0.1,1.8,0.3,2.5,1c0.6,0.8,1,1.8,0.9,2.8L102.6,118.9z
		 M100.9,117.6c-0.2-0.8-0.8-1.3-1.6-1.3c-0.2,0-0.4,0-0.6,0.1c-0.2,0.1-0.3,0.2-0.5,0.3c-0.1,0.1-0.3,0.3-0.3,0.4
		c-0.1,0.2-0.2,0.4-0.2,0.6H100.9z"/>
	<path class="st4" d="M102.6,118.9h-5c0,0.5,0.2,1,0.6,1.4c0.6,0.6,1.5,0.7,2.2,0.2c0.4-0.3,0.7-0.7,0.9-1.1l1.4,0.8
		c-0.2,0.3-0.4,0.6-0.7,0.9c-0.2,0.3-0.5,0.5-0.8,0.6c-0.3,0.1-0.6,0.3-0.8,0.3c-0.3,0.1-0.7,0.1-1.1,0.1c-0.9,0-1.9-0.3-2.5-1
		c-0.6-0.7-1-1.7-1-2.7c-0.1-1,0.3-1.9,0.9-2.7c0.6-0.7,1.5-1,2.5-1c0.9-0.1,1.8,0.3,2.5,1c0.6,0.8,1,1.8,0.9,2.8L102.6,118.9z
		 M100.9,117.6c-0.2-0.8-0.8-1.3-1.6-1.3c-0.2,0-0.4,0-0.6,0.1c-0.2,0.1-0.3,0.2-0.5,0.3c-0.1,0.1-0.3,0.3-0.3,0.4
		c-0.1,0.2-0.2,0.4-0.2,0.6H100.9z"/>
	<path class="st1" d="M8.4,133.1h1.8v0.7c0.2-0.3,0.5-0.5,0.8-0.8c0.3-0.2,0.7-0.2,1-0.1c0.8,0,1.6,0.4,2.1,1.1
		c0.5-0.7,1.3-1.1,2.2-1.1c1.7,0,2.6,1.1,2.6,3.1v4.7H17v-4.2c0-0.5-0.1-1-0.3-1.5c-0.2-0.3-0.5-0.5-0.9-0.5c-0.4,0-0.8,0.2-1.1,0.5
		c-0.3,0.5-0.4,1.1-0.3,1.7v3.9h-1.7v-4.2c0-1.4-0.4-2.1-1.1-2.1c-0.4,0-0.8,0.2-1.1,0.5c-0.3,0.5-0.4,1.1-0.3,1.7v3.9H8.5v-7.5H8.4
		z"/>
	<path class="st4" d="M8.4,133.1h1.8v0.7c0.2-0.3,0.5-0.5,0.8-0.8c0.3-0.2,0.7-0.2,1-0.1c0.8,0,1.6,0.4,2.1,1.1
		c0.5-0.7,1.3-1.1,2.2-1.1c1.7,0,2.6,1.1,2.6,3.1v4.7H17v-4.2c0-0.5-0.1-1-0.3-1.5c-0.2-0.3-0.5-0.5-0.9-0.5c-0.4,0-0.8,0.2-1.1,0.5
		c-0.3,0.5-0.4,1.1-0.3,1.7v3.9h-1.7v-4.2c0-1.4-0.4-2.1-1.1-2.1c-0.4,0-0.8,0.2-1.1,0.5c-0.3,0.5-0.4,1.1-0.3,1.7v3.9H8.5v-7.5H8.4
		z"/>
	<path class="st1" d="M27.9,137.3h-5.5c0,0.6,0.2,1.1,0.6,1.5c0.4,0.4,0.9,0.6,1.4,0.5c0.4,0,0.7-0.1,1.1-0.3c0.4-0.3,0.7-0.7,1-1.1
		l1.4,0.8c-0.2,0.3-0.4,0.7-0.7,1c-0.2,0.3-0.5,0.5-0.8,0.7c-0.3,0.2-0.6,0.3-0.9,0.4c-0.3,0.1-0.7,0.1-1.1,0.1c-1,0-2-0.4-2.7-1.1
		c-0.7-0.8-1.1-1.8-1.1-2.9c-0.1-1.1,0.3-2.1,1-2.9c0.7-0.7,1.7-1.1,2.6-1.1c1-0.1,2,0.3,2.7,1.1c0.7,0.8,1.1,1.9,1,3L27.9,137.3z
		 M26,135.9c-0.1-0.8-0.9-1.4-1.8-1.4c-0.2,0-0.4,0-0.6,0.1c-0.4,0.1-0.7,0.4-0.9,0.8c-0.2,0.2-0.2,0.4-0.2,0.6L26,135.9z"/>
	<path class="st4" d="M27.9,137.3h-5.5c0,0.6,0.2,1.1,0.6,1.5c0.4,0.4,0.9,0.6,1.4,0.5c0.4,0,0.7-0.1,1.1-0.3c0.4-0.3,0.7-0.7,1-1.1
		l1.4,0.8c-0.2,0.3-0.4,0.7-0.7,1c-0.2,0.3-0.5,0.5-0.8,0.7c-0.3,0.2-0.6,0.3-0.9,0.4c-0.3,0.1-0.7,0.1-1.1,0.1c-1,0-2-0.4-2.7-1.1
		c-0.7-0.8-1.1-1.8-1.1-2.9c-0.1-1.1,0.3-2.1,1-2.9c0.7-0.7,1.7-1.1,2.6-1.1c1-0.1,2,0.3,2.7,1.1c0.7,0.8,1.1,1.9,1,3L27.9,137.3z
		 M26,135.9c-0.1-0.8-0.9-1.4-1.8-1.4c-0.2,0-0.4,0-0.6,0.1c-0.4,0.1-0.7,0.4-0.9,0.8c-0.2,0.2-0.2,0.4-0.2,0.6L26,135.9z"/>
	<path class="st1" d="M35.4,127.6h1.7v13.1h-1.7v-0.8c-0.6,0.6-1.5,1-2.4,1c-1,0-1.9-0.4-2.5-1.2c-0.7-0.8-1.1-1.8-1.1-2.9
		c0-1,0.3-2.1,1.1-2.8c1.2-1.4,3.2-1.5,4.6-0.3c0,0,0,0,0.1,0c0.1,0.1,0.2,0.2,0.3,0.3L35.4,127.6z M31.2,136.9
		c0,0.6,0.2,1.3,0.6,1.8c0.4,0.4,0.9,0.7,1.5,0.7c0.6,0,1.2-0.2,1.6-0.7c0.8-1,0.8-2.5,0-3.5c-0.4-0.5-1-0.7-1.6-0.7
		c-0.6,0-1.1,0.2-1.5,0.7C31.4,135.6,31.2,136.3,31.2,136.9z"/>
	<path class="st4" d="M35.4,127.6h1.7v13.1h-1.7v-0.8c-0.6,0.6-1.5,1-2.4,1c-1,0-1.9-0.4-2.5-1.2c-0.7-0.8-1.1-1.8-1.1-2.9
		c0-1,0.3-2.1,1.1-2.8c1.2-1.4,3.2-1.5,4.6-0.3c0,0,0,0,0.1,0c0.1,0.1,0.2,0.2,0.3,0.3L35.4,127.6z M31.2,136.9
		c0,0.6,0.2,1.3,0.6,1.8c0.4,0.4,0.9,0.7,1.5,0.7c0.6,0,1.2-0.2,1.6-0.7c0.8-1,0.8-2.5,0-3.5c-0.4-0.5-1-0.7-1.6-0.7
		c-0.6,0-1.1,0.2-1.5,0.7C31.4,135.6,31.2,136.3,31.2,136.9z"/>
	<path class="st1" d="M39,130c0-0.6,0.5-1.1,1.1-1.1c0.3,0,0.6,0.1,0.8,0.3c0.2,0.2,0.4,0.5,0.3,0.8c0,0.6-0.5,1.1-1.1,1.1l0,0
		C39.5,131.1,39.1,130.6,39,130z M41,133.1v7.6h-1.7v-7.6H41z"/>
	<path class="st4" d="M39,130c0-0.6,0.5-1.1,1.1-1.1c0.3,0,0.6,0.1,0.8,0.3c0.2,0.2,0.4,0.5,0.3,0.8c0,0.6-0.5,1.1-1.1,1.1l0,0
		C39.5,131.1,39.1,130.6,39,130z M41,133.1v7.6h-1.7v-7.6H41z"/>
	<path class="st1" d="M49.2,133.5v2.4c-0.3-0.4-0.7-0.7-1.1-1c-0.3-0.2-0.7-0.3-1.1-0.3c-0.6,0-1.2,0.2-1.7,0.7
		c-0.5,0.5-0.7,1.1-0.7,1.8c0,0.6,0.2,1.2,0.6,1.7c0.4,0.5,1,0.7,1.6,0.7c0.4,0,0.8-0.1,1.1-0.3c0.4-0.3,0.8-0.6,1.1-1.1v2.3
		c-0.6,0.4-1.4,0.5-2.1,0.5c-1.1,0-2.2-0.4-3-1.1c-0.8-0.7-1.2-1.7-1.2-2.8c0-2.2,1.8-4,4-4c0.1,0,0.1,0,0.2,0
		C47.8,132.9,48.5,133.1,49.2,133.5z"/>
	<path class="st4" d="M49.2,133.5v2.4c-0.3-0.4-0.7-0.7-1.1-1c-0.3-0.2-0.7-0.3-1.1-0.3c-0.6,0-1.2,0.2-1.7,0.7
		c-0.5,0.5-0.7,1.1-0.7,1.8c0,0.6,0.2,1.2,0.6,1.7c0.4,0.5,1,0.7,1.6,0.7c0.4,0,0.8-0.1,1.1-0.3c0.4-0.3,0.8-0.6,1.1-1.1v2.3
		c-0.6,0.4-1.4,0.5-2.1,0.5c-1.1,0-2.2-0.4-3-1.1c-0.8-0.7-1.2-1.7-1.2-2.8c0-2.2,1.8-4,4-4c0.1,0,0.1,0,0.2,0
		C47.8,132.9,48.5,133.1,49.2,133.5z"/>
	<path class="st1" d="M56.5,133.1h1.8v7.6h-1.8v-0.8c-1.3,1.3-3.4,1.4-4.8,0.1c0,0,0,0,0,0c-0.1-0.1-0.2-0.2-0.2-0.2
		c-0.7-0.8-1.1-1.8-1.1-2.9c0-1.1,0.3-2.1,1-2.9c0.6-0.7,1.6-1.2,2.6-1.1c0.9,0,1.8,0.4,2.4,1.1V133.1z M52.3,136.9
		c0,0.6,0.2,1.3,0.6,1.8c0.4,0.4,0.9,0.7,1.5,0.7c0.6,0,1.2-0.2,1.6-0.7c0.8-1,0.8-2.5,0-3.5c-0.4-0.4-0.9-0.7-1.5-0.7
		c-0.6,0-1.1,0.2-1.5,0.7C52.6,135.6,52.3,136.2,52.3,136.9z"/>
	<path class="st4" d="M56.5,133.1h1.8v7.6h-1.8v-0.8c-1.3,1.3-3.4,1.4-4.8,0.1c0,0,0,0,0,0c-0.1-0.1-0.2-0.2-0.2-0.2
		c-0.7-0.8-1.1-1.8-1.1-2.9c0-1.1,0.3-2.1,1-2.9c0.6-0.7,1.6-1.2,2.6-1.1c0.9,0,1.8,0.4,2.4,1.1V133.1z M52.3,136.9
		c0,0.6,0.2,1.3,0.6,1.8c0.4,0.4,0.9,0.7,1.5,0.7c0.6,0,1.2-0.2,1.6-0.7c0.8-1,0.8-2.5,0-3.5c-0.4-0.4-0.9-0.7-1.5-0.7
		c-0.6,0-1.1,0.2-1.5,0.7C52.6,135.6,52.3,136.2,52.3,136.9z"/>
	<rect x="60.4" y="127.6" class="st1" width="1.7" height="13.1"/>
	<rect x="60.4" y="127.6" class="st4" width="1.7" height="13.1"/>
	<path class="st1" d="M73.7,132.3h1.7v7.6h-1.7v-0.8c-1.3,1.3-3.4,1.4-4.8,0.1c0,0,0,0,0,0c-0.1-0.1-0.2-0.1-0.2-0.2
		c-0.7-0.8-1.1-1.8-1.1-2.9c0-1.1,0.3-2.1,1.1-2.9c0.6-0.7,1.6-1.2,2.6-1.1c0.9,0,1.8,0.4,2.3,1.1V132.3z M69.6,136.1
		c0,0.6,0.2,1.3,0.6,1.7c0.4,0.5,0.9,0.7,1.5,0.7c0.6,0,1.2-0.3,1.6-0.7c0.8-1,0.8-2.5,0-3.5c-0.8-0.8-2.1-0.9-2.9-0.2
		c0,0-0.1,0.1-0.1,0.1l-0.1,0.1C69.8,134.8,69.5,135.4,69.6,136.1L69.6,136.1z"/>
	<path class="st4" d="M73.7,132.3h1.7v7.6h-1.7v-0.8c-1.3,1.3-3.4,1.4-4.8,0.1c0,0,0,0,0,0c-0.1-0.1-0.2-0.1-0.2-0.2
		c-0.7-0.8-1.1-1.8-1.1-2.9c0-1.1,0.3-2.1,1.1-2.9c0.6-0.7,1.6-1.2,2.6-1.1c0.9,0,1.8,0.4,2.3,1.1V132.3z M69.6,136.1
		c0,0.6,0.2,1.3,0.6,1.7c0.4,0.5,0.9,0.7,1.5,0.7c0.6,0,1.2-0.3,1.6-0.7c0.8-1,0.8-2.5,0-3.5c-0.8-0.8-2.1-0.9-2.9-0.2
		c0,0-0.1,0.1-0.1,0.1l-0.1,0.1C69.8,134.8,69.5,135.4,69.6,136.1L69.6,136.1z"/>
	<path class="st1" d="M82.1,133.6l-1.4,0.8c-0.2-0.5-0.5-0.7-0.8-0.7c-0.2,0-0.3,0.1-0.4,0.1c-0.1,0.1-0.1,0.2-0.2,0.4
		c0,0.3,0.3,0.6,1,0.8c0.7,0.2,1.4,0.6,1.9,1.1c0.3,0.4,0.5,0.9,0.4,1.4c0,0.7-0.3,1.4-0.8,1.8c-1.2,1-3,0.9-4.1-0.3c0,0,0,0,0,0
		c-0.2-0.2-0.4-0.5-0.5-0.8l1.5-0.7l0.4,0.7c0.2,0.2,0.5,0.3,0.8,0.3c0.6,0,0.9-0.3,0.9-0.8c0-0.3-0.2-0.6-0.7-0.9l-0.5-0.2
		l-0.5-0.2c-0.4-0.2-0.8-0.4-1.1-0.8c-0.3-0.3-0.4-0.8-0.4-1.2c0-0.6,0.2-1.2,0.7-1.7c0.4-0.5,1-0.7,1.7-0.6
		C80.9,132.1,81.7,132.7,82.1,133.6z"/>
	<path class="st4" d="M82.1,133.6l-1.4,0.8c-0.2-0.5-0.5-0.7-0.8-0.7c-0.2,0-0.3,0.1-0.4,0.1c-0.1,0.1-0.1,0.2-0.2,0.4
		c0,0.3,0.3,0.6,1,0.8c0.7,0.2,1.4,0.6,1.9,1.1c0.3,0.4,0.5,0.9,0.4,1.4c0,0.7-0.3,1.4-0.8,1.8c-1.2,1-3,0.9-4.1-0.3c0,0,0,0,0,0
		c-0.2-0.2-0.4-0.5-0.5-0.8l1.5-0.7l0.4,0.7c0.2,0.2,0.5,0.3,0.8,0.3c0.6,0,0.9-0.3,0.9-0.8c0-0.3-0.2-0.6-0.7-0.9l-0.5-0.2
		l-0.5-0.2c-0.4-0.2-0.8-0.4-1.1-0.8c-0.3-0.3-0.4-0.8-0.4-1.2c0-0.6,0.2-1.2,0.7-1.7c0.4-0.5,1-0.7,1.7-0.6
		C80.9,132.1,81.7,132.7,82.1,133.6z"/>
	<path class="st1" d="M88.5,133.6l-1.4,0.8c-0.2-0.5-0.5-0.7-0.8-0.7c-0.2,0-0.3,0.1-0.5,0.1c-0.1,0.1-0.1,0.2-0.2,0.4
		c0,0.3,0.3,0.6,1,0.8c0.7,0.2,1.3,0.6,1.9,1.1c0.3,0.4,0.5,0.9,0.5,1.4c0,0.7-0.3,1.4-0.8,1.9c-0.5,0.5-1.2,0.7-1.9,0.7
		c-1.2,0.1-2.3-0.7-2.7-1.8l1.5-0.7l0.5,0.7c0.2,0.2,0.5,0.3,0.8,0.3c0.6,0,0.9-0.3,0.9-0.8c0-0.3-0.2-0.6-0.7-0.9l-0.5-0.2
		l-0.5-0.2c-0.4-0.2-0.7-0.4-1-0.8c-0.3-0.3-0.4-0.8-0.4-1.2c0-0.6,0.2-1.2,0.7-1.7c0.4-0.4,1.1-0.7,1.7-0.6
		C87.4,132.1,88.2,132.7,88.5,133.6z"/>
	<path class="st4" d="M88.5,133.6l-1.4,0.8c-0.2-0.5-0.5-0.7-0.8-0.7c-0.2,0-0.3,0.1-0.5,0.1c-0.1,0.1-0.1,0.2-0.2,0.4
		c0,0.3,0.3,0.6,1,0.8c0.7,0.2,1.3,0.6,1.9,1.1c0.3,0.4,0.5,0.9,0.5,1.4c0,0.7-0.3,1.4-0.8,1.9c-0.5,0.5-1.2,0.7-1.9,0.7
		c-1.2,0.1-2.3-0.7-2.7-1.8l1.5-0.7l0.5,0.7c0.2,0.2,0.5,0.3,0.8,0.3c0.6,0,0.9-0.3,0.9-0.8c0-0.3-0.2-0.6-0.7-0.9l-0.5-0.2
		l-0.5-0.2c-0.4-0.2-0.7-0.4-1-0.8c-0.3-0.3-0.4-0.8-0.4-1.2c0-0.6,0.2-1.2,0.7-1.7c0.4-0.4,1.1-0.7,1.7-0.6
		C87.4,132.1,88.2,132.7,88.5,133.6z"/>
	<path class="st1" d="M90.4,129.2c0-0.6,0.5-1.1,1.1-1.1c0.3,0,0.6,0.1,0.8,0.3c0.2,0.2,0.4,0.5,0.3,0.8c0,0.3-0.1,0.6-0.3,0.8
		c-0.2,0.2-0.5,0.3-0.8,0.3c-0.3,0-0.6-0.1-0.8-0.3C90.5,129.8,90.3,129.5,90.4,129.2z M92.4,132.3v7.6h-1.8v-7.6H92.4z"/>
	<path class="st4" d="M90.4,129.2c0-0.6,0.5-1.1,1.1-1.1c0.3,0,0.6,0.1,0.8,0.3c0.2,0.2,0.4,0.5,0.3,0.8c0,0.3-0.1,0.6-0.3,0.8
		c-0.2,0.2-0.5,0.3-0.8,0.3c-0.3,0-0.6-0.1-0.8-0.3C90.5,129.8,90.3,129.5,90.4,129.2z M92.4,132.3v7.6h-1.8v-7.6H92.4z"/>
	<path class="st1" d="M98.9,133.6l-1.4,0.8c-0.2-0.5-0.5-0.7-0.8-0.7c-0.2,0-0.3,0.1-0.5,0.1c-0.1,0.1-0.1,0.2-0.2,0.4
		c0,0.3,0.3,0.6,1,0.8c0.7,0.2,1.4,0.6,1.9,1.1c0.3,0.4,0.5,0.9,0.4,1.4c0,1.4-1.2,2.6-2.6,2.6c-0.1,0-0.1,0-0.2,0
		c-1.2,0.1-2.3-0.7-2.7-1.8l1.5-0.7l0.4,0.7c0.2,0.2,0.5,0.3,0.8,0.3c0.6,0,0.9-0.3,0.9-0.8c0-0.3-0.2-0.6-0.7-0.9l-0.5-0.2
		l-0.5-0.2c-0.4-0.2-0.8-0.4-1.1-0.8c-0.3-0.3-0.4-0.8-0.4-1.2c0-0.6,0.2-1.2,0.7-1.7c0.4-0.4,1.1-0.7,1.7-0.6
		C97.7,132.1,98.6,132.7,98.9,133.6z"/>
	<path class="st4" d="M98.9,133.6l-1.4,0.8c-0.2-0.5-0.5-0.7-0.8-0.7c-0.2,0-0.3,0.1-0.5,0.1c-0.1,0.1-0.1,0.2-0.2,0.4
		c0,0.3,0.3,0.6,1,0.8c0.7,0.2,1.4,0.6,1.9,1.1c0.3,0.4,0.5,0.9,0.4,1.4c0,1.4-1.2,2.6-2.6,2.6c-0.1,0-0.1,0-0.2,0
		c-1.2,0.1-2.3-0.7-2.7-1.8l1.5-0.7l0.4,0.7c0.2,0.2,0.5,0.3,0.8,0.3c0.6,0,0.9-0.3,0.9-0.8c0-0.3-0.2-0.6-0.7-0.9l-0.5-0.2
		l-0.5-0.2c-0.4-0.2-0.8-0.4-1.1-0.8c-0.3-0.3-0.4-0.8-0.4-1.2c0-0.6,0.2-1.2,0.7-1.7c0.4-0.4,1.1-0.7,1.7-0.6
		C97.7,132.1,98.6,132.7,98.9,133.6z"/>
	<polygon class="st1" points="102.8,133.9 102.8,139.8 101.1,139.8 101.1,133.9 100.3,133.9 100.3,132.3 101.1,132.3 101.1,129.5 
		102.8,129.5 102.8,132.3 104.2,132.3 104.2,134 	"/>
	<polygon class="st4" points="102.8,133.9 102.8,139.8 101.1,139.8 101.1,133.9 100.3,133.9 100.3,132.3 101.1,132.3 101.1,129.5 
		102.8,129.5 102.8,132.3 104.2,132.3 104.2,134 	"/>
	<path class="st1" d="M111.1,132.3h1.7v7.6h-1.7v-0.8c-1.3,1.3-3.4,1.4-4.8,0.1c0,0,0,0,0,0c-0.1-0.1-0.2-0.1-0.2-0.2
		c-0.7-0.8-1.1-1.8-1.1-2.9c0-1.1,0.3-2.1,1.1-2.9c0.6-0.7,1.6-1.2,2.6-1.1c0.9,0,1.8,0.4,2.3,1.1V132.3z M107,136.1
		c0,0.6,0.2,1.3,0.6,1.7c0.4,0.5,0.9,0.7,1.5,0.7c0.6,0,1.2-0.2,1.6-0.7c0.8-1,0.8-2.5,0-3.5c-0.8-0.8-2.1-0.9-2.9-0.2
		c0,0-0.1,0.1-0.1,0.1l-0.1,0.1C107.2,134.8,106.9,135.4,107,136.1L107,136.1z"/>
	<path class="st4" d="M111.1,132.3h1.7v7.6h-1.7v-0.8c-1.3,1.3-3.4,1.4-4.8,0.1c0,0,0,0,0,0c-0.1-0.1-0.2-0.1-0.2-0.2
		c-0.7-0.8-1.1-1.8-1.1-2.9c0-1.1,0.3-2.1,1.1-2.9c0.6-0.7,1.6-1.2,2.6-1.1c0.9,0,1.8,0.4,2.3,1.1V132.3z M107,136.1
		c0,0.6,0.2,1.3,0.6,1.7c0.4,0.5,0.9,0.7,1.5,0.7c0.6,0,1.2-0.2,1.6-0.7c0.8-1,0.8-2.5,0-3.5c-0.8-0.8-2.1-0.9-2.9-0.2
		c0,0-0.1,0.1-0.1,0.1l-0.1,0.1C107.2,134.8,106.9,135.4,107,136.1L107,136.1z"/>
	<path class="st1" d="M115.1,132.3h1.7v0.7c0.5-0.6,1.2-0.9,2-0.9c0.8-0.1,1.5,0.2,2.1,0.8c0.5,0.7,0.7,1.5,0.6,2.3v4.6h-1.8v-4.2
		c0.1-0.5,0-1.1-0.3-1.5c-0.3-0.3-0.7-0.5-1.1-0.4c-0.5-0.1-1,0.2-1.2,0.6c-0.3,0.6-0.4,1.3-0.4,2v3.6H115L115.1,132.3z"/>
	<path class="st4" d="M115.1,132.3h1.7v0.7c0.5-0.6,1.2-0.9,2-0.9c0.8-0.1,1.5,0.2,2.1,0.8c0.5,0.7,0.7,1.5,0.6,2.3v4.6h-1.8v-4.2
		c0.1-0.5,0-1.1-0.3-1.5c-0.3-0.3-0.7-0.5-1.1-0.4c-0.5-0.1-1,0.2-1.2,0.6c-0.3,0.6-0.4,1.3-0.4,2v3.6H115L115.1,132.3z"/>
	<path class="st1" d="M129.7,132.6v2.4c-0.3-0.4-0.6-0.7-1.1-1c-0.3-0.2-0.7-0.3-1.1-0.3c-0.6,0-1.2,0.2-1.7,0.7
		c-0.5,0.5-0.7,1.1-0.7,1.7c0,0.6,0.2,1.2,0.6,1.7c0.4,0.5,1,0.7,1.6,0.7c0.4,0,0.8-0.1,1.1-0.3c0.4-0.3,0.8-0.6,1.1-1.1v2.3
		c-0.7,0.4-1.4,0.5-2.1,0.5c-1.1,0-2.1-0.4-2.9-1.1c-0.8-0.7-1.2-1.7-1.2-2.8c0-2.2,1.8-4,4-4c0.1,0,0.1,0,0.2,0
		C128.3,132,129.1,132.2,129.7,132.6z"/>
	<path class="st4" d="M129.7,132.6v2.4c-0.3-0.4-0.6-0.7-1.1-1c-0.3-0.2-0.7-0.3-1.1-0.3c-0.6,0-1.2,0.2-1.7,0.7
		c-0.5,0.5-0.7,1.1-0.7,1.7c0,0.6,0.2,1.2,0.6,1.7c0.4,0.5,1,0.7,1.6,0.7c0.4,0,0.8-0.1,1.1-0.3c0.4-0.3,0.8-0.6,1.1-1.1v2.3
		c-0.7,0.4-1.4,0.5-2.1,0.5c-1.1,0-2.1-0.4-2.9-1.1c-0.8-0.7-1.2-1.7-1.2-2.8c0-2.2,1.8-4,4-4c0.1,0,0.1,0,0.2,0
		C128.3,132,129.1,132.2,129.7,132.6z"/>
	<path class="st1" d="M138.3,136.5h-5.5c0,0.6,0.2,1.1,0.6,1.5c0.4,0.4,0.9,0.6,1.4,0.5c0.4,0,0.7-0.1,1.1-0.3
		c0.4-0.3,0.7-0.7,1-1.1l1.5,0.8c-0.2,0.4-0.5,0.7-0.8,1c-0.2,0.3-0.5,0.5-0.8,0.7c-0.3,0.2-0.6,0.3-0.9,0.4
		c-0.4,0.1-0.8,0.1-1.1,0.2c-1,0-2-0.4-2.7-1.1c-0.7-0.8-1.1-1.8-1.1-2.9c-0.1-1.1,0.3-2.1,1-2.9c1.5-1.4,3.8-1.4,5.3,0
		c0.7,0.8,1.1,1.9,1,3L138.3,136.5z M136.5,135.1c-0.1-0.8-0.9-1.4-1.8-1.4c-0.2,0-0.4,0-0.6,0.1c-0.2,0.1-0.4,0.2-0.5,0.3
		c-0.1,0.1-0.3,0.3-0.4,0.4c-0.1,0.2-0.2,0.4-0.2,0.6L136.5,135.1z"/>
	<path class="st4" d="M138.3,136.5h-5.5c0,0.6,0.2,1.1,0.6,1.5c0.4,0.4,0.9,0.6,1.4,0.5c0.4,0,0.7-0.1,1.1-0.3
		c0.4-0.3,0.7-0.7,1-1.1l1.5,0.8c-0.2,0.4-0.5,0.7-0.8,1c-0.2,0.3-0.5,0.5-0.8,0.7c-0.3,0.2-0.6,0.3-0.9,0.4
		c-0.4,0.1-0.8,0.1-1.1,0.2c-1,0-2-0.4-2.7-1.1c-0.7-0.8-1.1-1.8-1.1-2.9c-0.1-1.1,0.3-2.1,1-2.9c1.5-1.4,3.8-1.4,5.3,0
		c0.7,0.8,1.1,1.9,1,3L138.3,136.5z M136.5,135.1c-0.1-0.8-0.9-1.4-1.8-1.4c-0.2,0-0.4,0-0.6,0.1c-0.2,0.1-0.4,0.2-0.5,0.3
		c-0.1,0.1-0.3,0.3-0.4,0.4c-0.1,0.2-0.2,0.4-0.2,0.6L136.5,135.1z"/>
</g>
</svg>
