<?xml version="1.0" encoding="utf-8"?>
<!-- Generator: Adobe Illustrator 24.0.1, SVG Export Plug-In . SVG Version: 6.00 Build 0)  -->
<svg version="1.1" xmlns="http://www.w3.org/2000/svg" xmlns:xlink="http://www.w3.org/1999/xlink" x="0px" y="0px"
	 viewBox="0 0 147.8 147.8" style="enable-background:new 0 0 147.8 147.8;" xml:space="preserve">
<style type="text/css">
	.st0{fill:#FFFFFF;}
	.st1{stroke:#000094;stroke-width:36;}
	.st2{fill:none;stroke:#000000;stroke-width:3.75;stroke-linejoin:round;}
	.st3{fill:none;stroke:#000000;stroke-width:0.25;}
</style>
<g id="Layer_2">
	<title>Xray</title>
	<rect x="1.9" y="1.9" class="st0" width="144" height="144"/>
	<path class="st1" d="M73.9,1.9v144 M1.9,73.9h144"/>
	<path class="st2" d="M1.9,1.9h144v144H1.9V1.9z"/>
</g>
<g id="Layer_1">
	<path class="st0" d="M21.7,78.6l-1.4,0.9c-0.2-0.4-0.4-0.7-0.7-0.9c-0.3-0.1-0.6-0.2-0.9-0.2c-0.4,0-0.8,0.1-1.2,0.4
		c-0.3,0.2-0.5,0.6-0.4,1c0,0.6,0.4,1,1.2,1.4l1.1,0.5c0.8,0.3,1.5,0.7,2,1.4c0.4,0.6,0.7,1.3,0.6,2c0.1,1-0.3,2-1.1,2.7
		c-0.7,0.7-1.6,1.1-2.6,1c-0.9,0-1.8-0.3-2.4-0.9c-0.7-0.7-1.1-1.5-1.1-2.4l1.7-0.4c0,0.5,0.1,1,0.4,1.4c0.6,0.8,1.8,1,2.6,0.4
		c0,0,0.1,0,0.1-0.1c0.1,0,0.1-0.1,0.1-0.1c0.5-0.5,0.7-1.3,0.4-1.9c-0.1-0.2-0.1-0.4-0.3-0.5c-0.1-0.1-0.3-0.3-0.5-0.4
		s-0.5-0.3-0.7-0.4l-1.1-0.4c-1.6-0.7-2.4-1.6-2.4-2.9c0-0.8,0.3-1.6,1-2.2c0.7-0.6,1.6-0.9,2.4-0.9C20,76.8,21.3,77.4,21.7,78.6z"
		/>
	<path class="st3" d="M21.7,78.6l-1.4,0.9c-0.2-0.4-0.4-0.7-0.7-0.9c-0.3-0.1-0.6-0.2-0.9-0.2c-0.4,0-0.8,0.1-1.2,0.4
		c-0.3,0.2-0.5,0.6-0.4,1c0,0.6,0.4,1,1.2,1.4l1.1,0.5c0.8,0.3,1.5,0.7,2,1.4c0.4,0.6,0.7,1.3,0.6,2c0.1,1-0.3,2-1.1,2.7
		c-0.7,0.7-1.6,1.1-2.6,1c-0.9,0-1.8-0.3-2.4-0.9c-0.7-0.7-1.1-1.5-1.1-2.4l1.7-0.4c0,0.5,0.1,1,0.4,1.4c0.6,0.8,1.8,1,2.6,0.4
		c0,0,0.1,0,0.1-0.1c0.1,0,0.1-0.1,0.1-0.1c0.5-0.5,0.7-1.3,0.4-1.9c-0.1-0.2-0.1-0.4-0.3-0.5c-0.1-0.1-0.3-0.3-0.5-0.4
		s-0.5-0.3-0.7-0.4l-1.1-0.4c-1.6-0.7-2.4-1.6-2.4-2.9c0-0.8,0.3-1.6,1-2.2c0.7-0.6,1.6-0.9,2.4-0.9C20,76.8,21.3,77.4,21.7,78.6z"
		/>
	<polygon class="st0" points="25.8,82.6 25.8,88.3 24.1,88.3 24.1,82.6 23.4,82.6 23.4,81 24.1,81 24.1,78.4 25.8,78.4 25.8,81 
		27.1,81 27.1,82.6 	"/>
	<polygon class="st3" points="25.8,82.6 25.8,88.3 24.1,88.3 24.1,82.6 23.4,82.6 23.4,81 24.1,81 24.1,78.4 25.8,78.4 25.8,81 
		27.1,81 27.1,82.6 	"/>
	<path class="st0" d="M28,84.7c0-1,0.4-2,1.1-2.7c1.5-1.4,3.9-1.4,5.5,0c1.5,1.5,1.5,3.9,0.1,5.3c0,0,0,0-0.1,0.1
		c-0.7,0.7-1.7,1.1-2.7,1.1s-2-0.4-2.7-1.1C28.4,86.7,27.9,85.7,28,84.7z M29.6,84.7c0,0.6,0.2,1.2,0.6,1.7c0.4,0.4,1,0.7,1.6,0.7
		s1.2-0.2,1.6-0.7c0.8-1,0.8-2.4,0-3.4c-0.4-0.4-1-0.7-1.6-0.7s-1.1,0.2-1.5,0.7C29.9,83.4,29.6,84,29.6,84.7z"/>
	<path class="st3" d="M28,84.7c0-1,0.4-2,1.1-2.7c1.5-1.4,3.9-1.4,5.5,0c1.5,1.5,1.5,3.9,0.1,5.3c0,0,0,0-0.1,0.1
		c-0.7,0.7-1.7,1.1-2.7,1.1s-2-0.4-2.7-1.1C28.4,86.7,27.9,85.7,28,84.7z M29.6,84.7c0,0.6,0.2,1.2,0.6,1.7c0.4,0.4,1,0.7,1.6,0.7
		s1.2-0.2,1.6-0.7c0.8-1,0.8-2.4,0-3.4c-0.4-0.4-1-0.7-1.6-0.7s-1.1,0.2-1.5,0.7C29.9,83.4,29.6,84,29.6,84.7z"/>
	<path class="st0" d="M39.1,92.2h-1.7V81.1h1.7v0.8c1.2-1.3,3.1-1.3,4.4-0.2l0.1,0.1l0.2,0.2c0.7,0.8,1,1.7,1,2.7s-0.3,2-1,2.7
		c-1.2,1.3-3.2,1.4-4.5,0.3l-0.2-0.2V92.2z M43,84.7c0-0.6-0.2-1.2-0.6-1.7c-0.4-0.4-0.9-0.7-1.4-0.7c-0.6,0-1.1,0.2-1.5,0.7
		s-0.6,1.1-0.6,1.7s0.2,1.2,0.6,1.7c0.4,0.4,0.9,0.7,1.5,0.7s1.1-0.2,1.4-0.7C42.8,86,43.1,85.3,43,84.7L43,84.7z"/>
	<path class="st3" d="M39.1,92.2h-1.7V81.1h1.7v0.8c1.2-1.3,3.1-1.3,4.4-0.2l0.1,0.1l0.2,0.2c0.7,0.8,1,1.7,1,2.7s-0.3,2-1,2.7
		c-1.2,1.3-3.2,1.4-4.5,0.3l-0.2-0.2V92.2z M43,84.7c0-0.6-0.2-1.2-0.6-1.7c-0.4-0.4-0.9-0.7-1.4-0.7c-0.6,0-1.1,0.2-1.5,0.7
		s-0.6,1.1-0.6,1.7s0.2,1.2,0.6,1.7c0.4,0.4,0.9,0.7,1.5,0.7s1.1-0.2,1.4-0.7C42.8,86,43.1,85.3,43,84.7L43,84.7z"/>
	<path class="st0" d="M56.7,81.4v2.2c-0.3-0.4-0.6-0.7-1-0.9c-0.3-0.2-0.6-0.3-1-0.3c-0.6,0-1.2,0.2-1.6,0.7c-0.4,0.4-0.7,1-0.7,1.7
		c0,0.6,0.2,1.2,0.6,1.7c0.4,0.4,0.9,0.6,1.5,0.6c0.4,0,0.8-0.1,1.1-0.3c0.4-0.3,0.7-0.6,1-1V88c-0.6,0.3-1.3,0.5-2,0.5
		c-1,0-2-0.4-2.8-1.1c-0.7-0.7-1.1-1.7-1.2-2.7c0-2.1,1.7-3.8,3.8-3.8c0.1,0,0.1,0,0.2,0C55.4,80.9,56.1,81.1,56.7,81.4z"/>
	<path class="st3" d="M56.7,81.4v2.2c-0.3-0.4-0.6-0.7-1-0.9c-0.3-0.2-0.6-0.3-1-0.3c-0.6,0-1.2,0.2-1.6,0.7c-0.4,0.4-0.7,1-0.7,1.7
		c0,0.6,0.2,1.2,0.6,1.7c0.4,0.4,0.9,0.6,1.5,0.6c0.4,0,0.8-0.1,1.1-0.3c0.4-0.3,0.7-0.6,1-1V88c-0.6,0.3-1.3,0.5-2,0.5
		c-1,0-2-0.4-2.8-1.1c-0.7-0.7-1.1-1.7-1.2-2.7c0-2.1,1.7-3.8,3.8-3.8c0.1,0,0.1,0,0.2,0C55.4,80.9,56.1,81.1,56.7,81.4z"/>
	<path class="st0" d="M63.7,81.1h1.7v7.2h-1.7v-0.8c-1.2,1.3-3.2,1.3-4.5,0.1l0,0c-0.1-0.1-0.1-0.1-0.1-0.2c-0.6-0.8-1-1.7-1-2.7
		s0.3-2,1-2.7c0.6-0.7,1.5-1.1,2.5-1.1c0.9,0,1.7,0.4,2.2,1v-0.8H63.7z M59.7,84.7c0,0.6,0.2,1.2,0.6,1.7c0.4,0.4,0.9,0.7,1.4,0.7
		c0.6,0,1.1-0.2,1.5-0.7c0.8-1,0.8-2.4,0-3.3c-0.8-0.8-2-0.8-2.8-0.1l-0.1,0.1C59.9,83.5,59.7,84.1,59.7,84.7L59.7,84.7z"/>
	<path class="st3" d="M63.7,81.1h1.7v7.2h-1.7v-0.8c-1.2,1.3-3.2,1.3-4.5,0.1l0,0c-0.1-0.1-0.1-0.1-0.1-0.2c-0.6-0.8-1-1.7-1-2.7
		s0.3-2,1-2.7c0.6-0.7,1.5-1.1,2.5-1.1c0.9,0,1.7,0.4,2.2,1v-0.8H63.7z M59.7,84.7c0,0.6,0.2,1.2,0.6,1.7c0.4,0.4,0.9,0.7,1.4,0.7
		c0.6,0,1.1-0.2,1.5-0.7c0.8-1,0.8-2.4,0-3.3c-0.8-0.8-2-0.8-2.8-0.1l-0.1,0.1C59.9,83.5,59.7,84.1,59.7,84.7L59.7,84.7z"/>
	<path class="st0" d="M67.4,81.1h1.7v0.6c0.2-0.3,0.5-0.5,0.8-0.7c0.3-0.1,0.6-0.2,0.9-0.2c0.5,0,1,0.2,1.4,0.4l-0.8,1.5
		c-0.3-0.2-0.6-0.4-0.9-0.4c-0.9,0-1.4,0.7-1.4,2v3.8h-1.7V81.1L67.4,81.1z"/>
	<path class="st3" d="M67.4,81.1h1.7v0.6c0.2-0.3,0.5-0.5,0.8-0.7c0.3-0.1,0.6-0.2,0.9-0.2c0.5,0,1,0.2,1.4,0.4l-0.8,1.5
		c-0.3-0.2-0.6-0.4-0.9-0.4c-0.9,0-1.4,0.7-1.4,2v3.8h-1.7V81.1L67.4,81.1z"/>
	<path class="st0" d="M73.3,81.1H75v0.6c0.2-0.3,0.5-0.5,0.8-0.7c0.3-0.1,0.6-0.2,0.9-0.2c0.5,0,1,0.2,1.4,0.4l-0.7,1.5
		c-0.3-0.2-0.6-0.3-0.9-0.4c-0.9,0-1.4,0.7-1.4,2v3.8h-1.7v-7H73.3z"/>
	<path class="st3" d="M73.3,81.1H75v0.6c0.2-0.3,0.5-0.5,0.8-0.7c0.3-0.1,0.6-0.2,0.9-0.2c0.5,0,1,0.2,1.4,0.4l-0.7,1.5
		c-0.3-0.2-0.6-0.3-0.9-0.4c-0.9,0-1.4,0.7-1.4,2v3.8h-1.7v-7H73.3z"/>
	<polygon class="st0" points="81.9,87 78.7,81.1 80.6,81.1 82.8,85.3 84.9,81.1 86.8,81.1 81,92.2 79.2,92.2 	"/>
	<polygon class="st3" points="81.9,87 78.7,81.1 80.6,81.1 82.8,85.3 84.9,81.1 86.8,81.1 81,92.2 79.2,92.2 	"/>
	<path class="st0" d="M87.6,78.1c0-0.6,0.5-1.1,1.1-1.1s1,0.4,1,1v0.1c0,0.3-0.1,0.6-0.3,0.8c-0.2,0.2-0.5,0.3-0.8,0.3
		s-0.6-0.1-0.8-0.3C87.7,78.6,87.6,78.4,87.6,78.1z M89.5,81.1v7.2h-1.6v-7.2H89.5z"/>
	<path class="st3" d="M87.6,78.1c0-0.6,0.5-1.1,1.1-1.1s1,0.4,1,1v0.1c0,0.3-0.1,0.6-0.3,0.8c-0.2,0.2-0.5,0.3-0.8,0.3
		s-0.6-0.1-0.8-0.3C87.7,78.6,87.6,78.4,87.6,78.1z M89.5,81.1v7.2h-1.6v-7.2H89.5z"/>
	<path class="st0" d="M91.6,81.1h1.7v0.6c0.5-0.6,1.2-0.9,2-0.9c0.7-0.1,1.5,0.2,1.9,0.8c0.4,0.6,0.6,1.4,0.6,2.2v4.5h-1.7v-4
		c0.1-0.5,0-1-0.3-1.4c-0.3-0.3-0.7-0.5-1.1-0.4c-0.5-0.1-0.9,0.2-1.2,0.6c-0.3,0.6-0.4,1.2-0.4,1.9v3.4h-1.6L91.6,81.1L91.6,81.1z"
		/>
	<path class="st3" d="M91.6,81.1h1.7v0.6c0.5-0.6,1.2-0.9,2-0.9c0.7-0.1,1.5,0.2,1.9,0.8c0.4,0.6,0.6,1.4,0.6,2.2v4.5h-1.7v-4
		c0.1-0.5,0-1-0.3-1.4c-0.3-0.3-0.7-0.5-1.1-0.4c-0.5-0.1-0.9,0.2-1.2,0.6c-0.3,0.6-0.4,1.2-0.4,1.9v3.4h-1.6L91.6,81.1L91.6,81.1z"
		/>
	<path class="st0" d="M106.9,88.2v0.9c0,0.2-0.1,0.4-0.1,0.7c-0.1,0.5-0.4,1-0.7,1.4c-0.7,0.8-1.7,1.2-2.7,1.2
		c-0.9,0-1.7-0.2-2.4-0.8c-0.7-0.6-1.1-1.4-1.1-2.2h1.7c0.1,0.3,0.2,0.5,0.3,0.8c0.4,0.5,0.9,0.7,1.5,0.7c1.2,0,1.8-0.7,1.8-2.2
		v-0.9c-0.6,0.6-1.4,1-2.3,1s-1.8-0.4-2.4-1.1c-0.7-0.7-1-1.7-0.9-2.7c0-1,0.3-1.9,0.9-2.7c0.6-0.8,1.5-1.2,2.5-1.2
		c0.9,0,1.7,0.3,2.2,1v-0.8h1.7V88.2z M105.3,84.7c0.1-0.6-0.1-1.3-0.6-1.7c-0.7-0.8-1.9-0.9-2.7-0.2c-0.1,0.1-0.2,0.2-0.3,0.3
		c-0.3,0.5-0.5,1.1-0.5,1.7s0.2,1.1,0.5,1.6c0.7,0.8,1.9,0.9,2.7,0.3c0.1-0.1,0.2-0.2,0.3-0.3C105.1,85.9,105.3,85.3,105.3,84.7
		L105.3,84.7z"/>
	<path class="st3" d="M106.9,88.2v0.9c0,0.2-0.1,0.4-0.1,0.7c-0.1,0.5-0.4,1-0.7,1.4c-0.7,0.8-1.7,1.2-2.7,1.2
		c-0.9,0-1.7-0.2-2.4-0.8c-0.7-0.6-1.1-1.4-1.1-2.2h1.7c0.1,0.3,0.2,0.5,0.3,0.8c0.4,0.5,0.9,0.7,1.5,0.7c1.2,0,1.8-0.7,1.8-2.2
		v-0.9c-0.6,0.6-1.4,1-2.3,1s-1.8-0.4-2.4-1.1c-0.7-0.7-1-1.7-0.9-2.7c0-1,0.3-1.9,0.9-2.7c0.6-0.8,1.5-1.2,2.5-1.2
		c0.9,0,1.7,0.3,2.2,1v-0.8h1.7V88.2z M105.3,84.7c0.1-0.6-0.1-1.3-0.6-1.7c-0.7-0.8-1.9-0.9-2.7-0.2c-0.1,0.1-0.2,0.2-0.3,0.3
		c-0.3,0.5-0.5,1.1-0.5,1.7s0.2,1.1,0.5,1.6c0.7,0.8,1.9,0.9,2.7,0.3c0.1-0.1,0.2-0.2,0.3-0.3C105.1,85.9,105.3,85.3,105.3,84.7
		L105.3,84.7z"/>
	<path class="st0" d="M113.3,84.7c0-1,0.4-2,1.1-2.7c1.5-1.4,3.9-1.4,5.5,0c1.5,1.5,1.5,3.9,0,5.4c-0.7,0.7-1.7,1.2-2.8,1.1
		c-2.1,0-3.7-1.6-3.8-3.7C113.3,84.8,113.3,84.7,113.3,84.7z M115.1,84.7c0,0.6,0.2,1.2,0.6,1.7c0.9,0.9,2.3,0.9,3.2,0
		c0.8-1,0.8-2.4,0-3.4c-0.8-0.9-2.2-0.9-3.1,0l0,0C115.2,83.4,115,84,115.1,84.7z"/>
	<path class="st3" d="M113.3,84.7c0-1,0.4-2,1.1-2.7c1.5-1.4,3.9-1.4,5.5,0c1.5,1.5,1.5,3.9,0,5.4c-0.7,0.7-1.7,1.2-2.8,1.1
		c-2.1,0-3.7-1.6-3.8-3.7C113.3,84.8,113.3,84.7,113.3,84.7z M115.1,84.7c0,0.6,0.2,1.2,0.6,1.7c0.9,0.9,2.3,0.9,3.2,0
		c0.8-1,0.8-2.4,0-3.4c-0.8-0.9-2.2-0.9-3.1,0l0,0C115.2,83.4,115,84,115.1,84.7z"/>
	<path class="st0" d="M124.4,81.1v4.1c0,1.2,0.4,1.8,1.4,1.8s1.4-0.6,1.4-1.8v-4.1h1.7v4.2c0,0.5-0.1,1-0.2,1.5
		c-0.2,0.4-0.4,0.7-0.7,1c-1.2,1-3,1-4.2,0c-0.3-0.3-0.5-0.6-0.7-1c-0.2-0.5-0.3-1-0.3-1.5v-4.2H124.4z"/>
	<path class="st3" d="M124.4,81.1v4.1c0,1.2,0.4,1.8,1.4,1.8s1.4-0.6,1.4-1.8v-4.1h1.7v4.2c0,0.5-0.1,1-0.2,1.5
		c-0.2,0.4-0.4,0.7-0.7,1c-1.2,1-3,1-4.2,0c-0.3-0.3-0.5-0.6-0.7-1c-0.2-0.5-0.3-1-0.3-1.5v-4.2H124.4z"/>
	<polygon class="st0" points="132.7,82.6 132.7,88.3 131.1,88.3 131.1,82.6 130.3,82.6 130.3,81 131.1,81 131.1,78.4 132.7,78.4 
		132.7,81 134,81 134,82.6 	"/>
	<polygon class="st3" points="132.7,82.6 132.7,88.3 131.1,88.3 131.1,82.6 130.3,82.6 130.3,81 131.1,81 131.1,78.4 132.7,78.4 
		132.7,81 134,81 134,82.6 	"/>
	<polygon class="st0" points="27.9,104.7 24.6,98.9 26.6,98.9 28.8,103 30.9,98.9 32.8,98.9 27,110 25.1,110 	"/>
	<polygon class="st3" points="27.9,104.7 24.6,98.9 26.6,98.9 28.8,103 30.9,98.9 32.8,98.9 27,110 25.1,110 	"/>
	<path class="st0" d="M33.2,102.4c0-1,0.4-2,1.2-2.7c1.5-1.4,3.9-1.4,5.5,0c1.5,1.5,1.5,3.9,0.1,5.3c0,0,0,0-0.1,0.1
		c-0.7,0.7-1.7,1.1-2.7,1.1c-2.1,0-3.7-1.6-3.8-3.7C33.2,102.5,33.2,102.5,33.2,102.4z M34.9,102.4c0,0.6,0.2,1.2,0.6,1.7
		c0.8,0.9,2.2,0.9,3.1,0l0,0c0.8-1,0.8-2.4,0-3.4c-0.4-0.4-1-0.7-1.6-0.7s-1.1,0.2-1.5,0.7S34.9,101.8,34.9,102.4L34.9,102.4z"/>
	<path class="st3" d="M33.2,102.4c0-1,0.4-2,1.2-2.7c1.5-1.4,3.9-1.4,5.5,0c1.5,1.5,1.5,3.9,0.1,5.3c0,0,0,0-0.1,0.1
		c-0.7,0.7-1.7,1.1-2.7,1.1c-2.1,0-3.7-1.6-3.8-3.7C33.2,102.5,33.2,102.5,33.2,102.4z M34.9,102.4c0,0.6,0.2,1.2,0.6,1.7
		c0.8,0.9,2.2,0.9,3.1,0l0,0c0.8-1,0.8-2.4,0-3.4c-0.4-0.4-1-0.7-1.6-0.7s-1.1,0.2-1.5,0.7S34.9,101.8,34.9,102.4L34.9,102.4z"/>
	<path class="st0" d="M44.3,98.9v4.1c0,1.2,0.4,1.8,1.4,1.8s1.4-0.6,1.4-1.8v-4.1h1.7v4.2c0,0.5-0.1,1-0.2,1.5
		c-0.2,0.4-0.4,0.7-0.7,1c-1.2,1-3,1-4.2,0c-0.3-0.3-0.5-0.6-0.7-1c-0.1-0.5-0.2-1-0.2-1.5v-4.2H44.3z"/>
	<path class="st3" d="M44.3,98.9v4.1c0,1.2,0.4,1.8,1.4,1.8s1.4-0.6,1.4-1.8v-4.1h1.7v4.2c0,0.5-0.1,1-0.2,1.5
		c-0.2,0.4-0.4,0.7-0.7,1c-1.2,1-3,1-4.2,0c-0.3-0.3-0.5-0.6-0.7-1c-0.1-0.5-0.2-1-0.2-1.5v-4.2H44.3z"/>
	<path class="st0" d="M50.9,98.9h1.7v0.6c0.2-0.3,0.5-0.5,0.8-0.6c0.3-0.2,0.6-0.2,0.9-0.2c0.5,0,1,0.2,1.4,0.4l-0.8,1.6
		c-0.3-0.2-0.6-0.3-0.9-0.4c-0.9,0-1.4,0.7-1.4,2v3.8h-1.7V98.9z"/>
	<path class="st3" d="M50.9,98.9h1.7v0.6c0.2-0.3,0.5-0.5,0.8-0.6c0.3-0.2,0.6-0.2,0.9-0.2c0.5,0,1,0.2,1.4,0.4l-0.8,1.6
		c-0.3-0.2-0.6-0.3-0.9-0.4c-0.9,0-1.4,0.7-1.4,2v3.8h-1.7V98.9z"/>
	<path class="st0" d="M61,95.9c0-0.6,0.5-1.1,1.1-1.1c0.3,0,0.6,0.1,0.8,0.3c0.2,0.2,0.3,0.5,0.3,0.8s-0.1,0.6-0.3,0.8
		C62.6,96.9,62.3,97,62,97s-0.6-0.1-0.8-0.3C61.1,96.4,61,96.2,61,95.9z M63,98.9v7.2h-1.7v-7.2H63z"/>
	<path class="st3" d="M61,95.9c0-0.6,0.5-1.1,1.1-1.1c0.3,0,0.6,0.1,0.8,0.3c0.2,0.2,0.3,0.5,0.3,0.8s-0.1,0.6-0.3,0.8
		C62.6,96.9,62.3,97,62,97s-0.6-0.1-0.8-0.3C61.1,96.4,61,96.2,61,95.9z M63,98.9v7.2h-1.7v-7.2H63z"/>
	<path class="st0" d="M65,98.9h1.7v0.6c0.5-0.5,1.2-0.8,1.9-0.8c0.8-0.1,1.5,0.2,2,0.8c0.4,0.6,0.6,1.4,0.6,2.2v4.5h-1.7v-4
		c0-0.5-0.1-1-0.3-1.4c-0.3-0.3-0.6-0.4-1-0.4c-0.5-0.1-0.9,0.2-1.2,0.6c-0.3,0.6-0.4,1.2-0.4,1.9v3.5H65V98.9z"/>
	<path class="st3" d="M65,98.9h1.7v0.6c0.5-0.5,1.2-0.8,1.9-0.8c0.8-0.1,1.5,0.2,2,0.8c0.4,0.6,0.6,1.4,0.6,2.2v4.5h-1.7v-4
		c0-0.5-0.1-1-0.3-1.4c-0.3-0.3-0.6-0.4-1-0.4c-0.5-0.1-0.9,0.2-1.2,0.6c-0.3,0.6-0.4,1.2-0.4,1.9v3.5H65V98.9z"/>
	<polygon class="st0" points="75,100.4 75,106 73.4,106 73.4,100.4 72.6,100.4 72.6,98.8 73.4,98.8 73.4,96.2 75,96.2 75,98.8 
		76.3,98.8 76.3,100.4 	"/>
	<polygon class="st3" points="75,100.4 75,106 73.4,106 73.4,100.4 72.6,100.4 72.6,98.8 73.4,98.8 73.4,96.2 75,96.2 75,98.8 
		76.3,98.8 76.3,100.4 	"/>
	<path class="st0" d="M84.1,102.9h-5.2c0,0.5,0.2,1,0.6,1.4c0.3,0.3,0.8,0.5,1.3,0.5c0.4,0,0.7-0.1,1-0.3c0.4-0.3,0.7-0.7,0.9-1.1
		l1.4,0.8c-0.2,0.3-0.4,0.7-0.7,0.9c-0.2,0.3-0.5,0.5-0.8,0.7c-0.3,0.1-0.6,0.3-0.9,0.4c-0.4,0.1-0.7,0.1-1.1,0.1
		c-1,0-1.9-0.3-2.6-1c-0.6-0.8-1-1.7-1-2.7c-0.1-1,0.3-2,0.9-2.7c1.4-1.3,3.6-1.3,5,0c0.7,0.8,1,1.8,1,2.8L84.1,102.9z M82.4,101.6
		c-0.1-0.8-0.9-1.4-1.7-1.3c-0.2,0-0.4,0-0.6,0.1s-0.4,0.2-0.5,0.3c-0.1,0.1-0.3,0.3-0.4,0.4c-0.1,0.2-0.2,0.4-0.2,0.6
		C79.1,101.6,82.4,101.6,82.4,101.6z"/>
	<path class="st3" d="M84.1,102.9h-5.2c0,0.5,0.2,1,0.6,1.4c0.3,0.3,0.8,0.5,1.3,0.5c0.4,0,0.7-0.1,1-0.3c0.4-0.3,0.7-0.7,0.9-1.1
		l1.4,0.8c-0.2,0.3-0.4,0.7-0.7,0.9c-0.2,0.3-0.5,0.5-0.8,0.7c-0.3,0.1-0.6,0.3-0.9,0.4c-0.4,0.1-0.7,0.1-1.1,0.1
		c-1,0-1.9-0.3-2.6-1c-0.6-0.8-1-1.7-1-2.7c-0.1-1,0.3-2,0.9-2.7c1.4-1.3,3.6-1.3,5,0c0.7,0.8,1,1.8,1,2.8L84.1,102.9z M82.4,101.6
		c-0.1-0.8-0.9-1.4-1.7-1.3c-0.2,0-0.4,0-0.6,0.1s-0.4,0.2-0.5,0.3c-0.1,0.1-0.3,0.3-0.4,0.4c-0.1,0.2-0.2,0.4-0.2,0.6
		C79.1,101.6,82.4,101.6,82.4,101.6z"/>
	<path class="st0" d="M85.9,98.9h1.7v0.6c0.5-0.5,1.2-0.8,1.9-0.8c0.7-0.1,1.5,0.2,1.9,0.8c0.4,0.6,0.6,1.4,0.6,2.2v4.5h-1.6v-4
		c0-0.5-0.1-1-0.3-1.4c-0.3-0.3-0.7-0.4-1.1-0.4c-0.5,0-0.9,0.2-1.2,0.6c-0.3,0.6-0.4,1.2-0.4,1.9v3.5h-1.6L85.9,98.9z"/>
	<path class="st3" d="M85.9,98.9h1.7v0.6c0.5-0.5,1.2-0.8,1.9-0.8c0.7-0.1,1.5,0.2,1.9,0.8c0.4,0.6,0.6,1.4,0.6,2.2v4.5h-1.6v-4
		c0-0.5-0.1-1-0.3-1.4c-0.3-0.3-0.7-0.4-1.1-0.4c-0.5,0-0.9,0.2-1.2,0.6c-0.3,0.6-0.4,1.2-0.4,1.9v3.5h-1.6L85.9,98.9z"/>
	<polygon class="st0" points="95.9,100.4 95.9,106 94.3,106 94.3,100.4 93.5,100.4 93.5,98.8 94.3,98.8 94.3,96.2 95.9,96.2 
		95.9,98.8 97.2,98.8 97.2,100.4 	"/>
	<polygon class="st3" points="95.9,100.4 95.9,106 94.3,106 94.3,100.4 93.5,100.4 93.5,98.8 94.3,98.8 94.3,96.2 95.9,96.2 
		95.9,98.8 97.2,98.8 97.2,100.4 	"/>
	<path class="st0" d="M98.1,95.9c0-0.6,0.5-1.1,1.1-1.1c0.3,0,0.6,0.1,0.8,0.3c0.2,0.2,0.3,0.5,0.3,0.8s-0.1,0.6-0.3,0.8
		c-0.2,0.2-0.5,0.3-0.7,0.3c-0.5,0.1-1.1-0.3-1.1-0.8C98.1,96,98.1,96,98.1,95.9z M100,98.9v7.2h-1.7v-7.2H100z"/>
	<path class="st3" d="M98.1,95.9c0-0.6,0.5-1.1,1.1-1.1c0.3,0,0.6,0.1,0.8,0.3c0.2,0.2,0.3,0.5,0.3,0.8s-0.1,0.6-0.3,0.8
		c-0.2,0.2-0.5,0.3-0.7,0.3c-0.5,0.1-1.1-0.3-1.1-0.8C98.1,96,98.1,96,98.1,95.9z M100,98.9v7.2h-1.7v-7.2H100z"/>
	<path class="st0" d="M101.8,102.4c0-1,0.4-2,1.1-2.7c1.5-1.4,3.9-1.4,5.5,0c1.5,1.5,1.5,3.9,0.1,5.3c0,0,0,0-0.1,0.1
		c-1.5,1.4-3.9,1.4-5.5,0C102.2,104.4,101.8,103.4,101.8,102.4z M103.5,102.4c0,0.6,0.2,1.2,0.6,1.7c0.9,0.9,2.3,0.9,3.2,0
		c0.8-1,0.8-2.4,0-3.4c-0.8-0.9-2.2-0.9-3.1,0l0,0C103.7,101.2,103.5,101.8,103.5,102.4z"/>
	<path class="st3" d="M101.8,102.4c0-1,0.4-2,1.1-2.7c1.5-1.4,3.9-1.4,5.5,0c1.5,1.5,1.5,3.9,0.1,5.3c0,0,0,0-0.1,0.1
		c-1.5,1.4-3.9,1.4-5.5,0C102.2,104.4,101.8,103.4,101.8,102.4z M103.5,102.4c0,0.6,0.2,1.2,0.6,1.7c0.9,0.9,2.3,0.9,3.2,0
		c0.8-1,0.8-2.4,0-3.4c-0.8-0.9-2.2-0.9-3.1,0l0,0C103.7,101.2,103.5,101.8,103.5,102.4z"/>
	<path class="st0" d="M111.3,98.9h1.7v0.6c0.5-0.6,1.2-0.9,2-0.9c0.8-0.1,1.5,0.2,2,0.8c0.4,0.6,0.6,1.4,0.6,2.2v4.5h-1.7v-4
		c0-0.5-0.1-1-0.3-1.4c-0.3-0.3-0.7-0.4-1.1-0.4c-0.5-0.1-0.9,0.2-1.2,0.6c-0.3,0.6-0.4,1.2-0.4,1.9v3.5h-1.7L111.3,98.9z"/>
	<path class="st3" d="M111.3,98.9h1.7v0.6c0.5-0.6,1.2-0.9,2-0.9c0.8-0.1,1.5,0.2,2,0.8c0.4,0.6,0.6,1.4,0.6,2.2v4.5h-1.7v-4
		c0-0.5-0.1-1-0.3-1.4c-0.3-0.3-0.7-0.4-1.1-0.4c-0.5-0.1-0.9,0.2-1.2,0.6c-0.3,0.6-0.4,1.2-0.4,1.9v3.5h-1.7L111.3,98.9z"/>
	<path class="st0" d="M123.7,100.1l-1.4,0.7c-0.2-0.4-0.5-0.7-0.8-0.7c-0.1,0-0.3,0.1-0.4,0.2s-0.1,0.2-0.1,0.4s0.4,0.6,0.9,0.8
		c0.7,0.2,1.3,0.6,1.8,1.1c0.3,0.4,0.5,0.8,0.4,1.3c0,0.7-0.3,1.3-0.8,1.7c-1.1,1-2.9,0.9-3.9-0.3l0,0c-0.2-0.2-0.4-0.5-0.5-0.8
		l1.4-0.7l0.4,0.7c0.2,0.2,0.5,0.3,0.7,0.3c0.6,0,0.9-0.3,0.9-0.8c0-0.3-0.2-0.6-0.7-0.9l-0.5-0.2l-0.5-0.2c-0.4-0.2-0.7-0.4-1-0.7
		c-0.3-0.3-0.4-0.7-0.4-1.2c0-0.6,0.2-1.2,0.7-1.6c0.4-0.4,1-0.6,1.6-0.6C122.6,98.7,123.4,99.3,123.7,100.1z"/>
	<path class="st3" d="M123.7,100.1l-1.4,0.7c-0.2-0.4-0.5-0.7-0.8-0.7c-0.1,0-0.3,0.1-0.4,0.2s-0.1,0.2-0.1,0.4s0.4,0.6,0.9,0.8
		c0.7,0.2,1.3,0.6,1.8,1.1c0.3,0.4,0.5,0.8,0.4,1.3c0,0.7-0.3,1.3-0.8,1.7c-1.1,1-2.9,0.9-3.9-0.3l0,0c-0.2-0.2-0.4-0.5-0.5-0.8
		l1.4-0.7l0.4,0.7c0.2,0.2,0.5,0.3,0.7,0.3c0.6,0,0.9-0.3,0.9-0.8c0-0.3-0.2-0.6-0.7-0.9l-0.5-0.2l-0.5-0.2c-0.4-0.2-0.7-0.4-1-0.7
		c-0.3-0.3-0.4-0.7-0.4-1.2c0-0.6,0.2-1.2,0.7-1.6c0.4-0.4,1-0.6,1.6-0.6C122.6,98.7,123.4,99.3,123.7,100.1z"/>
	<path class="st0" d="M33.8,115.6h1.7v7.2h-1.7V122c-1.2,1.3-3.2,1.3-4.5,0.1l0,0c-0.1-0.1-0.1-0.1-0.1-0.2c-0.7-0.8-1-1.8-0.9-2.8
		c0-1,0.3-2,1-2.7c0.6-0.7,1.5-1.1,2.5-1.1c0.9,0,1.7,0.4,2.2,1L33.8,115.6z M29.8,119.2c0,0.6,0.2,1.2,0.6,1.7
		c0.4,0.4,0.9,0.7,1.4,0.7c0.6,0,1.1-0.2,1.5-0.7c0.8-1,0.8-2.4,0-3.3c-0.8-0.8-2-0.8-2.8-0.1l-0.1,0.1
		C30.1,117.9,29.8,118.5,29.8,119.2z"/>
	<path class="st3" d="M33.8,115.6h1.7v7.2h-1.7V122c-1.2,1.3-3.2,1.3-4.5,0.1l0,0c-0.1-0.1-0.1-0.1-0.1-0.2c-0.7-0.8-1-1.8-0.9-2.8
		c0-1,0.3-2,1-2.7c0.6-0.7,1.5-1.1,2.5-1.1c0.9,0,1.7,0.4,2.2,1L33.8,115.6z M29.8,119.2c0,0.6,0.2,1.2,0.6,1.7
		c0.4,0.4,0.9,0.7,1.4,0.7c0.6,0,1.1-0.2,1.5-0.7c0.8-1,0.8-2.4,0-3.3c-0.8-0.8-2-0.8-2.8-0.1l-0.1,0.1
		C30.1,117.9,29.8,118.5,29.8,119.2z"/>
	<path class="st0" d="M37.6,115.6h1.7v0.7c0.5-0.6,1.2-0.9,2-0.9c0.7-0.1,1.5,0.2,1.9,0.8c0.4,0.6,0.6,1.4,0.6,2.2v4.4h-1.7v-4
		c0.1-0.5-0.1-1-0.3-1.4c-0.3-0.3-0.6-0.4-1-0.4c-0.5-0.1-0.9,0.2-1.2,0.6c-0.3,0.6-0.4,1.2-0.4,1.9v3.4h-1.7v-7.3H37.6z"/>
	<path class="st3" d="M37.6,115.6h1.7v0.7c0.5-0.6,1.2-0.9,2-0.9c0.7-0.1,1.5,0.2,1.9,0.8c0.4,0.6,0.6,1.4,0.6,2.2v4.4h-1.7v-4
		c0.1-0.5-0.1-1-0.3-1.4c-0.3-0.3-0.6-0.4-1-0.4c-0.5-0.1-0.9,0.2-1.2,0.6c-0.3,0.6-0.4,1.2-0.4,1.9v3.4h-1.7v-7.3H37.6z"/>
	<path class="st0" d="M51.2,110.2h1.7v12.5h-1.7V122c-0.6,0.6-1.4,0.9-2.2,0.9c-0.9,0-1.8-0.4-2.4-1.1c-0.6-0.8-1-1.7-1-2.7
		s0.3-1.9,1-2.7c1.1-1.3,3.1-1.4,4.4-0.3l0,0c0.1,0.1,0.2,0.1,0.3,0.3L51.2,110.2z M47.2,119.1c0,0.6,0.2,1.2,0.6,1.7
		c0.4,0.4,0.9,0.7,1.4,0.7c0.6,0,1.1-0.2,1.5-0.7c0.8-1,0.8-2.4,0-3.3c-0.4-0.4-0.9-0.7-1.5-0.7s-1.1,0.2-1.4,0.7
		C47.4,117.9,47.3,118.5,47.2,119.1L47.2,119.1z"/>
	<path class="st3" d="M51.2,110.2h1.7v12.5h-1.7V122c-0.6,0.6-1.4,0.9-2.2,0.9c-0.9,0-1.8-0.4-2.4-1.1c-0.6-0.8-1-1.7-1-2.7
		s0.3-1.9,1-2.7c1.1-1.3,3.1-1.4,4.4-0.3l0,0c0.1,0.1,0.2,0.1,0.3,0.3L51.2,110.2z M47.2,119.1c0,0.6,0.2,1.2,0.6,1.7
		c0.4,0.4,0.9,0.7,1.4,0.7c0.6,0,1.1-0.2,1.5-0.7c0.8-1,0.8-2.4,0-3.3c-0.4-0.4-0.9-0.7-1.5-0.7s-1.1,0.2-1.4,0.7
		C47.4,117.9,47.3,118.5,47.2,119.1L47.2,119.1z"/>
	<polygon class="st0" points="60.6,115.6 62.5,119.7 64.5,114.9 66.5,119.7 68.4,115.6 70.2,115.6 66.5,123.3 64.5,118.7 
		62.5,123.3 58.7,115.6 	"/>
	<polygon class="st3" points="60.6,115.6 62.5,119.7 64.5,114.9 66.5,119.7 68.4,115.6 70.2,115.6 66.5,123.3 64.5,118.7 
		62.5,123.3 58.7,115.6 	"/>
	<path class="st0" d="M76.4,115.6h1.7v7.2h-1.7V122c-1.2,1.3-3.2,1.3-4.5,0.1l0,0c-0.1-0.1-0.1-0.1-0.1-0.2c-0.7-0.8-1-1.7-0.9-2.7
		c0-1,0.3-2,0.9-2.7s1.5-1.1,2.4-1.1s1.7,0.4,2.2,1V115.6z M72.4,119.2c0,0.6,0.2,1.2,0.6,1.7c0.4,0.4,0.9,0.7,1.4,0.7
		c0.6,0,1.1-0.2,1.5-0.7c0.8-1,0.8-2.3,0-3.3c-0.4-0.4-0.9-0.7-1.5-0.7s-1.1,0.2-1.4,0.7C72.6,118,72.4,118.6,72.4,119.2z"/>
	<path class="st3" d="M76.4,115.6h1.7v7.2h-1.7V122c-1.2,1.3-3.2,1.3-4.5,0.1l0,0c-0.1-0.1-0.1-0.1-0.1-0.2c-0.7-0.8-1-1.7-0.9-2.7
		c0-1,0.3-2,0.9-2.7s1.5-1.1,2.4-1.1s1.7,0.4,2.2,1V115.6z M72.4,119.2c0,0.6,0.2,1.2,0.6,1.7c0.4,0.4,0.9,0.7,1.4,0.7
		c0.6,0,1.1-0.2,1.5-0.7c0.8-1,0.8-2.3,0-3.3c-0.4-0.4-0.9-0.7-1.5-0.7s-1.1,0.2-1.4,0.7C72.6,118,72.4,118.6,72.4,119.2z"/>
	<polygon class="st0" points="81.9,117.1 81.9,122.7 80.3,122.7 80.3,117.1 79.5,117.1 79.5,115.5 80.3,115.5 80.3,112.9 
		81.9,112.9 81.9,115.6 83.2,115.6 83.2,117.1 	"/>
	<polygon class="st3" points="81.9,117.1 81.9,122.7 80.3,122.7 80.3,117.1 79.5,117.1 79.5,115.5 80.3,115.5 80.3,112.9 
		81.9,112.9 81.9,115.6 83.2,115.6 83.2,117.1 	"/>
	<path class="st0" d="M89.9,115.8v2.2c-0.3-0.4-0.6-0.7-1-0.9c-0.3-0.2-0.7-0.3-1.1-0.3c-0.6,0-1.2,0.2-1.6,0.7
		c-0.4,0.4-0.7,1-0.7,1.7c0,0.6,0.2,1.2,0.6,1.7c0.4,0.4,0.9,0.7,1.5,0.7c0.4,0,0.8-0.1,1.1-0.3c0.4-0.3,0.8-0.6,1.1-1v2.2
		c-0.6,0.3-1.3,0.5-2,0.5c-1.1,0-2.1-0.4-2.8-1.1c-1.5-1.4-1.6-3.7-0.2-5.1c0.1-0.1,0.1-0.1,0.2-0.2c0.7-0.7,1.8-1.1,2.8-1.1
		C88.6,115.3,89.3,115.5,89.9,115.8z"/>
	<path class="st3" d="M89.9,115.8v2.2c-0.3-0.4-0.6-0.7-1-0.9c-0.3-0.2-0.7-0.3-1.1-0.3c-0.6,0-1.2,0.2-1.6,0.7
		c-0.4,0.4-0.7,1-0.7,1.7c0,0.6,0.2,1.2,0.6,1.7c0.4,0.4,0.9,0.7,1.5,0.7c0.4,0,0.8-0.1,1.1-0.3c0.4-0.3,0.8-0.6,1.1-1v2.2
		c-0.6,0.3-1.3,0.5-2,0.5c-1.1,0-2.1-0.4-2.8-1.1c-1.5-1.4-1.6-3.7-0.2-5.1c0.1-0.1,0.1-0.1,0.2-0.2c0.7-0.7,1.8-1.1,2.8-1.1
		C88.6,115.3,89.3,115.5,89.9,115.8z"/>
	<path class="st0" d="M91.9,110.2h1.6v5.9c1.1-1.1,2.8-1.1,3.9,0c0.4,0.6,0.6,1.4,0.6,2.2v4.4h-1.6v-4.2c0-0.4-0.1-0.9-0.3-1.2
		c-0.2-0.3-0.6-0.4-1-0.4c-0.5-0.1-1,0.2-1.2,0.6c-0.3,0.6-0.4,1.2-0.4,1.9v3.5h-1.7L91.9,110.2L91.9,110.2z"/>
	<path class="st3" d="M91.9,110.2h1.6v5.9c1.1-1.1,2.8-1.1,3.9,0c0.4,0.6,0.6,1.4,0.6,2.2v4.4h-1.6v-4.2c0-0.4-0.1-0.9-0.3-1.2
		c-0.2-0.3-0.6-0.4-1-0.4c-0.5-0.1-1,0.2-1.2,0.6c-0.3,0.6-0.4,1.2-0.4,1.9v3.5h-1.7L91.9,110.2L91.9,110.2z"/>
	<path class="st0" d="M106.6,117.1v5.7H105v-5.6h-0.6v-1.6h0.6v-2.8c-0.1-0.7,0.1-1.4,0.5-1.9c0.5-0.5,1.2-0.8,1.9-0.8
		c0.4,0,0.8,0.1,1.1,0.3v1.7l-0.1-0.1c-0.3-0.1-0.6-0.2-0.9-0.3c-0.2,0-0.5,0.1-0.6,0.3c-0.2,0.4-0.2,0.8-0.1,1.2v2.4h1.8v1.6
		L106.6,117.1z"/>
	<path class="st3" d="M106.6,117.1v5.7H105v-5.6h-0.6v-1.6h0.6v-2.8c-0.1-0.7,0.1-1.4,0.5-1.9c0.5-0.5,1.2-0.8,1.9-0.8
		c0.4,0,0.8,0.1,1.1,0.3v1.7l-0.1-0.1c-0.3-0.1-0.6-0.2-0.9-0.3c-0.2,0-0.5,0.1-0.6,0.3c-0.2,0.4-0.2,0.8-0.1,1.2v2.4h1.8v1.6
		L106.6,117.1z"/>
	<path class="st0" d="M109.2,119.1c0-1,0.4-2,1.1-2.7c1.5-1.4,3.9-1.4,5.5,0c1.5,1.5,1.5,3.9,0.1,5.3c0,0,0,0-0.1,0.1
		c-0.7,0.7-1.7,1.1-2.7,1.1s-2-0.4-2.7-1.1C109.7,121.1,109.2,120.1,109.2,119.1z M111,119.1c0,0.6,0.2,1.2,0.6,1.7
		c0.8,0.9,2.2,0.9,3.1,0l0,0c0.8-1,0.8-2.4,0-3.4c-0.8-0.9-2.2-0.9-3.1,0l0,0C111.1,117.9,110.9,118.5,111,119.1z"/>
	<path class="st3" d="M109.2,119.1c0-1,0.4-2,1.1-2.7c1.5-1.4,3.9-1.4,5.5,0c1.5,1.5,1.5,3.9,0.1,5.3c0,0,0,0-0.1,0.1
		c-0.7,0.7-1.7,1.1-2.7,1.1s-2-0.4-2.7-1.1C109.7,121.1,109.2,120.1,109.2,119.1z M111,119.1c0,0.6,0.2,1.2,0.6,1.7
		c0.8,0.9,2.2,0.9,3.1,0l0,0c0.8-1,0.8-2.4,0-3.4c-0.8-0.9-2.2-0.9-3.1,0l0,0C111.1,117.9,110.9,118.5,111,119.1z"/>
	<path class="st0" d="M118.7,115.6h1.7v0.7c0.2-0.3,0.5-0.5,0.8-0.7c0.3-0.1,0.6-0.2,0.9-0.1c0.5,0,1,0.1,1.4,0.4l-0.8,1.5
		c-0.3-0.2-0.6-0.3-0.9-0.4c-0.9,0-1.4,0.7-1.4,2v3.7h-1.7V115.6z"/>
	<path class="st3" d="M118.7,115.6h1.7v0.7c0.2-0.3,0.5-0.5,0.8-0.7c0.3-0.1,0.6-0.2,0.9-0.1c0.5,0,1,0.1,1.4,0.4l-0.8,1.5
		c-0.3-0.2-0.6-0.3-0.9-0.4c-0.9,0-1.4,0.7-1.4,2v3.7h-1.7V115.6z"/>
	<path class="st0" d="M38.6,132.1h1.7v0.6c0.2-0.3,0.5-0.5,0.8-0.7s0.6-0.2,0.9-0.1c0.8,0,1.5,0.4,1.9,1.1c0.5-0.7,1.3-1.1,2.1-1.1
		c1.7,0,2.5,1,2.5,3v4.5h-1.7v-4c0-0.5-0.1-1-0.3-1.4c-0.2-0.3-0.5-0.4-0.9-0.4s-0.8,0.2-1,0.5c-0.2,0.5-0.3,1.1-0.3,1.6v3.8h-1.7
		v-4c0-1.3-0.4-2-1.1-2c-0.4,0-0.8,0.2-1,0.5c-0.2,0.5-0.3,1.1-0.3,1.7v3.8h-1.7L38.6,132.1L38.6,132.1z"/>
	<path class="st3" d="M38.6,132.1h1.7v0.6c0.2-0.3,0.5-0.5,0.8-0.7s0.6-0.2,0.9-0.1c0.8,0,1.5,0.4,1.9,1.1c0.5-0.7,1.3-1.1,2.1-1.1
		c1.7,0,2.5,1,2.5,3v4.5h-1.7v-4c0-0.5-0.1-1-0.3-1.4c-0.2-0.3-0.5-0.4-0.9-0.4s-0.8,0.2-1,0.5c-0.2,0.5-0.3,1.1-0.3,1.6v3.8h-1.7
		v-4c0-1.3-0.4-2-1.1-2c-0.4,0-0.8,0.2-1,0.5c-0.2,0.5-0.3,1.1-0.3,1.7v3.8h-1.7L38.6,132.1L38.6,132.1z"/>
	<polygon class="st0" points="52.6,137.9 49.4,132.1 51.3,132.1 53.5,136.2 55.6,132.1 57.5,132.1 51.8,143.2 49.9,143.2 	"/>
	<polygon class="st3" points="52.6,137.9 49.4,132.1 51.3,132.1 53.5,136.2 55.6,132.1 57.5,132.1 51.8,143.2 49.9,143.2 	"/>
	<path class="st0" d="M67.4,133.3L66,134c-0.2-0.4-0.5-0.6-0.8-0.6c-0.1,0-0.3,0.1-0.4,0.1c-0.1,0.1-0.1,0.2-0.1,0.4
		s0.3,0.6,0.9,0.8c0.7,0.2,1.3,0.6,1.8,1.1c0.3,0.4,0.5,0.8,0.4,1.3c0,0.7-0.3,1.3-0.8,1.7c-1.2,1-2.9,0.9-3.9-0.3
		c-0.2-0.2-0.4-0.5-0.5-0.8l1.4-0.6l0.4,0.7c0.2,0.2,0.4,0.3,0.7,0.3c0.6,0,0.9-0.3,0.9-0.8c0-0.3-0.2-0.6-0.7-0.9l-0.5-0.2
		l-0.5-0.2c-0.4-0.2-0.7-0.4-1-0.7s-0.4-0.7-0.4-1.2c0-0.6,0.2-1.2,0.7-1.6c0.4-0.4,1-0.6,1.6-0.6C66.3,131.9,67.1,132.5,67.4,133.3
		z"/>
	<path class="st3" d="M67.4,133.3L66,134c-0.2-0.4-0.5-0.6-0.8-0.6c-0.1,0-0.3,0.1-0.4,0.1c-0.1,0.1-0.1,0.2-0.1,0.4
		s0.3,0.6,0.9,0.8c0.7,0.2,1.3,0.6,1.8,1.1c0.3,0.4,0.5,0.8,0.4,1.3c0,0.7-0.3,1.3-0.8,1.7c-1.2,1-2.9,0.9-3.9-0.3
		c-0.2-0.2-0.4-0.5-0.5-0.8l1.4-0.6l0.4,0.7c0.2,0.2,0.4,0.3,0.7,0.3c0.6,0,0.9-0.3,0.9-0.8c0-0.3-0.2-0.6-0.7-0.9l-0.5-0.2
		l-0.5-0.2c-0.4-0.2-0.7-0.4-1-0.7s-0.4-0.7-0.4-1.2c0-0.6,0.2-1.2,0.7-1.6c0.4-0.4,1-0.6,1.6-0.6C66.3,131.9,67.1,132.5,67.4,133.3
		z"/>
	<path class="st0" d="M69.1,129.1c0-0.6,0.5-1.1,1.1-1.1c0.3,0,0.6,0.1,0.8,0.3c0.2,0.2,0.3,0.5,0.3,0.8s-0.1,0.6-0.3,0.8
		c-0.4,0.4-1,0.5-1.4,0.1l-0.1-0.1C69.2,129.7,69.1,129.4,69.1,129.1z M71,132.1v7.2h-1.7v-7.2H71z"/>
	<path class="st3" d="M69.1,129.1c0-0.6,0.5-1.1,1.1-1.1c0.3,0,0.6,0.1,0.8,0.3c0.2,0.2,0.3,0.5,0.3,0.8s-0.1,0.6-0.3,0.8
		c-0.4,0.4-1,0.5-1.4,0.1l-0.1-0.1C69.2,129.7,69.1,129.4,69.1,129.1z M71,132.1v7.2h-1.7v-7.2H71z"/>
	<path class="st0" d="M80.1,139.1v0.9c0,0.2-0.1,0.5-0.1,0.7c-0.1,0.5-0.4,1-0.7,1.4c-0.7,0.8-1.7,1.2-2.7,1.2
		c-0.9,0-1.7-0.2-2.4-0.8c-0.7-0.6-1.1-1.4-1.1-2.2h1.7c0.1,0.3,0.1,0.5,0.3,0.8c0.4,0.5,0.9,0.7,1.5,0.6c1.2,0,1.8-0.7,1.8-2.2v-1
		c-1.2,1.3-3.1,1.4-4.4,0.2c0,0,0,0-0.1-0.1l-0.2-0.2c-0.7-0.7-1-1.7-0.9-2.7c0-1,0.3-1.9,0.9-2.7s1.5-1.2,2.5-1.2
		c0.9,0,1.7,0.4,2.2,1V132H80L80.1,139.1z M78.5,135.7c0-0.6-0.2-1.2-0.6-1.7c-0.7-0.8-1.9-0.9-2.7-0.2c-0.1,0.1-0.2,0.2-0.3,0.3
		c-0.3,0.5-0.5,1.1-0.5,1.7c0,0.6,0.2,1.1,0.5,1.6c0.7,0.8,1.9,0.9,2.7,0.3c0.1-0.1,0.2-0.2,0.3-0.3
		C78.2,136.9,78.4,136.3,78.5,135.7L78.5,135.7z"/>
	<path class="st3" d="M80.1,139.1v0.9c0,0.2-0.1,0.5-0.1,0.7c-0.1,0.5-0.4,1-0.7,1.4c-0.7,0.8-1.7,1.2-2.7,1.2
		c-0.9,0-1.7-0.2-2.4-0.8c-0.7-0.6-1.1-1.4-1.1-2.2h1.7c0.1,0.3,0.1,0.5,0.3,0.8c0.4,0.5,0.9,0.7,1.5,0.6c1.2,0,1.8-0.7,1.8-2.2v-1
		c-1.2,1.3-3.1,1.4-4.4,0.2c0,0,0,0-0.1-0.1l-0.2-0.2c-0.7-0.7-1-1.7-0.9-2.7c0-1,0.3-1.9,0.9-2.7s1.5-1.2,2.5-1.2
		c0.9,0,1.7,0.4,2.2,1V132H80L80.1,139.1z M78.5,135.7c0-0.6-0.2-1.2-0.6-1.7c-0.7-0.8-1.9-0.9-2.7-0.2c-0.1,0.1-0.2,0.2-0.3,0.3
		c-0.3,0.5-0.5,1.1-0.5,1.7c0,0.6,0.2,1.1,0.5,1.6c0.7,0.8,1.9,0.9,2.7,0.3c0.1-0.1,0.2-0.2,0.3-0.3
		C78.2,136.9,78.4,136.3,78.5,135.7L78.5,135.7z"/>
	<path class="st0" d="M82.1,132.1h1.7v0.6c0.5-0.6,1.2-0.9,1.9-0.9c0.7-0.1,1.5,0.2,1.9,0.8c0.4,0.7,0.6,1.4,0.6,2.2v4.4h-1.7v-4
		c0.1-0.5-0.1-1-0.3-1.4c-0.3-0.3-0.7-0.4-1.1-0.4c-0.5-0.1-0.9,0.2-1.2,0.6c-0.3,0.6-0.4,1.2-0.4,1.9v3.5h-1.7L82.1,132.1z"/>
	<path class="st3" d="M82.1,132.1h1.7v0.6c0.5-0.6,1.2-0.9,1.9-0.9c0.7-0.1,1.5,0.2,1.9,0.8c0.4,0.7,0.6,1.4,0.6,2.2v4.4h-1.7v-4
		c0.1-0.5-0.1-1-0.3-1.4c-0.3-0.3-0.7-0.4-1.1-0.4c-0.5-0.1-0.9,0.2-1.2,0.6c-0.3,0.6-0.4,1.2-0.4,1.9v3.5h-1.7L82.1,132.1z"/>
	<path class="st0" d="M95.8,132.1h1.7v7.2h-1.7v-0.7c-1.2,1.3-3.2,1.3-4.5,0.1l0,0c-0.1-0.1-0.1-0.1-0.1-0.2c-0.7-0.8-1-1.7-0.9-2.7
		c0-1,0.3-2,0.9-2.7s1.5-1.1,2.5-1.1c0.9,0,1.7,0.4,2.2,1L95.8,132.1z M91.8,135.7c0,0.6,0.2,1.2,0.6,1.7c0.4,0.4,0.9,0.7,1.4,0.6
		c0.6,0,1.1-0.2,1.5-0.6c0.8-1,0.8-2.3,0-3.3c-0.4-0.4-0.9-0.6-1.4-0.7c-0.6,0-1.1,0.2-1.4,0.7C92,134.5,91.7,135.1,91.8,135.7z"/>
	<path class="st3" d="M95.8,132.1h1.7v7.2h-1.7v-0.7c-1.2,1.3-3.2,1.3-4.5,0.1l0,0c-0.1-0.1-0.1-0.1-0.1-0.2c-0.7-0.8-1-1.7-0.9-2.7
		c0-1,0.3-2,0.9-2.7s1.5-1.1,2.5-1.1c0.9,0,1.7,0.4,2.2,1L95.8,132.1z M91.8,135.7c0,0.6,0.2,1.2,0.6,1.7c0.4,0.4,0.9,0.7,1.4,0.6
		c0.6,0,1.1-0.2,1.5-0.6c0.8-1,0.8-2.3,0-3.3c-0.4-0.4-0.9-0.6-1.4-0.7c-0.6,0-1.1,0.2-1.4,0.7C92,134.5,91.7,135.1,91.8,135.7z"/>
	<rect x="99.5" y="126.8" class="st0" width="1.7" height="12.5"/>
	<rect x="99.5" y="126.8" class="st3" width="1.7" height="12.5"/>
	<path class="st0" d="M107.6,133.3l-1.4,0.7c-0.2-0.4-0.5-0.6-0.8-0.6c-0.1,0-0.3,0.1-0.4,0.1c-0.2,0.1-0.2,0.2-0.2,0.4
		s0.3,0.6,0.9,0.8c0.7,0.2,1.3,0.6,1.8,1.1c0.3,0.3,0.5,0.8,0.4,1.3c0,0.7-0.3,1.3-0.8,1.7c-0.5,0.5-1.1,0.7-1.8,0.6
		c-1.2,0.1-2.2-0.6-2.6-1.7l1.4-0.6l0.4,0.6c0.2,0.2,0.4,0.3,0.7,0.3c0.6,0,0.9-0.3,0.9-0.8c0-0.3-0.2-0.6-0.6-0.9l-0.5-0.2
		l-0.5-0.2c-0.4-0.2-0.7-0.4-1-0.7s-0.4-0.7-0.4-1.1c0-0.6,0.2-1.2,0.7-1.6c0.4-0.4,1-0.6,1.6-0.6
		C106.5,131.9,107.3,132.5,107.6,133.3z"/>
	<path class="st3" d="M107.6,133.3l-1.4,0.7c-0.2-0.4-0.5-0.6-0.8-0.6c-0.1,0-0.3,0.1-0.4,0.1c-0.2,0.1-0.2,0.2-0.2,0.4
		s0.3,0.6,0.9,0.8c0.7,0.2,1.3,0.6,1.8,1.1c0.3,0.3,0.5,0.8,0.4,1.3c0,0.7-0.3,1.3-0.8,1.7c-0.5,0.5-1.1,0.7-1.8,0.6
		c-1.2,0.1-2.2-0.6-2.6-1.7l1.4-0.6l0.4,0.6c0.2,0.2,0.4,0.3,0.7,0.3c0.6,0,0.9-0.3,0.9-0.8c0-0.3-0.2-0.6-0.6-0.9l-0.5-0.2
		l-0.5-0.2c-0.4-0.2-0.7-0.4-1-0.7s-0.4-0.7-0.4-1.1c0-0.6,0.2-1.2,0.7-1.6c0.4-0.4,1-0.6,1.6-0.6
		C106.5,131.9,107.3,132.5,107.6,133.3z"/>
</g>
</svg>
