<?xml version="1.0" encoding="utf-8"?>
<!-- Generator: Adobe Illustrator 24.0.1, SVG Export Plug-In . SVG Version: 6.00 Build 0)  -->
<svg version="1.1" xmlns="http://www.w3.org/2000/svg" xmlns:xlink="http://www.w3.org/1999/xlink" x="0px" y="0px"
	 viewBox="0 0 147.8 147.8" style="enable-background:new 0 0 147.8 147.8;" xml:space="preserve">
<style type="text/css">
	.st0{fill:#FFCC00;}
	.st1{clip-path:url(#SVGID_2_);}
	.st2{stroke:#FF0000;stroke-width:250;stroke-dasharray:18.8;}
	.st3{fill:none;stroke:#000000;stroke-width:3.75;stroke-linejoin:round;}
	.st4{fill:#FFFFFF;}
	.st5{fill:none;stroke:#000000;stroke-width:0.5;}
</style>
<g id="Layer_2">
	<title>Yankee</title>
	<path class="st0" d="M1.9,1.9h144v144H1.9"/>
	<g>
		<defs>
			<polyline id="SVGID_1_" points="1.9,1.9 145.9,1.9 145.9,145.9 1.9,145.9 			"/>
		</defs>
		<clipPath id="SVGID_2_">
			<use xlink:href="#SVGID_1_"  style="overflow:visible;"/>
		</clipPath>
		<g class="st1">
			<path class="st2" d="M-12.1-12.1l160,160"/>
		</g>
	</g>
	<path class="st3" d="M1.9,1.9h144v144H1.9V1.9z"/>
</g>
<g id="Layer_1">
	<rect x="7.6" y="102.5" class="st4" width="2.4" height="15.8"/>
	<rect x="7.6" y="102.5" class="st5" width="2.4" height="15.8"/>
	<path class="st4" d="M27.2,108.3h2.3v10h-2.3v-1c-1.7,1.8-4.5,1.8-6.3,0.1c0,0,0,0,0,0c-0.1-0.1-0.2-0.2-0.2-0.3
		c-0.9-1-1.4-2.4-1.3-3.8c0-1.4,0.4-2.7,1.3-3.8c0.9-1,2.1-1.5,3.4-1.5c1.2,0,2.3,0.5,3.1,1.4V108.3z M21.7,113.3
		c0,0.8,0.2,1.7,0.8,2.3c0.5,0.6,1.2,0.9,2,0.9c0.8,0,1.6-0.3,2.1-0.9c1.1-1.3,1.1-3.3,0-4.6c-0.5-0.6-1.3-0.9-2.1-0.9
		c-0.8,0-1.5,0.3-2,0.9C22,111.6,21.8,112.4,21.7,113.3z"/>
	<path class="st5" d="M27.2,108.3h2.3v10h-2.3v-1c-1.7,1.8-4.5,1.8-6.3,0.1c0,0,0,0,0,0c-0.1-0.1-0.2-0.2-0.2-0.3
		c-0.9-1-1.4-2.4-1.3-3.8c0-1.4,0.4-2.7,1.3-3.8c0.9-1,2.1-1.5,3.4-1.5c1.2,0,2.3,0.5,3.1,1.4V108.3z M21.7,113.3
		c0,0.8,0.2,1.7,0.8,2.3c0.5,0.6,1.2,0.9,2,0.9c0.8,0,1.6-0.3,2.1-0.9c1.1-1.3,1.1-3.3,0-4.6c-0.5-0.6-1.3-0.9-2.1-0.9
		c-0.8,0-1.5,0.3-2,0.9C22,111.6,21.8,112.4,21.7,113.3z"/>
	<path class="st4" d="M32.4,108.3h2.3v0.9c0.3-0.4,0.7-0.7,1.1-0.9c0.4-0.2,0.9-0.3,1.3-0.2c1.1,0,2.1,0.6,2.7,1.5
		c0.7-0.9,1.7-1.5,2.9-1.5c2.3,0,3.4,1.4,3.4,4.1v6.2h-2.3v-5.6c0-0.7-0.1-1.4-0.3-2c-0.3-0.4-0.7-0.6-1.2-0.6
		c-0.6,0-1.1,0.2-1.4,0.7c-0.3,0.7-0.5,1.5-0.4,2.3v5.2h-2.3v-5.6c0-1.8-0.5-2.7-1.5-2.7c-0.6,0-1.1,0.2-1.4,0.7
		c-0.3,0.7-0.5,1.5-0.4,2.3v5.2h-2.5L32.4,108.3z"/>
	<path class="st5" d="M32.4,108.3h2.3v0.9c0.3-0.4,0.7-0.7,1.1-0.9c0.4-0.2,0.9-0.3,1.3-0.2c1.1,0,2.1,0.6,2.7,1.5
		c0.7-0.9,1.7-1.5,2.9-1.5c2.3,0,3.4,1.4,3.4,4.1v6.2h-2.3v-5.6c0-0.7-0.1-1.4-0.3-2c-0.3-0.4-0.7-0.6-1.2-0.6
		c-0.6,0-1.1,0.2-1.4,0.7c-0.3,0.7-0.5,1.5-0.4,2.3v5.2h-2.3v-5.6c0-1.8-0.5-2.7-1.5-2.7c-0.6,0-1.1,0.2-1.4,0.7
		c-0.3,0.7-0.5,1.5-0.4,2.3v5.2h-2.5L32.4,108.3z"/>
	<path class="st4" d="M62.9,101h2.3v17.3h-2.3v-1c-0.8,0.8-1.9,1.3-3.1,1.3c-1.3,0-2.5-0.5-3.4-1.5c-0.9-1.1-1.4-2.4-1.4-3.8
		c0-1.4,0.5-2.7,1.4-3.7c1.6-1.8,4.3-2,6.1-0.4c0,0,0,0,0,0c0.1,0.1,0.3,0.2,0.4,0.4V101z M57.4,113.3c0,0.8,0.2,1.7,0.8,2.3
		c0.5,0.6,1.2,0.9,2,0.9c0.8,0,1.6-0.4,2.1-0.9c1.1-1.3,1.1-3.3,0-4.6c-1-1.1-2.7-1.2-3.8-0.2c-0.1,0.1-0.2,0.1-0.2,0.2
		C57.7,111.5,57.4,112.4,57.4,113.3z"/>
	<path class="st5" d="M62.9,101h2.3v17.3h-2.3v-1c-0.8,0.8-1.9,1.3-3.1,1.3c-1.3,0-2.5-0.5-3.4-1.5c-0.9-1.1-1.4-2.4-1.4-3.8
		c0-1.4,0.5-2.7,1.4-3.7c1.6-1.8,4.3-2,6.1-0.4c0,0,0,0,0,0c0.1,0.1,0.3,0.2,0.4,0.4V101z M57.4,113.3c0,0.8,0.2,1.7,0.8,2.3
		c0.5,0.6,1.2,0.9,2,0.9c0.8,0,1.6-0.4,2.1-0.9c1.1-1.3,1.1-3.3,0-4.6c-1-1.1-2.7-1.2-3.8-0.2c-0.1,0.1-0.2,0.1-0.2,0.2
		C57.7,111.5,57.4,112.4,57.4,113.3z"/>
	<path class="st4" d="M68.1,108.3h2.3v0.9c0.3-0.4,0.7-0.7,1.1-0.9c0.4-0.2,0.8-0.3,1.2-0.2c0.7,0,1.3,0.2,1.9,0.6l-1.1,2.1
		c-0.4-0.3-0.8-0.5-1.3-0.5c-1.3,0-1.9,0.9-1.9,2.8v5.2H68L68.1,108.3z"/>
	<path class="st5" d="M68.1,108.3h2.3v0.9c0.3-0.4,0.7-0.7,1.1-0.9c0.4-0.2,0.8-0.3,1.2-0.2c0.7,0,1.3,0.2,1.9,0.6l-1.1,2.1
		c-0.4-0.3-0.8-0.5-1.3-0.5c-1.3,0-1.9,0.9-1.9,2.8v5.2H68L68.1,108.3z"/>
	<path class="st4" d="M83.2,108.3h2.3v10h-2.3v-1c-1.7,1.8-4.5,1.8-6.3,0.1c0,0,0,0,0,0c-0.1-0.1-0.2-0.2-0.2-0.3
		c-1.7-2.2-1.7-5.4,0-7.6c0.9-1,2.1-1.5,3.4-1.5c1.2,0,2.3,0.5,3.1,1.4V108.3z M77.7,113.3c0,0.8,0.2,1.7,0.8,2.3
		c0.5,0.6,1.2,0.9,2,0.9c0.8,0,1.6-0.3,2.1-0.9c1.1-1.3,1.1-3.3,0-4.6c-1-1.1-2.7-1.2-3.8-0.2c0,0,0,0-0.1,0.1l-0.1,0.1
		C78,111.6,77.7,112.4,77.7,113.3z"/>
	<path class="st5" d="M83.2,108.3h2.3v10h-2.3v-1c-1.7,1.8-4.5,1.8-6.3,0.1c0,0,0,0,0,0c-0.1-0.1-0.2-0.2-0.2-0.3
		c-1.7-2.2-1.7-5.4,0-7.6c0.9-1,2.1-1.5,3.4-1.5c1.2,0,2.3,0.5,3.1,1.4V108.3z M77.7,113.3c0,0.8,0.2,1.7,0.8,2.3
		c0.5,0.6,1.2,0.9,2,0.9c0.8,0,1.6-0.3,2.1-0.9c1.1-1.3,1.1-3.3,0-4.6c-1-1.1-2.7-1.2-3.8-0.2c0,0,0,0-0.1,0.1l-0.1,0.1
		C78,111.6,77.7,112.4,77.7,113.3z"/>
	<path class="st4" d="M98.1,118.1v1.2c0,0.3-0.1,0.7-0.1,1c-0.2,0.7-0.5,1.4-1,1.9c-0.9,1.1-2.3,1.6-3.7,1.6
		c-1.2,0.1-2.4-0.3-3.3-1.1c-0.9-0.8-1.5-1.9-1.5-3.1h2.3c0.1,1.3,1.2,2.2,2.5,2.1c1.7,0,2.5-1,2.5-3.1v-1.4
		c-1.6,1.8-4.3,1.9-6.1,0.3c0,0-0.1-0.1-0.1-0.1l-0.3-0.3c-0.9-1-1.4-2.3-1.3-3.7c0-1.3,0.4-2.6,1.2-3.7c0.8-1.1,2.1-1.7,3.5-1.7
		c1.2,0,2.3,0.5,3.1,1.4v-1.1h2.3V118.1z M95.9,113.3c0-0.8-0.2-1.7-0.8-2.3c-1-1.1-2.7-1.2-3.8-0.2c-0.1,0.1-0.2,0.2-0.3,0.3
		c-0.5,0.7-0.7,1.5-0.7,2.3c0,0.8,0.2,1.6,0.7,2.2c0.9,1.2,2.7,1.3,3.8,0.4c0.1-0.1,0.3-0.2,0.4-0.4
		C95.7,114.9,95.9,114.1,95.9,113.3z"/>
	<path class="st5" d="M98.1,118.1v1.2c0,0.3-0.1,0.7-0.1,1c-0.2,0.7-0.5,1.4-1,1.9c-0.9,1.1-2.3,1.6-3.7,1.6
		c-1.2,0.1-2.4-0.3-3.3-1.1c-0.9-0.8-1.5-1.9-1.5-3.1h2.3c0.1,1.3,1.2,2.2,2.5,2.1c1.7,0,2.5-1,2.5-3.1v-1.4
		c-1.6,1.8-4.3,1.9-6.1,0.3c0,0-0.1-0.1-0.1-0.1l-0.3-0.3c-0.9-1-1.4-2.3-1.3-3.7c0-1.3,0.4-2.6,1.2-3.7c0.8-1.1,2.1-1.7,3.5-1.7
		c1.2,0,2.3,0.5,3.1,1.4v-1.1h2.3V118.1z M95.9,113.3c0-0.8-0.2-1.7-0.8-2.3c-1-1.1-2.7-1.2-3.8-0.2c-0.1,0.1-0.2,0.2-0.3,0.3
		c-0.5,0.7-0.7,1.5-0.7,2.3c0,0.8,0.2,1.6,0.7,2.2c0.9,1.2,2.7,1.3,3.8,0.4c0.1-0.1,0.3-0.2,0.4-0.4
		C95.7,114.9,95.9,114.1,95.9,113.3z"/>
	<path class="st4" d="M110.7,118.1v1.2c0,0.3-0.1,0.7-0.1,1c-0.2,0.7-0.5,1.4-1,1.9c-0.9,1.1-2.3,1.6-3.7,1.6
		c-1.2,0.1-2.4-0.3-3.3-1.1c-0.9-0.8-1.5-1.9-1.5-3.1h2.3c0.1,0.4,0.2,0.8,0.4,1.1c0.5,0.6,1.3,1,2.1,0.9c1.7,0,2.5-1,2.5-3.1v-1.4
		c-1.6,1.8-4.3,1.9-6.1,0.3c0,0-0.1-0.1-0.1-0.1l-0.3-0.3c-0.9-1-1.4-2.3-1.3-3.7c0-1.3,0.4-2.6,1.2-3.7c1.5-1.9,4.3-2.1,6.2-0.6
		c0.2,0.1,0.3,0.3,0.4,0.4v-1.2h2.3V118.1z M108.4,113.3c0-0.8-0.2-1.7-0.8-2.3c-1-1.1-2.7-1.2-3.8-0.2c-0.1,0.1-0.2,0.2-0.3,0.3
		c-0.5,0.7-0.7,1.5-0.7,2.3c0,0.8,0.2,1.6,0.7,2.2c0.5,0.6,1.2,1,2,1c0.8,0,1.6-0.4,2.1-1C108.2,114.9,108.5,114.1,108.4,113.3z"/>
	<path class="st5" d="M110.7,118.1v1.2c0,0.3-0.1,0.7-0.1,1c-0.2,0.7-0.5,1.4-1,1.9c-0.9,1.1-2.3,1.6-3.7,1.6
		c-1.2,0.1-2.4-0.3-3.3-1.1c-0.9-0.8-1.5-1.9-1.5-3.1h2.3c0.1,0.4,0.2,0.8,0.4,1.1c0.5,0.6,1.3,1,2.1,0.9c1.7,0,2.5-1,2.5-3.1v-1.4
		c-1.6,1.8-4.3,1.9-6.1,0.3c0,0-0.1-0.1-0.1-0.1l-0.3-0.3c-0.9-1-1.4-2.3-1.3-3.7c0-1.3,0.4-2.6,1.2-3.7c1.5-1.9,4.3-2.1,6.2-0.6
		c0.2,0.1,0.3,0.3,0.4,0.4v-1.2h2.3V118.1z M108.4,113.3c0-0.8-0.2-1.7-0.8-2.3c-1-1.1-2.7-1.2-3.8-0.2c-0.1,0.1-0.2,0.2-0.3,0.3
		c-0.5,0.7-0.7,1.5-0.7,2.3c0,0.8,0.2,1.6,0.7,2.2c0.5,0.6,1.2,1,2,1c0.8,0,1.6-0.4,2.1-1C108.2,114.9,108.5,114.1,108.4,113.3z"/>
	<path class="st4" d="M113.2,104.2c0-0.8,0.7-1.5,1.5-1.5c0.4,0,0.7,0.1,1,0.4c0.3,0.3,0.4,0.7,0.4,1.1c0,0.4-0.2,0.8-0.4,1.1
		c-0.3,0.3-0.7,0.4-1.1,0.4c-0.4,0-0.8-0.2-1.1-0.4C113.4,104.9,113.3,104.5,113.2,104.2z M115.9,108.3v10h-2.3v-10H115.9z"/>
	<path class="st5" d="M113.2,104.2c0-0.8,0.7-1.5,1.5-1.5c0.4,0,0.7,0.1,1,0.4c0.3,0.3,0.4,0.7,0.4,1.1c0,0.4-0.2,0.8-0.4,1.1
		c-0.3,0.3-0.7,0.4-1.1,0.4c-0.4,0-0.8-0.2-1.1-0.4C113.4,104.9,113.3,104.5,113.2,104.2z M115.9,108.3v10h-2.3v-10H115.9z"/>
	<path class="st4" d="M118.8,108.3h2.3v0.9c0.7-0.8,1.7-1.2,2.7-1.2c1.1-0.1,2.1,0.3,2.8,1.1c0.6,0.9,0.9,2,0.8,3.1v6.1h-2.3v-5.6
		c0.1-0.7-0.1-1.4-0.4-2c-0.4-0.4-0.9-0.6-1.5-0.6c-0.6-0.1-1.3,0.2-1.6,0.8c-0.4,0.8-0.5,1.7-0.5,2.6v4.8h-2.3V108.3z"/>
	<path class="st5" d="M118.8,108.3h2.3v0.9c0.7-0.8,1.7-1.2,2.7-1.2c1.1-0.1,2.1,0.3,2.8,1.1c0.6,0.9,0.9,2,0.8,3.1v6.1h-2.3v-5.6
		c0.1-0.7-0.1-1.4-0.4-2c-0.4-0.4-0.9-0.6-1.5-0.6c-0.6-0.1-1.3,0.2-1.6,0.8c-0.4,0.8-0.5,1.7-0.5,2.6v4.8h-2.3V108.3z"/>
	<path class="st4" d="M140,118.1v1.2c0,0.3-0.1,0.7-0.1,1c-0.2,0.7-0.5,1.4-1,1.9c-1,1-2.3,1.6-3.7,1.6c-1.2,0.1-2.4-0.3-3.3-1.1
		c-0.9-0.8-1.5-1.9-1.5-3.1h2.4c0.1,0.4,0.2,0.8,0.4,1.1c0.5,0.6,1.3,1,2.1,0.9c1.7,0,2.5-1,2.5-3.1v-1.4c-1.6,1.8-4.3,1.9-6.1,0.3
		c0,0-0.1-0.1-0.1-0.1l-0.3-0.3c-0.9-1-1.4-2.3-1.3-3.7c0-1.3,0.4-2.6,1.2-3.7c1.5-1.9,4.3-2.1,6.2-0.6c0.2,0.1,0.3,0.3,0.4,0.4
		v-1.2h2.3L140,118.1z M137.8,113.3c0-0.8-0.2-1.7-0.8-2.3c-1-1.1-2.7-1.2-3.8-0.2c-0.1,0.1-0.2,0.2-0.3,0.3
		c-0.5,0.7-0.7,1.5-0.7,2.3c0,0.8,0.2,1.6,0.7,2.2c0.9,1.2,2.7,1.3,3.8,0.4c0.1-0.1,0.3-0.2,0.4-0.4
		C137.6,114.9,137.8,114.1,137.8,113.3L137.8,113.3z"/>
	<path class="st5" d="M140,118.1v1.2c0,0.3-0.1,0.7-0.1,1c-0.2,0.7-0.5,1.4-1,1.9c-1,1-2.3,1.6-3.7,1.6c-1.2,0.1-2.4-0.3-3.3-1.1
		c-0.9-0.8-1.5-1.9-1.5-3.1h2.4c0.1,0.4,0.2,0.8,0.4,1.1c0.5,0.6,1.3,1,2.1,0.9c1.7,0,2.5-1,2.5-3.1v-1.4c-1.6,1.8-4.3,1.9-6.1,0.3
		c0,0-0.1-0.1-0.1-0.1l-0.3-0.3c-0.9-1-1.4-2.3-1.3-3.7c0-1.3,0.4-2.6,1.2-3.7c1.5-1.9,4.3-2.1,6.2-0.6c0.2,0.1,0.3,0.3,0.4,0.4
		v-1.2h2.3L140,118.1z M137.8,113.3c0-0.8-0.2-1.7-0.8-2.3c-1-1.1-2.7-1.2-3.8-0.2c-0.1,0.1-0.2,0.2-0.3,0.3
		c-0.5,0.7-0.7,1.5-0.7,2.3c0,0.8,0.2,1.6,0.7,2.2c0.9,1.2,2.7,1.3,3.8,0.4c0.1-0.1,0.3-0.2,0.4-0.4
		C137.6,114.9,137.8,114.1,137.8,113.3L137.8,113.3z"/>
	<path class="st4" d="M49.3,131.2h2.3v10h-2.3v-1c-1.7,1.8-4.5,1.8-6.3,0.1c0,0,0,0,0,0c-0.1-0.1-0.2-0.2-0.2-0.3
		c-0.9-1-1.4-2.4-1.3-3.8c0-1.4,0.4-2.7,1.3-3.8c0.9-1,2.1-1.5,3.4-1.5c1.2,0,2.3,0.5,3.1,1.4V131.2z M43.9,136.2
		c0,0.8,0.2,1.7,0.8,2.3c0.5,0.6,1.2,0.9,2,0.9c0.8,0,1.6-0.3,2.1-0.9c1.1-1.3,1.1-3.3,0-4.6c-1-1.1-2.7-1.2-3.8-0.2
		c0,0,0,0-0.1,0.1l-0.1,0.1C44.2,134.5,43.9,135.3,43.9,136.2z"/>
	<path class="st5" d="M49.3,131.2h2.3v10h-2.3v-1c-1.7,1.8-4.5,1.8-6.3,0.1c0,0,0,0,0,0c-0.1-0.1-0.2-0.2-0.2-0.3
		c-0.9-1-1.4-2.4-1.3-3.8c0-1.4,0.4-2.7,1.3-3.8c0.9-1,2.1-1.5,3.4-1.5c1.2,0,2.3,0.5,3.1,1.4V131.2z M43.9,136.2
		c0,0.8,0.2,1.7,0.8,2.3c0.5,0.6,1.2,0.9,2,0.9c0.8,0,1.6-0.3,2.1-0.9c1.1-1.3,1.1-3.3,0-4.6c-1-1.1-2.7-1.2-3.8-0.2
		c0,0,0,0-0.1,0.1l-0.1,0.1C44.2,134.5,43.9,135.3,43.9,136.2z"/>
	<path class="st4" d="M54.6,131.2h2.3v0.9c0.7-0.8,1.7-1.2,2.7-1.2c1-0.1,2,0.3,2.7,1.1c0.6,0.9,0.9,1.9,0.8,3v6.1h-2.3v-5.6
		c0.1-0.7-0.1-1.4-0.4-2c-0.4-0.4-0.9-0.6-1.5-0.6c-0.6-0.1-1.3,0.2-1.6,0.8c-0.4,0.8-0.5,1.7-0.5,2.6v4.8h-2.3L54.6,131.2z"/>
	<path class="st5" d="M54.6,131.2h2.3v0.9c0.7-0.8,1.7-1.2,2.7-1.2c1-0.1,2,0.3,2.7,1.1c0.6,0.9,0.9,1.9,0.8,3v6.1h-2.3v-5.6
		c0.1-0.7-0.1-1.4-0.4-2c-0.4-0.4-0.9-0.6-1.5-0.6c-0.6-0.1-1.3,0.2-1.6,0.8c-0.4,0.8-0.5,1.7-0.5,2.6v4.8h-2.3L54.6,131.2z"/>
	<path class="st4" d="M73.9,131.5v3.1c-0.4-0.5-0.9-0.9-1.4-1.3c-0.4-0.3-0.9-0.4-1.4-0.4c-0.8,0-1.6,0.3-2.2,0.9
		c-0.6,0.6-0.9,1.4-0.9,2.3c0,0.8,0.3,1.6,0.8,2.3c0.5,0.6,1.3,0.9,2.1,0.9c0.5,0,1-0.1,1.5-0.4c0.6-0.4,1-0.8,1.4-1.4v3
		c-0.9,0.5-1.8,0.7-2.8,0.7c-1.4,0-2.8-0.5-3.9-1.5c-1-1-1.6-2.3-1.5-3.7c0-2.9,2.4-5.3,5.3-5.3c0.1,0,0.1,0,0.2,0
		C72,130.8,73,131,73.9,131.5z"/>
	<path class="st5" d="M73.9,131.5v3.1c-0.4-0.5-0.9-0.9-1.4-1.3c-0.4-0.3-0.9-0.4-1.4-0.4c-0.8,0-1.6,0.3-2.2,0.9
		c-0.6,0.6-0.9,1.4-0.9,2.3c0,0.8,0.3,1.6,0.8,2.3c0.5,0.6,1.3,0.9,2.1,0.9c0.5,0,1-0.1,1.5-0.4c0.6-0.4,1-0.8,1.4-1.4v3
		c-0.9,0.5-1.8,0.7-2.8,0.7c-1.4,0-2.8-0.5-3.9-1.5c-1-1-1.6-2.3-1.5-3.7c0-2.9,2.4-5.3,5.3-5.3c0.1,0,0.1,0,0.2,0
		C72,130.8,73,131,73.9,131.5z"/>
	<path class="st4" d="M76.6,123.8h2.3v8.2c0.7-0.7,1.7-1.1,2.7-1.1c1.1-0.1,2.1,0.3,2.8,1.1c0.6,0.9,0.9,1.9,0.9,3v6.1H83v-5.9
		c0.1-0.6-0.1-1.2-0.4-1.7c-0.4-0.4-0.9-0.6-1.4-0.5c-0.7-0.1-1.3,0.2-1.7,0.8c-0.4,0.8-0.6,1.7-0.5,2.6v4.8h-2.3L76.6,123.8z"/>
	<path class="st5" d="M76.6,123.8h2.3v8.2c0.7-0.7,1.7-1.1,2.7-1.1c1.1-0.1,2.1,0.3,2.8,1.1c0.6,0.9,0.9,1.9,0.9,3v6.1H83v-5.9
		c0.1-0.6-0.1-1.2-0.4-1.7c-0.4-0.4-0.9-0.6-1.4-0.5c-0.7-0.1-1.3,0.2-1.7,0.8c-0.4,0.8-0.6,1.7-0.5,2.6v4.8h-2.3L76.6,123.8z"/>
	<path class="st4" d="M87.7,136c0-1.4,0.6-2.8,1.6-3.7c2.1-2,5.5-2,7.6,0c2.1,2,2.1,5.4,0.1,7.4c0,0-0.1,0.1-0.1,0.1
		c-2.1,2-5.5,2-7.6,0C88.2,138.8,87.6,137.4,87.7,136z M90,136c0,0.9,0.2,1.7,0.8,2.4c1.2,1.2,3.1,1.2,4.2,0.1c0,0,0,0,0.1-0.1
		c1.1-1.4,1.1-3.3,0-4.7c-1.2-1.2-3.1-1.2-4.2-0.1c0,0,0,0-0.1,0.1C90.3,134.3,90,135.1,90,136z"/>
	<path class="st5" d="M87.7,136c0-1.4,0.6-2.8,1.6-3.7c2.1-2,5.5-2,7.6,0c2.1,2,2.1,5.4,0.1,7.4c0,0-0.1,0.1-0.1,0.1
		c-2.1,2-5.5,2-7.6,0C88.2,138.8,87.6,137.4,87.7,136z M90,136c0,0.9,0.2,1.7,0.8,2.4c1.2,1.2,3.1,1.2,4.2,0.1c0,0,0,0,0.1-0.1
		c1.1-1.4,1.1-3.3,0-4.7c-1.2-1.2-3.1-1.2-4.2-0.1c0,0,0,0-0.1,0.1C90.3,134.3,90,135.1,90,136z"/>
	<path class="st4" d="M100.8,131.2h2.3v0.9c0.3-0.4,0.7-0.7,1.1-0.9c0.4-0.2,0.8-0.3,1.2-0.2c0.7,0,1.3,0.2,1.9,0.6l-1.1,2
		c-0.4-0.3-0.8-0.4-1.3-0.5c-1.3,0-1.9,1-1.9,2.8v5.2h-2.3L100.8,131.2z"/>
	<path class="st5" d="M100.8,131.2h2.3v0.9c0.3-0.4,0.7-0.7,1.1-0.9c0.4-0.2,0.8-0.3,1.2-0.2c0.7,0,1.3,0.2,1.9,0.6l-1.1,2
		c-0.4-0.3-0.8-0.4-1.3-0.5c-1.3,0-1.9,1-1.9,2.8v5.2h-2.3L100.8,131.2z"/>
</g>
</svg>
