<?xml version="1.0" encoding="utf-8"?>
<!-- Generator: Adobe Illustrator 24.0.1, SVG Export Plug-In . SVG Version: 6.00 Build 0)  -->
<svg version="1.1" xmlns="http://www.w3.org/2000/svg" xmlns:xlink="http://www.w3.org/1999/xlink" x="0px" y="0px"
	 viewBox="0 0 147.8 147.8" style="enable-background:new 0 0 147.8 147.8;" xml:space="preserve">
<style type="text/css">
	.st0{fill:#FFCC00;}
	.st1{fill:#000094;}
	.st2{fill:#FF0000;}
	.st3{fill:none;stroke:#000000;stroke-width:3.75;stroke-linejoin:round;}
	.st4{fill:#FFFFFF;}
	.st5{fill:none;stroke:#000000;stroke-width:0.5;}
</style>
<g id="Layer_2">
	<title>Zulu</title>
	<rect x="1.9" y="1.9" class="st0" width="144" height="144"/>
	<path d="M1.9,1.9v144h144L1.9,1.9z"/>
	<path class="st1" d="M145.9,1.9v144H1.9L145.9,1.9z"/>
	<path class="st2" d="M73.7,73.9l72,72H1.7L73.7,73.9z"/>
	<path class="st3" d="M1.9,1.9h144v144H1.9V1.9z"/>
</g>
<g id="Layer_1">
	<rect x="6.6" y="119.7" class="st4" width="2.4" height="15.8"/>
	<rect x="6.6" y="119.7" class="st5" width="2.4" height="15.8"/>
	<path class="st4" d="M18.9,125.5h2.3v0.9c0.3-0.4,0.7-0.7,1.1-0.9c0.4-0.2,0.8-0.3,1.2-0.2c0.7,0,1.3,0.2,1.9,0.6l-1,2.1
		c-0.4-0.3-0.8-0.5-1.3-0.5c-1.2,0-1.9,0.9-1.9,2.8v5.2h-2.3L18.9,125.5z"/>
	<path class="st5" d="M18.9,125.5h2.3v0.9c0.3-0.4,0.7-0.7,1.1-0.9c0.4-0.2,0.8-0.3,1.2-0.2c0.7,0,1.3,0.2,1.9,0.6l-1,2.1
		c-0.4-0.3-0.8-0.5-1.3-0.5c-1.2,0-1.9,0.9-1.9,2.8v5.2h-2.3L18.9,125.5z"/>
	<path class="st4" d="M35.7,131.1h-7.2c0,0.7,0.3,1.5,0.8,2c0.5,0.5,1.1,0.7,1.8,0.7c0.5,0,1-0.1,1.4-0.4c0.5-0.4,0.9-0.9,1.3-1.5
		l1.9,1c-0.3,0.5-0.6,0.9-1,1.3c-0.3,0.3-0.6,0.6-1,0.9c-0.4,0.2-0.8,0.4-1.2,0.5c-0.5,0.1-0.9,0.2-1.4,0.2
		c-1.3,0.1-2.6-0.5-3.6-1.4c-0.9-1.1-1.4-2.4-1.4-3.8c-0.1-1.4,0.4-2.8,1.3-3.8c0.9-1,2.2-1.5,3.5-1.4c1.3-0.1,2.6,0.4,3.5,1.4
		c0.9,1.1,1.4,2.5,1.3,3.9L35.7,131.1z M33.3,129.2c-0.2-1.1-1.2-1.9-2.3-1.8c-0.3,0-0.5,0-0.8,0.1c-0.3,0.1-0.5,0.2-0.7,0.4
		c-0.2,0.2-0.4,0.4-0.5,0.6c-0.2,0.2-0.3,0.5-0.3,0.8L33.3,129.2z"/>
	<path class="st5" d="M35.7,131.1h-7.2c0,0.7,0.3,1.5,0.8,2c0.5,0.5,1.1,0.7,1.8,0.7c0.5,0,1-0.1,1.4-0.4c0.5-0.4,0.9-0.9,1.3-1.5
		l1.9,1c-0.3,0.5-0.6,0.9-1,1.3c-0.3,0.3-0.6,0.6-1,0.9c-0.4,0.2-0.8,0.4-1.2,0.5c-0.5,0.1-0.9,0.2-1.4,0.2
		c-1.3,0.1-2.6-0.5-3.6-1.4c-0.9-1.1-1.4-2.4-1.4-3.8c-0.1-1.4,0.4-2.8,1.3-3.8c0.9-1,2.2-1.5,3.5-1.4c1.3-0.1,2.6,0.4,3.5,1.4
		c0.9,1.1,1.4,2.5,1.3,3.9L35.7,131.1z M33.3,129.2c-0.2-1.1-1.2-1.9-2.3-1.8c-0.3,0-0.5,0-0.8,0.1c-0.3,0.1-0.5,0.2-0.7,0.4
		c-0.2,0.2-0.4,0.4-0.5,0.6c-0.2,0.2-0.3,0.5-0.3,0.8L33.3,129.2z"/>
	<path class="st4" d="M45.5,140.9v-6.6c-0.8,0.9-1.9,1.4-3.1,1.4c-1.3,0-2.5-0.5-3.4-1.5c-0.9-1-1.4-2.3-1.3-3.7
		c0-1.4,0.4-2.7,1.3-3.8c0.9-1,2.1-1.5,3.4-1.5c1.2,0,2.3,0.5,3.1,1.4v-1.1h2.3v15.4L45.5,140.9z M40.1,130.5
		c-0.1,0.8,0.2,1.7,0.8,2.3c0.5,0.6,1.2,1,2,0.9c0.8,0,1.6-0.3,2.1-0.9c1.1-1.3,1.1-3.3,0-4.6c-1-1.1-2.7-1.2-3.8-0.2
		c0,0,0,0-0.1,0.1l-0.1,0.1C40.4,128.8,40.1,129.6,40.1,130.5z"/>
	<path class="st5" d="M45.5,140.9v-6.6c-0.8,0.9-1.9,1.4-3.1,1.4c-1.3,0-2.5-0.5-3.4-1.5c-0.9-1-1.4-2.3-1.3-3.7
		c0-1.4,0.4-2.7,1.3-3.8c0.9-1,2.1-1.5,3.4-1.5c1.2,0,2.3,0.5,3.1,1.4v-1.1h2.3v15.4L45.5,140.9z M40.1,130.5
		c-0.1,0.8,0.2,1.7,0.8,2.3c0.5,0.6,1.2,1,2,0.9c0.8,0,1.6-0.3,2.1-0.9c1.1-1.3,1.1-3.3,0-4.6c-1-1.1-2.7-1.2-3.8-0.2
		c0,0,0,0-0.1,0.1l-0.1,0.1C40.4,128.8,40.1,129.6,40.1,130.5z"/>
	<path class="st4" d="M53.3,125.5v5.7c0,1.7,0.7,2.5,2,2.5s2-0.8,2-2.5v-5.7h2.3v5.8c0,0.7-0.1,1.4-0.3,2.1c-0.2,0.5-0.6,1-1,1.4
		c-1.7,1.4-4.2,1.4-5.9,0c-0.4-0.4-0.8-0.9-1-1.4c-0.2-0.7-0.3-1.4-0.3-2.1v-5.8H53.3z"/>
	<path class="st5" d="M53.3,125.5v5.7c0,1.7,0.7,2.5,2,2.5s2-0.8,2-2.5v-5.7h2.3v5.8c0,0.7-0.1,1.4-0.3,2.1c-0.2,0.5-0.6,1-1,1.4
		c-1.7,1.4-4.2,1.4-5.9,0c-0.4-0.4-0.8-0.9-1-1.4c-0.2-0.7-0.3-1.4-0.3-2.1v-5.8H53.3z"/>
	<path class="st4" d="M62.1,121.4c0-0.8,0.7-1.5,1.5-1.5c0.4,0,0.7,0.1,1,0.4c0.3,0.3,0.5,0.7,0.4,1.1c0,0.4-0.2,0.8-0.4,1.1
		c-0.3,0.3-0.6,0.4-1,0.4c-0.8,0.1-1.4-0.5-1.5-1.2C62.1,121.6,62.1,121.5,62.1,121.4z M64.7,125.5v10h-2.3v-10H64.7z"/>
	<path class="st5" d="M62.1,121.4c0-0.8,0.7-1.5,1.5-1.5c0.4,0,0.7,0.1,1,0.4c0.3,0.3,0.5,0.7,0.4,1.1c0,0.4-0.2,0.8-0.4,1.1
		c-0.3,0.3-0.6,0.4-1,0.4c-0.8,0.1-1.4-0.5-1.5-1.2C62.1,121.6,62.1,121.5,62.1,121.4z M64.7,125.5v10h-2.3v-10H64.7z"/>
	<path class="st4" d="M67.7,125.5H70v0.9c0.3-0.4,0.7-0.7,1.1-0.9c0.4-0.2,0.8-0.3,1.2-0.2c0.7,0,1.3,0.2,1.9,0.6l-1.1,2.1
		c-0.4-0.3-0.8-0.5-1.3-0.5c-1.3,0-1.9,0.9-1.9,2.8v5.2h-2.3v-10H67.7z"/>
	<path class="st5" d="M67.7,125.5H70v0.9c0.3-0.4,0.7-0.7,1.1-0.9c0.4-0.2,0.8-0.3,1.2-0.2c0.7,0,1.3,0.2,1.9,0.6l-1.1,2.1
		c-0.4-0.3-0.8-0.5-1.3-0.5c-1.3,0-1.9,0.9-1.9,2.8v5.2h-2.3v-10H67.7z"/>
	<path class="st4" d="M84.5,131.1h-7.1c0,0.7,0.3,1.5,0.8,2c0.9,0.8,2.2,1,3.2,0.3c0.5-0.4,0.9-0.9,1.3-1.5l2,1.1
		c-0.3,0.5-0.6,0.9-1,1.3c-0.3,0.4-0.7,0.7-1.1,0.9c-0.4,0.2-0.8,0.4-1.2,0.5c-0.5,0.1-1,0.2-1.5,0.2c-1.3,0.1-2.6-0.5-3.6-1.4
		c-0.9-1.1-1.4-2.4-1.4-3.8c-0.1-1.4,0.4-2.8,1.3-3.8c0.9-1,2.2-1.6,3.5-1.5c1.3-0.1,2.6,0.4,3.5,1.4c0.9,1.1,1.4,2.5,1.3,3.9
		L84.5,131.1z M82.1,129.2c-0.2-1.1-1.2-1.9-2.3-1.8c-0.3,0-0.5,0-0.8,0.1c-0.3,0.1-0.5,0.2-0.7,0.4c-0.2,0.2-0.4,0.4-0.5,0.6
		c-0.2,0.2-0.3,0.5-0.3,0.8C77.5,129.3,82.1,129.2,82.1,129.2z"/>
	<path class="st5" d="M84.5,131.1h-7.1c0,0.7,0.3,1.5,0.8,2c0.9,0.8,2.2,1,3.2,0.3c0.5-0.4,0.9-0.9,1.3-1.5l2,1.1
		c-0.3,0.5-0.6,0.9-1,1.3c-0.3,0.4-0.7,0.7-1.1,0.9c-0.4,0.2-0.8,0.4-1.2,0.5c-0.5,0.1-1,0.2-1.5,0.2c-1.3,0.1-2.6-0.5-3.6-1.4
		c-0.9-1.1-1.4-2.4-1.4-3.8c-0.1-1.4,0.4-2.8,1.3-3.8c0.9-1,2.2-1.6,3.5-1.5c1.3-0.1,2.6,0.4,3.5,1.4c0.9,1.1,1.4,2.5,1.3,3.9
		L84.5,131.1z M82.1,129.2c-0.2-1.1-1.2-1.9-2.3-1.8c-0.3,0-0.5,0-0.8,0.1c-0.3,0.1-0.5,0.2-0.7,0.4c-0.2,0.2-0.4,0.4-0.5,0.6
		c-0.2,0.2-0.3,0.5-0.3,0.8C77.5,129.3,82.1,129.2,82.1,129.2z"/>
	<path class="st4" d="M100.9,125.5h2.3v10h-2.3v-1.1c-1.7,1.8-4.5,1.8-6.3,0.1c0,0,0,0,0,0c-0.1-0.1-0.2-0.2-0.2-0.3
		c-0.9-1-1.4-2.4-1.3-3.8c0-1.4,0.4-2.7,1.3-3.8c0.9-1,2.1-1.5,3.4-1.5c1.2,0,2.3,0.5,3.1,1.4V125.5z M95.4,130.5
		c0,0.8,0.2,1.7,0.8,2.3c0.5,0.6,1.2,0.9,2,0.9c0.8,0,1.6-0.3,2.1-0.9c1.1-1.3,1.1-3.3,0-4.6c-0.5-0.6-1.2-0.9-2-0.9
		c-0.8,0-1.5,0.3-2,0.9C95.7,128.8,95.3,129.6,95.4,130.5z"/>
	<path class="st5" d="M100.9,125.5h2.3v10h-2.3v-1.1c-1.7,1.8-4.5,1.8-6.3,0.1c0,0,0,0,0,0c-0.1-0.1-0.2-0.2-0.2-0.3
		c-0.9-1-1.4-2.4-1.3-3.8c0-1.4,0.4-2.7,1.3-3.8c0.9-1,2.1-1.5,3.4-1.5c1.2,0,2.3,0.5,3.1,1.4V125.5z M95.4,130.5
		c0,0.8,0.2,1.7,0.8,2.3c0.5,0.6,1.2,0.9,2,0.9c0.8,0,1.6-0.3,2.1-0.9c1.1-1.3,1.1-3.3,0-4.6c-0.5-0.6-1.2-0.9-2-0.9
		c-0.8,0-1.5,0.3-2,0.9C95.7,128.8,95.3,129.6,95.4,130.5z"/>
	<polygon class="st4" points="114.9,127.7 114.9,135.5 112.6,135.5 112.6,127.7 111.6,127.7 111.6,125.5 112.6,125.5 112.6,121.8 
		114.9,121.8 114.9,125.5 116.7,125.5 116.7,127.7 	"/>
	<polygon class="st5" points="114.9,127.7 114.9,135.5 112.6,135.5 112.6,127.7 111.6,127.7 111.6,125.5 112.6,125.5 112.6,121.8 
		114.9,121.8 114.9,125.5 116.7,125.5 116.7,127.7 	"/>
	<path class="st4" d="M120.6,125.5v5.7c0,1.7,0.6,2.5,2,2.5c1.4,0,2-0.8,2-2.5v-5.7h2.3v5.8c0,0.7-0.1,1.4-0.3,2.1
		c-0.2,0.5-0.6,1-1,1.4c-1.7,1.4-4.2,1.4-5.9,0c-0.4-0.4-0.8-0.9-1-1.4c-0.2-0.7-0.3-1.4-0.3-2.1v-5.8H120.6z"/>
	<path class="st5" d="M120.6,125.5v5.7c0,1.7,0.6,2.5,2,2.5c1.4,0,2-0.8,2-2.5v-5.7h2.3v5.8c0,0.7-0.1,1.4-0.3,2.1
		c-0.2,0.5-0.6,1-1,1.4c-1.7,1.4-4.2,1.4-5.9,0c-0.4-0.4-0.8-0.9-1-1.4c-0.2-0.7-0.3-1.4-0.3-2.1v-5.8H120.6z"/>
	<path class="st4" d="M139.4,135.3v1.2c0,0.3-0.1,0.7-0.1,1c-0.2,0.7-0.5,1.4-1,1.9c-0.9,1.1-2.3,1.6-3.7,1.6
		c-1.2,0.1-2.4-0.3-3.3-1.1c-0.9-0.8-1.4-1.9-1.5-3.1h2.3c0.1,0.4,0.2,0.8,0.4,1.1c0.5,0.6,1.3,1,2.1,0.9c1.7,0,2.5-1,2.5-3.1v-1.4
		c-0.8,0.9-2,1.4-3.2,1.4c-1.3,0-2.5-0.5-3.3-1.5c-0.9-1-1.4-2.3-1.3-3.7c0-1.3,0.4-2.6,1.2-3.7c1.5-1.9,4.3-2.1,6.2-0.6
		c0.2,0.1,0.3,0.3,0.4,0.4v-1.1h2.3V135.3z M137.2,130.5c0-0.8-0.2-1.7-0.8-2.3c-1-1.1-2.7-1.2-3.8-0.2c-0.1,0.1-0.2,0.2-0.3,0.3
		c-0.5,0.7-0.7,1.5-0.7,2.3c0,0.8,0.2,1.6,0.7,2.2c0.9,1.2,2.7,1.3,3.8,0.4c0.1-0.1,0.3-0.2,0.4-0.4
		C137,132.1,137.2,131.3,137.2,130.5z"/>
	<path class="st5" d="M139.4,135.3v1.2c0,0.3-0.1,0.7-0.1,1c-0.2,0.7-0.5,1.4-1,1.9c-0.9,1.1-2.3,1.6-3.7,1.6
		c-1.2,0.1-2.4-0.3-3.3-1.1c-0.9-0.8-1.4-1.9-1.5-3.1h2.3c0.1,0.4,0.2,0.8,0.4,1.1c0.5,0.6,1.3,1,2.1,0.9c1.7,0,2.5-1,2.5-3.1v-1.4
		c-0.8,0.9-2,1.4-3.2,1.4c-1.3,0-2.5-0.5-3.3-1.5c-0.9-1-1.4-2.3-1.3-3.7c0-1.3,0.4-2.6,1.2-3.7c1.5-1.9,4.3-2.1,6.2-0.6
		c0.2,0.1,0.3,0.3,0.4,0.4v-1.1h2.3V135.3z M137.2,130.5c0-0.8-0.2-1.7-0.8-2.3c-1-1.1-2.7-1.2-3.8-0.2c-0.1,0.1-0.2,0.2-0.3,0.3
		c-0.5,0.7-0.7,1.5-0.7,2.3c0,0.8,0.2,1.6,0.7,2.2c0.9,1.2,2.7,1.3,3.8,0.4c0.1-0.1,0.3-0.2,0.4-0.4
		C137,132.1,137.2,131.3,137.2,130.5z"/>
</g>
</svg>
