<?xml version="1.0" encoding="utf-8"?>
<!-- Generator: Adobe Illustrator 24.0.1, SVG Export Plug-In . SVG Version: 6.00 Build 0)  -->
<svg version="1.1" id="Layer_1" xmlns="http://www.w3.org/2000/svg" xmlns:xlink="http://www.w3.org/1999/xlink" x="0px" y="0px"
	 viewBox="0 0 303.8 147.8" style="enable-background:new 0 0 303.8 147.8;" xml:space="preserve">
<style type="text/css">
	.st0{fill:#000094;}
	.st1{fill:#FFFFFF;}
	.st2{fill:none;stroke:#000000;stroke-width:3.75;stroke-linejoin:round;}
</style>
<title>Alpha</title>
<polygon class="st0" points="1.9,1.9 145.9,1.9 109.9,73.9 145.9,145.9 1.9,145.9 "/>
<rect x="1.9" y="1.9" class="st1" width="72" height="144"/>
<polygon class="st2" points="1.9,1.9 145.9,1.9 109.9,73.9 145.9,145.9 1.9,145.9 "/>
<path d="M153.6,26.6v15.8h-2.4V26.6H153.6z"/>
<path d="M163.5,25.1h2.3v8.2c0.7-0.7,1.7-1.1,2.7-1.1c1,0,2,0.4,2.7,1.1c0.7,0.9,1,2,0.9,3v6.1h-2.3v-5.9c0-0.6-0.1-1.2-0.4-1.7
	c-0.3-0.4-0.9-0.6-1.4-0.5c-0.7-0.1-1.3,0.2-1.7,0.8c-0.4,0.8-0.6,1.7-0.5,2.6v4.8h-2.3L163.5,25.1z"/>
<path d="M182.3,32.5h2.3v10h-2.3v-1c-1.7,1.8-4.5,1.8-6.3,0.1c-0.1-0.1-0.2-0.2-0.2-0.3c-0.9-1.1-1.4-2.4-1.4-3.8
	c0-1.4,0.4-2.7,1.4-3.8c0.8-1,2.1-1.5,3.4-1.5c1.2,0,2.3,0.5,3.1,1.4V32.5z M176.9,37.5c0,0.8,0.2,1.7,0.8,2.3
	c0.5,0.6,1.2,0.9,2,0.9c0.8,0,1.5-0.3,2.1-0.9c1.1-1.4,1.1-3.3,0-4.6c-0.5-0.6-1.3-0.9-2.1-0.9c-0.8,0-1.5,0.3-2,0.9
	C177.1,35.8,176.8,36.6,176.9,37.5L176.9,37.5z"/>
<path d="M189,32.5l2.6,5.6l2.6-5.6h2.6l-5.2,10.7l-5.1-10.7L189,32.5z"/>
<path d="M207,38.1h-7.2c0,0.7,0.3,1.5,0.8,2c0.5,0.5,1.1,0.7,1.8,0.7c0.5,0,1-0.1,1.4-0.4c0.5-0.4,0.9-0.9,1.3-1.5l2,1.1
	c-0.3,0.5-0.6,0.9-1,1.3c-0.3,0.3-0.7,0.7-1.1,0.9c-0.4,0.2-0.8,0.4-1.2,0.5c-0.5,0.1-1,0.2-1.4,0.2c-1.3,0.1-2.7-0.5-3.6-1.4
	c-0.9-1-1.4-2.4-1.4-3.8c-0.1-1.4,0.4-2.8,1.3-3.8c0.9-1,2.2-1.6,3.6-1.5c1.3-0.1,2.6,0.4,3.5,1.4c0.9,1.1,1.4,2.5,1.3,3.9L207,38.1
	z M204.7,36.2c-0.2-1.1-1.2-2-2.3-1.9c-0.3,0-0.5,0-0.8,0.1c-0.2,0.1-0.5,0.2-0.7,0.4c-0.2,0.2-0.4,0.4-0.5,0.6
	c-0.1,0.2-0.3,0.5-0.3,0.8L204.7,36.2z"/>
<path d="M223.4,32.5h2.3v10h-2.3v-1c-1.7,1.8-4.5,1.8-6.3,0.1c-0.1-0.1-0.2-0.2-0.2-0.3c-0.9-1.1-1.4-2.4-1.3-3.8
	c0-1.4,0.4-2.7,1.3-3.8c0.8-1,2.1-1.6,3.4-1.5c1.2,0,2.3,0.5,3.1,1.4L223.4,32.5z M217.9,37.5c0,0.8,0.2,1.7,0.8,2.3
	c0.5,0.6,1.2,0.9,2,0.9c0.8,0,1.5-0.3,2.1-0.9c1.1-1.4,1.1-3.3,0-4.6c-0.5-0.6-1.3-0.9-2-0.9c-0.8,0-1.5,0.3-2,0.9
	C218.2,35.8,217.9,36.6,217.9,37.5L217.9,37.5z"/>
<path d="M242.5,25.1h2.3v17.3h-2.3v-1c-0.8,0.8-1.9,1.3-3.1,1.3c-1.3,0-2.5-0.5-3.4-1.5c-0.9-1.1-1.4-2.4-1.4-3.8
	c0-1.4,0.4-2.7,1.4-3.7c1.6-1.8,4.3-2,6.1-0.4c0.1,0.1,0.3,0.2,0.4,0.4V25.1z M237,37.4c0,0.8,0.2,1.7,0.8,2.3
	c0.5,0.6,1.2,0.9,2,0.9c0.8,0,1.5-0.3,2.1-0.9c1.1-1.4,1.1-3.3,0-4.6c-0.5-0.6-1.3-0.9-2-0.9c-0.8,0-1.5,0.3-2,0.9
	C237.3,35.8,237,36.6,237,37.4L237,37.4z"/>
<path d="M247.3,28.3c0-0.8,0.7-1.5,1.5-1.5c0.4,0,0.8,0.2,1.1,0.4c0.3,0.3,0.4,0.7,0.4,1.1c0,0.4-0.2,0.8-0.4,1.1
	c-0.3,0.3-0.7,0.4-1.1,0.4C248,29.8,247.3,29.2,247.3,28.3C247.3,28.3,247.3,28.3,247.3,28.3z M250,32.5v10h-2.3v-10H250z"/>
<path d="M254.2,32.5l2.6,5.6l2.6-5.6h2.6l-5.2,10.7l-5.2-10.7H254.2z"/>
<path d="M272.2,38.1h-7.1c0,0.7,0.3,1.5,0.8,2c0.9,0.8,2.2,1,3.2,0.3c0.5-0.5,0.9-1,1.2-1.6l2,1.1c-0.3,0.5-0.6,0.9-1,1.3
	c-0.3,0.3-0.6,0.6-1,0.9c-0.4,0.2-0.8,0.4-1.2,0.5c-0.5,0.1-1,0.2-1.4,0.2c-1.3,0.1-2.7-0.5-3.6-1.4c-0.9-1.1-1.4-2.4-1.4-3.8
	c-0.1-1.4,0.4-2.8,1.3-3.8c0.9-1,2.2-1.5,3.5-1.4c1.3-0.1,2.6,0.4,3.5,1.4c0.9,1.1,1.4,2.5,1.3,3.9L272.2,38.1z M269.9,36.2
	c-0.2-1.1-1.2-1.9-2.3-1.8c-0.3,0-0.5,0-0.8,0.1c-0.2,0.1-0.5,0.2-0.7,0.4c-0.2,0.2-0.4,0.4-0.5,0.6c-0.2,0.2-0.3,0.5-0.3,0.8H269.9
	z"/>
<path d="M274.8,32.5h2.3v0.9c0.3-0.4,0.7-0.7,1.1-0.9c0.4-0.2,0.8-0.3,1.2-0.2c0.7,0,1.3,0.2,1.9,0.6l-1.1,2.1
	c-0.4-0.3-0.8-0.5-1.3-0.5c-1.3,0-1.9,0.9-1.9,2.8v5.2h-2.3V32.5z"/>
<path d="M158.2,50.3h2.3v17.3h-2.3v-1c-0.8,0.8-1.9,1.3-3.1,1.3c-1.3,0-2.5-0.5-3.4-1.5c-0.9-1.1-1.4-2.5-1.3-3.9
	c0-1.4,0.4-2.7,1.4-3.7c0.8-1,2.1-1.5,3.4-1.5c1.2,0,2.3,0.5,3.1,1.4L158.2,50.3z M152.7,62.6c0,0.8,0.2,1.7,0.8,2.3
	c0.5,0.6,1.2,0.9,2,0.9c0.8,0,1.5-0.3,2.1-0.9c1.1-1.4,1.1-3.3,0-4.6c-1-1.1-2.8-1.2-3.9-0.1c0,0-0.1,0.1-0.1,0.1
	C153,61,152.7,61.8,152.7,62.6L152.7,62.6z"/>
<path d="M162.9,62.6c0-1.4,0.5-2.7,1.5-3.7c2.1-2,5.5-2,7.6,0c2.1,2.1,2.1,5.4,0,7.5c-1,1-2.4,1.5-3.8,1.5c-2.9,0-5.2-2.3-5.3-5.1
	C162.9,62.7,162.9,62.7,162.9,62.6L162.9,62.6z M165.3,62.6c0,0.9,0.2,1.7,0.8,2.4c0.6,0.6,1.4,0.9,2.2,0.9c0.8,0,1.6-0.3,2.2-0.9
	c1.1-1.4,1.1-3.3,0-4.7c-1.2-1.2-3.1-1.2-4.3,0C165.5,60.9,165.2,61.8,165.3,62.6L165.3,62.6z"/>
<path d="M176.9,57.7l2.6,5.7l2.9-6.6l2.8,6.6l2.6-5.7h2.6l-5.2,10.7l-2.8-6.4l-2.8,6.4l-5.2-10.7H176.9z"/>
<path d="M191.9,57.7h2.3v0.9c0.7-0.8,1.7-1.2,2.7-1.2c1-0.1,2,0.3,2.7,1.1c0.6,0.9,0.9,1.9,0.8,3v6.2h-2.3v-5.6
	c0.1-0.7-0.1-1.4-0.4-2c-0.4-0.4-0.9-0.6-1.5-0.6c-0.6-0.1-1.3,0.2-1.6,0.8c-0.4,0.8-0.5,1.7-0.5,2.6v4.8h-2.3L191.9,57.7z"/>
<path d="M204.8,64.7l2,0.8l-2.9,5.8l-1.5-0.7L204.8,64.7z M204.2,58.8c0-0.4,0.1-0.7,0.4-1c0.5-0.6,1.4-0.6,2,0c0,0,0,0,0,0
	c0.3,0.3,0.4,0.6,0.4,1c0,0.8-0.7,1.4-1.4,1.4c-0.4,0-0.7-0.2-1-0.4C204.4,59.5,204.2,59.2,204.2,58.8L204.2,58.8z"/>
<path d="M218.6,50.3v10.6l3.2-3.2h3.1l-4.3,4.2l4.7,5.8h-3l-3.3-4.2l-0.4,0.4v3.8h-2.3V50.3H218.6z"/>
<path d="M235.5,63.2h-7.1c0,0.7,0.3,1.5,0.8,2c0.9,0.8,2.2,1,3.2,0.3c0.5-0.4,0.9-0.9,1.3-1.5l2,1.1c-0.3,0.5-0.6,0.9-1,1.3
	c-0.3,0.4-0.7,0.7-1.1,0.9c-0.4,0.2-0.8,0.4-1.2,0.5c-0.5,0.1-1,0.2-1.5,0.2c-1.3,0-2.6-0.5-3.5-1.5c-0.9-1.1-1.4-2.4-1.4-3.8
	c-0.1-1.4,0.4-2.8,1.4-3.8c0.9-1,2.2-1.5,3.5-1.4c1.3-0.1,2.6,0.4,3.5,1.4c0.9,1.1,1.4,2.5,1.3,3.9L235.5,63.2z M233.2,61.3
	c-0.2-1.1-1.2-1.9-2.3-1.8c-0.3,0-0.5,0-0.8,0.1c-0.2,0.1-0.5,0.2-0.7,0.4c-0.2,0.2-0.4,0.4-0.5,0.6c-0.1,0.2-0.3,0.5-0.3,0.8
	L233.2,61.3z"/>
<path d="M247.2,63.2H240c0,0.7,0.3,1.5,0.8,2c0.9,0.8,2.2,1,3.2,0.3c0.5-0.4,0.9-1,1.3-1.6l1.9,1.1c-0.3,0.5-0.6,0.9-0.9,1.3
	c-0.3,0.4-0.7,0.7-1.1,0.9c-0.4,0.2-0.8,0.4-1.2,0.5c-0.5,0.1-1,0.2-1.4,0.2c-1.3,0.1-2.7-0.5-3.6-1.4c-0.9-1.1-1.4-2.4-1.4-3.8
	c-0.1-1.4,0.4-2.8,1.3-3.8c0.9-1,2.2-1.5,3.5-1.4c1.3-0.1,2.6,0.4,3.5,1.4c0.9,1.1,1.4,2.5,1.3,3.9L247.2,63.2z M244.8,61.3
	c-0.2-1.1-1.2-1.9-2.3-1.8c-0.5,0-1.1,0.2-1.5,0.5c-0.2,0.2-0.4,0.4-0.5,0.6c-0.2,0.2-0.3,0.5-0.3,0.8H244.8z"/>
<path d="M252,73.1h-2.3V57.7h2.3v1.1c0.8-0.9,1.9-1.4,3.1-1.4c1.3,0,2.5,0.5,3.4,1.5c0.9,1.1,1.4,2.4,1.4,3.8c0,1.4-0.4,2.7-1.4,3.7
	c-1.6,1.8-4.4,2-6.2,0.4c-0.1-0.1-0.2-0.2-0.3-0.3V73.1z M257.5,62.7c0-0.8-0.2-1.7-0.8-2.3c-0.5-0.6-1.2-0.9-2-0.9
	c-0.8,0-1.5,0.3-2.1,0.9c-0.5,0.6-0.8,1.5-0.8,2.3c0,0.8,0.2,1.7,0.8,2.3c0.5,0.6,1.3,0.9,2,0.9c0.8,0,1.5-0.3,2-0.9
	C257.2,64.3,257.5,63.5,257.5,62.7L257.5,62.7z"/>
<path d="M152,82.9l2.6,5.7l2.8-6.6l2.8,6.6l2.6-5.7h2.6l-5.2,10.7l-2.8-6.4l-2.8,6.4l-5.2-10.7H152z"/>
<path d="M175.8,88.4h-7.2c0,0.7,0.3,1.5,0.8,2c0.5,0.5,1.1,0.7,1.8,0.7c0.5,0,1-0.1,1.4-0.4c0.5-0.4,0.9-0.9,1.3-1.5l2,1.1
	c-0.3,0.5-0.6,0.9-1,1.3c-0.3,0.4-0.7,0.7-1.1,0.9c-0.4,0.2-0.8,0.4-1.2,0.5c-0.5,0.1-1,0.2-1.4,0.2c-1.3,0.1-2.7-0.5-3.6-1.4
	c-0.9-1.1-1.4-2.4-1.4-3.8c-0.1-1.4,0.4-2.8,1.3-3.8c0.9-1,2.2-1.5,3.5-1.4c1.3-0.1,2.6,0.4,3.5,1.4c0.9,1.1,1.4,2.5,1.3,3.9
	L175.8,88.4z M173.5,86.5c-0.2-1.1-1.2-1.9-2.3-1.8c-0.3,0-0.5,0-0.8,0.1c-0.2,0.1-0.5,0.2-0.7,0.4c-0.2,0.2-0.4,0.4-0.5,0.6
	c-0.1,0.2-0.3,0.5-0.3,0.8H173.5z"/>
<path d="M180.7,75.5v17.3h-2.3V75.5H180.7z"/>
<path d="M185.9,75.5v17.3h-2.3V75.5H185.9z"/>
<path d="M203.1,83.3v3.1c-0.4-0.5-0.9-1-1.4-1.3c-0.4-0.3-0.9-0.4-1.4-0.4c-0.8,0-1.6,0.3-2.2,0.9c-0.6,0.6-0.9,1.4-0.9,2.3
	c0,0.8,0.3,1.7,0.8,2.3c0.5,0.6,1.3,0.9,2.1,0.9c0.5,0,1-0.1,1.5-0.4c0.6-0.4,1-0.8,1.4-1.4v3c-0.9,0.5-1.8,0.7-2.8,0.7
	c-1.4,0-2.8-0.5-3.9-1.5c-2.1-2.1-2.1-5.4,0-7.5c0,0,0,0,0,0c1-1,2.4-1.6,3.9-1.5C201.2,82.6,202.2,82.8,203.1,83.3z"/>
<path d="M207.6,75.5v17.3h-2.3V75.5H207.6z"/>
<path d="M219.6,88.4h-7.2c0,0.7,0.3,1.5,0.8,2c0.5,0.5,1.1,0.7,1.8,0.7c0.5,0,1-0.1,1.4-0.4c0.5-0.4,0.9-0.9,1.3-1.5l2,1.1
	c-0.3,0.5-0.6,0.9-1,1.3c-0.3,0.4-0.7,0.7-1.1,0.9c-0.4,0.2-0.8,0.4-1.2,0.5c-0.5,0.1-1,0.2-1.4,0.2c-1.3,0.1-2.7-0.5-3.6-1.4
	c-0.9-1-1.4-2.4-1.4-3.8c-0.1-1.4,0.4-2.8,1.3-3.9c1.9-1.9,5.1-1.9,7,0c0.9,1.1,1.4,2.5,1.3,3.9L219.6,88.4z M217.2,86.5
	c-0.2-1.1-1.2-1.9-2.3-1.8c-0.3,0-0.5,0-0.8,0.1c-0.2,0.1-0.5,0.2-0.7,0.4c-0.2,0.2-0.4,0.4-0.5,0.6c-0.1,0.2-0.3,0.5-0.3,0.8H217.2
	z"/>
<path d="M229.5,82.9h2.3v10h-2.3v-1c-1.7,1.8-4.5,1.8-6.3,0.1c-0.1-0.1-0.2-0.2-0.2-0.2c-0.9-1.1-1.4-2.4-1.3-3.8
	c0-1.4,0.4-2.7,1.3-3.8c0.8-1,2.1-1.5,3.4-1.5c1.2,0,2.3,0.5,3.1,1.4V82.9z M224,87.9c0,0.8,0.2,1.7,0.8,2.3c0.5,0.6,1.2,0.9,2,0.9
	c0.8,0,1.5-0.3,2.1-0.9c1.1-1.4,1.1-3.3,0-4.6c-0.5-0.6-1.2-0.9-2-0.9c-0.8,0-1.5,0.3-2,0.9C224.3,86.2,224,87,224,87.9L224,87.9z"
	/>
<path d="M234.7,82.9h2.3v0.9c0.3-0.4,0.7-0.7,1.1-0.9c0.4-0.2,0.8-0.3,1.2-0.2c0.7,0,1.3,0.2,1.9,0.6l-1.1,2.1
	c-0.4-0.3-0.8-0.5-1.3-0.5c-1.3,0-1.9,1-1.9,2.8v5.2h-2.3V82.9z"/>
<path d="M256.4,82.9h2.3v10h-2.3v-1c-1.7,1.8-4.5,1.8-6.3,0.1c-0.1-0.1-0.2-0.2-0.2-0.3c-0.9-1.1-1.4-2.4-1.3-3.8
	c-0.1-1.4,0.4-2.8,1.3-3.8c0.8-1,2.1-1.5,3.4-1.5c1.2,0,2.3,0.5,3.1,1.4V82.9z M250.9,87.9c0,0.8,0.2,1.7,0.8,2.3
	c0.5,0.6,1.2,0.9,2,0.9c0.8,0,1.6-0.3,2.1-0.9c1.1-1.4,1.1-3.3,0-4.6c-0.5-0.6-1.3-0.9-2-0.9c-0.8,0-1.5,0.3-2,0.9
	C251.2,86.2,250.9,87,250.9,87.9L250.9,87.9z"/>
<path d="M264,85.1v7.8h-2.3v-7.8h-1v-2.2h1v-3.7h2.3v3.7h1.8v2.2H264z"/>
<path d="M158.2,108.1h2.3v10h-2.3v-1c-1.7,1.8-4.5,1.8-6.3,0.1c-0.1-0.1-0.2-0.2-0.2-0.3c-0.9-1.1-1.4-2.4-1.3-3.8
	c0-1.4,0.4-2.7,1.4-3.8c0.8-1,2.1-1.5,3.4-1.5c1.2,0,2.3,0.5,3.1,1.4L158.2,108.1z M152.7,113.1c0,0.8,0.2,1.7,0.8,2.3
	c0.5,0.6,1.2,0.9,2,0.9c0.8,0,1.5-0.3,2.1-0.9c1.1-1.4,1.1-3.3,0-4.6c-0.5-0.6-1.2-0.9-2-0.9c-0.8,0-1.5,0.3-2,0.9
	C153,111.4,152.7,112.2,152.7,113.1L152.7,113.1z"/>
<path d="M175.7,109.8l-1.9,1c-0.3-0.6-0.7-0.9-1.1-0.9c-0.2,0-0.4,0.1-0.6,0.2c-0.1,0.1-0.2,0.3-0.2,0.5c0,0.4,0.4,0.8,1.3,1.1
	c0.9,0.3,1.7,0.8,2.5,1.5c0.4,0.5,0.7,1.1,0.6,1.8c0,0.9-0.4,1.8-1.1,2.4c-1.6,1.4-4,1.2-5.4-0.4c-0.3-0.3-0.5-0.7-0.7-1.1l2-0.9
	c0.2,0.3,0.4,0.6,0.6,0.9c0.3,0.3,0.6,0.4,1,0.4c0.8,0,1.2-0.4,1.2-1.1c0-0.4-0.3-0.8-0.9-1.1l-0.7-0.3l-0.7-0.3
	c-0.5-0.2-1-0.6-1.4-1c-0.4-0.5-0.6-1-0.5-1.6c0-0.8,0.3-1.6,0.9-2.2c0.6-0.6,1.4-0.9,2.2-0.8C174.1,107.8,175.2,108.6,175.7,109.8z
	"/>
<path d="M180.7,100.7v17.3h-2.3v-17.3H180.7z"/>
<path d="M183.1,113c0-1.4,0.5-2.7,1.6-3.7c1-1,2.4-1.5,3.8-1.5c1.4,0,2.8,0.5,3.8,1.5c2.1,2.1,2.1,5.4,0,7.5c-1,1-2.4,1.5-3.8,1.5
	c-2.9,0-5.2-2.3-5.3-5.1C183.1,113.1,183.1,113.1,183.1,113L183.1,113z M185.5,113c0,0.9,0.2,1.7,0.8,2.4c1.2,1.2,3.1,1.2,4.3,0
	c1.1-1.4,1.1-3.3,0-4.6c-0.6-0.6-1.3-0.9-2.2-0.9c-0.8,0-1.6,0.3-2.1,0.9C185.7,111.3,185.4,112.2,185.5,113L185.5,113z"/>
<path d="M197.1,108.1l2.6,5.7l2.8-6.6l2.8,6.6l2.6-5.7h2.6l-5.2,10.8l-2.8-6.4l-2.8,6.4l-5.2-10.8H197.1z"/>
<path d="M224.3,109.8l-1.9,1c-0.3-0.6-0.7-0.9-1.1-0.9c-0.2,0-0.4,0.1-0.5,0.2c-0.2,0.1-0.2,0.3-0.2,0.5c0,0.4,0.5,0.8,1.3,1.1
	c0.9,0.3,1.7,0.8,2.5,1.5c0.4,0.5,0.7,1.1,0.6,1.8c0,0.9-0.4,1.8-1.1,2.4c-1.6,1.4-4,1.2-5.4-0.4c-0.3-0.3-0.5-0.7-0.7-1.1l2-0.9
	c0.2,0.3,0.4,0.6,0.6,0.9c0.3,0.3,0.6,0.4,1,0.4c0.8,0,1.2-0.4,1.2-1.1c0-0.4-0.3-0.8-0.9-1.1l-0.7-0.3l-0.7-0.3
	c-0.5-0.2-1-0.6-1.4-1c-0.4-0.5-0.5-1-0.5-1.6c0-0.8,0.3-1.6,0.9-2.2c0.6-0.6,1.4-0.9,2.2-0.8C222.8,107.8,223.9,108.6,224.3,109.8z
	"/>
<path d="M229.4,123.5h-2.3v-15.4h2.3v1.1c0.8-0.9,1.9-1.4,3.1-1.4c1.3,0,2.5,0.5,3.4,1.5c0.9,1,1.4,2.4,1.4,3.8
	c0,1.4-0.4,2.7-1.4,3.7c-1.6,1.8-4.4,2-6.2,0.4c-0.1-0.1-0.2-0.2-0.3-0.3V123.5z M234.9,113.1c0-0.8-0.2-1.7-0.8-2.3
	c-0.5-0.6-1.2-0.9-2-0.9c-0.8,0-1.5,0.3-2.1,0.9c-0.5,0.6-0.8,1.5-0.8,2.3c0,0.8,0.2,1.7,0.8,2.3c0.5,0.6,1.2,0.9,2,0.9
	c0.8,0,1.5-0.3,2-0.9C234.6,114.8,234.9,114,234.9,113.1L234.9,113.1z"/>
<path d="M248.8,113.6h-7.1c0,0.7,0.3,1.5,0.8,2c0.5,0.5,1.1,0.7,1.8,0.7c0.5,0,1-0.1,1.4-0.4c0.5-0.4,0.9-1,1.3-1.5l1.9,1.1
	c-0.3,0.5-0.6,0.9-1,1.3c-0.3,0.4-0.7,0.7-1.1,0.9c-0.4,0.2-0.8,0.4-1.2,0.5c-0.5,0.1-1,0.2-1.4,0.2c-1.3,0.1-2.7-0.5-3.6-1.4
	c-0.9-1.1-1.4-2.4-1.4-3.8c-0.1-1.4,0.4-2.8,1.3-3.8c0.9-1,2.2-1.5,3.5-1.4c1.3-0.1,2.6,0.4,3.5,1.4c0.9,1.1,1.4,2.5,1.3,3.9
	L248.8,113.6z M246.4,111.7c-0.2-1.1-1.2-1.9-2.3-1.8c-0.3,0-0.5,0-0.8,0.1c-0.2,0.1-0.5,0.2-0.7,0.4c-0.2,0.2-0.4,0.4-0.5,0.6
	c-0.2,0.2-0.3,0.5-0.3,0.8H246.4z"/>
<path d="M260.4,113.6h-7.2c0,0.7,0.3,1.5,0.8,2c0.5,0.5,1.1,0.7,1.8,0.7c0.5,0,1-0.1,1.4-0.4c0.5-0.4,0.9-0.9,1.3-1.5l2,1.1
	c-0.3,0.5-0.6,0.9-1,1.3c-0.3,0.3-0.7,0.7-1.1,0.9c-0.4,0.2-0.8,0.4-1.2,0.5c-0.5,0.1-1,0.2-1.4,0.2c-1.3,0.1-2.7-0.5-3.6-1.4
	c-0.9-1-1.4-2.4-1.4-3.8c-0.1-1.4,0.4-2.8,1.3-3.8c1.9-1.9,5.1-1.9,7,0c0.9,1.1,1.4,2.5,1.3,3.9L260.4,113.6z M258,111.7
	c-0.2-1.1-1.2-1.9-2.3-1.8c-0.3,0-0.5,0-0.8,0.1c-0.2,0.1-0.5,0.2-0.7,0.4c-0.2,0.2-0.4,0.4-0.5,0.6c-0.1,0.2-0.3,0.5-0.3,0.8H258z"
	/>
<path d="M270.3,100.7h2.3v17.3h-2.3v-1c-0.8,0.8-1.9,1.3-3.1,1.3c-1.3,0-2.5-0.5-3.4-1.5c-0.9-1.1-1.4-2.4-1.4-3.8
	c0-1.4,0.4-2.7,1.4-3.7c1.6-1.8,4.3-2,6.1-0.4c0.1,0.1,0.3,0.2,0.4,0.4V100.7z M264.8,113.1c0,0.8,0.2,1.7,0.8,2.3
	c0.5,0.6,1.2,0.9,2,0.9c0.8,0,1.5-0.3,2.1-0.9c1.1-1.4,1.1-3.3,0-4.6c-0.5-0.6-1.3-0.9-2-0.9c-0.8,0-1.5,0.3-2,0.9
	C265.1,111.4,264.8,112.2,264.8,113.1z"/>
</svg>
