<?xml version="1.0" encoding="utf-8"?>
<!-- Generator: Adobe Illustrator 24.0.1, SVG Export Plug-In . SVG Version: 6.00 Build 0)  -->
<svg version="1.1" id="Layer_1" xmlns="http://www.w3.org/2000/svg" xmlns:xlink="http://www.w3.org/1999/xlink" x="0px" y="0px"
	 viewBox="0 0 304.6 147.8" style="enable-background:new 0 0 304.6 147.8;" xml:space="preserve">
<style type="text/css">
	.st0{fill:#000094;}
	.st1{fill:#FFFFFF;}
	.st2{fill:#FF0000;}
	.st3{fill:none;stroke:#000000;stroke-width:3.75;stroke-linejoin:round;}
</style>
<title>Charlie</title>
<rect x="1.9" y="1.9" class="st0" width="144" height="144"/>
<rect x="1.9" y="30.7" class="st1" width="144" height="86.4"/>
<rect x="1.9" y="59.5" class="st2" width="144" height="28.8"/>
<path class="st3" d="M1.9,1.9h144v144H1.9V1.9z"/>
<path d="M161.3,46.7l-2.1-0.8l2.9-5.9l1.6,0.6L161.3,46.7z M165.4,46.7l-2.1-0.8l2.9-5.9l1.6,0.6L165.4,46.7z"/>
<path d="M174.7,49.7l-5.2-9h2.8l3.6,6.3l3.6-6.3h2.8l-5.2,9v6.8h-2.4V49.7z"/>
<path d="M191.4,52.2h-7.1c0,0.7,0.3,1.5,0.8,2c0.9,0.8,2.2,1,3.2,0.3c0.5-0.4,0.9-0.9,1.3-1.5l1.9,1.1c-0.3,0.5-0.6,0.9-1,1.3
	c-0.3,0.4-0.7,0.7-1.1,0.9c-0.4,0.2-0.8,0.4-1.2,0.5c-0.5,0.1-1,0.2-1.4,0.2c-1.3,0.1-2.7-0.5-3.6-1.4c-0.9-1.1-1.4-2.4-1.4-3.8
	c-0.1-1.4,0.4-2.8,1.3-3.8c0.9-1,2.2-1.5,3.5-1.4c1.3-0.1,2.6,0.4,3.5,1.4c0.9,1.1,1.4,2.5,1.3,3.9L191.4,52.2z M189.1,50.2
	c-0.2-1.1-1.2-1.9-2.3-1.8c-0.3,0-0.5,0-0.8,0.1c-0.2,0.1-0.5,0.2-0.7,0.4c-0.2,0.2-0.4,0.4-0.5,0.6c-0.1,0.2-0.3,0.5-0.3,0.8H189.1
	z"/>
<path d="M199.7,48.3l-1.9,1c-0.3-0.6-0.7-0.9-1.1-0.9c-0.2,0-0.4,0.1-0.6,0.2c-0.1,0.1-0.2,0.3-0.2,0.5c0,0.4,0.4,0.8,1.3,1.1
	c0.9,0.3,1.7,0.8,2.5,1.5c0.4,0.5,0.7,1.1,0.6,1.8c0,0.9-0.4,1.8-1.1,2.4c-1.6,1.4-4,1.2-5.4-0.4c-0.3-0.3-0.5-0.7-0.7-1.1l2-0.9
	c0.2,0.3,0.4,0.6,0.6,0.9c0.3,0.3,0.6,0.4,1,0.4c0.8,0,1.2-0.4,1.2-1.1c0-0.4-0.3-0.8-0.9-1.2l-0.7-0.3l-0.7-0.3
	c-0.5-0.2-1-0.6-1.4-1c-0.4-0.5-0.6-1-0.5-1.6c0-0.8,0.3-1.6,0.9-2.2c0.6-0.6,1.4-0.9,2.2-0.8C198.2,46.3,199.3,47.1,199.7,48.3z"/>
<path d="M204.6,40.1l2,0.8l-2.9,5.9l-1.6-0.7L204.6,40.1z M208.7,40.1l2,0.8l-2.9,5.9l-1.6-0.7L208.7,40.1z"/>
<path d="M165.5,76.7c0-1.4,0.5-2.7,1.5-3.7c2.1-2,5.5-2,7.6,0c2.1,2.1,2.1,5.4,0,7.5c-1,1-2.4,1.5-3.8,1.5c-1.4,0-2.8-0.5-3.8-1.5
	C166.1,79.5,165.5,78.1,165.5,76.7z M167.9,76.7c0,0.9,0.2,1.7,0.8,2.4c0.6,0.6,1.4,0.9,2.2,0.9c0.8,0.1,1.6-0.2,2.2-0.8
	c1.1-1.4,1.1-3.3,0-4.7c-1.2-1.2-3.1-1.2-4.3,0C168.2,75.1,167.9,75.9,167.9,76.7L167.9,76.7z"/>
<path d="M178.6,71.8h2.3v0.9c0.3-0.4,0.7-0.7,1.1-0.9c0.4-0.2,0.8-0.3,1.2-0.2c0.7,0,1.3,0.2,1.9,0.6l-1.1,2.1
	c-0.4-0.3-0.8-0.5-1.3-0.5c-1.2,0-1.9,1-1.9,2.8v5.2h-2.3L178.6,71.8z"/>
<path d="M161.3,97.2l-2.1-0.8l2.9-5.9l1.6,0.6L161.3,97.2z M165.4,97.2l-2.1-0.8l2.9-5.9l1.6,0.6L165.4,97.2z"/>
<path d="M178.7,103.2h-6.8l-1.8,3.8h-2.6l7.9-16.8l7.6,16.8h-2.6L178.7,103.2z M177.7,100.9l-2.4-5.4l-2.5,5.4H177.7z"/>
<path d="M186.9,99.2v7.8h-2.3v-7.8h-0.8V97h0.8v-3.8c-0.1-0.9,0.1-1.9,0.7-2.7c0.7-0.7,1.6-1.2,2.6-1.1c0.5,0,1.1,0.1,1.5,0.4v2.4
	l-0.2-0.1c-0.4-0.2-0.8-0.3-1.2-0.4c-0.3,0-0.7,0.1-0.8,0.4c-0.2,0.5-0.3,1.1-0.2,1.7V97h2.5v2.1H186.9z"/>
<path d="M193.8,99.2v7.8h-2.3v-7.8h-0.8V97h0.8v-3.8c-0.1-0.9,0.1-1.9,0.6-2.7c0.7-0.7,1.6-1.2,2.6-1.1c0.5,0,1.1,0.1,1.6,0.4v2.4
	l-0.2-0.1c-0.4-0.2-0.8-0.3-1.2-0.4c-0.3,0-0.7,0.1-0.8,0.4c-0.2,0.5-0.3,1.1-0.2,1.7V97h2.5v2.1H193.8z"/>
<path d="M197.7,92.8c0-0.8,0.7-1.5,1.6-1.4c0.4,0,0.7,0.2,1,0.4c0.3,0.3,0.4,0.7,0.4,1.1c0,0.4-0.2,0.8-0.4,1.1
	c-0.3,0.3-0.7,0.4-1.1,0.4c-0.4,0-0.8-0.2-1.1-0.4C197.9,93.7,197.7,93.3,197.7,92.8z M200.4,97v10h-2.3V97H200.4z"/>
<path d="M203.3,97h2.3v0.9c0.3-0.4,0.7-0.7,1.1-0.9c0.4-0.2,0.8-0.3,1.2-0.2c0.7,0,1.3,0.2,1.9,0.6l-1,2.1c-0.4-0.3-0.8-0.5-1.3-0.5
	c-1.2,0-1.9,1-1.9,2.8v5.2h-2.3L203.3,97z"/>
<path d="M211.5,97h2.3v0.9c0.3-0.4,0.7-0.7,1.1-0.9c0.4-0.2,0.8-0.3,1.3-0.2c1.1,0,2.1,0.5,2.7,1.5c0.7-1,1.8-1.5,2.9-1.5
	c2.3,0,3.4,1.4,3.4,4.1v6.2h-2.3v-5.6c0-0.7-0.1-1.4-0.3-2c-0.3-0.4-0.7-0.6-1.2-0.6c-0.6,0-1.1,0.2-1.4,0.7
	c-0.3,0.7-0.5,1.5-0.4,2.3v5.2h-2.3v-5.5c0-1.8-0.5-2.7-1.5-2.7c-0.6,0-1.1,0.2-1.4,0.7c-0.3,0.7-0.5,1.5-0.4,2.3v5.2h-2.3V97z"/>
<path d="M235.5,97h2.3v10h-2.3v-1c-1.7,1.8-4.5,1.8-6.3,0.1c-0.1-0.1-0.2-0.2-0.2-0.3c-0.9-1.1-1.4-2.4-1.4-3.8
	c0-1.4,0.4-2.7,1.4-3.8c0.8-1,2.1-1.5,3.4-1.5c1.2,0,2.3,0.5,3.1,1.4V97z M230,102c0,0.8,0.2,1.7,0.8,2.3c0.5,0.6,1.2,0.9,2,0.9
	c0.8,0,1.5-0.3,2.1-0.9c1.1-1.4,1.1-3.3,0-4.6c-0.5-0.6-1.3-0.9-2-0.9c-0.8,0-1.5,0.3-2,0.9C230.2,100.4,230,101.1,230,102L230,102z
	"/>
<path d="M243.1,99.2v7.8h-2.3v-7.8h-1V97h1v-3.7h2.3V97h1.8v2.2H243.1z"/>
<path d="M246.1,92.8c0-0.8,0.7-1.5,1.6-1.4c0.4,0,0.7,0.2,1,0.4c0.3,0.3,0.5,0.7,0.4,1.1c0,0.4-0.2,0.8-0.4,1.1
	c-0.3,0.3-0.7,0.4-1,0.4c-0.4,0-0.8-0.2-1.1-0.4C246.2,93.7,246.1,93.3,246.1,92.8z M248.7,97v10h-2.3V97H248.7z"/>
<path d="M252.9,97l2.6,5.6l2.6-5.6h2.6l-5.2,10.7L250.3,97H252.9z"/>
<path d="M270.9,102.5h-7.1c0,0.7,0.3,1.5,0.8,2c0.9,0.8,2.2,1,3.2,0.3c0.5-0.4,0.9-1,1.3-1.6l2,1.1c-0.3,0.5-0.6,0.9-1,1.3
	c-0.3,0.4-0.7,0.7-1.1,0.9c-0.4,0.2-0.8,0.4-1.2,0.5c-0.5,0.1-1,0.2-1.5,0.2c-1.3,0.1-2.7-0.5-3.6-1.4c-0.9-1.1-1.4-2.4-1.4-3.8
	c-0.1-1.4,0.4-2.8,1.3-3.8c0.9-1,2.2-1.5,3.5-1.4c1.3-0.1,2.6,0.4,3.5,1.4c0.9,1.1,1.4,2.5,1.3,3.9L270.9,102.5z M268.6,100.6
	c-0.2-1.1-1.2-1.9-2.3-1.8c-0.3,0-0.5,0-0.8,0.1c-0.2,0.1-0.5,0.2-0.7,0.4c-0.2,0.2-0.4,0.4-0.5,0.6c-0.1,0.2-0.3,0.5-0.3,0.8H268.6
	z"/>
<path d="M275.6,90.5l2,0.8l-2.9,5.9l-1.6-0.7L275.6,90.5z M279.7,90.5l2,0.8l-2.9,5.9l-1.6-0.7L279.7,90.5z"/>
</svg>
