<?xml version="1.0" encoding="utf-8"?>
<!-- Generator: Adobe Illustrator 24.0.1, SVG Export Plug-In . SVG Version: 6.00 Build 0)  -->
<svg version="1.1" id="Layer_1" xmlns="http://www.w3.org/2000/svg" xmlns:xlink="http://www.w3.org/1999/xlink" x="0px" y="0px"
	 viewBox="0 0 367 147.8" style="enable-background:new 0 0 367 147.8;" xml:space="preserve">
<style type="text/css">
	.st0{fill:#000094;}
	.st1{fill:#FF0000;}
	.st2{fill:none;stroke:#000000;stroke-width:3.75;stroke-linejoin:round;}
</style>
<title>Echo</title>
<rect x="1.9" y="1.9" class="st0" width="144" height="144"/>
<rect x="1.9" y="73.9" class="st1" width="144" height="72"/>
<path class="st2" d="M1.9,1.9h144v144H1.9V1.9z"/>
<path d="M162.6,53.9v15.8h-2.4V53.9H162.6z"/>
<path d="M179.8,59.8h2.3v10h-2.3v-1.1c-1.7,1.8-4.5,1.8-6.3,0.1c-0.1-0.1-0.2-0.2-0.2-0.3c-0.9-1.1-1.4-2.4-1.3-3.8
	c0-1.4,0.4-2.7,1.3-3.8c0.8-1,2.1-1.5,3.4-1.5c1.2,0,2.3,0.5,3.1,1.4L179.8,59.8z M174.3,64.8c0,0.8,0.2,1.7,0.8,2.3
	c0.5,0.6,1.2,0.9,2,0.9c0.8,0,1.5-0.3,2.1-0.9c1.1-1.4,1.1-3.3,0-4.6c-0.5-0.6-1.3-0.9-2.1-0.9c-0.8,0-1.5,0.3-2,0.9
	C174.6,63.1,174.3,63.9,174.3,64.8L174.3,64.8z"/>
<path d="M185,59.8h2.3v0.9c0.3-0.4,0.7-0.7,1.1-1c0.4-0.2,0.8-0.3,1.3-0.2c1.1,0,2.1,0.5,2.7,1.5c0.7-1,1.8-1.5,3-1.5
	c2.3,0,3.4,1.4,3.4,4.1v6.2h-2.3v-5.6c0-0.7-0.1-1.4-0.4-2c-0.2-0.4-0.7-0.6-1.2-0.6c-0.6,0-1.1,0.2-1.4,0.7
	c-0.3,0.7-0.5,1.5-0.4,2.3v5.1h-2.3v-5.5c0-1.8-0.5-2.7-1.5-2.7c-0.6,0-1.1,0.2-1.4,0.7c-0.3,0.7-0.5,1.5-0.4,2.3v5.2H185V59.8z"/>
<path d="M215.5,52.4h2.3v17.3h-2.3v-1.1c-0.8,0.8-1.9,1.3-3.1,1.3c-1.3,0-2.5-0.5-3.4-1.5c-0.9-1.1-1.4-2.4-1.4-3.8
	c0-1.4,0.4-2.7,1.4-3.7c1.6-1.8,4.3-2,6.1-0.4c0.1,0.1,0.3,0.2,0.4,0.4L215.5,52.4z M210,64.7c0,0.8,0.2,1.7,0.8,2.3
	c0.5,0.6,1.2,0.9,2,0.9c0.8,0,1.5-0.3,2.1-0.9c1.1-1.4,1.1-3.3,0-4.6c-0.5-0.6-1.3-0.9-2.1-0.9c-0.8,0-1.5,0.3-2,0.9
	C210.3,63.1,210,63.9,210,64.7z"/>
<path d="M220.4,55.6c0-0.8,0.7-1.5,1.5-1.5c0.4,0,0.8,0.2,1.1,0.4c0.3,0.3,0.4,0.7,0.4,1.1c0,0.4-0.2,0.8-0.4,1.1
	c-0.3,0.3-0.7,0.4-1.1,0.4C221,57.1,220.4,56.5,220.4,55.6C220.4,55.6,220.4,55.6,220.4,55.6z M223,59.8v10h-2.3v-10H223z"/>
<path d="M225.9,59.8h2.3v0.9c0.3-0.4,0.7-0.7,1.1-0.9c0.4-0.2,0.8-0.3,1.2-0.2c0.7,0,1.3,0.2,1.9,0.6l-1.1,2.1
	c-0.4-0.3-0.8-0.5-1.3-0.5c-1.3,0-1.9,1-1.9,2.9v5.2h-2.3V59.8z"/>
<path d="M242.7,65.4h-7.2c0,0.7,0.3,1.5,0.8,2c0.5,0.5,1.1,0.7,1.8,0.7c0.5,0,1-0.1,1.4-0.4c0.5-0.4,0.9-0.9,1.3-1.5l2,1.1
	c-0.3,0.5-0.6,0.9-1,1.3c-0.3,0.4-0.7,0.7-1.1,0.9c-0.4,0.2-0.8,0.4-1.2,0.5c-0.5,0.1-1,0.2-1.4,0.2c-1.3,0.1-2.7-0.5-3.6-1.4
	c-0.9-1-1.4-2.4-1.4-3.8c-0.1-1.4,0.4-2.8,1.3-3.8c0.9-1,2.2-1.5,3.5-1.4c1.3-0.1,2.6,0.4,3.5,1.4c0.9,1.1,1.4,2.5,1.3,3.9
	L242.7,65.4z M240.4,63.5c-0.2-1.1-1.2-1.9-2.3-1.8c-0.5,0-1,0.2-1.5,0.5c-0.2,0.2-0.4,0.4-0.5,0.6c-0.2,0.2-0.3,0.5-0.3,0.8H240.4z
	"/>
<path d="M253,60.2v3.1c-0.4-0.5-0.9-1-1.4-1.3c-0.4-0.3-0.9-0.4-1.4-0.4c-0.8,0-1.6,0.3-2.2,0.9c-0.6,0.6-0.9,1.4-0.9,2.3
	c0,0.8,0.3,1.7,0.8,2.3c0.5,0.6,1.3,0.9,2.1,0.9c0.5,0,1-0.1,1.5-0.4c0.6-0.4,1-0.8,1.5-1.4v3c-0.9,0.5-1.8,0.7-2.8,0.7
	c-1.4,0-2.8-0.5-3.9-1.5c-1-1-1.6-2.3-1.6-3.7c0-1.4,0.5-2.8,1.6-3.8c1.1-1,2.5-1.5,3.9-1.5C251.3,59.5,252.2,59.7,253,60.2z"/>
<path d="M257.6,61.9v7.8h-2.4v-7.8h-1v-2.2h1v-3.7h2.3v3.7h1.8v2.2L257.6,61.9z"/>
<path d="M260.7,55.6c0-0.8,0.7-1.5,1.5-1.5c0.4,0,0.8,0.2,1.1,0.4c0.3,0.3,0.4,0.7,0.4,1.1c0,0.4-0.2,0.8-0.4,1.1
	c-0.3,0.3-0.7,0.4-1.1,0.4C261.3,57.1,260.7,56.5,260.7,55.6C260.7,55.6,260.7,55.6,260.7,55.6z M263.3,59.8v10H261v-10H263.3z"/>
<path d="M266.2,59.8h2.3v0.9c0.7-0.8,1.7-1.2,2.7-1.2c1-0.1,2,0.3,2.7,1.1c0.6,0.9,0.9,1.9,0.8,3v6.2h-2.3v-5.6
	c0.1-0.7-0.1-1.4-0.4-2c-0.4-0.4-0.9-0.6-1.5-0.6c-0.6-0.1-1.3,0.2-1.6,0.8c-0.4,0.8-0.5,1.7-0.5,2.6v4.8h-2.3V59.8z"/>
<path d="M287.4,69.5c0,0.5,0,0.9,0,1.2c0,0.3-0.1,0.7-0.1,1c-0.2,0.7-0.5,1.4-1,1.9c-0.9,1.1-2.3,1.6-3.7,1.6
	c-1.2,0-2.4-0.3-3.3-1.1c-0.9-0.8-1.5-1.9-1.5-3.1h2.3c0.1,0.4,0.2,0.8,0.5,1.1c0.5,0.6,1.3,1,2.1,0.9c1.7,0,2.5-1,2.5-3.1v-1.4
	c-1.6,1.8-4.4,1.9-6.2,0.2c-0.1-0.1-0.2-0.2-0.3-0.3c-0.9-1.1-1.3-2.4-1.3-3.8c0-1.3,0.4-2.7,1.2-3.7c0.8-1.1,2.1-1.7,3.5-1.6
	c1.2,0,2.4,0.5,3.1,1.4v-1.1h2.3L287.4,69.5z M285.2,64.8c0-0.8-0.2-1.7-0.8-2.3c-0.5-0.6-1.2-0.9-2-0.9c-0.8,0-1.6,0.3-2.1,1
	c-0.5,0.7-0.7,1.4-0.7,2.3c0,0.8,0.2,1.6,0.7,2.2c0.5,0.7,1.3,1,2.1,1c0.8,0,1.6-0.4,2.1-1C285,66.4,285.3,65.6,285.2,64.8z"/>
<path d="M296.8,59.8h2.3v0.9c0.3-0.4,0.7-0.7,1.1-1c0.4-0.2,0.8-0.3,1.3-0.2c1.1,0,2.1,0.5,2.7,1.5c0.7-1,1.8-1.5,2.9-1.5
	c2.3,0,3.4,1.4,3.4,4.1v6.2h-2.3v-5.6c0-0.7-0.1-1.4-0.4-2c-0.2-0.4-0.7-0.6-1.2-0.6c-0.6,0-1.1,0.2-1.4,0.7
	c-0.3,0.7-0.5,1.5-0.4,2.3v5.1h-2.3v-5.5c0-1.8-0.5-2.7-1.5-2.7c-0.6,0-1.1,0.2-1.4,0.7c-0.3,0.7-0.5,1.5-0.4,2.3v5.2h-2.3V59.8z"/>
<path d="M316.2,67.9l-4.5-8.1h2.7l3,5.7l2.8-5.7h2.6l-8,15.4h-2.6L316.2,67.9z"/>
<path d="M167.5,85.4v3.1c-0.4-0.5-0.9-1-1.4-1.3c-0.4-0.3-0.9-0.4-1.4-0.4c-0.8,0-1.6,0.3-2.2,0.9c-0.6,0.6-0.9,1.4-0.9,2.3
	c0,0.8,0.3,1.7,0.8,2.3c0.5,0.6,1.3,0.9,2.1,0.9c0.5,0,1-0.1,1.5-0.4c0.6-0.4,1-0.8,1.4-1.4v3c-0.9,0.5-1.8,0.7-2.8,0.7
	c-1.4,0-2.8-0.5-3.9-1.5c-1-1-1.6-2.3-1.5-3.7c0-1.4,0.5-2.8,1.6-3.8c1-1,2.4-1.6,3.9-1.5C165.7,84.7,166.7,84.9,167.5,85.4z"/>
<path d="M169.3,89.9c0-1.4,0.5-2.7,1.6-3.7c2.1-2,5.5-2,7.6,0c2.1,2.1,2.1,5.4,0,7.5c-1,1-2.4,1.5-3.8,1.5c-1.4,0-2.8-0.5-3.8-1.5
	C169.8,92.7,169.3,91.3,169.3,89.9z M171.7,89.9c0,0.9,0.2,1.7,0.8,2.4c0.6,0.6,1.3,0.9,2.2,0.9c0.8,0,1.6-0.3,2.2-0.9
	c1.1-1.4,1.1-3.3,0-4.7c-0.6-0.6-1.4-0.9-2.2-0.9c-0.8,0-1.6,0.3-2.1,0.9C171.9,88.2,171.6,89.1,171.7,89.9L171.7,89.9z"/>
<path d="M184.7,85v5.7c0,1.7,0.7,2.5,2,2.5s2-0.8,2-2.5V85h2.3v5.8c0,0.7-0.1,1.4-0.3,2.1c-0.2,0.5-0.6,1-1,1.4
	c-1.7,1.4-4.2,1.4-5.9,0c-0.4-0.4-0.8-0.9-1-1.4c-0.2-0.7-0.3-1.4-0.3-2.1V85H184.7z"/>
<path d="M193.8,85h2.3v0.9c0.3-0.4,0.7-0.7,1.1-0.9c0.4-0.2,0.8-0.3,1.2-0.2c0.7,0,1.3,0.2,1.9,0.6l-1.1,2.1
	c-0.4-0.3-0.8-0.5-1.3-0.5c-1.2,0-1.9,1-1.9,2.8v5.2h-2.3L193.8,85z"/>
<path d="M207.5,86.7l-1.9,1c-0.3-0.6-0.7-0.9-1.1-0.9c-0.2,0-0.4,0.1-0.5,0.2c-0.2,0.1-0.2,0.3-0.2,0.5c0,0.4,0.4,0.8,1.3,1.1
	c0.9,0.3,1.7,0.8,2.5,1.5c0.4,0.5,0.7,1.1,0.6,1.8c0,0.9-0.4,1.8-1.1,2.4c-1.6,1.4-4,1.2-5.4-0.4c-0.3-0.3-0.5-0.7-0.7-1.1l2-0.9
	c0.2,0.3,0.4,0.6,0.6,0.9c0.3,0.3,0.6,0.4,1,0.4c0.8,0,1.2-0.4,1.2-1.1c0-0.4-0.3-0.8-0.9-1.2l-0.7-0.3l-0.7-0.3
	c-0.5-0.2-1-0.6-1.4-1c-0.4-0.5-0.5-1-0.5-1.6c0-0.8,0.3-1.6,0.9-2.2c0.6-0.6,1.4-0.9,2.2-0.8C205.9,84.7,207.1,85.5,207.5,86.7z"/>
<path d="M219.3,90.5h-7.2c0,0.7,0.3,1.5,0.8,2c0.5,0.5,1.1,0.7,1.8,0.7c0.5,0,1-0.1,1.4-0.4c0.5-0.4,0.9-0.9,1.3-1.5l1.9,1.1
	c-0.3,0.5-0.6,0.9-1,1.3c-0.3,0.4-0.7,0.7-1.1,0.9c-0.4,0.2-0.8,0.4-1.2,0.5c-0.5,0.1-1,0.2-1.4,0.2c-1.3,0.1-2.7-0.5-3.6-1.4
	c-0.9-1-1.4-2.4-1.4-3.8c-0.1-1.4,0.4-2.8,1.3-3.8c1.9-1.9,5.1-1.9,7,0c0.9,1.1,1.3,2.4,1.2,3.8V90.5z M216.9,88.6
	c-0.2-1.1-1.2-1.9-2.3-1.8c-0.3,0-0.5,0-0.8,0.1c-0.2,0.1-0.5,0.2-0.7,0.4c-0.2,0.2-0.4,0.4-0.5,0.6c-0.2,0.2-0.3,0.5-0.3,0.8
	L216.9,88.6z"/>
<path d="M230.7,87.1V95h-2.3v-7.8h-1V85h1v-3.6h2.3V85h1.8v2.2L230.7,87.1z"/>
<path d="M233.7,89.9c0-1.4,0.6-2.7,1.6-3.7c2.1-2,5.4-2,7.6,0c2.1,2.1,2.1,5.4,0,7.5c-1,1-2.4,1.5-3.8,1.5c-1.4,0-2.8-0.5-3.8-1.5
	C234.3,92.7,233.7,91.3,233.7,89.9z M236.1,89.9c0,0.9,0.2,1.7,0.8,2.4c1.2,1.2,3.1,1.2,4.3,0c1.1-1.4,1.1-3.3,0-4.7
	c-0.6-0.6-1.3-0.9-2.2-0.9c-0.8,0-1.6,0.3-2.1,0.9C236.3,88.2,236,89.1,236.1,89.9L236.1,89.9z"/>
<path d="M259.1,86.7l-1.9,1c-0.3-0.6-0.7-0.9-1.1-0.9c-0.2,0-0.4,0.1-0.5,0.2c-0.2,0.1-0.2,0.3-0.2,0.5c0,0.4,0.5,0.8,1.3,1.1
	c0.9,0.3,1.7,0.8,2.5,1.5c0.4,0.5,0.7,1.1,0.6,1.8c0,0.9-0.4,1.8-1.1,2.4c-1.6,1.4-4,1.2-5.4-0.4c-0.3-0.3-0.5-0.7-0.7-1.1l2-0.9
	c0.2,0.3,0.4,0.6,0.6,0.9c0.3,0.3,0.6,0.4,1,0.4c0.8,0,1.2-0.4,1.2-1.1c0-0.4-0.3-0.8-0.9-1.2l-0.7-0.3l-0.7-0.3
	c-0.5-0.2-1-0.6-1.4-1c-0.4-0.5-0.5-1-0.5-1.6c0-0.8,0.3-1.6,0.9-2.2c0.6-0.6,1.4-0.9,2.2-0.8C257.5,84.7,258.7,85.5,259.1,86.7z"/>
<path d="M264.2,87.1V95h-2.3v-7.8h-1V85h1v-3.6h2.3V85h1.8v2.2L264.2,87.1z"/>
<path d="M275.1,85h2.3v10h-2.3v-1c-1.7,1.8-4.5,1.8-6.3,0.1c-0.1-0.1-0.2-0.2-0.2-0.3c-0.9-1.1-1.4-2.5-1.3-3.9
	c0-1.4,0.4-2.7,1.3-3.8c0.8-1,2.1-1.5,3.4-1.5c1.2,0,2.3,0.5,3.1,1.4L275.1,85z M269.6,90c0,0.8,0.2,1.7,0.8,2.3
	c0.5,0.6,1.2,0.9,2,0.9c0.8,0,1.5-0.3,2.1-0.9c1.1-1.4,1.1-3.3,0-4.6c-0.5-0.6-1.3-0.9-2-0.9c-0.8,0-1.5,0.3-2,0.9
	C269.9,88.3,269.6,89.1,269.6,90L269.6,90z"/>
<path d="M280.3,85h2.3v0.9c0.3-0.4,0.7-0.7,1.1-0.9c0.4-0.2,0.8-0.3,1.2-0.2c0.7,0,1.3,0.2,1.9,0.6l-1,2.1c-0.4-0.3-0.8-0.4-1.3-0.5
	c-1.3,0-1.9,1-1.9,2.8v5.2h-2.3V85z"/>
<path d="M290.5,77.6v8.5c0.8-0.9,1.9-1.4,3.1-1.4c1.3,0,2.5,0.5,3.4,1.5c0.9,1,1.4,2.4,1.3,3.7c0.1,1.4-0.4,2.8-1.4,3.8
	c-1.6,1.8-4.4,2-6.2,0.4c-0.1-0.1-0.2-0.2-0.3-0.2v1h-2.3V77.6H290.5z M296,90c0-0.8-0.2-1.7-0.8-2.3c-0.5-0.6-1.2-0.9-2-0.9
	c-0.8,0-1.5,0.3-2.1,0.9c-0.5,0.6-0.8,1.5-0.8,2.3c0,0.8,0.2,1.7,0.8,2.3c0.5,0.6,1.3,0.9,2,0.9c0.8,0,1.5-0.3,2-0.9
	C295.7,91.7,296,90.9,296,90z"/>
<path d="M300.3,89.9c0-1.4,0.5-2.7,1.5-3.7c2.1-2,5.5-2,7.6,0c2.1,2.1,2.1,5.4,0,7.5c-1,1-2.4,1.5-3.8,1.5c-2.9,0-5.2-2.3-5.3-5.1
	C300.3,90,300.3,90,300.3,89.9z M302.6,89.9c0,0.9,0.2,1.7,0.8,2.4c0.6,0.6,1.4,0.9,2.2,0.9c0.8,0,1.6-0.3,2.2-0.9
	c1.1-1.4,1.1-3.3,0-4.7c-1.2-1.2-3.1-1.2-4.3,0C302.9,88.2,302.6,89.1,302.6,89.9L302.6,89.9z"/>
<path d="M320.8,85h2.3v10h-2.3v-1c-1.7,1.8-4.5,1.8-6.3,0.1c-0.1-0.1-0.2-0.2-0.2-0.3c-0.9-1.1-1.4-2.4-1.3-3.8
	c-0.1-1.4,0.4-2.8,1.4-3.8c0.8-1,2.1-1.5,3.4-1.5c1.2,0,2.3,0.5,3.1,1.4L320.8,85z M315.3,90c0,0.8,0.2,1.7,0.8,2.3
	c0.5,0.6,1.2,0.9,2,0.9c0.8,0,1.5-0.3,2.1-0.9c1.1-1.4,1.1-3.3,0-4.6c-0.5-0.6-1.3-0.9-2-0.9c-0.8,0-1.5,0.3-2,0.9
	C315.6,88.3,315.3,89.1,315.3,90L315.3,90z"/>
<path d="M326,85h2.3v0.9c0.3-0.4,0.7-0.7,1.1-0.9c0.4-0.2,0.8-0.3,1.2-0.2c0.7,0,1.3,0.2,1.9,0.6l-1,2.1c-0.4-0.3-0.8-0.4-1.3-0.5
	c-1.3,0-1.9,1-1.9,2.8v5.2H326V85z"/>
<path d="M341.1,77.6h2.3V95h-2.3v-1c-0.8,0.8-1.9,1.3-3.1,1.3c-1.3,0-2.5-0.5-3.4-1.5c-0.9-1.1-1.4-2.4-1.4-3.8
	c0-1.4,0.4-2.7,1.4-3.7c1.6-1.8,4.3-2,6.1-0.4c0.1,0.1,0.3,0.2,0.4,0.4V77.6z M335.6,89.9c0,0.8,0.2,1.7,0.8,2.3
	c0.5,0.6,1.2,0.9,2,0.9c0.8,0,1.5-0.3,2.1-0.9c1.1-1.4,1.1-3.3,0-4.6c-0.5-0.6-1.3-0.9-2-0.9c-0.8,0-1.5,0.3-2,0.9
	C335.8,88.3,335.6,89.1,335.6,89.9L335.6,89.9z"/>
</svg>
