<?xml version="1.0" encoding="utf-8"?>
<!-- Generator: Adobe Illustrator 24.0.1, SVG Export Plug-In . SVG Version: 6.00 Build 0)  -->
<svg version="1.1" id="Layer_1" xmlns="http://www.w3.org/2000/svg" xmlns:xlink="http://www.w3.org/1999/xlink" x="0px" y="0px"
	 viewBox="0 0 308.4 147.8" style="enable-background:new 0 0 308.4 147.8;" xml:space="preserve">
<style type="text/css">
	.st0{fill:#FFFFFF;}
	.st1{fill:#FF0000;}
	.st2{fill:none;stroke:#000000;stroke-width:3.75;stroke-linejoin:round;}
</style>
<title>Foxtrot</title>
<rect x="1.9" y="1.9" class="st0" width="144" height="144"/>
<path class="st1" d="M73.9,1.9l72,72l-72,72l-72-72L73.9,1.9z"/>
<path class="st2" d="M1.9,1.9h144v144H1.9V1.9z"/>
<path d="M161.6,42.7v15.8h-2.4V42.7H161.6z"/>
<path d="M178.8,48.5h2.3v10h-2.3v-1.1c-1.7,1.8-4.5,1.8-6.3,0.1c-0.1-0.1-0.2-0.2-0.2-0.3c-0.9-1.1-1.4-2.4-1.3-3.8
	c0-1.4,0.4-2.7,1.3-3.8c0.8-1,2.1-1.5,3.4-1.5c1.2,0,2.3,0.5,3.1,1.4L178.8,48.5z M173.4,53.5c0,0.8,0.2,1.7,0.8,2.3
	c0.5,0.6,1.2,0.9,2,0.9c0.8,0,1.5-0.3,2.1-0.9c1.1-1.4,1.1-3.3,0-4.6c-0.5-0.6-1.3-0.9-2.1-0.9c-0.8,0-1.5,0.3-2,0.9
	C173.6,51.8,173.3,52.6,173.4,53.5L173.4,53.5z"/>
<path d="M184.1,48.5h2.3v0.9c0.3-0.4,0.7-0.7,1.1-1c0.4-0.2,0.8-0.3,1.3-0.2c1.1,0,2.1,0.5,2.7,1.5c0.7-1,1.8-1.5,3-1.5
	c2.3,0,3.4,1.4,3.4,4.1v6.2h-2.3v-5.6c0-0.7-0.1-1.4-0.4-2c-0.2-0.4-0.7-0.6-1.2-0.6c-0.6,0-1.1,0.2-1.4,0.7
	c-0.3,0.7-0.5,1.5-0.4,2.3v5.1h-2.3V53c0-1.8-0.5-2.7-1.5-2.7c-0.6,0-1.1,0.2-1.4,0.7c-0.3,0.7-0.5,1.5-0.4,2.3v5.2h-2.3V48.5z"/>
<path d="M214.5,41.2h2.3v17.3h-2.3v-1.1c-0.8,0.8-1.9,1.3-3.1,1.3c-1.3,0-2.5-0.5-3.4-1.5c-0.9-1.1-1.4-2.4-1.4-3.8
	c0-1.4,0.4-2.7,1.4-3.7c1.6-1.8,4.3-2,6.1-0.4c0.1,0.1,0.3,0.2,0.4,0.4L214.5,41.2z M209,53.5c0,0.8,0.2,1.7,0.8,2.3
	c0.5,0.6,1.2,0.9,2,0.9c0.8,0,1.5-0.3,2.1-0.9c1.1-1.4,1.1-3.3,0-4.6c-0.5-0.6-1.3-0.9-2.1-0.9c-0.8,0-1.5,0.3-2,0.9
	C209.3,51.8,209,52.6,209,53.5z"/>
<path d="M219.4,44.3c0-0.8,0.7-1.5,1.5-1.5c0.4,0,0.8,0.2,1.1,0.4c0.3,0.3,0.4,0.7,0.4,1.1c0,0.4-0.2,0.8-0.4,1.1
	c-0.3,0.3-0.7,0.4-1.1,0.4C220.1,45.9,219.4,45.2,219.4,44.3C219.4,44.4,219.4,44.3,219.4,44.3L219.4,44.3z M222.1,48.5v10h-2.3v-10
	H222.1z"/>
<path d="M230.8,50.2l-1.9,1c-0.3-0.6-0.7-0.9-1.1-0.9c-0.2,0-0.4,0.1-0.5,0.2c-0.2,0.1-0.2,0.3-0.2,0.5c0,0.4,0.5,0.8,1.3,1.1
	c0.9,0.3,1.7,0.8,2.5,1.5c0.4,0.5,0.7,1.1,0.6,1.8c0,0.9-0.4,1.8-1.1,2.4c-1.6,1.4-4,1.1-5.4-0.5c-0.3-0.3-0.5-0.7-0.6-1l2-0.9
	c0.2,0.3,0.4,0.6,0.6,0.9c0.3,0.3,0.6,0.4,1,0.4c0.8,0,1.2-0.4,1.2-1.1c0-0.4-0.3-0.8-0.9-1.2l-0.7-0.3l-0.7-0.3
	c-0.5-0.2-1-0.6-1.4-1c-0.4-0.5-0.5-1-0.5-1.6c0-0.8,0.3-1.6,0.9-2.2c0.6-0.6,1.4-0.9,2.2-0.8C229.3,48.2,230.4,49,230.8,50.2z"/>
<path d="M240.9,48.5h2.3v10h-2.3v-1.1c-1.7,1.8-4.5,1.8-6.3,0.1c-0.1-0.1-0.2-0.2-0.2-0.3c-0.9-1.1-1.4-2.4-1.4-3.8
	c-0.1-1.4,0.4-2.7,1.3-3.8c0.8-1,2.1-1.5,3.4-1.5c1.2,0,2.3,0.5,3.1,1.4L240.9,48.5z M235.4,53.5c0,0.8,0.2,1.7,0.8,2.3
	c0.5,0.6,1.2,0.9,2,0.9c0.8,0,1.5-0.3,2.1-0.9c1.1-1.4,1.1-3.3,0-4.6c-0.5-0.6-1.3-0.9-2-0.9c-0.8,0-1.5,0.3-2,0.9
	C235.6,51.8,235.3,52.6,235.4,53.5L235.4,53.5z"/>
<path d="M248.4,41.2v8.5c0.8-0.9,1.9-1.4,3.1-1.4c1.3,0,2.5,0.5,3.4,1.5c0.9,1,1.4,2.4,1.4,3.7c0.1,1.4-0.4,2.8-1.4,3.8
	c-1.6,1.8-4.4,2-6.2,0.4c-0.1-0.1-0.2-0.2-0.3-0.2v1.1h-2.3V41.2H248.4z M253.9,53.6c0-0.8-0.2-1.7-0.8-2.3c-0.5-0.6-1.2-0.9-2-0.9
	c-0.8,0-1.5,0.3-2.1,0.9c-0.5,0.6-0.8,1.5-0.8,2.3c0,0.8,0.2,1.7,0.8,2.3c0.5,0.6,1.3,0.9,2,0.9c0.8,0,1.5-0.3,2-0.9
	C253.6,55.2,253.9,54.4,253.9,53.6L253.9,53.6z"/>
<path d="M261,41.2v17.3h-2.3V41.2H261z"/>
<path d="M273,54.1h-7.1c0,0.7,0.3,1.5,0.8,2c0.9,0.8,2.2,1,3.2,0.3c0.5-0.4,0.9-0.9,1.3-1.5l2,1.1c-0.3,0.5-0.6,0.9-1,1.3
	c-0.3,0.4-0.7,0.7-1.1,0.9c-0.4,0.2-0.8,0.4-1.2,0.5c-0.5,0.1-1,0.2-1.5,0.2c-1.3,0.1-2.7-0.5-3.6-1.4c-0.9-1.1-1.4-2.4-1.4-3.8
	c-0.1-1.4,0.4-2.8,1.3-3.8c0.9-1,2.2-1.5,3.5-1.4c1.3-0.1,2.6,0.4,3.5,1.4c0.9,1.1,1.4,2.5,1.3,3.9L273,54.1z M270.6,52.2
	c-0.2-1.1-1.2-1.9-2.3-1.9c-0.3,0-0.5,0-0.8,0.1c-0.2,0.1-0.5,0.2-0.7,0.4c-0.2,0.2-0.4,0.4-0.5,0.6c-0.1,0.2-0.3,0.5-0.3,0.8
	L270.6,52.2z"/>
<path d="M282.9,41.2h2.3v17.3h-2.3v-1.1c-0.8,0.8-1.9,1.3-3.1,1.3c-1.3,0-2.5-0.5-3.4-1.5c-0.9-1.1-1.4-2.4-1.4-3.8
	c0-1.4,0.4-2.7,1.4-3.7c0.8-1,2.1-1.5,3.4-1.5c1.2,0,2.3,0.5,3.1,1.4L282.9,41.2z M277.4,53.5c0,0.8,0.2,1.7,0.8,2.3
	c0.5,0.6,1.2,0.9,2,0.9c0.8,0,1.5-0.3,2.1-0.9c1.1-1.4,1.1-3.3,0-4.6c-1-1.1-2.8-1.2-3.9-0.1c0,0-0.1,0.1-0.1,0.1
	C277.7,51.8,277.4,52.6,277.4,53.5L277.4,53.5z"/>
<path d="M289.5,55.5l2,0.8l-2.9,5.8l-1.6-0.6L289.5,55.5z M289,49.6c0-0.4,0.1-0.7,0.4-1c0.5-0.6,1.4-0.6,2,0c0,0,0,0,0,0
	c0.3,0.3,0.4,0.6,0.4,1c0,0.8-0.7,1.4-1.4,1.4c-0.4,0-0.7-0.2-1-0.4C289.1,50.4,289,50,289,49.6z"/>
<path d="M166.6,74.1v3.1c-0.4-0.5-0.9-1-1.4-1.3c-0.4-0.3-0.9-0.4-1.4-0.4c-0.8,0-1.6,0.3-2.2,0.9c-0.6,0.6-0.9,1.4-0.9,2.3
	c0,0.8,0.3,1.7,0.8,2.3c0.5,0.6,1.3,0.9,2.1,0.9c0.5,0,1-0.1,1.5-0.4c0.6-0.4,1-0.8,1.4-1.4v3c-0.9,0.5-1.8,0.7-2.8,0.7
	c-1.4,0-2.8-0.5-3.9-1.5c-1-1-1.6-2.3-1.5-3.7c0-1.4,0.5-2.8,1.6-3.8c1-1,2.4-1.6,3.9-1.5C164.8,73.4,165.7,73.6,166.6,74.1z"/>
<path d="M168.3,78.6c0-1.4,0.5-2.7,1.6-3.7c2.1-2,5.5-2,7.6,0c2.1,2.1,2.1,5.4,0,7.5c-1,1-2.4,1.5-3.8,1.5c-1.4,0-2.8-0.5-3.8-1.5
	C168.9,81.4,168.3,80,168.3,78.6z M170.7,78.6c0,0.9,0.2,1.7,0.8,2.4c0.6,0.6,1.3,0.9,2.2,0.9c0.8,0,1.6-0.3,2.2-0.9
	c1.1-1.4,1.1-3.3,0-4.7c-0.6-0.6-1.4-0.9-2.2-0.9c-0.8,0-1.6,0.3-2.1,0.9C171,77,170.7,77.8,170.7,78.6L170.7,78.6z"/>
<path d="M181.4,73.7h2.3v0.9c0.3-0.4,0.7-0.7,1.1-1c0.4-0.2,0.8-0.3,1.3-0.2c1.1,0,2.1,0.5,2.7,1.5c0.7-1,1.8-1.5,2.9-1.5
	c2.3,0,3.4,1.4,3.4,4.1v6.2h-2.3v-5.5c0-0.7-0.1-1.4-0.4-2c-0.2-0.4-0.7-0.6-1.2-0.6c-0.6,0-1.1,0.2-1.4,0.7
	c-0.3,0.7-0.5,1.5-0.4,2.3v5.1h-2.3v-5.5c0-1.8-0.5-2.7-1.5-2.7c-0.6,0-1.1,0.2-1.4,0.7c-0.3,0.7-0.5,1.5-0.4,2.3v5.2h-2.3
	L181.4,73.7z"/>
<path d="M198,73.7h2.3v0.9c0.3-0.4,0.7-0.7,1.1-1c0.4-0.2,0.8-0.3,1.3-0.2c1.1,0,2.1,0.5,2.7,1.5c0.7-0.9,1.8-1.5,2.9-1.4
	c2.3,0,3.4,1.4,3.4,4.1v6.2h-2.3v-5.5c0-0.7-0.1-1.4-0.4-2c-0.2-0.4-0.7-0.6-1.2-0.6c-0.6,0-1.1,0.2-1.4,0.7
	c-0.3,0.7-0.5,1.5-0.4,2.3v5.1h-2.3v-5.5c0-1.8-0.5-2.7-1.5-2.7c-0.6,0-1.1,0.2-1.4,0.7c-0.3,0.7-0.5,1.5-0.4,2.3v5.2H198V73.7z"/>
<path d="M217,73.7v5.7c0,1.7,0.6,2.5,2,2.5s1.9-0.8,1.9-2.5v-5.7h2.3v5.8c0,0.7-0.1,1.4-0.3,2.1c-0.2,0.5-0.6,1-1,1.4
	c-1.7,1.4-4.2,1.4-5.9,0c-0.4-0.4-0.8-0.9-1-1.4c-0.2-0.7-0.3-1.4-0.3-2.1v-5.8H217z"/>
<path d="M226.1,73.7h2.3v0.9c0.7-0.8,1.7-1.2,2.7-1.2c1-0.1,2,0.3,2.7,1.1c0.6,0.9,0.9,1.9,0.8,3v6.2h-2.4v-5.6
	c0.1-0.7-0.1-1.4-0.4-2c-0.4-0.4-0.9-0.6-1.5-0.6c-0.6-0.1-1.3,0.2-1.6,0.8c-0.4,0.8-0.5,1.7-0.5,2.6v4.8h-2.3L226.1,73.7z"/>
<path d="M237.3,69.5c0-0.8,0.7-1.5,1.6-1.4c0.4,0,0.7,0.2,1,0.4c0.3,0.3,0.5,0.7,0.4,1.1c0,0.4-0.2,0.8-0.4,1.1
	c-0.3,0.3-0.7,0.4-1,0.4c-0.4,0-0.8-0.2-1.1-0.4C237.4,70.4,237.3,70,237.3,69.5z M239.9,73.7v10h-2.3v-10H239.9z"/>
<path d="M250.6,74.1v3.1c-0.4-0.5-0.9-1-1.4-1.3c-0.4-0.3-0.9-0.4-1.4-0.4c-0.8,0-1.6,0.3-2.2,0.9c-0.6,0.6-0.9,1.4-0.9,2.3
	c0,0.8,0.3,1.7,0.8,2.3c0.5,0.6,1.3,0.9,2.1,0.9c0.5,0,1-0.1,1.5-0.4c0.6-0.4,1-0.8,1.5-1.4v3c-0.9,0.5-1.8,0.7-2.8,0.7
	c-1.4,0-2.8-0.5-3.9-1.5c-1-0.9-1.6-2.3-1.6-3.7c0-1.4,0.5-2.8,1.6-3.8c1-1,2.4-1.6,3.9-1.5C248.8,73.4,249.8,73.6,250.6,74.1z"/>
<path d="M260.2,73.7h2.3v10h-2.3v-1c-1.7,1.8-4.5,1.8-6.3,0.1c-0.1-0.1-0.2-0.2-0.2-0.3c-0.9-1.1-1.4-2.5-1.4-3.9
	c0-1.4,0.4-2.7,1.4-3.8c0.8-1,2.1-1.5,3.4-1.5c1.2,0,2.3,0.5,3.1,1.4L260.2,73.7z M254.7,78.7c0,0.8,0.2,1.7,0.8,2.3
	c0.5,0.6,1.2,0.9,2,0.9c0.8,0,1.5-0.3,2.1-0.9c1.1-1.4,1.1-3.3,0-4.6c-0.5-0.6-1.3-0.9-2-0.9c-0.8,0-1.5,0.3-2,0.9
	C255,77.1,254.7,77.8,254.7,78.7L254.7,78.7z"/>
<path d="M267.8,75.8v7.8h-2.3v-7.8h-1v-2.2h1v-3.6h2.3v3.7h1.8v2.2L267.8,75.8z"/>
<path d="M280.5,79.2h-7.1c0,0.7,0.3,1.5,0.8,2c0.5,0.5,1.1,0.7,1.8,0.7c0.5,0,1-0.1,1.4-0.4c0.5-0.4,0.9-0.9,1.3-1.5l1.9,1.1
	c-0.3,0.5-0.6,0.9-1,1.3c-0.3,0.3-0.7,0.7-1.1,0.9c-0.4,0.2-0.8,0.4-1.2,0.5c-0.5,0.1-1,0.2-1.5,0.2c-1.3,0.1-2.7-0.5-3.6-1.4
	c-0.9-1-1.4-2.4-1.4-3.8c-0.1-1.4,0.4-2.8,1.3-3.8c0.9-1,2.2-1.5,3.5-1.4c1.3-0.1,2.6,0.4,3.5,1.4c0.9,1.1,1.4,2.5,1.3,3.9
	L280.5,79.2z M278.1,77.3c-0.2-1.1-1.2-1.9-2.3-1.8c-0.3,0-0.5,0-0.8,0.1c-0.2,0.1-0.5,0.2-0.7,0.4c-0.2,0.2-0.4,0.4-0.5,0.6
	c-0.1,0.2-0.3,0.5-0.3,0.8L278.1,77.3z"/>
<path d="M160.1,98.9l2.6,5.7l2.8-6.6l2.8,6.6l2.6-5.7h2.6l-5.2,10.7l-2.8-6.4l-2.8,6.4l-5.2-10.7H160.1z"/>
<path d="M174.7,94.7c0-0.8,0.7-1.5,1.6-1.4c0.4,0,0.7,0.2,1,0.4c0.3,0.3,0.5,0.7,0.4,1.1c0,0.4-0.2,0.8-0.4,1.1
	c-0.3,0.3-0.6,0.4-1,0.4c-0.4,0-0.8-0.2-1.1-0.4C174.9,95.6,174.7,95.2,174.7,94.7z M177.4,98.9v10h-2.3v-10H177.4z"/>
<path d="M182.7,101.1v7.8h-2.3v-7.8h-1v-2.2h1v-3.7h2.3v3.7h1.8v2.2H182.7z"/>
<path d="M186.4,91.6h2.3v8.2c0.7-0.7,1.7-1.1,2.7-1.1c1,0,2,0.3,2.7,1.1c0.7,0.9,1,2,0.9,3.1v6.1h-2.3V103c0-0.6-0.1-1.2-0.4-1.7
	c-0.3-0.4-0.9-0.6-1.4-0.5c-0.7-0.1-1.3,0.2-1.7,0.8c-0.4,0.8-0.6,1.7-0.5,2.6v4.8h-2.3V91.6z"/>
<path d="M204.4,98.9h2.3v0.9c0.3-0.4,0.7-0.7,1.1-0.9c0.4-0.2,0.8-0.3,1.3-0.2c1.1,0,2.1,0.5,2.7,1.5c0.7-1,1.8-1.5,2.9-1.5
	c2.3,0,3.4,1.4,3.4,4.1v6.2h-2.3v-5.6c0-0.7-0.1-1.4-0.4-2c-0.2-0.4-0.7-0.6-1.2-0.6c-0.6,0-1.1,0.2-1.4,0.7
	c-0.3,0.7-0.5,1.5-0.4,2.3v5.2h-2.3v-5.5c0-1.8-0.5-2.7-1.5-2.7c-0.6,0-1.1,0.2-1.4,0.7c-0.3,0.7-0.5,1.5-0.4,2.3v5.2h-2.3V98.9z"/>
<path d="M230.1,104.4H223c0,0.7,0.3,1.5,0.8,2c0.9,0.8,2.2,1,3.2,0.3c0.5-0.4,1-1,1.3-1.6l2,1.1c-0.3,0.5-0.6,0.9-1,1.3
	c-0.3,0.4-0.7,0.7-1.1,0.9c-0.4,0.2-0.8,0.4-1.2,0.5c-0.5,0.1-1,0.2-1.4,0.2c-1.3,0.1-2.7-0.5-3.6-1.4c-0.9-1.1-1.4-2.4-1.4-3.8
	c-0.1-1.4,0.4-2.8,1.3-3.8c0.9-1,2.2-1.5,3.5-1.4c1.3-0.1,2.6,0.4,3.5,1.4c0.9,1.1,1.4,2.5,1.3,3.9L230.1,104.4z M227.8,102.5
	c-0.2-1.1-1.2-1.9-2.3-1.8c-0.3,0-0.5,0-0.8,0.1c-0.2,0.1-0.5,0.2-0.7,0.4c-0.2,0.2-0.4,0.4-0.5,0.6c-0.1,0.2-0.3,0.5-0.3,0.8H227.8
	z"/>
</svg>
