<?xml version="1.0" encoding="utf-8"?>
<!-- Generator: Adobe Illustrator 24.0.1, SVG Export Plug-In . SVG Version: 6.00 Build 0)  -->
<svg version="1.1" id="Layer_1" xmlns="http://www.w3.org/2000/svg" xmlns:xlink="http://www.w3.org/1999/xlink" x="0px" y="0px"
	 viewBox="0 0 318.7 147.8" style="enable-background:new 0 0 318.7 147.8;" xml:space="preserve">
<style type="text/css">
	.st0{fill:#000094;}
	.st1{stroke:#FFCC00;stroke-width:24;}
	.st2{fill:none;stroke:#000000;stroke-width:3.75;stroke-linejoin:round;}
</style>
<title>Golf</title>
<path class="st0" d="M1.9,1.9h144v144H1.9"/>
<path class="st1" d="M13.9,1.9v144 M61.9,145.9V1.9 M109.9,1.9v144"/>
<path class="st2" d="M1.9,1.9h144v144H1.9V1.9z"/>
<path d="M157.3,67v15.8h-2.4V67H157.3z"/>
<path d="M167.1,72.9h2.3v0.9c0.3-0.4,0.7-0.7,1.1-0.9c0.4-0.2,0.8-0.3,1.2-0.2c0.7,0,1.3,0.2,1.9,0.6l-1,2.1
	c-0.4-0.3-0.8-0.5-1.3-0.5c-1.2,0-1.9,1-1.9,2.8v5.2h-2.3L167.1,72.9z"/>
<path d="M184,78.4h-7.2c0,0.7,0.3,1.5,0.8,2c0.5,0.5,1.1,0.7,1.8,0.7c0.5,0,1-0.1,1.4-0.4c0.5-0.4,0.9-0.9,1.3-1.5l1.9,1.1
	c-0.3,0.5-0.6,0.9-1,1.3c-0.3,0.4-0.7,0.7-1.1,0.9c-0.4,0.2-0.8,0.4-1.2,0.5c-0.5,0.1-1,0.2-1.4,0.2c-1.3,0.1-2.7-0.5-3.6-1.4
	c-0.9-1.1-1.4-2.4-1.4-3.8c-0.1-1.4,0.4-2.8,1.3-3.8c0.9-1,2.2-1.5,3.5-1.4c1.3-0.1,2.6,0.4,3.5,1.4c0.9,1.1,1.4,2.4,1.4,3.8
	L184,78.4z M181.6,76.5c-0.2-1.1-1.2-1.9-2.3-1.8c-0.3,0-0.5,0-0.8,0.1c-0.2,0.1-0.5,0.2-0.7,0.4c-0.2,0.2-0.4,0.4-0.5,0.6
	c-0.1,0.2-0.3,0.5-0.3,0.8L181.6,76.5z"/>
<path d="M193.8,88.3v-6.5c-0.8,0.9-1.9,1.4-3.1,1.4c-1.3,0-2.5-0.5-3.4-1.5c-0.9-1-1.4-2.4-1.3-3.7c0-1.4,0.4-2.8,1.3-3.8
	c0.8-1,2.1-1.5,3.4-1.5c1.2,0,2.3,0.5,3.1,1.4v-1.1h2.3v15.4H193.8z M188.4,77.8c0,0.9,0.2,1.7,0.8,2.3c0.5,0.6,1.2,1,2,0.9
	c0.8,0,1.5-0.3,2.1-0.9c0.6-0.6,0.8-1.5,0.8-2.3c0-0.8-0.2-1.7-0.8-2.3c-1-1.1-2.8-1.2-3.9-0.1c0,0-0.1,0.1-0.1,0.1
	C188.7,76.2,188.3,77,188.4,77.8L188.4,77.8z"/>
<path d="M201.6,72.9v5.7c0,1.7,0.7,2.5,2,2.5s2-0.8,2-2.5v-5.7h2.3v5.8c0,0.7-0.1,1.4-0.3,2.1c-0.2,0.5-0.6,1-1,1.4
	c-1.7,1.4-4.2,1.4-5.9,0c-0.4-0.4-0.8-0.9-1-1.4c-0.2-0.7-0.3-1.4-0.3-2.1v-5.8H201.6z"/>
<path d="M210.4,68.7c0-0.8,0.7-1.5,1.6-1.4c0.4,0,0.7,0.2,1,0.4c0.3,0.3,0.5,0.7,0.4,1.1c0,0.4-0.2,0.8-0.4,1.1
	c-0.3,0.3-0.7,0.4-1.1,0.4c-0.4,0-0.8-0.2-1.1-0.4C210.5,69.6,210.4,69.2,210.4,68.7z M213,72.9v10h-2.3v-10H213z"/>
<path d="M216,72.9h2.3v0.9c0.3-0.4,0.7-0.7,1.1-0.9c0.4-0.2,0.8-0.3,1.2-0.2c0.7,0,1.3,0.2,1.9,0.6l-1.1,2.1
	c-0.4-0.3-0.8-0.5-1.3-0.5c-1.3,0-1.9,1-1.9,2.8v5.2H216V72.9z"/>
<path d="M232.8,78.4h-7.1c0,0.7,0.3,1.5,0.8,2c0.9,0.8,2.2,1,3.2,0.3c0.5-0.4,0.9-0.9,1.3-1.5l1.9,1.1c-0.3,0.5-0.6,0.9-1,1.3
	c-0.3,0.4-0.7,0.7-1.1,0.9c-0.4,0.2-0.8,0.4-1.2,0.5c-0.5,0.1-1,0.2-1.5,0.2c-1.3,0.1-2.7-0.5-3.6-1.4c-0.9-1.1-1.4-2.4-1.4-3.8
	c-0.1-1.4,0.4-2.8,1.3-3.8c0.9-1,2.2-1.5,3.5-1.5c1.3-0.1,2.6,0.4,3.5,1.4c0.9,1.1,1.4,2.5,1.3,3.9V78.4z M230.4,76.5
	c-0.2-1.1-1.2-1.9-2.3-1.8c-0.3,0-0.5,0-0.8,0.1c-0.2,0.1-0.5,0.2-0.7,0.4c-0.2,0.2-0.4,0.4-0.5,0.6c-0.1,0.2-0.3,0.5-0.3,0.8
	L230.4,76.5z"/>
<path d="M249.1,72.9h2.3v10h-2.3v-1c-1.7,1.8-4.5,1.8-6.3,0.1c-0.1-0.1-0.2-0.2-0.2-0.3c-0.9-1.1-1.4-2.4-1.3-3.8
	c0-1.4,0.4-2.7,1.3-3.8c0.8-1,2.1-1.6,3.4-1.6c1.2,0,2.3,0.5,3.1,1.4V72.9z M243.7,77.9c0,0.8,0.2,1.7,0.8,2.3
	c0.5,0.6,1.2,0.9,2,0.9c0.8,0,1.5-0.3,2.1-0.9c1.1-1.4,1.1-3.3,0-4.6c-0.5-0.6-1.3-0.9-2-0.9c-0.8,0-1.5,0.3-2,0.9
	C243.9,76.2,243.7,77,243.7,77.9L243.7,77.9z"/>
<path d="M263.2,88.3h-2.3V72.9h2.3V74c0.8-0.9,1.9-1.4,3.1-1.4c1.3,0,2.6,0.5,3.4,1.5c0.9,1.1,1.4,2.4,1.4,3.8
	c0,1.4-0.4,2.7-1.3,3.7c-1.6,1.8-4.4,2-6.2,0.4c-0.1-0.1-0.2-0.2-0.3-0.3L263.2,88.3z M268.6,77.9c0-0.8-0.2-1.7-0.8-2.3
	c-0.5-0.6-1.2-0.9-2-0.9c-0.8,0-1.5,0.3-2.1,0.9c-0.5,0.6-0.8,1.5-0.8,2.3c0,0.8,0.3,1.7,0.8,2.3c0.5,0.6,1.3,0.9,2.1,0.9
	c0.8,0,1.5-0.3,2-0.9C268.4,79.5,268.7,78.8,268.6,77.9L268.6,77.9z"/>
<path d="M273.1,68.7c0-0.8,0.7-1.5,1.5-1.5c0.4,0,0.8,0.2,1.1,0.4c0.3,0.3,0.4,0.7,0.4,1.1c0,0.4-0.2,0.8-0.4,1.1
	c-0.6,0.6-1.5,0.6-2.1,0C273.3,69.5,273.1,69.1,273.1,68.7z M275.8,72.9v10h-2.3v-10H275.8z"/>
<path d="M281,65.6v17.3h-2.3V65.6H281z"/>
<path d="M283.4,77.8c0-1.4,0.6-2.7,1.6-3.7c2.1-2,5.5-2,7.6,0c2,2.1,2,5.4,0,7.5c-1,1-2.4,1.5-3.8,1.5c-1.4,0-2.8-0.5-3.8-1.5
	C284,80.6,283.4,79.2,283.4,77.8z M285.8,77.8c0,0.9,0.2,1.7,0.8,2.4c1.2,1.2,3.1,1.2,4.3,0c1.1-1.4,1.1-3.3,0-4.7
	c-0.6-0.6-1.4-0.9-2.2-0.9c-0.8,0-1.6,0.3-2.1,0.9C286,76.1,285.7,77,285.8,77.8L285.8,77.8z"/>
<path d="M299,75v7.8h-2.3V75h-1v-2.2h1v-3.6h2.3v3.7h1.8v2.2L299,75z"/>
</svg>
