<?xml version="1.0" encoding="utf-8"?>
<!-- Generator: Adobe Illustrator 24.0.1, SVG Export Plug-In . SVG Version: 6.00 Build 0)  -->
<svg version="1.1" id="Layer_1" xmlns="http://www.w3.org/2000/svg" xmlns:xlink="http://www.w3.org/1999/xlink" x="0px" y="0px"
	 viewBox="0 0 309.6 147.8" style="enable-background:new 0 0 309.6 147.8;" xml:space="preserve">
<style type="text/css">
	.st0{fill:#FF0000;}
	.st1{fill:#FFFFFF;}
	.st2{fill:none;stroke:#000000;stroke-width:3.75;stroke-linejoin:round;}
</style>
<title>Hotel</title>
<rect x="1.9" y="1.9" class="st0" width="144" height="144"/>
<rect x="1.9" y="1.9" class="st1" width="72" height="144"/>
<path class="st2" d="M1.9,1.9h144v144H1.9V1.9z"/>
<path d="M163.5,53.4v15.8h-2.4V53.4H163.5z"/>
<path d="M173.4,51.9h2.3V60c0.7-0.7,1.7-1.1,2.7-1.1c1,0,2,0.4,2.7,1.1c0.6,0.9,0.9,1.9,0.9,3v6.2h-2.3v-5.9c0-0.6-0.1-1.2-0.4-1.7
	c-0.3-0.4-0.9-0.6-1.4-0.5c-0.7-0.1-1.3,0.2-1.7,0.8c-0.4,0.8-0.6,1.7-0.5,2.6v4.8h-2.3L173.4,51.9z"/>
<path d="M192.2,59.2h2.3v10h-2.3v-1c-1.7,1.8-4.5,1.8-6.3,0.1c-0.1-0.1-0.2-0.2-0.2-0.3c-0.9-1.1-1.4-2.4-1.4-3.8
	c0-1.4,0.4-2.7,1.4-3.8c0.8-1,2.1-1.5,3.4-1.5c1.2,0,2.3,0.5,3.1,1.4V59.2z M186.8,64.2c0,0.8,0.2,1.7,0.8,2.3
	c0.5,0.6,1.2,0.9,2,0.9c0.8,0,1.5-0.3,2.1-0.9c1.1-1.4,1.1-3.3,0-4.6c-0.5-0.6-1.3-0.9-2.1-0.9c-0.8,0-1.5,0.3-2,0.9
	C187,62.6,186.8,63.4,186.8,64.2L186.8,64.2z"/>
<path d="M198.9,59.2l2.6,5.6l2.6-5.6h2.6l-5.2,10.7l-5.1-10.7H198.9z"/>
<path d="M217,64.8h-7.2c0,0.7,0.3,1.5,0.8,2c0.5,0.5,1.1,0.7,1.8,0.7c0.5,0,1-0.1,1.4-0.4c0.5-0.4,0.9-0.9,1.3-1.5l2,1.1
	c-0.3,0.5-0.6,0.9-1,1.3c-0.3,0.3-0.7,0.7-1.1,0.9c-0.4,0.2-0.8,0.4-1.2,0.5c-0.5,0.1-1,0.2-1.4,0.2c-1.3,0.1-2.7-0.5-3.6-1.4
	c-0.9-1-1.4-2.4-1.4-3.8c-0.1-1.4,0.4-2.8,1.3-3.8c1.9-1.9,5.1-1.9,7,0c0.9,1.1,1.4,2.5,1.3,3.9L217,64.8z M214.6,62.9
	c-0.2-1.1-1.2-1.9-2.3-1.9c-0.3,0-0.5,0-0.8,0.1c-0.2,0.1-0.5,0.2-0.7,0.4c-0.2,0.2-0.4,0.4-0.5,0.6c-0.1,0.2-0.3,0.5-0.3,0.8
	L214.6,62.9z"/>
<path d="M233.3,59.2h2.3v10h-2.3v-1c-1.7,1.8-4.5,1.8-6.3,0.1c-0.1-0.1-0.2-0.2-0.2-0.3c-0.9-1.1-1.4-2.4-1.3-3.8
	c0-1.4,0.4-2.7,1.3-3.8c0.8-1,2.1-1.6,3.4-1.5c1.2,0,2.3,0.5,3.1,1.4L233.3,59.2z M227.8,64.2c0,0.8,0.2,1.7,0.8,2.3
	c0.5,0.6,1.2,0.9,2,0.9c0.8,0,1.5-0.3,2.1-0.9c1.1-1.4,1.1-3.3,0-4.6c-0.5-0.6-1.3-0.9-2-0.9c-0.8,0-1.5,0.3-2,0.9
	C228.1,62.6,227.8,63.4,227.8,64.2L227.8,64.2z"/>
<path d="M247.3,74.7H245V59.2h2.3v1.1c0.8-0.9,1.9-1.4,3.1-1.4c1.3,0,2.5,0.5,3.4,1.5c0.9,1.1,1.4,2.4,1.4,3.8
	c0,1.4-0.4,2.7-1.4,3.7c-1.6,1.8-4.4,2-6.2,0.4c-0.1-0.1-0.2-0.2-0.3-0.3V74.7z M252.8,64.3c0-0.8-0.2-1.7-0.8-2.3
	c-0.5-0.6-1.2-0.9-2-0.9c-0.8,0-1.5,0.3-2.1,0.9c-0.5,0.6-0.8,1.5-0.8,2.3c0,0.8,0.2,1.7,0.8,2.3c0.5,0.6,1.3,0.9,2,0.9
	c0.8,0,1.5-0.3,2-0.9C252.6,65.9,252.9,65.1,252.8,64.3z"/>
<path d="M257.2,55.1c0-0.8,0.7-1.5,1.5-1.5c0.4,0,0.8,0.2,1.1,0.4c0.3,0.3,0.4,0.7,0.4,1.1c0,0.4-0.2,0.8-0.4,1.1
	c-0.3,0.3-0.6,0.4-1,0.4C258,56.7,257.3,56,257.2,55.1C257.2,55.2,257.2,55.1,257.2,55.1z M259.9,59.2v10h-2.3v-10L259.9,59.2z"/>
<path d="M265.2,51.9v17.3h-2.3V51.9H265.2z"/>
<path d="M267.6,64.2c0-1.4,0.5-2.7,1.5-3.7c1-1,2.4-1.5,3.8-1.5c1.4,0,2.8,0.5,3.8,1.5c2.1,2.1,2.1,5.4,0,7.5c-1,1-2.4,1.5-3.8,1.5
	c-1.4,0-2.8-0.5-3.8-1.5C268.1,67,267.5,65.6,267.6,64.2z M270,64.2c0,0.9,0.2,1.7,0.8,2.4c0.6,0.6,1.4,0.9,2.2,0.9
	c0.8,0,1.6-0.3,2.2-0.9c1.1-1.4,1.1-3.3,0-4.7c-1.2-1.2-3.1-1.2-4.3,0C270.2,62.6,269.9,63.4,270,64.2L270,64.2z"/>
<path d="M283.2,61.4v7.8h-2.3v-7.8h-1v-2.2h1v-3.7h2.3v3.7h1.8v2.2H283.2z"/>
<path d="M160.2,89.4c0-1.4,0.5-2.7,1.6-3.7c2.1-2,5.5-2,7.6,0c2.1,2.1,2.1,5.4,0,7.5c-1,1-2.4,1.5-3.8,1.5c-1.4,0-2.8-0.5-3.8-1.5
	C160.8,92.2,160.2,90.8,160.2,89.4z M162.6,89.4c0,0.9,0.2,1.7,0.8,2.4c0.6,0.6,1.4,0.9,2.2,0.9c0.8,0,1.6-0.3,2.2-0.9
	c1.1-1.4,1.1-3.3,0-4.7c-1.2-1.2-3.1-1.2-4.3,0C162.8,87.7,162.5,88.6,162.6,89.4L162.6,89.4z"/>
<path d="M173.3,84.4h2.3v0.9c0.7-0.8,1.7-1.2,2.7-1.2c1-0.1,2,0.3,2.7,1.1c0.6,0.9,0.9,1.9,0.8,3v6.2h-2.3v-5.6
	c0.1-0.7-0.1-1.4-0.4-2c-0.4-0.4-0.9-0.6-1.5-0.6c-0.6-0.1-1.3,0.2-1.6,0.8c-0.4,0.8-0.5,1.7-0.5,2.6v4.8h-2.3L173.3,84.4z"/>
<path d="M193.6,77.1v8.5c0.8-0.9,1.9-1.4,3.1-1.4c1.3,0,2.5,0.5,3.4,1.5c0.9,1,1.4,2.4,1.4,3.7c0,1.4-0.4,2.8-1.4,3.8
	c-1.6,1.8-4.4,2-6.2,0.4c-0.1-0.1-0.2-0.2-0.3-0.2v1.1h-2.3V77.1H193.6z M199.1,89.5c0-0.8-0.2-1.7-0.8-2.3c-0.5-0.6-1.2-0.9-2-0.9
	c-0.8,0-1.5,0.3-2.1,0.9c-0.5,0.6-0.8,1.5-0.8,2.3c0,0.8,0.2,1.7,0.8,2.3c0.5,0.6,1.3,0.9,2.1,0.9c0.8,0,1.5-0.3,2-0.9
	C198.8,91.1,199.1,90.3,199.1,89.5L199.1,89.5z"/>
<path d="M203.4,89.4c0-1.4,0.5-2.7,1.6-3.7c2.1-2,5.5-2,7.6,0c2.1,2.1,2.1,5.4,0,7.5c-1,1-2.4,1.5-3.8,1.5c-1.4,0-2.8-0.5-3.8-1.5
	C204,92.2,203.4,90.8,203.4,89.4z M205.8,89.4c0,0.9,0.2,1.7,0.8,2.4c0.6,0.6,1.4,0.9,2.2,0.9c0.8,0,1.6-0.3,2.2-0.9
	c1.1-1.4,1.1-3.3,0-4.7c-1.2-1.2-3.1-1.2-4.3,0C206,87.7,205.7,88.6,205.8,89.4L205.8,89.4z"/>
<path d="M223.9,84.4h2.4v10h-2.3v-1.1c-1.7,1.8-4.5,1.8-6.3,0.1c-0.1-0.1-0.2-0.2-0.2-0.3c-0.9-1.1-1.4-2.4-1.3-3.8
	c0-1.4,0.4-2.7,1.3-3.8c0.8-1,2.1-1.5,3.4-1.5c1.2,0,2.3,0.5,3.1,1.4L223.9,84.4z M218.4,89.4c0,0.8,0.2,1.7,0.8,2.3
	c0.5,0.6,1.2,0.9,2,0.9c0.8,0,1.5-0.3,2.1-0.9c1.1-1.4,1.1-3.3,0-4.6c-0.5-0.6-1.3-0.9-2-0.9c-0.8,0-1.5,0.3-2,0.9
	C218.7,87.8,218.4,88.6,218.4,89.4L218.4,89.4z"/>
<path d="M229.1,84.4h2.3v0.9c0.3-0.4,0.7-0.7,1.1-0.9c0.4-0.2,0.8-0.3,1.2-0.2c0.7,0,1.3,0.2,1.9,0.6l-1,2.1
	c-0.4-0.3-0.8-0.5-1.3-0.5c-1.2,0-1.9,0.9-1.9,2.8v5.2h-2.3V84.4z"/>
<path d="M244.2,77.1h2.3v17.3h-2.3v-1.1c-0.8,0.8-1.9,1.3-3.1,1.3c-1.3,0-2.6-0.5-3.4-1.5c-0.9-1.1-1.4-2.4-1.3-3.8
	c0-1.4,0.4-2.7,1.3-3.7c0.8-1,2.1-1.5,3.4-1.5c1.2,0,2.3,0.5,3.1,1.4V77.1z M238.8,89.4c0,0.8,0.2,1.7,0.8,2.3
	c0.5,0.6,1.2,0.9,2,0.9c0.8,0,1.5-0.3,2.1-0.9c1.1-1.4,1.1-3.3,0-4.6c-0.5-0.6-1.3-0.9-2-0.9c-0.8,0-1.5,0.3-2,0.9
	C239,87.8,238.7,88.6,238.8,89.4L238.8,89.4z"/>
</svg>
