<?xml version="1.0" encoding="utf-8"?>
<!-- Generator: Adobe Illustrator 24.0.1, SVG Export Plug-In . SVG Version: 6.00 Build 0)  -->
<svg version="1.1" id="Layer_1" xmlns="http://www.w3.org/2000/svg" xmlns:xlink="http://www.w3.org/1999/xlink" x="0px" y="0px"
	 viewBox="0 0 383.9 147.8" style="enable-background:new 0 0 383.9 147.8;" xml:space="preserve">
<style type="text/css">
	.st0{fill:#000094;}
	.st1{fill:#FFFFFF;}
	.st2{fill:none;stroke:#000000;stroke-width:3.75;stroke-linejoin:round;}
</style>
<title>Juliet</title>
<rect x="1.9" y="1.9" class="st0" width="144" height="144"/>
<rect x="1.9" y="49.9" class="st1" width="144" height="48"/>
<path class="st2" d="M1.9,1.9h144v144H1.9V1.9z"/>
<path d="M168.2,39.9v15.8h-2.4V39.9H168.2z"/>
<path d="M185.4,45.7h2.3v10h-2.3v-1.1c-1.7,1.8-4.5,1.8-6.3,0.1c-0.1-0.1-0.2-0.2-0.2-0.3c-0.9-1.1-1.4-2.4-1.3-3.8
	c0-1.4,0.4-2.7,1.3-3.8c0.8-1,2.1-1.5,3.4-1.5c1.2,0,2.3,0.5,3.1,1.4V45.7z M179.9,50.7c0,0.8,0.2,1.7,0.8,2.3
	c0.5,0.6,1.2,0.9,2,0.9s1.5-0.3,2.1-0.9c1.1-1.4,1.1-3.3,0-4.6c-0.5-0.6-1.3-0.9-2.1-0.9s-1.5,0.3-2,0.9
	C180.1,49.1,179.8,49.9,179.9,50.7L179.9,50.7z"/>
<path d="M190.6,45.7h2.3v0.9c0.3-0.4,0.7-0.7,1.1-1c0.4-0.2,0.8-0.3,1.3-0.2c1.1,0,2.1,0.5,2.7,1.5c0.7-1,1.8-1.5,3-1.5
	c2.3,0,3.4,1.4,3.4,4.1v6.2H202v-5.6c0-0.7-0.1-1.4-0.4-2c-0.2-0.4-0.7-0.6-1.2-0.6c-0.6,0-1.1,0.2-1.4,0.7
	c-0.3,0.7-0.5,1.5-0.4,2.3v5.1h-2.3v-5.5c0-1.8-0.5-2.7-1.5-2.7c-0.6,0-1.1,0.2-1.4,0.7c-0.3,0.7-0.5,1.5-0.4,2.3v5.2h-2.3v-9.9
	H190.6z"/>
<path d="M213.2,50.6c0-1.4,0.5-2.7,1.6-3.7c1-1,2.4-1.5,3.8-1.5c1.4,0,2.8,0.5,3.8,1.5c2.1,2.1,2.1,5.4,0,7.5c-1,1-2.4,1.5-3.8,1.5
	c-1.4,0-2.8-0.5-3.8-1.5C213.7,53.5,213.2,52.1,213.2,50.6z M215.6,50.6c0,0.9,0.2,1.7,0.8,2.4c0.6,0.6,1.3,0.9,2.2,0.9
	c0.8,0,1.6-0.3,2.2-0.9c1.1-1.4,1.1-3.3,0-4.7c-0.6-0.6-1.4-0.9-2.2-0.9s-1.6,0.3-2.1,0.9C215.8,49,215.5,49.8,215.6,50.6
	L215.6,50.6z"/>
<path d="M226.3,45.7h2.3v0.9c0.7-0.8,1.7-1.2,2.7-1.2c1-0.1,2,0.3,2.7,1.1c0.6,0.9,0.9,1.9,0.8,3v6.2h-2.3v-5.6
	c0.1-0.7-0.1-1.4-0.4-2c-0.4-0.4-0.9-0.6-1.5-0.6c-0.6-0.1-1.3,0.2-1.6,0.8c-0.4,0.8-0.6,1.7-0.5,2.6v4.8h-2.3L226.3,45.7z"/>
<path d="M246.7,47.9v7.8h-2.3v-7.8h-0.8v-2.2h0.8v-3.9c-0.1-0.9,0.1-1.9,0.7-2.7c0.7-0.7,1.6-1.2,2.6-1.1c0.5,0,1.1,0.1,1.5,0.4v2.4
	l-0.2-0.1c-0.4-0.2-0.8-0.3-1.2-0.4c-0.3,0-0.7,0.1-0.8,0.4c-0.2,0.5-0.3,1.1-0.2,1.7v3.3h2.5v2.2C249.3,47.9,246.7,47.9,246.7,47.9
	z"/>
<path d="M250.6,41.6c0-0.8,0.7-1.5,1.5-1.5c0.4,0,0.8,0.2,1.1,0.4c0.3,0.3,0.5,0.7,0.4,1.1c0,0.8-0.7,1.5-1.5,1.5l0,0
	C251.3,43.1,250.6,42.4,250.6,41.6L250.6,41.6z M253.3,45.7v10H251v-10H253.3z"/>
<path d="M256.2,45.7h2.3v0.9c0.3-0.4,0.7-0.7,1.1-0.9s0.8-0.3,1.2-0.2c0.7,0,1.3,0.2,1.9,0.6l-1.1,2.1c-0.4-0.3-0.8-0.5-1.3-0.5
	c-1.3,0-1.9,1-1.9,2.8v5.2h-2.3L256.2,45.7L256.2,45.7z"/>
<path d="M273,51.3h-7.1c0,0.7,0.3,1.5,0.8,2c0.9,0.8,2.2,1,3.2,0.3c0.5-0.4,0.9-0.9,1.3-1.5l2,1.1c-0.3,0.5-0.6,0.9-1,1.3
	c-0.3,0.4-0.7,0.7-1.1,0.9s-0.8,0.4-1.2,0.5c-0.5,0.1-1,0.2-1.4,0.2c-1.3,0.1-2.7-0.5-3.6-1.4c-0.9-1.1-1.4-2.4-1.4-3.8
	c-0.1-1.4,0.4-2.8,1.3-3.8s2.2-1.5,3.5-1.4c1.3-0.1,2.6,0.4,3.5,1.4c0.9,1.1,1.4,2.5,1.3,3.9L273,51.3z M270.6,49.4
	c-0.2-1.1-1.2-1.9-2.3-1.8c-0.3,0-0.5,0-0.8,0.1c-0.2,0.1-0.5,0.2-0.7,0.4s-0.4,0.4-0.5,0.6c-0.2,0.2-0.3,0.5-0.3,0.8L270.6,49.4
	L270.6,49.4z"/>
<path d="M289.4,45.7h2.3v10h-2.3v-1.1c-1.7,1.8-4.5,1.8-6.3,0.1c-0.1-0.1-0.2-0.2-0.2-0.3c-0.9-1.1-1.4-2.4-1.4-3.8
	c-0.1-1.4,0.4-2.7,1.3-3.8c0.8-1,2.1-1.5,3.4-1.5c1.2,0,2.3,0.5,3.1,1.4L289.4,45.7z M283.9,50.7c0,0.8,0.2,1.7,0.8,2.3
	c0.5,0.6,1.2,0.9,2,0.9s1.5-0.3,2.1-0.9c1.1-1.4,1.1-3.3,0-4.6c-0.5-0.6-1.3-0.9-2-0.9c-0.8,0-1.5,0.3-2,0.9
	C284.1,49.1,283.8,49.9,283.9,50.7L283.9,50.7z"/>
<path d="M294.6,45.7h2.3v0.9c0.7-0.8,1.7-1.2,2.7-1.2c1-0.1,2,0.3,2.7,1.1c0.6,0.9,0.9,1.9,0.8,3v6.2h-2.3v-5.6
	c0.1-0.7-0.1-1.4-0.4-2c-0.4-0.4-0.9-0.6-1.5-0.6c-0.6-0.1-1.3,0.2-1.6,0.8c-0.4,0.8-0.6,1.7-0.5,2.6v4.8h-2.3L294.6,45.7z"/>
<path d="M313.5,38.4h2.3v17.3h-2.3v-1.1c-0.8,0.8-1.9,1.3-3.1,1.3c-1.3,0-2.6-0.5-3.4-1.5c-0.9-1.1-1.4-2.4-1.3-3.8
	c0-1.4,0.4-2.7,1.3-3.7c0.8-1,2.1-1.5,3.4-1.5c1.2,0,2.3,0.5,3.1,1.4V38.4z M308,50.7c0,0.8,0.2,1.7,0.8,2.3c0.5,0.6,1.2,0.9,2,0.9
	s1.5-0.3,2.1-0.9c1.1-1.4,1.1-3.3,0-4.6c-0.5-0.6-1.3-0.9-2-0.9c-0.8,0-1.5,0.3-2,0.9C308.3,49.1,308,49.9,308,50.7L308,50.7z"/>
<path d="M325.2,38.4h2.3v8.2c0.7-0.7,1.7-1.1,2.7-1.1s2,0.4,2.7,1.1c0.6,0.9,0.9,1.9,0.9,3v6.2h-2.3v-5.9c0.1-0.6-0.1-1.2-0.4-1.7
	c-0.3-0.4-0.9-0.6-1.4-0.5c-0.7-0.1-1.3,0.2-1.7,0.8c-0.4,0.8-0.6,1.7-0.5,2.6v4.8h-2.3L325.2,38.4z"/>
<path d="M344.1,45.7h2.3v10h-2.3v-1.1c-1.7,1.8-4.5,1.8-6.3,0.1c-0.1-0.1-0.2-0.2-0.2-0.3c-0.9-1.1-1.4-2.4-1.3-3.8
	c0-1.4,0.4-2.7,1.3-3.8c0.8-1,2.1-1.5,3.4-1.5c1.2,0,2.3,0.5,3.1,1.4V45.7z M338.6,50.7c0,0.8,0.2,1.7,0.8,2.3
	c0.5,0.6,1.2,0.9,2,0.9s1.5-0.3,2.1-0.9c1.1-1.4,1.1-3.3,0-4.6c-0.5-0.6-1.3-0.9-2.1-0.9c-0.8,0-1.5,0.3-2,0.9
	C338.8,49.1,338.6,49.9,338.6,50.7L338.6,50.7z"/>
<path d="M350.7,45.7l2.6,5.6l2.6-5.6h2.6l-5.2,10.7l-5.1-10.7H350.7z"/>
<path d="M368.8,51.3h-7.1c0,0.7,0.3,1.5,0.8,2c0.9,0.8,2.2,1,3.2,0.3c0.5-0.4,0.9-0.9,1.3-1.5l2,1c-0.3,0.5-0.6,0.9-1,1.3
	c-0.3,0.3-0.6,0.6-1,0.9c-0.4,0.2-0.8,0.4-1.2,0.5c-0.5,0.1-1,0.2-1.5,0.2c-1.3,0.1-2.7-0.5-3.6-1.4c-0.9-1.1-1.4-2.4-1.4-3.8
	c-0.1-1.4,0.4-2.8,1.3-3.8s2.2-1.5,3.5-1.4c1.3-0.1,2.6,0.4,3.5,1.4c0.9,1.1,1.4,2.5,1.3,3.9L368.8,51.3z M366.4,49.4
	c-0.2-1.1-1.2-1.9-2.3-1.8c-0.3,0-0.5,0-0.8,0.1c-0.2,0.1-0.5,0.2-0.7,0.4s-0.4,0.4-0.5,0.6c-0.1,0.2-0.3,0.5-0.3,0.8L366.4,49.4
	L366.4,49.4z"/>
<path d="M172.7,63.6h2.3v17.3h-2.3v-1c-0.8,0.8-1.9,1.3-3.1,1.3c-1.3,0-2.5-0.5-3.4-1.5c-0.9-1.1-1.4-2.5-1.3-3.9
	c0-1.4,0.4-2.7,1.4-3.7c0.8-1,2.1-1.5,3.4-1.5c1.2,0,2.3,0.5,3.1,1.4L172.7,63.6z M167.2,75.9c0,0.8,0.2,1.7,0.8,2.3
	c0.5,0.6,1.2,0.9,2,0.9s1.5-0.3,2.1-0.9c1.1-1.4,1.1-3.3,0-4.6c-1-1.1-2.8-1.2-3.9-0.1l-0.1,0.1C167.5,74.3,167.2,75.1,167.2,75.9
	L167.2,75.9z"/>
<path d="M185.3,70.9h2.3v10h-2.3v-1c-1.7,1.8-4.5,1.8-6.3,0.1c-0.1-0.1-0.2-0.2-0.2-0.3c-0.9-1.1-1.4-2.4-1.3-3.8
	c0-1.4,0.4-2.7,1.3-3.8c0.8-1,2.1-1.5,3.4-1.5c1.2,0,2.3,0.5,3.1,1.4V70.9z M179.8,75.9c0,0.8,0.2,1.7,0.8,2.3
	c0.5,0.6,1.2,0.9,2,0.9s1.5-0.3,2.1-0.9c1.1-1.4,1.1-3.3,0-4.6c-1-1.1-2.8-1.2-3.9-0.1l-0.1,0.1C180.1,74.3,179.8,75.1,179.8,75.9
	L179.8,75.9z"/>
<path d="M190.5,70.9h2.4v0.9c0.7-0.8,1.7-1.2,2.7-1.2c1-0.1,2,0.3,2.7,1.1c0.6,0.9,0.9,1.9,0.8,3v6.1h-2.3v-5.6
	c0.1-0.7-0.1-1.4-0.4-2c-0.4-0.4-0.9-0.6-1.5-0.6c-0.6-0.1-1.3,0.2-1.6,0.8c-0.4,0.8-0.5,1.7-0.5,2.6v4.8h-2.3L190.5,70.9z"/>
<path d="M211.7,80.7c0,0.5,0,0.9,0,1.2s-0.1,0.7-0.1,1c-0.2,0.7-0.5,1.4-1,1.9c-0.9,1.1-2.3,1.6-3.7,1.6c-1.2,0-2.4-0.3-3.3-1.1
	c-0.9-0.8-1.5-1.9-1.5-3.1h2.3c0.1,0.4,0.2,0.8,0.4,1.1c0.5,0.6,1.3,1,2.1,0.9c1.7,0,2.5-1,2.5-3.1v-1.4c-0.8,0.9-2,1.4-3.2,1.4
	c-1.3,0-2.5-0.5-3.3-1.5c-0.9-1-1.4-2.4-1.3-3.7c0-1.3,0.4-2.6,1.2-3.7s2.1-1.7,3.5-1.6c1.2,0,2.4,0.5,3.1,1.4v-1.2h2.3V80.7z
	 M209.5,75.9c0-0.8-0.2-1.7-0.8-2.3c-0.5-0.6-1.2-0.9-2-0.9s-1.6,0.3-2.1,1s-0.7,1.4-0.7,2.3c0,0.8,0.2,1.6,0.7,2.2
	c0.5,0.7,1.3,1,2.1,1s1.6-0.3,2.1-1C209.3,77.6,209.5,76.8,209.5,75.9L209.5,75.9z"/>
<path d="M223.7,76.5h-7.2c0,0.7,0.3,1.5,0.8,2s1.1,0.7,1.8,0.7c0.5,0,1-0.1,1.4-0.4c0.5-0.4,1-1,1.3-1.6l1.9,1.1
	c-0.3,0.5-0.6,0.9-0.9,1.3c-0.3,0.4-0.7,0.7-1.1,0.9c-0.4,0.2-0.8,0.4-1.2,0.5c-0.5,0.1-1,0.2-1.4,0.2c-1.3,0.1-2.7-0.5-3.6-1.4
	c-0.9-1-1.4-2.4-1.4-3.8c-0.1-1.4,0.4-2.8,1.3-3.8c0.9-1,2.2-1.5,3.5-1.4c1.3-0.1,2.6,0.4,3.5,1.4c0.9,1.1,1.4,2.5,1.3,3.9
	L223.7,76.5z M221.3,74.6c-0.2-1.1-1.2-1.9-2.3-1.8c-0.3,0-0.5,0-0.8,0.1c-0.2,0.1-0.5,0.2-0.7,0.4c-0.2,0.2-0.4,0.4-0.5,0.6
	c-0.2,0.2-0.3,0.5-0.3,0.8L221.3,74.6z"/>
<path d="M226.2,70.9h2.3v0.9c0.3-0.4,0.7-0.7,1.1-0.9c0.4-0.2,0.8-0.3,1.2-0.2c0.7,0,1.3,0.2,1.9,0.6l-1.1,2.1
	c-0.4-0.3-0.8-0.4-1.3-0.5c-1.3,0-1.9,1-1.9,2.8v5.2h-2.3v-10H226.2z"/>
<path d="M233.4,75.8c0-1.4,0.5-2.7,1.5-3.7c2.1-2,5.5-2,7.6,0c2.1,2.1,2.1,5.4,0,7.5c-1,1-2.4,1.5-3.8,1.5c-1.4,0-2.8-0.5-3.8-1.5
	C233.9,78.7,233.4,77.3,233.4,75.8z M235.8,75.8c0,0.9,0.2,1.7,0.8,2.4c0.6,0.6,1.3,0.9,2.2,0.9c0.8,0.1,1.6-0.2,2.1-0.8
	c1.1-1.4,1.1-3.3,0-4.7c-0.6-0.6-1.4-0.9-2.2-0.9s-1.6,0.3-2.1,0.9C236,74.3,235.7,75.1,235.8,75.8L235.8,75.8z"/>
<path d="M248.8,70.9v5.7c0,1.7,0.7,2.5,2,2.5s2-0.8,2-2.5v-5.7h2.3v5.8c0,0.7-0.1,1.4-0.3,2.1c-0.2,0.5-0.6,1-1,1.4
	c-1.7,1.4-4.2,1.4-5.9,0c-0.4-0.4-0.8-0.9-1-1.4c-0.2-0.7-0.3-1.4-0.3-2.1v-5.8H248.8z"/>
<path d="M263.7,72.6l-1.9,1c-0.3-0.6-0.7-0.9-1.1-0.9c-0.2,0-0.4,0.1-0.5,0.2s-0.2,0.3-0.2,0.5c0,0.4,0.4,0.8,1.3,1.1
	c0.9,0.3,1.7,0.8,2.5,1.5c0.4,0.5,0.7,1.1,0.6,1.8c0,0.9-0.4,1.8-1.1,2.4s-1.6,1-2.5,0.9c-1.6,0.1-3-0.9-3.6-2.4l2-0.9
	c0.2,0.3,0.4,0.6,0.6,0.9c0.3,0.3,0.6,0.4,1,0.4c0.8,0,1.2-0.4,1.2-1.1c0-0.4-0.3-0.8-0.9-1.2l-0.7-0.3l-0.7-0.3
	c-0.5-0.2-1-0.6-1.4-1c-0.4-0.5-0.5-1-0.5-1.6c0-0.8,0.3-1.6,0.9-2.2s1.4-0.9,2.2-0.8C262.2,70.6,263.3,71.4,263.7,72.6z"/>
<path d="M280.7,71.3v3.1c-0.4-0.5-0.9-1-1.4-1.3c-0.4-0.3-0.9-0.4-1.5-0.4c-0.8,0-1.6,0.3-2.2,0.9s-0.9,1.4-0.9,2.3
	c0,0.8,0.3,1.7,0.8,2.3c0.5,0.6,1.3,0.9,2.1,0.9c0.5,0,1-0.1,1.5-0.4c0.6-0.4,1-0.8,1.4-1.4v3c-0.9,0.5-1.8,0.7-2.8,0.7
	c-1.4,0-2.8-0.5-3.9-1.5c-1-1-1.6-2.3-1.6-3.7c0-1.4,0.5-2.8,1.6-3.8c1-1,2.4-1.6,3.9-1.5C278.9,70.6,279.9,70.8,280.7,71.3z"/>
<path d="M290.3,70.9h2.3v10h-2.3v-1c-1.7,1.8-4.5,1.8-6.3,0.1c-0.1-0.1-0.2-0.2-0.2-0.3c-0.9-1.1-1.4-2.4-1.3-3.8
	c-0.1-1.4,0.4-2.8,1.4-3.8c0.8-1,2.1-1.5,3.4-1.5c1.2,0,2.3,0.5,3.1,1.4L290.3,70.9z M284.8,75.9c0,0.8,0.2,1.7,0.8,2.3
	c0.5,0.6,1.2,0.9,2,0.9s1.5-0.3,2.1-0.9c1.1-1.4,1.1-3.3,0-4.6c-0.5-0.6-1.3-0.9-2-0.9c-0.8,0-1.5,0.3-2,0.9
	C285.1,74.3,284.8,75.1,284.8,75.9L284.8,75.9z"/>
<path d="M295.5,70.9h2.3v0.9c0.3-0.4,0.7-0.7,1.1-0.9c0.4-0.2,0.8-0.3,1.2-0.2c0.7,0,1.3,0.2,1.9,0.6l-1,2.1
	c-0.4-0.3-0.8-0.4-1.3-0.5c-1.3,0-1.9,0.9-1.9,2.8v5.2h-2.3L295.5,70.9z"/>
<path d="M313.1,80.7c0,0.5,0,0.9,0,1.2s-0.1,0.7-0.1,1c-0.2,0.7-0.5,1.4-1,1.9c-0.9,1.1-2.3,1.6-3.7,1.6c-1.2,0-2.4-0.3-3.3-1.1
	c-0.9-0.8-1.5-1.9-1.5-3.1h2.3c0.1,0.4,0.2,0.8,0.4,1.1c0.5,0.6,1.3,1,2.1,0.9c1.7,0,2.5-1,2.5-3.1v-1.4c-0.8,0.9-2,1.4-3.2,1.4
	c-1.3,0-2.5-0.5-3.3-1.5c-0.9-1-1.4-2.4-1.3-3.7c0-1.3,0.4-2.6,1.3-3.7c0.8-1.1,2.1-1.7,3.5-1.6c1.2,0,2.4,0.5,3.1,1.4v-1.2h2.3
	L313.1,80.7L313.1,80.7z M310.9,75.9c0-0.8-0.2-1.7-0.8-2.3c-0.5-0.6-1.2-0.9-2-0.9s-1.6,0.3-2.1,1s-0.7,1.4-0.7,2.3
	c0,0.8,0.2,1.6,0.7,2.2c0.5,0.7,1.3,1,2.1,1c0.8,0,1.6-0.3,2.1-1C310.7,77.6,310.9,76.8,310.9,75.9z"/>
<path d="M315.5,75.8c0-1.4,0.5-2.7,1.5-3.7c2.1-2,5.5-2,7.6,0c2.1,2.1,2.1,5.4,0,7.5c-1,1-2.4,1.5-3.8,1.5s-2.8-0.5-3.8-1.5
	C316,78.7,315.5,77.3,315.5,75.8z M317.9,75.8c0,0.9,0.2,1.7,0.8,2.4c0.6,0.6,1.4,0.9,2.2,0.9c0.8,0,1.6-0.3,2.2-0.9
	c1.1-1.4,1.1-3.3,0-4.7c-1.2-1.2-3.1-1.2-4.3,0C318.1,74.2,317.8,75,317.9,75.8L317.9,75.8z"/>
<path d="M330,78l2.1,0.8l-2.9,5.8l-1.6-0.7L330,78z M329.5,72.1c0-0.4,0.1-0.7,0.4-1s0.6-0.4,1-0.4c0.8,0,1.4,0.6,1.4,1.4
	c0,0.4-0.2,0.7-0.4,1c-0.3,0.3-0.6,0.4-1,0.4s-0.7-0.2-1-0.4C329.6,72.8,329.5,72.4,329.5,72.1z"/>
<path d="M167.6,88.8v10.5l3.2-3.2h3.1l-4.3,4.2l4.7,5.8h-3l-3.3-4.2l-0.4,0.4v3.8h-2.3V88.8H167.6z"/>
<path d="M184.5,101.7h-7.1c0,0.7,0.3,1.5,0.8,2s1.1,0.7,1.8,0.7c0.5,0,1-0.1,1.4-0.4c0.5-0.4,0.9-0.9,1.3-1.5l1.9,1.1
	c-0.3,0.5-0.6,0.9-0.9,1.3c-0.3,0.4-0.7,0.7-1.1,0.9c-0.4,0.2-0.8,0.4-1.2,0.5c-0.5,0.1-1,0.2-1.4,0.2c-1.3,0.1-2.7-0.5-3.6-1.4
	c-0.9-1.1-1.4-2.4-1.4-3.8c-0.1-1.4,0.4-2.8,1.3-3.8c0.9-1,2.2-1.5,3.5-1.4c1.3-0.1,2.6,0.4,3.5,1.4c0.9,1.1,1.4,2.5,1.3,3.9
	L184.5,101.7z M182.2,99.8c-0.2-1.1-1.2-1.9-2.3-1.8c-0.3,0-0.5,0-0.8,0.1c-0.2,0.1-0.5,0.2-0.7,0.4c-0.2,0.2-0.4,0.4-0.5,0.6
	c-0.2,0.2-0.3,0.5-0.3,0.8L182.2,99.8L182.2,99.8z"/>
<path d="M196.2,101.7H189c0,0.7,0.3,1.5,0.8,2s1.1,0.7,1.8,0.7c0.5,0,1-0.1,1.4-0.4c0.5-0.4,0.9-0.9,1.3-1.5l1.9,1.1
	c-0.3,0.5-0.6,0.9-0.9,1.3c-0.3,0.3-0.7,0.7-1.1,0.9c-0.4,0.2-0.8,0.4-1.2,0.5c-0.5,0.1-1,0.2-1.4,0.2c-1.3,0.1-2.7-0.5-3.6-1.4
	c-0.9-1-1.4-2.4-1.4-3.8c-0.1-1.4,0.4-2.8,1.3-3.9c1.9-1.9,5.1-1.9,7,0c0.9,1.1,1.4,2.5,1.3,3.9L196.2,101.7z M193.8,99.8
	c-0.2-1.1-1.2-1.9-2.3-1.8c-0.3,0-0.5,0-0.8,0.1c-0.2,0.1-0.5,0.2-0.7,0.4c-0.2,0.2-0.4,0.4-0.5,0.6s-0.3,0.5-0.3,0.8L193.8,99.8
	L193.8,99.8z"/>
<path d="M201,111.5h-2.3V96.1h2.3v1.1c0.8-0.9,1.9-1.4,3.1-1.4c1.3,0,2.6,0.5,3.4,1.5c0.9,1.1,1.4,2.4,1.4,3.8s-0.4,2.7-1.3,3.7
	c-1.6,1.8-4.4,2-6.2,0.4c-0.1-0.1-0.2-0.2-0.3-0.3L201,111.5L201,111.5z M206.5,101.2c0-0.8-0.2-1.7-0.8-2.3c-0.5-0.6-1.2-0.9-2-0.9
	s-1.5,0.3-2.1,0.9c-0.5,0.6-0.8,1.5-0.8,2.3s0.2,1.7,0.8,2.3c0.5,0.6,1.3,0.9,2.1,0.9s1.5-0.3,2-0.9
	C206.2,102.8,206.5,102,206.5,101.2L206.5,101.2z"/>
<path d="M225.5,96.6v3.1c-0.4-0.5-0.9-1-1.4-1.3c-0.4-0.3-0.9-0.4-1.4-0.4c-0.8,0-1.6,0.3-2.2,0.9c-0.6,0.6-0.9,1.4-0.9,2.3
	c0,0.8,0.3,1.7,0.8,2.3c0.5,0.6,1.3,0.9,2.1,0.9c0.5,0,1-0.1,1.5-0.4c0.6-0.4,1-0.8,1.4-1.4v3c-0.9,0.5-1.8,0.7-2.8,0.7
	c-1.4,0-2.8-0.5-3.9-1.5c-1-1-1.6-2.3-1.6-3.7c0-1.4,0.5-2.8,1.6-3.8c1-1,2.4-1.6,3.9-1.5C223.7,95.8,224.7,96.1,225.5,96.6z"/>
<path d="M230.1,88.8v17.3h-2.3V88.8H230.1z"/>
<path d="M242.1,101.7h-7.2c0,0.7,0.3,1.5,0.8,2s1.1,0.7,1.8,0.7c0.5,0,1-0.1,1.4-0.4c0.5-0.4,0.9-0.9,1.3-1.5l2,1.1
	c-0.3,0.5-0.6,0.9-1,1.3c-0.3,0.3-0.7,0.7-1.1,0.9c-0.4,0.2-0.8,0.4-1.2,0.5c-0.5,0.1-1,0.2-1.5,0.2c-1.3,0.1-2.7-0.5-3.6-1.4
	c-0.9-1.1-1.4-2.4-1.4-3.8c-0.1-1.4,0.4-2.8,1.4-3.9c0.9-1,2.2-1.5,3.5-1.4c1.3-0.1,2.6,0.4,3.5,1.4c0.9,1.1,1.4,2.5,1.3,3.9V101.7z
	 M239.7,99.8c-0.2-1.1-1.2-1.9-2.3-1.8c-0.3,0-0.5,0-0.8,0.1c-0.2,0.1-0.5,0.2-0.7,0.4c-0.2,0.2-0.4,0.4-0.5,0.6s-0.3,0.5-0.3,0.8
	L239.7,99.8L239.7,99.8z"/>
<path d="M252,96.1h2.3v10H252v-1c-1.7,1.8-4.5,1.8-6.3,0.1c-0.1-0.1-0.2-0.2-0.2-0.3c-0.9-1.1-1.4-2.4-1.3-3.8
	c0-1.4,0.4-2.7,1.3-3.8c0.8-1,2.1-1.5,3.4-1.5c1.2,0,2.3,0.5,3.1,1.4V96.1z M246.5,101.1c0,0.8,0.2,1.7,0.8,2.3
	c0.5,0.6,1.2,0.9,2,0.9s1.6-0.3,2.1-0.9c1.1-1.4,1.1-3.3,0-4.6c-0.5-0.6-1.3-0.9-2.1-0.9s-1.5,0.3-2,0.9
	C246.7,99.5,246.5,100.3,246.5,101.1L246.5,101.1z"/>
<path d="M257.2,96.1h2.3V97c0.3-0.4,0.7-0.7,1.1-0.9c0.4-0.2,0.8-0.3,1.2-0.2c0.7,0,1.3,0.2,1.9,0.6l-1,2.1
	c-0.4-0.3-0.8-0.4-1.3-0.5c-1.3,0-1.9,1-1.9,2.8v5.2h-2.3L257.2,96.1L257.2,96.1z"/>
</svg>
