<?xml version="1.0" encoding="utf-8"?>
<!-- Generator: Adobe Illustrator 24.0.1, SVG Export Plug-In . SVG Version: 6.00 Build 0)  -->
<svg version="1.1" id="Layer_1" xmlns="http://www.w3.org/2000/svg" xmlns:xlink="http://www.w3.org/1999/xlink" x="0px" y="0px"
	 viewBox="0 0 324.1 147.8" style="enable-background:new 0 0 324.1 147.8;" xml:space="preserve">
<style type="text/css">
	.st0{fill:#000094;}
	.st1{fill:#FFCC00;}
	.st2{fill:none;stroke:#000000;stroke-width:3.75;stroke-linejoin:round;}
</style>
<title>Kilo</title>
<rect x="1.9" y="1.9" class="st0" width="144" height="144"/>
<rect x="1.9" y="1.9" class="st1" width="72" height="144"/>
<path class="st2" d="M1.9,1.9h144v144H1.9V1.9z"/>
<path d="M166.2,39.6v15.8h-2.4V39.6H166.2z"/>
<path d="M177.3,45.4l2.6,5.7l2.8-6.6l2.8,6.6l2.6-5.7h2.6l-5.2,10.7l-2.8-6.4l-2.8,6.4l-5.2-10.7H177.3z"/>
<path d="M191.9,41.2c0-0.8,0.7-1.5,1.6-1.4c0.4,0,0.7,0.2,1,0.4c0.3,0.3,0.4,0.7,0.4,1.1c0,0.4-0.2,0.8-0.4,1.1
	c-0.3,0.3-0.7,0.4-1.1,0.4c-0.4,0-0.8-0.2-1.1-0.4C192.1,42.1,191.9,41.7,191.9,41.2z M194.6,45.4v10h-2.3v-10H194.6z"/>
<path d="M203.3,47.1l-1.9,1c-0.3-0.6-0.7-0.9-1.1-0.9c-0.2,0-0.4,0.1-0.5,0.2c-0.2,0.1-0.2,0.3-0.2,0.5c0,0.4,0.4,0.8,1.3,1.1
	c0.9,0.3,1.7,0.8,2.5,1.5c0.4,0.5,0.7,1.1,0.6,1.8c0,0.9-0.4,1.8-1.1,2.4c-1.6,1.4-4,1.2-5.4-0.4c-0.3-0.3-0.5-0.7-0.7-1.1l2-0.9
	c0.2,0.3,0.4,0.6,0.6,0.9c0.3,0.3,0.6,0.4,1,0.4c0.8,0,1.2-0.4,1.2-1.1c0-0.4-0.3-0.8-0.9-1.2L200,51l-0.7-0.3c-0.5-0.2-1-0.6-1.4-1
	c-0.4-0.5-0.5-1-0.5-1.6c0-0.8,0.3-1.6,0.9-2.2c0.6-0.6,1.4-0.9,2.2-0.8C201.8,45.1,202.9,45.9,203.3,47.1z"/>
<path d="M206,38.1h2.3v8.2c0.7-0.7,1.7-1.1,2.7-1.1s2,0.3,2.7,1.1c0.7,0.9,1,2,0.9,3.1v6.1h-2.3v-5.9c0.1-0.6-0.1-1.2-0.4-1.7
	c-0.3-0.4-0.9-0.6-1.4-0.5c-0.7-0.1-1.3,0.2-1.7,0.8c-0.4,0.8-0.6,1.7-0.5,2.6v4.8H206V38.1z"/>
<path d="M165.7,72.8v7.8h-2.3v-7.8h-1v-2.2h1V67h2.3v3.7h1.8v2.2L165.7,72.8z"/>
<path d="M168.8,75.5c0-1.4,0.5-2.7,1.6-3.7c2.1-2,5.5-2,7.6,0c2,2.1,2,5.4,0,7.5c-1,1-2.4,1.5-3.8,1.5c-1.4,0-2.8-0.5-3.8-1.5
	C169.3,78.3,168.7,76.9,168.8,75.5z M171.1,75.5c0,0.9,0.2,1.7,0.8,2.4c1.2,1.2,3.1,1.2,4.3,0c1.1-1.4,1.1-3.3,0-4.7
	c-0.6-0.6-1.4-0.9-2.2-0.9s-1.6,0.3-2.1,0.9C171.4,73.9,171.1,74.7,171.1,75.5L171.1,75.5z"/>
<path d="M196.1,71v3.1c-0.4-0.5-0.9-1-1.4-1.3c-0.4-0.3-0.9-0.4-1.4-0.4c-0.8,0-1.6,0.3-2.2,0.9c-0.6,0.6-0.9,1.4-0.9,2.3
	c0,0.8,0.3,1.7,0.8,2.3c0.5,0.6,1.3,0.9,2.1,0.9c0.5,0,1-0.1,1.5-0.4c0.6-0.4,1-0.8,1.4-1.4v3c-0.9,0.5-1.8,0.7-2.8,0.7
	c-1.4,0-2.8-0.5-3.9-1.5c-1-1-1.5-2.3-1.5-3.7c0-1.4,0.5-2.8,1.6-3.8c1-1,2.4-1.6,3.9-1.5C194.3,70.3,195.3,70.5,196.1,71z"/>
<path d="M197.9,75.5c0-1.4,0.5-2.7,1.6-3.7c2.1-2,5.5-2,7.6,0c2,2.1,2,5.4,0,7.5c-1,1-2.4,1.5-3.8,1.5c-1.4,0-2.8-0.5-3.8-1.5
	C198.4,78.3,197.9,76.9,197.9,75.5z M200.3,75.5c0,0.9,0.2,1.7,0.8,2.4c0.6,0.6,1.3,0.9,2.2,0.9c0.8,0,1.6-0.3,2.2-0.9
	c1.1-1.4,1.1-3.3,0-4.7c-0.6-0.6-1.4-0.9-2.2-0.9s-1.6,0.3-2.1,0.9C200.5,73.9,200.2,74.7,200.3,75.5L200.3,75.5z"/>
<path d="M211,70.6h2.3v0.9c0.3-0.4,0.7-0.7,1.1-1c0.4-0.2,0.8-0.3,1.3-0.2c1.1,0,2.1,0.5,2.7,1.5c0.7-1,1.8-1.5,2.9-1.5
	c2.3,0,3.4,1.4,3.4,4.1v6.2h-2.3V75c0-0.7-0.1-1.4-0.4-2c-0.2-0.4-0.7-0.6-1.2-0.6c-0.6,0-1.1,0.2-1.4,0.7c-0.3,0.7-0.5,1.5-0.4,2.3
	v5.1h-2.3V75c0-1.8-0.5-2.7-1.5-2.7c-0.6,0-1.1,0.2-1.4,0.7c-0.3,0.7-0.5,1.5-0.4,2.3v5.2H211V70.6z"/>
<path d="M227.6,70.6h2.3v0.9c0.3-0.4,0.7-0.7,1.1-1c0.4-0.2,0.8-0.3,1.3-0.2c1.1,0,2.1,0.5,2.7,1.5c0.7-0.9,1.8-1.5,2.9-1.4
	c2.3,0,3.4,1.4,3.4,4.1v6.2H239V75c0-0.7-0.1-1.4-0.4-2c-0.2-0.4-0.7-0.6-1.2-0.6c-0.6,0-1.1,0.2-1.4,0.7c-0.3,0.7-0.5,1.5-0.4,2.3
	v5.1h-2.3V75c0-1.8-0.5-2.7-1.5-2.7c-0.6,0-1.1,0.2-1.4,0.7c-0.3,0.7-0.5,1.5-0.5,2.3v5.2h-2.3L227.6,70.6z"/>
<path d="M246.5,70.6v5.7c0,1.7,0.6,2.5,2,2.5c1.3,0,2-0.8,2-2.5v-5.7h2.3v5.8c0,0.7-0.1,1.4-0.3,2.1c-0.2,0.5-0.6,1-1,1.4
	c-1.7,1.4-4.2,1.4-5.9,0c-0.4-0.4-0.8-0.9-1-1.4c-0.2-0.7-0.3-1.4-0.3-2.1v-5.8H246.5z"/>
<path d="M255.7,70.6h2.3v0.9c0.7-0.8,1.7-1.2,2.7-1.2c1-0.1,2,0.3,2.7,1.1c0.6,0.9,0.9,1.9,0.8,3v6.2h-2.3V75c0.1-0.7-0.1-1.4-0.4-2
	c-0.4-0.4-0.9-0.6-1.5-0.6c-0.6-0.1-1.3,0.2-1.6,0.8c-0.4,0.8-0.5,1.7-0.5,2.6v4.8h-2.3L255.7,70.6z"/>
<path d="M266.8,66.4c0-0.4,0.2-0.7,0.4-1c0.6-0.6,1.5-0.6,2.1,0c0.3,0.3,0.5,0.7,0.4,1.1c0,0.8-0.7,1.5-1.5,1.5
	C267.5,68,266.8,67.3,266.8,66.4C266.8,66.5,266.8,66.5,266.8,66.4L266.8,66.4z M269.5,70.6v10h-2.3v-10H269.5z"/>
<path d="M280.2,71v3.1c-0.4-0.5-0.9-1-1.4-1.3c-0.4-0.3-0.9-0.4-1.4-0.4c-0.8,0-1.6,0.3-2.2,0.9s-0.9,1.4-0.9,2.3
	c0,0.8,0.3,1.7,0.8,2.3c0.5,0.6,1.3,0.9,2.1,0.9c0.5,0,1-0.1,1.5-0.4c0.6-0.4,1-0.8,1.5-1.4v3c-0.9,0.5-1.8,0.7-2.8,0.7
	c-1.4,0-2.8-0.5-3.9-1.5c-1-0.9-1.6-2.3-1.6-3.7c0-1.4,0.5-2.8,1.6-3.8c1-1,2.4-1.6,3.9-1.5C278.3,70.3,279.3,70.5,280.2,71z"/>
<path d="M289.8,70.6h2.3v10h-2.3v-1c-1.7,1.8-4.5,1.8-6.3,0.1c-0.1-0.1-0.2-0.2-0.2-0.3c-0.9-1.1-1.4-2.5-1.4-3.9s0.4-2.7,1.4-3.8
	c0.8-1,2.1-1.5,3.4-1.5c1.2,0,2.3,0.5,3.1,1.4V70.6z M284.3,75.6c0,0.8,0.2,1.7,0.8,2.3c0.5,0.6,1.2,0.9,2,0.9s1.5-0.3,2.1-0.9
	c1.1-1.4,1.1-3.3,0-4.6c-0.5-0.6-1.2-0.9-2-0.9s-1.5,0.3-2,0.9C284.6,74,284.3,74.7,284.3,75.6L284.3,75.6z"/>
<path d="M297.4,72.8v7.8h-2.3v-7.8h-1v-2.2h1V67h2.3v3.7h1.8v2.2L297.4,72.8z"/>
<path d="M310,76.1h-7.1c0,0.7,0.3,1.5,0.8,2s1.1,0.7,1.8,0.7c0.5,0,1-0.1,1.4-0.4c0.5-0.4,0.9-0.9,1.3-1.5l1.9,1.1
	c-0.3,0.5-0.6,0.9-1,1.3c-0.3,0.3-0.7,0.7-1.1,0.9c-0.4,0.2-0.8,0.4-1.2,0.5c-0.5,0.1-1,0.2-1.5,0.2c-1.3,0.1-2.7-0.5-3.6-1.4
	c-0.9-1.1-1.4-2.4-1.4-3.8c-0.1-1.4,0.4-2.8,1.3-3.8s2.2-1.5,3.5-1.4c1.3-0.1,2.6,0.4,3.5,1.4c0.9,1.1,1.4,2.5,1.3,3.9L310,76.1z
	 M307.7,74.2c-0.2-1.1-1.2-1.9-2.3-1.8c-0.3,0-0.5,0-0.8,0.1c-0.2,0.1-0.5,0.2-0.7,0.4c-0.2,0.2-0.4,0.4-0.5,0.6s-0.3,0.5-0.3,0.8
	L307.7,74.2z"/>
<path d="M164.6,95.8l2.6,5.7l2.8-6.6l2.8,6.6l2.6-5.7h2.6l-5.2,10.7l-2.8-6.4l-2.8,6.4L162,95.8H164.6z"/>
<path d="M179.3,91.7c0-0.8,0.7-1.5,1.6-1.4c0.4,0,0.7,0.2,1,0.4c0.3,0.3,0.5,0.7,0.4,1.1c0,0.4-0.2,0.8-0.4,1.1
	c-0.3,0.3-0.6,0.4-1,0.4s-0.8-0.2-1.1-0.4C179.4,92.5,179.3,92.1,179.3,91.7z M181.9,95.8v10h-2.3v-10H181.9z"/>
<path d="M187.2,98v7.8h-2.3V98h-1v-2.2h1v-3.7h2.3v3.7h1.8V98H187.2z"/>
<path d="M191,88.5h2.3v8.2c0.7-0.7,1.7-1.1,2.7-1.1s2,0.3,2.7,1.1c0.7,0.9,1,2,0.9,3.1v6.1h-2.3V100c0-0.6-0.1-1.2-0.4-1.7
	c-0.3-0.4-0.9-0.6-1.4-0.5c-0.7-0.1-1.3,0.2-1.7,0.8c-0.4,0.8-0.6,1.7-0.5,2.6v4.8H191V88.5z"/>
<path d="M212.2,103.9l-4.5-8.1h2.7l3.1,5.7l2.9-5.7h2.6l-8,15.4h-2.6L212.2,103.9z"/>
<path d="M219.6,100.7c0-1.4,0.5-2.7,1.6-3.7c2.1-2,5.4-2,7.6,0c2.1,2.1,2.1,5.4,0,7.5c-1,1-2.4,1.5-3.8,1.5c-2.9,0-5.2-2.3-5.3-5.1
	C219.6,100.9,219.6,100.8,219.6,100.7L219.6,100.7z M221.9,100.7c0,0.9,0.2,1.7,0.8,2.4c0.6,0.6,1.4,0.9,2.2,0.9s1.6-0.3,2.2-0.9
	c1.1-1.4,1.1-3.3,0-4.7c-0.6-0.6-1.3-0.9-2.2-0.9c-0.8,0-1.6,0.3-2.1,0.9C222.2,99.1,221.9,99.9,221.9,100.7L221.9,100.7z"/>
<path d="M234.9,95.8v5.7c0,1.7,0.6,2.5,2,2.5s2-0.8,2-2.5v-5.7h2.3v5.8c0,0.7-0.1,1.4-0.3,2.1c-0.2,0.5-0.6,1-1,1.4
	c-1.7,1.4-4.2,1.4-5.9,0c-0.4-0.4-0.8-0.9-1-1.4c-0.2-0.7-0.3-1.4-0.3-2.1v-5.8H234.9z"/>
</svg>
