<?xml version="1.0" encoding="utf-8"?>
<!-- Generator: Adobe Illustrator 24.0.1, SVG Export Plug-In . SVG Version: 6.00 Build 0)  -->
<svg version="1.1" id="Layer_1" xmlns="http://www.w3.org/2000/svg" xmlns:xlink="http://www.w3.org/1999/xlink" x="0px" y="0px"
	 viewBox="0 0 337.8 148" style="enable-background:new 0 0 337.8 148;" xml:space="preserve">
<style type="text/css">
	.st0{fill:#FFCC00;}
</style>
<title>Lima</title>
<path d="M2,0h144c1.1,0,2,0.9,2,2v144c0,1.1-0.9,2-2,2H2c-1.1,0-2-0.9-2-2V2C0,0.9,0.9,0,2,0z"/>
<path class="st0" d="M4,4h70v140h70V74H4"/>
<path d="M169.3,47.9l-5.2-9h2.8l3.6,6.3l3.6-6.3h2.7l-5.2,9v6.8h-2.4L169.3,47.9L169.3,47.9z"/>
<path d="M176.3,49.7c0-1.4,0.5-2.7,1.6-3.7c1-1,2.4-1.5,3.8-1.5c1.4,0,2.8,0.5,3.8,1.5c2.1,2.1,2.1,5.4,0,7.5c-1,1-2.4,1.5-3.8,1.5
	c-1.4,0-2.8-0.5-3.8-1.5C176.8,52.5,176.3,51.1,176.3,49.7z M178.7,49.7c0,0.9,0.2,1.7,0.8,2.4c0.6,0.6,1.3,0.9,2.2,0.9
	c0.8,0,1.6-0.3,2.2-0.9c1.1-1.4,1.1-3.3,0-4.7c-0.6-0.6-1.4-0.9-2.2-0.9s-1.6,0.3-2.1,0.9C179,48.1,178.7,48.9,178.7,49.7z"/>
<path d="M191.7,44.8v5.7c0,1.7,0.6,2.5,2,2.5s2-0.8,2-2.5v-5.7h2.3v5.8c0,0.7-0.1,1.4-0.3,2.1c-0.2,0.5-0.6,1-1,1.4
	c-1.7,1.4-4.2,1.4-5.9,0c-0.4-0.4-0.8-0.9-1-1.4c-0.2-0.7-0.3-1.4-0.3-2.1v-5.8H191.7z"/>
<path d="M213.2,46.5l-1.9,1c-0.3-0.6-0.7-0.9-1.1-0.9c-0.2,0-0.4,0.1-0.6,0.2c-0.1,0.1-0.2,0.3-0.2,0.5c0,0.4,0.4,0.8,1.3,1.1
	c0.9,0.3,1.7,0.8,2.5,1.5c0.4,0.5,0.7,1.1,0.6,1.8c0,0.9-0.4,1.8-1.1,2.4c-1.6,1.4-4,1.2-5.4-0.4c-0.3-0.3-0.5-0.7-0.7-1.2l2-0.9
	c0.2,0.3,0.4,0.6,0.6,0.9c0.3,0.3,0.6,0.4,1,0.4c0.8,0,1.2-0.4,1.2-1.1c0-0.4-0.3-0.8-0.9-1.2l-0.7-0.3l-0.7-0.3
	c-0.5-0.2-1-0.6-1.4-1c-0.4-0.5-0.5-1-0.5-1.6c0-0.8,0.3-1.6,0.9-2.2c0.6-0.6,1.4-0.9,2.2-0.8C211.6,44.4,212.8,45.2,213.2,46.5z"/>
<path d="M215.9,37.4h2.3v8.1c0.7-0.7,1.7-1.1,2.7-1.1s2,0.4,2.7,1.1c0.6,0.9,0.9,1.9,0.9,3v6.2h-2.3v-5.9c0-0.6-0.1-1.2-0.4-1.7
	c-0.3-0.4-0.9-0.6-1.4-0.5c-0.7-0.1-1.3,0.2-1.7,0.8c-0.4,0.8-0.6,1.7-0.5,2.6v4.8h-2.3V37.4z"/>
<path d="M226.9,49.7c0-1.4,0.5-2.7,1.5-3.7c2.1-2,5.5-2,7.6,0c2.1,2.1,2.1,5.4,0,7.5c-1,1-2.4,1.6-3.9,1.5c-1.4,0-2.7-0.5-3.7-1.5
	C227.4,52.5,226.9,51.1,226.9,49.7z M229.3,49.7c0,0.9,0.2,1.7,0.8,2.4c0.6,0.6,1.4,0.9,2.2,0.9s1.6-0.3,2.2-0.9
	c1.1-1.4,1.1-3.3,0-4.7c-1.2-1.2-3.1-1.2-4.3,0C229.5,48.1,229.3,48.9,229.3,49.7L229.3,49.7z"/>
<path d="M242.3,44.8v5.7c0,1.7,0.7,2.5,2,2.5s2-0.8,2-2.5v-5.7h2.3v5.8c0,0.7-0.1,1.4-0.3,2.1c-0.2,0.5-0.6,1-1,1.4
	c-1.7,1.4-4.2,1.4-5.9,0c-0.4-0.4-0.8-0.9-1-1.4c-0.2-0.7-0.3-1.4-0.3-2.1v-5.8H242.3z"/>
<path d="M253.8,37.4v17.3h-2.3V37.4H253.8z"/>
<path d="M264.1,37.4h2.3v17.3h-2.3v-1c-0.8,0.8-1.9,1.3-3.1,1.3c-1.3,0-2.6-0.5-3.4-1.5c-0.9-1.1-1.4-2.4-1.4-3.9
	c0-1.4,0.4-2.7,1.3-3.7c0.8-1,2.1-1.5,3.4-1.5c1.2,0,2.3,0.5,3.1,1.4L264.1,37.4z M258.6,49.7c0,0.8,0.2,1.7,0.8,2.3
	c0.5,0.6,1.2,0.9,2,0.9s1.5-0.3,2.1-0.9c1.1-1.4,1.1-3.3,0-4.6c-0.5-0.6-1.3-0.9-2-0.9c-0.8,0-1.5,0.3-2,0.9
	C258.8,48.1,258.6,48.9,258.6,49.7z"/>
<path d="M281.6,46.5l-1.9,1c-0.3-0.6-0.7-0.9-1.1-0.9c-0.2,0-0.4,0.1-0.5,0.2c-0.2,0.1-0.2,0.3-0.2,0.5c0,0.4,0.5,0.8,1.3,1.1
	c0.9,0.3,1.7,0.8,2.5,1.5c0.4,0.5,0.7,1.1,0.6,1.8c0,0.9-0.3,1.8-1,2.4c-1.6,1.4-4,1.2-5.4-0.4c-0.3-0.3-0.5-0.7-0.7-1.2l2-0.9
	c0.2,0.3,0.4,0.6,0.6,0.9c0.3,0.3,0.6,0.4,1,0.4c0.8,0,1.2-0.4,1.2-1.1c0-0.4-0.3-0.8-0.9-1.2l-0.7-0.3l-0.7-0.3
	c-0.5-0.2-1-0.6-1.4-1c-0.4-0.5-0.5-1-0.5-1.6c0-0.8,0.3-1.6,0.9-2.2c0.6-0.6,1.4-0.9,2.2-0.8C280,44.4,281.2,45.3,281.6,46.5z"/>
<path d="M286.7,46.9v7.8h-2.3v-7.8h-1v-2.2h1V41h2.3v3.7h1.8v2.2H286.7z"/>
<path d="M289.7,49.7c0-1.4,0.5-2.7,1.5-3.7s2.4-1.5,3.8-1.5s2.8,0.5,3.8,1.5c2.1,2.1,2.1,5.4,0,7.5c-1,1-2.4,1.5-3.8,1.5
	c-1.4,0.1-2.8-0.5-3.8-1.5S289.6,51.1,289.7,49.7z M292.1,49.7c0,0.9,0.2,1.7,0.8,2.4c1.2,1.2,3.1,1.2,4.3,0c1.1-1.4,1.1-3.3,0-4.7
	c-0.6-0.6-1.3-0.9-2.2-0.9c-0.8,0-1.6,0.3-2.1,0.9C292.3,48.1,292,48.9,292.1,49.7L292.1,49.7z"/>
<path d="M305.1,60.2h-2.3V44.8h2.3v1.1c0.8-0.9,1.9-1.4,3.1-1.4c1.3,0,2.5,0.5,3.4,1.5c0.9,1.1,1.4,2.4,1.4,3.8
	c0,1.4-0.4,2.7-1.3,3.7c-1.6,1.8-4.4,2-6.2,0.4c-0.1-0.1-0.2-0.2-0.3-0.3v6.6H305.1z M310.6,49.8c0-0.8-0.2-1.7-0.8-2.3
	c-0.5-0.6-1.2-0.9-2-0.9s-1.5,0.3-2.1,0.9c-0.5,0.6-0.8,1.5-0.8,2.3s0.2,1.7,0.8,2.3c0.5,0.6,1.3,0.9,2,0.9c0.8,0,1.5-0.3,2-0.9
	C310.3,51.4,310.6,50.6,310.6,49.8z"/>
<path d="M168.8,78.1l-4.5-8.1h2.7l3.1,5.8L173,70h2.6l-8,15.4H165L168.8,78.1z"/>
<path d="M176.2,74.9c0-1.4,0.5-2.7,1.6-3.7c1-1,2.4-1.5,3.8-1.5c1.4,0,2.8,0.5,3.8,1.5c2.1,2.1,2.1,5.4,0,7.5c-1,1-2.4,1.5-3.8,1.5
	c-2.9,0-5.2-2.3-5.3-5.1C176.2,75,176.2,74.9,176.2,74.9L176.2,74.9z M178.5,74.9c0,0.9,0.2,1.7,0.8,2.4c1.2,1.2,3.1,1.2,4.3,0
	c1.1-1.4,1.1-3.3,0-4.7c-0.6-0.6-1.3-0.9-2.2-0.9c-0.8,0-1.6,0.3-2.1,0.9C178.8,73.2,178.5,74.1,178.5,74.9L178.5,74.9z"/>
<path d="M191.6,70v5.7c0,1.7,0.6,2.5,2,2.5s1.9-0.8,1.9-2.5V70h2.3v5.8c0,0.7-0.1,1.4-0.3,2.1c-0.2,0.5-0.6,1-1,1.4
	c-1.7,1.4-4.2,1.4-5.9,0c-0.4-0.4-0.8-0.9-1-1.4c-0.2-0.7-0.3-1.4-0.3-2.1V70H191.6z"/>
<path d="M200.7,70h2.3v0.9c0.3-0.4,0.7-0.7,1.1-0.9c0.4-0.2,0.8-0.3,1.2-0.2c0.7,0,1.3,0.2,1.9,0.6l-1.1,2.1
	c-0.4-0.3-0.8-0.4-1.3-0.5c-1.3,0-1.9,1-1.9,2.8V80h-2.3L200.7,70z"/>
<path d="M216.3,70l2.6,5.6l2.6-5.6h2.6l-5.2,10.7L213.8,70H216.3z"/>
<path d="M234.3,75.5h-7.2c0,0.7,0.3,1.5,0.8,2s1.1,0.7,1.8,0.7c0.5,0,1-0.1,1.4-0.4c0.5-0.4,0.9-0.9,1.3-1.5l2,1.1
	c-0.3,0.5-0.6,0.9-1,1.3c-0.3,0.4-0.7,0.7-1.1,0.9c-0.4,0.2-0.8,0.4-1.2,0.5c-0.5,0.1-1,0.2-1.5,0.2c-1.3,0.1-2.7-0.5-3.6-1.4
	c-0.9-1.1-1.4-2.4-1.4-3.8c-0.1-1.4,0.4-2.8,1.3-3.8c0.9-1,2.2-1.5,3.5-1.4c1.3-0.1,2.6,0.4,3.5,1.4c0.9,1.1,1.4,2.5,1.3,3.9
	L234.3,75.5z M232,73.7c-0.2-1.1-1.2-1.9-2.3-1.8c-0.3,0-0.5,0-0.8,0.1c-0.2,0.1-0.5,0.2-0.7,0.4c-0.2,0.2-0.4,0.4-0.5,0.6
	s-0.3,0.5-0.3,0.8L232,73.7L232,73.7z"/>
<path d="M242.7,71.7l-1.9,1c-0.3-0.6-0.7-0.9-1.1-0.9c-0.2,0-0.4,0.1-0.5,0.2c-0.2,0.1-0.2,0.3-0.2,0.5c0,0.4,0.4,0.8,1.3,1.1
	c0.9,0.3,1.7,0.8,2.5,1.5c0.4,0.5,0.7,1.1,0.6,1.8c0,0.9-0.4,1.8-1.1,2.4c-0.7,0.6-1.6,1-2.5,0.9c-1.6,0.1-3-0.9-3.6-2.4l2-0.9
	c0.2,0.3,0.4,0.6,0.6,0.9c0.3,0.3,0.6,0.4,1,0.4c0.8,0,1.2-0.4,1.2-1.1c0-0.4-0.3-0.8-0.9-1.2l-0.7-0.3l-0.7-0.3
	c-0.5-0.2-1-0.6-1.4-1c-0.4-0.5-0.5-1-0.5-1.6c0-0.8,0.3-1.6,0.9-2.2c0.6-0.6,1.4-0.9,2.2-0.8C241.1,69.7,242.2,70.5,242.7,71.7z"/>
<path d="M251.2,71.7l-1.9,1c-0.3-0.6-0.7-0.9-1.1-0.9c-0.2,0-0.4,0.1-0.5,0.2c-0.2,0.1-0.2,0.3-0.2,0.5c0,0.4,0.4,0.8,1.3,1.1
	c0.9,0.3,1.7,0.8,2.5,1.5c0.4,0.5,0.7,1.1,0.6,1.8c0,0.9-0.4,1.8-1.1,2.4c-0.7,0.6-1.6,1-2.5,0.9c-1.6,0.1-3-0.9-3.6-2.4l2-0.9
	c0.2,0.3,0.4,0.6,0.6,0.9c0.3,0.3,0.6,0.4,1,0.4c0.8,0,1.2-0.4,1.2-1.1c0-0.4-0.3-0.8-0.9-1.2l-0.7-0.3l-0.7-0.3
	c-0.5-0.2-1-0.6-1.4-1c-0.4-0.5-0.5-1-0.5-1.6c0-0.8,0.3-1.6,0.9-2.2c0.6-0.6,1.4-0.9,2.2-0.8C249.6,69.7,250.8,70.5,251.2,71.7z"/>
<path d="M263,75.5h-7.2c0,0.7,0.3,1.5,0.8,2s1.1,0.7,1.8,0.7c0.5,0,1-0.1,1.4-0.4c0.5-0.5,1-1,1.3-1.6l2,1.1c-0.3,0.5-0.6,0.9-1,1.3
	c-0.3,0.3-0.7,0.7-1.1,0.9c-0.4,0.2-0.8,0.4-1.2,0.5c-0.5,0.1-1,0.2-1.5,0.2c-1.3,0.1-2.7-0.5-3.6-1.4c-0.9-1.1-1.4-2.4-1.4-3.8
	c-0.1-1.4,0.4-2.8,1.3-3.8c0.9-1,2.2-1.5,3.5-1.4c1.3-0.1,2.6,0.4,3.5,1.4c0.9,1.1,1.4,2.5,1.3,3.9L263,75.5z M260.6,73.7
	c-0.2-1.1-1.2-1.9-2.3-1.8c-0.3,0-0.5,0-0.8,0.1c-0.2,0.1-0.5,0.2-0.7,0.4c-0.2,0.2-0.4,0.4-0.5,0.6s-0.3,0.5-0.3,0.8L260.6,73.7
	L260.6,73.7z"/>
<path d="M267.8,62.6v17.3h-2.3V62.6H267.8z"/>
<path d="M165.3,91c0-0.8,0.7-1.5,1.5-1.5c0.4,0,0.8,0.2,1.1,0.4c0.3,0.3,0.4,0.7,0.4,1.1s-0.2,0.8-0.4,1.1c-0.3,0.3-0.6,0.4-1,0.4
	C166,92.6,165.3,91.9,165.3,91C165.3,91.1,165.3,91,165.3,91L165.3,91z M167.9,95.2v10h-2.3v-10H167.9z"/>
<path d="M170.9,95.2h2.3v0.9c0.3-0.4,0.7-0.7,1.1-1c0.4-0.2,0.8-0.3,1.3-0.2c1.1,0,2.1,0.5,2.7,1.5c0.7-1,1.8-1.5,2.9-1.5
	c2.3,0,3.4,1.4,3.4,4.1v6.2h-2.3v-5.6c0-0.7-0.1-1.4-0.4-2c-0.2-0.4-0.7-0.6-1.2-0.6c-0.6,0-1.1,0.2-1.4,0.7
	c-0.3,0.7-0.5,1.5-0.4,2.3v5.2h-2.3v-5.5c0-1.8-0.5-2.7-1.5-2.7c-0.6,0-1.1,0.2-1.4,0.7c-0.3,0.7-0.5,1.5-0.4,2.3v5.2H171v-10H170.9
	z"/>
<path d="M187.5,95.2h2.3v0.9c0.3-0.4,0.7-0.7,1.1-1c0.4-0.2,0.8-0.3,1.3-0.2c1.1,0,2.1,0.5,2.7,1.5c0.7-1,1.8-1.5,2.9-1.5
	c2.3,0,3.4,1.4,3.4,4.1v6.2h-2.3v-5.6c0-0.7-0.1-1.4-0.4-2c-0.2-0.4-0.7-0.6-1.2-0.6c-0.6,0-1.1,0.2-1.4,0.7
	c-0.3,0.7-0.5,1.5-0.4,2.3v5.2h-2.3v-5.5c0-1.8-0.5-2.7-1.5-2.7c-0.6,0-1.1,0.2-1.4,0.7c-0.3,0.7-0.5,1.5-0.4,2.3v5.2h-2.3
	L187.5,95.2z"/>
<path d="M213.2,100.7H206c0,0.7,0.3,1.5,0.8,2c0.9,0.8,2.2,1,3.2,0.3c0.5-0.4,0.9-0.9,1.3-1.5l1.9,1.1c-0.3,0.5-0.6,0.9-1,1.3
	c-0.3,0.4-0.7,0.7-1.1,0.9c-0.4,0.2-0.8,0.4-1.2,0.5c-0.5,0.1-1,0.2-1.4,0.2c-1.3,0.1-2.7-0.5-3.6-1.4c-0.9-1.1-1.4-2.4-1.4-3.8
	c-0.1-1.4,0.4-2.8,1.3-3.8c0.9-1,2.2-1.5,3.5-1.4c1.3-0.1,2.6,0.4,3.5,1.4c0.9,1.1,1.4,2.5,1.3,3.9L213.2,100.7z M210.8,98.8
	c-0.2-1.1-1.2-1.9-2.3-1.8c-0.3,0-0.5,0-0.8,0.1c-0.2,0.1-0.5,0.2-0.7,0.4c-0.2,0.2-0.4,0.4-0.5,0.6s-0.3,0.5-0.3,0.8L210.8,98.8z"
	/>
<path d="M223.1,87.8h2.3v17.3h-2.3v-1c-0.8,0.8-1.9,1.3-3.1,1.3c-1.3,0-2.5-0.5-3.4-1.5c-0.9-1.1-1.4-2.4-1.4-3.8s0.4-2.7,1.4-3.7
	c0.8-1,2.1-1.5,3.4-1.5c1.2,0,2.3,0.5,3.1,1.4V87.8z M217.6,100.1c0,0.8,0.2,1.7,0.8,2.3c0.5,0.6,1.2,0.9,2,0.9s1.5-0.3,2.1-0.9
	c1.1-1.4,1.1-3.3,0-4.6c-1-1.1-2.8-1.2-3.9-0.1l-0.1,0.1C217.9,98.5,217.6,99.3,217.6,100.1z"/>
<path d="M228,91c0-0.8,0.7-1.5,1.6-1.4c0.4,0,0.7,0.2,1,0.4c0.3,0.3,0.5,0.7,0.4,1.1c0,0.4-0.2,0.8-0.4,1.1c-0.3,0.3-0.7,0.4-1,0.4
	c-0.4,0-0.8-0.2-1.1-0.4C228.1,91.8,227.9,91.4,228,91z M230.6,95.2v10h-2.3v-10H230.6z"/>
<path d="M240.9,95.2h2.3v10h-2.3v-1c-1.7,1.8-4.5,1.8-6.3,0.1c-0.1-0.1-0.2-0.2-0.2-0.3c-0.9-1.1-1.4-2.4-1.3-3.8
	c0-1.4,0.4-2.7,1.3-3.8c0.8-1,2.1-1.5,3.4-1.5c1.2,0,2.3,0.5,3.1,1.4V95.2z M235.4,100.2c0,0.8,0.2,1.7,0.8,2.3
	c0.5,0.6,1.2,0.9,2,0.9s1.5-0.3,2.1-0.9c1.1-1.4,1.1-3.3,0-4.6c-1-1.1-2.8-1.2-3.9-0.1l-0.1,0.1C235.7,98.5,235.4,99.3,235.4,100.2
	L235.4,100.2z"/>
<path d="M248.5,97.3v7.8h-2.3v-7.8h-1v-2.2h1v-3.6h2.3v3.7h1.8v2.2L248.5,97.3z"/>
<path d="M261.2,100.7H254c0,0.7,0.3,1.5,0.8,2s1.1,0.7,1.8,0.7c0.5,0,1-0.1,1.4-0.4c0.5-0.4,0.9-0.9,1.3-1.5l1.9,1.1
	c-0.3,0.5-0.6,0.9-1,1.3c-0.3,0.4-0.7,0.7-1.1,0.9c-0.4,0.2-0.8,0.4-1.2,0.5c-0.5,0.1-1,0.2-1.4,0.2c-1.3,0.1-2.7-0.5-3.6-1.4
	c-0.9-1-1.4-2.4-1.4-3.8c-0.1-1.4,0.4-2.8,1.3-3.8c0.9-1,2.2-1.5,3.5-1.4c1.3-0.1,2.6,0.4,3.5,1.4c0.9,1.1,1.4,2.5,1.3,3.9
	L261.2,100.7z M258.8,98.8c-0.2-1.1-1.2-1.9-2.3-1.8c-0.5,0-1.1,0.2-1.5,0.5c-0.2,0.2-0.4,0.4-0.5,0.6c-0.2,0.2-0.3,0.5-0.3,0.8
	L258.8,98.8L258.8,98.8z"/>
<path d="M266,87.8v17.3h-2.3V87.8H266z"/>
<path d="M272.2,103.3l-4.5-8.1h2.7l3.1,5.7l2.9-5.7h2.6l-8,15.4h-2.6L272.2,103.3z"/>
</svg>
