<?xml version="1.0" encoding="utf-8"?>
<!-- Generator: Adobe Illustrator 24.0.1, SVG Export Plug-In . SVG Version: 6.00 Build 0)  -->
<svg version="1.1" id="Layer_1" xmlns="http://www.w3.org/2000/svg" xmlns:xlink="http://www.w3.org/1999/xlink" x="0px" y="0px"
	 viewBox="0 0 320.9 148.3" style="enable-background:new 0 0 320.9 148.3;" xml:space="preserve">
<style type="text/css">
	.st0{fill:#000094;}
	.st1{clip-path:url(#SVGID_2_);}
	.st2{stroke:#FFFFFF;stroke-width:28.8;}
	.st3{fill:none;stroke:#000000;stroke-width:3.75;stroke-linejoin:round;}
	.st4{fill:#FFFFFF;stroke:#FFFFFF;stroke-miterlimit:10;}
</style>
<title>Mike</title>
<rect x="1.9" y="2.1" class="st0" width="144" height="144"/>
<g>
	<g>
		<defs>
			<rect id="SVGID_1_" x="1.9" y="2.1" width="144" height="144"/>
		</defs>
		<clipPath id="SVGID_2_">
			<use xlink:href="#SVGID_1_"  style="overflow:visible;"/>
		</clipPath>
		<g class="st1">
			<path class="st2" d="M1.9,2.1l144,144 M145.9,2.1l-144,144"/>
		</g>
	</g>
</g>
<path class="st3" d="M1.9,2.1h144v144H1.9V2.1z"/>
<polygon class="st4" points="33.4,94.9 73.9,55.7 73.9,94.4 "/>
<path d="M156.6,57.6l3.3-17l5.4,12.3l5.6-12.3l3,17h-2.4L170,48l-4.7,10.3L160.7,48l-1.7,9.6H156.6z"/>
<path d="M180,55.7l-4.5-8.1h2.6l3.1,5.7l2.9-5.7h2.6l-8,15.4h-2.6L180,55.7z"/>
<path d="M196,47.6l2.6,5.6l2.6-5.6h2.6l-5.2,10.7l-5.1-10.7H196z"/>
<path d="M214,53.1h-7.1c0,0.7,0.3,1.5,0.8,2c0.9,0.8,2.2,1,3.2,0.3c0.5-0.4,0.9-1,1.2-1.6l2,1.1c-0.3,0.5-0.6,0.9-1,1.3
	c-0.3,0.3-0.7,0.6-1.1,0.9c-0.4,0.2-0.8,0.4-1.2,0.5c-0.5,0.1-1,0.2-1.4,0.2c-1.3,0.1-2.7-0.5-3.6-1.4c-0.9-1.1-1.4-2.4-1.3-3.8
	c-0.1-1.4,0.4-2.8,1.3-3.8c0.9-1,2.2-1.5,3.5-1.5c1.3-0.1,2.6,0.5,3.5,1.4c0.9,1.1,1.4,2.5,1.3,3.9L214,53.1z M211.7,51.2
	c-0.2-1.1-1.2-1.9-2.3-1.8c-0.3,0-0.5,0-0.8,0.1c-0.2,0.1-0.5,0.2-0.7,0.4s-0.4,0.4-0.5,0.6c-0.2,0.2-0.3,0.5-0.3,0.8L211.7,51.2
	L211.7,51.2z"/>
<path d="M222.4,49.3l-1.9,1c-0.3-0.6-0.7-0.9-1.1-0.9c-0.2,0-0.4,0.1-0.5,0.2c-0.1,0.1-0.2,0.3-0.2,0.5c0,0.4,0.4,0.8,1.3,1.1
	c0.9,0.3,1.7,0.8,2.5,1.4c0.4,0.5,0.7,1.1,0.6,1.8c0,0.9-0.4,1.8-1.1,2.4c-0.7,0.6-1.6,0.9-2.5,0.9c-1.6,0.1-3-0.9-3.6-2.4l2-0.9
	c0.2,0.3,0.4,0.6,0.6,0.9c0.3,0.3,0.6,0.4,1,0.4c0.8,0,1.2-0.3,1.2-1.1c0-0.4-0.3-0.8-0.9-1.1l-0.7-0.3l-0.7-0.3
	c-0.5-0.2-1-0.6-1.4-1c-0.4-0.5-0.6-1-0.5-1.6c0-0.8,0.3-1.6,0.9-2.2c0.6-0.6,1.4-0.9,2.2-0.8C220.8,47.3,222,48.1,222.4,49.3z"/>
<path d="M230.9,49.3l-1.9,1c-0.3-0.6-0.7-0.9-1.1-0.9c-0.2,0-0.4,0.1-0.6,0.2c-0.1,0.1-0.2,0.3-0.2,0.5c0,0.4,0.4,0.8,1.3,1.1
	c0.9,0.3,1.7,0.8,2.5,1.4c0.4,0.5,0.7,1.1,0.6,1.8c0,0.9-0.4,1.8-1.1,2.4c-1.6,1.4-4,1.2-5.4-0.4c-0.3-0.3-0.5-0.7-0.7-1.1l2-0.9
	c0.2,0.3,0.4,0.6,0.6,0.9c0.3,0.3,0.6,0.4,1,0.4c0.8,0,1.2-0.3,1.2-1.1c0-0.4-0.3-0.8-0.9-1.1l-0.7-0.3l-0.7-0.3
	c-0.5-0.2-1-0.6-1.4-1c-0.4-0.5-0.6-1-0.5-1.6c0-0.8,0.3-1.6,0.9-2.2c0.6-0.6,1.4-0.9,2.2-0.8C229.3,47.3,230.5,48.1,230.9,49.3z"/>
<path d="M242.7,53.1h-7.1c0,0.7,0.3,1.5,0.8,2s1.1,0.7,1.8,0.7c0.5,0,1-0.1,1.4-0.4c0.5-0.4,0.9-0.9,1.3-1.5l1.9,1.1
	c-0.3,0.5-0.6,0.9-1,1.3c-0.3,0.3-0.7,0.7-1.1,0.9c-0.4,0.2-0.8,0.4-1.2,0.5c-0.5,0.1-1,0.2-1.4,0.2c-1.3,0.1-2.7-0.5-3.6-1.4
	c-0.9-1.1-1.4-2.5-1.3-3.9c-0.1-1.4,0.4-2.8,1.3-3.8c1.9-1.9,5.1-1.9,7,0c0.9,1.1,1.3,2.4,1.2,3.8L242.7,53.1z M240.3,51.2
	c-0.2-1.1-1.2-1.9-2.3-1.8c-0.5,0-1.1,0.2-1.5,0.5c-0.2,0.2-0.4,0.4-0.5,0.6c-0.2,0.2-0.3,0.5-0.3,0.8L240.3,51.2L240.3,51.2z"/>
<path d="M247.5,40.2v17.3h-2.3V40.2H247.5z"/>
<path d="M256.6,43.4c0-0.8,0.7-1.5,1.5-1.5s1.5,0.7,1.5,1.5l0,0c0,0.4-0.2,0.8-0.4,1.1c-0.3,0.3-0.7,0.5-1.1,0.4
	C257.3,44.9,256.6,44.3,256.6,43.4L256.6,43.4z M259.2,47.6v10h-2.3v-10H259.2z"/>
<path d="M268,49.3l-1.9,1c-0.3-0.6-0.7-0.9-1.1-0.9c-0.2,0-0.4,0.1-0.5,0.2c-0.2,0.1-0.2,0.3-0.2,0.5c0,0.4,0.5,0.8,1.3,1.1
	c0.9,0.3,1.7,0.8,2.5,1.4c0.4,0.5,0.7,1.1,0.6,1.8c0,0.9-0.4,1.8-1.1,2.4c-0.7,0.6-1.6,0.9-2.5,0.9c-1.6,0.1-3-0.9-3.6-2.4l2-0.9
	c0.2,0.3,0.4,0.6,0.6,0.9c0.3,0.3,0.6,0.4,1,0.4c0.8,0,1.2-0.3,1.2-1.1c0-0.4-0.3-0.8-0.9-1.1l-0.7-0.3l-0.7-0.3
	c-0.5-0.2-1-0.6-1.4-1c-0.4-0.5-0.5-1-0.5-1.6c0-0.8,0.3-1.6,0.9-2.2c0.6-0.6,1.4-0.9,2.2-0.8C266.4,47.3,267.6,48.1,268,49.3z"/>
<path d="M162.5,74.5l-1.9,1c-0.3-0.6-0.7-0.9-1.1-0.9c-0.2,0-0.4,0.1-0.5,0.2c-0.2,0.1-0.2,0.3-0.2,0.5c0,0.4,0.4,0.8,1.3,1.1
	c0.9,0.3,1.7,0.8,2.5,1.4c0.4,0.5,0.7,1.1,0.6,1.8c0,0.9-0.4,1.8-1.1,2.4c-0.7,0.6-1.6,0.9-2.5,0.9c-1.6,0.1-3-0.9-3.6-2.5l2-0.9
	c0.2,0.3,0.4,0.6,0.6,0.9c0.3,0.3,0.6,0.4,1,0.4c0.8,0,1.2-0.3,1.2-1.1c0-0.4-0.3-0.8-0.9-1.1l-0.7-0.3l-0.7-0.3
	c-0.5-0.2-1-0.6-1.4-1c-0.4-0.5-0.5-1-0.5-1.6c0-0.8,0.3-1.6,0.9-2.2c0.6-0.6,1.4-0.9,2.2-0.8C160.9,72.5,162.1,73.3,162.5,74.5z"/>
<path d="M167.6,74.9v7.8h-2.3v-7.8h-1v-2.2h1V69h2.3v3.7h1.8v2.2H167.6z"/>
<path d="M170.6,77.7c0-1.4,0.5-2.7,1.6-3.7c2.1-2,5.4-2,7.6,0c1,1,1.6,2.3,1.5,3.8c0.1,1.4-0.5,2.8-1.5,3.8s-2.4,1.5-3.8,1.5
	c-1.4,0-2.8-0.6-3.7-1.6C171.1,80.5,170.6,79.1,170.6,77.7z M173,77.7c-0.1,0.9,0.2,1.7,0.8,2.4c1.2,1.2,3.1,1.2,4.3,0
	c1.1-1.4,1.1-3.3,0-4.7c-1.2-1.2-3.1-1.2-4.3,0C173.2,76,172.9,76.9,173,77.7L173,77.7z"/>
<path d="M186,88.2h-2.3V72.8h2.3v1.1c1.7-1.8,4.4-1.8,6.2-0.2c0.1,0.1,0.2,0.2,0.3,0.3c0.9,1,1.4,2.4,1.4,3.8
	c0.1,1.4-0.4,2.7-1.3,3.8c-1.6,1.8-4.4,2-6.2,0.4c-0.1-0.1-0.2-0.2-0.3-0.3L186,88.2L186,88.2z M191.5,77.8c0-0.8-0.2-1.7-0.8-2.3
	c-0.5-0.6-1.2-0.9-2-0.9s-1.5,0.3-2.1,0.9c-0.5,0.6-0.8,1.5-0.8,2.3s0.2,1.7,0.8,2.3c0.5,0.6,1.3,0.9,2.1,0.9s1.5-0.3,2-0.9
	C191.2,79.4,191.5,78.6,191.5,77.8z"/>
<path d="M198.6,88.2h-2.3V72.8h2.3v1.1c1.7-1.8,4.4-1.8,6.2-0.2c0.1,0.1,0.2,0.2,0.3,0.3c0.9,1,1.4,2.4,1.4,3.8
	c0.1,1.4-0.4,2.7-1.4,3.8c-1.6,1.8-4.4,2-6.2,0.4c-0.1-0.1-0.2-0.2-0.3-0.3V88.2z M204.1,77.8c0-0.8-0.2-1.7-0.8-2.3
	c-0.5-0.6-1.2-0.9-2-0.9s-1.5,0.3-2.1,0.9c-0.5,0.6-0.8,1.5-0.8,2.3s0.2,1.7,0.8,2.3c0.5,0.6,1.3,0.9,2.1,0.9s1.5-0.3,2-0.9
	C203.8,79.4,204.1,78.6,204.1,77.8L204.1,77.8z"/>
<path d="M218,78.3h-7.2c0,0.7,0.3,1.5,0.8,2s1.1,0.7,1.8,0.7c0.5,0,1-0.2,1.4-0.5c0.5-0.4,1-0.9,1.3-1.5l1.9,1.1
	c-0.3,0.5-0.6,0.9-0.9,1.3c-0.3,0.3-0.7,0.6-1.1,0.9c-0.4,0.2-0.8,0.4-1.2,0.5c-0.5,0.1-1,0.2-1.4,0.2c-1.4,0.1-2.7-0.5-3.6-1.5
	c-0.9-1.1-1.4-2.4-1.4-3.8c-0.1-1.4,0.4-2.8,1.3-3.8c1.9-1.9,5.1-1.9,7,0c0.9,1.1,1.4,2.5,1.3,3.9L218,78.3z M215.6,76.4
	c-0.2-1.1-1.2-1.9-2.3-1.9c-0.3,0-0.5,0-0.8,0.1c-0.2,0.1-0.5,0.2-0.7,0.4c-0.2,0.2-0.4,0.4-0.5,0.6c-0.2,0.2-0.3,0.5-0.3,0.8H215.6
	z"/>
<path d="M227.9,65.4h2.3v17.3h-2.3v-1c-0.8,0.8-1.9,1.3-3.1,1.3c-1.3,0-2.5-0.5-3.4-1.5c-0.9-1.1-1.4-2.4-1.4-3.8s0.4-2.7,1.4-3.7
	c1.5-1.8,4.3-2,6.1-0.5c0.1,0.1,0.3,0.3,0.4,0.4V65.4z M222.4,77.7c0,0.8,0.2,1.7,0.8,2.3c0.5,0.6,1.2,0.9,2,0.9s1.5-0.3,2.1-0.9
	c1.1-1.4,1.1-3.3,0-4.6c-0.5-0.6-1.3-0.9-2.1-0.9s-1.5,0.3-2,0.9C222.6,76.1,222.4,76.9,222.4,77.7L222.4,77.7z"/>
<path d="M234.5,79.8l2,0.8l-2.9,5.9l-1.6-0.7L234.5,79.8z M234,73.9c0-0.8,0.6-1.4,1.4-1.4c0.8,0,1.4,0.7,1.4,1.4
	c0,0.4-0.2,0.7-0.4,1c-0.3,0.3-0.6,0.4-1,0.4s-0.7-0.1-1-0.4C234.1,74.7,234,74.3,234,73.9z"/>
<path d="M246.1,72.8h2.3v0.9c0.3-0.4,0.7-0.7,1.1-0.9c0.4-0.2,0.8-0.3,1.3-0.3c1.1,0,2.1,0.5,2.7,1.5c0.7-1,1.8-1.5,2.9-1.5
	c2.3,0,3.4,1.4,3.4,4.1v6.2h-2.3v-5.5c0-0.7-0.1-1.4-0.4-2c-0.2-0.4-0.7-0.6-1.2-0.6c-0.6,0-1.1,0.2-1.4,0.7
	c-0.3,0.7-0.5,1.5-0.4,2.3v5.2h-2.3v-5.5c0-1.8-0.5-2.7-1.5-2.7c-0.6,0-1.1,0.2-1.4,0.7c-0.3,0.7-0.5,1.5-0.5,2.3v5.2h-2.3
	L246.1,72.8z"/>
<path d="M270,72.8h2.3v10H270v-1c-1.7,1.7-4.5,1.8-6.3,0.1c-0.1-0.1-0.2-0.2-0.2-0.2c-0.9-1.1-1.4-2.5-1.4-3.9s0.4-2.7,1.3-3.7
	c0.8-1,2.1-1.5,3.4-1.5c1.2,0,2.3,0.5,3.1,1.4L270,72.8z M264.6,77.8c0,0.8,0.2,1.7,0.8,2.3c0.5,0.6,1.2,0.9,2,0.9s1.5-0.3,2.1-0.9
	c1.1-1.4,1.1-3.3,0-4.6c-0.5-0.6-1.3-0.9-2-0.9c-0.8,0-1.5,0.3-2,0.9C264.8,76.1,264.5,76.9,264.6,77.8L264.6,77.8z"/>
<path d="M277.6,65.4V76l3.2-3.2h3.1l-4.3,4.2l4.6,5.8h-3l-3.3-4.2l-0.4,0.4v3.8h-2.3V65.4H277.6z"/>
<path d="M285.4,68.6c0-0.8,0.7-1.5,1.6-1.4c0.4,0,0.7,0.2,1,0.4c0.3,0.3,0.4,0.6,0.4,1s-0.1,0.8-0.4,1.1c-0.3,0.3-0.6,0.4-1,0.4
	s-0.8-0.1-1.1-0.4C285.6,69.4,285.4,69,285.4,68.6z M288,72.7v10h-2.3v-10H288z"/>
<path d="M291,72.8h2.3v0.9c0.7-0.8,1.7-1.2,2.7-1.2c1-0.1,2,0.3,2.7,1.1c0.6,0.9,0.9,1.9,0.8,3v6.1h-2.3v-5.5c0.1-0.7-0.1-1.4-0.4-2
	c-0.4-0.4-0.9-0.6-1.5-0.6c-0.6-0.1-1.3,0.2-1.6,0.8c-0.4,0.8-0.6,1.7-0.5,2.6v4.8H291V72.8z"/>
<path d="M312.2,82.6c0,0.5,0,0.9,0,1.2s-0.1,0.7-0.1,1c-0.2,0.7-0.5,1.4-1,1.9c-0.9,1.1-2.3,1.6-3.7,1.6c-1.2,0-2.4-0.3-3.3-1.1
	c-0.9-0.8-1.5-1.9-1.5-3.1h2.3c0.1,0.4,0.2,0.8,0.4,1.1c0.5,0.6,1.3,1,2.1,0.9c1.7,0,2.5-1,2.5-3.1v-1.5c-0.8,0.9-2,1.4-3.2,1.4
	c-1.3,0.1-2.5-0.5-3.4-1.5s-1.4-2.4-1.3-3.8c0-1.3,0.4-2.7,1.2-3.7c0.8-1.1,2.1-1.7,3.5-1.6c1.2,0,2.4,0.5,3.1,1.4v-1.1h2.3v10
	H312.2z M310,77.8c0-0.8-0.2-1.7-0.8-2.3c-0.5-0.6-1.2-0.9-2-0.9s-1.6,0.3-2.1,1c-0.9,1.4-0.9,3.1,0,4.5c0.5,0.6,1.3,1,2.1,1
	c0.8,0,1.6-0.3,2.1-1C309.8,79.4,310,78.6,310,77.8L310,77.8z"/>
<path d="M156.7,98h2.3v0.9c0.7-0.8,1.7-1.2,2.7-1.2c1-0.1,2,0.4,2.7,1.1c0.6,0.9,0.9,1.9,0.8,3v6.1H163v-5.6c0.1-0.7-0.1-1.4-0.4-2
	c-0.4-0.4-0.9-0.6-1.5-0.6c-0.6-0.1-1.3,0.2-1.6,0.8c-0.4,0.8-0.5,1.7-0.5,2.6v4.8h-2.3V98z"/>
<path d="M167.7,102.9c0-1.4,0.5-2.7,1.5-3.7c2.1-2,5.5-2,7.6,0c2.1,2.1,2.1,5.4,0,7.5c-1,1-2.4,1.5-3.8,1.5c-1.4,0-2.8-0.5-3.8-1.5
	C168.2,105.7,167.7,104.3,167.7,102.9z M170.1,102.9c0,0.9,0.2,1.7,0.8,2.4c1.2,1.2,3.1,1.2,4.3,0c1.1-1.4,1.1-3.3,0-4.7
	c-1.2-1.2-3.1-1.2-4.3,0C170.3,101.2,170,102.1,170.1,102.9L170.1,102.9z"/>
<path d="M188.5,98l2.6,5.7L194,97l2.8,6.6l2.6-5.7h2.6l-5.2,10.7l-2.8-6.4l-2.8,6.4L185.9,98H188.5z"/>
<path d="M210.6,98h2.3v10h-2.3v-1c-1.7,1.7-4.5,1.8-6.3,0.1c-0.1-0.1-0.2-0.2-0.2-0.2c-0.9-1.1-1.4-2.4-1.4-3.8s0.4-2.7,1.4-3.7
	c0.8-1,2.1-1.5,3.4-1.5c1.2,0,2.3,0.5,3.1,1.4V98z M205.1,103c0,0.8,0.2,1.7,0.8,2.3c0.5,0.6,1.2,0.9,2,0.9s1.5-0.3,2.1-0.9
	c1.1-1.4,1.1-3.3,0-4.6c-0.5-0.6-1.2-0.9-2-0.9s-1.5,0.3-2,0.9C205.4,101.3,205.1,102.1,205.1,103L205.1,103z"/>
<path d="M219.2,106.1l-4.5-8.1h2.7l3.1,5.7l2.9-5.7h2.6l-8,15.4h-2.6L219.2,106.1z"/>
</svg>
