<?xml version="1.0" encoding="utf-8"?>
<!-- Generator: Adobe Illustrator 24.0.1, SVG Export Plug-In . SVG Version: 6.00 Build 0)  -->
<svg version="1.1" id="Layer_1" xmlns="http://www.w3.org/2000/svg" xmlns:xlink="http://www.w3.org/1999/xlink" x="0px" y="0px"
	 viewBox="0 0 297.1 147.8" style="enable-background:new 0 0 297.1 147.8;" xml:space="preserve">
<style type="text/css">
	.st0{fill:#FFFFFF;}
	.st1{fill:#000094;}
	.st2{fill:none;stroke:#000000;stroke-width:3.75;stroke-linejoin:round;}
</style>
<title>November</title>
<rect x="1.9" y="1.9" class="st0" width="144" height="144"/>
<path class="st1" d="M1.9,1.9h36v144h36V1.9h36v144h36v-36H1.9v-36h144v-36H1.9V1.9z"/>
<path class="st2" d="M1.9,1.9h144v144H1.9V1.9z"/>
<path d="M164.3,49.6l-2.1-0.8l2.9-5.9l1.6,0.6L164.3,49.6z M168.4,49.6l-2.1-0.8l2.9-5.9l1.6,0.6L168.4,49.6z"/>
<path d="M173.9,59.5V42.6l11.5,12.1v-11h2.4v16.8l-11.5-12v11C176.3,59.5,173.9,59.5,173.9,59.5z"/>
<path d="M190.8,54.4c0-1.4,0.5-2.7,1.6-3.7c1-1,2.4-1.5,3.8-1.5c1.4,0,2.8,0.5,3.8,1.5c2.1,2.1,2.1,5.4,0,7.5c-1,1-2.4,1.5-3.8,1.5
	c-1.4,0-2.8-0.5-3.8-1.5C191.3,57.2,190.8,55.8,190.8,54.4z M193.2,54.4c0,0.9,0.2,1.7,0.8,2.4c1.2,1.2,3.1,1.2,4.3,0
	c1.1-1.4,1.1-3.3,0-4.7c-1.2-1.2-3.1-1.2-4.3,0C193.4,52.7,193.1,53.6,193.2,54.4L193.2,54.4z"/>
<path d="M206.1,43l2,0.8l-2.9,5.9l-1.6-0.7L206.1,43z M210.2,43l2.1,0.8l-2.9,5.9l-1.6-0.7L210.2,43z"/>
<path d="M162,79.6c0-1.4,0.5-2.7,1.6-3.7c2.1-2,5.5-2,7.6,0c2.1,2.1,2.1,5.4,0,7.5c-1,1-2.4,1.5-3.8,1.5c-1.4,0-2.8-0.5-3.8-1.5
	C162.5,82.4,162,81,162,79.6z M164.4,79.6c0,0.9,0.2,1.7,0.8,2.4c0.6,0.6,1.4,0.9,2.2,0.9s1.6-0.3,2.2-0.9c1.1-1.4,1.1-3.3,0-4.7
	c-1.2-1.2-3.1-1.2-4.3,0C164.6,78,164.3,78.8,164.4,79.6L164.4,79.6z"/>
<path d="M175.1,74.7h2.3v0.9c0.3-0.4,0.7-0.7,1.1-0.9c0.4-0.2,0.8-0.3,1.2-0.2c0.7,0,1.3,0.2,1.9,0.6l-1.1,2.1
	c-0.4-0.3-0.8-0.5-1.3-0.5c-1.3,0-1.9,1-1.9,2.8v5.2H175v-10H175.1z"/>
<path d="M164.3,100.1l-2.1-0.8l2.9-5.9l1.6,0.6L164.3,100.1z M168.4,100.1l-2.1-0.8l2.9-5.9l1.6,0.6L168.4,100.1z"/>
<path d="M173.9,109.9V93l11.5,12.1v-11h2.4v16.8l-11.5-12v11C176.3,109.9,173.9,109.9,173.9,109.9z"/>
<path d="M200.5,105.4h-7.2c0,0.7,0.3,1.5,0.8,2s1.1,0.7,1.8,0.7c0.5,0,1-0.1,1.4-0.4c0.5-0.4,0.9-0.9,1.3-1.5l1.9,1.1
	c-0.3,0.5-0.6,0.9-0.9,1.3c-0.3,0.3-0.7,0.7-1.1,0.9c-0.4,0.2-0.8,0.4-1.2,0.5c-0.5,0.1-1,0.2-1.4,0.2c-1.3,0.1-2.7-0.5-3.6-1.4
	c-0.9-1.1-1.4-2.4-1.4-3.8c-0.1-1.4,0.4-2.8,1.3-3.8c0.9-1,2.2-1.5,3.5-1.4c1.3-0.1,2.6,0.4,3.5,1.4c0.9,1.1,1.4,2.5,1.3,3.9
	L200.5,105.4z M198.1,103.5c-0.2-1.1-1.2-1.9-2.3-1.8c-0.3,0-0.5,0-0.8,0.1c-0.2,0.1-0.5,0.2-0.7,0.4c-0.2,0.2-0.4,0.4-0.5,0.6
	s-0.3,0.5-0.3,0.8L198.1,103.5L198.1,103.5z"/>
<path d="M212.7,109.6c0,0.5,0,0.9,0,1.2s-0.1,0.7-0.1,1c-0.2,0.7-0.5,1.4-1,1.9c-0.9,1.1-2.3,1.6-3.7,1.6c-1.2,0-2.4-0.3-3.3-1.1
	c-0.9-0.8-1.5-1.9-1.5-3.1h2.3c0.1,0.4,0.2,0.8,0.4,1.1c0.5,0.6,1.3,1,2.1,0.9c1.7,0,2.5-1,2.5-3.1v-1.4c-1.6,1.8-4.4,1.9-6.2,0.2
	c-0.1-0.1-0.2-0.2-0.3-0.3c-0.9-1-1.4-2.4-1.3-3.7c0-1.3,0.4-2.7,1.2-3.7c0.8-1.1,2.1-1.7,3.5-1.6c1.2,0,2.4,0.5,3.1,1.4v-1.1h2.3
	V109.6z M210.4,104.9c0-0.8-0.2-1.7-0.8-2.3c-0.5-0.6-1.2-0.9-2-0.9s-1.6,0.3-2.1,1s-0.7,1.5-0.7,2.3s0.2,1.6,0.7,2.2
	c0.5,0.7,1.3,1,2.1,1s1.6-0.3,2.1-1S210.5,105.7,210.4,104.9z"/>
<path d="M222.9,99.9h2.3v10h-2.3v-1c-1.7,1.8-4.5,1.8-6.3,0.1c-0.1-0.1-0.2-0.2-0.2-0.3c-0.9-1.1-1.4-2.4-1.3-3.8
	c0-1.4,0.4-2.7,1.3-3.8c0.8-1,2.1-1.5,3.4-1.5c1.2,0,2.3,0.5,3.1,1.4V99.9z M217.5,104.9c0,0.8,0.2,1.7,0.8,2.3
	c0.5,0.6,1.2,0.9,2,0.9s1.5-0.3,2.1-0.9c1.1-1.4,1.1-3.3,0-4.6c-0.5-0.6-1.3-0.9-2-0.9c-0.8,0-1.5,0.3-2,0.9
	C217.7,103.2,217.4,104,217.5,104.9L217.5,104.9z"/>
<path d="M230.5,102.1v7.8h-2.3v-7.8h-1v-2.2h1v-3.7h2.3v3.7h1.8v2.2H230.5z"/>
<path d="M233.6,95.7c0-0.8,0.7-1.5,1.5-1.5c0.4,0,0.8,0.2,1.1,0.4c0.3,0.3,0.4,0.7,0.4,1.1s-0.2,0.8-0.4,1.1
	c-0.3,0.3-0.7,0.4-1.1,0.4C234.2,97.3,233.6,96.6,233.6,95.7L233.6,95.7z M236.2,99.9v10h-2.3v-10H236.2z"/>
<path d="M240.4,99.9l2.6,5.6l2.6-5.6h2.6l-5.2,10.7l-5.1-10.7H240.4z"/>
<path d="M258.4,105.4h-7.1c0,0.7,0.3,1.5,0.8,2s1.1,0.7,1.8,0.7c0.5,0,1-0.1,1.4-0.4c0.5-0.4,0.9-0.9,1.3-1.5l1.9,1.1
	c-0.3,0.5-0.6,0.9-1,1.3c-0.3,0.4-0.7,0.7-1.1,0.9c-0.4,0.2-0.8,0.4-1.2,0.5c-0.5,0.1-1,0.2-1.4,0.2c-1.3,0.1-2.7-0.5-3.6-1.4
	c-0.9-1.1-1.4-2.4-1.4-3.8c-0.1-1.4,0.4-2.8,1.3-3.8c0.9-1,2.2-1.5,3.5-1.4c1.3-0.1,2.6,0.4,3.5,1.4c0.9,1.1,1.4,2.5,1.3,3.9
	L258.4,105.4z M256.1,103.5c-0.2-1.1-1.2-1.9-2.3-1.8c-0.3,0-0.5,0-0.8,0.1c-0.2,0.1-0.5,0.2-0.7,0.4c-0.2,0.2-0.4,0.4-0.5,0.6
	c-0.2,0.2-0.3,0.5-0.3,0.8L256.1,103.5L256.1,103.5z"/>
<path d="M263.1,93.4l2,0.8l-2.9,5.9l-1.6-0.7L263.1,93.4z M267.2,93.4l2,0.8l-2.9,5.9l-1.6-0.7L267.2,93.4z"/>
</svg>
