<?xml version="1.0" encoding="utf-8"?>
<!-- Generator: Adobe Illustrator 24.0.1, SVG Export Plug-In . SVG Version: 6.00 Build 0)  -->
<svg version="1.1" id="Layer_1" xmlns="http://www.w3.org/2000/svg" xmlns:xlink="http://www.w3.org/1999/xlink" x="0px" y="0px"
	 viewBox="0 0 286.4 147.8" style="enable-background:new 0 0 286.4 147.8;" xml:space="preserve">
<style type="text/css">
	.st0{fill:#FFCC00;}
	.st1{fill:#FF0000;}
	.st2{fill:none;stroke:#000000;stroke-width:3.75;stroke-linejoin:round;}
</style>
<title>Oscar</title>
<rect x="1.9" y="1.9" class="st0" width="144" height="144"/>
<path class="st1" d="M1.9,1.9h144v144L1.9,1.9z"/>
<path class="st2" d="M1.9,1.9h144v144H1.9V1.9z"/>
<path d="M164.1,70.4l3.3-17l5.4,12.3l5.6-12.3l3,17H179l-1.5-9.6l-4.7,10.3l-4.6-10.3l-1.7,9.6H164.1z"/>
<path d="M191.7,60.4h2.3v10h-2.3v-1.1c-1.7,1.8-4.5,1.8-6.3,0.1c-0.1-0.1-0.2-0.2-0.2-0.3c-0.9-1.1-1.4-2.4-1.4-3.8
	c0-1.4,0.4-2.7,1.4-3.8c0.8-1,2.1-1.5,3.4-1.5c1.2,0,2.3,0.5,3.1,1.4V60.4z M186.2,65.4c0,0.8,0.2,1.7,0.8,2.3
	c0.5,0.6,1.2,0.9,2,0.9c0.8,0,1.5-0.3,2.1-0.9c1.1-1.4,1.1-3.3,0-4.6c-0.5-0.6-1.3-0.9-2.1-0.9c-0.8,0-1.5,0.3-2,0.9
	C186.5,63.8,186.2,64.6,186.2,65.4L186.2,65.4z"/>
<path d="M197,60.4h2.3v0.9c0.7-0.8,1.7-1.2,2.7-1.2c1-0.1,2,0.3,2.7,1.1c0.6,0.9,0.9,1.9,0.8,3v6.2h-2.3v-5.6c0.1-0.7-0.1-1.4-0.4-2
	c-0.4-0.4-0.9-0.6-1.4-0.6c-0.6-0.1-1.3,0.2-1.7,0.8c-0.4,0.8-0.6,1.7-0.5,2.6v4.8h-2.3L197,60.4z"/>
<path d="M163.7,90.5c0-1.4,0.5-2.7,1.6-3.7c2.1-2,5.5-2,7.6,0c2.1,2.1,2.1,5.4,0,7.5c-1,1-2.4,1.5-3.8,1.5c-1.4,0-2.8-0.5-3.8-1.5
	C164.2,93.3,163.7,92,163.7,90.5z M166.1,90.5c0,0.9,0.2,1.7,0.8,2.4c0.6,0.6,1.4,0.9,2.2,0.9c0.8,0,1.6-0.3,2.2-0.9
	c1.1-1.4,1.1-3.3,0-4.7c-1.2-1.2-3.1-1.2-4.3,0C166.3,88.9,166,89.7,166.1,90.5L166.1,90.5z"/>
<path d="M177.6,85.6l2.6,5.6l2.6-5.6h2.6l-5.2,10.7L175,85.6H177.6z"/>
<path d="M195.7,91.2h-7.2c0,0.7,0.3,1.5,0.8,2c0.5,0.5,1.1,0.7,1.8,0.7c0.5,0,1-0.1,1.4-0.4c0.5-0.4,0.9-0.9,1.3-1.5l1.9,1.1
	c-0.3,0.5-0.6,0.9-1,1.3c-0.3,0.4-0.7,0.7-1.1,0.9c-0.4,0.2-0.8,0.4-1.2,0.5c-0.5,0.1-1,0.2-1.4,0.2c-1.3,0.1-2.7-0.5-3.6-1.4
	c-0.9-1.1-1.4-2.4-1.4-3.8c-0.1-1.4,0.4-2.8,1.3-3.8c0.9-1,2.2-1.5,3.5-1.4c1.3-0.1,2.6,0.4,3.5,1.4c0.9,1.1,1.4,2.5,1.3,3.9
	L195.7,91.2z M193.4,89.3c-0.2-1.1-1.2-1.9-2.3-1.8c-0.3,0-0.5,0-0.8,0.1c-0.2,0.1-0.5,0.2-0.7,0.4c-0.2,0.2-0.4,0.4-0.5,0.6
	c-0.1,0.2-0.3,0.5-0.3,0.8L193.4,89.3z"/>
<path d="M198.2,85.6h2.3v0.9c0.3-0.4,0.7-0.7,1.1-0.9c0.4-0.2,0.8-0.3,1.2-0.2c0.7,0,1.3,0.2,1.9,0.6l-1.1,2.1
	c-0.4-0.3-0.8-0.5-1.3-0.5c-1.3,0-1.9,1-1.9,2.8v5.2h-2.3V85.6z"/>
<path d="M208.4,78.3v8.5c0.8-0.9,1.9-1.4,3.1-1.4c1.3,0,2.5,0.5,3.4,1.5c0.9,1,1.4,2.4,1.3,3.7c0,1.4-0.4,2.8-1.4,3.8
	c-1.6,1.8-4.4,2-6.2,0.4c-0.1-0.1-0.2-0.2-0.3-0.2v1H206V78.3H208.4z M213.8,90.7c0-0.8-0.2-1.7-0.8-2.3c-0.5-0.6-1.2-0.9-2-0.9
	c-0.8,0-1.5,0.3-2.1,0.9c-0.5,0.6-0.8,1.5-0.8,2.3c0,0.8,0.2,1.7,0.8,2.3c0.5,0.6,1.3,0.9,2.1,0.9c0.8,0,1.5-0.3,2-0.9
	C213.6,92.3,213.9,91.5,213.8,90.7L213.8,90.7z"/>
<path d="M218.2,90.5c0-1.4,0.5-2.7,1.5-3.7c2.1-2,5.5-2,7.6,0c2.1,2.1,2.1,5.4,0,7.5c-1,1-2.4,1.5-3.8,1.5c-1.4,0-2.8-0.5-3.8-1.5
	C218.7,93.3,218.1,92,218.2,90.5z M220.5,90.5c0,0.9,0.2,1.7,0.8,2.4c0.6,0.6,1.4,0.9,2.2,0.9c0.8,0,1.6-0.3,2.2-0.9
	c1.1-1.4,1.1-3.3,0-4.7c-1.2-1.2-3.1-1.2-4.3,0C220.8,88.9,220.5,89.7,220.5,90.5L220.5,90.5z"/>
<path d="M238.6,85.6h2.3v10h-2.3v-1c-1.7,1.8-4.5,1.8-6.3,0.1c-0.1-0.1-0.2-0.2-0.2-0.3c-0.9-1.1-1.4-2.4-1.3-3.8
	c0-1.4,0.4-2.7,1.3-3.8c0.8-1,2.1-1.5,3.4-1.5c1.2,0,2.3,0.5,3.1,1.4V85.6z M233.1,90.6c0,0.8,0.2,1.7,0.8,2.3
	c0.5,0.6,1.2,0.9,2,0.9c0.8,0,1.5-0.3,2.1-0.9c1.1-1.4,1.1-3.3,0-4.6c-1-1.1-2.8-1.2-3.9-0.1c0,0-0.1,0.1-0.1,0.1
	C233.4,89,233.1,89.8,233.1,90.6L233.1,90.6z"/>
<path d="M243.9,85.6h2.3v0.9c0.3-0.4,0.7-0.7,1.1-0.9c0.4-0.2,0.8-0.3,1.2-0.2c0.7,0,1.3,0.2,1.9,0.6l-1.1,2.1
	c-0.4-0.3-0.8-0.5-1.3-0.5c-1.3,0-1.9,1-1.9,2.8v5.2h-2.3V85.6z"/>
<path d="M258.9,78.3h2.3v17.3h-2.3v-1c-0.8,0.8-1.9,1.3-3.1,1.3c-1.3,0-2.6-0.5-3.4-1.5c-0.9-1.1-1.4-2.4-1.3-3.8
	c0-1.4,0.4-2.7,1.3-3.7c0.8-1,2.1-1.5,3.4-1.5c1.2,0,2.3,0.5,3.1,1.4L258.9,78.3z M253.5,90.6c0,0.8,0.2,1.7,0.8,2.3
	c0.5,0.6,1.2,0.9,2,0.9c0.8,0,1.5-0.3,2.1-0.9c1.1-1.4,1.1-3.3,0-4.6c-0.5-0.6-1.3-0.9-2.1-0.9c-0.8,0-1.5,0.3-2,0.9
	C253.7,88.9,253.4,89.8,253.5,90.6z"/>
</svg>
