<?xml version="1.0" encoding="utf-8"?>
<!-- Generator: Adobe Illustrator 24.0.1, SVG Export Plug-In . SVG Version: 6.00 Build 0)  -->
<svg version="1.1" id="Layer_1" xmlns="http://www.w3.org/2000/svg" xmlns:xlink="http://www.w3.org/1999/xlink" x="0px" y="0px"
	 viewBox="0 0 359.9 147.8" style="enable-background:new 0 0 359.9 147.8;" xml:space="preserve">
<style type="text/css">
	.st0{fill:#000094;}
	.st1{fill:#FFFFFF;}
	.st2{fill:none;stroke:#000000;stroke-width:3.75;stroke-linejoin:round;}
</style>
<title>Papa</title>
<rect x="1.9" y="1.9" class="st0" width="144" height="144"/>
<rect x="37.9" y="37.9" class="st1" width="72" height="72"/>
<path class="st2" d="M1.9,1.9h144v144H1.9V1.9z"/>
<path d="M168.1,49.5h-6.8l-1.8,3.8H157l7.8-16.8l7.6,16.8h-2.6L168.1,49.5z M167.1,47.2l-2.3-5.4l-2.5,5.4H167.1z"/>
<path d="M176.2,36v17.3h-2.3V36H176.2z"/>
<path d="M181.5,36v17.3h-2.3V36H181.5z"/>
<path d="M193.2,58.7h-2.3V43.3h2.3v1.1c0.8-0.9,1.9-1.4,3.1-1.4c1.3,0,2.6,0.5,3.4,1.5c0.9,1.1,1.4,2.4,1.4,3.8
	c0,1.4-0.4,2.7-1.3,3.7c-0.8,1-2.1,1.5-3.4,1.5c-1.2,0-2.3-0.5-3.1-1.4L193.2,58.7z M198.7,48.4c0-0.8-0.2-1.7-0.8-2.3
	c-0.5-0.6-1.2-0.9-2-0.9c-0.8,0-1.5,0.3-2.1,0.9c-0.5,0.6-0.8,1.5-0.8,2.3c0,0.8,0.3,1.7,0.8,2.3c0.5,0.6,1.3,0.9,2.1,0.9
	c0.8,0,1.5-0.3,2-0.9C198.4,50,198.7,49.2,198.7,48.4L198.7,48.4z"/>
<path d="M212.6,48.9h-7.2c0,0.7,0.3,1.5,0.8,2c0.5,0.5,1.1,0.7,1.8,0.7c0.5,0,1-0.1,1.4-0.4c0.5-0.4,0.9-0.9,1.3-1.5l1.9,1.1
	c-0.3,0.5-0.6,0.9-0.9,1.3c-0.3,0.3-0.7,0.7-1.1,0.9c-0.4,0.2-0.8,0.4-1.2,0.5c-0.5,0.1-1,0.2-1.4,0.2c-1.3,0.1-2.7-0.5-3.6-1.4
	c-0.9-1.1-1.4-2.4-1.4-3.8c-0.1-1.4,0.4-2.8,1.3-3.8c0.9-1,2.2-1.5,3.5-1.4c1.3-0.1,2.6,0.4,3.5,1.4c0.9,1.1,1.4,2.5,1.3,3.9
	L212.6,48.9z M210.2,47c-0.2-1.1-1.2-1.9-2.3-1.8c-0.3,0-0.5,0-0.8,0.1c-0.2,0.1-0.5,0.2-0.7,0.4c-0.2,0.2-0.4,0.4-0.5,0.6
	c-0.1,0.2-0.3,0.5-0.3,0.8H210.2z"/>
<path d="M215.1,43.3h2.3v0.9c0.3-0.4,0.7-0.7,1.1-0.9c0.4-0.2,0.8-0.3,1.2-0.2c0.7,0,1.3,0.2,1.9,0.6l-1.1,2.1
	c-0.4-0.3-0.8-0.5-1.3-0.5c-1.2,0-1.9,0.9-1.9,2.8v5.2h-2.3V43.3z"/>
<path d="M228.7,45l-1.9,1c-0.3-0.6-0.7-0.9-1.1-0.9c-0.2,0-0.4,0.1-0.5,0.2c-0.2,0.1-0.3,0.4-0.2,0.6c0,0.4,0.5,0.8,1.3,1.1
	c0.9,0.3,1.7,0.8,2.5,1.5c0.4,0.5,0.7,1.1,0.6,1.8c0,0.9-0.4,1.8-1.1,2.4c-1.6,1.4-4,1.2-5.4-0.4c-0.3-0.3-0.5-0.7-0.7-1.1l2-0.9
	c0.2,0.3,0.4,0.6,0.6,0.9c0.3,0.3,0.6,0.4,1,0.4c0.8,0,1.2-0.4,1.2-1.1c0-0.4-0.3-0.8-0.9-1.2l-0.7-0.3l-0.7-0.3
	c-0.5-0.2-1-0.6-1.4-1c-0.4-0.5-0.5-1-0.5-1.6c0-0.8,0.3-1.6,0.9-2.2c0.6-0.6,1.4-0.9,2.2-0.8C227.2,43.1,228.3,43.8,228.7,45z"/>
<path d="M231,48.2c0-1.4,0.5-2.7,1.5-3.7c2.1-2,5.5-2,7.6,0c2.1,2.1,2.1,5.4,0,7.5c-1,1-2.4,1.5-3.8,1.5c-1.4,0-2.8-0.5-3.8-1.5
	C231.5,51,230.9,49.7,231,48.2z M233.3,48.2c0,0.9,0.2,1.7,0.8,2.4c0.6,0.6,1.4,0.9,2.2,0.9c0.8,0,1.6-0.3,2.2-0.9
	c1.1-1.4,1.1-3.3,0-4.7c-1.2-1.2-3.1-1.2-4.3,0C233.6,46.6,233.3,47.4,233.3,48.2L233.3,48.2z"/>
<path d="M244.1,43.3h2.3v0.9c0.7-0.8,1.7-1.2,2.7-1.2c1-0.1,2,0.3,2.7,1.1c0.6,0.9,0.9,1.9,0.8,3v6.2h-2.3v-5.6
	c0.1-0.7-0.1-1.4-0.4-2c-0.4-0.4-0.9-0.6-1.5-0.6c-0.6,0-1.2,0.2-1.6,0.8c-0.4,0.8-0.5,1.7-0.5,2.6v4.8h-2.3L244.1,43.3z"/>
<path d="M255.6,43.3h2.3v0.9c0.7-0.8,1.7-1.2,2.7-1.2c1-0.1,2,0.3,2.7,1.1c0.6,0.9,0.9,1.9,0.8,3v6.2h-2.3v-5.6
	c0.1-0.7-0.1-1.4-0.4-2c-0.4-0.4-0.9-0.6-1.5-0.6c-0.6-0.1-1.3,0.2-1.6,0.8c-0.4,0.8-0.5,1.7-0.5,2.6v4.8h-2.3L255.6,43.3z"/>
<path d="M276.2,48.9H269c0,0.7,0.3,1.5,0.8,2c0.9,0.8,2.2,1,3.2,0.3c0.5-0.4,0.9-0.9,1.3-1.5l2,1.1c-0.3,0.5-0.6,0.9-1,1.3
	c-0.3,0.4-0.7,0.7-1.1,0.9c-0.4,0.2-0.8,0.4-1.2,0.5c-0.5,0.1-1,0.2-1.5,0.2c-1.3,0.1-2.7-0.5-3.6-1.4c-0.9-1.1-1.4-2.4-1.4-3.8
	c-0.1-1.4,0.4-2.8,1.3-3.9c0.9-1,2.2-1.5,3.5-1.4c1.3-0.1,2.6,0.4,3.5,1.4c0.9,1.1,1.4,2.5,1.3,3.9L276.2,48.9z M273.8,47
	c-0.2-1.1-1.2-1.9-2.3-1.8c-0.3,0-0.5,0-0.8,0.1c-0.2,0.1-0.5,0.2-0.7,0.4c-0.2,0.2-0.4,0.4-0.5,0.6c-0.1,0.2-0.3,0.5-0.3,0.8H273.8
	z"/>
<path d="M281,36v17.3h-2.3V36H281z"/>
<path d="M290.4,43.3h2.3v0.9c0.3-0.4,0.7-0.7,1.1-0.9c0.4-0.2,0.8-0.3,1.2-0.2c0.7,0,1.3,0.2,1.9,0.6l-1,2.1
	c-0.4-0.3-0.8-0.5-1.3-0.5c-1.3,0-1.9,1-1.9,2.8v5.2h-2.3L290.4,43.3z"/>
<path d="M307.2,48.9h-7.1c0,0.7,0.3,1.5,0.8,2c0.5,0.5,1.1,0.7,1.8,0.7c0.5,0,1-0.1,1.4-0.4c0.5-0.4,0.9-0.9,1.3-1.5l2,1.1
	c-0.3,0.5-0.6,0.9-1,1.3c-0.3,0.4-0.7,0.7-1.1,0.9c-0.4,0.2-0.8,0.4-1.2,0.5c-0.5,0.1-1,0.2-1.4,0.2c-1.3,0.1-2.7-0.5-3.6-1.4
	c-0.9-1.1-1.4-2.4-1.4-3.8c-0.1-1.4,0.4-2.8,1.3-3.8c0.9-1,2.2-1.5,3.5-1.4c1.3-0.1,2.6,0.4,3.5,1.4c0.9,1.1,1.4,2.5,1.3,3.9
	L307.2,48.9z M304.9,47c-0.2-1.1-1.2-1.9-2.3-1.8c-0.3,0-0.5,0-0.8,0.1c-0.2,0.1-0.5,0.2-0.7,0.4c-0.2,0.2-0.4,0.4-0.5,0.6
	c-0.2,0.2-0.3,0.5-0.3,0.8H304.9z"/>
<path d="M312.3,45.5v7.8H310v-7.8h-1v-2.2h1v-3.7h2.3v3.7h1.8v2.2H312.3z"/>
<path d="M318,43.3V49c0,1.7,0.6,2.5,2,2.5s2-0.8,2-2.5v-5.7h2.3v5.8c0,0.7-0.1,1.4-0.3,2.1c-0.2,0.5-0.6,1-1,1.4
	c-1.7,1.4-4.2,1.4-5.9,0c-0.4-0.4-0.8-0.9-1-1.4c-0.2-0.7-0.3-1.4-0.3-2.1v-5.8H318z"/>
<path d="M327.1,43.3h2.3v0.9c0.3-0.4,0.7-0.7,1.1-0.9c0.4-0.2,0.8-0.3,1.2-0.2c0.7,0,1.3,0.2,1.9,0.6l-1.1,2.1
	c-0.4-0.3-0.8-0.5-1.3-0.5c-1.3,0-1.9,0.9-1.9,2.8v5.2h-2.3V43.3z"/>
<path d="M335.3,43.3h2.3v0.9c0.7-0.8,1.7-1.2,2.7-1.2c1-0.1,2,0.3,2.7,1.1c0.6,0.9,0.9,1.9,0.8,3v6.2h-2.3v-5.6
	c0.1-0.7-0.1-1.4-0.4-2c-0.4-0.4-0.9-0.6-1.5-0.6c-0.6-0.1-1.3,0.2-1.6,0.8c-0.4,0.8-0.5,1.7-0.5,2.6v4.8h-2.3L335.3,43.3z"/>
<path d="M160.7,70.7v7.8h-2.3v-7.8h-1v-2.2h1v-3.6h2.3v3.7h1.8v2.2L160.7,70.7z"/>
<path d="M163.8,73.4c0-1.4,0.5-2.7,1.6-3.7c2.1-2,5.5-2,7.6,0c2,2.1,2,5.4,0,7.5c-1,1-2.4,1.5-3.8,1.5c-1.4,0-2.8-0.5-3.8-1.5
	C164.3,76.2,163.8,74.9,163.8,73.4z M166.1,73.4c0,0.9,0.2,1.7,0.8,2.4c1.2,1.2,3.1,1.2,4.3,0c1.1-1.4,1.1-3.3,0-4.7
	c-0.6-0.6-1.4-0.9-2.2-0.9c-0.8,0-1.6,0.3-2.1,0.9C166.4,71.8,166.1,72.6,166.1,73.4L166.1,73.4z"/>
<path d="M189.2,70.2l-1.9,1c-0.3-0.6-0.7-0.9-1.1-0.9c-0.2,0-0.4,0.1-0.5,0.2c-0.2,0.1-0.2,0.3-0.2,0.5c0,0.4,0.4,0.8,1.3,1.1
	c0.9,0.3,1.7,0.8,2.5,1.5c0.4,0.5,0.7,1.1,0.6,1.8c0,0.9-0.4,1.9-1.1,2.5c-1.6,1.4-4,1.2-5.4-0.4c-0.3-0.3-0.5-0.7-0.7-1.1l2-0.9
	c0.2,0.3,0.4,0.6,0.6,0.9c0.3,0.3,0.6,0.4,1,0.4c0.8,0,1.2-0.4,1.2-1.1c0-0.4-0.3-0.8-0.9-1.2l-0.7-0.3l-0.7-0.3
	c-0.5-0.2-1-0.6-1.4-1c-0.4-0.5-0.5-1-0.5-1.6c0-0.8,0.3-1.6,0.9-2.2c0.6-0.6,1.4-0.9,2.2-0.8C187.6,68.3,188.7,69,189.2,70.2z"/>
<path d="M191.9,61.2h2.3v8.2c0.7-0.7,1.7-1.1,2.7-1.1c1,0,2,0.4,2.7,1.1c0.6,0.9,0.9,1.9,0.9,3v6.2h-2.3v-5.9
	c0.1-0.6-0.1-1.2-0.4-1.7c-0.3-0.4-0.9-0.6-1.4-0.5c-0.7-0.1-1.3,0.2-1.7,0.8c-0.4,0.8-0.6,1.7-0.5,2.6v4.8h-2.3V61.2z"/>
<path d="M203,64.4c0-0.8,0.7-1.5,1.6-1.4c0.4,0,0.7,0.2,1,0.4c0.3,0.3,0.4,0.7,0.4,1.1c0,0.4-0.2,0.8-0.4,1.1
	c-0.3,0.3-0.7,0.4-1.1,0.4c-0.4,0-0.8-0.2-1.1-0.4C203.2,65.2,203,64.8,203,64.4z M205.7,68.5v10h-2.3v-10H205.7z"/>
<path d="M210.9,83.9h-2.3V68.5h2.3v1.1c0.8-0.9,1.9-1.4,3.1-1.4c1.3,0,2.6,0.5,3.4,1.5c0.9,1.1,1.4,2.4,1.4,3.8
	c0,1.4-0.4,2.7-1.3,3.7c-0.8,1-2.1,1.5-3.4,1.5c-1.2,0-2.3-0.5-3.1-1.4V83.9z M216.4,73.5c0-0.8-0.2-1.7-0.8-2.3
	c-0.5-0.6-1.2-0.9-2-0.9c-0.8,0-1.5,0.3-2.1,0.9c-0.5,0.6-0.8,1.5-0.8,2.3c0,0.8,0.3,1.7,0.8,2.3c0.5,0.6,1.3,0.9,2.1,0.9
	c0.8,0,1.5-0.3,2-0.9C216.2,75.2,216.4,74.4,216.4,73.5L216.4,73.5z"/>
<path d="M222.6,75.5l2,0.8l-2.9,5.8l-1.6-0.7L222.6,75.5z M222.1,69.7c0-0.4,0.1-0.7,0.4-1c0.3-0.3,0.6-0.4,1-0.4
	c0.8,0,1.4,0.6,1.4,1.4c0,0.4-0.2,0.7-0.4,1c-0.3,0.3-0.6,0.4-1,0.4c-0.4,0-0.7-0.2-1-0.4C222.2,70.4,222.1,70,222.1,69.7
	L222.1,69.7z"/>
<path d="M236.5,83.9h-2.3V68.5h2.3v1.1c0.8-0.9,1.9-1.4,3.1-1.4c1.3,0,2.5,0.5,3.4,1.5c0.9,1.1,1.4,2.4,1.4,3.8
	c0,1.4-0.4,2.7-1.3,3.7c-1.6,1.8-4.4,2-6.2,0.4c-0.1-0.1-0.2-0.2-0.3-0.3L236.5,83.9z M242,73.5c0-0.8-0.2-1.7-0.8-2.3
	c-0.5-0.6-1.2-0.9-2-0.9c-0.8,0-1.5,0.3-2.1,0.9c-0.5,0.6-0.8,1.5-0.8,2.3c0,0.8,0.2,1.7,0.8,2.3c0.5,0.6,1.2,0.9,2,0.9
	c0.8,0,1.5-0.3,2-0.9C241.7,75.2,242,74.4,242,73.5L242,73.5z"/>
<path d="M246.8,68.5h2.3v0.9c0.3-0.4,0.7-0.7,1.1-0.9c0.4-0.2,0.8-0.3,1.2-0.2c0.7,0,1.3,0.2,1.9,0.6l-1.1,2.1
	c-0.4-0.3-0.8-0.4-1.3-0.5c-1.3,0-1.9,1-1.9,2.8v5.2h-2.3L246.8,68.5z"/>
<path d="M254,73.4c0-1.4,0.5-2.7,1.5-3.7c2.1-2,5.5-2,7.6,0c2.1,2.1,2.1,5.4,0,7.5c-1,1-2.4,1.5-3.8,1.5c-1.4,0-2.8-0.5-3.8-1.5
	C254.5,76.2,253.9,74.9,254,73.4z M256.3,73.4c0,0.9,0.2,1.7,0.8,2.4c0.6,0.6,1.4,0.9,2.2,0.9c0.8,0,1.6-0.3,2.2-0.9
	c1.1-1.4,1.1-3.3,0-4.7c-1.2-1.2-3.1-1.2-4.3,0C256.6,71.8,256.3,72.6,256.3,73.4L256.3,73.4z"/>
<path d="M274.8,68.9V72c-0.4-0.5-0.9-1-1.4-1.3c-0.4-0.3-0.9-0.4-1.4-0.4c-0.8,0-1.6,0.3-2.2,0.9c-0.6,0.6-0.9,1.4-0.9,2.3
	c0,0.8,0.3,1.7,0.8,2.3c0.5,0.6,1.3,0.9,2.1,0.9c0.5,0,1-0.1,1.5-0.4c0.6-0.4,1-0.8,1.5-1.4v3c-0.9,0.5-1.8,0.7-2.8,0.7
	c-1.4,0-2.8-0.5-3.9-1.5c-1-1-1.6-2.3-1.5-3.7c0-1.4,0.5-2.8,1.6-3.8c1-1,2.4-1.6,3.9-1.5C273,68.2,274,68.4,274.8,68.9z"/>
<path d="M286.2,74.1H279c0,0.7,0.3,1.5,0.8,2c0.5,0.5,1.1,0.7,1.8,0.7c0.5,0,1-0.1,1.4-0.4c0.5-0.4,0.9-0.9,1.3-1.5l1.9,1.1
	c-0.3,0.5-0.6,0.9-1,1.3c-0.3,0.4-0.7,0.7-1.1,0.9c-0.4,0.2-0.8,0.4-1.2,0.5c-0.5,0.1-1,0.2-1.4,0.2c-1.4,0.1-2.7-0.5-3.6-1.5
	c-0.9-1-1.4-2.4-1.4-3.8c-0.1-1.4,0.4-2.8,1.4-3.8c1.9-1.9,5.1-1.9,7,0c0.9,1.1,1.4,2.5,1.3,3.9L286.2,74.1z M283.8,72.2
	c-0.2-1.1-1.2-1.9-2.3-1.8c-0.3,0-0.5,0-0.8,0.1c-0.2,0.1-0.5,0.2-0.7,0.4c-0.2,0.2-0.4,0.4-0.5,0.6c-0.2,0.2-0.3,0.5-0.3,0.8
	L283.8,72.2z"/>
<path d="M297.8,74.1h-7.2c0,0.7,0.3,1.5,0.8,2c0.5,0.5,1.1,0.7,1.8,0.7c0.5,0,1-0.1,1.4-0.4c0.5-0.4,0.9-1,1.2-1.6l2,1.1
	c-0.3,0.5-0.6,0.9-1,1.3c-0.3,0.3-0.7,0.7-1.1,0.9c-0.4,0.2-0.8,0.4-1.2,0.5c-0.5,0.1-1,0.2-1.5,0.2c-1.3,0.1-2.7-0.5-3.6-1.4
	c-0.9-1.1-1.4-2.4-1.4-3.8c-0.1-1.4,0.4-2.8,1.3-3.8c0.9-1,2.2-1.5,3.5-1.4c1.3-0.1,2.6,0.4,3.5,1.4c0.9,1.1,1.4,2.5,1.3,3.9V74.1z
	 M295.4,72.2c-0.2-1.1-1.2-1.9-2.3-1.8c-0.3,0-0.5,0-0.8,0.1c-0.2,0.1-0.5,0.2-0.7,0.4c-0.2,0.2-0.4,0.4-0.5,0.6
	c-0.1,0.2-0.3,0.5-0.3,0.8L295.4,72.2z"/>
<path d="M307.7,61.2h2.3v17.3h-2.3v-1c-0.8,0.8-1.9,1.3-3.1,1.3c-1.3,0-2.6-0.5-3.4-1.5c-0.9-1.1-1.4-2.4-1.3-3.8
	c0-1.4,0.4-2.7,1.3-3.7c0.8-1,2.1-1.5,3.4-1.5c1.2,0,2.3,0.5,3.1,1.4V61.2z M302.2,73.5c0,0.8,0.2,1.7,0.8,2.3
	c0.5,0.6,1.2,0.9,2,0.9c0.8,0,1.5-0.3,2.1-0.9c1.1-1.4,1.1-3.3,0-4.6c-0.5-0.6-1.3-0.9-2-0.9c-0.8,0-1.5,0.3-2,0.9
	C302.5,71.9,302.2,72.7,302.2,73.5z"/>
<path d="M312.5,64.4c0-0.8,0.7-1.5,1.5-1.5c0.4,0,0.8,0.2,1.1,0.4c0.3,0.3,0.4,0.7,0.4,1.1c0,0.4-0.2,0.8-0.4,1.1
	c-0.6,0.6-1.5,0.6-2.1,0C312.7,65.2,312.5,64.8,312.5,64.4z M315.2,68.5v10h-2.3v-10H315.2z"/>
<path d="M318.1,68.5h2.3v0.9c0.7-0.8,1.7-1.2,2.7-1.2c1-0.1,2,0.3,2.7,1.1c0.6,0.9,0.9,1.9,0.8,3v6.2h-2.3v-5.6
	c0.1-0.7-0.1-1.4-0.4-2c-0.4-0.4-0.9-0.6-1.5-0.6c-0.6-0.1-1.3,0.2-1.6,0.8c-0.4,0.8-0.5,1.7-0.5,2.6v4.8h-2.3V68.5z"/>
<path d="M339.3,78.3c0,0.5,0,0.9,0,1.2c0,0.3-0.1,0.7-0.1,1c-0.2,0.7-0.5,1.4-1,1.9c-0.9,1.1-2.3,1.6-3.7,1.6
	c-1.2,0-2.4-0.3-3.3-1.1c-0.9-0.8-1.5-1.9-1.5-3.1h2.3c0.1,0.4,0.2,0.8,0.5,1.1c0.5,0.6,1.3,1,2.1,0.9c1.7,0,2.5-1,2.5-3.1v-1.4
	c-1.6,1.8-4.4,1.9-6.2,0.2c-0.1-0.1-0.2-0.2-0.3-0.3c-0.9-1-1.4-2.4-1.3-3.7c0-1.3,0.4-2.7,1.2-3.7c0.8-1.1,2.1-1.7,3.5-1.6
	c1.2,0,2.4,0.5,3.1,1.4v-1.2h2.3V78.3z M337.1,73.5c0-0.8-0.2-1.7-0.8-2.3c-0.5-0.6-1.2-0.9-2-0.9c-0.8,0-1.6,0.3-2.1,1
	c-0.5,0.7-0.7,1.4-0.7,2.3c0,0.8,0.2,1.6,0.7,2.2c0.5,0.7,1.3,1,2.1,1c0.8,0,1.6-0.3,2.1-1C336.9,75.2,337.1,74.4,337.1,73.5z"/>
<path d="M160.7,95.9v7.8h-2.3v-7.8h-1v-2.2h1v-3.7h2.3v3.7h1.8v2.2H160.7z"/>
<path d="M163.8,98.6c0-1.4,0.5-2.7,1.6-3.7c2.1-2,5.5-2,7.6,0c2,2.1,2,5.4,0,7.5c-1,1-2.4,1.5-3.8,1.5c-1.4,0-2.8-0.5-3.8-1.5
	C164.3,101.4,163.8,100.1,163.8,98.6z M166.1,98.6c0,0.9,0.2,1.7,0.8,2.4c1.2,1.2,3.1,1.2,4.3,0c1.1-1.4,1.1-3.3,0-4.7
	c-0.6-0.6-1.4-0.9-2.2-0.9c-0.8,0-1.6,0.3-2.1,0.9C166.4,97,166.1,97.8,166.1,98.6L166.1,98.6z"/>
<path d="M189.2,95.4l-1.9,1c-0.3-0.6-0.7-0.9-1.1-0.9c-0.2,0-0.4,0.1-0.5,0.2c-0.2,0.1-0.2,0.3-0.2,0.5c0,0.4,0.4,0.8,1.3,1.1
	c0.9,0.3,1.7,0.8,2.5,1.5c0.4,0.5,0.7,1.1,0.6,1.8c0,0.9-0.4,1.8-1.1,2.4c-1.6,1.4-4,1.2-5.4-0.4c-0.3-0.3-0.5-0.7-0.7-1.1l2-0.9
	c0.2,0.3,0.4,0.6,0.6,0.9c0.3,0.3,0.6,0.4,1,0.4c0.8,0,1.2-0.4,1.2-1.1c0-0.4-0.3-0.8-0.9-1.2l-0.7-0.3l-0.7-0.3
	c-0.5-0.2-1-0.6-1.4-1c-0.4-0.5-0.5-1-0.5-1.6c0-0.8,0.3-1.6,0.9-2.2c0.6-0.6,1.4-0.9,2.2-0.8C187.6,93.4,188.7,94.2,189.2,95.4z"/>
<path d="M201,99.3h-7.2c0,0.7,0.3,1.5,0.8,2c0.5,0.5,1.1,0.7,1.8,0.7c0.5,0,1-0.1,1.4-0.4c0.5-0.4,0.9-0.9,1.3-1.5l1.9,1.1
	c-0.3,0.5-0.6,0.9-1,1.3c-0.3,0.4-0.7,0.7-1.1,0.9c-0.4,0.2-0.8,0.4-1.2,0.5c-0.5,0.1-1,0.2-1.4,0.2c-1.3,0.1-2.7-0.5-3.6-1.4
	c-0.9-1-1.4-2.4-1.4-3.8c-0.1-1.4,0.4-2.8,1.3-3.8c0.9-1,2.2-1.5,3.5-1.4c1.3-0.1,2.6,0.4,3.5,1.4c0.9,1.1,1.4,2.5,1.3,3.9L201,99.3
	z M198.6,97.4c-0.2-1.1-1.2-1.9-2.3-1.8c-0.5,0-1,0.2-1.5,0.5c-0.2,0.2-0.4,0.4-0.5,0.6c-0.2,0.2-0.3,0.5-0.3,0.8H198.6z"/>
<path d="M210.9,93.7h2.3v10h-2.3v-1c-1.7,1.8-4.5,1.8-6.3,0.1c-0.1-0.1-0.2-0.2-0.2-0.3c-0.9-1.1-1.4-2.4-1.4-3.8
	c0-1.4,0.4-2.7,1.4-3.8c0.8-1,2.1-1.5,3.4-1.5c1.2,0,2.3,0.5,3.1,1.4V93.7z M205.4,98.7c0,0.8,0.2,1.7,0.8,2.3
	c0.5,0.6,1.2,0.9,2,0.9c0.8,0,1.5-0.3,2.1-0.9c1.1-1.4,1.1-3.3,0-4.6c-0.5-0.6-1.3-0.9-2.1-0.9c-0.8,0-1.5,0.3-2,0.9
	C205.7,97.1,205.4,97.9,205.4,98.7L205.4,98.7z"/>
</svg>
