<?xml version="1.0" encoding="utf-8"?>
<!-- Generator: Adobe Illustrator 24.0.1, SVG Export Plug-In . SVG Version: 6.00 Build 0)  -->
<svg version="1.1" id="Layer_1" xmlns="http://www.w3.org/2000/svg" xmlns:xlink="http://www.w3.org/1999/xlink" x="0px" y="0px"
	 viewBox="0 0 351.4 147.8" style="enable-background:new 0 0 351.4 147.8;" xml:space="preserve">
<style type="text/css">
	.st0{fill:#FFCC00;}
	.st1{fill:none;stroke:#000000;stroke-width:3.75;stroke-linejoin:round;}
</style>
<title>Quebec</title>
<rect x="1.9" y="1.9" class="st0" width="144" height="144"/>
<path class="st1" d="M1.9,1.9h144v144H1.9V1.9z"/>
<path d="M171.9,42.6l-1.9,1.2c-0.2-0.5-0.6-0.9-1-1.2c-0.4-0.2-0.9-0.3-1.3-0.3c-0.6,0-1.2,0.2-1.6,0.6c-0.4,0.3-0.7,0.9-0.6,1.4
	c0,0.8,0.6,1.4,1.7,1.9l1.6,0.7c1.1,0.4,2.1,1,2.8,1.9c0.6,0.8,0.9,1.8,0.9,2.8c0,1.4-0.5,2.7-1.5,3.6c-1,1-2.3,1.5-3.6,1.4
	c-1.2,0-2.5-0.4-3.4-1.2c-0.9-0.9-1.5-2.1-1.6-3.4l2.4-0.5c0,0.7,0.2,1.3,0.6,1.9c0.9,1.2,2.7,1.4,3.8,0.4c0.1,0,0.1-0.1,0.2-0.1
	c0.7-0.7,0.9-1.8,0.6-2.7c-0.1-0.3-0.2-0.5-0.4-0.7s-0.4-0.4-0.7-0.6c-0.3-0.2-0.7-0.4-1-0.5l-1.5-0.6c-2.2-0.9-3.3-2.2-3.3-4
	c0-1.2,0.5-2.3,1.4-3c0.9-0.8,2.1-1.3,3.4-1.2C169.5,39.9,171.2,40.9,171.9,42.6z"/>
<path d="M174.8,38.7h2.3v8.1c0.7-0.7,1.7-1.1,2.7-1.1s2,0.4,2.7,1.1c0.6,0.9,0.9,1.9,0.9,3V56h-2.3v-5.9c0-0.6-0.1-1.2-0.4-1.7
	c-0.3-0.4-0.9-0.6-1.4-0.5c-0.7-0.1-1.3,0.2-1.7,0.8c-0.4,0.8-0.6,1.7-0.5,2.6V56h-2.3V38.7z"/>
<path d="M186,41.9c0-0.8,0.7-1.5,1.5-1.5c0.4,0,0.8,0.2,1.1,0.4c0.3,0.3,0.4,0.7,0.4,1.1c0,0.4-0.2,0.8-0.4,1.1
	c-0.3,0.3-0.7,0.4-1.1,0.4C186.6,43.4,186,42.7,186,41.9L186,41.9L186,41.9z M188.6,46v10h-2.3V46H188.6z"/>
<path d="M193.8,61.5h-2.3V46h2.3v1.1c0.8-0.9,1.9-1.4,3.1-1.4c1.3,0,2.5,0.5,3.4,1.5c0.9,1.1,1.4,2.4,1.4,3.8c0,1.4-0.4,2.7-1.4,3.7
	c-1.6,1.8-4.4,2-6.2,0.4c-0.1-0.1-0.2-0.2-0.3-0.3V61.5z M199.3,51.1c0-0.8-0.2-1.7-0.8-2.3c-0.5-0.6-1.2-0.9-2-0.9
	s-1.5,0.3-2.1,0.9c-0.5,0.6-0.8,1.5-0.8,2.3s0.2,1.7,0.8,2.3c0.5,0.6,1.3,0.9,2.1,0.9s1.5-0.3,2-0.9
	C199.1,52.7,199.4,51.9,199.3,51.1z"/>
<path d="M210.6,46h2.3v1c0.3-0.4,0.7-0.7,1.1-1c0.4-0.2,0.8-0.3,1.3-0.2c1.1,0,2.1,0.5,2.7,1.5c0.7-1,1.8-1.5,2.9-1.5
	c2.3,0,3.4,1.4,3.4,4.1V56H222v-5.5c0-0.7-0.1-1.4-0.4-2c-0.2-0.4-0.7-0.6-1.2-0.6c-0.6,0-1.1,0.2-1.4,0.7c-0.3,0.7-0.5,1.5-0.4,2.3
	V56h-2.3v-5.5c0-1.8-0.5-2.7-1.5-2.7c-0.6,0-1.1,0.2-1.4,0.7c-0.3,0.7-0.5,1.5-0.4,2.3V56h-2.3V46H210.6z"/>
<path d="M236.3,51.6h-7.1c0,0.7,0.3,1.5,0.8,2c0.9,0.8,2.2,1,3.2,0.3c0.5-0.4,0.9-0.9,1.3-1.5l2,1.1c-0.3,0.5-0.6,0.9-1,1.3
	c-0.3,0.4-0.7,0.7-1.1,0.9c-0.4,0.2-0.8,0.4-1.2,0.5c-0.5,0.1-1,0.2-1.4,0.2c-1.3,0-2.6-0.5-3.6-1.5c-0.9-1.1-1.4-2.4-1.4-3.8
	c-0.1-1.4,0.4-2.8,1.4-3.8c0.9-1,2.2-1.5,3.5-1.4c1.3-0.1,2.6,0.4,3.5,1.4c0.9,1.1,1.4,2.5,1.3,3.9L236.3,51.6z M233.9,49.7
	c-0.2-1.1-1.2-1.9-2.3-1.9c-0.3,0-0.5,0-0.8,0.1c-0.2,0.1-0.5,0.2-0.7,0.4s-0.4,0.4-0.5,0.6c-0.2,0.2-0.3,0.5-0.3,0.8L233.9,49.7z"
	/>
<path d="M247.9,51.6h-7.2c0,0.7,0.3,1.5,0.8,2s1.1,0.7,1.8,0.7c0.5,0,1-0.1,1.4-0.4c0.5-0.4,0.9-1,1.3-1.6l2,1.1
	c-0.3,0.5-0.6,0.9-1,1.3c-0.3,0.4-0.7,0.7-1.1,0.9c-0.4,0.2-0.8,0.4-1.2,0.5c-0.5,0.1-1,0.2-1.4,0.2c-1.3,0.1-2.7-0.5-3.6-1.4
	c-0.9-1-1.4-2.4-1.4-3.8c-0.1-1.4,0.4-2.8,1.3-3.8c1.9-1.9,5.1-1.9,7,0c0.9,1.1,1.4,2.5,1.3,3.9L247.9,51.6z M245.6,49.7
	c-0.2-1.1-1.2-1.9-2.3-1.9c-0.3,0-0.5,0-0.8,0.1c-0.2,0.1-0.5,0.2-0.7,0.4s-0.4,0.4-0.5,0.6c-0.2,0.2-0.3,0.5-0.3,0.8L245.6,49.7z"
	/>
<path d="M253,48.2V56h-2.3v-7.8h-1V46h1v-3.7h2.3V46h1.8v2.2H253z"/>
<path d="M262.2,47.7l-1.9,1c-0.3-0.6-0.7-0.9-1.1-0.9c-0.2,0-0.4,0.1-0.5,0.2c-0.2,0.1-0.2,0.3-0.2,0.5c0,0.4,0.4,0.8,1.3,1.1
	s1.7,0.8,2.5,1.5c0.4,0.5,0.7,1.1,0.6,1.8c0,0.9-0.4,1.8-1.1,2.4c-0.7,0.6-1.6,1-2.5,0.9c-1.6,0-3-1-3.6-2.5l2-0.9
	c0.2,0.3,0.4,0.6,0.6,0.9c0.3,0.3,0.6,0.4,1,0.4c0.8,0,1.2-0.4,1.2-1.1c0-0.4-0.3-0.8-0.9-1.2l-0.7-0.3l-0.7-0.3
	c-0.5-0.2-1-0.6-1.4-1c-0.4-0.5-0.5-1-0.5-1.6c0-0.8,0.3-1.6,0.9-2.2c0.6-0.6,1.4-0.9,2.2-0.8C260.6,45.7,261.8,46.5,262.2,47.7z"/>
<path d="M271.4,38.7h2.3v8.1c0.7-0.7,1.7-1.1,2.7-1.1s2,0.4,2.7,1.1c0.6,0.9,0.9,1.9,0.9,3V56h-2.3v-5.9c0-0.6-0.1-1.2-0.4-1.7
	c-0.3-0.4-0.9-0.6-1.4-0.5c-0.7-0.1-1.3,0.2-1.7,0.8c-0.4,0.8-0.6,1.7-0.5,2.6V56h-2.3L271.4,38.7z"/>
<path d="M292,51.6h-7.2c0,0.7,0.3,1.5,0.8,2s1.1,0.7,1.8,0.7c0.5,0,1-0.1,1.4-0.4c0.5-0.4,0.9-1,1.2-1.6l2,1.1
	c-0.3,0.5-0.6,0.9-1,1.3c-0.3,0.4-0.7,0.7-1.1,0.9s-0.8,0.4-1.2,0.5c-0.5,0.1-1,0.2-1.4,0.2c-1.3,0.1-2.7-0.5-3.6-1.4
	c-0.9-1-1.4-2.4-1.4-3.8c-0.1-1.4,0.4-2.8,1.3-3.8s2.2-1.5,3.5-1.4c1.3-0.1,2.6,0.4,3.5,1.4c0.9,1.1,1.4,2.5,1.3,3.9L292,51.6z
	 M289.6,49.7c-0.2-1.1-1.2-1.9-2.3-1.9c-0.5,0-1,0.2-1.5,0.5c-0.2,0.2-0.4,0.4-0.5,0.6c-0.2,0.2-0.3,0.5-0.3,0.8L289.6,49.7z"/>
<path d="M301.9,46h2.3v10h-2.3v-1c-1.7,1.7-4.5,1.8-6.3,0c-0.1-0.1-0.2-0.2-0.2-0.3c-0.9-1.1-1.4-2.4-1.3-3.8c0-1.4,0.4-2.7,1.4-3.8
	c0.8-1,2.1-1.5,3.4-1.5c1.2,0,2.3,0.5,3.1,1.4L301.9,46z M296.4,51c0,0.8,0.2,1.7,0.8,2.3c0.5,0.6,1.2,0.9,2,0.9s1.5-0.3,2.1-0.9
	c1.1-1.4,1.1-3.3,0-4.6c-0.5-0.6-1.3-0.9-2-0.9c-0.8,0-1.5,0.3-2,0.9C296.7,49.4,296.4,50.2,296.4,51L296.4,51z"/>
<path d="M309.4,38.7V56h-2.3V38.7H309.4z"/>
<path d="M314.7,48.2V56h-2.3v-7.8h-1V46h1v-3.7h2.3V46h1.8v2.2H314.7z"/>
<path d="M318.5,38.7h2.3v8.1c0.7-0.7,1.7-1.1,2.7-1.1s2,0.4,2.7,1.1c0.6,0.9,0.9,1.9,0.9,3V56h-2.3v-5.9c0.1-0.6-0.1-1.2-0.4-1.7
	c-0.3-0.4-0.9-0.6-1.4-0.6c-0.7-0.1-1.3,0.2-1.7,0.8c-0.4,0.8-0.6,1.7-0.5,2.6V56h-2.3L318.5,38.7L318.5,38.7z"/>
<path d="M162.6,71.2h2.3v0.9c0.3-0.4,0.7-0.7,1.1-0.9c0.4-0.2,0.8-0.3,1.2-0.2c0.7,0,1.3,0.2,1.9,0.6l-1.1,2.1
	c-0.4-0.3-0.8-0.5-1.3-0.5c-1.3,0-1.9,1-1.9,2.8v5.2h-2.3L162.6,71.2z"/>
<path d="M179.4,76.8h-7.1c0,0.7,0.3,1.5,0.8,2s1.1,0.7,1.8,0.7c0.5,0,1-0.1,1.4-0.4c0.5-0.4,0.9-0.9,1.3-1.5l1.9,1.1
	c-0.3,0.5-0.6,0.9-0.9,1.3c-0.3,0.4-0.7,0.7-1.1,0.9c-0.4,0.2-0.8,0.4-1.2,0.5c-0.5,0.1-1,0.2-1.4,0.2c-1.3,0.1-2.7-0.5-3.6-1.4
	c-0.9-1.1-1.4-2.4-1.4-3.8c-0.1-1.4,0.4-2.8,1.3-3.9c0.9-1,2.2-1.5,3.5-1.4c1.3-0.1,2.6,0.4,3.5,1.4c0.9,1.1,1.4,2.5,1.3,3.9
	L179.4,76.8z M177,74.9c-0.2-1.1-1.2-1.9-2.3-1.8c-0.3,0-0.5,0-0.8,0.1c-0.2,0.1-0.5,0.2-0.7,0.4c-0.2,0.2-0.4,0.4-0.5,0.6
	c-0.2,0.2-0.3,0.5-0.3,0.8L177,74.9L177,74.9z"/>
<path d="M191.5,81c0,0.5,0,0.9,0,1.2s-0.1,0.7-0.1,1c-0.2,0.7-0.5,1.4-1,1.9c-0.9,1.1-2.3,1.6-3.7,1.6c-1.2,0-2.4-0.3-3.3-1.1
	c-0.9-0.8-1.5-1.9-1.5-3.1h2.3c0.1,0.4,0.2,0.8,0.4,1.1c0.5,0.6,1.3,1,2.1,0.9c1.7,0,2.5-1,2.5-3.1V80c-1.7,1.8-4.4,1.9-6.2,0.2
	c-0.1-0.1-0.2-0.2-0.3-0.3c-0.9-1-1.4-2.4-1.3-3.7c0-1.3,0.4-2.7,1.2-3.7c0.8-1.1,2.1-1.7,3.5-1.7c1.2,0,2.4,0.5,3.1,1.4v-1.1h2.3
	V81z M189.3,76.3c0-0.8-0.2-1.7-0.8-2.3c-0.5-0.6-1.2-0.9-2-0.9s-1.6,0.3-2.1,1s-0.7,1.4-0.7,2.3c0,0.8,0.2,1.6,0.7,2.2
	c0.5,0.7,1.3,1,2.1,1s1.6-0.3,2.1-1S189.4,77.1,189.3,76.3z"/>
<path d="M200.3,72.9l-1.9,1c-0.3-0.6-0.7-0.9-1.1-0.9c-0.2,0-0.4,0.1-0.5,0.2s-0.2,0.3-0.2,0.5c0,0.4,0.4,0.8,1.3,1.1
	c0.9,0.3,1.7,0.8,2.5,1.5c0.4,0.5,0.7,1.1,0.6,1.8c0,0.9-0.4,1.8-1.1,2.4c-1.6,1.4-4,1.2-5.4-0.4c-0.3-0.3-0.5-0.7-0.7-1.1l2-0.9
	c0.2,0.3,0.4,0.6,0.6,0.9c0.3,0.3,0.6,0.4,1,0.4c0.8,0,1.2-0.4,1.2-1.1c0-0.4-0.3-0.8-0.9-1.2l-0.7-0.3l-0.7-0.3
	c-0.5-0.2-1-0.6-1.4-1c-0.4-0.5-0.6-1-0.5-1.6c0-0.8,0.3-1.6,0.9-2.2c0.6-0.6,1.4-0.9,2.2-0.8C198.7,70.9,199.8,71.7,200.3,72.9z"/>
<path d="M204.4,78.3l2,0.8l-2.9,5.8l-1.6-0.6L204.4,78.3z M203.8,72.4c0-0.8,0.6-1.4,1.4-1.4c0.4,0,0.7,0.1,1,0.4s0.4,0.6,0.4,1
	c0,0.8-0.7,1.4-1.4,1.4c-0.4,0-0.7-0.2-1-0.4C204,73.1,203.8,72.8,203.8,72.4z"/>
<path d="M215.9,71.2h2.3v0.9c0.3-0.4,0.7-0.7,1.1-0.9c0.4-0.2,0.8-0.3,1.2-0.2c0.7,0,1.3,0.2,1.9,0.6l-1.1,2.1
	c-0.4-0.3-0.8-0.5-1.3-0.5c-1.3,0-1.9,0.9-1.9,2.8v5.2h-2.3v-10H215.9z"/>
<path d="M232.7,76.8h-7.1c0,0.7,0.3,1.5,0.8,2c0.9,0.8,2.2,1,3.2,0.3c0.5-0.4,0.9-0.9,1.3-1.5l2,1.1c-0.3,0.5-0.6,0.9-1,1.3
	c-0.3,0.4-0.7,0.7-1.1,0.9c-0.4,0.2-0.8,0.4-1.2,0.5c-0.5,0.1-1,0.2-1.4,0.2c-1.3,0.1-2.7-0.5-3.6-1.4c-0.9-1.1-1.4-2.4-1.4-3.8
	c-0.1-1.4,0.4-2.8,1.3-3.8c0.9-1,2.2-1.5,3.5-1.4c1.3-0.1,2.6,0.4,3.5,1.4c0.9,1.1,1.4,2.5,1.3,3.9L232.7,76.8z M230.4,74.9
	c-0.2-1.1-1.1-1.9-2.3-1.9c-0.3,0-0.5,0-0.8,0.1c-0.2,0.1-0.5,0.2-0.7,0.4c-0.2,0.2-0.4,0.4-0.5,0.6s-0.3,0.5-0.3,0.8H230.4z"/>
<path d="M242.6,86.7v-6.6c-1.6,1.8-4.4,1.9-6.2,0.3c-0.1-0.1-0.3-0.2-0.4-0.4c-0.9-1-1.4-2.4-1.3-3.7c0-1.4,0.4-2.8,1.3-3.8
	c0.8-1,2.1-1.5,3.4-1.5c1.2,0,2.3,0.5,3.1,1.4v-1.1h2.3v15.4C244.8,86.7,242.6,86.7,242.6,86.7z M237.1,76.2c0,0.9,0.2,1.7,0.8,2.3
	c0.5,0.6,1.2,1,2,0.9c0.8,0,1.5-0.3,2.1-0.9s0.8-1.5,0.8-2.3s-0.2-1.7-0.8-2.3c-1-1.1-2.8-1.2-3.9-0.1l-0.1,0.1
	C237.4,74.6,237.1,75.4,237.1,76.2z"/>
<path d="M250.4,71.2V77c0,1.7,0.6,2.5,2,2.5s2-0.8,2-2.5v-5.7h2.3V77c0,0.7-0.1,1.4-0.3,2.1c-0.2,0.5-0.6,1-1,1.4
	c-1.7,1.4-4.2,1.4-5.9,0c-0.4-0.4-0.8-0.9-1-1.4c-0.3-0.7-0.4-1.4-0.4-2.1v-5.8H250.4z"/>
<path d="M268.6,76.8h-7.1c0,0.7,0.3,1.5,0.8,2s1.1,0.7,1.8,0.7c0.5,0,1-0.1,1.4-0.4c0.5-0.4,0.9-0.9,1.3-1.5l1.9,1.1
	c-0.3,0.5-0.6,0.9-1,1.3c-0.3,0.4-0.7,0.7-1.1,0.9c-0.4,0.2-0.8,0.4-1.2,0.5c-0.5,0.1-1,0.2-1.4,0.2c-1.3,0.1-2.7-0.5-3.6-1.4
	c-0.9-1.1-1.4-2.5-1.3-3.9c-0.1-1.4,0.4-2.8,1.3-3.8s2.2-1.5,3.5-1.4c1.3-0.1,2.6,0.4,3.5,1.4c0.9,1.1,1.4,2.5,1.3,3.9L268.6,76.8z
	 M266.3,74.9c-0.2-1.1-1.2-1.9-2.3-1.8c-0.3,0-0.5,0-0.8,0.1c-0.2,0.1-0.5,0.2-0.7,0.4c-0.2,0.2-0.4,0.4-0.5,0.6
	c-0.2,0.2-0.3,0.5-0.3,0.8L266.3,74.9L266.3,74.9z"/>
<path d="M277,72.9l-1.9,1c-0.3-0.6-0.7-0.9-1.1-0.9c-0.2,0-0.4,0.1-0.5,0.2s-0.2,0.3-0.2,0.5c0,0.4,0.4,0.8,1.3,1.1
	c0.9,0.3,1.7,0.8,2.5,1.5c0.4,0.5,0.7,1.1,0.6,1.8c0,0.9-0.4,1.8-1.1,2.4c-1.6,1.4-4,1.2-5.4-0.4c-0.3-0.3-0.5-0.7-0.7-1.1l2-0.9
	c0.2,0.3,0.4,0.6,0.6,0.9c0.3,0.3,0.6,0.4,1,0.4c0.8,0,1.2-0.4,1.2-1.1c0-0.4-0.3-0.8-0.9-1.2l-0.7-0.3l-0.7-0.3
	c-0.5-0.2-1-0.6-1.4-1c-0.4-0.5-0.5-1-0.5-1.6c0-0.8,0.3-1.6,0.9-2.2s1.4-0.9,2.2-0.8C275.4,70.9,276.5,71.7,277,72.9z"/>
<path d="M282.1,73.4v7.8h-2.3v-7.8h-1v-2.2h1v-3.7h2.3v3.7h1.8v2.2H282.1z"/>
<path d="M170.3,96.8v3.1c-0.4-0.5-0.9-1-1.4-1.3c-0.4-0.3-0.9-0.4-1.4-0.4c-0.8,0-1.6,0.3-2.2,0.9c-0.6,0.6-0.9,1.4-0.9,2.3
	c0,0.8,0.3,1.7,0.8,2.3c0.5,0.6,1.3,0.9,2.1,0.9c0.5,0,1-0.1,1.5-0.4c0.6-0.4,1-0.8,1.4-1.4v3c-0.9,0.5-1.8,0.7-2.8,0.7
	c-1.4,0-2.8-0.5-3.9-1.5c-1-1-1.6-2.3-1.6-3.7c0-1.4,0.5-2.8,1.6-3.8c1-1,2.4-1.6,3.9-1.5C168.5,96.1,169.5,96.3,170.3,96.8z"/>
<path d="M174.9,89.1v17.3h-2.3V89.1H174.9z"/>
<path d="M186.9,102h-7.2c0,0.7,0.3,1.5,0.8,2s1.1,0.7,1.8,0.7c0.5,0,1-0.1,1.4-0.4c0.5-0.4,0.9-0.9,1.3-1.5l1.9,1.1
	c-0.3,0.5-0.6,0.9-0.9,1.3c-0.3,0.3-0.7,0.7-1.1,0.9c-0.4,0.2-0.8,0.4-1.2,0.5c-0.5,0.1-1,0.2-1.4,0.2c-1.3,0.1-2.7-0.5-3.6-1.4
	c-0.9-1-1.4-2.4-1.4-3.8c-0.1-1.4,0.4-2.8,1.3-3.8c0.9-1,2.2-1.5,3.5-1.4c1.3-0.1,2.6,0.4,3.5,1.4c0.9,1.1,1.4,2.5,1.3,3.9
	L186.9,102z M184.5,100.1c-0.2-1.1-1.2-1.9-2.3-1.8c-0.3,0-0.5,0-0.8,0.1c-0.2,0.1-0.5,0.2-0.7,0.4c-0.2,0.2-0.4,0.4-0.5,0.6
	s-0.3,0.5-0.3,0.8L184.5,100.1z"/>
<path d="M196.8,96.4h2.3v10h-2.3v-1c-1.7,1.8-4.5,1.8-6.3,0.1c-0.1-0.1-0.2-0.2-0.2-0.3c-0.9-1.1-1.4-2.4-1.3-3.8
	c0-1.4,0.4-2.7,1.3-3.8c0.8-1,2.1-1.5,3.4-1.5c1.2,0,2.3,0.5,3.1,1.4V96.4z M191.3,101.4c0,0.8,0.2,1.7,0.8,2.3
	c0.5,0.6,1.2,0.9,2,0.9s1.5-0.3,2.1-0.9c1.1-1.4,1.1-3.3,0-4.6c-0.5-0.6-1.3-0.9-2.1-0.9s-1.5,0.3-2,0.9
	C191.6,99.8,191.3,100.6,191.3,101.4L191.3,101.4z"/>
<path d="M202,96.4h2.3v0.9c0.3-0.4,0.7-0.7,1.1-0.9c0.4-0.2,0.8-0.3,1.2-0.2c0.7,0,1.3,0.2,1.9,0.6l-1.1,2.1
	c-0.4-0.3-0.8-0.4-1.3-0.5c-1.3,0-1.9,1-1.9,2.8v5.2H202V96.4z"/>
<path d="M217.1,96.4h2.3v10h-2.3v-1c-1.7,1.8-4.5,1.8-6.3,0.1c-0.1-0.1-0.2-0.2-0.2-0.3c-0.9-1.1-1.4-2.4-1.4-3.8s0.4-2.7,1.4-3.8
	c0.8-1,2.1-1.5,3.4-1.5c1.2,0,2.3,0.5,3.1,1.4V96.4z M211.6,101.4c0,0.8,0.2,1.7,0.8,2.3c0.5,0.6,1.2,0.9,2,0.9s1.5-0.3,2.1-0.9
	c1.1-1.4,1.1-3.3,0-4.6c-0.5-0.6-1.3-0.9-2.1-0.9s-1.5,0.3-2,0.9C211.9,99.8,211.6,100.6,211.6,101.4L211.6,101.4z"/>
<path d="M222.3,96.4h2.3v0.9c0.7-0.8,1.7-1.2,2.7-1.2c1-0.1,2,0.3,2.7,1.1c0.6,0.9,0.9,1.9,0.8,3v6.1h-2.3v-5.6
	c0.1-0.7-0.1-1.4-0.4-2c-0.4-0.4-0.9-0.6-1.5-0.6c-0.6-0.1-1.3,0.2-1.6,0.8c-0.4,0.8-0.6,1.7-0.5,2.6v4.8h-2.3L222.3,96.4z"/>
<path d="M241.6,96.8v3.1c-0.4-0.5-0.9-1-1.4-1.3c-0.4-0.3-0.9-0.4-1.5-0.4c-0.8,0-1.6,0.3-2.2,0.9c-0.6,0.6-0.9,1.4-0.9,2.3
	c0,0.8,0.3,1.7,0.8,2.3c0.5,0.6,1.3,0.9,2.1,0.9c0.5,0,1-0.1,1.5-0.4c0.6-0.4,1-0.8,1.4-1.4v3c-0.9,0.5-1.8,0.7-2.8,0.7
	c-1.4,0-2.8-0.5-3.9-1.5c-1-1-1.6-2.3-1.6-3.7c0-1.4,0.5-2.8,1.6-3.8c1-1,2.4-1.6,3.9-1.5C239.8,96.1,240.7,96.3,241.6,96.8z"/>
<path d="M252.9,102h-7.1c0,0.7,0.3,1.5,0.8,2c0.9,0.8,2.2,1,3.2,0.3c0.5-0.4,1-1,1.3-1.6l2,1.1c-0.3,0.5-0.6,0.9-1,1.3
	c-0.3,0.4-0.7,0.7-1.1,0.9c-0.4,0.2-0.8,0.4-1.2,0.5c-0.5,0.1-1,0.2-1.5,0.2c-1.3,0.1-2.7-0.5-3.6-1.4c-0.9-1.1-1.4-2.4-1.4-3.8
	c-0.1-1.4,0.4-2.8,1.3-3.8c0.9-1,2.2-1.5,3.5-1.4c1.3-0.1,2.6,0.4,3.5,1.4c0.9,1.1,1.4,2.5,1.3,3.9V102z M250.6,100.1
	c-0.2-1.1-1.2-1.9-2.3-1.8c-0.3,0-0.5,0-0.8,0.1c-0.2,0.1-0.5,0.2-0.7,0.4c-0.2,0.2-0.4,0.4-0.5,0.6s-0.3,0.5-0.3,0.8L250.6,100.1z"
	/>
<path d="M261.6,92.3c0-0.4,0.2-0.7,0.4-1c0.6-0.6,1.5-0.6,2.1,0c0.3,0.3,0.5,0.7,0.4,1.1c0,0.8-0.7,1.5-1.5,1.5
	C262.3,93.8,261.6,93.2,261.6,92.3L261.6,92.3L261.6,92.3z M264.2,96.4v10h-2.3v-10H264.2z"/>
<path d="M267.2,96.4h2.3v0.9c0.7-0.8,1.7-1.2,2.7-1.2c1-0.1,2,0.3,2.7,1.1c0.6,0.9,0.9,1.9,0.8,3v6.1h-2.3v-5.6
	c0.1-0.7-0.1-1.4-0.4-2c-0.4-0.4-0.9-0.6-1.5-0.6c-0.6-0.1-1.3,0.2-1.6,0.8c-0.4,0.8-0.5,1.7-0.5,2.6v4.8h-2.3L267.2,96.4
	L267.2,96.4z"/>
<path d="M281.1,98.6v7.8h-2.3v-7.8h-1v-2.2h1v-3.6h2.3v3.7h1.8v2.2L281.1,98.6z"/>
<path d="M284.1,101.4c0-1.4,0.5-2.7,1.5-3.7c2.1-2,5.5-2,7.6,0c2.1,2.1,2.1,5.4,0,7.5c-1,1-2.4,1.5-3.8,1.5s-2.8-0.5-3.8-1.5
	C284.6,104.2,284,102.8,284.1,101.4z M286.4,101.4c0,0.9,0.2,1.7,0.8,2.4c0.6,0.6,1.4,0.9,2.2,0.9c0.8,0,1.6-0.3,2.2-0.9
	c1.1-1.4,1.1-3.3,0-4.7c-1.2-1.2-3.1-1.2-4.3,0C286.7,99.7,286.4,100.6,286.4,101.4L286.4,101.4z"/>
<path d="M306,111.8h-2.3V96.4h2.3v1.1c0.8-0.9,1.9-1.4,3.1-1.4c1.3,0,2.6,0.5,3.4,1.5c0.9,1.1,1.4,2.4,1.4,3.8s-0.4,2.7-1.3,3.7
	c-0.8,1-2.1,1.5-3.4,1.5c-1.2,0-2.3-0.5-3.1-1.4v6.6H306z M311.4,101.5c0-0.8-0.2-1.7-0.8-2.3c-0.5-0.6-1.2-0.9-2-0.9
	s-1.5,0.3-2.1,0.9c-0.5,0.6-0.8,1.5-0.8,2.3s0.3,1.7,0.8,2.3c0.5,0.6,1.3,0.9,2,0.9c0.8,0,1.5-0.3,2-0.9
	C311.2,103.1,311.5,102.3,311.4,101.5L311.4,101.5z"/>
<path d="M315.8,101.4c0-1.4,0.5-2.7,1.5-3.7c2.1-2,5.4-2,7.6,0c2.1,2.1,2.1,5.4,0,7.5c-1,1-2.4,1.5-3.8,1.5s-2.8-0.5-3.8-1.5
	C316.3,104.2,315.7,102.8,315.8,101.4z M318.1,101.4c0,0.9,0.2,1.7,0.8,2.4c1.2,1.2,3.1,1.2,4.3,0c1.1-1.4,1.1-3.3,0-4.7
	c-0.6-0.6-1.4-0.9-2.2-0.9c-0.8,0-1.6,0.3-2.1,0.9C318.4,99.7,318,100.5,318.1,101.4L318.1,101.4z"/>
<path d="M328.9,96.4h2.3v0.9c0.3-0.4,0.7-0.7,1.1-0.9c0.4-0.2,0.8-0.3,1.2-0.2c0.7,0,1.3,0.2,1.9,0.6l-1.1,2.1
	c-0.4-0.3-0.8-0.4-1.3-0.5c-1.3,0-1.9,1-1.9,2.8v5.2h-2.3L328.9,96.4L328.9,96.4z"/>
<path d="M339.9,98.6v7.8h-2.3v-7.8h-1v-2.2h1v-3.6h2.3v3.7h1.8v2.2L339.9,98.6z"/>
</svg>
