<?xml version="1.0" encoding="utf-8"?>
<!-- Generator: Adobe Illustrator 24.0.1, SVG Export Plug-In . SVG Version: 6.00 Build 0)  -->
<svg version="1.1" id="Layer_1" xmlns="http://www.w3.org/2000/svg" xmlns:xlink="http://www.w3.org/1999/xlink" x="0px" y="0px"
	 viewBox="0 0 271.2 147.8" style="enable-background:new 0 0 271.2 147.8;" xml:space="preserve">
<style type="text/css">
	.st0{fill:#FF0000;}
	.st1{stroke:#FFCC00;stroke-width:36;}
	.st2{fill:none;stroke:#000000;stroke-width:3.75;stroke-linejoin:round;}
</style>
<title>Romeo</title>
<rect x="1.9" y="1.9" class="st0" width="144" height="144"/>
<path class="st1" d="M73.9,1.9v144 M1.9,73.9h144"/>
<path class="st2" d="M1.9,1.9h144v144H1.9V1.9z"/>
<path d="M161.9,81.9v-17L173.4,77V66h2.4v16.8l-11.5-12v11L161.9,81.9L161.9,81.9z"/>
<path d="M178.9,76.8c0-1.4,0.5-2.7,1.6-3.7c1-1,2.4-1.5,3.8-1.5c1.4,0,2.8,0.5,3.8,1.5c2.1,2.1,2.1,5.4,0,7.5c-1,1-2.4,1.5-3.8,1.5
	c-1.4,0-2.8-0.5-3.8-1.5C179.4,79.6,178.8,78.2,178.9,76.8z M181.2,76.8c0,0.9,0.2,1.7,0.8,2.4c1.2,1.2,3.1,1.2,4.3,0
	c1.1-1.4,1.1-3.3,0-4.7c-0.6-0.6-1.3-0.9-2.2-0.9c-0.8,0-1.6,0.3-2.1,0.9C181.5,75.1,181.2,76,181.2,76.8L181.2,76.8z"/>
<path d="M192,71.9h2.3v0.9c0.7-0.8,1.7-1.2,2.7-1.2c1-0.1,2,0.3,2.7,1.1c0.6,0.9,0.9,1.9,0.8,3v6.2h-2.3v-5.6c0.1-0.7-0.1-1.4-0.4-2
	c-0.4-0.4-0.9-0.6-1.5-0.6c-0.6-0.1-1.3,0.2-1.6,0.8c-0.4,0.8-0.5,1.7-0.5,2.6v4.8H192V71.9z"/>
<path d="M212.6,77.5h-7.2c0,0.7,0.3,1.5,0.8,2s1.1,0.7,1.8,0.7c0.5,0,1-0.1,1.4-0.4c0.5-0.4,0.9-0.9,1.3-1.5l1.9,1.1
	c-0.3,0.5-0.6,0.9-1,1.3c-0.3,0.4-0.7,0.7-1.1,0.9c-0.4,0.2-0.8,0.4-1.2,0.5c-0.5,0.1-1,0.2-1.4,0.2c-1.3,0.1-2.7-0.5-3.6-1.4
	c-1-1.1-1.4-2.5-1.4-3.9c-0.1-1.4,0.4-2.8,1.3-3.8c0.9-1,2.2-1.5,3.5-1.4c1.3-0.1,2.6,0.4,3.5,1.4c0.9,1.1,1.4,2.5,1.3,3.9
	L212.6,77.5z M210.2,75.6c-0.2-1.1-1.2-1.9-2.3-1.8c-0.5,0-1,0.2-1.5,0.5c-0.2,0.2-0.4,0.4-0.5,0.6c-0.2,0.2-0.3,0.5-0.3,0.8
	L210.2,75.6L210.2,75.6z"/>
<path d="M215.4,80.7c0-0.4,0.1-0.7,0.4-1c0.3-0.3,0.6-0.4,1-0.4c0.8,0,1.4,0.6,1.4,1.4c0,0.4-0.2,0.7-0.4,1c-0.3,0.3-0.6,0.4-1,0.4
	s-0.7-0.1-1-0.4C215.6,81.4,215.4,81.1,215.4,80.7z"/>
</svg>
