<?xml version="1.0" encoding="utf-8"?>
<!-- Generator: Adobe Illustrator 24.0.1, SVG Export Plug-In . SVG Version: 6.00 Build 0)  -->
<svg version="1.1" id="Layer_1" xmlns="http://www.w3.org/2000/svg" xmlns:xlink="http://www.w3.org/1999/xlink" x="0px" y="0px"
	 viewBox="0 0 372.4 147.8" style="enable-background:new 0 0 372.4 147.8;" xml:space="preserve">
<style type="text/css">
	.st0{fill:#000094;}
	.st1{fill:#FFFFFF;}
	.st2{fill:#FF0000;}
	.st3{fill:none;stroke:#000000;stroke-width:3.75;stroke-linejoin:round;}
</style>
<title>Tango</title>
<rect x="1.9" y="1.9" class="st0" width="144" height="144"/>
<rect x="1.9" y="1.9" class="st1" width="96" height="144"/>
<rect x="1.9" y="1.9" class="st2" width="48" height="144"/>
<path class="st3" d="M1.9,1.9h144v144H1.9V1.9z"/>
<path d="M158.9,55l6.2-6.3h3.2l-7.2,7.2l7.2,8.7h-3.2l-5.7-7l-0.5,0.5v6.5h-2.4V48.7h2.4V55z"/>
<path d="M178.4,60.1h-7.2c0,0.7,0.3,1.5,0.8,2s1.1,0.7,1.8,0.7c0.5,0,1-0.1,1.4-0.4c0.5-0.5,1-1,1.3-1.6l1.9,1.1
	c-0.3,0.5-0.6,0.9-0.9,1.3c-0.3,0.3-0.7,0.7-1.1,0.9c-0.4,0.2-0.8,0.4-1.2,0.5c-0.5,0.1-1,0.2-1.4,0.2c-1.3,0.1-2.7-0.5-3.6-1.4
	c-0.9-1-1.4-2.4-1.4-3.8c-0.1-1.4,0.4-2.8,1.3-3.8c1.9-1.9,5.1-1.9,7,0c0.9,1.1,1.4,2.5,1.3,3.9L178.4,60.1z M176.1,58.3
	c-0.2-1.1-1.2-1.9-2.3-1.8c-0.3,0-0.5,0-0.8,0.1c-0.2,0.1-0.5,0.2-0.7,0.4s-0.4,0.4-0.5,0.6c-0.1,0.2-0.3,0.5-0.3,0.8L176.1,58.3
	L176.1,58.3z"/>
<path d="M190.1,60.1h-7.2c0,0.7,0.3,1.5,0.8,2s1.1,0.7,1.8,0.7c0.5,0,1-0.1,1.4-0.4c0.5-0.4,0.9-0.9,1.3-1.5l1.9,1.1
	c-0.3,0.5-0.6,0.9-0.9,1.3c-0.3,0.3-0.7,0.7-1.1,0.9c-0.4,0.2-0.8,0.4-1.2,0.5c-0.5,0.1-1,0.2-1.4,0.2c-1.3,0.1-2.7-0.5-3.6-1.4
	c-0.9-1.1-1.4-2.4-1.4-3.8c-0.1-1.4,0.4-2.8,1.3-3.8c0.9-1,2.2-1.5,3.5-1.4c1.3-0.1,2.6,0.4,3.5,1.4c0.9,1.1,1.4,2.5,1.3,3.9
	L190.1,60.1z M187.7,58.3c-0.2-1.1-1.2-1.9-2.3-1.8c-0.3,0-0.5,0-0.8,0.1c-0.2,0.1-0.5,0.2-0.7,0.4s-0.4,0.4-0.5,0.6
	c-0.1,0.2-0.3,0.5-0.3,0.8L187.7,58.3L187.7,58.3z"/>
<path d="M194.9,70h-2.3V54.6h2.3v1.1c0.8-0.9,1.9-1.4,3.1-1.4c1.3,0,2.6,0.5,3.4,1.5c0.9,1.1,1.4,2.4,1.4,3.8c0,1.4-0.4,2.7-1.3,3.7
	c-0.8,1-2.1,1.5-3.4,1.5c-1.2,0-2.3-0.5-3.1-1.4L194.9,70z M200.4,59.6c0-0.8-0.2-1.7-0.8-2.3c-0.5-0.6-1.2-0.9-2-0.9
	s-1.5,0.3-2.1,0.9c-0.5,0.6-0.8,1.5-0.8,2.3s0.3,1.7,0.8,2.3s1.3,0.9,2.1,0.9s1.5-0.3,2-0.9C200.1,61.2,200.4,60.4,200.4,59.6z"/>
<path d="M219.4,55v3.1c-0.4-0.5-0.9-1-1.4-1.3c-0.4-0.3-0.9-0.4-1.5-0.4c-0.8,0-1.6,0.3-2.2,0.9c-0.6,0.6-0.9,1.4-0.9,2.3
	c0,0.8,0.3,1.7,0.8,2.3s1.3,0.9,2.1,0.9c0.5,0,1-0.1,1.5-0.4c0.6-0.4,1-0.8,1.4-1.4v3c-0.9,0.5-1.8,0.7-2.8,0.7
	c-1.4,0-2.8-0.5-3.9-1.5c-1-1-1.6-2.3-1.6-3.7s0.5-2.8,1.6-3.8c1-1,2.4-1.5,3.9-1.5C217.6,54.3,218.6,54.5,219.4,55z"/>
<path d="M224,47.2v17.3h-2.4V47.2H224z"/>
<path d="M236,60.1h-7.1c0,0.7,0.3,1.5,0.8,2c0.9,0.8,2.2,1,3.2,0.3c0.5-0.4,0.9-0.9,1.3-1.5l2,1.1c-0.3,0.5-0.6,0.9-1,1.3
	c-0.3,0.4-0.7,0.7-1.1,0.9c-0.4,0.2-0.8,0.4-1.2,0.5c-0.5,0.1-1,0.2-1.5,0.2c-1.3,0.1-2.7-0.5-3.6-1.4c-0.9-1.1-1.4-2.4-1.4-3.8
	c-0.1-1.4,0.4-2.8,1.3-3.8c0.9-1,2.2-1.5,3.5-1.4c1.3-0.1,2.6,0.4,3.5,1.4c0.9,1.1,1.4,2.5,1.3,3.9V60.1z M233.6,58.2
	c-0.2-1.1-1.2-1.9-2.3-1.8c-0.3,0-0.5,0-0.8,0.1c-0.2,0.1-0.5,0.2-0.7,0.4s-0.4,0.4-0.5,0.6c-0.1,0.2-0.3,0.5-0.3,0.8L233.6,58.2
	L233.6,58.2z"/>
<path d="M245.9,54.6h2.3v10h-2.3v-1.1c-1.7,1.8-4.5,1.8-6.3,0.1c-0.1-0.1-0.2-0.2-0.2-0.3c-0.9-1.1-1.4-2.4-1.3-3.8
	c0-1.4,0.4-2.7,1.3-3.8c0.8-1,2.1-1.5,3.4-1.5c1.2,0,2.3,0.5,3.1,1.4V54.6z M240.4,59.6c0,0.8,0.2,1.7,0.8,2.3
	c0.5,0.6,1.2,0.9,2,0.9s1.5-0.3,2.1-0.9c1.1-1.4,1.1-3.3,0-4.6c-1-1.1-2.8-1.2-3.9-0.1l-0.1,0.1C240.7,57.9,240.4,58.7,240.4,59.6
	L240.4,59.6z"/>
<path d="M251.1,54.6h2.3v0.9c0.3-0.4,0.7-0.7,1.1-0.9c0.4-0.2,0.8-0.3,1.2-0.2c0.7,0,1.3,0.2,1.9,0.6l-1,2.1
	c-0.4-0.3-0.8-0.5-1.3-0.5c-1.2,0-1.9,0.9-1.9,2.8v5.2h-2.3V54.6z"/>
<path d="M260.4,61.6l2,0.8l-2.9,5.8l-1.6-0.6L260.4,61.6z M259.9,55.7c0-0.8,0.6-1.4,1.4-1.4c0.4,0,0.7,0.2,1,0.4
	c0.3,0.3,0.4,0.6,0.4,1c0,0.8-0.6,1.4-1.4,1.4l0,0C260.5,57.1,259.9,56.5,259.9,55.7L259.9,55.7L259.9,55.7z"/>
<path d="M165.2,85.3H158c0,0.7,0.3,1.5,0.8,2s1.1,0.7,1.8,0.7c0.5,0,1-0.1,1.4-0.4c0.5-0.4,0.9-0.9,1.3-1.5l1.9,1.1
	c-0.3,0.5-0.6,0.9-0.9,1.3c-0.3,0.4-0.7,0.7-1.1,0.9c-0.4,0.2-0.8,0.4-1.2,0.5c-0.5,0.1-1,0.2-1.4,0.2c-1.3,0.1-2.7-0.5-3.6-1.4
	c-0.9-1.1-1.4-2.4-1.3-3.8c-0.1-1.4,0.4-2.8,1.3-3.8c0.9-1,2.2-1.5,3.5-1.4c1.3-0.1,2.6,0.4,3.5,1.4c0.9,1.1,1.4,2.5,1.3,3.9
	L165.2,85.3z M162.8,83.4c-0.2-1.1-1.2-1.9-2.3-1.8c-0.5,0-1.1,0.2-1.5,0.5c-0.2,0.2-0.4,0.4-0.5,0.6c-0.2,0.2-0.3,0.5-0.3,0.8
	L162.8,83.4L162.8,83.4z"/>
<path d="M167.7,79.8h2.3v0.9c0.7-0.8,1.7-1.2,2.7-1.2c1-0.1,2,0.3,2.7,1.1c0.6,0.9,0.9,1.9,0.8,3v6.1H174v-5.6
	c0.1-0.7-0.1-1.4-0.4-2c-0.4-0.4-0.9-0.6-1.5-0.6c-0.6-0.1-1.3,0.2-1.6,0.8c-0.4,0.8-0.5,1.7-0.5,2.6v4.8h-2.3V79.8z"/>
<path d="M188.9,89.5c0,0.5,0,0.9-0.1,1.2c0,0.3-0.1,0.7-0.1,1c-0.2,0.7-0.5,1.4-1,1.9c-0.9,1.1-2.3,1.6-3.7,1.6
	c-1.2,0-2.3-0.4-3.2-1.1c-0.9-0.8-1.5-1.9-1.5-3.1h2.3c0.1,0.4,0.2,0.8,0.4,1.1c0.5,0.6,1.3,1,2.1,0.9c1.7,0,2.5-1,2.5-3.1v-1.4
	c-1.6,1.8-4.4,1.9-6.2,0.2c-0.1-0.1-0.2-0.2-0.3-0.3c-0.9-1-1.4-2.4-1.3-3.7c0-1.3,0.4-2.6,1.2-3.7s2.1-1.7,3.5-1.6
	c1.2,0,2.4,0.5,3.1,1.4v-1.2h2.3V89.5z M186.6,84.8c0-0.8-0.2-1.7-0.8-2.3c-0.5-0.6-1.2-0.9-2-0.9s-1.6,0.3-2.1,1s-0.7,1.5-0.7,2.3
	s0.2,1.6,0.7,2.2c0.5,0.7,1.3,1,2.1,1s1.6-0.3,2.1-1C186.4,86.4,186.7,85.6,186.6,84.8z"/>
<path d="M199.1,79.8h2.3v10h-2.3v-1c-1.7,1.8-4.5,1.8-6.3,0.1c-0.1-0.1-0.2-0.2-0.2-0.3c-0.9-1.1-1.4-2.4-1.3-3.8
	c-0.1-1.4,0.4-2.8,1.3-3.8c0.8-1,2.1-1.5,3.4-1.5c1.2,0,2.3,0.5,3.1,1.4V79.8z M193.7,84.8c0,0.8,0.2,1.7,0.8,2.3
	c0.5,0.6,1.2,0.9,2,0.9s1.5-0.3,2.1-0.9c1.1-1.4,1.1-3.3,0-4.6c-0.5-0.6-1.2-0.9-2-0.9s-1.5,0.3-2,0.9
	C194,83.1,193.7,83.9,193.7,84.8L193.7,84.8z"/>
<path d="M214,89.5c0,0.5,0,0.9,0,1.2s-0.1,0.7-0.1,1c-0.2,0.7-0.5,1.4-1,1.9c-0.9,1.1-2.3,1.6-3.7,1.6c-1.2,0-2.4-0.3-3.3-1.1
	c-0.9-0.8-1.5-1.9-1.5-3.1h2.3c0.1,0.4,0.2,0.8,0.4,1.1c0.5,0.6,1.3,1,2.1,0.9c1.7,0,2.5-1,2.5-3.1v-1.4c-1.6,1.8-4.4,1.9-6.2,0.2
	c-0.1-0.1-0.2-0.2-0.3-0.3c-0.9-1-1.4-2.4-1.3-3.7c0-1.3,0.4-2.7,1.3-3.7c0.8-1.1,2.1-1.7,3.5-1.7c1.2,0,2.3,0.5,3.1,1.4v-1.1h2.3
	L214,89.5z M211.8,84.8c0-0.8-0.2-1.7-0.8-2.3c-0.5-0.6-1.2-0.9-2-0.9s-1.6,0.3-2.1,1s-0.7,1.4-0.7,2.3c0,0.8,0.2,1.6,0.7,2.2
	c0.5,0.7,1.3,1,2.1,1s1.6-0.3,2.1-1S211.9,85.6,211.8,84.8z"/>
<path d="M226,85.3h-7.2c0,0.7,0.3,1.5,0.8,2s1.1,0.7,1.8,0.7c0.5,0,1-0.1,1.4-0.4c0.5-0.4,0.9-0.9,1.3-1.5l1.9,1.1
	c-0.3,0.5-0.6,0.9-1,1.3c-0.3,0.3-0.7,0.7-1.1,0.9c-0.4,0.2-0.8,0.4-1.2,0.5c-0.5,0.1-1,0.2-1.5,0.2c-1.3,0.1-2.7-0.5-3.6-1.4
	c-0.9-1-1.4-2.4-1.4-3.8c-0.1-1.4,0.4-2.8,1.3-3.8c0.9-1,2.2-1.5,3.5-1.4c1.3-0.1,2.6,0.4,3.5,1.4c0.9,1.1,1.4,2.5,1.3,3.9L226,85.3
	z M223.7,83.4c-0.2-1.1-1.2-1.9-2.3-1.8c-0.3,0-0.5,0-0.8,0.1c-0.2,0.1-0.5,0.2-0.7,0.4c-0.2,0.2-0.4,0.4-0.5,0.6s-0.3,0.5-0.3,0.8
	L223.7,83.4z"/>
<path d="M235.9,72.4h2.3v17.3h-2.3v-1c-0.8,0.8-1.9,1.3-3.1,1.3c-1.3,0-2.6-0.5-3.4-1.5c-0.9-1.1-1.4-2.4-1.3-3.8
	c0-1.4,0.4-2.7,1.3-3.7c0.8-1,2.1-1.5,3.4-1.5c1.2,0,2.3,0.5,3.1,1.4V72.4z M230.4,84.7c0,0.8,0.2,1.7,0.8,2.3
	c0.5,0.6,1.2,0.9,2,0.9s1.5-0.3,2.1-0.9c1.1-1.4,1.1-3.3,0-4.6c-0.5-0.6-1.3-0.9-2-0.9c-0.8,0-1.5,0.3-2,0.9
	C230.7,83.1,230.4,83.9,230.4,84.7z"/>
<path d="M247.3,75.6c0-0.8,0.7-1.5,1.5-1.5c0.4,0,0.8,0.2,1.1,0.4c0.3,0.3,0.4,0.7,0.4,1.1s-0.2,0.8-0.4,1.1c-0.6,0.6-1.5,0.6-2.1,0
	C247.4,76.4,247.3,76,247.3,75.6z M249.9,79.8v10h-2.3v-10H249.9z"/>
<path d="M252.9,79.8h2.3v0.9c0.7-0.8,1.7-1.2,2.7-1.2c1-0.1,2,0.3,2.7,1.1c0.6,0.9,0.9,1.9,0.8,3v6.1h-2.3v-5.6
	c0.1-0.7-0.1-1.4-0.4-2c-0.4-0.4-0.9-0.6-1.5-0.6c-0.6-0.1-1.3,0.2-1.6,0.8c-0.4,0.8-0.5,1.7-0.5,2.6v4.8h-2.3L252.9,79.8z"/>
<path d="M273.2,81.9v7.8h-2.3v-7.8h-1v-2.2h1v-3.6h2.3v3.7h1.8V82L273.2,81.9z"/>
<path d="M276.6,79.8h2.3v0.9c0.3-0.4,0.7-0.7,1.1-0.9c0.4-0.2,0.8-0.3,1.2-0.2c0.7,0,1.3,0.2,1.9,0.6l-1.1,2.1
	c-0.4-0.3-0.8-0.5-1.3-0.5c-1.2,0-1.9,1-1.9,2.8v5.2h-2.3L276.6,79.8L276.6,79.8z"/>
<path d="M291.7,79.8h2.3v10h-2.3v-1c-1.7,1.8-4.5,1.8-6.3,0.1c-0.1-0.1-0.2-0.2-0.2-0.3c-0.9-1.1-1.4-2.4-1.3-3.8
	c0-1.4,0.4-2.7,1.3-3.8c0.8-1,2.1-1.5,3.4-1.5c1.2,0,2.3,0.5,3.1,1.4V79.8z M286.2,84.8c0,0.8,0.2,1.7,0.8,2.3
	c0.5,0.6,1.2,0.9,2,0.9s1.5-0.3,2.1-0.9c1.1-1.4,1.1-3.3,0-4.6c-0.5-0.6-1.3-0.9-2-0.9c-0.8,0-1.5,0.3-2,0.9
	C286.5,83.1,286.2,83.9,286.2,84.8L286.2,84.8z"/>
<path d="M298.3,79.8l2.6,5.7l2.8-6.6l2.9,6.6l2.6-5.7h2.6l-5.2,10.7l-2.8-6.4l-2.8,6.4l-5.2-10.7H298.3z"/>
<path d="M315.8,72.4v17.3h-2.3V72.4H315.8z"/>
<path d="M318.4,75.6c0-0.8,0.7-1.5,1.5-1.5c0.4,0,0.8,0.2,1.1,0.4c0.3,0.3,0.4,0.7,0.4,1.1s-0.2,0.8-0.4,1.1
	c-0.3,0.3-0.7,0.4-1.1,0.4C319.1,77.2,318.4,76.5,318.4,75.6L318.4,75.6L318.4,75.6z M321.1,79.8v10h-2.3v-10H321.1z"/>
<path d="M324,79.8h2.3v0.9c0.7-0.8,1.7-1.2,2.7-1.2c1-0.1,2,0.3,2.7,1.1c0.6,0.9,0.9,1.9,0.8,3v6.1h-2.3v-5.6c0.1-0.7-0.1-1.4-0.4-2
	c-0.4-0.4-0.9-0.6-1.5-0.6c-0.6-0.1-1.3,0.2-1.6,0.8c-0.4,0.8-0.5,1.7-0.5,2.6v4.8H324V79.8z"/>
<path d="M345.2,89.5c0,0.5,0,0.9,0,1.2c0,0.3-0.1,0.7-0.1,1c-0.2,0.7-0.5,1.4-1,1.9c-0.9,1.1-2.3,1.6-3.7,1.6
	c-1.2,0.1-2.4-0.3-3.3-1.1c-0.9-0.8-1.5-1.9-1.5-3.1h2.3c0.1,0.4,0.2,0.8,0.4,1.1c0.5,0.6,1.3,1,2.1,0.9c1.7,0,2.5-1,2.5-3.1v-1.4
	c-1.6,1.8-4.4,1.9-6.2,0.2c-0.1-0.1-0.2-0.2-0.3-0.3c-0.9-1-1.4-2.4-1.3-3.7c0-1.4,0.4-2.7,1.3-3.7c0.8-1.1,2.1-1.7,3.5-1.6
	c1.2,0,2.4,0.5,3.1,1.4v-1.2h2.3L345.2,89.5L345.2,89.5z M342.9,84.8c0-0.8-0.2-1.7-0.8-2.3c-0.5-0.6-1.2-0.9-2-0.9s-1.6,0.3-2.1,1
	s-0.7,1.5-0.7,2.3s0.2,1.6,0.7,2.2c0.5,0.7,1.3,1,2.1,1c0.8,0,1.6-0.3,2.1-1S343,85.6,342.9,84.8z"/>
</svg>
