<?xml version="1.0" encoding="utf-8"?>
<!-- Generator: Adobe Illustrator 24.0.1, SVG Export Plug-In . SVG Version: 6.00 Build 0)  -->
<svg version="1.1" id="Layer_1" xmlns="http://www.w3.org/2000/svg" xmlns:xlink="http://www.w3.org/1999/xlink" x="0px" y="0px"
	 viewBox="0 0 341.5 147.8" style="enable-background:new 0 0 341.5 147.8;" xml:space="preserve">
<style type="text/css">
	.st0{fill:#FFFFFF;}
	.st1{fill:#FF0000;}
	.st2{fill:none;stroke:#000000;stroke-width:3.75;stroke-linejoin:round;}
</style>
<title>Uniform</title>
<rect x="1.9" y="1.9" class="st0" width="144" height="144"/>
<path class="st1" d="M1.9,1.9h72v144h72v-72H1.9V1.9z"/>
<path class="st2" d="M1.9,1.9h144v144H1.9V1.9z"/>
<path d="M165.8,62.6l-5.2-9h2.8l3.6,6.3l3.6-6.3h2.7l-5.2,9v6.8h-2.4L165.8,62.6L165.8,62.6z"/>
<path d="M172.8,64.4c0-1.4,0.5-2.7,1.6-3.7c1-1,2.4-1.5,3.8-1.5c1.4,0,2.8,0.5,3.8,1.5c2.1,2.1,2.1,5.4,0,7.5c-1,1-2.4,1.5-3.8,1.5
	c-1.4,0-2.8-0.5-3.8-1.5C173.3,67.2,172.8,65.8,172.8,64.4z M175.2,64.4c0,0.9,0.2,1.7,0.8,2.4c0.6,0.6,1.3,0.9,2.2,0.9
	c0.8,0,1.6-0.3,2.2-0.9c1.1-1.4,1.1-3.3,0-4.7c-0.6-0.6-1.4-0.9-2.2-0.9s-1.6,0.3-2.1,0.9C175.4,62.7,175.1,63.6,175.2,64.4
	L175.2,64.4z"/>
<path d="M188.2,59.4v5.7c0,1.7,0.6,2.5,2,2.5s2-0.8,2-2.5v-5.7h2.3v5.8c0,0.7-0.1,1.4-0.3,2.1c-0.2,0.5-0.6,1-1,1.4
	c-1.7,1.4-4.2,1.4-5.9,0c-0.4-0.4-0.8-0.9-1-1.4c-0.2-0.7-0.3-1.4-0.3-2.1v-5.8C186,59.4,188.2,59.4,188.2,59.4z"/>
<path d="M211.2,59.4h2.3v10h-2.3v-1.1c-1.7,1.8-4.5,1.8-6.3,0.1c-0.1-0.1-0.2-0.2-0.2-0.3c-0.9-1.1-1.4-2.4-1.3-3.8
	c0-1.4,0.4-2.7,1.3-3.8c0.8-1,2.1-1.5,3.4-1.5c1.2,0,2.3,0.5,3.1,1.4V59.4z M205.7,64.4c0,0.8,0.2,1.7,0.8,2.3
	c0.5,0.6,1.2,0.9,2,0.9s1.5-0.3,2.1-0.9c1.1-1.4,1.1-3.3,0-4.6c-0.5-0.6-1.2-0.9-2-0.9s-1.5,0.3-2,0.9
	C206,62.8,205.7,63.6,205.7,64.4L205.7,64.4z"/>
<path d="M216.4,59.4h2.3v0.9c0.3-0.4,0.7-0.7,1.1-0.9c0.4-0.2,0.8-0.3,1.2-0.2c0.7,0,1.3,0.2,1.9,0.6l-1,2.1
	c-0.4-0.3-0.8-0.5-1.3-0.5c-1.2,0-1.9,0.9-1.9,2.8v5.2h-2.3V59.4z"/>
<path d="M233.2,65H226c0,0.7,0.3,1.5,0.8,2s1.1,0.7,1.8,0.7c0.5,0,1-0.1,1.4-0.4c0.5-0.4,0.9-0.9,1.3-1.5l2,1.1
	c-0.3,0.5-0.6,0.9-1,1.3c-0.3,0.4-0.7,0.7-1.1,0.9c-0.4,0.2-0.8,0.4-1.2,0.5c-0.5,0.1-1,0.2-1.5,0.2c-1.3,0.1-2.7-0.5-3.6-1.4
	c-0.9-1.1-1.4-2.5-1.3-3.9c-0.1-1.4,0.4-2.8,1.3-3.8c0.9-1,2.2-1.5,3.5-1.4c1.3-0.1,2.6,0.4,3.5,1.4c0.9,1.1,1.4,2.5,1.3,3.9V65z
	 M230.9,63.1c-0.2-1.1-1.2-1.9-2.3-1.8c-0.3,0-0.5,0-0.8,0.1c-0.2,0.1-0.5,0.2-0.7,0.4s-0.4,0.4-0.5,0.6c-0.1,0.2-0.3,0.5-0.3,0.8
	L230.9,63.1L230.9,63.1z"/>
<path d="M242.2,59.4h2.3v0.9c0.3-0.4,0.7-0.7,1.1-0.9c0.4-0.2,0.8-0.3,1.2-0.2c0.7,0,1.3,0.2,1.9,0.6l-1,2.1
	c-0.4-0.3-0.8-0.5-1.3-0.5c-1.2,0-1.9,0.9-1.9,2.8v5.2h-2.3V59.4z"/>
<path d="M252.7,59.4v5.7c0,1.7,0.6,2.5,2,2.5c1.4,0,2-0.8,2-2.5v-5.7h2.3v5.8c0,0.7-0.1,1.4-0.3,2.1c-0.2,0.5-0.6,1-1,1.4
	c-1.7,1.4-4.2,1.4-5.9,0c-0.4-0.4-0.8-0.9-1-1.4c-0.2-0.7-0.3-1.4-0.3-2.1v-5.8C250.5,59.4,252.7,59.4,252.7,59.4z"/>
<path d="M261.9,59.4h2.3v0.9c0.7-0.8,1.7-1.2,2.7-1.2c1-0.1,2.1,0.3,2.8,1.1c0.6,0.9,0.9,1.9,0.8,3v6.2h-2.3v-5.6
	c0.1-0.7-0.1-1.4-0.4-2c-0.4-0.4-0.9-0.6-1.5-0.6c-0.6-0.1-1.3,0.2-1.7,0.8c-0.4,0.8-0.6,1.7-0.5,2.6v4.8h-2.3v-10H261.9z"/>
<path d="M273.4,59.4h2.3v0.9c0.7-0.8,1.7-1.2,2.7-1.2c1-0.1,2,0.3,2.7,1.1c0.6,0.9,0.9,1.9,0.8,3v6.2h-2.3v-5.6
	c0.1-0.7-0.1-1.4-0.4-2c-0.4-0.4-0.9-0.6-1.5-0.6c-0.6-0.1-1.3,0.2-1.6,0.8c-0.4,0.8-0.5,1.7-0.5,2.6v4.8h-2.3L273.4,59.4
	L273.4,59.4z"/>
<path d="M284.5,55.3c0-0.8,0.7-1.5,1.5-1.5c0.4,0,0.8,0.2,1.1,0.4c0.3,0.3,0.4,0.7,0.4,1.1c0,0.4-0.2,0.8-0.4,1.1
	c-0.3,0.3-0.7,0.4-1.1,0.4C285.2,56.8,284.5,56.1,284.5,55.3L284.5,55.3z M287.2,59.4v10h-2.3v-10H287.2z"/>
<path d="M290.1,59.4h2.3v0.9c0.7-0.8,1.7-1.2,2.7-1.2c1-0.1,2,0.3,2.7,1.1c0.6,0.9,0.9,1.9,0.8,3v6.2h-2.3v-5.6
	c0.1-0.7-0.1-1.4-0.4-2c-0.4-0.4-0.9-0.6-1.5-0.6c-0.6-0.1-1.3,0.2-1.6,0.8c-0.4,0.8-0.6,1.7-0.5,2.6v4.8H290L290.1,59.4z"/>
<path d="M311.3,69.2c0,0.5,0,0.9,0,1.2s-0.1,0.7-0.1,1c-0.2,0.7-0.5,1.4-1,1.9c-0.9,1.1-2.3,1.6-3.7,1.6c-1.2,0-2.4-0.3-3.3-1.1
	c-0.9-0.8-1.5-1.9-1.5-3.1h2.3c0.1,0.4,0.2,0.8,0.4,1.1c0.5,0.6,1.3,1,2.1,0.9c1.7,0,2.5-1,2.5-3.1v-1.4c-1.6,1.8-4.4,1.9-6.2,0.2
	c-0.1-0.1-0.2-0.2-0.3-0.3c-0.9-1-1.4-2.4-1.3-3.7c0-1.3,0.4-2.7,1.2-3.7c0.8-1.1,2.1-1.7,3.5-1.6c1.2,0,2.4,0.5,3.1,1.4v-1.2h2.3
	V69.2z M309.1,64.5c0-0.8-0.2-1.7-0.8-2.3c-0.5-0.6-1.2-0.9-2-0.9s-1.6,0.3-2.1,1s-0.7,1.5-0.7,2.3c0,0.8,0.2,1.6,0.7,2.2
	c0.5,0.7,1.3,1,2.1,1c0.8,0,1.6-0.4,2.1-1C308.9,66.1,309.1,65.3,309.1,64.5z"/>
<path d="M161.8,80.5c0-0.8,0.7-1.5,1.5-1.5c0.4,0,0.8,0.2,1.1,0.4c0.3,0.3,0.4,0.7,0.4,1.1s-0.2,0.8-0.4,1.1c-0.3,0.3-0.6,0.4-1,0.4
	C162.5,82.1,161.8,81.4,161.8,80.5L161.8,80.5L161.8,80.5z M164.4,84.6v10h-2.3v-10H164.4z"/>
<path d="M167.3,84.6h2.3v0.9c0.7-0.8,1.7-1.2,2.7-1.2c1-0.1,2,0.3,2.7,1.1c0.6,0.9,0.9,1.9,0.8,3v6.1h-2.3V89c0.1-0.7-0.1-1.4-0.4-2
	c-0.4-0.4-0.9-0.6-1.5-0.6c-0.6-0.1-1.3,0.2-1.6,0.8c-0.4,0.8-0.5,1.7-0.5,2.6v4.8h-2.3L167.3,84.6z"/>
<path d="M181.2,86.8v7.8h-2.3v-7.8h-1v-2.2h1V81h2.3v3.7h1.8v2.2L181.2,86.8z"/>
<path d="M184.3,89.6c0-1.4,0.5-2.7,1.5-3.7c2.1-2,5.5-2,7.6,0c2.1,2.1,2.1,5.4,0,7.5c-1,1-2.4,1.5-3.8,1.5c-1.4,0-2.8-0.5-3.8-1.5
	S184.2,91,184.3,89.6z M186.6,89.6c0,0.9,0.2,1.7,0.8,2.4c0.6,0.6,1.4,0.9,2.2,0.9s1.6-0.3,2.2-0.9c1.1-1.4,1.1-3.3,0-4.7
	c-1.2-1.2-3.1-1.2-4.3,0C186.9,87.9,186.6,88.8,186.6,89.6L186.6,89.6z"/>
<path d="M211.2,77.3h2.3v17.3h-2.3v-1c-0.8,0.8-1.9,1.3-3.1,1.3c-1.3,0-2.6-0.5-3.4-1.5c-0.9-1.1-1.4-2.4-1.3-3.8
	c0-1.4,0.4-2.7,1.3-3.7c0.8-1,2.1-1.5,3.4-1.5c1.2,0,2.3,0.5,3.1,1.4V77.3z M205.7,89.6c0,0.8,0.2,1.7,0.8,2.3
	c0.5,0.6,1.2,0.9,2,0.9s1.6-0.3,2.1-0.9c1.1-1.4,1.1-3.3,0-4.6c-0.5-0.6-1.3-0.9-2.1-0.9s-1.5,0.3-2,0.9
	C206,88,205.7,88.8,205.7,89.6L205.7,89.6z"/>
<path d="M223.8,84.6h2.3v10h-2.3v-1c-1.7,1.8-4.5,1.8-6.3,0.1c-0.1-0.1-0.2-0.2-0.2-0.3c-0.9-1.1-1.4-2.4-1.3-3.8
	c0-1.4,0.4-2.7,1.3-3.8c0.8-1,2.1-1.6,3.3-1.6s2.3,0.5,3.1,1.4L223.8,84.6z M218.3,89.6c0,0.8,0.2,1.7,0.8,2.3
	c0.5,0.6,1.2,0.9,2,0.9s1.5-0.3,2.1-0.9c1.1-1.4,1.1-3.3,0-4.6c-0.5-0.6-1.3-0.9-2-0.9c-0.8,0-1.5,0.3-2,0.9
	C218.6,88,218.3,88.8,218.3,89.6L218.3,89.6z"/>
<path d="M229,84.6h2.3v0.9c0.7-0.8,1.7-1.2,2.7-1.2c1-0.1,2,0.3,2.7,1.1c0.6,0.9,0.9,1.9,0.8,3v6.1h-2.3V89c0.1-0.7-0.1-1.4-0.4-2
	c-0.4-0.4-0.9-0.6-1.5-0.6c-0.6-0.1-1.3,0.2-1.6,0.8c-0.4,0.8-0.5,1.7-0.5,2.6v4.8H229V84.6z"/>
<path d="M250.2,94.4c0,0.5,0,0.9,0,1.2c0,0.3-0.1,0.7-0.1,1c-0.2,0.7-0.5,1.4-1,1.9c-0.9,1.1-2.3,1.6-3.7,1.6
	c-1.2,0-2.4-0.3-3.3-1.1c-0.9-0.8-1.5-1.9-1.5-3.1h2.3c0.1,0.4,0.2,0.8,0.5,1.1c0.5,0.6,1.3,1,2.1,0.9c1.7,0,2.5-1,2.5-3.1v-1.4
	c-1.6,1.8-4.4,1.9-6.2,0.2c-0.1-0.1-0.2-0.2-0.3-0.3c-0.9-1-1.4-2.4-1.3-3.7c0-1.3,0.4-2.7,1.2-3.7c0.8-1.1,2.1-1.7,3.5-1.6
	c1.2,0,2.4,0.5,3.1,1.4v-1.2h2.3L250.2,94.4z M248,89.7c0-0.8-0.2-1.7-0.8-2.3c-0.5-0.6-1.2-0.9-2-0.9s-1.6,0.3-2.1,1
	s-0.7,1.4-0.7,2.3c0,0.8,0.2,1.6,0.7,2.2c0.5,0.7,1.3,1,2.1,1s1.6-0.3,2.1-1C247.8,91.3,248,90.5,248,89.7z"/>
<path d="M262.2,90.2H255c0,0.7,0.3,1.5,0.8,2c0.9,0.8,2.2,1,3.2,0.3c0.5-0.4,0.9-0.9,1.3-1.5l2,1.1c-0.3,0.5-0.6,0.9-1,1.3
	c-0.3,0.4-0.7,0.7-1.1,0.9c-0.4,0.2-0.8,0.4-1.2,0.5c-0.5,0.1-1,0.2-1.5,0.2c-1.3,0.1-2.7-0.5-3.6-1.4c-0.9-1.1-1.4-2.4-1.4-3.8
	c-0.1-1.4,0.4-2.8,1.3-3.8c0.9-1,2.2-1.5,3.5-1.4c1.3-0.1,2.6,0.4,3.5,1.4c0.9,1.1,1.4,2.5,1.3,3.9L262.2,90.2z M259.8,88.3
	c-0.2-1.1-1.2-1.9-2.3-1.8c-0.3,0-0.5,0-0.8,0.1c-0.2,0.1-0.5,0.2-0.7,0.4c-0.2,0.2-0.4,0.4-0.5,0.6s-0.3,0.5-0.3,0.8L259.8,88.3z"
	/>
<path d="M264.7,84.6h2.3v0.9c0.3-0.4,0.7-0.7,1.1-0.9c0.4-0.2,0.8-0.3,1.2-0.2c0.7,0,1.3,0.2,1.9,0.6l-1.1,2.1
	c-0.4-0.3-0.8-0.5-1.3-0.5c-1.3,0-1.9,1-1.9,2.8v5.2h-2.3L264.7,84.6L264.7,84.6z"/>
</svg>
