<?xml version="1.0" encoding="utf-8"?>
<!-- Generator: Adobe Illustrator 24.0.1, SVG Export Plug-In . SVG Version: 6.00 Build 0)  -->
<svg version="1.1" id="Layer_1" xmlns="http://www.w3.org/2000/svg" xmlns:xlink="http://www.w3.org/1999/xlink" x="0px" y="0px"
	 viewBox="0 0 355.6 148.3" style="enable-background:new 0 0 355.6 148.3;" xml:space="preserve">
<style type="text/css">
	.st0{fill:#FFFFFF;}
	.st1{clip-path:url(#SVGID_2_);}
	.st2{stroke:#FF0000;stroke-width:28.8;}
	.st3{fill:none;stroke:#000000;stroke-width:3.75;stroke-linejoin:round;}
</style>
<title>Victor</title>
<rect x="2.2" y="1.9" class="st0" width="144" height="144"/>
<g>
	<g>
		<defs>
			<rect id="SVGID_1_" x="2.2" y="1.9" width="144" height="144"/>
		</defs>
		<clipPath id="SVGID_2_">
			<use xlink:href="#SVGID_1_"  style="overflow:visible;"/>
		</clipPath>
		<g class="st1">
			<path class="st2" d="M2.2,1.9l144,144 M146.2,1.9L54.1,94.1L2.2,145.9"/>
		</g>
	</g>
</g>
<path class="st3" d="M2.2,1.9h144v144H2.2V1.9z"/>
<path d="M161.7,59.4v15.8h-2.4V59.4H161.7z"/>
<path d="M171.6,65.3h2.3v0.9c0.3-0.4,0.7-0.7,1.1-0.9c0.4-0.2,0.8-0.3,1.2-0.3c0.7,0,1.3,0.2,1.9,0.6l-1.1,2.1
	c-0.4-0.3-0.8-0.5-1.3-0.5c-1.3,0-1.9,1-1.9,2.8v5.2h-2.3L171.6,65.3z"/>
<path d="M188.4,70.8h-7.1c0,0.7,0.3,1.5,0.8,2s1.1,0.7,1.8,0.7c0.5,0,1-0.1,1.4-0.4c0.5-0.5,0.9-1,1.3-1.6l1.9,1.1
	c-0.3,0.5-0.6,0.9-1,1.3c-0.3,0.4-0.7,0.7-1.1,0.9c-0.4,0.2-0.8,0.4-1.2,0.5c-0.5,0.1-1,0.2-1.4,0.2c-1.3,0.1-2.7-0.5-3.6-1.4
	c-0.9-1.1-1.4-2.4-1.4-3.8c-0.1-1.4,0.4-2.8,1.3-3.8c0.9-1,2.2-1.5,3.5-1.4c1.3-0.1,2.6,0.5,3.5,1.4c0.9,1.1,1.4,2.5,1.3,3.9V70.8z
	 M186,68.9c-0.2-1.1-1.2-1.9-2.3-1.8c-0.3,0-0.5,0-0.8,0.1c-0.2,0.1-0.5,0.2-0.7,0.4c-0.2,0.2-0.4,0.4-0.5,0.6
	c-0.2,0.2-0.3,0.5-0.3,0.8L186,68.9L186,68.9z"/>
<path d="M198.3,80.7v-6.5c-1.6,1.8-4.4,1.9-6.2,0.2c-0.1-0.1-0.2-0.2-0.3-0.3c-0.9-1-1.4-2.4-1.3-3.8c-0.1-1.4,0.4-2.7,1.3-3.8
	c0.8-1,2.1-1.5,3.4-1.5c1.2,0,2.3,0.5,3.1,1.4v-1.1h2.3v15.4C200.6,80.7,198.3,80.7,198.3,80.7z M192.8,70.2c0,0.9,0.2,1.7,0.8,2.3
	c0.5,0.6,1.2,0.9,2,0.9s1.5-0.3,2.1-0.9s0.8-1.5,0.8-2.3s-0.2-1.7-0.8-2.3c-0.5-0.6-1.2-0.9-2-0.9s-1.5,0.3-2,0.9
	C193.1,68.6,192.8,69.4,192.8,70.2z"/>
<path d="M206,65.3V71c0,1.7,0.6,2.5,2,2.5s2-0.8,2-2.5v-5.7h2.3v5.8c0,0.7-0.1,1.4-0.3,2.1c-0.2,0.5-0.6,1-1,1.4
	c-1.8,1.3-4.2,1.3-5.9,0c-0.4-0.4-0.8-0.9-1-1.4c-0.2-0.7-0.3-1.4-0.3-2.1v-5.8H206z"/>
<path d="M214.8,61.1c0-0.4,0.2-0.7,0.4-1c0.3-0.3,0.7-0.4,1.1-0.4c0.4,0,0.8,0.2,1.1,0.4c0.3,0.3,0.4,0.7,0.4,1.1
	c0,0.4-0.2,0.8-0.4,1.1c-0.3,0.3-0.7,0.5-1.1,0.4C215.5,62.7,214.8,62,214.8,61.1C214.8,61.2,214.8,61.2,214.8,61.1L214.8,61.1z
	 M217.5,65.3v10h-2.3v-10H217.5z"/>
<path d="M220.4,65.3h2.3v0.9c0.3-0.4,0.7-0.7,1.1-0.9c0.4-0.2,0.8-0.3,1.2-0.3c0.7,0,1.3,0.2,1.9,0.6l-1.1,2.1
	c-0.4-0.3-0.8-0.5-1.3-0.5c-1.3,0-1.9,1-1.9,2.8v5.2h-2.3v-9.9H220.4z"/>
<path d="M237.2,70.8H230c0,0.7,0.3,1.5,0.8,2s1.1,0.7,1.8,0.7c0.5,0,1-0.1,1.4-0.4c0.5-0.5,0.9-1,1.3-1.6l1.9,1.1
	c-0.3,0.5-0.6,0.9-1,1.3c-0.3,0.4-0.7,0.7-1.1,0.9c-0.4,0.2-0.8,0.4-1.2,0.5c-0.5,0.1-1,0.2-1.4,0.2c-1.3,0.1-2.7-0.5-3.6-1.4
	c-0.9-1.1-1.4-2.4-1.4-3.8c-0.1-1.4,0.4-2.8,1.3-3.8c0.9-1,2.2-1.5,3.5-1.4c1.3-0.1,2.6,0.5,3.5,1.4c0.9,1.1,1.4,2.5,1.3,3.9
	L237.2,70.8z M234.8,68.9c-0.2-1.1-1.2-1.9-2.4-1.8c-0.3,0-0.5,0-0.8,0.1c-0.2,0.1-0.5,0.2-0.7,0.4c-0.2,0.2-0.4,0.4-0.5,0.6
	c-0.2,0.2-0.3,0.5-0.3,0.8L234.8,68.9L234.8,68.9z"/>
<path d="M253.6,65.3h2.3v10h-2.3v-1c-1.7,1.8-4.5,1.8-6.3,0.1c-0.1-0.1-0.1-0.1-0.2-0.2c-0.9-1.1-1.4-2.4-1.4-3.8
	c-0.1-1.4,0.4-2.7,1.3-3.8c0.8-1,2.1-1.5,3.4-1.5c1.2,0,2.3,0.5,3.1,1.4L253.6,65.3z M248.1,70.3c0,0.8,0.2,1.7,0.8,2.3
	c0.5,0.6,1.2,0.9,2,0.9s1.5-0.3,2.1-0.9c1.1-1.4,1.1-3.3,0-4.6c-0.5-0.6-1.3-0.9-2-0.9c-0.8,0-1.5,0.3-2,0.9
	C248.4,68.7,248.1,69.4,248.1,70.3L248.1,70.3z"/>
<path d="M264.6,67l-1.9,1c-0.3-0.6-0.7-0.9-1.1-0.9c-0.2,0-0.4,0.1-0.5,0.2s-0.2,0.3-0.2,0.5c0,0.4,0.5,0.8,1.3,1.1
	c0.9,0.3,1.7,0.8,2.5,1.5c0.4,0.5,0.7,1.1,0.6,1.8c0,0.9-0.4,1.8-1.1,2.4c-1.6,1.4-4,1.2-5.4-0.4c-0.3-0.3-0.5-0.7-0.7-1.1l2-0.9
	c0.2,0.3,0.4,0.6,0.6,0.9c0.3,0.3,0.6,0.4,1,0.4c0.8,0,1.2-0.3,1.2-1.1c0-0.4-0.3-0.8-0.9-1.2l-0.7-0.3l-0.7-0.3
	c-0.5-0.2-1-0.6-1.4-1c-0.4-0.5-0.5-1-0.5-1.6c0-0.8,0.3-1.6,0.9-2.2s1.4-0.9,2.2-0.8C263,65,264.2,65.8,264.6,67z"/>
<path d="M273.1,67l-1.9,1c-0.3-0.6-0.7-0.9-1.1-0.9c-0.2,0-0.4,0.1-0.5,0.2s-0.2,0.3-0.2,0.5c0,0.4,0.4,0.8,1.3,1.1
	c0.9,0.3,1.7,0.8,2.5,1.5c0.4,0.5,0.7,1.1,0.6,1.8c0,0.9-0.4,1.8-1.1,2.4c-1.6,1.4-4,1.2-5.4-0.4c-0.3-0.3-0.5-0.7-0.7-1.1l2-0.9
	c0.2,0.3,0.4,0.6,0.6,0.9c0.3,0.3,0.6,0.4,1,0.4c0.8,0,1.2-0.3,1.2-1.1c0-0.4-0.3-0.8-0.9-1.2l-0.7-0.3l-0.7-0.3
	c-0.5-0.2-1-0.6-1.4-1c-0.4-0.5-0.6-1-0.5-1.6c0-0.8,0.3-1.6,0.9-2.2s1.4-0.9,2.2-0.8C271.6,65,272.7,65.8,273.1,67z"/>
<path d="M275.5,61.1c0-0.8,0.7-1.5,1.6-1.4c0.4,0,0.7,0.2,1,0.4c0.3,0.3,0.5,0.7,0.4,1.1c0,0.4-0.2,0.8-0.4,1.1
	c-0.3,0.3-0.7,0.5-1,0.4c-0.4,0-0.8-0.1-1.1-0.4C275.6,62,275.4,61.6,275.5,61.1z M278.1,65.3v10h-2.3v-10H278.1z"/>
<path d="M286.9,67l-1.9,1c-0.3-0.6-0.7-0.9-1.1-0.9c-0.2,0-0.4,0.1-0.5,0.2s-0.2,0.3-0.2,0.5c0,0.4,0.4,0.8,1.3,1.1
	c0.9,0.3,1.7,0.8,2.5,1.5c0.4,0.5,0.7,1.1,0.6,1.8c0,0.9-0.4,1.8-1.1,2.4c-1.6,1.4-4,1.2-5.4-0.4c-0.3-0.3-0.5-0.7-0.7-1.1l2-0.9
	c0.2,0.3,0.4,0.6,0.6,0.9c0.3,0.3,0.6,0.4,1,0.4c0.8,0,1.2-0.3,1.2-1.1c0-0.4-0.3-0.8-0.9-1.2l-0.7-0.3l-0.7-0.3
	c-0.5-0.2-1-0.6-1.4-1c-0.4-0.5-0.6-1-0.5-1.6c0-0.8,0.3-1.6,0.9-2.2s1.4-0.9,2.2-0.8C285.3,65,286.4,65.8,286.9,67z"/>
<path d="M292,67.4v7.8h-2.3v-7.8h-1v-2.2h1v-3.7h2.3v3.7h1.8v2.2H292z"/>
<path d="M302.9,65.3h2.3v10h-2.3v-1c-1.7,1.8-4.5,1.8-6.3,0.1c-0.1-0.1-0.1-0.1-0.2-0.2c-0.9-1.1-1.4-2.4-1.4-3.8
	c-0.1-1.4,0.4-2.7,1.4-3.8c0.8-1,2.1-1.5,3.4-1.5c1.2,0,2.3,0.5,3.1,1.4V65.3z M297.4,70.3c0,0.8,0.2,1.7,0.8,2.3
	c0.5,0.6,1.2,0.9,2,0.9s1.5-0.3,2.1-0.9c1.1-1.4,1.1-3.3,0-4.6c-0.5-0.6-1.3-0.9-2-0.9c-0.8,0-1.5,0.3-2,0.9
	C297.7,68.7,297.4,69.4,297.4,70.3L297.4,70.3z"/>
<path d="M308.1,65.3h2.4v0.9c0.7-0.8,1.7-1.2,2.7-1.2c1-0.1,2,0.3,2.7,1.1c0.6,0.9,0.9,2,0.8,3.1v6.1h-2.3v-5.6
	c0.1-0.7-0.1-1.4-0.4-2c-0.4-0.4-0.9-0.6-1.5-0.6c-0.6-0.1-1.3,0.2-1.6,0.8c-0.4,0.8-0.6,1.7-0.5,2.6v4.8h-2.3L308.1,65.3z"/>
<path d="M327.4,65.7v3.1c-0.4-0.5-0.9-1-1.4-1.3c-1.2-0.7-2.7-0.4-3.6,0.6c-1.1,1.3-1.1,3.3,0,4.6c0.5,0.6,1.3,0.9,2.1,0.9
	c0.5,0,1-0.1,1.5-0.4c0.6-0.4,1-0.8,1.4-1.3v3c-0.9,0.5-1.8,0.7-2.8,0.7c-1.4,0-2.8-0.5-3.9-1.5c-1-1-1.6-2.3-1.6-3.8
	c0-1.4,0.6-2.8,1.6-3.8s2.4-1.6,3.9-1.5C325.6,65,326.5,65.2,327.4,65.7z"/>
<path d="M338.7,70.8h-7.1c0,0.7,0.3,1.5,0.8,2s1.1,0.7,1.8,0.7c0.5,0,1-0.1,1.4-0.4c0.5-0.5,0.9-1,1.3-1.6l2,1.1
	c-0.3,0.5-0.6,0.9-1,1.3c-0.3,0.4-0.7,0.7-1.1,0.9c-0.4,0.2-0.8,0.4-1.2,0.5c-0.5,0.1-1,0.2-1.5,0.2c-1.4,0.1-2.7-0.4-3.6-1.4
	c-0.9-1.1-1.4-2.4-1.4-3.8c-0.1-1.4,0.4-2.8,1.4-3.8c0.9-1,2.2-1.5,3.5-1.4c1.3-0.1,2.6,0.4,3.5,1.4c0.9,1.1,1.4,2.5,1.3,3.9
	L338.7,70.8z M336.4,68.9c-0.2-1.1-1.2-1.9-2.3-1.8c-0.3,0-0.5,0-0.8,0.1c-0.2,0.1-0.5,0.2-0.7,0.4c-0.2,0.2-0.4,0.4-0.5,0.6
	s-0.3,0.5-0.3,0.8L336.4,68.9L336.4,68.9z"/>
</svg>
