<?xml version="1.0" encoding="utf-8"?>
<!-- Generator: Adobe Illustrator 24.0.1, SVG Export Plug-In . SVG Version: 6.00 Build 0)  -->
<svg version="1.1" id="Layer_1" xmlns="http://www.w3.org/2000/svg" xmlns:xlink="http://www.w3.org/1999/xlink" x="0px" y="0px"
	 viewBox="0 0 333.5 147.8" style="enable-background:new 0 0 333.5 147.8;" xml:space="preserve">
<style type="text/css">
	.st0{fill:#FFFFFF;}
	.st1{stroke:#000094;stroke-width:36;}
	.st2{fill:none;stroke:#000000;stroke-width:3.75;stroke-linejoin:round;}
</style>
<title>Xray</title>
<rect x="1.9" y="1.9" class="st0" width="144" height="144"/>
<path class="st1" d="M73.9,1.9v144 M1.9,73.9h144"/>
<path class="st2" d="M1.9,1.9h144v144H1.9V1.9z"/>
<path d="M166.1,28.6l-1.9,1.2c-0.2-0.5-0.6-0.9-1-1.2c-0.4-0.2-0.9-0.3-1.3-0.3c-0.6,0-1.2,0.2-1.6,0.6c-0.4,0.3-0.7,0.9-0.6,1.4
	c0,0.8,0.6,1.4,1.7,1.9l1.6,0.7c1.1,0.4,2.1,1,2.8,1.9c0.6,0.8,0.9,1.8,0.9,2.8c0,1.4-0.5,2.7-1.5,3.6c-1,1-2.3,1.5-3.6,1.4
	c-1.2,0-2.5-0.4-3.4-1.2c-0.9-0.9-1.5-2.1-1.6-3.4l2.4-0.5c0,0.7,0.2,1.3,0.6,1.9c0.9,1.2,2.7,1.4,3.8,0.4c0.1,0,0.1-0.1,0.2-0.1
	c0.7-0.7,0.9-1.8,0.6-2.7c-0.1-0.3-0.2-0.5-0.4-0.7s-0.4-0.4-0.7-0.6c-0.3-0.2-0.7-0.4-1-0.5l-1.5-0.6c-2.2-0.9-3.3-2.2-3.3-4
	c0-1.2,0.5-2.3,1.4-3c0.9-0.8,2.1-1.3,3.4-1.2C163.7,25.9,165.4,27,166.1,28.6z"/>
<path d="M171.7,34.2V42h-2.3v-7.8h-1V32h1v-3.7h2.3V32h1.8v2.2H171.7z"/>
<path d="M174.8,37c0-1.4,0.5-2.7,1.5-3.7s2.4-1.5,3.8-1.5c1.4,0,2.8,0.5,3.8,1.5c2.1,2.1,2.1,5.4,0,7.5c-1,1-2.4,1.5-3.8,1.5
	c-1.4,0-2.8-0.5-3.7-1.5C175.3,39.8,174.7,38.4,174.8,37z M177.1,37c0,0.9,0.2,1.7,0.8,2.4c0.6,0.6,1.3,0.9,2.2,0.9
	c0.8,0,1.6-0.3,2.2-0.9c1.1-1.4,1.1-3.3,0-4.7c-0.6-0.6-1.4-0.9-2.2-0.9s-1.6,0.3-2.1,0.9C177.4,35.3,177.1,36.2,177.1,37L177.1,37z
	"/>
<path d="M190.2,47.5h-2.3V32.1h2.3v1.1c1.7-1.8,4.5-1.8,6.2-0.1c0.1,0.1,0.2,0.2,0.3,0.3c0.9,1,1.4,2.4,1.4,3.8
	c0,1.4-0.4,2.7-1.4,3.7c-1.6,1.8-4.4,2-6.2,0.4c-0.1-0.1-0.2-0.2-0.3-0.3V47.5z M195.6,37.1c0-0.8-0.2-1.7-0.8-2.3
	c-0.5-0.6-1.2-0.9-2-0.9s-1.5,0.3-2.1,0.9c-0.5,0.6-0.8,1.5-0.8,2.3s0.2,1.7,0.8,2.3c0.5,0.6,1.3,0.9,2.1,0.9s1.5-0.3,2-0.9
	C195.4,38.8,195.7,38,195.6,37.1z"/>
<path d="M214.7,32.5v3.1c-0.4-0.5-0.9-1-1.4-1.3c-0.4-0.3-0.9-0.4-1.4-0.4c-0.8,0-1.6,0.3-2.2,0.9c-0.6,0.6-0.9,1.4-0.9,2.3
	c0,0.8,0.3,1.7,0.8,2.3s1.3,0.9,2.1,0.9c0.5,0,1-0.1,1.5-0.4c0.6-0.4,1-0.8,1.4-1.4v3c-0.9,0.5-1.8,0.7-2.8,0.7
	c-1.4,0-2.8-0.5-3.9-1.5c-1-1-1.6-2.3-1.6-3.7s0.5-2.8,1.6-3.8c1-1,2.4-1.6,3.9-1.5C212.9,31.8,213.8,32,214.7,32.5z"/>
<path d="M224.3,32.1h2.3v10h-2.3V41c-1.7,1.8-4.5,1.8-6.3,0.1c-0.1-0.1-0.2-0.2-0.2-0.3c-0.9-1.1-1.4-2.4-1.4-3.8
	c0-1.4,0.4-2.7,1.4-3.8c0.8-1,2.1-1.5,3.4-1.5c1.2,0,2.3,0.5,3.1,1.4V32.1z M218.8,37.1c0,0.8,0.2,1.7,0.8,2.3
	c0.5,0.6,1.2,0.9,2,0.9s1.5-0.3,2.1-0.9c1.1-1.4,1.1-3.3,0-4.6c-1-1.1-2.8-1.2-3.9-0.1l-0.1,0.1C219.1,35.4,218.8,36.2,218.8,37.1
	L218.8,37.1z"/>
<path d="M229.5,32.1h2.3V33c0.3-0.4,0.7-0.7,1.1-0.9c0.4-0.2,0.8-0.3,1.2-0.3c0.7,0,1.3,0.2,1.9,0.6l-1.1,2.1
	c-0.4-0.3-0.8-0.5-1.3-0.5c-1.3,0-1.9,1-1.9,2.8V42h-2.3v-9.9H229.5z"/>
<path d="M237.7,32.1h2.3V33c0.3-0.4,0.7-0.7,1.1-0.9c0.4-0.2,0.8-0.3,1.2-0.3c0.7,0,1.3,0.2,1.9,0.6l-1,2.1
	c-0.4-0.3-0.8-0.4-1.3-0.5c-1.3,0-1.9,1-1.9,2.8V42h-2.3V32.1z"/>
<path d="M249.6,40.2l-4.5-8.1h2.7l3.1,5.8l2.9-5.8h2.6l-8,15.4h-2.6L249.6,40.2z"/>
<path d="M257.5,27.9c0-0.8,0.7-1.5,1.5-1.5c0.4,0,0.8,0.2,1,0.4c0.3,0.3,0.4,0.7,0.4,1.1s-0.2,0.8-0.4,1.1c-0.3,0.3-0.7,0.4-1.1,0.4
	s-0.8-0.2-1.1-0.4C257.7,28.7,257.5,28.3,257.5,27.9z M260.2,32.1v10h-2.3v-10H260.2z"/>
<path d="M263.1,32.1h2.3V33c0.7-0.8,1.7-1.2,2.7-1.2c1-0.1,2,0.3,2.7,1.1c0.6,0.9,0.9,1.9,0.8,3v6.2h-2.3v-5.6
	c0.1-0.7-0.1-1.4-0.4-2c-0.4-0.4-0.9-0.6-1.5-0.6c-0.6-0.1-1.3,0.2-1.6,0.8c-0.4,0.8-0.5,1.7-0.5,2.6v4.8H263L263.1,32.1L263.1,32.1
	z"/>
<path d="M284.3,41.9c0,0.5,0,0.9,0,1.2s-0.1,0.6-0.1,1c-0.2,0.7-0.5,1.4-1,1.9c-0.9,1.1-2.3,1.6-3.7,1.6c-1.2,0-2.4-0.3-3.3-1.1
	s-1.5-1.9-1.5-3.1h2.3c0.1,0.4,0.2,0.8,0.4,1.1c0.5,0.6,1.3,1,2.1,0.9c1.7,0,2.5-1,2.5-3.1V41c-0.8,0.9-2,1.4-3.2,1.4
	c-1.3,0-2.5-0.5-3.3-1.5c-0.9-1-1.4-2.4-1.3-3.7c0-1.3,0.4-2.7,1.2-3.7c0.8-1.1,2.1-1.7,3.5-1.6c1.2,0,2.4,0.5,3.1,1.4v-1.1h2.3
	V41.9z M282.1,37.1c0.1-0.9-0.2-1.7-0.8-2.4c-0.5-0.6-1.2-0.9-2-0.9s-1.6,0.3-2.1,1s-0.7,1.4-0.7,2.3c0,0.8,0.2,1.6,0.7,2.2
	c0.5,0.7,1.3,1,2.1,1c0.8,0,1.6-0.3,2.1-1C281.9,38.7,282.1,37.9,282.1,37.1L282.1,37.1z"/>
<path d="M293.2,37c0-1.4,0.5-2.7,1.5-3.7c2.1-2,5.5-2,7.6,0c2.1,2.1,2,5.5,0,7.5c-1,1-2.4,1.5-3.8,1.5c-2.9,0-5.2-2.3-5.3-5.1
	C293.2,37.2,293.2,37.1,293.2,37L293.2,37z M295.6,37c0,0.9,0.2,1.7,0.8,2.4c0.6,0.6,1.4,0.9,2.2,0.9c0.8,0,1.6-0.3,2.2-0.9
	c1.1-1.4,1.1-3.3,0-4.7c-1.2-1.2-3.1-1.2-4.3,0C295.8,35.3,295.5,36.2,295.6,37L295.6,37z"/>
<path d="M308.6,32.1v5.7c0,1.7,0.6,2.5,2,2.5s2-0.8,2-2.5v-5.7h2.3v5.8c0,0.7-0.1,1.4-0.3,2.1c-0.2,0.5-0.6,1-1,1.4
	c-1.7,1.4-4.2,1.4-5.9,0c-0.4-0.4-0.8-0.9-1-1.4c-0.2-0.7-0.4-1.4-0.4-2.1v-5.8H308.6z"/>
<path d="M320.1,34.2V42h-2.3v-7.8h-1V32h1v-3.7h2.3V32h1.8v2.2H320.1z"/>
<path d="M159.9,65.4l-4.5-8.1h2.7l3.1,5.7l2.9-5.7h2.6l-8,15.4H156L159.9,65.4z"/>
<path d="M167.3,62.2c0-1.4,0.5-2.7,1.6-3.7c1-1,2.4-1.5,3.8-1.5c1.4,0,2.8,0.5,3.8,1.5c2.1,2.1,2.1,5.4,0,7.5c-1,1-2.4,1.5-3.8,1.5
	c-2.9,0-5.2-2.3-5.3-5.1C167.3,62.3,167.3,62.3,167.3,62.2z M169.6,62.2c0,0.9,0.2,1.7,0.8,2.4c1.2,1.2,3.1,1.2,4.3,0
	c1.1-1.4,1.1-3.3,0-4.7c-0.6-0.6-1.3-0.9-2.2-0.9c-0.8,0-1.6,0.3-2.1,0.9C169.9,60.5,169.6,61.4,169.6,62.2L169.6,62.2z"/>
<path d="M182.7,57.3V63c0,1.7,0.6,2.5,2,2.5s1.9-0.8,1.9-2.5v-5.7h2.3v5.8c0,0.7-0.1,1.4-0.3,2.1c-0.2,0.5-0.6,1-1,1.4
	c-1.7,1.4-4.2,1.4-5.9,0c-0.4-0.4-0.8-0.9-1-1.4c-0.2-0.7-0.3-1.4-0.3-2.1v-5.8H182.7z"/>
<path d="M191.8,57.3h2.3v0.9c0.3-0.4,0.7-0.7,1.1-0.9c0.4-0.2,0.8-0.3,1.2-0.2c0.7,0,1.3,0.2,1.9,0.6l-1.1,2.1
	c-0.4-0.3-0.8-0.4-1.3-0.5c-1.3,0-1.9,1-1.9,2.8v5.2h-2.3L191.8,57.3z"/>
<path d="M205.8,53.1c0-0.8,0.7-1.5,1.5-1.5c0.4,0,0.8,0.2,1.1,0.4c0.3,0.3,0.5,0.7,0.4,1.1c0,0.4-0.2,0.8-0.4,1.1
	c-0.3,0.3-0.7,0.4-1.1,0.4c-0.4,0-0.8-0.2-1.1-0.4C206,53.9,205.8,53.5,205.8,53.1z M208.5,57.3v10h-2.3v-10
	C206.2,57.3,208.5,57.3,208.5,57.3z"/>
<path d="M211.4,57.3h2.3v0.9c0.7-0.8,1.7-1.2,2.7-1.2c1-0.1,2,0.3,2.7,1.1c0.6,0.9,0.9,1.9,0.8,3v6.2h-2.3v-5.6
	c0.1-0.7-0.1-1.4-0.4-2c-0.4-0.4-0.9-0.6-1.4-0.6c-0.6-0.1-1.3,0.2-1.6,0.8c-0.4,0.8-0.5,1.7-0.5,2.6v4.8h-2.3V57.3z"/>
<path d="M225.3,59.4v7.8H223v-7.8h-1v-2.2h1v-3.7h2.3v3.7h1.8v2.2C227.1,59.4,225.3,59.4,225.3,59.4z"/>
<path d="M237.9,62.9h-7.2c0,0.7,0.3,1.5,0.8,2s1.1,0.7,1.8,0.7c0.5,0,1-0.1,1.4-0.4c0.5-0.4,0.9-0.9,1.3-1.5l2,1.1
	c-0.3,0.5-0.6,0.9-1,1.3c-0.3,0.4-0.7,0.7-1.1,0.9c-0.4,0.2-0.8,0.4-1.2,0.5c-0.5,0.1-1,0.2-1.5,0.2c-1.3,0.1-2.7-0.5-3.6-1.4
	c-0.9-1.1-1.4-2.4-1.4-3.8c-0.1-1.4,0.4-2.8,1.3-3.8c0.9-1,2.2-1.5,3.5-1.4c1.3-0.1,2.6,0.4,3.5,1.4c0.9,1.1,1.4,2.5,1.3,3.9
	L237.9,62.9z M235.6,61c-0.2-1.1-1.2-1.9-2.3-1.8c-0.3,0-0.5,0-0.8,0.1c-0.2,0.1-0.5,0.2-0.7,0.4s-0.4,0.4-0.5,0.6
	c-0.1,0.2-0.3,0.5-0.3,0.8L235.6,61L235.6,61z"/>
<path d="M240.4,57.3h2.3v0.9c0.7-0.8,1.7-1.2,2.7-1.2c1-0.1,2,0.3,2.7,1.1c0.6,0.9,0.9,1.9,0.8,3v6.2h-2.3v-5.6
	c0.1-0.7-0.1-1.4-0.4-2c-0.4-0.4-0.9-0.6-1.5-0.6s-1.2,0.2-1.6,0.8c-0.4,0.8-0.5,1.7-0.5,2.6v4.8h-2.3L240.4,57.3z"/>
<path d="M254.3,59.4v7.8H252v-7.8h-1v-2.2h1v-3.7h2.3v3.7h1.8v2.2C256.1,59.4,254.3,59.4,254.3,59.4z"/>
<path d="M257.4,53.1c0-0.8,0.7-1.5,1.5-1.5c0.4,0,0.8,0.2,1.1,0.4c0.3,0.3,0.4,0.7,0.4,1.1c0,0.4-0.2,0.8-0.4,1.1
	c-0.3,0.3-0.7,0.4-1,0.4C258,54.6,257.4,54,257.4,53.1L257.4,53.1z M260,57.3v10h-2.3v-10C257.7,57.3,260,57.3,260,57.3z"/>
<path d="M262.5,62.2c0-1.4,0.5-2.7,1.5-3.7c2.1-2,5.5-2,7.6,0c2.1,2.1,2.1,5.4,0,7.5c-1,1-2.4,1.5-3.8,1.5S265,67,264,66
	C263,65,262.4,63.6,262.5,62.2z M264.8,62.2c0,0.9,0.2,1.7,0.8,2.4c0.6,0.6,1.4,0.9,2.2,0.9c0.8,0,1.6-0.3,2.2-0.9
	c1.1-1.4,1.1-3.3,0-4.7c-1.2-1.2-3.1-1.2-4.3,0C265.1,60.5,264.8,61.4,264.8,62.2L264.8,62.2z"/>
<path d="M275.6,57.3h2.3v0.9c0.7-0.8,1.7-1.2,2.7-1.2c1-0.1,2,0.3,2.7,1.1c0.6,0.9,0.9,1.9,0.8,3v6.2h-2.3v-5.6
	c0.1-0.7-0.1-1.4-0.4-2c-0.4-0.4-0.9-0.6-1.5-0.6c-0.6-0.1-1.3,0.2-1.6,0.8c-0.4,0.8-0.5,1.7-0.5,2.6v4.8h-2.3L275.6,57.3z"/>
<path d="M292.9,59l-1.9,1c-0.3-0.6-0.7-0.9-1.1-0.9c-0.2,0-0.4,0.1-0.5,0.2c-0.2,0.1-0.2,0.3-0.2,0.5c0,0.4,0.5,0.8,1.3,1.1
	c0.9,0.3,1.7,0.8,2.5,1.5c0.4,0.5,0.7,1.1,0.6,1.8c0,0.9-0.4,1.8-1.1,2.4c-1.6,1.4-4,1.2-5.4-0.4c-0.3-0.3-0.5-0.7-0.7-1.1l2-0.9
	c0.2,0.3,0.4,0.6,0.6,0.9c0.3,0.3,0.6,0.4,1,0.4c0.8,0,1.2-0.4,1.2-1.1c0-0.4-0.3-0.8-0.9-1.2l-0.7-0.3l-0.7-0.3
	c-0.5-0.2-1-0.6-1.4-1c-0.4-0.5-0.5-1-0.5-1.6c0-0.8,0.3-1.6,0.9-2.2c0.6-0.6,1.4-0.9,2.2-0.8C291.3,57,292.5,57.8,292.9,59z"/>
<path d="M164.1,82.5h2.3v10h-2.3v-1c-1.7,1.8-4.5,1.8-6.3,0.1c-0.1-0.1-0.2-0.2-0.2-0.3c-0.9-1.1-1.4-2.5-1.3-3.9
	c0-1.4,0.4-2.7,1.4-3.8c0.8-1,2.1-1.5,3.4-1.5c1.2,0,2.3,0.5,3.1,1.4L164.1,82.5z M158.6,87.5c0,0.8,0.2,1.7,0.8,2.3
	c0.5,0.6,1.2,0.9,2,0.9s1.5-0.3,2.1-0.9c1.1-1.4,1.1-3.3,0-4.6c-1-1.1-2.8-1.2-3.9-0.1l-0.1,0.1C158.9,85.8,158.6,86.6,158.6,87.5
	L158.6,87.5z"/>
<path d="M169.3,82.5h2.3v0.9c0.7-0.8,1.7-1.2,2.7-1.2c1-0.1,2,0.3,2.7,1.1c0.6,0.9,0.9,1.9,0.8,3v6.2h-2.3v-5.6
	c0.1-0.7-0.1-1.4-0.4-2c-0.4-0.4-0.9-0.6-1.4-0.6c-0.6-0.1-1.3,0.2-1.6,0.8c-0.4,0.8-0.5,1.7-0.5,2.6v4.8h-2.3V82.5z"/>
<path d="M188.2,75.1h2.3v17.3h-2.3v-1c-0.8,0.8-1.9,1.3-3.1,1.3c-1.3,0-2.5-0.5-3.4-1.5c-0.9-1.1-1.4-2.4-1.4-3.8s0.4-2.7,1.4-3.7
	c1.6-1.8,4.3-2,6.1-0.4c0.1,0.1,0.3,0.2,0.4,0.4V75.1z M182.7,87.4c0,0.8,0.2,1.7,0.8,2.3c0.5,0.6,1.2,0.9,2,0.9s1.5-0.3,2.1-0.9
	c1.1-1.4,1.1-3.3,0-4.6c-0.5-0.6-1.3-0.9-2.1-0.9s-1.5,0.3-2,0.9C183,85.8,182.7,86.6,182.7,87.4z"/>
<path d="M201.2,82.5l2.6,5.7l2.8-6.6l2.8,6.6l2.6-5.7h2.6l-5.2,10.7l-2.8-6.4l-2.8,6.4l-5.2-10.7H201.2z"/>
<path d="M223.2,82.5h2.3v10h-2.3v-1c-1.7,1.8-4.5,1.8-6.3,0.1c-0.1-0.1-0.2-0.2-0.2-0.3c-0.9-1.1-1.4-2.4-1.3-3.8
	c0-1.4,0.4-2.7,1.3-3.8c0.8-1,2.1-1.5,3.4-1.5c1.2,0,2.3,0.5,3.1,1.4V82.5z M217.7,87.5c0,0.8,0.2,1.7,0.8,2.3
	c0.5,0.6,1.2,0.9,2,0.9s1.5-0.3,2.1-0.9c1.1-1.4,1.1-3.3,0-4.6c-0.5-0.6-1.3-0.9-2.1-0.9s-1.5,0.3-2,0.9S217.7,86.6,217.7,87.5
	L217.7,87.5z"/>
<path d="M230.8,84.6v7.8h-2.3v-7.8h-1v-2.2h1v-3.6h2.3v3.7h1.8v2.2L230.8,84.6z"/>
<path d="M241.9,82.9V86c-0.4-0.5-0.9-1-1.4-1.3c-0.4-0.3-0.9-0.4-1.5-0.4c-0.8,0-1.6,0.3-2.2,0.9c-0.6,0.6-0.9,1.4-0.9,2.3
	c0,0.8,0.3,1.7,0.8,2.3c0.5,0.6,1.3,0.9,2.1,0.9c0.5,0,1-0.1,1.5-0.4c0.6-0.4,1-0.8,1.5-1.4v3c-0.9,0.5-1.8,0.7-2.8,0.7
	c-1.4,0-2.8-0.5-3.9-1.5c-1-1-1.6-2.3-1.6-3.7c0-1.4,0.6-2.7,1.6-3.7s2.4-1.6,3.9-1.5C240.1,82.2,241.1,82.4,241.9,82.9z"/>
<path d="M244.7,75.1h2.3v8.2c0.7-0.7,1.7-1.1,2.7-1.1s2,0.4,2.7,1.1c0.6,0.9,0.9,1.9,0.9,3v6.2H251v-5.9c0.1-0.6-0.1-1.2-0.4-1.7
	c-0.3-0.4-0.8-0.6-1.4-0.5c-0.7-0.1-1.3,0.2-1.7,0.8c-0.4,0.8-0.6,1.7-0.5,2.6v4.8h-2.3L244.7,75.1L244.7,75.1z"/>
<path d="M265.1,84.6v7.8h-2.3v-7.8H262v-2.2h0.8v-3.8c-0.1-0.9,0.1-1.9,0.7-2.7c0.7-0.7,1.6-1.2,2.6-1.1c0.5,0,1.1,0.1,1.5,0.4v2.4
	l-0.2-0.1c-0.4-0.2-0.8-0.3-1.2-0.4c-0.3,0-0.7,0.1-0.8,0.4c-0.2,0.5-0.3,1.1-0.2,1.7v3.3h2.5v2.2L265.1,84.6z"/>
<path d="M268.7,87.4c0-1.4,0.5-2.7,1.5-3.7c2.1-2,5.4-2,7.6,0c2.1,2.1,2.1,5.4,0,7.5c-1,1-2.4,1.5-3.8,1.5s-2.8-0.5-3.7-1.5
	C269.3,90.2,268.7,88.8,268.7,87.4z M271.1,87.4c0,0.9,0.2,1.7,0.8,2.4c1.2,1.2,3.1,1.2,4.3,0c1.1-1.4,1.1-3.3,0-4.7
	c-1.2-1.2-3.1-1.2-4.3,0C271.3,85.7,271,86.6,271.1,87.4L271.1,87.4z"/>
<path d="M281.8,82.5h2.3v0.9c0.3-0.4,0.7-0.7,1.1-0.9c0.4-0.2,0.8-0.3,1.2-0.2c0.7,0,1.3,0.2,1.9,0.6l-1.1,2.1
	c-0.4-0.3-0.8-0.4-1.3-0.5c-1.3,0-1.9,1-1.9,2.8v5.2h-2.3L281.8,82.5z"/>
<path d="M156.8,107.7h2.3v0.9c0.3-0.4,0.7-0.7,1.1-0.9c0.4-0.2,0.8-0.3,1.3-0.2c1.1,0,2.1,0.5,2.7,1.5c0.7-1,1.8-1.5,2.9-1.5
	c2.3,0,3.4,1.4,3.4,4.1v6.2h-2.3v-5.6c0-0.7-0.1-1.4-0.4-2c-0.2-0.4-0.7-0.6-1.2-0.6c-0.6,0-1.1,0.2-1.4,0.7
	c-0.3,0.7-0.5,1.5-0.4,2.3v5.2h-2.3v-5.5c0-1.8-0.5-2.7-1.5-2.7c-0.6,0-1.1,0.2-1.4,0.7c-0.3,0.7-0.5,1.5-0.4,2.3v5.2h-2.3v-10.1
	H156.8z"/>
<path d="M176.2,115.8l-4.5-8.1h2.7l3.1,5.7l2.9-5.7h2.6l-7.9,15.4h-2.6L176.2,115.8z"/>
<path d="M196.7,109.4l-1.9,1c-0.3-0.6-0.7-0.9-1.1-0.9c-0.2,0-0.4,0.1-0.5,0.2c-0.2,0.1-0.2,0.3-0.2,0.5c0,0.4,0.4,0.8,1.3,1.1
	c0.9,0.3,1.7,0.8,2.5,1.5c0.4,0.5,0.7,1.1,0.6,1.8c0,0.9-0.4,1.8-1.1,2.4c-1.6,1.4-4,1.2-5.4-0.4c-0.3-0.3-0.5-0.7-0.7-1.1l2-0.9
	c0.2,0.3,0.4,0.6,0.6,0.9c0.3,0.3,0.6,0.4,1,0.4c0.8,0,1.2-0.4,1.2-1.1c0-0.4-0.3-0.8-0.9-1.2l-0.7-0.3l-0.7-0.3
	c-0.5-0.2-1-0.6-1.4-1c-0.4-0.5-0.5-1-0.5-1.6c0-0.8,0.3-1.6,0.9-2.2c0.6-0.6,1.4-0.9,2.2-0.8C195.2,107.4,196.3,108.2,196.7,109.4z
	"/>
<path d="M199.1,103.5c0-0.8,0.7-1.5,1.5-1.5c0.4,0,0.8,0.2,1.1,0.4c0.3,0.3,0.4,0.7,0.4,1.1s-0.2,0.8-0.4,1.1
	c-0.6,0.6-1.5,0.6-2.1,0C199.2,104.3,199.1,103.9,199.1,103.5z M201.7,107.7v10h-2.3v-10H201.7z"/>
<path d="M214.3,117.4c0,0.5,0,0.9,0,1.2s-0.1,0.7-0.1,1c-0.2,0.7-0.5,1.4-1,1.9c-0.9,1.1-2.3,1.6-3.7,1.6c-1.2,0-2.4-0.3-3.3-1.1
	c-0.9-0.8-1.5-1.9-1.5-3.1h2.3c0.1,0.4,0.2,0.8,0.4,1.1c0.5,0.6,1.3,1,2.1,0.9c1.7,0,2.5-1,2.5-3.1v-1.4c-1.6,1.8-4.4,1.9-6.2,0.2
	c-0.1-0.1-0.2-0.2-0.3-0.3c-0.9-1-1.4-2.4-1.3-3.7c0-1.3,0.4-2.7,1.2-3.7c0.8-1.1,2.1-1.7,3.5-1.6c1.2,0,2.3,0.5,3.1,1.4v-1.1h2.3
	V117.4z M212.1,112.7c0-0.8-0.2-1.7-0.8-2.3c-0.5-0.6-1.2-0.9-2-0.9s-1.6,0.3-2.1,1s-0.7,1.4-0.7,2.3c0,0.8,0.2,1.6,0.7,2.2
	c0.5,0.7,1.3,1,2.1,1s1.6-0.3,2.1-1C211.9,114.3,212.1,113.5,212.1,112.7L212.1,112.7z"/>
<path d="M217.2,107.7h2.3v0.9c0.7-0.8,1.7-1.2,2.7-1.2c1-0.1,2,0.3,2.7,1.1c0.6,0.9,0.9,2,0.8,3.1v6.1h-2.3v-5.6
	c0.1-0.7-0.1-1.4-0.4-2c-0.4-0.4-0.9-0.6-1.5-0.6c-0.6-0.1-1.3,0.2-1.6,0.8c-0.4,0.8-0.5,1.7-0.5,2.6v4.8h-2.3L217.2,107.7z"/>
<path d="M236.1,107.7h2.3v10h-2.3v-1c-1.7,1.8-4.5,1.8-6.3,0.1c-0.1-0.1-0.2-0.2-0.2-0.3c-0.9-1.1-1.4-2.4-1.3-3.8
	c0-1.4,0.4-2.7,1.3-3.8c0.8-1,2.1-1.5,3.4-1.5c1.2,0,2.3,0.5,3.1,1.4V107.7z M230.6,112.7c0,0.8,0.2,1.7,0.8,2.3
	c0.5,0.6,1.2,0.9,2,0.9s1.5-0.3,2.1-0.9c1.1-1.4,1.1-3.3,0-4.6c-0.5-0.6-1.3-0.9-2-0.9c-0.8,0-1.5,0.3-2,0.9
	C230.9,111,230.6,111.8,230.6,112.7L230.6,112.7z"/>
<path d="M243.6,100.3v17.3h-2.3v-17.3H243.6z"/>
<path d="M252.4,109.4l-1.9,1c-0.3-0.6-0.7-0.9-1.1-0.9c-0.2,0-0.4,0.1-0.5,0.2c-0.2,0.1-0.2,0.3-0.2,0.5c0,0.4,0.4,0.8,1.3,1.1
	c0.9,0.3,1.7,0.8,2.5,1.5c0.4,0.5,0.7,1.1,0.6,1.8c0,0.9-0.4,1.8-1.1,2.4c-0.7,0.6-1.6,1-2.5,0.9c-1.6,0.1-3-0.9-3.6-2.4l2-0.9
	c0.2,0.3,0.4,0.6,0.6,0.9c0.3,0.3,0.6,0.4,1,0.4c0.8,0,1.2-0.4,1.2-1.1c0-0.4-0.3-0.8-0.9-1.2l-0.7-0.3l-0.7-0.3
	c-0.5-0.2-1-0.6-1.4-1c-0.4-0.5-0.5-1-0.5-1.6c0-0.8,0.3-1.6,0.9-2.2c0.6-0.6,1.4-0.9,2.2-0.8C250.8,107.4,252,108.2,252.4,109.4z"
	/>
</svg>
