<?xml version="1.0" encoding="utf-8"?>
<!-- Generator: Adobe Illustrator 24.0.1, SVG Export Plug-In . SVG Version: 6.00 Build 0)  -->
<svg version="1.1" id="Layer_1" xmlns="http://www.w3.org/2000/svg" xmlns:xlink="http://www.w3.org/1999/xlink" x="0px" y="0px"
	 viewBox="0 0 322 148.6" style="enable-background:new 0 0 322 148.6;" xml:space="preserve">
<style type="text/css">
	.st0{fill:#FFCC00;}
	.st1{clip-path:url(#SVGID_2_);}
	.st2{stroke:#FF0000;stroke-width:250;stroke-dasharray:18.8;}
	.st3{fill:none;stroke:#000000;stroke-width:3.75;stroke-linejoin:round;}
</style>
<title>Yankee</title>
<path class="st0" d="M2.1,2.4h144v144H2.1"/>
<g>
	<g>
		<defs>
			<polyline id="SVGID_1_" points="2.1,2.4 146.1,2.4 146.1,146.4 2.1,146.4 			"/>
		</defs>
		<clipPath id="SVGID_2_">
			<use xlink:href="#SVGID_1_"  style="overflow:visible;"/>
		</clipPath>
		<g class="st1">
			<path class="st2" d="M-11.9-11.6l160,160"/>
		</g>
	</g>
</g>
<path class="st3" d="M2.1,2.4h144v144H2.1V2.4z"/>
<path d="M169.6,48.5v15.8h-2.4V48.5H169.6z"/>
<path d="M186.8,54.3h2.3v10h-2.3v-1c-1.7,1.8-4.5,1.8-6.3,0.1c-0.1-0.1-0.2-0.2-0.2-0.3c-0.9-1.1-1.4-2.4-1.3-3.8
	c0-1.4,0.4-2.7,1.3-3.8c0.8-1,2.1-1.5,3.4-1.5c1.2,0,2.3,0.5,3.1,1.4V54.3z M181.3,59.3c0,0.8,0.2,1.7,0.8,2.3
	c0.5,0.6,1.2,0.9,2,0.9s1.5-0.3,2.1-0.9c1.1-1.4,1.1-3.3,0-4.6c-0.5-0.6-1.3-0.9-2.1-0.9s-1.5,0.3-2,0.9
	C181.6,57.7,181.3,58.5,181.3,59.3L181.3,59.3z"/>
<path d="M192,54.3h2.3v0.9c0.3-0.4,0.7-0.7,1.1-0.9c0.4-0.2,0.8-0.3,1.3-0.2c1.1,0,2.1,0.6,2.7,1.5c0.7-1,1.8-1.5,2.9-1.5
	c2.3,0,3.4,1.4,3.4,4.1v6.2h-2.3v-5.6c0-0.7-0.1-1.4-0.3-2c-0.3-0.4-0.7-0.6-1.2-0.6c-0.6,0-1.1,0.2-1.4,0.7
	c-0.3,0.7-0.5,1.5-0.4,2.3v5.2h-2.3v-5.6c0-1.8-0.5-2.7-1.5-2.7c-0.6,0-1.1,0.2-1.4,0.7c-0.3,0.7-0.5,1.5-0.4,2.3v5.2H192V54.3z"/>
<path d="M222.5,47h2.3v17.3h-2.3v-1c-0.8,0.8-1.9,1.3-3.1,1.3c-1.3,0-2.5-0.5-3.4-1.5c-0.9-1.1-1.4-2.4-1.4-3.8
	c0-1.4,0.5-2.7,1.4-3.7c1.6-1.8,4.3-2,6.1-0.4c0.1,0.1,0.3,0.2,0.4,0.4V47z M217,59.3c0,0.8,0.2,1.7,0.8,2.3c0.5,0.6,1.2,0.9,2,0.9
	s1.5-0.3,2.1-0.9c1.1-1.4,1.1-3.3,0-4.6c-0.5-0.6-1.2-0.9-2-0.9s-1.5,0.3-2,0.9C217.3,57.6,217,58.4,217,59.3z"/>
<path d="M227.7,54.3h2.3v0.9c0.3-0.4,0.7-0.7,1.1-0.9c0.4-0.2,0.8-0.3,1.2-0.2c0.7,0,1.3,0.2,1.9,0.6l-1.1,2.1
	c-0.4-0.3-0.8-0.5-1.3-0.5c-1.3,0-1.9,0.9-1.9,2.8v5.2h-2.3L227.7,54.3z"/>
<path d="M242.8,54.3h2.3v10h-2.3v-1c-1.7,1.8-4.5,1.8-6.3,0.1c-0.1-0.1-0.2-0.2-0.2-0.3c-0.9-1.1-1.4-2.4-1.3-3.8
	c-0.1-1.4,0.4-2.7,1.3-3.8c0.8-1,2.1-1.5,3.4-1.5c1.2,0,2.3,0.5,3.1,1.4V54.3z M237.3,59.3c0,0.8,0.2,1.7,0.8,2.3
	c0.5,0.6,1.2,0.9,2,0.9s1.5-0.3,2.1-0.9c1.1-1.4,1.1-3.3,0-4.6c-1-1.1-2.8-1.2-3.9-0.1l-0.1,0.1C237.6,57.7,237.3,58.4,237.3,59.3
	L237.3,59.3z"/>
<path d="M257.7,64.1c0,0.5,0,0.9,0,1.2c0,0.3-0.1,0.7-0.1,1c-0.2,0.7-0.5,1.4-1,1.9c-0.9,1.1-2.3,1.6-3.7,1.6
	c-1.2,0-2.4-0.3-3.3-1.1c-0.9-0.8-1.5-1.9-1.5-3.1h2.3c0.1,1.3,1.3,2.2,2.5,2.1c1.7,0,2.5-1,2.5-3.1v-1.4c-1.6,1.8-4.4,1.9-6.2,0.2
	c-0.1-0.1-0.2-0.2-0.3-0.3c-0.9-1-1.4-2.4-1.3-3.7c0-1.3,0.4-2.7,1.2-3.7c0.8-1.1,2.1-1.7,3.5-1.7c1.2,0,2.4,0.5,3.1,1.4v-1.1h2.3
	V64.1z M255.5,59.3c0-0.8-0.2-1.7-0.8-2.3c-0.5-0.6-1.2-0.9-2-0.9s-1.6,0.3-2.1,1s-0.7,1.5-0.7,2.3s0.2,1.6,0.7,2.2
	c0.5,0.7,1.3,1,2.1,1s1.6-0.3,2.1-1C255.3,60.9,255.5,60.1,255.5,59.3z"/>
<path d="M270.3,64.1c0,0.5,0,0.9,0,1.2s-0.1,0.7-0.1,1c-0.2,0.7-0.5,1.4-1,1.9c-0.9,1.1-2.3,1.6-3.7,1.6c-1.2,0-2.4-0.3-3.3-1.1
	c-0.9-0.8-1.5-1.9-1.5-3.1h2.3c0.1,0.4,0.2,0.8,0.4,1.1c0.5,0.6,1.3,1,2.1,0.9c1.7,0,2.5-1,2.5-3.1v-1.4c-1.6,1.8-4.4,1.9-6.2,0.2
	c-0.1-0.1-0.2-0.2-0.3-0.3c-0.9-1-1.4-2.4-1.3-3.7c0-1.3,0.4-2.7,1.2-3.7c0.8-1.1,2.1-1.7,3.5-1.6c1.2,0,2.4,0.5,3.1,1.4v-1.2h2.3
	V64.1z M268,59.3c0-0.8-0.2-1.7-0.8-2.3c-0.5-0.6-1.2-0.9-2-0.9s-1.6,0.3-2.1,1s-0.7,1.5-0.7,2.3s0.2,1.6,0.7,2.2c0.5,0.6,1.2,1,2,1
	s1.6-0.4,2.1-1C267.8,60.9,268.1,60.1,268,59.3z"/>
<path d="M272.8,50.2c0-0.8,0.7-1.5,1.5-1.5c0.4,0,0.8,0.2,1,0.4c0.3,0.3,0.4,0.7,0.4,1.1c0,0.4-0.2,0.8-0.4,1.1
	c-0.3,0.3-0.7,0.4-1.1,0.4s-0.8-0.2-1.1-0.4C273,50.9,272.8,50.6,272.8,50.2z M275.5,54.3v10h-2.3v-10
	C273.2,54.3,275.5,54.3,275.5,54.3z"/>
<path d="M278.4,54.3h2.3v0.9c0.7-0.8,1.7-1.2,2.7-1.2c1-0.1,2.1,0.3,2.8,1.1c0.6,0.9,0.9,2,0.8,3.1v6.1h-2.3v-5.6
	c0.1-0.7-0.1-1.4-0.4-2c-0.4-0.4-0.9-0.6-1.5-0.6c-0.6-0.1-1.3,0.2-1.6,0.8c-0.4,0.8-0.5,1.7-0.5,2.6v4.8h-2.3V54.3z"/>
<path d="M299.6,64.1c0,0.5,0,0.9,0,1.2c0,0.3-0.1,0.7-0.1,1c-0.2,0.7-0.5,1.4-1,1.9c-0.9,1-2.3,1.6-3.7,1.6c-1.2,0-2.4-0.3-3.3-1.1
	c-0.9-0.8-1.5-1.9-1.5-3.1h2.4c0.1,0.4,0.2,0.8,0.4,1.1c0.5,0.6,1.3,1,2.1,0.9c1.7,0,2.5-1,2.5-3.1v-1.4c-1.6,1.8-4.4,1.9-6.2,0.2
	c-0.1-0.1-0.2-0.2-0.3-0.3c-0.9-1-1.4-2.4-1.3-3.7c0-1.3,0.4-2.7,1.2-3.7c0.8-1.1,2.1-1.7,3.5-1.6c1.2,0,2.4,0.5,3.1,1.4v-1.2h2.3
	L299.6,64.1z M297.4,59.3c0-0.8-0.2-1.7-0.8-2.3c-0.5-0.6-1.2-0.9-2-0.9s-1.6,0.3-2.1,1s-0.7,1.4-0.7,2.3c0,0.8,0.2,1.6,0.7,2.2
	c0.5,0.7,1.3,1,2.1,1c0.8,0,1.6-0.3,2.1-1C297.2,60.9,297.4,60.1,297.4,59.3z"/>
<path d="M174.1,79.6h2.3v10h-2.3v-1c-1.7,1.8-4.5,1.8-6.3,0.1c-0.1-0.1-0.2-0.2-0.2-0.3c-0.9-1.1-1.4-2.4-1.3-3.8
	c0-1.4,0.4-2.7,1.3-3.8c0.8-1,2.1-1.5,3.4-1.5c1.2,0,2.3,0.5,3.1,1.4V79.6z M168.7,84.6c0,0.8,0.2,1.7,0.8,2.3
	c0.5,0.6,1.2,0.9,2,0.9s1.5-0.3,2.1-0.9c1.1-1.4,1.1-3.3,0-4.6c-1-1.1-2.8-1.2-3.9-0.1l-0.1,0.1C169,82.9,168.7,83.7,168.7,84.6
	L168.7,84.6z"/>
<path d="M179.4,79.6h2.3v0.9c0.7-0.8,1.7-1.2,2.7-1.2c1-0.1,2,0.3,2.7,1.1c0.6,0.9,0.9,1.9,0.8,3v6.1h-2.3v-5.6
	c0.1-0.7-0.1-1.4-0.4-2c-0.4-0.4-0.9-0.6-1.5-0.6c-0.6-0.1-1.3,0.2-1.6,0.8c-0.4,0.8-0.5,1.7-0.5,2.6v4.8h-2.3L179.4,79.6z"/>
<path d="M198.7,79.9V83c-0.4-0.5-0.9-1-1.4-1.3c-0.4-0.3-0.9-0.4-1.4-0.4c-0.8,0-1.6,0.3-2.2,0.9c-0.6,0.6-0.9,1.4-0.9,2.3
	c0,0.8,0.3,1.7,0.8,2.3c0.5,0.6,1.3,0.9,2.1,0.9c0.5,0,1-0.1,1.5-0.4c0.6-0.4,1-0.8,1.4-1.4v3c-0.9,0.5-1.8,0.7-2.8,0.7
	c-1.4,0-2.8-0.5-3.9-1.5c-1-1-1.6-2.3-1.5-3.7c0-1.4,0.5-2.8,1.6-3.8c1-1,2.4-1.6,3.9-1.5C196.8,79.2,197.8,79.5,198.7,79.9z"/>
<path d="M201.4,72.2h2.3v8.2c0.7-0.7,1.7-1.1,2.7-1.1c1-0.1,2,0.3,2.8,1.1c0.6,0.9,0.9,1.9,0.9,3v6.1h-2.3v-5.9
	c0.1-0.6-0.1-1.2-0.4-1.7c-0.4-0.4-0.9-0.6-1.4-0.5c-0.7-0.1-1.3,0.2-1.7,0.8c-0.4,0.8-0.6,1.7-0.5,2.6v4.8h-2.3L201.4,72.2z"/>
<path d="M212.5,84.4c0-1.4,0.5-2.7,1.6-3.7c2.1-2,5.4-2,7.6,0c2.1,2.1,2.1,5.4,0,7.5c-1,1-2.4,1.5-3.8,1.5c-1.4,0-2.8-0.5-3.8-1.5
	C213,87.2,212.4,85.9,212.5,84.4z M214.8,84.4c0,0.9,0.2,1.7,0.8,2.4c1.2,1.2,3.1,1.2,4.3,0c1.1-1.4,1.1-3.3,0-4.7
	c-1.2-1.2-3.1-1.2-4.3,0C215.1,82.8,214.8,83.6,214.8,84.4L214.8,84.4z"/>
<path d="M225.6,79.6h2.3v0.9c0.3-0.4,0.7-0.7,1.1-0.9c0.4-0.2,0.8-0.3,1.2-0.2c0.7,0,1.3,0.2,1.9,0.6l-1.1,2
	c-0.4-0.3-0.8-0.4-1.3-0.5c-1.3,0-1.9,1-1.9,2.8v5.2h-2.3L225.6,79.6z"/>
</svg>
