<?xml version="1.0" encoding="utf-8"?>
<!-- Generator: Adobe Illustrator 24.0.1, SVG Export Plug-In . SVG Version: 6.00 Build 0)  -->
<svg version="1.1" id="Layer_1" xmlns="http://www.w3.org/2000/svg" xmlns:xlink="http://www.w3.org/1999/xlink" x="0px" y="0px"
	 viewBox="0 0 333.6 147.8" style="enable-background:new 0 0 333.6 147.8;" xml:space="preserve">
<style type="text/css">
	.st0{fill:#FFCC00;}
	.st1{fill:#000094;}
	.st2{fill:#FF0000;}
	.st3{fill:none;stroke:#000000;stroke-width:3.75;stroke-linejoin:round;}
</style>
<title>Zulu</title>
<rect x="1.9" y="1.9" class="st0" width="144" height="144"/>
<path d="M1.9,1.9v144h144L1.9,1.9z"/>
<path class="st1" d="M145.9,1.9v144H1.9L145.9,1.9z"/>
<path class="st2" d="M73.9,73.9l72,72H1.9L73.9,73.9z"/>
<path class="st3" d="M1.9,1.9h144v144H1.9V1.9z"/>
<path d="M168.9,59.7v15.8h-2.4V59.7H168.9z"/>
<path d="M178.8,65.5h2.3v0.9c0.3-0.4,0.7-0.7,1.1-0.9c0.4-0.2,0.8-0.3,1.2-0.2c0.7,0,1.3,0.2,1.9,0.6l-1,2.1
	c-0.4-0.3-0.8-0.5-1.3-0.5c-1.2,0-1.9,0.9-1.9,2.8v5.2h-2.3V65.5z"/>
<path d="M195.6,71.1h-7.2c0,0.7,0.3,1.5,0.8,2s1.1,0.7,1.8,0.7c0.5,0,1-0.1,1.4-0.4c0.5-0.4,0.9-0.9,1.3-1.5l1.9,1
	c-0.3,0.5-0.6,0.9-1,1.3c-0.3,0.3-0.6,0.6-1,0.9c-0.4,0.2-0.8,0.4-1.2,0.5c-0.5,0.1-1,0.2-1.4,0.2c-1.3,0.1-2.7-0.5-3.6-1.4
	c-0.9-1.1-1.4-2.4-1.4-3.8c-0.1-1.4,0.4-2.8,1.3-3.8c0.9-1,2.2-1.5,3.5-1.4c1.3-0.1,2.6,0.4,3.5,1.4c0.9,1.1,1.4,2.5,1.3,3.9
	L195.6,71.1z M193.2,69.2c-0.2-1.1-1.2-1.9-2.3-1.8c-0.3,0-0.5,0-0.8,0.1c-0.2,0.1-0.5,0.2-0.7,0.4c-0.2,0.2-0.4,0.4-0.5,0.6
	s-0.3,0.5-0.3,0.8L193.2,69.2L193.2,69.2z"/>
<path d="M205.4,80.9v-6.6c-0.8,0.9-1.9,1.4-3.1,1.4c-1.3,0-2.5-0.5-3.4-1.5s-1.4-2.4-1.3-3.7c0-1.4,0.4-2.8,1.3-3.8
	c0.8-1,2.1-1.5,3.4-1.5c1.2,0,2.3,0.5,3.1,1.4v-1.1h2.3v15.4C207.7,80.9,205.4,80.9,205.4,80.9z M200,70.5c0,0.9,0.2,1.7,0.8,2.3
	c0.5,0.6,1.2,1,2,0.9c0.8,0,1.5-0.3,2.1-0.9s0.8-1.5,0.8-2.3s-0.2-1.7-0.8-2.3c-1-1.1-2.8-1.2-3.9-0.1l-0.1,0.1
	C200.3,68.8,200,69.6,200,70.5L200,70.5z"/>
<path d="M213.2,65.5v5.7c0,1.7,0.7,2.5,2,2.5s2-0.8,2-2.5v-5.7h2.3v5.8c0,0.7-0.1,1.4-0.3,2.1c-0.2,0.5-0.6,1-1,1.4
	c-1.7,1.4-4.2,1.4-5.9,0c-0.4-0.4-0.8-0.9-1-1.4c-0.2-0.7-0.3-1.4-0.3-2.1v-5.8H213.2z"/>
<path d="M222,61.4c0-0.8,0.7-1.5,1.5-1.5c0.4,0,0.8,0.2,1,0.4c0.3,0.3,0.5,0.7,0.4,1.1c0,0.4-0.2,0.8-0.4,1.1
	c-0.3,0.3-0.7,0.4-1,0.4c-0.4,0-0.8-0.2-1.1-0.4C222.2,62.2,222,61.8,222,61.4z M224.6,65.5v10h-2.3v-10H224.6z"/>
<path d="M227.6,65.5h2.3v0.9c0.3-0.4,0.7-0.7,1.1-0.9c0.4-0.2,0.8-0.3,1.2-0.2c0.7,0,1.3,0.2,1.9,0.6L233,68
	c-0.4-0.3-0.8-0.5-1.3-0.5c-1.3,0-1.9,0.9-1.9,2.8v5.2h-2.3v-10H227.6z"/>
<path d="M244.4,71.1h-7.1c0,0.7,0.3,1.5,0.8,2c0.9,0.8,2.2,1,3.2,0.3c0.5-0.4,0.9-0.9,1.3-1.5l2,1.1c-0.3,0.5-0.6,0.9-1,1.3
	c-0.3,0.4-0.7,0.7-1.1,0.9c-0.4,0.2-0.8,0.4-1.2,0.5c-0.5,0.1-1,0.2-1.5,0.2c-1.3,0.1-2.7-0.5-3.6-1.4c-0.9-1.1-1.4-2.4-1.4-3.8
	c-0.1-1.4,0.4-2.8,1.3-3.8c0.9-1,2.2-1.6,3.5-1.5c1.3-0.1,2.6,0.4,3.5,1.4c0.9,1.1,1.4,2.5,1.3,3.9V71.1z M242,69.2
	c-0.2-1.1-1.2-1.9-2.3-1.8c-0.3,0-0.5,0-0.8,0.1c-0.2,0.1-0.5,0.2-0.7,0.4c-0.2,0.2-0.4,0.4-0.5,0.6s-0.3,0.5-0.3,0.8L242,69.2
	L242,69.2z"/>
<path d="M260.8,65.5h2.3v10h-2.3v-1.1c-1.7,1.8-4.5,1.8-6.3,0.1c-0.1-0.1-0.2-0.2-0.2-0.3c-0.9-1.1-1.4-2.4-1.3-3.8
	c0-1.4,0.4-2.7,1.3-3.8c0.8-1,2.1-1.5,3.4-1.5c1.2,0,2.3,0.5,3.1,1.4V65.5z M255.3,70.5c0,0.8,0.2,1.7,0.8,2.3
	c0.5,0.6,1.2,0.9,2,0.9s1.5-0.3,2.1-0.9c1.1-1.4,1.1-3.3,0-4.6c-0.5-0.6-1.3-0.9-2-0.9c-0.8,0-1.5,0.3-2,0.9
	C255.5,68.9,255.3,69.7,255.3,70.5L255.3,70.5z"/>
<path d="M274.8,67.7v7.8h-2.3v-7.8h-1v-2.2h1v-3.7h2.3v3.7h1.8v2.2H274.8z"/>
<path d="M280.5,65.5v5.7c0,1.7,0.6,2.5,2,2.5s2-0.8,2-2.5v-5.7h2.3v5.8c0,0.7-0.1,1.4-0.3,2.1c-0.2,0.5-0.6,1-1,1.4
	c-1.7,1.4-4.2,1.4-5.9,0c-0.4-0.4-0.8-0.9-1-1.4c-0.2-0.7-0.3-1.4-0.3-2.1v-5.8H280.5z"/>
<path d="M299.3,75.3c0,0.5,0,0.9,0,1.2c0,0.3-0.1,0.7-0.1,1c-0.2,0.7-0.5,1.4-1,1.9c-0.9,1.1-2.3,1.6-3.7,1.6
	c-1.2,0-2.4-0.3-3.3-1.1c-0.9-0.8-1.4-1.9-1.5-3.1h2.3c0.1,0.4,0.2,0.8,0.4,1.1c0.5,0.6,1.3,1,2.1,0.9c1.7,0,2.5-1,2.5-3.1v-1.4
	c-0.8,0.9-2,1.4-3.2,1.4c-1.3,0-2.5-0.5-3.3-1.5c-0.9-1-1.4-2.4-1.3-3.7c0-1.3,0.4-2.7,1.2-3.7c0.8-1.1,2.1-1.7,3.5-1.6
	c1.2,0,2.4,0.5,3.1,1.4v-1.1h2.3V75.3z M297.1,70.5c0-0.8-0.2-1.7-0.8-2.3c-0.5-0.6-1.2-0.9-2-0.9s-1.6,0.3-2.1,1s-0.7,1.4-0.7,2.3
	c0,0.8,0.2,1.6,0.7,2.2c0.5,0.7,1.3,1,2.1,1c0.8,0,1.6-0.3,2.1-1C296.9,72.1,297.1,71.3,297.1,70.5z"/>
</svg>
