<svg xmlns="http://www.w3.org/2000/svg" viewBox="0 0 570 570"><defs><style>.cls-1{fill:#fc0;}.cls-2{fill:none;}.cls-3{fill:#232099;}.cls-4{fill:blue;}</style></defs><title>Asset 1</title><g id="Layer_2" data-name="Layer 2"><g id="Layer_1-2" data-name="Layer 1"><rect class="cls-1" width="570" height="570" rx="100"/><path class="cls-2" d="M481.53,308.12a25.22,25.22,0,0,1-1.62-3.25,23.25,23.25,0,0,1-1.21-3.35,20.5,20.5,0,0,1-.65-6.82l-.61,8.06-.15,2-.26,2-.51,4,2.48.33A22.86,22.86,0,0,1,481.53,308.12Z"/><path class="cls-2" d="M487.66,303c3.18-2.63,6.49-5.37,9.6-8.25s6.16-5.89,9.24-9c.24-.24.45-.49.67-.74H490.32a15.4,15.4,0,0,0-4.18,8.7,18.56,18.56,0,0,0,0,4.71A15.1,15.1,0,0,0,487.66,303Z"/><path class="cls-2" d="M508.74,295.1c-1.5,1.52-3.18,3-4.79,4.47s-3.23,2.88-4.85,4.27c-3.16,2.79-6.6,5.43-9.94,8-.25.19-.48.39-.71.58l16.69,2.23a15.87,15.87,0,0,0,5.23-10.74,18.13,18.13,0,0,0-.22-4.55A13.85,13.85,0,0,0,508.74,295.1Z"/><path class="cls-2" d="M478.29,285l-.24,9.7a20.76,20.76,0,0,1,2.72-9.7Z"/><path class="cls-2" d="M517.08,316.19l.74-5.82.18-1.46.12-1.46.22-2.93a24.49,24.49,0,0,1-3.7,11.34Z"/><path class="cls-2" d="M518.34,304.52l.37-4.87.18-2.44.08-2.44.24-9.77H516.7a25.26,25.26,0,0,1-2.21,3.8,25.88,25.88,0,0,1,3.25,7.4A26.78,26.78,0,0,1,518.34,304.52Z"/><path class="cls-3" d="M479,311.12l9.45,1.25c.23-.19.46-.39.71-.58,3.34-2.52,6.78-5.16,9.94-8,1.62-1.39,3.24-2.82,4.85-4.27s3.29-2.95,4.79-4.47a13.85,13.85,0,0,1,1.41,4.21,18.13,18.13,0,0,1,.22,4.55,15.87,15.87,0,0,1-5.23,10.74l9.5,1.26a24.49,24.49,0,0,0,3.7-11.34,26.78,26.78,0,0,0-.6-8.32,25.88,25.88,0,0,0-3.25-7.4,25.26,25.26,0,0,0,2.21-3.8h-9.53c-.22.25-.43.5-.67.74q-4.62,4.69-9.24,9c-3.11,2.88-6.42,5.62-9.6,8.25a15.1,15.1,0,0,1-1.49-4.6,18.56,18.56,0,0,1,0-4.71,15.4,15.4,0,0,1,4.18-8.7h-9.55a20.76,20.76,0,0,0-2.72,9.7,20.5,20.5,0,0,0,.65,6.82,23.25,23.25,0,0,0,1.21,3.35,25.22,25.22,0,0,0,1.62,3.25A22.86,22.86,0,0,0,479,311.12Z"/><path class="cls-2" d="M476.78,334.12a22.82,22.82,0,0,1-2-6.93,22,22,0,0,1-.11-3.44,20.36,20.36,0,0,1,.3-3.4c-.24,1.32-.45,2.65-.72,4l-.91,3.93c-.61,2.62-1.15,5.26-1.95,7.83l2.41.66A26.63,26.63,0,0,1,476.78,334.12Z"/><path class="cls-2" d="M483.47,329.86c1.78-1.08,3.61-2.18,5.38-3.33s3.47-2.34,5.21-3.56c3.49-2.44,7-5,10.35-7.72.26-.21.5-.43.74-.65l-16.71-2.23a16.05,16.05,0,0,0-3.24,3.74,14.8,14.8,0,0,0-2,4.33,14.46,14.46,0,0,0-.53,4.68A16.26,16.26,0,0,0,483.47,329.86Z"/><path class="cls-2" d="M505.4,324.83q-2.64,1.95-5.27,3.81c-1.76,1.23-3.62,2.41-5.42,3.58s-3.61,2.28-5.41,3.38c-.9.55-1.78,1.09-2.7,1.62l-2.78,1.55c-.28.15-.54.32-.8.48l16.25,4.44a16,16,0,0,0,6.62-9.94A15.79,15.79,0,0,0,505.4,324.83Z"/><path class="cls-2" d="M476.52,310.79l-.3,2.4c-.09.8-.2,1.6-.36,2.39l-.86,4.77a20.47,20.47,0,0,1,1.5-4.77,26.51,26.51,0,0,1,2.48-4.47Z"/><path class="cls-2" d="M510.89,346.87c1.15-3.75,1.9-7.6,2.81-11.41a25,25,0,0,1-5.19,10.76Z"/><path class="cls-2" d="M513.7,335.46c.79-3.17,1.3-6.39,1.89-9.6l.85-4.82c.25-1.61.43-3.23.64-4.85l-2.49-.33a24.47,24.47,0,0,1-2.58,3.5,24.32,24.32,0,0,1,2.15,7.76,28.59,28.59,0,0,1,.15,4.15A23.15,23.15,0,0,1,513.7,335.46Z"/><path class="cls-3" d="M473.83,336.74l9.19,2.51c.26-.16.52-.33.8-.48l2.78-1.55c.92-.53,1.8-1.07,2.7-1.62,1.8-1.1,3.6-2.22,5.41-3.38s3.66-2.35,5.42-3.58,3.51-2.51,5.27-3.81a15.79,15.79,0,0,1,.49,8.92,16,16,0,0,1-6.62,9.94l9.24,2.53a25,25,0,0,0,5.19-10.76,23.15,23.15,0,0,0,.61-4.19,28.59,28.59,0,0,0-.15-4.15,24.32,24.32,0,0,0-2.15-7.76,24.47,24.47,0,0,0,2.58-3.5l-9.44-1.26c-.24.22-.48.44-.74.65-3.31,2.72-6.86,5.28-10.35,7.72-1.74,1.22-3.48,2.4-5.21,3.56s-3.6,2.25-5.38,3.33a16.26,16.26,0,0,1-.81-4.74,14.46,14.46,0,0,1,.53-4.68,14.8,14.8,0,0,1,2-4.33,16.05,16.05,0,0,1,3.24-3.74L479,311.11a26.51,26.51,0,0,0-2.48,4.47,19.46,19.46,0,0,0-1.8,8.17,22,22,0,0,0,.11,3.44,22.82,22.82,0,0,0,2,6.93A26.63,26.63,0,0,0,473.83,336.74Z"/><path class="cls-2" d="M468.49,359.21a22.3,22.3,0,0,1-.93-7.09,20.73,20.73,0,0,1,1.07-6.77l-1.29,3.82c-.43,1.28-.85,2.55-1.37,3.79l-3,7.51,2.3,1A25.51,25.51,0,0,1,468.49,359.21Z"/><path class="cls-2" d="M475.77,355.92a199.89,199.89,0,0,0,22.68-11.69c.28-.17.55-.35.83-.54L483,339.25a15.91,15.91,0,0,0-3.77,3.25,18.84,18.84,0,0,0-2.5,4A15.43,15.43,0,0,0,475.77,355.92Z"/><path class="cls-2" d="M498.16,353.87c-3.9,2.08-7.68,4.08-11.56,5.89s-7.84,3.48-11.68,5l-.85.38,15.51,6.58a17,17,0,0,0,7.9-9A17.56,17.56,0,0,0,498.16,353.87Z"/><path class="cls-2" d="M471.42,336.08c-.91,3.09-1.67,6.24-2.79,9.27a23.89,23.89,0,0,1,5.18-8.62Z"/><path class="cls-2" d="M500.67,376.46c1.47-3.63,2.88-7.28,4.32-10.93a27.63,27.63,0,0,1-6.59,10Z"/><path class="cls-2" d="M505,365.53l3.14-9.27c.55-1.54,1-3.12,1.42-4.68l1.34-4.71-2.42-.67a25.14,25.14,0,0,1-3.08,3.11,26.27,26.27,0,0,1,.94,3.94,21.18,21.18,0,0,1,.19,4.06A28.52,28.52,0,0,1,505,365.53Z"/><path class="cls-3" d="M465.3,361.44l8.77,3.73.85-.38q5.76-2.32,11.68-5c3.88-1.81,7.66-3.81,11.56-5.89a17.56,17.56,0,0,1-.68,8.91,17,17,0,0,1-7.9,9l8.82,3.74a27.63,27.63,0,0,0,6.59-10,28.52,28.52,0,0,0,1.53-8.22,21.18,21.18,0,0,0-.19-4.06,26.27,26.27,0,0,0-.94-3.94,25.14,25.14,0,0,0,3.08-3.11l-9.19-2.51c-.28.19-.55.37-.83.54a199.89,199.89,0,0,1-22.68,11.69,15.43,15.43,0,0,1,1-9.38,18.84,18.84,0,0,1,2.5-4,15.91,15.91,0,0,1,3.77-3.25l-9.21-2.52a23.89,23.89,0,0,0-5.18,8.62,20.73,20.73,0,0,0-1.07,6.77,22.3,22.3,0,0,0,.93,7.09A25.51,25.51,0,0,0,465.3,361.44Z"/><path class="cls-2" d="M456.94,383a23.31,23.31,0,0,1,2.05-13.7l-3.68,7.19c-1.28,2.36-2.68,4.67-4,7l2.15,1.28A21.89,21.89,0,0,1,456.94,383Z"/><path class="cls-2" d="M464.6,380.69c4-1.16,8-2.42,12.07-3.82s8-3,12-4.7c.31-.12.61-.27.91-.42l-15.52-6.58a15.94,15.94,0,0,0-9.47,15.52Z"/><path class="cls-2" d="M487.1,381.68c-4.12,1.56-8.25,3-12.29,4.27-2,.67-4.09,1.25-6.15,1.81s-4.1,1.09-6.12,1.6c-.3.07-.59.17-.88.26l14.48,8.6a16.51,16.51,0,0,0,5.19-3,17.12,17.12,0,0,0,2.15-2.19,15.89,15.89,0,0,0,1.68-2.63A17.1,17.1,0,0,0,487.1,381.68Z"/><path class="cls-2" d="M463,360.47c-1.35,2.93-2.64,5.89-4,8.81a21.16,21.16,0,0,1,6.3-7.84Z"/><path class="cls-2" d="M486.5,404.37l2.93-5.09,1.46-2.55,1.34-2.61a26.63,26.63,0,0,1-1.55,2.65,29.41,29.41,0,0,1-1.9,2.37,27.43,27.43,0,0,1-4.4,4Z"/><path class="cls-2" d="M492.23,394.12c1.47-2.91,3-5.78,4.41-8.74l4-8.92-2.31-1a25.06,25.06,0,0,1-3.52,2.64,25.56,25.56,0,0,1,.1,8.1A28.58,28.58,0,0,1,492.23,394.12Z"/><path class="cls-3" d="M453.46,384.76l8.2,4.86c.29-.09.58-.19.88-.26q3-.76,6.12-1.6c2.06-.56,4.15-1.14,6.15-1.81,4-1.31,8.17-2.71,12.29-4.27a17.1,17.1,0,0,1-1.94,8.71,15.89,15.89,0,0,1-1.68,2.63,17.12,17.12,0,0,1-2.15,2.19,16.51,16.51,0,0,1-5.19,3l8.24,4.89a27.43,27.43,0,0,0,4.4-4,29.41,29.41,0,0,0,1.9-2.37,26.63,26.63,0,0,0,1.55-2.65,28.58,28.58,0,0,0,2.71-7.9,25.56,25.56,0,0,0-.1-8.1,25.06,25.06,0,0,0,3.52-2.64l-8.77-3.73c-.3.15-.6.3-.91.42q-6.07,2.54-12,4.7c-4.06,1.4-8.11,2.66-12.07,3.82a15.94,15.94,0,0,1,9.47-15.52l-8.78-3.73a21.16,21.16,0,0,0-6.3,7.84,23.31,23.31,0,0,0-2.05,13.7A21.89,21.89,0,0,0,453.46,384.76Z"/><path class="cls-2" d="M442.34,405a27.38,27.38,0,0,1,.94-7.13,20.74,20.74,0,0,1,1.22-3.22c.25-.51.52-1,.8-1.51s.56-1,.86-1.47c-.7,1.15-1.49,2.24-2.27,3.33l-2.34,3.29c-1.51,2.24-3.23,4.31-4.89,6.44l2,1.55A23.63,23.63,0,0,1,442.34,405Z"/><path class="cls-2" d="M450.2,403.75a201.87,201.87,0,0,0,25-5.22c.32-.09.62-.2.93-.31l-14.5-8.6a15.94,15.94,0,0,0-2.33.93,17.52,17.52,0,0,0-2.17,1.21,14.76,14.76,0,0,0-3.51,3.21A16.44,16.44,0,0,0,450.2,403.75Z"/><path class="cls-2" d="M472.36,407.72c-4.18,1.07-8.55,1.85-12.74,2.6-2.12.36-4.18.72-6.28,1s-4.24.52-6.32.74c-.32,0-.62.09-.92.14l13.21,10.45a16.75,16.75,0,0,0,5.59-2.26,16.45,16.45,0,0,0,4.39-4.3A15.78,15.78,0,0,0,472.36,407.72Z"/><path class="cls-2" d="M451.31,383.48c-.41.7-.78,1.41-1.22,2.09l-1.31,2-2.62,4.08a20.21,20.21,0,0,1,3.21-3.84,19.51,19.51,0,0,1,2-1.62,24.15,24.15,0,0,1,2.11-1.48Z"/><path class="cls-2" d="M468.76,430.13l3.62-4.62c1.17-1.57,2.28-3.18,3.43-4.77a26.4,26.4,0,0,1-4.05,4.55,28,28,0,0,1-4.93,3.31Z"/><path class="cls-2" d="M475.81,420.74l2.83-4c.95-1.32,1.78-2.72,2.68-4.09l2.64-4.12,1.31-2.06,1.23-2.11-2.16-1.29a19.4,19.4,0,0,1-3.78,2.19A24.86,24.86,0,0,1,475.81,420.74Z"/><path class="cls-3" d="M438.62,406.3l7.48,5.91c.3,0,.6-.11.92-.14q3.12-.33,6.32-.74c2.1-.29,4.16-.65,6.28-1,4.19-.75,8.56-1.53,12.74-2.6a15.78,15.78,0,0,1-3.07,8.38,16.45,16.45,0,0,1-4.39,4.3,16.75,16.75,0,0,1-5.59,2.26l7.52,5.94a28,28,0,0,0,4.93-3.31,26.4,26.4,0,0,0,4.05-4.55,24.86,24.86,0,0,0,4.75-15.47,19.4,19.4,0,0,0,3.78-2.19l-8.19-4.86c-.31.11-.61.22-.93.31a201.87,201.87,0,0,1-25,5.22,16.44,16.44,0,0,1,3.44-8.78,14.76,14.76,0,0,1,3.51-3.21,17.52,17.52,0,0,1,2.17-1.21,15.94,15.94,0,0,1,2.33-.93l-8.2-4.87a24.15,24.15,0,0,0-2.11,1.48,19.51,19.51,0,0,0-2,1.62,20.21,20.21,0,0,0-3.21,3.84c-.3.48-.58,1-.86,1.47s-.55,1-.8,1.51a20.74,20.74,0,0,0-1.22,3.22,27.38,27.38,0,0,0-.94,7.13A23.63,23.63,0,0,0,438.62,406.3Z"/><path class="cls-2" d="M425,425a23,23,0,0,1,1.85-7,21.5,21.5,0,0,1,1.66-3,19.56,19.56,0,0,1,2-2.77c-.89,1-1.75,2.05-2.66,3L425,418.16l-2.79,2.93c-.91,1-1.93,1.87-2.9,2.81l1.74,1.8A24.21,24.21,0,0,1,425,425Z"/><path class="cls-2" d="M432.88,424.7c2.09,0,4.22,0,6.33-.12s4.18-.24,6.3-.4,4.27-.33,6.43-.54,4.25-.51,6.41-.8c.33,0,.65-.11,1-.18L446.1,412.21a15.72,15.72,0,0,0-4.71,1.55,15.3,15.3,0,0,0-3.94,2.7,14.5,14.5,0,0,0-2.84,3.75A16,16,0,0,0,432.88,424.7Z"/><path class="cls-2" d="M454.31,431.57q-3.27.33-6.48.59c-2.15.15-4.35.22-6.49.31-4.31.13-8.45.25-12.71.07-.32,0-.62,0-.93,0l11.71,12.11a15,15,0,0,0,5.82-1.51,17.76,17.76,0,0,0,4.94-3.66A15.84,15.84,0,0,0,454.31,431.57Z"/><path class="cls-2" d="M436.66,404.75c-1,1.26-2,2.57-3,3.79l-3.17,3.66a19.44,19.44,0,0,1,3.72-3.34,23.86,23.86,0,0,1,4.42-2.57Z"/><path class="cls-2" d="M447.78,453.31c2.89-2.64,5.52-5.54,8.23-8.36a24.77,24.77,0,0,1-9.94,6.59Z"/><path class="cls-2" d="M456,445c2.3-2.32,4.39-4.82,6.53-7.28l3.19-3.7,3-3.84-2-1.56a25.56,25.56,0,0,1-4,1.68,23.79,23.79,0,0,1-2.12,7.77,26.86,26.86,0,0,1-2,3.64A21.89,21.89,0,0,1,456,445Z"/><path class="cls-3" d="M421.07,425.7l6.63,6.85c.31,0,.61,0,.93,0,4.26.18,8.4.06,12.71-.07,2.14-.09,4.34-.16,6.49-.31s4.3-.37,6.48-.59a15.84,15.84,0,0,1-4.14,7.92,17.76,17.76,0,0,1-4.94,3.66,15,15,0,0,1-5.82,1.51l6.66,6.88A24.77,24.77,0,0,0,456,445a21.89,21.89,0,0,0,2.66-3.29,26.86,26.86,0,0,0,2-3.64,23.79,23.79,0,0,0,2.12-7.77,25.56,25.56,0,0,0,4-1.68l-7.47-5.91c-.32.07-.64.13-1,.18-2.16.29-4.25.6-6.41.8s-4.31.39-6.43.54-4.22.29-6.3.4-4.24.1-6.33.12a16,16,0,0,1,1.73-4.49,14.5,14.5,0,0,1,2.84-3.75,15.3,15.3,0,0,1,3.94-2.7,15.72,15.72,0,0,1,4.71-1.55l-7.49-5.92a23.86,23.86,0,0,0-4.42,2.57,20,20,0,0,0-5.73,6.11,21.5,21.5,0,0,0-1.66,3,23,23,0,0,0-1.85,7A24.21,24.21,0,0,0,421.07,425.7Z"/><path class="cls-2" d="M405,442.34a24.08,24.08,0,0,1,7.18-11.87c-4,3.59-8.28,6.89-12.57,10.14l1.49,2A33.45,33.45,0,0,1,405,442.34Z"/><path class="cls-2" d="M413,443.2c1,.13,2.1.28,3.14.38l3.11.29q3.12.27,6.33.47c4.31.33,8.53.36,12.9.37.33,0,.66,0,1,0L427.7,432.55A15.92,15.92,0,0,0,413,443.2Z"/><path class="cls-2" d="M433.27,452.84c-2.2-.09-4.37-.19-6.53-.32s-4.26-.26-6.43-.51c-4.31-.45-8.48-.95-12.61-1.6l-.93-.12,10,13.55a14.75,14.75,0,0,0,5.94-.76,18,18,0,0,0,5.41-2.93A16.94,16.94,0,0,0,433.27,452.84Z"/><path class="cls-2" d="M419.33,423.9l-3.5,3.35-.88.84-.92.79-1.83,1.59a23.92,23.92,0,0,1,8.86-4.78Z"/><path class="cls-2" d="M423.93,473.54l1.19-.86,1.16-.9,2.31-1.81,4.61-3.63a29.53,29.53,0,0,1-5.15,3.26,22.17,22.17,0,0,1-5.58,1.95Z"/><path class="cls-2" d="M433.2,466.34c2.53-2.06,4.95-4.24,7.42-6.36l1.85-1.61,1.77-1.68,3.54-3.38-1.74-1.8a24.85,24.85,0,0,1-4.23,1.11,24.33,24.33,0,0,1-1.19,3.87,25.08,25.08,0,0,1-1.91,3.57A26.62,26.62,0,0,1,433.2,466.34Z"/><path class="cls-3" d="M401.12,442.62l5.65,7.67.93.12c4.13.65,8.3,1.15,12.61,1.6,2.17.25,4.29.39,6.43.51s4.33.23,6.53.32a16.94,16.94,0,0,1-5.14,7.31,18,18,0,0,1-5.41,2.93,14.75,14.75,0,0,1-5.94.76l5.69,7.71a22.17,22.17,0,0,0,5.58-1.95,29.53,29.53,0,0,0,5.15-3.26,26.62,26.62,0,0,0,5.51-6.28,25.08,25.08,0,0,0,1.91-3.57,24.33,24.33,0,0,0,1.19-3.87,24.85,24.85,0,0,0,4.23-1.11l-6.63-6.85c-.32,0-.65,0-1,0-4.37,0-8.59,0-12.9-.37q-3.21-.19-6.33-.47l-3.11-.29c-1-.1-2.1-.25-3.14-.38a15.92,15.92,0,0,1,14.75-10.65l-6.64-6.86a23.92,23.92,0,0,0-8.86,4.78A24.08,24.08,0,0,0,405,442.34,33.45,33.45,0,0,0,401.12,442.62Z"/><path class="cls-2" d="M383,456.94a24.88,24.88,0,0,1,3.65-6.15,20.38,20.38,0,0,1,5.06-4.63l-6.81,4.35-7,4,1.2,2.19A23.49,23.49,0,0,1,383,456.94Z"/><path class="cls-2" d="M390.75,458.89q6,1.5,12.31,2.81c4.18.82,8.38,1.44,12.73,2.06l1,.09-10-13.56a15.31,15.31,0,0,0-9.44,1.85A14.79,14.79,0,0,0,390.75,458.89Z"/><path class="cls-2" d="M409.61,471.15q-6.54-1.17-12.74-2.55c-4.2-1-8.32-2.14-12.31-3.3-.29-.09-.59-.15-.89-.22l8.11,14.76a16.24,16.24,0,0,0,6,0,17.29,17.29,0,0,0,3-.8,13,13,0,0,0,2.8-1.38A17.6,17.6,0,0,0,409.61,471.15Z"/><path class="cls-2" d="M399.63,440.61l-3.95,2.81c-1.32.93-2.61,1.91-4,2.74a27.39,27.39,0,0,1,4.44-2.29,21.77,21.77,0,0,1,5-1.26Z"/><path class="cls-2" d="M397.58,490.4l5.09-2.92,2.54-1.47,1.27-.73,1.24-.79a16.82,16.82,0,0,1-2.71,1.45,27.93,27.93,0,0,1-2.83,1.09,26.78,26.78,0,0,1-5.79,1.21Z"/><path class="cls-2" d="M407.72,484.49,416,479.2l8-5.66-1.49-2a25.66,25.66,0,0,1-4.36.5,25.33,25.33,0,0,1-1.71,3.66A19.39,19.39,0,0,1,414,479,28.79,28.79,0,0,1,407.72,484.49Z"/><path class="cls-3" d="M379.08,456.72l4.59,8.36c.3.07.6.13.89.22,4,1.16,8.11,2.3,12.31,3.3s8.38,1.77,12.74,2.55a17.6,17.6,0,0,1-6.09,6.53,13,13,0,0,1-2.8,1.38,17.29,17.29,0,0,1-3,.8,16.24,16.24,0,0,1-6,0l4.61,8.4a26.78,26.78,0,0,0,5.79-1.21,27.93,27.93,0,0,0,2.83-1.09,16.82,16.82,0,0,0,2.71-1.45A28.79,28.79,0,0,0,414,479a19.39,19.39,0,0,0,2.33-3.34,25.33,25.33,0,0,0,1.71-3.66,25.66,25.66,0,0,0,4.36-.5l-5.66-7.67-1-.09c-4.35-.62-8.55-1.24-12.73-2.06s-8.32-1.81-12.31-2.81a14.79,14.79,0,0,1,6.58-6.75,15.31,15.31,0,0,1,9.44-1.85l-5.66-7.68a21.77,21.77,0,0,0-5,1.26,27.39,27.39,0,0,0-4.44,2.29,20.38,20.38,0,0,0-5.06,4.63,24.88,24.88,0,0,0-3.65,6.15A23.49,23.49,0,0,0,379.08,456.72Z"/><path class="cls-2" d="M359.21,468.49a22.14,22.14,0,0,1,2.06-3,22.5,22.5,0,0,1,2.36-2.67,21.27,21.27,0,0,1,5.65-3.85c-2.43,1.15-4.9,2.22-7.34,3.34l-1.84.83-1.88.74-3.76,1.48.9,2.33A23.27,23.27,0,0,1,359.21,468.49Z"/><path class="cls-2" d="M366.63,471.41q2.87,1.17,5.84,2.3c2,.75,4,1.53,6,2.16,4,1.32,8.14,2.6,12.37,3.78.32.08.63.14.95.2l-8.11-14.78a15.83,15.83,0,0,0-9.62.54,18,18,0,0,0-2.12,1,15.26,15.26,0,0,0-2,1.27A15,15,0,0,0,366.63,471.41Z"/><path class="cls-2" d="M383.69,486.1c-2.07-.6-4.17-1.32-6.22-2s-4.08-1.46-6.08-2.2c-4-1.44-7.94-3.2-11.74-4.91-.29-.13-.57-.24-.86-.35l6.06,15.72a16,16,0,0,0,11.93-.57,18.67,18.67,0,0,0,3.89-2.38,16.87,16.87,0,0,0,1.64-1.51A14.64,14.64,0,0,0,383.69,486.1Z"/><path class="cls-2" d="M377.88,454.53c-2.83,1.55-5.74,3-8.6,4.46a21.55,21.55,0,0,1,9.8-2.28Z"/><path class="cls-2" d="M369.18,503.56c3.64-1.44,7.31-2.82,10.85-4.5a24.7,24.7,0,0,1-11.74,2.2Z"/><path class="cls-2" d="M380,499.06c6-2.6,11.79-5.6,17.55-8.66l-1.21-2.2a20.72,20.72,0,0,1-4.38-.07,25.94,25.94,0,0,1-4.95,6.39A26.24,26.24,0,0,1,380,499.06Z"/><path class="cls-3" d="M355.36,467.71l3.43,8.89c.29.11.57.22.86.35,3.8,1.71,7.77,3.47,11.74,4.91,2,.74,4,1.48,6.08,2.2s4.15,1.44,6.22,2a14.64,14.64,0,0,1-1.38,1.76,16.87,16.87,0,0,1-1.64,1.51,18.67,18.67,0,0,1-3.89,2.38,16,16,0,0,1-11.93.57l3.44,8.94a24.7,24.7,0,0,0,11.74-2.2,26.24,26.24,0,0,0,7-4.54,25.94,25.94,0,0,0,4.95-6.39,20.72,20.72,0,0,0,4.38.07l-4.59-8.35c-.32-.06-.63-.12-.95-.2-4.23-1.18-8.36-2.46-12.37-3.78-2-.63-4-1.41-6-2.16s-3.93-1.52-5.84-2.3a15,15,0,0,1,3.31-3.51,15.26,15.26,0,0,1,2-1.27,18,18,0,0,1,2.12-1,15.83,15.83,0,0,1,9.62-.54l-4.59-8.36a21.55,21.55,0,0,0-9.8,2.28,21.27,21.27,0,0,0-5.65,3.85,22.5,22.5,0,0,0-2.36,2.67,22.14,22.14,0,0,0-2.06,3A23.27,23.27,0,0,0,355.36,467.71Z"/><path class="cls-2" d="M334.12,476.78a23.35,23.35,0,0,1,5.13-5,21.69,21.69,0,0,1,3-1.75,24.14,24.14,0,0,1,3.14-1.35c-2.53.92-5.13,1.61-7.72,2.35l-3.88,1.1c-1.3.35-2.62.62-3.93.93l.58,2.43A23.12,23.12,0,0,1,334.12,476.78Z"/><path class="cls-2" d="M341.06,480.61c1.8,1.05,3.64,2.09,5.5,3.12s3.72,1.93,5.63,2.87c3.8,1.86,7.76,3.8,11.74,5.39.3.13.61.23.92.34l-6.06-15.73a17.13,17.13,0,0,0-4.84-1.07,16.27,16.27,0,0,0-12.89,5.08Z"/><path class="cls-2" d="M356,497.44c-2-.91-3.94-1.83-5.86-2.78s-3.87-2-5.75-3.06c-3.77-2.06-7.4-4.09-11-6.42-.27-.17-.54-.32-.81-.47l3.89,16.39a15.53,15.53,0,0,0,5.79,1.69,17.76,17.76,0,0,0,6.11-.65,16.2,16.2,0,0,0,4.19-1.81A17,17,0,0,0,356,497.44Z"/><path class="cls-2" d="M354.46,465.38c-3,1.26-6.06,2.19-9.11,3.25a24,24,0,0,1,10-.94Z"/><path class="cls-2" d="M339.28,512.82c3.83-.81,7.59-1.93,11.35-3a28.61,28.61,0,0,1-6,1.05,22.53,22.53,0,0,1-5.92-.45Z"/><path class="cls-2" d="M350.63,509.82c1.57-.46,3.15-.86,4.7-1.38l4.64-1.56,4.64-1.57c1.55-.52,3-1.17,4.57-1.75l-.9-2.34a25.83,25.83,0,0,1-4.31-.58,25.44,25.44,0,0,1-5.79,5.59,28.34,28.34,0,0,1-3.57,2.14A27.71,27.71,0,0,1,350.63,509.82Z"/><path class="cls-3" d="M330.4,475.44l2.2,9.27c.27.15.54.3.81.47,3.57,2.33,7.2,4.36,11,6.42q2.82,1.54,5.75,3.06c1.92.95,3.88,1.87,5.86,2.78a17,17,0,0,1-3.41,2.89,16.2,16.2,0,0,1-4.19,1.81,17.76,17.76,0,0,1-6.11.65,15.53,15.53,0,0,1-5.79-1.69l2.22,9.32a22.53,22.53,0,0,0,5.92.45,28.61,28.61,0,0,0,6-1.05,27.71,27.71,0,0,0,4-1.45,28.34,28.34,0,0,0,3.57-2.14,25.44,25.44,0,0,0,5.79-5.59,25.83,25.83,0,0,0,4.31.58l-3.43-8.89c-.31-.11-.62-.21-.92-.34-4-1.59-7.94-3.53-11.74-5.39-1.91-.94-3.78-1.87-5.63-2.87s-3.7-2.07-5.5-3.12A15.52,15.52,0,0,1,354,475.53a17.13,17.13,0,0,1,4.84,1.07l-3.43-8.91A21.71,21.71,0,0,0,342.21,470a21.69,21.69,0,0,0-3,1.75,23.35,23.35,0,0,0-5.13,5A23.12,23.12,0,0,0,330.4,475.44Z"/><path class="cls-2" d="M308.12,481.53a22.41,22.41,0,0,1,5.78-4.22,21.75,21.75,0,0,1,6.45-2.3l-4,.71-2,.35-2,.25c-2.67.33-5.34.7-8,1l.25,2.49A27,27,0,0,1,308.12,481.53Z"/><path class="cls-2" d="M314.5,486.34c1.65,1.34,3.32,2.53,5,3.76s3.43,2.44,5.2,3.65c3.54,2.48,7.15,4.66,10.9,6.89.29.17.58.32.88.47l-3.9-16.4A15.88,15.88,0,0,0,314.5,486.34Z"/><path class="cls-2" d="M327,505c-1.84-1.19-3.66-2.4-5.44-3.61s-3.54-2.38-5.27-3.71q-5.2-3.89-10-7.82l-.74-.57,1.67,16.76a16.85,16.85,0,0,0,11.65,2.62A17.17,17.17,0,0,0,327,505Z"/><path class="cls-2" d="M329.82,473l-4.71,1.09c-.79.2-1.58.35-2.37.48l-2.39.43a24.27,24.27,0,0,1,10,.41Z"/><path class="cls-2" d="M308.42,518c3.89-.44,7.77-1,11.65-1.45a27.47,27.47,0,0,1-11.89-1Z"/><path class="cls-2" d="M320.07,516.59c3.22-.52,6.43-1.13,9.64-1.69l2.41-.44,2.39-.54,4.77-1.1-.58-2.44a25.91,25.91,0,0,1-4.2-1.2A21.07,21.07,0,0,1,328,514,27.49,27.49,0,0,1,320.07,516.59Z"/><path class="cls-3" d="M304.62,479.81l.94,9.48.74.57q4.81,3.93,10,7.82c1.73,1.33,3.48,2.49,5.27,3.71s3.6,2.42,5.44,3.61a17.17,17.17,0,0,1-8.15,3.67,16.85,16.85,0,0,1-11.65-2.62l.95,9.54A25.56,25.56,0,0,0,328,514a21.07,21.07,0,0,0,6.48-4.81,25.91,25.91,0,0,0,4.2,1.2l-2.2-9.27c-.3-.15-.59-.3-.88-.47-3.75-2.23-7.36-4.41-10.9-6.89q-2.66-1.81-5.2-3.65c-1.7-1.23-3.37-2.42-5-3.76a15.88,15.88,0,0,1,18.1-1.63l-2.2-9.29a24.27,24.27,0,0,0-10-.41,21.75,21.75,0,0,0-6.45,2.3,22.41,22.41,0,0,0-5.78,4.22A27,27,0,0,0,304.62,479.81Z"/><path class="cls-2" d="M281.69,482.84a21.89,21.89,0,0,1,3.07-1.94,24.77,24.77,0,0,1,3.22-1.52,19.93,19.93,0,0,1,6.72-1.33l-8.08.2c-1.35.06-2.7,0-4.05,0l-4-.1-.08,2.5A23.3,23.3,0,0,1,281.69,482.84Z"/><path class="cls-2" d="M287.38,488.43c2.93,2.92,6,5.89,9.16,8.76s6.47,5.53,9.89,8.28c.26.21.53.4.8.59l-1.67-16.77A15.31,15.31,0,0,0,296.5,486a18.06,18.06,0,0,0-4.69.48A15.22,15.22,0,0,0,287.38,488.43Z"/><path class="cls-2" d="M297.34,508.64a208.37,208.37,0,0,1-18.55-17.84c-.21-.23-.43-.44-.65-.66L277.58,507a16,16,0,0,0,11.19,4.14A16.87,16.87,0,0,0,297.34,508.64Z"/><path class="cls-2" d="M304.37,477.32l-9.67.73a20.93,20.93,0,0,1,9.92,1.74Z"/><path class="cls-2" d="M277.19,519c3.9.08,7.81.27,11.72.1a24.63,24.63,0,0,1-11.64-2.57Z"/><path class="cls-2" d="M288.91,519.12l4.88-.13c1.63,0,3.26,0,4.88-.21l9.75-.74-.25-2.5a25.67,25.67,0,0,1-4-1.81,26.38,26.38,0,0,1-7.05,4A28.55,28.55,0,0,1,288.91,519.12Z"/><path class="cls-3" d="M278.45,480.62l-.31,9.52c.22.22.44.43.65.66a208.37,208.37,0,0,0,18.55,17.84,16.87,16.87,0,0,1-8.57,2.48A16,16,0,0,1,277.58,507l-.31,9.57a24.63,24.63,0,0,0,11.64,2.57,28.55,28.55,0,0,0,8.21-1.41,26.38,26.38,0,0,0,7.05-4,25.67,25.67,0,0,0,4,1.81l-.94-9.48c-.27-.19-.54-.38-.8-.59q-5.13-4.12-9.89-8.28c-3.18-2.87-6.23-5.84-9.16-8.76a15.22,15.22,0,0,1,4.43-1.94,18.06,18.06,0,0,1,4.69-.48,15.31,15.31,0,0,1,9.06,3.28l-.94-9.5a20.93,20.93,0,0,0-9.92-1.74,19.93,19.93,0,0,0-6.72,1.33,24.77,24.77,0,0,0-3.22,1.52,21.89,21.89,0,0,0-3.07,1.94A23.3,23.3,0,0,0,278.45,480.62Z"/><path class="cls-2" d="M255.32,480.7a21.76,21.76,0,0,1,10.11-3.1,20.56,20.56,0,0,1,3.42,0c-1.34-.11-2.69-.18-4-.32l-4-.51c-2.67-.36-5.36-.62-8-1.16l-.42,2.47A26.89,26.89,0,0,1,255.32,480.7Z"/><path class="cls-2" d="M260.23,486.94c1.25,1.66,2.54,3.37,3.86,5s2.68,3.22,4.06,4.83c2.78,3.21,5.68,6.52,8.71,9.54.23.23.48.45.72.67l.56-16.85a16.5,16.5,0,0,0-4.05-2.86,14.7,14.7,0,0,0-9.23-1.62A16.16,16.16,0,0,0,260.23,486.94Z"/><path class="cls-2" d="M267.44,508.25q-2.2-2.43-4.32-4.85c-1.4-1.64-2.77-3.37-4.1-5s-2.64-3.37-3.92-5.05l-1.88-2.51-1.82-2.62c-.18-.26-.37-.5-.56-.74l-2.78,16.61a16,16,0,0,0,10.56,5.58A15.69,15.69,0,0,0,267.44,508.25Z"/><path class="cls-2" d="M278.53,478.12c-3.24,0-6.46-.32-9.68-.56a19.78,19.78,0,0,1,4.9,1c.4.13.8.28,1.2.44s.79.29,1.18.46a21.56,21.56,0,0,1,2.32,1.13Z"/><path class="cls-2" d="M246.07,515.93l2.89.51c1,.16,1.94.26,2.91.39l5.82.75a25,25,0,0,1-11.21-4.08Z"/><path class="cls-2" d="M257.69,517.58c3.23.47,6.49.65,9.74.91l4.87.37c1.63.1,3.26.1,4.89.16l.08-2.51a24.72,24.72,0,0,1-3.74-2.22,24.63,24.63,0,0,1-7.5,2.9,27.85,27.85,0,0,1-4.11.57A22.27,22.27,0,0,1,257.69,517.58Z"/><path class="cls-3" d="M252.41,478l-1.57,9.4c.19.24.38.48.56.74l1.82,2.62,1.88,2.51c1.28,1.68,2.58,3.36,3.92,5.05s2.7,3.4,4.1,5,2.85,3.23,4.32,4.85a15.69,15.69,0,0,1-8.82,1.38,16,16,0,0,1-10.56-5.58l-1.58,9.45a25,25,0,0,0,11.21,4.08,22.27,22.27,0,0,0,4.23.18,27.85,27.85,0,0,0,4.11-.57,24.63,24.63,0,0,0,7.5-2.9,24.72,24.72,0,0,0,3.74,2.22l.31-9.52c-.24-.22-.49-.44-.72-.67-3-3-5.93-6.33-8.71-9.54-1.38-1.61-2.74-3.22-4.06-4.83s-2.61-3.35-3.86-5a16.16,16.16,0,0,1,4.63-1.28,14.7,14.7,0,0,1,9.23,1.62,16.5,16.5,0,0,1,4.05,2.86l.31-9.54a21.56,21.56,0,0,0-2.32-1.13c-.39-.17-.78-.32-1.18-.46s-.8-.31-1.2-.44a19.78,19.78,0,0,0-4.9-1,20.56,20.56,0,0,0-3.42,0,21.76,21.76,0,0,0-10.11,3.1A26.89,26.89,0,0,0,252.41,478Z"/><path class="cls-2" d="M229.52,475a22.32,22.32,0,0,1,7-1.62,20.06,20.06,0,0,1,6.84.37l-3.93-.9c-1.31-.32-2.63-.57-3.92-1l-7.76-2.2-.74,2.39A22.61,22.61,0,0,1,229.52,475Z"/><path class="cls-2" d="M233.52,481.91c2,3.62,4.24,7.16,6.54,10.79l1.76,2.72,1.82,2.61c1.24,1.75,2.5,3.5,3.8,5.26.19.26.41.51.62.77l2.78-16.63a15.58,15.58,0,0,0-3.62-3.42,18.34,18.34,0,0,0-4.27-2.08A15.26,15.26,0,0,0,233.52,481.91Z"/><path class="cls-2" d="M237.82,504c-2.47-3.67-4.82-7.26-7-10.91s-4.24-7.46-6.18-11.13c-.14-.27-.3-.53-.46-.79l-5,16.09a16.94,16.94,0,0,0,9.73,6.94A17.51,17.51,0,0,0,237.82,504Z"/><path class="cls-2" d="M252.83,475.57l-4.77-.85c-.79-.15-1.59-.26-2.38-.44l-2.36-.55a19.91,19.91,0,0,1,2.39.72,24.43,24.43,0,0,1,2.33.91,21.63,21.63,0,0,1,4.38,2.66Z"/><path class="cls-2" d="M215.6,508.74c3.77,1.07,7.53,2.17,11.31,3.19a27.5,27.5,0,0,1-10.58-5.54Z"/><path class="cls-2" d="M226.91,511.93l9.54,2.21c1.58.4,3.2.62,4.8.93l4.82.86.41-2.48a25.71,25.71,0,0,1-3.4-2.75A25.09,25.09,0,0,1,226.91,511.93Z"/><path class="cls-3" d="M227,472.05l-2.82,9.1c.16.26.32.52.46.79,1.94,3.67,4,7.39,6.18,11.13s4.56,7.24,7,10.91a17.51,17.51,0,0,1-8.93.2,16.94,16.94,0,0,1-9.73-6.94l-2.83,9.15a27.5,27.5,0,0,0,10.58,5.54,25.09,25.09,0,0,0,16.17-1.23,25.71,25.71,0,0,0,3.4,2.75l1.58-9.39c-.21-.26-.43-.51-.62-.77-1.3-1.76-2.56-3.51-3.8-5.26l-1.82-2.61-1.76-2.72c-2.3-3.63-4.5-7.17-6.54-10.79a15.26,15.26,0,0,1,9.43,0,18.34,18.34,0,0,1,4.27,2.08,15.58,15.58,0,0,1,3.62,3.42l1.58-9.41a21.63,21.63,0,0,0-4.38-2.66,24.43,24.43,0,0,0-2.33-.91,19.67,19.67,0,0,0-9.23-1.09,22.32,22.32,0,0,0-7,1.62A22.61,22.61,0,0,0,227,472.05Z"/><path class="cls-2" d="M204.71,465.9a22.76,22.76,0,0,1,3.59-.59,28.09,28.09,0,0,1,3.54-.14,20.19,20.19,0,0,1,6.7,1.4l-7.51-3c-1.26-.46-2.47-1.05-3.7-1.6l-3.68-1.66-1.05,2.26A24.44,24.44,0,0,1,204.71,465.9Z"/><path class="cls-2" d="M207.76,473.28c1.55,3.82,3.19,7.77,5,11.62s3.8,7.63,5.88,11.5c.16.29.33.58.51.85l5-16.1a15.47,15.47,0,0,0-7.06-6.56,17.74,17.74,0,0,0-4.5-1.37A15.08,15.08,0,0,0,207.76,473.28Z"/><path class="cls-2" d="M209,495.76a204.55,204.55,0,0,1-10.11-23.66c-.11-.29-.23-.57-.35-.85l-7.1,15.27A16.36,16.36,0,0,0,195,491.4a15.35,15.35,0,0,0,2.39,1.92,19.21,19.21,0,0,0,2.8,1.39A16.66,16.66,0,0,0,209,495.76Z"/><path class="cls-2" d="M227.71,469.66l-9.17-3.09A21,21,0,0,1,227,472Z"/><path class="cls-2" d="M186.4,497.44c3.58,1.59,7.1,3.32,10.78,4.68a28.49,28.49,0,0,1-2.8-1.28,20.51,20.51,0,0,1-2.55-1.64,26.54,26.54,0,0,1-4.39-4Z"/><path class="cls-2" d="M197.18,502.12l4.55,1.8c1.52.6,3,1.2,4.59,1.7l9.28,3.12.74-2.39a24.72,24.72,0,0,1-3-3.23,25.65,25.65,0,0,1-8,.9A27.38,27.38,0,0,1,197.18,502.12Z"/><path class="cls-3" d="M202.6,462.6l-4,8.65c.12.28.24.56.35.85A204.55,204.55,0,0,0,209,495.76a16.66,16.66,0,0,1-8.86-1.05,19.21,19.21,0,0,1-2.8-1.39A15.35,15.35,0,0,1,195,491.4a16.36,16.36,0,0,1-3.51-4.88l-4,8.69a26.54,26.54,0,0,0,4.39,4,20.51,20.51,0,0,0,2.55,1.64,28.49,28.49,0,0,0,2.8,1.28,27.38,27.38,0,0,0,8.13,1.9,25.65,25.65,0,0,0,8-.9,24.72,24.72,0,0,0,3,3.23l2.82-9.1c-.18-.27-.35-.56-.51-.85q-3.12-5.81-5.88-11.5c-1.82-3.85-3.46-7.8-5-11.62a15.08,15.08,0,0,1,4.83-.06,17.74,17.74,0,0,1,4.5,1.37,15.47,15.47,0,0,1,7.06,6.56L227,472a21,21,0,0,0-8.44-5.46,20.19,20.19,0,0,0-6.7-1.4,28.09,28.09,0,0,0-3.54.14,22.76,22.76,0,0,0-3.59.59A24.44,24.44,0,0,0,202.6,462.6Z"/><path class="cls-2" d="M181.32,453.6a34.59,34.59,0,0,1,3.66-.16,22.7,22.7,0,0,1,3.53.36A25,25,0,0,1,195,456c-2.43-1.16-4.7-2.61-7.05-3.92-1.16-.68-2.35-1.32-3.49-2l-3.4-2.18-1.34,2.1A24.5,24.5,0,0,1,181.32,453.6Z"/><path class="cls-2" d="M183.38,461.27q.75,3,1.58,6.12c.55,2.07,1.2,4,1.84,6.05s1.32,4.06,2,6.11l1.08,3.08,1.17,3c.12.31.26.6.4.9l7.1-15.29a15.61,15.61,0,0,0-10.43-9.33A15.11,15.11,0,0,0,183.38,461.27Z"/><path class="cls-2" d="M181.64,483.71c-.71-2.08-1.43-4.07-2.06-6.17s-1.23-4.18-1.8-6.24-1.12-4.11-1.64-6.14-.93-4.17-1.36-6.22c-.07-.31-.15-.6-.23-.9l-9.08,14.19a16.92,16.92,0,0,0,2.8,5.35A17.7,17.7,0,0,0,173,481.5a18.12,18.12,0,0,0,4.21,1.77A16.3,16.3,0,0,0,181.64,483.71Z"/><path class="cls-2" d="M203.65,460.34l-2.21-1c-.73-.34-1.44-.73-2.16-1.09L195,456a20.13,20.13,0,0,1,4.13,2.82c.64.55,1.23,1.18,1.82,1.79a21.07,21.07,0,0,1,1.68,1.94Z"/><path class="cls-2" d="M159,482.38c1.66,1,3.29,2.12,5,3.14l5.09,2.93a28.69,28.69,0,0,1-4.94-3.57,26.08,26.08,0,0,1-3.78-4.58Z"/><path class="cls-2" d="M169,488.45l4.24,2.44,4.35,2.23c2.91,1.48,5.78,3,8.78,4.32l1.06-2.27a21.69,21.69,0,0,1-2.56-3.52,25.75,25.75,0,0,1-8.06-.26,22.61,22.61,0,0,1-4-1.1A29,29,0,0,1,169,488.45Z"/><path class="cls-3" d="M179.69,450l-5.14,8c.08.3.16.59.23.9.43,2.05.87,4.15,1.36,6.22s1.07,4.07,1.64,6.14,1.18,4.14,1.8,6.24,1.35,4.09,2.06,6.17a16.3,16.3,0,0,1-4.44-.44A18.12,18.12,0,0,1,173,481.5a17.7,17.7,0,0,1-4.72-3.92,16.92,16.92,0,0,1-2.8-5.35l-5.16,8.07a26.08,26.08,0,0,0,3.78,4.58,28.69,28.69,0,0,0,4.94,3.57,29,29,0,0,0,3.81,1.84,22.61,22.61,0,0,0,4,1.1,25.75,25.75,0,0,0,8.06.26,21.69,21.69,0,0,0,2.56,3.52l4-8.64c-.14-.3-.28-.59-.4-.9l-1.17-3-1.08-3.08c-.71-2.05-1.38-4.09-2-6.11s-1.29-4-1.84-6.05-1.08-4.1-1.58-6.12a15.11,15.11,0,0,1,4.77.64,15.61,15.61,0,0,1,10.43,9.33l4-8.65a21.07,21.07,0,0,0-1.68-1.94c-.59-.61-1.18-1.24-1.82-1.79A20.13,20.13,0,0,0,195,456a25,25,0,0,0-6.46-2.24,22.7,22.7,0,0,0-3.53-.36,34.59,34.59,0,0,0-3.66.16A24.5,24.5,0,0,0,179.69,450Z"/><path class="cls-2" d="M159.77,438.26A23.45,23.45,0,0,1,173,442.48l-3.29-2.33c-1.09-.8-2.12-1.66-3.19-2.49-2.09-1.69-4.29-3.26-6.28-5.08l-1.61,1.91A31,31,0,0,1,159.77,438.26Z"/><path class="cls-2" d="M160.8,446.14c.4,4.22,1,8.3,1.78,12.51.36,2.1.74,4.22,1.17,6.35s.94,4.18,1.45,6.29c.07.32.17.63.27.95l9.08-14.2a15.43,15.43,0,0,0-2-4.54,17.43,17.43,0,0,0-3.08-3.64A16.38,16.38,0,0,0,160.8,446.14Z"/><path class="cls-2" d="M156.1,468.14c-.86-4.31-1.66-8.49-2.18-12.81-.29-2.13-.55-4.25-.78-6.34l-.33-3.13c-.1-1-.16-2.12-.24-3.17,0-.31-.06-.62-.1-.93l-10.88,12.86a16.47,16.47,0,0,0,.75,2.94,15,15,0,0,0,1.34,2.69,17.86,17.86,0,0,0,4.13,4.57,19.93,19.93,0,0,0,1.89,1.31,18.35,18.35,0,0,0,2.07.95A17.24,17.24,0,0,0,156.1,468.14Z"/><path class="cls-2" d="M181,447.91,177,445.3,173,442.48a20.41,20.41,0,0,1,3.69,3.39,20.91,20.91,0,0,1,3,4.13Z"/><path class="cls-2" d="M133.81,463.82l2.22,1.91,2.31,1.82,4.61,3.63a29.36,29.36,0,0,1-4.38-4.24,25.42,25.42,0,0,1-1.77-2.39,27.34,27.34,0,0,1-1.4-2.61Z"/><path class="cls-2" d="M143,471.18l1.93,1.5,2,1.42,4,2.84c1.34.93,2.64,1.92,4,2.79l4.11,2.65,1.36-2.12a24.5,24.5,0,0,1-2.07-3.84,22.6,22.6,0,0,1-8-1.31A24.31,24.31,0,0,1,143,471.18Z"/><path class="cls-3" d="M158.63,434.49l-6.16,7.27c0,.31.08.62.1.93.08,1.05.14,2.13.24,3.17l.33,3.13c.23,2.09.49,4.21.78,6.34.52,4.32,1.32,8.5,2.18,12.81a17.24,17.24,0,0,1-4.33-1.06,18.35,18.35,0,0,1-2.07-.95,19.93,19.93,0,0,1-1.89-1.31,17.86,17.86,0,0,1-4.13-4.57,15,15,0,0,1-1.34-2.69,16.47,16.47,0,0,1-.75-2.94l-6.19,7.32a27.34,27.34,0,0,0,1.4,2.61,25.42,25.42,0,0,0,1.77,2.39,29.36,29.36,0,0,0,4.38,4.24,24.31,24.31,0,0,0,7.37,3.93,22.6,22.6,0,0,0,8,1.31,24.5,24.5,0,0,0,2.07,3.84l5.13-8c-.1-.32-.2-.63-.27-.95-.51-2.11-1-4.21-1.45-6.29s-.81-4.25-1.17-6.35c-.73-4.21-1.38-8.29-1.78-12.51a16.38,16.38,0,0,1,8.66,3.72,17.43,17.43,0,0,1,3.08,3.64,15.43,15.43,0,0,1,2,4.54l5.14-8a20.91,20.91,0,0,0-3-4.13,20.41,20.41,0,0,0-3.69-3.39,23.45,23.45,0,0,0-13.23-4.22A31,31,0,0,0,158.63,434.49Z"/><path class="cls-2" d="M140.48,420.16a22.2,22.2,0,0,1,6.83,2.15,20.66,20.66,0,0,1,5.69,3.82l-2.92-2.78c-1-.93-2-1.85-2.87-2.84-1.85-2-3.73-3.89-5.56-5.86l-1.85,1.67A26.55,26.55,0,0,1,140.48,420.16Z"/><path class="cls-2" d="M140.41,428.16c-.12,4.17,0,8.32.11,12.62l.12,3.23.23,3.18c.17,2.13.36,4.29.58,6.46,0,.33.08.65.14,1l10.88-12.87a16,16,0,0,0-1.35-4.8,18.33,18.33,0,0,0-2.62-4A15.4,15.4,0,0,0,140.41,428.16Z"/><path class="cls-2" d="M132.84,449.33c-.25-4.42-.46-8.69-.48-13s.15-8.57.35-12.71l0-.93L120.24,434A16.85,16.85,0,0,0,125.05,445,17.51,17.51,0,0,0,132.84,449.33Z"/><path class="cls-2" d="M160.24,432.58l-3.66-3.17c-.61-.54-1.24-1-1.82-1.6L153,426.13a19.71,19.71,0,0,1,1.7,1.84c.53.64,1.07,1.28,1.54,2a21.81,21.81,0,0,1,2.4,4.54Z"/><path class="cls-2" d="M111.31,442.1c2.66,2.87,5.38,5.68,8.08,8.51a27.43,27.43,0,0,1-6.25-10.16Z"/><path class="cls-2" d="M119.39,450.61l7.08,6.75c1.15,1.15,2.42,2.18,3.64,3.26l3.7,3.2,1.62-1.92a25.32,25.32,0,0,1-1.51-4.11A25.18,25.18,0,0,1,119.39,450.61Z"/><path class="cls-3" d="M139.8,416.32l-7.07,6.4,0,.93q-.3,6.21-.35,12.71c0,4.28.23,8.55.48,13a17.51,17.51,0,0,1-7.79-4.38A16.85,16.85,0,0,1,120.24,434l-7.1,6.43a27.43,27.43,0,0,0,6.25,10.16,25.18,25.18,0,0,0,14.53,7.18,25.32,25.32,0,0,0,1.51,4.11l6.16-7.27c-.06-.33-.11-.65-.14-1-.22-2.17-.41-4.33-.58-6.46l-.23-3.18-.12-3.23c-.13-4.3-.23-8.45-.11-12.62A15.4,15.4,0,0,1,148.5,433a18.33,18.33,0,0,1,2.62,4,16,16,0,0,1,1.35,4.8l6.17-7.28a21.81,21.81,0,0,0-2.4-4.54c-.47-.69-1-1.33-1.54-2a19.71,19.71,0,0,0-1.7-1.84,20.66,20.66,0,0,0-5.69-3.82,22.2,22.2,0,0,0-6.83-2.15A26.55,26.55,0,0,0,139.8,416.32Z"/><path class="cls-2" d="M123.74,399.69a23.12,23.12,0,0,1,3.41,1.3c.54.26,1,.54,1.56.83s1,.57,1.53.88a20.17,20.17,0,0,1,5.09,4.59l-5-6.35-4.7-6.57-2,1.41A24,24,0,0,1,123.74,399.69Z"/><path class="cls-2" d="M122.6,407.6q-.91,6.13-1.59,12.56T120.23,433c0,.33,0,.66,0,1l12.5-11.31a15.34,15.34,0,0,0-2.76-9.23A15.14,15.14,0,0,0,122.6,407.6Z"/><path class="cls-2" d="M112.26,427.61c.34-4.41.78-8.73,1.29-12.95.22-2.09.61-4.25.94-6.34s.72-4.18,1.11-6.23c.06-.3.09-.61.13-.91l-13.88,9.55a16.49,16.49,0,0,0,.56,6,15,15,0,0,0,2.77,5.5A17.38,17.38,0,0,0,112.26,427.61Z"/><path class="cls-2" d="M141.65,414.65c-2.1-2.47-4.26-4.87-6.32-7.36a21.6,21.6,0,0,1,4.48,9Z"/><path class="cls-2" d="M91.93,417.55l3.4,4.79,1.7,2.39c.57.79,1.2,1.54,1.79,2.32a22.53,22.53,0,0,1-3.1-5.25A27.06,27.06,0,0,1,94,416.16Z"/><path class="cls-2" d="M98.82,427.05c2,2.55,4,5.15,6.08,7.66l6.41,7.39,1.86-1.68a25.36,25.36,0,0,1-.93-4.3,25.17,25.17,0,0,1-7.38-3.31A28.83,28.83,0,0,1,98.82,427.05Z"/><path class="cls-3" d="M123.59,395.78l-7.86,5.4c0,.3-.07.61-.13.91q-.59,3.07-1.11,6.23c-.33,2.09-.72,4.25-.94,6.34-.51,4.22-1,8.54-1.29,12.95a17.38,17.38,0,0,1-7.08-5.42,15,15,0,0,1-2.77-5.5,16.49,16.49,0,0,1-.56-6L94,416.16a27.06,27.06,0,0,0,1.76,5.64,22.53,22.53,0,0,0,3.1,5.25,28.83,28.83,0,0,0,6,5.76,25.17,25.17,0,0,0,7.38,3.31,25.36,25.36,0,0,0,.93,4.3l7.06-6.4c0-.33,0-.66,0-1q.26-6.58.78-12.87.67-6.44,1.59-12.56a15.14,15.14,0,0,1,7.37,5.88,15.34,15.34,0,0,1,2.76,9.23l7.08-6.4a21.6,21.6,0,0,0-4.48-9,20.17,20.17,0,0,0-5.09-4.59c-.49-.31-1-.61-1.53-.88s-1-.57-1.56-.83a23.12,23.12,0,0,0-3.41-1.3A24,24,0,0,0,123.59,395.78Z"/><path class="cls-2" d="M109.86,377.19a31.7,31.7,0,0,1,3.2,1.74,22.71,22.71,0,0,1,2.87,2.09,19.37,19.37,0,0,1,2.42,2.46c.73.88,1.36,1.83,2,2.77-2.76-4.62-5.49-9.26-7.86-14.1l-2.23,1.13A23.05,23.05,0,0,1,109.86,377.19Z"/><path class="cls-2" d="M107.71,384.86q-.88,3-1.71,6.06l-.83,3.09-.7,3.07c-.91,4.12-1.82,8.4-2.52,12.68,0,.32-.07.65-.1,1l13.88-9.55A15.9,15.9,0,0,0,107.71,384.86Z"/><path class="cls-2" d="M94.81,403.31l.64-3.19.76-3.19c.51-2.12,1-4.22,1.59-6.28s1.07-4.08,1.73-6.13,1.3-4.06,2-6c.1-.29.18-.59.26-.88l-15,7.6a16.68,16.68,0,0,0-.29,6,15.71,15.71,0,0,0,2,5.79A16,16,0,0,0,94.81,403.31Z"/><path class="cls-2" d="M125.64,394.37c-1-1.3-1.8-2.69-2.67-4l-2.62-4.08a19.89,19.89,0,0,1,2.15,4.51,29.79,29.79,0,0,1,1.1,5Z"/><path class="cls-2" d="M76,390.63l2.68,5.23c.91,1.74,1.93,3.41,2.89,5.11a24.38,24.38,0,0,1-2.42-5.59,27,27,0,0,1-.95-5.86Z"/><path class="cls-2" d="M81.55,401c1.63,2.83,3.21,5.68,5,8.4l2.64,4.12c.88,1.37,1.75,2.75,2.72,4.06L94,416.13c-.14-.71-.25-1.43-.33-2.15s-.07-1.47-.06-2.2a25.79,25.79,0,0,1-6.84-4.3c-.52-.45-1-.92-1.51-1.41s-.91-1-1.34-1.59A27.65,27.65,0,0,1,81.55,401Z"/><path class="cls-3" d="M110.26,373.28l-8.5,4.31c-.08.29-.16.59-.26.88-.67,2-1.33,4-2,6s-1.17,4.05-1.73,6.13-1.08,4.16-1.59,6.28l-.76,3.19-.64,3.19A16,16,0,0,1,88.49,397a15.71,15.71,0,0,1-2-5.79,16.68,16.68,0,0,1,.29-6l-8.55,4.33a27,27,0,0,0,.95,5.86A24.38,24.38,0,0,0,81.55,401a27.65,27.65,0,0,0,2.37,3.51c.43.55.88,1.08,1.34,1.59s1,1,1.51,1.41a25.79,25.79,0,0,0,6.84,4.3c0,.73,0,1.47.06,2.2s.19,1.44.33,2.15l7.85-5.4c0-.32.05-.65.1-1,.7-4.28,1.61-8.56,2.52-12.68l.7-3.07.83-3.09q.82-3.07,1.71-6.06a15.9,15.9,0,0,1,8,16.32l7.87-5.41a29.79,29.79,0,0,0-1.1-5,19.89,19.89,0,0,0-2.15-4.51c-.64-.94-1.27-1.89-2-2.77a19.37,19.37,0,0,0-2.42-2.46,22.71,22.71,0,0,0-2.87-2.09,31.7,31.7,0,0,0-3.2-1.74A23.05,23.05,0,0,0,110.26,373.28Z"/><path class="cls-2" d="M99.08,353.06a22.63,22.63,0,0,1,5.55,4.59,21.7,21.7,0,0,1,2,2.78,20.26,20.26,0,0,1,1.67,3c-.54-1.23-1.14-2.44-1.64-3.69L105.22,356l-1.49-3.76c-.51-1.24-.88-2.54-1.33-3.8l-2.35.81A25.12,25.12,0,0,1,99.08,353.06Z"/><path class="cls-2" d="M96,360.35c-.87,1.9-1.73,3.84-2.56,5.79S91.89,370,91.14,372s-1.49,4-2.21,6.06-1.32,4.08-2,6.17c-.09.31-.16.63-.24.95l15-7.62a15.78,15.78,0,0,0,.56-4.92,14.79,14.79,0,0,0-3-8.86A16,16,0,0,0,96,360.35Z"/><path class="cls-2" d="M80.74,376.9q1.07-3.11,2.18-6.12c.78-2,1.63-4,2.45-6,1.7-4,3.32-7.77,5.29-11.56.14-.28.26-.57.38-.85l-15.91,5.53A15,15,0,0,0,74,363.79a18.05,18.05,0,0,0,1.25,6A15.76,15.76,0,0,0,80.74,376.9Z"/><path class="cls-2" d="M112.49,372.15c-.72-1.45-1.53-2.85-2.17-4.33l-2-4.41a19.55,19.55,0,0,1,1.47,4.77,26.06,26.06,0,0,1,.47,5.09Z"/><path class="cls-2" d="M63.75,361.83c1.18,3.73,2.71,7.34,4.13,11a24.62,24.62,0,0,1-1.8-11.8Z"/><path class="cls-2" d="M67.88,372.82c1.14,3.06,2.53,6,3.87,9l2,4.46c.72,1.47,1.47,2.91,2.21,4.36l2.24-1.13a24.32,24.32,0,0,1,.16-4.35A23.81,23.81,0,0,1,72.22,380a27.42,27.42,0,0,1-2.48-3.33A24,24,0,0,1,67.88,372.82Z"/><path class="cls-3" d="M100.05,349.22l-9,3.13c-.12.28-.24.57-.38.85-2,3.79-3.59,7.59-5.29,11.56-.82,2-1.67,4-2.45,6s-1.47,4.05-2.18,6.12a15.76,15.76,0,0,1-5.45-7.08,18.05,18.05,0,0,1-1.25-6,15,15,0,0,1,1.09-5.91l-9,3.14a24.62,24.62,0,0,0,1.8,11.8,24,24,0,0,0,1.86,3.81A27.42,27.42,0,0,0,72.22,380a23.81,23.81,0,0,0,6.16,5.19,24.32,24.32,0,0,0-.16,4.35l8.5-4.3c.08-.32.15-.64.24-.95.65-2.09,1.22-4.1,2-6.17S90.39,374,91.14,372s1.51-3.95,2.28-5.88,1.69-3.89,2.56-5.79a16,16,0,0,1,3.34,3.45,14.79,14.79,0,0,1,3,8.86,15.78,15.78,0,0,1-.56,4.92l8.51-4.31a26.06,26.06,0,0,0-.47-5.09,19.55,19.55,0,0,0-1.47-4.77,20.26,20.26,0,0,0-1.67-3,21.7,21.7,0,0,0-2-2.78,22.63,22.63,0,0,0-5.55-4.59A25.12,25.12,0,0,0,100.05,349.22Z"/><path class="cls-2" d="M91.74,327.67A22.57,22.57,0,0,1,96.52,333a21.38,21.38,0,0,1,2.94,6.18l-1.1-3.88-.55-1.94-.46-2c-.59-2.63-1.23-5.24-1.79-7.87l-2.45.5A26.8,26.8,0,0,1,91.74,327.67Z"/><path class="cls-2" d="M87.6,334.5A198.51,198.51,0,0,0,75.5,357c-.14.3-.26.61-.38.92L91,352.35a15,15,0,0,0,1.3-7.2,16.7,16.7,0,0,0-.24-2.36,14.37,14.37,0,0,0-1.58-4.44A18.53,18.53,0,0,0,87.6,334.5Z"/><path class="cls-2" d="M70.29,348.86c1-2,2-3.89,3-5.79s2-3.75,3.16-5.62q3.34-5.56,6.77-10.75l.5-.79-16.51,3.34a16.83,16.83,0,0,0-1.44,11.86A17.3,17.3,0,0,0,70.29,348.86Z"/><path class="cls-2" d="M102.4,348.41c-1-3.07-2.13-6.1-2.94-9.23a24,24,0,0,1,.6,10Z"/><path class="cls-2" d="M55.45,331.64c.82,3.83,1.74,7.64,2.62,11.45a27.39,27.39,0,0,1-.2-11.94Z"/><path class="cls-2" d="M58.07,343.09c.84,3.15,1.76,6.29,2.65,9.43.23.78.44,1.57.68,2.35l.78,2.32,1.57,4.64,2.37-.83a25,25,0,0,1,.78-4.3,25.76,25.76,0,0,1-3-2.71,23.77,23.77,0,0,1-2.44-3.25A27.47,27.47,0,0,1,58.07,343.09Z"/><path class="cls-3" d="M93.11,324l-9.34,1.88-.5.79q-3.42,5.19-6.77,10.75c-1.15,1.87-2.12,3.72-3.16,5.62s-2,3.83-3,5.79a17.3,17.3,0,0,1-4.47-7.75,16.83,16.83,0,0,1,1.44-11.86l-9.39,1.9a25.61,25.61,0,0,0,3.58,19.59A23.77,23.77,0,0,0,63.89,354a25.76,25.76,0,0,0,3,2.71,25,25,0,0,0-.78,4.3l9-3.12c.12-.31.24-.62.38-.92A198.51,198.51,0,0,1,87.6,334.5a18.53,18.53,0,0,1,2.92,3.85,14.37,14.37,0,0,1,1.58,4.44,16.7,16.7,0,0,1,.24,2.36,15,15,0,0,1-1.3,7.2l9-3.13a24,24,0,0,0-.6-10A21.38,21.38,0,0,0,96.52,333a22.57,22.57,0,0,0-4.78-5.33A26.8,26.8,0,0,0,93.11,324Z"/><path class="cls-2" d="M87.82,301.53A23.19,23.19,0,0,1,93.88,314l-1-8c-.21-1.33-.25-2.68-.36-4l-.31-4-2.49.16A23.64,23.64,0,0,1,87.82,301.53Z"/><path class="cls-2" d="M82.8,307.75c-2.61,3.2-5.24,6.53-7.8,10s-4.85,7-7.24,10.67c-.19.28-.35.57-.51.85l16.52-3.34a16,16,0,0,0-1-18.16Z"/><path class="cls-2" d="M63.68,319.66c2.52-3.61,5.14-7.11,7.73-10.47l2-2.5,2.08-2.47q2.07-2.45,4.16-4.78l.58-.72-16.81,1.11a16.45,16.45,0,0,0-2.59,5.42,15.29,15.29,0,0,0-.54,3,18.1,18.1,0,0,0,.12,3.11A17.08,17.08,0,0,0,63.68,319.66Z"/><path class="cls-2" d="M95.56,323.53c-.55-3.18-1.16-6.35-1.68-9.54a21.13,21.13,0,0,1-.76,10Z"/><path class="cls-2" d="M51.36,300.62l.45,5.85c.08,1,.13,1.95.25,2.92l.36,2.92a29,29,0,0,1-.22-3.07,23.21,23.21,0,0,1,.22-3,26.79,26.79,0,0,1,1.4-5.76Z"/><path class="cls-2" d="M52.42,312.31l.62,4.85c.23,1.62.37,3.24.69,4.84l1.72,9.64,2.46-.5a25.54,25.54,0,0,1,1.4-4.17,26,26,0,0,1-4.66-6.62A28.67,28.67,0,0,1,52.42,312.31Z"/><path class="cls-3" d="M89.7,298.09l-9.51.63-.58.72q-2.08,2.34-4.16,4.78l-2.08,2.47-2,2.5c-2.59,3.36-5.21,6.86-7.73,10.47a17.08,17.08,0,0,1-3.31-8.28,18.1,18.1,0,0,1-.12-3.11,15.29,15.29,0,0,1,.54-3,16.45,16.45,0,0,1,2.59-5.42l-9.56.63a26.79,26.79,0,0,0-1.4,5.76,23.21,23.21,0,0,0-.22,3,29,29,0,0,0,.22,3.07,28.67,28.67,0,0,0,2.23,8A26,26,0,0,0,59.31,327a25.54,25.54,0,0,0-1.4,4.17l9.34-1.89c.16-.28.32-.57.51-.85q3.58-5.53,7.24-10.67c2.56-3.45,5.19-6.78,7.8-10a16,16,0,0,1,1,18.16L93.12,324a21.13,21.13,0,0,0,.76-10,23.19,23.19,0,0,0-6.06-12.46A23.64,23.64,0,0,0,89.7,298.09Z"/><path class="cls-2" d="M87.33,275.07a23,23,0,0,1,3.31,6.41,19.6,19.6,0,0,1,.78,3.35,21.84,21.84,0,0,1,.38,3.4c0-1.34-.12-2.69-.07-4l.11-4c.07-2.7.08-5.4.35-8.08l-2.49-.16A26.84,26.84,0,0,1,87.33,275.07Z"/><path class="cls-2" d="M81.62,280.58q-2.31,2.12-4.62,4.34c-1.47,1.47-2.93,3-4.4,4.52s-2.92,3.11-4.38,4.71c-.73.8-1.48,1.61-2.18,2.43L64,299.05c-.21.25-.4.52-.6.78l16.82-1.11a17.92,17.92,0,0,0,2.47-4.31,15,15,0,0,0,1.1-4.64,14.61,14.61,0,0,0-.42-4.7A14.94,14.94,0,0,0,81.62,280.58Z"/><path class="cls-2" d="M61.12,289.86c1.47-1.62,2.93-3.21,4.4-4.77s3.08-3.09,4.62-4.59,3.08-3,4.62-4.39c.78-.72,1.52-1.43,2.32-2.13l2.42-2.07c.24-.2.47-.42.69-.63l-16.81-1.11a16.95,16.95,0,0,0-4,15.58A17.42,17.42,0,0,0,61.12,289.86Z"/><path class="cls-2" d="M92.19,297.93c-.33-3.22-.28-6.46-.39-9.7a23.94,23.94,0,0,1-2.09,9.86Z"/><path class="cls-2" d="M51.36,269.38c-.37,3.89-.35,7.81-.48,11.71a24.87,24.87,0,0,1,2.94-11.55Z"/><path class="cls-2" d="M50.88,281.09c0,1.63-.12,3.26-.07,4.89l.12,4.88c.09,3.26.12,6.51.43,9.76l2.51-.16a22.78,22.78,0,0,1,1.84-3.94,25.61,25.61,0,0,1-3.63-7.17,28.68,28.68,0,0,1-1-4A26.82,26.82,0,0,1,50.88,281.09Z"/><path class="cls-3" d="M89.7,271.91l-9.51-.63c-.22.21-.45.43-.69.63L77.08,274c-.8.7-1.54,1.41-2.32,2.13-1.54,1.43-3.08,2.9-4.62,4.39s-3.09,3-4.62,4.59-2.93,3.15-4.4,4.77a17.42,17.42,0,0,1-1.75-4.11,16.95,16.95,0,0,1,4-15.58l-9.56-.63a24.87,24.87,0,0,0-2.94,11.55,26.82,26.82,0,0,0,.22,4.22,28.68,28.68,0,0,0,1,4,25.61,25.61,0,0,0,3.63,7.17,22.78,22.78,0,0,0-1.84,3.94l9.5-.63c.2-.26.39-.53.6-.78L66,296.58c.7-.82,1.45-1.63,2.18-2.43q2.19-2.4,4.38-4.71c1.47-1.54,2.93-3.05,4.4-4.52s3.08-2.93,4.62-4.34a14.94,14.94,0,0,1,1.72,4.49,14.61,14.61,0,0,1,.42,4.7,15,15,0,0,1-1.1,4.64,17.92,17.92,0,0,1-2.47,4.31l9.52-.63a23.94,23.94,0,0,0,2.09-9.86,21.84,21.84,0,0,0-.38-3.4,19.6,19.6,0,0,0-.78-3.35,23,23,0,0,0-3.31-6.41A26.84,26.84,0,0,0,89.7,271.91Z"/><path class="cls-2" d="M90.44,248.81a22.8,22.8,0,0,1,2.32,6.76,20.29,20.29,0,0,1,.31,6.85l.51-4c.18-1.33.29-2.68.56-4l1.42-7.95-2.45-.5A23,23,0,0,1,90.44,248.81Z"/><path class="cls-2" d="M83.94,253.49c-3.38,2.4-6.69,4.93-10.07,7.59l-2.53,2-2.42,2.08q-2.42,2.1-4.84,4.29c-.25.23-.48.46-.71.7l16.82,1.11a16,16,0,0,0,3-3.95,18.4,18.4,0,0,0,1.64-4.46A15.18,15.18,0,0,0,83.94,253.49Z"/><path class="cls-2" d="M62.43,260c3.39-2.82,6.74-5.52,10.14-8.09s7-5,10.46-7.27l.74-.53-16.51-3.34a16.83,16.83,0,0,0-5.93,10.37A17.49,17.49,0,0,0,62.43,260Z"/><path class="cls-2" d="M92.19,272.07l.37-4.83c.07-.81.1-1.62.2-2.42l.31-2.4a20.78,20.78,0,0,1-.48,2.45c-.2.81-.39,1.62-.66,2.41a21.6,21.6,0,0,1-2.22,4.63Z"/><path class="cls-2" d="M55.45,238.36c-.68,3.85-1.41,7.7-2,11.57a27.26,27.26,0,0,1,4.45-11.08Z"/><path class="cls-2" d="M53.42,249.93l-1.24,9.7c-.24,1.62-.31,3.25-.45,4.87l-.37,4.88,2.51.16a25.25,25.25,0,0,1,2.4-3.65A25.06,25.06,0,0,1,53.42,249.93Z"/><path class="cls-3" d="M93.11,246l-9.34-1.88-.74.53q-5.19,3.45-10.46,7.27c-3.4,2.57-6.75,5.27-10.14,8.09a17.49,17.49,0,0,1-1.1-8.86,16.83,16.83,0,0,1,5.93-10.37l-9.39-1.9a27.26,27.26,0,0,0-4.45,11.08,25.06,25.06,0,0,0,2.85,16,25.25,25.25,0,0,0-2.4,3.65l9.5.63c.23-.24.46-.47.71-.7q2.43-2.19,4.84-4.29l2.42-2.08,2.53-2c3.38-2.66,6.69-5.19,10.07-7.59a15.18,15.18,0,0,1,.94,9.38,18.4,18.4,0,0,1-1.64,4.46,16,16,0,0,1-3,3.95l9.52.63a21.6,21.6,0,0,0,2.22-4.63c.27-.79.46-1.6.66-2.41a20.78,20.78,0,0,0,.48-2.45,20.29,20.29,0,0,0-.31-6.85,22.8,22.8,0,0,0-2.32-6.76A23,23,0,0,0,93.11,246Z"/><path class="cls-2" d="M97,223.2a30.54,30.54,0,0,1,1.45,7,20.93,20.93,0,0,1-.71,6.8l2.19-7.77c.19-.64.36-1.29.56-1.93l.65-1.91,1.29-3.83-2.35-.81A24,24,0,0,1,97,223.2Z"/><path class="cls-2" d="M89.94,227c-1.83,1-3.67,2-5.53,3s-3.76,2.07-5.52,3.18q-5.39,3.31-10.86,7a6.71,6.71,0,0,0-.78.6l16.52,3.34a15.65,15.65,0,0,0,5.81-7.69,18.64,18.64,0,0,0,.91-4.62A15.25,15.25,0,0,0,89.94,227Z"/><path class="cls-2" d="M67.71,230.53a201.73,201.73,0,0,1,22.51-12.45c.29-.13.55-.28.82-.43l-15.91-5.53a16,16,0,0,0-7.27,9.48,18.62,18.62,0,0,0-.69,4.52A13.73,13.73,0,0,0,67.71,230.53Z"/><path class="cls-2" d="M95.56,246.47c.68-3.15,1.45-6.29,2.15-9.44A21,21,0,0,1,93.12,246Z"/><path class="cls-2" d="M63.75,208.17c-1.25,3.72-2.57,7.41-3.57,11.19A24.72,24.72,0,0,1,66.08,209Z"/><path class="cls-2" d="M60.18,219.36l-1.34,4.72-.66,2.35-.56,2.38c-.72,3.19-1.49,6.36-2.17,9.55l2.46.5a22.7,22.7,0,0,1,2.9-3.3,25.93,25.93,0,0,1-1.7-7.91A26.92,26.92,0,0,1,60.18,219.36Z"/><path class="cls-3" d="M100.05,220.78l-9-3.13c-.27.15-.53.3-.82.43a201.73,201.73,0,0,0-22.51,12.45,13.73,13.73,0,0,1-.54-4.41,18.62,18.62,0,0,1,.69-4.52,16,16,0,0,1,7.27-9.48l-9-3.14a24.72,24.72,0,0,0-5.9,10.38,26.92,26.92,0,0,0-1.07,8.29,25.93,25.93,0,0,0,1.7,7.91,22.7,22.7,0,0,0-2.9,3.3l9.34,1.89a6.71,6.71,0,0,1,.78-.6q5.48-3.69,10.86-7C80.65,232,82.58,231,84.41,230s3.7-2,5.53-3a15.25,15.25,0,0,1,.55,4.8,18.64,18.64,0,0,1-.91,4.62,15.65,15.65,0,0,1-5.81,7.69L93.12,246a23,23,0,0,0,5.3-15.75,30.54,30.54,0,0,0-1.45-7A24,24,0,0,0,100.05,220.78Z"/><path class="cls-2" d="M106.84,198.7a23.8,23.8,0,0,1,.54,7.17,20,20,0,0,1-.58,3.39,24.21,24.21,0,0,1-1,3.27c.92-2.53,2.08-5,3.19-7.41l1.66-3.68c.59-1.2,1.22-2.39,1.83-3.59l-2.23-1.13A24.25,24.25,0,0,1,106.84,198.7Z"/><path class="cls-2" d="M99.43,201.52q-3,1-5.94,2.19c-2,.77-3.87,1.6-5.82,2.44-3.88,1.7-7.92,3.47-11.7,5.48-.29.15-.57.32-.85.49L91,217.65a17,17,0,0,0,3.95-3,14.85,14.85,0,0,0,4.27-8.32A15.08,15.08,0,0,0,99.43,201.52Z"/><path class="cls-2" d="M76.93,202.05c2-.92,3.94-1.82,5.92-2.68s4-1.64,6-2.41,4-1.52,6-2.24,4-1.35,6-2l.88-.32-15-7.6a15.52,15.52,0,0,0-5,3.32,17.79,17.79,0,0,0-3.45,5.09,16.46,16.46,0,0,0-1.32,4.36A17.6,17.6,0,0,0,76.93,202.05Z"/><path class="cls-2" d="M102.4,221.59c1-3.08,2.24-6.05,3.41-9.06a24,24,0,0,1-5.75,8.25Z"/><path class="cls-2" d="M76,179.37c-.87,1.75-1.83,3.46-2.61,5.25L70.94,190A28.56,28.56,0,0,1,74,184.71a23.15,23.15,0,0,1,4.16-4.23Z"/><path class="cls-2" d="M70.94,190c-.66,1.49-1.37,3-2,4.48L67.16,199l-1.79,4.55c-.61,1.52-1.08,3.09-1.62,4.62l2.37.83a24.69,24.69,0,0,1,3.22-2.92,25.59,25.59,0,0,1-.53-8,29.32,29.32,0,0,1,.67-4.11A29.63,29.63,0,0,1,70.94,190Z"/><path class="cls-3" d="M110.26,196.72l-8.5-4.31-.88.32c-2,.64-4.08,1.26-6,2s-4,1.46-6,2.24-4,1.58-6,2.41-3.93,1.76-5.92,2.68a17.6,17.6,0,0,1,0-4.47,16.46,16.46,0,0,1,1.32-4.36,17.79,17.79,0,0,1,3.45-5.09,15.52,15.52,0,0,1,5-3.32l-8.55-4.33A23.15,23.15,0,0,0,74,184.71,28.56,28.56,0,0,0,70.94,190a29.63,29.63,0,0,0-1.46,4,29.32,29.32,0,0,0-.67,4.11,25.59,25.59,0,0,0,.53,8A24.69,24.69,0,0,0,66.12,209l9,3.12c.28-.17.56-.34.85-.49,3.78-2,7.82-3.78,11.7-5.48,2-.84,3.86-1.67,5.82-2.44s4-1.49,5.94-2.19a15.08,15.08,0,0,1-.17,4.8A14.85,14.85,0,0,1,95,214.64a17,17,0,0,1-3.95,3l9,3.13a21.56,21.56,0,0,0,6.74-11.52,20,20,0,0,0,.58-3.39,23.8,23.8,0,0,0-.54-7.17A24.25,24.25,0,0,0,110.26,196.72Z"/><path class="cls-2" d="M120,175.75a22.57,22.57,0,0,1-.48,7.16c-.13.57-.29,1.11-.46,1.67s-.32,1.11-.52,1.64a19.4,19.4,0,0,1-1.44,3.1c1.35-2.33,2.63-4.7,4.14-6.93l2.18-3.4c.72-1.14,1.44-2.28,2.24-3.36l-2-1.41c-.58.29-1.18.56-1.79.81S120.6,175.53,120,175.75Z"/><path class="cls-2" d="M112.21,177.54l-3.1.65-3,.75q-3,.76-6.13,1.62c-2,.58-4.18,1.14-6.19,1.81s-4.07,1.35-6.12,2.07c-.31.11-.62.24-.92.36l15,7.62a16.77,16.77,0,0,0,7.62-5.89,14.48,14.48,0,0,0,2.07-4.23A15.37,15.37,0,0,0,112,180,13.67,13.67,0,0,0,112.21,177.54Z"/><path class="cls-2" d="M89.86,175.06a205.22,205.22,0,0,1,25-6.05c.31,0,.61-.12.91-.19l-13.88-9.55a14.63,14.63,0,0,0-5.37,2.66,17.74,17.74,0,0,0-4.15,4.55,14.69,14.69,0,0,0-1.84,4.18A17,17,0,0,0,89.86,175.06Z"/><path class="cls-2" d="M112.49,197.85l2.2-4.32c.74-1.43,1.6-2.8,2.39-4.21a23.62,23.62,0,0,1-3,4,21.19,21.19,0,0,1-3.82,3.4Z"/><path class="cls-2" d="M91.93,152.45c-1.16,1.57-2.18,3.24-3.25,4.89l-3.16,4.94a28.24,28.24,0,0,1,3.8-4.77A21.56,21.56,0,0,1,94,153.84Z"/><path class="cls-2" d="M85.52,162.28c-3.36,5.59-6.65,11.23-9.54,17.09l2.24,1.13a25.31,25.31,0,0,1,3.63-2.44,21,21,0,0,1-.13-4,26.71,26.71,0,0,1,.63-4,28.68,28.68,0,0,1,1.25-3.95A20.68,20.68,0,0,1,85.52,162.28Z"/><path class="cls-3" d="M123.59,174.22l-7.86-5.4c-.3.07-.6.14-.91.19a205.22,205.22,0,0,0-25,6.05,17,17,0,0,1,.63-4.4,14.69,14.69,0,0,1,1.84-4.18,17.74,17.74,0,0,1,4.15-4.55,14.63,14.63,0,0,1,5.37-2.66L94,153.84a21.56,21.56,0,0,0-4.64,3.67,28.24,28.24,0,0,0-3.8,4.77,20.68,20.68,0,0,0-1.92,3.78A28.68,28.68,0,0,0,82.35,170a26.71,26.71,0,0,0-.63,4,21,21,0,0,0,.13,4,25.31,25.31,0,0,0-3.63,2.44l8.5,4.3c.3-.12.61-.25.92-.36q3.08-1.08,6.12-2.07c2-.67,4.15-1.23,6.19-1.81s4.1-1.11,6.13-1.62l3-.75,3.1-.65A13.67,13.67,0,0,1,112,180a15.37,15.37,0,0,1-.52,2.35,14.48,14.48,0,0,1-2.07,4.23,16.77,16.77,0,0,1-7.62,5.89l8.51,4.31a21.19,21.19,0,0,0,3.82-3.4,23.62,23.62,0,0,0,3-4,19.4,19.4,0,0,0,1.44-3.1c.2-.53.37-1.08.52-1.64s.33-1.1.46-1.67a22.57,22.57,0,0,0,.48-7.16c.62-.22,1.23-.46,1.82-.72S123,174.51,123.59,174.22Z"/><path class="cls-2" d="M136.05,154.75a23.58,23.58,0,0,1-1.46,7,20.07,20.07,0,0,1-3.25,6c1.68-2.1,3.3-4.26,5-6.33l5.29-6.11-1.85-1.67A23.55,23.55,0,0,1,136.05,154.75Z"/><path class="cls-2" d="M128.07,155.45c-4.12.35-8.29.82-12.55,1.37-2.16.26-4.2.65-6.33,1s-4.23.78-6.38,1.2c-.33.07-.64.15-1,.24l13.88,9.55a15.64,15.64,0,0,0,8.33-4.83A14.93,14.93,0,0,0,128.07,155.45Z"/><path class="cls-2" d="M106.25,150q6.54-1,12.86-1.76t12.71-.9c.3,0,.61-.05.91-.09L120.24,136a16.76,16.76,0,0,0-10.39,5.88A17.58,17.58,0,0,0,106.25,150Z"/><path class="cls-2" d="M125.64,175.63l2.81-3.94,1.4-2c.47-.66,1-1.28,1.49-1.92a28.71,28.71,0,0,1-3.45,3.61,21.83,21.83,0,0,1-4.29,2.83Z"/><path class="cls-2" d="M111.31,127.9c-2.55,3-5.16,5.88-7.65,8.9a27.09,27.09,0,0,1,9.48-7.25Z"/><path class="cls-2" d="M103.66,136.8l-6,7.69c-1.93,2.63-3.8,5.3-5.69,8L94,153.87A26.5,26.5,0,0,1,97.94,152a27.28,27.28,0,0,1,.42-4c.13-.67.28-1.34.45-2s.42-1.28.67-1.92A28.61,28.61,0,0,1,103.66,136.8Z"/><path class="cls-3" d="M139.8,153.68l-7.07-6.4c-.3,0-.61.07-.91.09q-6.24.3-12.71.9-6.31.72-12.86,1.76a17.58,17.58,0,0,1,3.6-8.17A16.76,16.76,0,0,1,120.24,136l-7.1-6.43a27.09,27.09,0,0,0-9.48,7.25A28.61,28.61,0,0,0,99.48,144c-.25.64-.47,1.28-.67,1.92s-.32,1.33-.45,2a27.28,27.28,0,0,0-.42,4A26.5,26.5,0,0,0,94,153.87l7.85,5.4c.32-.09.63-.17,1-.24,2.15-.42,4.27-.82,6.38-1.2s4.17-.75,6.33-1c4.26-.55,8.43-1,12.55-1.37a14.93,14.93,0,0,1-4,8.54,15.64,15.64,0,0,1-8.33,4.83l7.87,5.41a21.83,21.83,0,0,0,4.29-2.83,28.71,28.71,0,0,0,3.45-3.61,20.07,20.07,0,0,0,3.25-6,23.58,23.58,0,0,0,1.46-7A23.55,23.55,0,0,0,139.8,153.68Z"/><path class="cls-2" d="M154.75,136.05a23.08,23.08,0,0,1-6.43,12.27l5.85-5.57c1-1,2-1.8,3-2.69l3.05-2.64-1.61-1.91A23.25,23.25,0,0,1,154.75,136.05Z"/><path class="cls-2" d="M146.77,135.71c-4.12-.19-8.39-.36-12.65-.33s-8.52.23-12.91.48c-.34,0-.66.07-1,.12l12.5,11.31a15.68,15.68,0,0,0,8.92-3.66,17.78,17.78,0,0,0,3.14-3.51A14.81,14.81,0,0,0,146.77,135.71Z"/><path class="cls-2" d="M125.84,127.42c4.36-.15,8.76-.09,13,0l3.18.09,3.21.2c2.13.14,4.24.31,6.32.49.31,0,.62,0,.92.05l-10.88-12.86a16.61,16.61,0,0,0-5.89,1.13,16,16,0,0,0-2.75,1.37,18.62,18.62,0,0,0-2.44,2A16.6,16.6,0,0,0,125.84,127.42Z"/><path class="cls-2" d="M141.65,155.35l6.67-7a21.13,21.13,0,0,1-8.51,5.37Z"/><path class="cls-2" d="M133.81,106.18,129.38,110c-.74.65-1.5,1.27-2.2,1.94l-2.13,2a29,29,0,0,1,2.33-2,25.68,25.68,0,0,1,2.56-1.63,27.9,27.9,0,0,1,5.46-2.3Z"/><path class="cls-2" d="M125.05,114l-3.54,3.37c-1.18,1.12-2.37,2.24-3.47,3.44-2.25,2.37-4.52,4.7-6.73,7.1l1.86,1.68a23.17,23.17,0,0,1,4.18-1.35,26,26,0,0,1,2.56-7.67A27.26,27.26,0,0,1,125.05,114Z"/><path class="cls-3" d="M158.63,135.51l-6.16-7.27c-.3,0-.61,0-.92-.05-2.08-.18-4.19-.35-6.32-.49l-3.21-.2-3.18-.09c-4.24-.08-8.64-.14-13,0a16.6,16.6,0,0,1,4.67-7.59,18.62,18.62,0,0,1,2.44-2,16,16,0,0,1,2.75-1.37,16.61,16.61,0,0,1,5.89-1.13l-6.19-7.32a27.9,27.9,0,0,0-5.46,2.3,25.68,25.68,0,0,0-2.56,1.63,29,29,0,0,0-2.33,2,27.26,27.26,0,0,0-5.14,6.57,26,26,0,0,0-2.56,7.67,23.17,23.17,0,0,0-4.18,1.35l7.06,6.4c.32,0,.64-.1,1-.12q6.58-.37,12.91-.48c4.26,0,8.53.14,12.65.33a14.81,14.81,0,0,1-2,4.41,17.78,17.78,0,0,1-3.14,3.51,15.68,15.68,0,0,1-8.92,3.66l7.08,6.4a21.13,21.13,0,0,0,8.51-5.37,23.08,23.08,0,0,0,6.43-12.27A23.25,23.25,0,0,0,158.63,135.51Z"/><path class="cls-2" d="M175.75,120a26.9,26.9,0,0,1-3.2,6.44,24.74,24.74,0,0,1-4.76,4.93l1.59-1.25,1.65-1.17,3.29-2.34c1.11-.76,2.17-1.6,3.31-2.31l3.4-2.18-1.34-2.1A23.59,23.59,0,0,1,175.75,120Z"/><path class="cls-2" d="M167.91,118.62c-4.08-.77-8.32-1.54-12.48-2q-3.17-.39-6.39-.72l-3.25-.31c-1.08-.09-2.14-.14-3.22-.21-.33,0-.66,0-1,0l10.88,12.87a16.66,16.66,0,0,0,9.32-2.45A16.44,16.44,0,0,0,167.91,118.62Z"/><path class="cls-2" d="M148.27,107.63c4.3.37,8.67,1,12.89,1.7,2.11.35,4.19.7,6.26,1.09s4.17.9,6.22,1.37c.3.07.61.12.91.17l-9.08-14.19a16.75,16.75,0,0,0-6,.3,17,17,0,0,0-5.55,2.64,18.31,18.31,0,0,0-3.36,3.08A15.36,15.36,0,0,0,148.27,107.63Z"/><path class="cls-2" d="M160.24,137.42l1.83-1.59,1.91-1.5,3.81-3a19.69,19.69,0,0,1-4.28,2.57,21.48,21.48,0,0,1-2.4.89,20.08,20.08,0,0,1-2.47.72Z"/><path class="cls-2" d="M159,87.62,154,90.8l-4.78,3.39a28.11,28.11,0,0,1,5.3-3,27.73,27.73,0,0,1,5.75-1.51Z"/><path class="cls-2" d="M149.26,94.19l-4,2.84c-1.31,1-2.57,2-3.86,3-2.54,2-5.18,4-7.6,6.15l1.62,1.92a20.53,20.53,0,0,1,4.28-.84A24.91,24.91,0,0,1,149.26,94.19Z"/><path class="cls-3" d="M179.69,120l-5.14-8c-.3,0-.61-.1-.91-.17q-3.07-.71-6.22-1.37c-2.07-.39-4.15-.74-6.26-1.09-4.22-.68-8.59-1.33-12.89-1.7a15.36,15.36,0,0,1,2.27-3.84,18.31,18.31,0,0,1,3.36-3.08,17,17,0,0,1,5.55-2.64,16.75,16.75,0,0,1,6-.3l-5.16-8.07a27.73,27.73,0,0,0-5.75,1.51,28.11,28.11,0,0,0-5.3,3,24.91,24.91,0,0,0-9.55,13.07,20.53,20.53,0,0,0-4.28.84l6.16,7.27c.32,0,.65,0,1,0,1.08.07,2.14.12,3.22.21l3.25.31q3.22.33,6.39.72c4.16.46,8.4,1.23,12.48,2a16.44,16.44,0,0,1-6.12,7.17,16.66,16.66,0,0,1-9.32,2.45l6.17,7.28a20.08,20.08,0,0,0,2.47-.72,21.48,21.48,0,0,0,2.4-.89,19.69,19.69,0,0,0,4.28-2.57,24.74,24.74,0,0,0,4.76-4.93,26.9,26.9,0,0,0,3.2-6.44A23.59,23.59,0,0,0,179.69,120Z"/><path class="cls-2" d="M198.7,106.84a23.1,23.1,0,0,1-4,6,29.47,29.47,0,0,1-2.55,2.32,20,20,0,0,1-2.8,2l3.5-2,3.59-1.84c2.4-1.21,4.76-2.51,7.24-3.56l-1.05-2.26A29.31,29.31,0,0,1,198.7,106.84Z"/><path class="cls-2" d="M191.12,104.47c-2-.66-4-1.37-6-1.94s-4-1.15-6.09-1.69-4.15-1.09-6.26-1.6-4.18-.9-6.32-1.33c-.32-.06-.65-.1-1-.15l9.08,14.2a15.62,15.62,0,0,0,5,.08,16.26,16.26,0,0,0,4.6-1.27,14.82,14.82,0,0,0,3.92-2.61A17.26,17.26,0,0,0,191.12,104.47Z"/><path class="cls-2" d="M173.12,91c2.13.5,4.24,1,6.31,1.57s4.19,1.2,6.23,1.82,4.08,1.28,6.08,1.95l3,1,3,1.13c.29.11.59.2.88.29l-7.1-15.27A16.52,16.52,0,0,0,173.12,91Z"/><path class="cls-2" d="M181,122.09c1.37-.86,2.71-1.76,4.09-2.6l4.2-2.41A20.23,20.23,0,0,1,184.7,119a22.24,22.24,0,0,1-5,1Z"/><path class="cls-2" d="M186.4,72.56l-2.67,1.21c-.88.42-1.75.88-2.62,1.32l-5.23,2.68a25,25,0,0,1,11.56-3Z"/><path class="cls-2" d="M175.88,77.77c-2.93,1.43-5.71,3.15-8.55,4.75-1.41.83-2.84,1.61-4.23,2.47L159,87.62l1.36,2.12a25.24,25.24,0,0,1,4.34-.27,18.83,18.83,0,0,1,2-3.51,25.46,25.46,0,0,1,2.57-3.15A23.8,23.8,0,0,1,175.88,77.77Z"/><path class="cls-3" d="M202.6,107.4l-4-8.65c-.29-.09-.59-.18-.88-.29l-3-1.13-3-1c-2-.67-4-1.32-6.08-1.95s-4.16-1.31-6.23-1.82-4.18-1.07-6.31-1.57a16.52,16.52,0,0,1,18.36-7.5l-4-8.69a25,25,0,0,0-11.56,3,23.8,23.8,0,0,0-6.66,5A25.46,25.46,0,0,0,166.65,86a18.83,18.83,0,0,0-2,3.51,25.24,25.24,0,0,0-4.34.27l5.13,8c.32,0,.65.09,1,.15,2.14.43,4.23.85,6.32,1.33s4.2,1.05,6.26,1.6,4.09,1.11,6.09,1.69,4,1.28,6,1.94a17.26,17.26,0,0,1-3.09,3.69,14.82,14.82,0,0,1-3.92,2.61,16.26,16.26,0,0,1-4.6,1.27,15.62,15.62,0,0,1-5-.08l5.14,8a22.24,22.24,0,0,0,5-1,20.23,20.23,0,0,0,4.62-1.93,20,20,0,0,0,2.8-2,29.47,29.47,0,0,0,2.55-2.32,23.1,23.1,0,0,0,4-6A29.31,29.31,0,0,0,202.6,107.4Z"/><path class="cls-2" d="M223.21,97a22.28,22.28,0,0,1-4.82,5.28,20.82,20.82,0,0,1-5.86,3.56l3.76-1.48c1.24-.5,2.49-1,3.78-1.41l7.64-2.58L227,98A23.68,23.68,0,0,1,223.21,97Z"/><path class="cls-2" d="M216,93.53a201.65,201.65,0,0,0-23.56-9.77c-.32-.11-.63-.2-1-.29l7.1,15.29a16.13,16.13,0,0,0,4.92.78,18.94,18.94,0,0,0,4.7-.7A15.42,15.42,0,0,0,216,93.53Z"/><path class="cls-2" d="M200,77.76c4.11,1.63,8.07,3.23,12,5s7.71,3.74,11.38,5.67l.83.4-5-16.09a17,17,0,0,0-11.94-.24A17.53,17.53,0,0,0,200,77.76Z"/><path class="cls-2" d="M203.65,109.66c3-1.3,5.85-2.75,8.88-3.85a23.75,23.75,0,0,1-9.93,1.6Z"/><path class="cls-2" d="M215.6,61.26,204.47,65a27.76,27.76,0,0,1,11.86-1.4Z"/><path class="cls-2" d="M204.47,65l-9.11,3.59c-1.53.57-3,1.28-4.5,1.94l-4.46,2,1.06,2.27a25.51,25.51,0,0,1,4.37.35,25,25,0,0,1,2.39-3.26,21.74,21.74,0,0,1,3-2.77A28.53,28.53,0,0,1,204.47,65Z"/><path class="cls-3" d="M227,98l-2.82-9.1-.83-.4q-5.5-2.9-11.38-5.67c-3.9-1.79-7.86-3.39-12-5a17.53,17.53,0,0,1,7.25-5.24,17,17,0,0,1,11.94.24l-2.83-9.15A27.76,27.76,0,0,0,204.47,65a28.53,28.53,0,0,0-7.27,4.14,21.74,21.74,0,0,0-3,2.77,25,25,0,0,0-2.39,3.26,25.51,25.51,0,0,0-4.37-.35l4,8.64c.32.09.63.18,1,.29A201.65,201.65,0,0,1,216,93.53a15.42,15.42,0,0,1-7.79,5.31,18.94,18.94,0,0,1-4.7.7,16.13,16.13,0,0,1-4.92-.78l4,8.65a23.75,23.75,0,0,0,9.93-1.6,20.82,20.82,0,0,0,5.86-3.56A22.28,22.28,0,0,0,223.21,97,23.68,23.68,0,0,0,227,98Z"/><path class="cls-2" d="M248.81,90.44A23.2,23.2,0,0,1,237,97.71l7.86-1.81c1.31-.34,2.64-.51,4-.76l4-.71L252.41,92A23.21,23.21,0,0,1,248.81,90.44Z"/><path class="cls-2" d="M242.12,86.07c-3.44-2.28-7-4.57-10.7-6.75s-7.45-4.14-11.35-6.15c-.3-.15-.6-.28-.91-.42l5,16.1a15.92,15.92,0,0,0,18-2.78Z"/><path class="cls-2" d="M228.35,68.25c3.84,2.12,7.59,4.39,11.2,6.63l2.68,1.7,2.66,1.82q2.64,1.81,5.18,3.66c.25.18.51.34.77.5L248.06,66a16.58,16.58,0,0,0-5.65-2,17.3,17.3,0,0,0-3.06-.23,18.23,18.23,0,0,0-3.09.43A17,17,0,0,0,228.35,68.25Z"/><path class="cls-2" d="M227.71,100.34,237,97.71A21,21,0,0,1,227,98Z"/><path class="cls-2" d="M246.07,54.07l-5.78,1c-1,.19-1.93.33-2.89.54l-2.86.66a29.13,29.13,0,0,1,3-.53,23.64,23.64,0,0,1,3-.08,27.24,27.24,0,0,1,5.88.81Z"/><path class="cls-2" d="M234.54,56.3l-4.77,1.1c-1.59.38-3.19.7-4.75,1.18l-9.42,2.68.74,2.39a25.91,25.91,0,0,1,4.29,1,26.27,26.27,0,0,1,6.12-5.31A28.74,28.74,0,0,1,234.54,56.3Z"/><path class="cls-3" d="M252.41,92l-1.57-9.4c-.26-.16-.52-.32-.77-.5q-2.53-1.84-5.18-3.66l-2.66-1.82-2.68-1.7c-3.61-2.24-7.36-4.51-11.2-6.63a17,17,0,0,1,7.91-4.14,18.23,18.23,0,0,1,3.09-.43,17.3,17.3,0,0,1,3.06.23,16.58,16.58,0,0,1,5.65,2l-1.58-9.45a27.24,27.24,0,0,0-5.88-.81,23.64,23.64,0,0,0-3,.08,29.13,29.13,0,0,0-3,.53,28.74,28.74,0,0,0-7.79,3,26.27,26.27,0,0,0-6.12,5.31,25.91,25.91,0,0,0-4.29-1l2.82,9.1c.31.14.61.27.91.42q5.85,3,11.35,6.15c3.68,2.18,7.26,4.47,10.7,6.75a15.92,15.92,0,0,1-18,2.78L227,98A21,21,0,0,0,237,97.71a23.2,23.2,0,0,0,11.78-7.27A23.21,23.21,0,0,0,252.41,92Z"/><path class="cls-2" d="M275.07,87.33A23.75,23.75,0,0,1,269,91.26a20.43,20.43,0,0,1-3.25,1.11,25.9,25.9,0,0,1-3.35.7c2.66-.41,5.36-.54,8-.75l4-.32c1.34-.09,2.69-.07,4-.12l-.08-2.5A23.8,23.8,0,0,1,275.07,87.33Z"/><path class="cls-2" d="M269,82.19c-1.55-1.39-3.14-2.77-4.77-4.16s-3.26-2.63-4.93-3.94-3.39-2.6-5.13-3.89l-2.63-1.93-2.67-1.82c-.27-.18-.55-.34-.83-.51l2.78,16.63a16.84,16.84,0,0,0,9.26,2.66,15.68,15.68,0,0,0,4.63-.88A14.8,14.8,0,0,0,269,82.19Z"/><path class="cls-2" d="M257.76,62.71c1.76,1.3,3.49,2.57,5.19,3.91s3.37,2.75,5,4.14c3.28,2.78,6.43,5.48,9.47,8.48.23.22.46.41.7.62L277.58,63a15.21,15.21,0,0,0-5.32-2.8,17.58,17.58,0,0,0-6.12-.59,17.77,17.77,0,0,0-4.46.92A17.35,17.35,0,0,0,257.76,62.71Z"/><path class="cls-2" d="M252.83,94.43l2.38-.43c.8-.14,1.6-.21,2.4-.32l4.81-.61a23.67,23.67,0,0,1-10-1.09Z"/><path class="cls-2" d="M277.19,51c-3.91,0-7.81.39-11.71.68a28.62,28.62,0,0,1,6.08.17q.75.11,1.47.24c.49.12,1,.24,1.45.39a27.17,27.17,0,0,1,2.79,1Z"/><path class="cls-2" d="M265.48,51.66c-1.63.13-3.25.23-4.87.4l-4.86.61c-3.23.42-6.48.76-9.68,1.4l.41,2.48A22.53,22.53,0,0,1,250.59,58a25.88,25.88,0,0,1,6.78-4.33,27.27,27.27,0,0,1,3.93-1.38A29.84,29.84,0,0,1,265.48,51.66Z"/><path class="cls-3" d="M278.45,89.38l-.31-9.52c-.24-.21-.47-.4-.7-.62-3-3-6.19-5.7-9.47-8.48q-2.48-2.08-5-4.14c-1.7-1.34-3.43-2.61-5.19-3.91a17.35,17.35,0,0,1,3.92-2.16,17.77,17.77,0,0,1,4.46-.92,17.58,17.58,0,0,1,6.12.59,15.21,15.21,0,0,1,5.32,2.8l-.31-9.57a27.17,27.17,0,0,0-2.79-1c-.48-.15-1-.27-1.45-.39s-1-.17-1.47-.24a28.62,28.62,0,0,0-6.08-.17,29.84,29.84,0,0,0-4.18.62,27.27,27.27,0,0,0-3.93,1.38A25.88,25.88,0,0,0,250.59,58a22.53,22.53,0,0,0-4.11-1.44l1.58,9.39c.28.17.56.33.83.51l2.67,1.82,2.63,1.93q2.61,1.93,5.13,3.89c1.67,1.31,3.32,2.58,4.93,3.94s3.22,2.77,4.77,4.16a14.8,14.8,0,0,1-4.29,2.16,15.68,15.68,0,0,1-4.63.88,16.84,16.84,0,0,1-9.26-2.66L252.42,92a23.67,23.67,0,0,0,10,1.09,25.9,25.9,0,0,0,3.35-.7A20.43,20.43,0,0,0,269,91.26a23.75,23.75,0,0,0,6.05-3.93A23.8,23.8,0,0,0,278.45,89.38Z"/><path class="cls-2" d="M301.53,87.82a22.23,22.23,0,0,1-6.5,3,20.4,20.4,0,0,1-6.8,1l4,.1c1.35,0,2.7,0,4,.17l8.05.61.25-2.49A22.68,22.68,0,0,1,301.53,87.82Z"/><path class="cls-2" d="M296.22,81.83a206.72,206.72,0,0,0-17.88-18.19c-.24-.22-.5-.42-.76-.63l.56,16.85a15.86,15.86,0,0,0,4.22,2.63,14.78,14.78,0,0,0,2.28.74,18.81,18.81,0,0,0,2.33.46A15.25,15.25,0,0,0,296.22,81.83Z"/><path class="cls-2" d="M287.62,61.07c3.14,3.1,6.17,6.14,9.06,9.28S302.32,76.81,305,80l.61.68L307.23,64a16.88,16.88,0,0,0-10.9-4.87A17.47,17.47,0,0,0,287.62,61.07Z"/><path class="cls-2" d="M278.53,91.88c3.24-.06,6.47-.25,9.7-.08a24,24,0,0,1-9.78-2.4Z"/><path class="cls-2" d="M308.42,52c-3.9-.3-7.8-.61-11.7-.87a27.59,27.59,0,0,1,11.46,3.32Z"/><path class="cls-2" d="M296.72,51.09,287,50.84c-1.62-.07-3.25,0-4.88,0l-4.88.12.08,2.51a24.94,24.94,0,0,1,3.87,2,25.34,25.34,0,0,1,3.48-2.07,22.77,22.77,0,0,1,3.81-1.38A28.46,28.46,0,0,1,296.72,51.09Z"/><path class="cls-3" d="M304.62,90.19l.94-9.48L305,80q-3.94-4.83-8.27-9.68c-2.89-3.14-5.92-6.18-9.06-9.28a17.47,17.47,0,0,1,8.71-2A16.88,16.88,0,0,1,307.23,64l.95-9.54a27.59,27.59,0,0,0-11.46-3.32,28.46,28.46,0,0,0-8.29,1,22.77,22.77,0,0,0-3.81,1.38,25.34,25.34,0,0,0-3.48,2.07,24.94,24.94,0,0,0-3.87-2l.31,9.52c.26.21.52.41.76.63a206.72,206.72,0,0,1,17.88,18.19A15.25,15.25,0,0,1,287,83.69a18.81,18.81,0,0,1-2.33-.46,14.78,14.78,0,0,1-2.28-.74,15.86,15.86,0,0,1-4.22-2.63l.31,9.54a24,24,0,0,0,9.78,2.4,20.4,20.4,0,0,0,6.8-1,22.23,22.23,0,0,0,6.5-3A22.68,22.68,0,0,0,304.62,90.19Z"/><path class="cls-2" d="M327.68,91.74a27.23,27.23,0,0,1-3.4,1.3,22.89,22.89,0,0,1-3.45.86,21.21,21.21,0,0,1-6.84,0c2.66.43,5.3.94,7.95,1.4l2,.35,2,.45,3.93.91.58-2.43A22.76,22.76,0,0,1,327.68,91.74Z"/><path class="cls-2" d="M323.21,85.14q-1.72-2.6-3.52-5.21c-1.21-1.73-2.44-3.53-3.73-5.17q-3.84-5-8.06-10.11a9,9,0,0,0-.67-.71l-1.67,16.77a15.64,15.64,0,0,0,8.24,5,18.94,18.94,0,0,0,4.69.44A15.2,15.2,0,0,0,323.21,85.14Z"/><path class="cls-2" d="M317.44,63.37c1.37,1.66,2.69,3.45,4,5.21s2.55,3.5,3.77,5.25c2.47,3.43,4.74,7.11,6.91,10.69.16.27.34.52.51.77l3.89-16.39a15.86,15.86,0,0,0-10.16-6.27,17.49,17.49,0,0,0-4.55-.24A13.76,13.76,0,0,0,317.44,63.37Z"/><path class="cls-2" d="M304.37,92.68l9.62,1.2a21.22,21.22,0,0,1-9.37-3.67Z"/><path class="cls-2" d="M339.28,57.18l-5.73-1.32c-.95-.23-1.91-.42-2.87-.58l-2.89-.52a24.48,24.48,0,0,1,10.92,4.82Z"/><path class="cls-2" d="M327.79,54.76,323,53.9l-2.41-.42-2.43-.31c-3.23-.41-6.47-.85-9.71-1.21l-.25,2.5A22.85,22.85,0,0,1,311.75,57a24.32,24.32,0,0,1,16-2.25Z"/><path class="cls-3" d="M330.4,94.56l2.2-9.27c-.17-.25-.35-.5-.51-.77-2.17-3.58-4.44-7.26-6.91-10.69q-1.83-2.62-3.77-5.25c-1.28-1.76-2.6-3.55-4-5.21a13.76,13.76,0,0,1,4.34-1,17.49,17.49,0,0,1,4.55.24,15.86,15.86,0,0,1,10.16,6.27l2.22-9.32a24.48,24.48,0,0,0-10.92-4.82,24.32,24.32,0,0,0-16,2.25,22.85,22.85,0,0,0-3.58-2.55l-.94,9.48a9,9,0,0,1,.67.71q4.23,5.09,8.06,10.11c1.29,1.64,2.52,3.44,3.73,5.17s2.37,3.48,3.52,5.21a15.2,15.2,0,0,1-4.72,1,18.94,18.94,0,0,1-4.69-.44,15.64,15.64,0,0,1-8.24-5l-.94,9.5a23,23,0,0,0,16.21,3.69,22.89,22.89,0,0,0,3.45-.86,27.23,27.23,0,0,0,3.4-1.3A22.76,22.76,0,0,0,330.4,94.56Z"/><path class="cls-2" d="M353.06,99.08a22.73,22.73,0,0,1-7.09,1.27,20.53,20.53,0,0,1-3.43-.24,20.15,20.15,0,0,1-3.36-.65c1.29.38,2.6.7,3.88,1.13l3.82,1.3,3.82,1.29c1.28.41,2.51,1,3.76,1.44l.9-2.33A23.2,23.2,0,0,1,353.06,99.08Z"/><path class="cls-2" d="M349.5,92c-.9-1.88-1.82-3.79-2.77-5.69s-2-3.68-3-5.54c-2.08-3.7-4.26-7.51-6.64-11.08-.18-.27-.38-.53-.57-.8l-3.9,16.4A16.47,16.47,0,0,0,336,88.9a15,15,0,0,0,4.11,2.44,14.66,14.66,0,0,0,4.6,1A15.64,15.64,0,0,0,349.5,92Z"/><path class="cls-2" d="M346.7,69.68c1.12,1.88,2.2,3.75,3.26,5.61s2,3.86,3,5.77c1.94,3.85,3.79,7.55,5.42,11.5.12.29.26.56.4.84l6.06-15.72A15,15,0,0,0,361,73a17.69,17.69,0,0,0-5.41-2.93,15.2,15.2,0,0,0-4.48-.87A17.31,17.31,0,0,0,346.7,69.68Z"/><path class="cls-2" d="M329.82,97c3.17.65,6.26,1.6,9.36,2.47a19.9,19.9,0,0,1-4.59-2c-.73-.44-1.45-.88-2.15-1.35a20.49,20.49,0,0,1-2-1.57Z"/><path class="cls-2" d="M369.18,66.44c-3.62-1.51-7.36-2.67-11.06-3.95a24.77,24.77,0,0,1,10.17,6.25Z"/><path class="cls-2" d="M358.12,62.49c-3.08-1.1-6.23-2-9.37-2.84L344,58.31c-1.58-.42-3.18-.75-4.76-1.13l-.58,2.44a25.56,25.56,0,0,1,3.22,2.92,24.83,24.83,0,0,1,7.94-1.35,29.11,29.11,0,0,1,4.15.27A25,25,0,0,1,358.12,62.49Z"/><path class="cls-3" d="M355.36,102.29l3.43-8.89c-.14-.28-.28-.55-.4-.84-1.63-4-3.48-7.65-5.42-11.5-1-1.91-2-3.86-3-5.77s-2.14-3.73-3.26-5.61a17.31,17.31,0,0,1,4.44-.45,15.2,15.2,0,0,1,4.48.87A17.69,17.69,0,0,1,361,73a15,15,0,0,1,3.82,4.65l3.44-8.94A26.65,26.65,0,0,0,354,61.46a29.11,29.11,0,0,0-4.15-.27,24.83,24.83,0,0,0-7.94,1.35,25.56,25.56,0,0,0-3.22-2.92l-2.2,9.27c.19.27.39.53.57.8,2.38,3.57,4.56,7.38,6.64,11.08,1,1.86,2,3.7,3,5.54s1.87,3.81,2.77,5.69a15.64,15.64,0,0,1-4.8.32,14.66,14.66,0,0,1-4.6-1A15,15,0,0,1,336,88.9a16.47,16.47,0,0,1-3.39-3.61l-2.2,9.29a20.49,20.49,0,0,0,2,1.57c.7.47,1.42.91,2.15,1.35a19.9,19.9,0,0,0,4.59,2,20.15,20.15,0,0,0,3.36.65,20.53,20.53,0,0,0,3.43.24,22.73,22.73,0,0,0,7.09-1.27A23.2,23.2,0,0,0,355.36,102.29Z"/><path class="cls-2" d="M377.19,109.86a22.24,22.24,0,0,1-7.16.23,21.89,21.89,0,0,1-6.62-1.76c4.94,2.13,9.72,4.62,14.47,7.14l1.2-2.19A32.19,32.19,0,0,1,377.19,109.86Z"/><path class="cls-2" d="M374.64,102.3c-.61-2-1.3-4-2-5.94s-1.46-4-2.23-6c-1.51-4.06-3.26-7.89-5.09-11.86-.14-.3-.3-.59-.46-.88L358.79,93.4a15.89,15.89,0,0,0,2.86,4.07,14.78,14.78,0,0,0,1.8,1.57,15.81,15.81,0,0,0,2,1.34,14.44,14.44,0,0,0,4.41,1.66A18.87,18.87,0,0,0,374.64,102.3Z"/><path class="cls-2" d="M374.86,79.81c.85,2,1.66,4,2.45,6.06s1.56,4,2.25,6C381,96,382.24,100,383.39,104c.08.3.18.6.28.89l8.11-14.76a16.69,16.69,0,0,0-8.12-8.76A17.12,17.12,0,0,0,374.86,79.81Z"/><path class="cls-2" d="M354.46,104.62c3,1.2,6,2.31,9,3.71a24,24,0,0,1-8.05-6Z"/><path class="cls-2" d="M397.58,79.6c-3.44-1.88-6.95-3.6-10.43-5.4a26.81,26.81,0,0,1,9.24,7.56Z"/><path class="cls-2" d="M387.15,74.2c-2.95-1.4-5.94-2.71-8.91-4.06l-2.23-1-2.28-.9-4.55-1.8-.9,2.34a25,25,0,0,1,2.78,3.38,24.46,24.46,0,0,1,4-.55,25.14,25.14,0,0,1,4.05.23A27.28,27.28,0,0,1,387.15,74.2Z"/><path class="cls-3" d="M379.08,113.28l4.59-8.36c-.1-.29-.2-.59-.28-.89-1.15-4-2.44-8-3.83-12.11-.69-2.08-1.46-4-2.25-6s-1.6-4-2.45-6.06a17.12,17.12,0,0,1,8.8,1.59,16.69,16.69,0,0,1,8.12,8.76l4.61-8.4a26.81,26.81,0,0,0-9.24-7.56,27.28,27.28,0,0,0-8-2.36,25.14,25.14,0,0,0-4.05-.23,24.46,24.46,0,0,0-4,.55,25,25,0,0,0-2.78-3.38l-3.43,8.89c.16.29.32.58.46.88,1.83,4,3.58,7.8,5.09,11.86.77,2,1.51,4,2.23,6s1.4,3.9,2,5.94a18.87,18.87,0,0,1-4.82-.26,14.44,14.44,0,0,1-4.41-1.66,15.81,15.81,0,0,1-2-1.34,14.78,14.78,0,0,1-1.8-1.57,15.89,15.89,0,0,1-2.86-4.07l-3.43,8.91a24,24,0,0,0,8.05,6,21.89,21.89,0,0,0,6.62,1.76,22.24,22.24,0,0,0,7.16-.23A32.19,32.19,0,0,0,379.08,113.28Z"/><path class="cls-2" d="M399.69,123.74a23.18,23.18,0,0,1-3.65-.11c-1.18-.14-2.33-.37-3.48-.62a20.2,20.2,0,0,1-6.31-2.66l6.8,4.35,6.58,4.69,1.49-2A22,22,0,0,1,399.69,123.74Z"/><path class="cls-2" d="M398.19,115.88q-1.14-6.07-2.6-12.37c-1-4.11-2.21-8.22-3.48-12.42-.09-.32-.21-.63-.33-.94l-8.11,14.78a15.34,15.34,0,0,0,5.64,7.8A14.86,14.86,0,0,0,398.19,115.88Z"/><path class="cls-2" d="M401.42,93.6q1.66,6.44,3,12.65c.87,4.2,1.54,8.45,2.16,12.56,0,.3.11.6.17.9l10-13.55a16.42,16.42,0,0,0-2.49-5.45,15.29,15.29,0,0,0-4.4-4.3A17.55,17.55,0,0,0,401.42,93.6Z"/><path class="cls-2" d="M377.88,115.47l4.2,2.41,2.1,1.21,1.05.6,1,.66c-.35-.23-.69-.46-1-.71s-.68-.47-1-.72a20.73,20.73,0,0,1-1.9-1.63,21.87,21.87,0,0,1-3.22-4Z"/><path class="cls-2" d="M423.93,96.46l-4.78-3.4c-1.6-1.12-3.17-2.29-4.84-3.32a23,23,0,0,1,4.64,4,27.22,27.22,0,0,1,3.52,4.76Z"/><path class="cls-2" d="M414.31,89.74c-2.75-1.76-5.48-3.54-8.25-5.26l-8.48-4.88-1.21,2.2a25.69,25.69,0,0,1,2.28,3.75,24.21,24.21,0,0,1,8.06.73A28.52,28.52,0,0,1,414.31,89.74Z"/><path class="cls-3" d="M401.12,127.38l5.65-7.67c-.06-.3-.12-.6-.17-.9-.62-4.11-1.29-8.36-2.16-12.56s-1.91-8.36-3-12.65a17.55,17.55,0,0,1,8.47,2.81,15.29,15.29,0,0,1,4.4,4.3,16.42,16.42,0,0,1,2.49,5.45l5.69-7.71A27.22,27.22,0,0,0,419,93.69a23,23,0,0,0-4.64-4,28.52,28.52,0,0,0-7.6-3.46,24.21,24.21,0,0,0-8.06-.73,25.69,25.69,0,0,0-2.28-3.75l-4.59,8.35c.12.31.24.62.33.94,1.27,4.2,2.45,8.31,3.48,12.42s1.84,8.32,2.6,12.37a14.86,14.86,0,0,1-8.88-3.15,15.34,15.34,0,0,1-5.64-7.8l-4.59,8.36a21.87,21.87,0,0,0,3.22,4,20.73,20.73,0,0,0,1.9,1.63q.51.38,1,.72c.34.25.68.48,1,.71a20.2,20.2,0,0,0,6.31,2.66c1.15.25,2.3.48,3.48.62a23.18,23.18,0,0,0,3.65.11A22,22,0,0,0,401.12,127.38Z"/><path class="cls-2" d="M420.16,140.48a23.07,23.07,0,0,1-3.58-.62,21.06,21.06,0,0,1-3.41-1,21.91,21.91,0,0,1-5.88-3.5c2.09,1.7,4.08,3.52,6.13,5.26l1.53,1.32,1.46,1.4,2.92,2.79,1.74-1.8A23.15,23.15,0,0,1,420.16,140.48Z"/><path class="cls-2" d="M419.69,132.52q-.15-3.11-.37-6.28c-.14-2.11-.3-4.26-.56-6.33-.49-4.19-1-8.51-1.76-12.81-.06-.32-.14-.63-.22-.95l-10,13.56a18.56,18.56,0,0,0,1.67,4.71,14.73,14.73,0,0,0,4.69,5.29,13.71,13.71,0,0,0,2,1.27A14.86,14.86,0,0,0,419.69,132.52Z"/><path class="cls-2" d="M425.85,110.87c.15,1.08.31,2.14.43,3.23l.33,3.26q.31,3.26.56,6.45c.36,4.21.44,8.54.48,12.72,0,.31,0,.61.05.92l11.71-12.11a15.94,15.94,0,0,0-5.53-10.58,18.42,18.42,0,0,0-3.79-2.53,17.57,17.57,0,0,0-2.06-.86A18.1,18.1,0,0,0,425.85,110.87Z"/><path class="cls-2" d="M399.63,129.39l1,.7.95.75,1.91,1.5,3.81,3a20,20,0,0,1-3.51-3.55,27.77,27.77,0,0,1-2.67-4.39Z"/><path class="cls-2" d="M447.78,116.69l-4.25-4-1.06-1-1.11-1-2.21-1.93a24.7,24.7,0,0,1,6.92,9.72Z"/><path class="cls-2" d="M439.15,108.74c-4.87-4.34-10-8.35-15.22-12.28l-1.49,2a20,20,0,0,1,1.78,4,26.07,26.07,0,0,1,7.87,1.81,21,21,0,0,1,3.67,1.92A30.15,30.15,0,0,1,439.15,108.74Z"/><path class="cls-3" d="M421.07,144.3l6.63-6.85c0-.31-.05-.61-.05-.92,0-4.18-.12-8.51-.48-12.72q-.24-3.19-.56-6.45l-.33-3.26c-.12-1.09-.28-2.15-.43-3.23a18.1,18.1,0,0,1,2.18.5,17.57,17.57,0,0,1,2.06.86,18.42,18.42,0,0,1,3.79,2.53,15.94,15.94,0,0,1,5.53,10.58l6.66-6.88a24.7,24.7,0,0,0-6.92-9.72,30.15,30.15,0,0,0-3.39-2.53,21,21,0,0,0-3.67-1.92,26.07,26.07,0,0,0-7.87-1.81,20,20,0,0,0-1.78-4l-5.66,7.67c.08.32.16.63.22.95.72,4.3,1.27,8.62,1.76,12.81.26,2.07.42,4.22.56,6.33s.27,4.21.37,6.28a14.86,14.86,0,0,1-4.57-1.54,13.71,13.71,0,0,1-2-1.27,14.73,14.73,0,0,1-4.69-5.29,18.56,18.56,0,0,1-1.67-4.71l-5.66,7.68a27.77,27.77,0,0,0,2.67,4.39,20,20,0,0,0,3.51,3.55,21.91,21.91,0,0,0,5.88,3.5,21.06,21.06,0,0,0,3.41,1,23.07,23.07,0,0,0,3.58.62A23.15,23.15,0,0,0,421.07,144.3Z"/><path class="cls-2" d="M438.26,159.78a25.07,25.07,0,0,1-6.74-2.54,21,21,0,0,1-2.84-2,26.37,26.37,0,0,1-2.55-2.29c1.91,1.91,3.62,4,5.39,6l2.65,3,2.49,3.18,2-1.55A23.8,23.8,0,0,1,438.26,159.78Z"/><path class="cls-2" d="M438.81,151.85q.29-3.12.51-6.3c.13-2.11.17-4.19.23-6.32.09-4.23.17-8.64-.05-12.91,0-.33-.05-.66-.09-1L427.7,137.45a17.2,17.2,0,0,0,1.06,4.85,14.9,14.9,0,0,0,2.3,4.18,15.5,15.5,0,0,0,3.46,3.2A14.56,14.56,0,0,0,438.81,151.85Z"/><path class="cls-2" d="M447.78,131.21c0,2.19,0,4.34-.06,6.5s-.21,4.35-.34,6.49-.29,4.26-.47,6.35-.47,4.24-.73,6.32c0,.31-.06.61-.08.92l13.21-10.45a16,16,0,0,0-.9-6,18,18,0,0,0-3.17-5.26,15.4,15.4,0,0,0-7.46-4.91Z"/><path class="cls-2" d="M419.33,146.1c2.4,2.17,4.56,4.58,6.8,6.9a23.83,23.83,0,0,1-5.07-8.69Z"/><path class="cls-2" d="M468.76,139.87c-1.22-1.52-2.39-3.1-3.66-4.58l-3.84-4.44a29.25,29.25,0,0,1,3.48,5,25,25,0,0,1,2.09,5.56Z"/><path class="cls-2" d="M461.26,130.85c-1.08-1.22-2.12-2.47-3.22-3.67l-3.38-3.55-3.37-3.53c-1.12-1.19-2.34-2.27-3.51-3.41l-1.74,1.8a25.2,25.2,0,0,1,1.28,4.15,25.55,25.55,0,0,1,7.51,2.89,25.26,25.26,0,0,1,3.43,2.33A29.19,29.19,0,0,1,461.26,130.85Z"/><path class="cls-3" d="M438.62,163.7l7.48-5.91c0-.31,0-.61.08-.92.26-2.08.55-4.23.73-6.32s.33-4.21.47-6.35.25-4.3.34-6.49.06-4.31.06-6.5a15.4,15.4,0,0,1,7.46,4.91,18,18,0,0,1,3.17,5.26,16,16,0,0,1,.9,6l7.52-5.94a25,25,0,0,0-2.09-5.56,29,29,0,0,0-6.48-8,25.26,25.26,0,0,0-3.43-2.33,25.55,25.55,0,0,0-7.51-2.89,25.2,25.2,0,0,0-1.28-4.15l-6.63,6.85c0,.32.07.65.09,1,.22,4.27.14,8.68.05,12.91-.06,2.13-.1,4.21-.23,6.32s-.32,4.22-.51,6.3a14.56,14.56,0,0,1-4.29-2.17,15.5,15.5,0,0,1-3.46-3.2,14.9,14.9,0,0,1-2.3-4.18,17.2,17.2,0,0,1-1.06-4.85l-6.64,6.86a23.83,23.83,0,0,0,5.07,8.69,26.37,26.37,0,0,0,2.55,2.29,21,21,0,0,0,2.84,2,25.07,25.07,0,0,0,6.74,2.54A23.8,23.8,0,0,0,438.62,163.7Z"/><path class="cls-2" d="M453.6,181.32A23.59,23.59,0,0,1,442.48,173l2.35,3.29c.79,1.09,1.46,2.26,2.2,3.38l2.19,3.4,1.09,1.7,1,1.75,2.15-1.28A34.4,34.4,0,0,1,453.6,181.32Z"/><path class="cls-2" d="M455.22,173.53c1-4.12,1.69-8.18,2.4-12.4.33-2.1.69-4.26,1-6.39s.48-4.25.69-6.42c0-.33,0-.65.05-1L446.1,157.79a16.8,16.8,0,0,0,2.14,9.39A16.29,16.29,0,0,0,455.22,173.53Z"/><path class="cls-2" d="M466.84,154.27a203.51,203.51,0,0,1-5,25.2c-.09.3-.15.61-.21.91l14.48-8.6a15.33,15.33,0,0,0,.25-3,16.69,16.69,0,0,0-.4-3,18,18,0,0,0-2.39-5.68,14.57,14.57,0,0,0-3-3.42A17,17,0,0,0,466.84,154.27Z"/><path class="cls-2" d="M436.66,165.25l3,3.81c1,1.3,1.88,2.63,2.82,3.94a22.22,22.22,0,0,1-2.38-4.4,21.2,21.2,0,0,1-1.49-4.89Z"/><path class="cls-2" d="M486.5,165.63c-.5-.84-1-1.7-1.49-2.53l-1.58-2.47-3.17-4.94a29.25,29.25,0,0,1,2.75,5.44,27.37,27.37,0,0,1,.89,2.84,22.49,22.49,0,0,1,.48,2.92Z"/><path class="cls-2" d="M480.26,155.69c-.86-1.39-1.81-2.71-2.75-4l-2.84-4c-1.84-2.69-3.9-5.22-5.91-7.79l-2,1.56a25.29,25.29,0,0,1,.69,4.31,22.2,22.2,0,0,1,7.09,3.83,27.82,27.82,0,0,1,3.07,2.79c.49.51.95,1,1.4,1.59S479.87,155.09,480.26,155.69Z"/><path class="cls-3" d="M453.46,185.24l8.2-4.86c.06-.3.12-.61.21-.91a203.51,203.51,0,0,0,5-25.2,17,17,0,0,1,3.74,2.42,14.57,14.57,0,0,1,3,3.42,18,18,0,0,1,2.39,5.68,16.69,16.69,0,0,1,.4,3,15.33,15.33,0,0,1-.25,3l8.24-4.89a22.49,22.49,0,0,0-.48-2.92,27.37,27.37,0,0,0-.89-2.84,29.25,29.25,0,0,0-2.75-5.44c-.39-.6-.78-1.19-1.22-1.74s-.91-1.08-1.4-1.59a27.82,27.82,0,0,0-3.07-2.79,22.2,22.2,0,0,0-7.09-3.83,25.29,25.29,0,0,0-.69-4.31l-7.47,5.91c0,.33,0,.65-.05,1q-.31,3.26-.69,6.42c-.27,2.13-.63,4.29-1,6.39-.71,4.22-1.4,8.28-2.4,12.4a16.29,16.29,0,0,1-7-6.35,16.8,16.8,0,0,1-2.14-9.39l-7.49,5.92a21.2,21.2,0,0,0,1.49,4.89,22.22,22.22,0,0,0,2.38,4.4,23.59,23.59,0,0,0,11.12,8.32A34.4,34.4,0,0,0,453.46,185.24Z"/><path class="cls-2" d="M465.9,204.71a22.81,22.81,0,0,1-5.74-4.26A20,20,0,0,1,456,195c1.2,2.41,2.5,4.77,3.64,7.21l3.32,7.35,2.3-1A22.77,22.77,0,0,1,465.9,204.71Z"/><path class="cls-2" d="M468.61,197.18c1.43-3.89,2.74-7.86,4-12,.67-2.06,1.21-4.09,1.75-6.16s1.07-4.17,1.58-6.3c.08-.32.13-.65.19-1l-14.5,8.6a15.87,15.87,0,0,0,.89,9.58A15.12,15.12,0,0,0,468.61,197.18Z"/><path class="cls-2" d="M482.69,179.65c-1.21,4.25-2.45,8.38-3.79,12.41s-3,8.06-4.52,11.91c-.12.29-.21.57-.31.86l15.51-6.58a16.88,16.88,0,0,0-1-11.9A17.48,17.48,0,0,0,482.69,179.65Z"/><path class="cls-2" d="M451.31,186.52l2.42,4.2,1.21,2.1L456,195a23.15,23.15,0,0,1-1-2.28,21,21,0,0,1-1.59-7.44Z"/><path class="cls-2" d="M500.67,193.54c-1.62-3.56-3.2-7.15-4.87-10.69a27.42,27.42,0,0,1,2.6,11.66Z"/><path class="cls-2" d="M495.8,182.85l-4.46-8.71c-1.55-2.87-3.23-5.67-4.84-8.51l-2.16,1.29a25.62,25.62,0,0,1,.08,4.38A25.08,25.08,0,0,1,495.8,182.85Z"/><path class="cls-3" d="M465.3,208.56l8.77-3.73c.1-.29.19-.57.31-.86q2.34-5.78,4.52-11.91c1.34-4,2.58-8.16,3.79-12.41a17.48,17.48,0,0,1,5.91,6.7,16.88,16.88,0,0,1,1,11.9l8.82-3.74a27.42,27.42,0,0,0-2.6-11.66,25.08,25.08,0,0,0-11.38-11.55,25.62,25.62,0,0,0-.08-4.38l-8.19,4.86c-.06.32-.11.65-.19,1q-.76,3.19-1.58,6.3c-.54,2.07-1.08,4.1-1.75,6.16-1.28,4.11-2.59,8.08-4,12a15.12,15.12,0,0,1-6.07-7.22,15.87,15.87,0,0,1-.89-9.58l-8.2,4.87a21,21,0,0,0,1.59,7.44,23.15,23.15,0,0,0,1,2.28,20,20,0,0,0,4.12,5.48,22.81,22.81,0,0,0,5.74,4.26A22.77,22.77,0,0,0,465.3,208.56Z"/><path class="cls-2" d="M475,229.52a23.47,23.47,0,0,1-2.76-2.36,25.78,25.78,0,0,1-2.4-2.62,19.91,19.91,0,0,1-3.25-6l2.58,7.64c.46,1.26.8,2.57,1.17,3.86l1.1,3.88,2.41-.66A23.56,23.56,0,0,1,475,229.52Z"/><path class="cls-2" d="M478.65,222.43c1.91-3.65,3.87-7.46,5.64-11.33s3.37-7.83,5-11.92a8.53,8.53,0,0,0,.32-.93l-15.52,6.58a15.52,15.52,0,0,0-.44,9.63,18,18,0,0,0,1.86,4.32A15.15,15.15,0,0,0,478.65,222.43Z"/><path class="cls-2" d="M495,206.93a202.35,202.35,0,0,1-11.54,23c-.16.27-.29.55-.43.82l16.25-4.44a16.41,16.41,0,0,0,1.46-5.83,15,15,0,0,0-.08-3.07,19.39,19.39,0,0,0-.74-3A16.71,16.71,0,0,0,495,206.93Z"/><path class="cls-2" d="M463,209.53l3.57,9a20.87,20.87,0,0,1-1.28-10Z"/><path class="cls-2" d="M510.89,223.13c-1.1-3.76-2.05-7.56-3.38-11.24a25,25,0,0,1,1,11.89Z"/><path class="cls-2" d="M507.51,211.89l-1.57-4.64c-.52-1.55-1-3.1-1.67-4.61-1.19-3-2.37-6.08-3.6-9.1l-2.31,1a24,24,0,0,1-.54,4.37,26,26,0,0,1,5.89,5.56A27.64,27.64,0,0,1,507.51,211.89Z"/><path class="cls-3" d="M473.83,233.26l9.19-2.51c.14-.27.27-.55.43-.82a202.35,202.35,0,0,0,11.54-23,16.71,16.71,0,0,1,4.92,7.45,19.39,19.39,0,0,1,.74,3,15,15,0,0,1,.08,3.07,16.41,16.41,0,0,1-1.46,5.83l9.24-2.53a25,25,0,0,0-1-11.89,27.64,27.64,0,0,0-3.8-7.44,26,26,0,0,0-5.89-5.56,24,24,0,0,0,.54-4.37l-8.77,3.73a8.53,8.53,0,0,1-.32.93q-2.41,6.13-5,11.92c-1.77,3.87-3.73,7.68-5.64,11.33a15.15,15.15,0,0,1-3.16-3.65,18,18,0,0,1-1.86-4.32,15.52,15.52,0,0,1,.44-9.63l-8.78,3.73a20.87,20.87,0,0,0,1.28,10,19.91,19.91,0,0,0,3.25,6,25.78,25.78,0,0,0,2.4,2.62,23.47,23.47,0,0,0,2.76,2.36A23.56,23.56,0,0,0,473.83,233.26Z"/><path class="cls-2" d="M480.7,255.32a23.77,23.77,0,0,1-4.5-5.62,19.08,19.08,0,0,1-1.44-3.12,28.67,28.67,0,0,1-1-3.26c.68,2.61,1.07,5.27,1.56,7.92l.71,4c.21,1.33.35,2.67.52,4l2.48-.33A24.57,24.57,0,0,1,480.7,255.32Z"/><path class="cls-2" d="M485.22,248.8q1.83-2.53,3.66-5.16c1.19-1.75,2.29-3.51,3.42-5.31s2.25-3.63,3.36-5.49c.55-.93,1.12-1.87,1.65-2.81l1.54-2.84c.16-.29.29-.59.43-.88L483,230.75a16.79,16.79,0,0,0-1.72,9.48,15.62,15.62,0,0,0,1.34,4.51A15,15,0,0,0,485.22,248.8Z"/><path class="cls-2" d="M503.47,235.64c-1.12,1.88-2.2,3.73-3.37,5.55s-2.4,3.64-3.61,5.41c-2.42,3.54-4.82,7-7.5,10.27-.19.25-.37.5-.54.76l16.69-2.23a15.55,15.55,0,0,0,2.27-5.58,17.9,17.9,0,0,0,0-6.15,17.52,17.52,0,0,0-1.37-4.35A17.1,17.1,0,0,0,503.47,235.64Z"/><path class="cls-2" d="M471.42,233.92c1,3.08,1.55,6.27,2.31,9.4a23.83,23.83,0,0,1,.08-10Z"/><path class="cls-2" d="M517.08,253.81l-.37-2.91c-.11-1-.25-1.94-.44-2.9l-1-5.78a28.4,28.4,0,0,1,.44,6.07,23,23,0,0,1-1,5.85Z"/><path class="cls-2" d="M515.24,242.22c-.29-1.61-.56-3.22-.88-4.82l-1.1-4.77c-.74-3.18-1.42-6.37-2.37-9.5l-2.42.67a23.6,23.6,0,0,1-1,4.22,26.65,26.65,0,0,1,6.75,10.09A29.43,29.43,0,0,1,515.24,242.22Z"/><path class="cls-3" d="M479,258.88l9.45-1.25c.17-.26.35-.51.54-.76,2.68-3.32,5.08-6.73,7.5-10.27q1.81-2.65,3.61-5.41c1.17-1.82,2.25-3.67,3.37-5.55a17.1,17.1,0,0,1,2.54,3.68,17.52,17.52,0,0,1,1.37,4.35,17.9,17.9,0,0,1,0,6.15,15.55,15.55,0,0,1-2.27,5.58l9.5-1.26a23,23,0,0,0,1-5.85,28.4,28.4,0,0,0-.44-6.07,29.43,29.43,0,0,0-1-4.11A26.65,26.65,0,0,0,507.45,228a23.6,23.6,0,0,0,1-4.22l-9.19,2.51c-.14.29-.27.59-.43.88L497.31,230c-.53.94-1.1,1.88-1.65,2.81q-1.67,2.79-3.36,5.49c-1.13,1.8-2.23,3.56-3.42,5.31s-2.44,3.47-3.66,5.16a15,15,0,0,1-2.58-4.06,15.62,15.62,0,0,1-1.34-4.51,16.79,16.79,0,0,1,1.72-9.48l-9.21,2.52a23.83,23.83,0,0,0-.08,10,28.67,28.67,0,0,0,1,3.26,19.08,19.08,0,0,0,1.44,3.12,23.77,23.77,0,0,0,4.5,5.62A24.57,24.57,0,0,0,479,258.88Z"/><path class="cls-2" d="M482.84,281.69a22.18,22.18,0,0,1-3.62-6.18,21.5,21.5,0,0,1-1.66-6.66l.31,4,.16,2,.05,2,.21,8.09h2.5A22.29,22.29,0,0,1,482.84,281.69Z"/><path class="cls-2" d="M488.26,275.81c1.5-1.51,2.83-3.05,4.23-4.62s2.78-3.18,4.16-4.81c2.83-3.28,5.36-6.65,8-10.16.2-.27.37-.54.55-.82l-16.71,2.23A15.89,15.89,0,0,0,488.26,275.81Z"/><path class="cls-2" d="M508.08,265.2c-2.78,3.44-5.46,6.74-8.35,9.93s-5.86,6.26-8.79,9.19c-.22.22-.42.45-.62.68h16.84a17,17,0,0,0,3.76-11.33A17.32,17.32,0,0,0,508.08,265.2Z"/><path class="cls-2" d="M476.52,259.21l.62,4.81.15,1.2.09,1.21.18,2.42a24.31,24.31,0,0,1,1.42-10Z"/><path class="cls-2" d="M519.21,285l-.3-11.72A27.75,27.75,0,0,1,516.74,285Z"/><path class="cls-2" d="M518.91,273.28c-.21-3.25-.47-6.5-.72-9.75l-.19-2.44-.3-2.43-.62-4.85-2.49.33A24.51,24.51,0,0,1,513,258.2a25.19,25.19,0,0,1,2.41,3.26,26.69,26.69,0,0,1,1.73,3.66A27.66,27.66,0,0,1,518.91,273.28Z"/><path class="cls-3" d="M480.79,285h9.53c.2-.23.4-.46.62-.68q4.4-4.4,8.79-9.19c2.89-3.19,5.57-6.49,8.35-9.93a17.32,17.32,0,0,1,2.84,8.47A17,17,0,0,1,507.16,285h9.58a25.59,25.59,0,0,0,.38-19.88,26.69,26.69,0,0,0-1.73-3.66A25.19,25.19,0,0,0,513,258.2a24.51,24.51,0,0,0,1.61-4.06l-9.44,1.26c-.18.28-.35.55-.55.82-2.59,3.51-5.12,6.88-8,10.16-1.38,1.63-2.77,3.24-4.16,4.81s-2.73,3.11-4.23,4.62a15.89,15.89,0,0,1,.18-18.18L479,258.89a24.31,24.31,0,0,0-1.42,10,21.5,21.5,0,0,0,1.66,6.66,22.18,22.18,0,0,0,3.62,6.18A22.29,22.29,0,0,0,480.79,285Z"/><path class="cls-4" d="M206.41,376.2V195.06H216.6L340.89,295.63V195.06h22.49V376.2h-10.3L228.89,275.63V376.2Z"/></g></g></svg>